<?xml version="1.0" encoding="UTF-8" standalone="no"?>
<svg width="296.926mm" height="209.973mm"
 viewBox="0 0 3507 2480"
 xmlns="http://www.w3.org/2000/svg" xmlns:xlink="http://www.w3.org/1999/xlink"  version="1.2" baseProfile="tiny">
<desc>Generated with Qt</desc>
<defs>
</defs>
<g fill="none" stroke="black" stroke-width="1" fill-rule="evenodd" stroke-linecap="square" stroke-linejoin="bevel" >

<g fill="none" stroke="#000000" stroke-opacity="1" stroke-width="1" stroke-linecap="square" stroke-linejoin="bevel" transform="matrix(1,0,0,1,0,0)"
font-family=".Lucida Grande UI" font-size="54.1667" font-weight="400" font-style="normal" 
>
</g>

<g fill="none" stroke="#000000" stroke-opacity="1" stroke-width="1" stroke-linecap="square" stroke-linejoin="bevel" transform="matrix(11.8081,0,0,11.8081,0,0)"
font-family=".Lucida Grande UI" font-size="54.1667" font-weight="400" font-style="normal" 
>
</g>

<g fill="#ffffff" fill-opacity="1" stroke="none" transform="matrix(0.999751,0,0,0.999751,0,0)"
font-family=".Lucida Grande UI" font-size="54.1667" font-weight="400" font-style="normal" 
>
<path vector-effect="none" fill-rule="evenodd" d="M-1,-1 L3508.87,-1 L3508.87,2481.31 L-1,2481.31 L-1,-1"/>
</g>

<g fill="none" stroke="#000000" stroke-opacity="1" stroke-width="1" stroke-linecap="square" stroke-linejoin="bevel" transform="matrix(11.8081,0,0,11.8081,0,0)"
font-family=".Lucida Grande UI" font-size="54.1667" font-weight="400" font-style="normal" 
>
</g>

<g fill="none" stroke="#000000" stroke-opacity="1" stroke-width="1" stroke-linecap="square" stroke-linejoin="bevel" transform="matrix(11.8081,0,0,11.8081,0,0)"
font-family=".Lucida Grande UI" font-size="54.1667" font-weight="400" font-style="normal" 
>
</g>

<g fill="none" stroke="#000000" stroke-opacity="1" stroke-width="1" stroke-linecap="square" stroke-linejoin="bevel" transform="matrix(11.8081,0,0,11.8081,-1.61577e-13,0)"
font-family=".Lucida Grande UI" font-size="54.1667" font-weight="400" font-style="normal" 
>
</g>

<g fill="none" stroke="#000000" stroke-opacity="1" stroke-width="1" stroke-linecap="square" stroke-linejoin="bevel" transform="matrix(11.8081,0,0,11.8081,-1.61577e-13,0)"
font-family=".Lucida Grande UI" font-size="54.1667" font-weight="400" font-style="normal" 
>
</g>

<g fill="#ffffff" fill-opacity="1" stroke="none" transform="matrix(11.8081,0,0,11.8081,-1.61577e-13,0)"
font-family=".Lucida Grande UI" font-size="54.1667" font-weight="400" font-style="normal" 
>
<path vector-effect="non-scaling-stroke" fill-rule="evenodd" d="M0,0 L297,0 L297,210 L0,210 L0,0"/>
</g>

<g fill="none" stroke="#000000" stroke-opacity="1" stroke-width="1" stroke-linecap="square" stroke-linejoin="bevel" transform="matrix(11.8081,0,0,11.8081,-1.61577e-13,0)"
font-family=".Lucida Grande UI" font-size="54.1667" font-weight="400" font-style="normal" 
>
</g>

<g fill="#000000" fill-opacity="0" stroke="none" transform="matrix(0.999751,0,0,0.999751,-2.27374e-13,0)"
font-family=".Lucida Grande UI" font-size="54.1667" font-weight="400" font-style="normal" 
>
<path vector-effect="non-scaling-stroke" fill-rule="evenodd" d="M0,0 L3508,0 L3508,2480 L0,2480 L0,0"/>
</g>

<g fill="#ececec" fill-opacity="1" stroke="#000000" stroke-opacity="0" stroke-width="3.07087" stroke-linecap="square" stroke-linejoin="bevel" transform="matrix(0.999751,0,0,0.999751,-2.27374e-13,0)"
font-family=".Lucida Grande UI" font-size="54.1667" font-weight="400" font-style="normal" 
>
<path vector-effect="none" fill-rule="evenodd" d="M877.124,1244.75 L883.13,1244.75 L886.133,1239.55 L892.138,1239.55 L895.141,1234.35 L901.146,1234.35 L904.149,1239.55 L901.146,1244.75 L904.149,1249.95 L910.155,1249.95 L913.157,1255.15 L919.163,1255.15 L922.165,1260.35 L928.171,1260.35 L931.174,1265.55 L937.179,1265.55 L940.182,1270.75 L937.179,1275.96 L940.182,1281.16 L946.187,1281.16 L949.19,1286.36 L955.195,1286.36 L958.198,1291.56 L955.195,1296.76 L958.198,1301.96 L955.195,1307.16 L958.198,1312.36 L955.195,1317.56 L958.198,1322.76 L955.195,1327.96 L958.198,1333.17 L955.195,1338.37 L949.19,1338.37 L946.187,1343.57 L949.19,1348.77 L946.187,1353.97 L940.182,1353.97 L937.179,1348.77 L931.173,1348.77 L928.171,1353.97 L922.165,1353.97 L919.162,1359.17 L922.165,1364.37 L919.162,1369.57 L913.157,1369.57 L910.154,1374.77 L904.149,1374.77 L901.146,1369.57 L895.14,1369.57 L892.138,1364.37 L886.132,1364.37 L883.129,1369.57 L877.124,1369.57 L874.121,1364.37 L868.116,1364.37 L865.113,1359.17 L859.108,1359.17 L856.105,1353.97 L859.108,1348.77 L856.105,1343.57 L850.099,1343.57 L847.097,1338.37 L850.099,1333.17 L847.097,1327.96 L841.091,1327.96 L838.089,1333.17 L832.083,1333.17 L829.08,1338.37 L832.083,1343.57 L829.08,1348.77 L823.075,1348.77 L820.072,1343.57 L814.067,1343.57 L811.064,1338.37 L805.058,1338.37 L802.056,1333.17 L796.05,1333.16 L793.048,1327.96 L796.05,1322.76 L802.056,1322.76 L805.059,1317.56 L802.056,1312.36 L805.059,1307.16 L811.064,1307.16 L814.067,1301.96 L820.072,1301.96 L823.075,1296.76 L820.072,1291.56 L823.075,1286.36 L820.072,1281.16 L823.075,1275.96 L820.072,1270.75 L823.075,1265.55 L820.072,1260.35 L823.075,1255.15 L829.081,1255.15 L832.083,1260.35 L838.089,1260.35 L841.092,1255.15 L847.097,1255.15 L850.1,1249.95 L856.105,1249.95 L859.108,1244.75 L865.114,1244.75 L868.116,1239.55 L874.122,1239.55 L877.124,1244.75"/>
<path vector-effect="none" fill-rule="evenodd" d="M1675.13,1728.11 L1680.7,1731.32 L1680.7,1737.76 L1675.13,1740.97 L1675.13,1747.4 L1680.7,1750.62 L1680.7,1757.05 L1686.27,1760.27 L1686.27,1766.7 L1680.7,1769.92 L1680.7,1776.35 L1675.13,1779.57 L1675.13,1786 L1669.56,1789.22 L1669.56,1795.65 L1675.13,1798.87 L1675.13,1805.3 L1680.7,1808.52 L1680.7,1814.95 L1675.13,1818.17 L1675.13,1824.6 L1680.7,1827.81 L1680.7,1834.25 L1675.13,1837.46 L1669.56,1834.25 L1663.99,1837.46 L1663.99,1843.9 L1669.56,1847.11 L1669.56,1853.55 L1675.13,1856.76 L1675.13,1863.19 L1680.7,1866.41 L1686.27,1863.19 L1691.84,1866.41 L1691.84,1872.84 L1697.42,1876.06 L1697.42,1882.49 L1702.99,1885.71 L1702.99,1892.14 L1697.42,1895.36 L1697.42,1901.79 L1691.84,1905.01 L1691.84,1911.44 L1686.27,1914.66 L1680.7,1911.44 L1675.13,1914.66 L1669.56,1911.44 L1663.99,1914.66 L1663.99,1921.09 L1658.42,1924.31 L1658.42,1930.74 L1652.85,1933.95 L1652.85,1940.39 L1658.42,1943.6 L1663.99,1940.39 L1669.56,1943.6 L1675.13,1940.39 L1680.7,1943.6 L1686.27,1940.39 L1691.84,1943.6 L1697.41,1940.39 L1697.41,1933.96 L1702.99,1930.74 L1708.56,1933.96 L1714.13,1930.74 L1719.7,1933.96 L1719.7,1940.39 L1714.13,1943.6 L1714.13,1950.04 L1719.7,1953.25 L1719.7,1959.69 L1714.13,1962.9 L1714.13,1969.34 L1708.56,1972.55 L1708.56,1978.98 L1702.99,1982.2 L1702.99,1988.63 L1708.56,1991.85 L1708.56,1998.28 L1702.99,2001.5 L1702.99,2007.93 L1697.41,2011.15 L1697.41,2017.58 L1691.84,2020.8 L1691.84,2027.23 L1686.27,2030.45 L1686.27,2036.88 L1680.7,2040.1 L1675.13,2036.88 L1669.56,2040.1 L1669.56,2046.53 L1663.99,2049.74 L1663.99,2056.18 L1658.42,2059.39 L1658.42,2065.83 L1652.85,2069.04 L1652.85,2075.48 L1647.28,2078.69 L1647.28,2085.12 L1641.71,2088.34 L1636.13,2085.12 L1630.56,2088.34 L1624.99,2085.12 L1619.42,2088.34 L1619.42,2094.77 L1613.85,2097.99 L1613.85,2104.42 L1608.28,2107.64 L1602.71,2104.42 L1597.14,2107.64 L1597.14,2114.07 L1591.57,2117.29 L1586,2114.07 L1580.42,2117.29 L1580.42,2123.72 L1574.85,2126.94 L1569.28,2123.72 L1563.71,2126.94 L1563.71,2133.37 L1558.14,2136.59 L1558.14,2143.02 L1552.57,2146.24 L1547,2143.02 L1541.43,2146.24 L1541.43,2152.67 L1535.86,2155.88 L1530.29,2152.67 L1524.72,2155.88 L1519.14,2152.67 L1519.14,2146.24 L1513.57,2143.02 L1508,2146.24 L1508,2152.67 L1502.43,2155.88 L1502.43,2162.32 L1496.86,2165.53 L1491.29,2162.32 L1485.72,2165.53 L1480.15,2162.32 L1474.58,2165.53 L1469.01,2162.32 L1469.01,2155.88 L1463.43,2152.67 L1457.86,2155.88 L1452.29,2152.67 L1446.72,2155.88 L1441.15,2152.67 L1435.58,2155.88 L1430.01,2152.67 L1424.44,2155.88 L1418.87,2152.67 L1413.3,2155.88 L1407.73,2152.67 L1402.15,2155.88 L1396.58,2152.67 L1391.01,2155.88 L1385.44,2152.67 L1379.87,2155.88 L1374.3,2152.67 L1368.73,2155.88 L1363.16,2152.67 L1357.59,2155.88 L1352.02,2152.67 L1346.45,2155.88 L1340.87,2152.67 L1335.3,2155.88 L1335.3,2162.32 L1329.73,2165.53 L1324.16,2162.32 L1318.59,2165.53 L1313.02,2162.32 L1307.45,2165.53 L1301.88,2162.32 L1301.88,2155.88 L1296.31,2152.67 L1296.31,2146.23 L1290.74,2143.02 L1285.16,2146.23 L1279.59,2143.02 L1279.59,2136.59 L1274.02,2133.37 L1268.45,2136.59 L1262.88,2133.37 L1262.88,2126.94 L1257.31,2123.72 L1251.74,2126.94 L1246.17,2123.72 L1246.17,2117.29 L1240.6,2114.07 L1240.6,2107.64 L1235.03,2104.42 L1229.46,2107.64 L1229.46,2114.07 L1223.88,2117.29 L1223.88,2123.72 L1229.46,2126.94 L1229.46,2133.37 L1223.88,2136.59 L1223.88,2143.02 L1218.31,2146.23 L1212.74,2143.02 L1207.17,2146.23 L1201.6,2143.02 L1201.6,2136.59 L1196.03,2133.37 L1190.46,2136.59 L1184.89,2133.37 L1179.32,2136.59 L1173.75,2133.37 L1168.18,2136.59 L1168.18,2143.02 L1162.6,2146.23 L1157.03,2143.02 L1157.03,2136.59 L1151.46,2133.37 L1145.89,2136.59 L1140.32,2133.37 L1140.32,2126.94 L1134.75,2123.72 L1134.75,2117.29 L1129.18,2114.07 L1129.18,2107.64 L1123.61,2104.42 L1123.61,2097.99 L1118.04,2094.77 L1112.47,2097.99 L1106.89,2094.77 L1101.32,2097.99 L1095.75,2094.77 L1095.75,2088.34 L1090.18,2085.12 L1084.61,2088.34 L1079.04,2085.12 L1073.47,2088.34 L1067.9,2085.12 L1062.33,2088.34 L1056.76,2085.12 L1051.19,2088.34 L1051.19,2094.77 L1045.61,2097.99 L1040.04,2094.77 L1034.47,2097.99 L1028.9,2094.77 L1023.33,2097.99 L1017.76,2094.77 L1017.76,2088.34 L1012.19,2085.12 L1006.62,2088.34 L1006.62,2094.77 L1012.19,2097.99 L1012.19,2104.42 L1017.76,2107.64 L1017.76,2114.07 L1023.33,2117.29 L1023.33,2123.72 L1028.9,2126.94 L1028.9,2133.37 L1034.47,2136.58 L1034.47,2143.02 L1028.9,2146.23 L1028.9,2152.67 L1023.33,2155.88 L1017.76,2152.67 L1012.19,2155.88 L1006.62,2152.67 L1001.05,2155.88 L995.476,2152.67 L989.905,2155.88 L984.334,2152.67 L978.763,2155.88 L973.192,2152.67 L967.621,2155.88 L962.05,2152.67 L956.479,2155.88 L950.909,2152.67 L950.909,2146.23 L945.338,2143.02 L939.767,2146.23 L934.196,2143.02 L934.196,2136.58 L928.625,2133.37 L928.625,2126.94 L923.054,2123.72 L917.483,2126.94 L911.912,2123.72 L906.341,2126.94 L906.341,2133.37 L900.77,2136.58 L900.77,2143.02 L895.199,2146.23 L889.628,2143.02 L884.057,2146.23 L884.057,2152.67 L878.486,2155.88 L878.486,2162.32 L872.915,2165.53 L867.344,2162.32 L861.773,2165.53 L861.773,2171.96 L867.344,2175.18 L867.344,2181.61 L861.773,2184.83 L861.773,2191.26 L856.202,2194.48 L856.202,2200.91 L850.631,2204.13 L845.061,2200.91 L845.061,2194.48 L839.49,2191.26 L839.49,2184.83 L833.919,2181.61 L828.348,2184.83 L822.777,2181.61 L822.777,2175.18 L817.206,2171.96 L811.635,2175.18 L811.635,2181.61 L806.064,2184.83 L800.493,2181.61 L800.493,2175.18 L806.064,2171.96 L806.064,2165.53 L811.635,2162.32 L817.206,2165.53 L822.777,2162.32 L822.777,2155.88 L828.348,2152.67 L833.919,2155.88 L839.49,2152.67 L839.49,2146.23 L845.061,2143.02 L850.632,2146.23 L856.203,2143.02 L856.203,2136.58 L861.774,2133.37 L861.774,2126.94 L867.345,2123.72 L867.345,2117.29 L872.916,2114.07 L872.916,2107.64 L878.486,2104.42 L878.487,2097.99 L884.057,2094.77 L889.628,2097.99 L895.199,2094.77 L900.77,2097.99 L906.341,2094.77 L906.341,2088.34 L911.912,2085.12 L911.912,2078.69 L917.483,2075.47 L923.054,2078.69 L928.625,2075.47 L928.625,2069.04 L934.196,2065.82 L934.196,2059.39 L939.767,2056.17 L945.338,2059.39 L950.909,2056.17 L950.909,2049.74 L956.48,2046.53 L962.051,2049.74 L967.622,2046.53 L967.622,2040.09 L962.051,2036.88 L962.051,2030.44 L956.48,2027.23 L956.48,2020.79 L962.051,2017.58 L967.622,2020.79 L973.193,2017.58 L978.764,2020.79 L984.335,2017.58 L989.906,2020.79 L989.906,2027.23 L995.476,2030.44 L1001.05,2027.23 L1006.62,2030.44 L1012.19,2027.23 L1017.76,2030.44 L1017.76,2036.88 L1023.33,2040.09 L1028.9,2036.88 L1034.47,2040.09 L1040.04,2036.88 L1045.61,2040.09 L1051.19,2036.88 L1056.76,2040.09 L1062.33,2036.88 L1062.33,2030.44 L1067.9,2027.23 L1067.9,2020.8 L1062.33,2017.58 L1062.33,2011.15 L1056.76,2007.93 L1056.76,2001.5 L1062.33,1998.28 L1062.33,1991.85 L1067.9,1988.63 L1067.9,1982.2 L1073.47,1978.98 L1073.47,1972.55 L1067.9,1969.33 L1067.9,1962.9 L1073.47,1959.68 L1073.47,1953.25 L1079.04,1950.03 L1079.04,1943.6 L1084.61,1940.39 L1084.61,1933.95 L1079.04,1930.74 L1073.47,1933.95 L1073.47,1940.39 L1067.9,1943.6 L1067.9,1950.03 L1062.33,1953.25 L1062.33,1959.68 L1056.76,1962.9 L1056.76,1969.33 L1051.19,1972.55 L1051.19,1978.98 L1045.62,1982.2 L1045.62,1988.63 L1040.04,1991.85 L1040.04,1998.28 L1034.47,2001.5 L1028.9,1998.28 L1023.33,2001.5 L1017.76,1998.28 L1012.19,2001.5 L1006.62,1998.28 L1006.62,1991.85 L1001.05,1988.63 L1001.05,1982.2 L995.477,1978.98 L995.477,1972.55 L989.906,1969.33 L984.335,1972.55 L978.764,1969.33 L973.193,1972.55 L967.622,1969.33 L967.622,1962.9 L962.051,1959.68 L962.051,1953.25 L967.622,1950.03 L967.622,1943.6 L962.051,1940.39 L962.051,1933.95 L967.622,1930.74 L967.622,1924.3 L962.051,1921.09 L962.051,1914.65 L967.622,1911.44 L967.622,1905 L962.051,1901.79 L956.48,1905 L956.48,1911.44 L950.909,1914.65 L950.909,1921.09 L945.338,1924.3 L939.767,1921.09 L934.197,1924.3 L928.626,1921.09 L928.626,1914.65 L923.055,1911.44 L917.484,1914.65 L911.913,1911.44 L911.913,1905 L917.484,1901.79 L917.484,1895.36 L911.913,1892.14 L911.913,1885.71 L917.484,1882.49 L917.484,1876.06 L923.055,1872.84 L923.055,1866.41 L917.484,1863.19 L911.913,1866.41 L906.342,1863.19 L900.771,1866.41 L900.771,1872.84 L895.2,1876.06 L889.629,1872.84 L884.058,1876.06 L878.487,1872.84 L872.916,1876.06 L867.345,1872.84 L867.345,1866.41 L872.916,1863.19 L872.916,1856.76 L878.487,1853.54 L878.487,1847.11 L884.058,1843.89 L884.058,1837.46 L889.629,1834.24 L895.2,1837.46 L900.771,1834.24 L900.771,1827.81 L906.342,1824.6 L911.913,1827.81 L917.484,1824.6 L923.055,1827.81 L928.626,1824.6 L934.197,1827.81 L939.768,1824.6 L939.768,1818.16 L945.339,1814.95 L945.339,1808.51 L950.91,1805.3 L950.91,1798.86 L956.481,1795.65 L956.481,1789.22 L962.052,1786 L962.052,1779.57 L967.623,1776.35 L973.194,1779.57 L978.765,1776.35 L978.765,1769.92 L984.336,1766.7 L989.906,1769.92 L995.477,1766.7 L995.477,1760.27 L1001.05,1757.05 L1001.05,1750.62 L995.477,1747.4 L995.477,1740.97 L989.907,1737.75 L984.336,1740.97 L978.765,1737.75 L978.765,1731.32 L973.194,1728.1 L973.194,1721.67 L967.623,1718.45 L967.623,1712.02 L962.052,1708.81 L962.052,1702.37 L956.481,1699.16 L956.481,1692.72 L950.91,1689.51 L950.91,1683.07 L945.339,1679.86 L945.339,1673.43 L939.768,1670.21 L939.768,1663.78 L934.197,1660.56 L934.197,1654.13 L928.627,1650.91 L928.627,1644.48 L934.198,1641.26 L934.198,1634.83 L928.627,1631.61 L928.627,1625.18 L934.198,1621.96 L939.769,1625.18 L945.339,1621.96 L950.91,1625.18 L956.481,1621.96 L962.052,1625.18 L962.052,1631.61 L967.623,1634.83 L973.194,1631.61 L973.194,1625.18 L978.765,1621.96 L978.765,1615.53 L984.336,1612.31 L989.907,1615.53 L995.478,1612.31 L995.478,1605.88 L989.907,1602.67 L989.907,1596.23 L984.336,1593.02 L984.336,1586.58 L989.907,1583.37 L989.907,1576.93 L984.336,1573.72 L984.336,1567.28 L989.907,1564.07 L989.907,1557.64 L995.478,1554.42 L1001.05,1557.64 L1006.62,1554.42 L1006.62,1547.99 L1001.05,1544.77 L1001.05,1538.34 L1006.62,1535.12 L1006.62,1528.69 L1012.19,1525.47 L1012.19,1519.04 L1006.62,1515.82 L1006.62,1509.39 L1012.19,1506.17 L1012.19,1499.74 L1017.76,1496.52 L1017.76,1490.09 L1012.19,1486.88 L1012.19,1480.44 L1017.76,1477.23 L1017.76,1470.79 L1023.33,1467.58 L1023.33,1461.14 L1028.9,1457.93 L1028.9,1451.5 L1034.48,1448.28 L1034.48,1441.85 L1040.05,1438.63 L1040.05,1432.2 L1045.62,1428.98 L1045.62,1422.55 L1040.05,1419.33 L1040.05,1412.9 L1045.62,1409.68 L1045.62,1403.25 L1040.05,1400.03 L1040.05,1393.6 L1045.62,1390.38 L1045.62,1383.95 L1051.19,1380.73 L1056.76,1383.95 L1062.33,1380.73 L1062.33,1374.3 L1067.9,1371.09 L1067.9,1364.65 L1062.33,1361.44 L1062.33,1355 L1067.9,1351.79 L1067.9,1345.35 L1073.47,1342.14 L1079.04,1345.35 L1084.61,1342.14 L1084.61,1335.71 L1090.18,1332.49 L1090.18,1326.06 L1095.76,1322.84 L1095.76,1316.41 L1090.19,1313.19 L1084.61,1316.41 L1084.61,1322.84 L1079.04,1326.06 L1079.04,1332.49 L1073.47,1335.71 L1067.9,1332.49 L1067.9,1326.06 L1062.33,1322.84 L1062.33,1316.41 L1067.9,1313.19 L1067.9,1306.76 L1073.47,1303.54 L1073.47,1297.11 L1079.04,1293.89 L1079.04,1287.46 L1073.47,1284.24 L1073.47,1277.81 L1067.9,1274.59 L1067.9,1268.16 L1062.33,1264.95 L1062.33,1258.51 L1067.9,1255.3 L1067.9,1248.86 L1073.47,1245.65 L1073.47,1239.21 L1067.9,1236 L1067.9,1229.56 L1073.47,1226.35 L1073.47,1219.92 L1079.04,1216.7 L1079.04,1210.27 L1073.47,1207.05 L1067.9,1210.27 L1062.33,1207.05 L1056.76,1210.27 L1056.76,1216.7 L1051.19,1219.92 L1045.62,1216.7 L1040.05,1219.92 L1034.48,1216.7 L1028.91,1219.92 L1028.91,1226.35 L1023.33,1229.56 L1017.76,1226.35 L1012.19,1229.56 L1006.62,1226.35 L1001.05,1229.56 L995.479,1226.35 L989.908,1229.56 L989.908,1236 L984.337,1239.21 L978.767,1236 L978.767,1229.56 L973.196,1226.35 L967.625,1229.56 L962.054,1226.35 L962.054,1219.92 L967.625,1216.7 L973.196,1219.92 L978.767,1216.7 L978.767,1210.27 L973.196,1207.05 L973.196,1200.62 L978.767,1197.4 L978.767,1190.97 L973.196,1187.75 L973.196,1181.32 L978.767,1178.1 L978.767,1171.67 L973.196,1168.45 L973.196,1162.02 L967.625,1158.8 L967.625,1152.37 L962.054,1149.15 L962.054,1142.72 L956.483,1139.51 L950.912,1142.72 L945.341,1139.51 L945.341,1133.07 L939.77,1129.86 L939.77,1123.42 L934.199,1120.21 L934.199,1113.77 L928.629,1110.56 L928.629,1104.13 L934.2,1100.91 L934.2,1094.48 L939.771,1091.26 L939.771,1084.83 L945.341,1081.61 L945.342,1075.18 L939.771,1071.96 L939.771,1065.53 L945.342,1062.31 L945.342,1055.88 L939.771,1052.66 L939.771,1046.23 L945.342,1043.01 L945.342,1036.58 L939.771,1033.37 L939.771,1026.93 L945.342,1023.72 L945.342,1017.28 L939.771,1014.07 L934.2,1017.28 L928.629,1014.07 L928.629,1007.63 L934.2,1004.42 L934.2,997.985 L939.771,994.769 L939.771,988.336 L945.342,985.119 L945.342,978.687 L950.913,975.47 L956.484,978.687 L962.055,975.47 L967.626,978.687 L973.197,975.47 L973.197,969.038 L978.768,965.821 L978.768,959.388 L984.339,956.172 L989.909,959.388 L995.48,956.172 L995.48,949.739 L989.91,946.523 L989.91,940.09 L984.339,936.874 L978.768,940.09 L973.197,936.874 L973.197,930.441 L978.768,927.225 L978.768,920.792 L973.197,917.575 L973.197,911.143 L967.626,907.926 L967.626,901.494 L973.197,898.277 L973.197,891.844 L978.768,888.628 L978.768,882.195 L973.197,878.979 L973.197,872.546 L967.626,869.33 L967.626,862.897 L962.055,859.681 L962.055,853.248 L967.626,850.031 L973.197,853.248 L973.197,859.681 L978.768,862.897 L984.339,859.681 L984.339,853.248 L989.91,850.031 L989.91,843.599 L995.481,840.382 L1001.05,843.599 L1001.05,850.032 L1006.62,853.248 L1006.62,859.681 L1001.05,862.897 L1001.05,869.33 L995.481,872.546 L995.481,878.979 L989.91,882.195 L989.91,888.628 L995.481,891.844 L995.481,898.277 L1001.05,901.494 L1006.62,898.277 L1012.19,901.494 L1012.19,907.926 L1017.76,911.143 L1023.34,907.926 L1028.91,911.143 L1034.48,907.927 L1034.48,901.494 L1040.05,898.277 L1045.62,901.494 L1051.19,898.277 L1051.19,891.845 L1056.76,888.628 L1062.33,891.845 L1067.9,888.628 L1073.47,891.845 L1079.04,888.628 L1079.04,882.196 L1084.62,878.979 L1090.19,882.196 L1095.76,878.979 L1101.33,882.196 L1106.9,878.979 L1112.47,882.196 L1118.04,878.979 L1118.04,872.547 L1123.61,869.33 L1129.18,872.547 L1134.75,869.33 L1140.33,872.547 L1145.9,869.33 L1151.47,872.547 L1151.47,878.98 L1145.9,882.196 L1145.9,888.629 L1151.47,891.845 L1151.47,898.278 L1157.04,901.494 L1157.04,907.927 L1151.47,911.143 L1151.47,917.576 L1145.9,920.792 L1145.9,927.225 L1140.32,930.442 L1134.75,927.225 L1129.18,930.442 L1123.61,927.225 L1118.04,930.442 L1112.47,927.225 L1106.9,930.441 L1101.33,927.225 L1095.76,930.441 L1090.19,927.225 L1084.62,930.441 L1084.62,936.874 L1079.04,940.091 L1079.04,946.523 L1084.62,949.74 L1084.62,956.172 L1090.19,959.389 L1090.19,965.822 L1095.76,969.038 L1095.76,975.471 L1090.19,978.687 L1084.62,975.471 L1079.04,978.687 L1079.04,985.12 L1084.62,988.336 L1084.62,994.769 L1090.19,997.985 L1095.76,994.769 L1101.33,997.986 L1101.33,1004.42 L1106.9,1007.63 L1112.47,1004.42 L1118.04,1007.63 L1118.04,1014.07 L1123.61,1017.28 L1129.18,1014.07 L1134.75,1017.28 L1134.75,1023.72 L1129.18,1026.93 L1123.61,1023.72 L1118.04,1026.93 L1112.47,1023.72 L1106.9,1026.93 L1106.9,1033.37 L1101.33,1036.58 L1101.33,1043.01 L1095.76,1046.23 L1090.19,1043.01 L1090.19,1036.58 L1084.62,1033.37 L1079.04,1036.58 L1073.47,1033.37 L1067.9,1036.58 L1062.33,1033.37 L1056.76,1036.58 L1051.19,1033.37 L1045.62,1036.58 L1045.62,1043.01 L1051.19,1046.23 L1051.19,1052.66 L1056.76,1055.88 L1062.33,1052.66 L1067.9,1055.88 L1073.47,1052.66 L1079.04,1055.88 L1084.62,1052.66 L1090.19,1055.88 L1090.19,1062.31 L1095.76,1065.53 L1095.76,1071.96 L1101.33,1075.18 L1101.33,1081.61 L1106.9,1084.83 L1112.47,1081.61 L1118.04,1084.83 L1123.61,1081.61 L1129.18,1084.83 L1129.18,1091.26 L1134.75,1094.48 L1134.75,1100.91 L1140.32,1104.13 L1140.32,1110.56 L1145.9,1113.78 L1145.9,1120.21 L1140.32,1123.42 L1140.32,1129.86 L1134.75,1133.07 L1134.75,1139.51 L1140.32,1142.72 L1140.32,1149.16 L1145.9,1152.37 L1151.47,1149.16 L1157.04,1152.37 L1157.04,1158.8 L1162.61,1162.02 L1162.61,1168.45 L1168.18,1171.67 L1173.75,1168.45 L1179.32,1171.67 L1184.89,1168.45 L1190.46,1171.67 L1196.03,1168.45 L1201.6,1171.67 L1207.18,1168.45 L1212.75,1171.67 L1212.75,1178.1 L1218.32,1181.32 L1223.89,1178.1 L1229.46,1181.32 L1229.46,1187.75 L1235.03,1190.97 L1240.6,1187.75 L1246.17,1190.97 L1246.17,1197.4 L1251.74,1200.62 L1257.31,1197.4 L1262.88,1200.62 L1262.88,1207.05 L1268.46,1210.27 L1274.03,1207.05 L1279.6,1210.27 L1279.6,1216.7 L1285.17,1219.92 L1290.74,1216.7 L1296.31,1219.92 L1296.31,1226.35 L1290.74,1229.57 L1290.74,1236 L1296.31,1239.21 L1296.31,1245.65 L1301.88,1248.86 L1301.88,1255.3 L1296.31,1258.51 L1296.31,1264.95 L1301.88,1268.16 L1301.88,1274.6 L1307.45,1277.81 L1307.45,1284.24 L1313.02,1287.46 L1313.02,1293.89 L1318.59,1297.11 L1324.16,1293.89 L1329.74,1297.11 L1329.74,1303.54 L1335.31,1306.76 L1340.88,1303.54 L1346.45,1306.76 L1346.45,1313.19 L1352.02,1316.41 L1352.02,1322.84 L1357.59,1326.06 L1363.16,1322.84 L1368.73,1326.06 L1368.73,1332.49 L1374.3,1335.71 L1374.3,1342.14 L1379.87,1345.36 L1379.87,1351.79 L1385.44,1355.01 L1385.44,1361.44 L1379.87,1364.65 L1379.87,1371.09 L1385.44,1374.3 L1385.44,1380.74 L1391.02,1383.95 L1391.02,1390.39 L1396.59,1393.6 L1402.16,1390.39 L1407.73,1393.6 L1407.73,1400.03 L1413.3,1403.25 L1413.3,1409.68 L1418.87,1412.9 L1424.44,1409.68 L1430.01,1412.9 L1430.01,1419.33 L1435.58,1422.55 L1441.15,1419.33 L1446.72,1422.55 L1446.72,1428.98 L1452.3,1432.2 L1457.87,1428.98 L1463.44,1432.2 L1469.01,1428.98 L1474.58,1432.2 L1474.58,1438.63 L1480.15,1441.85 L1480.15,1448.28 L1485.72,1451.5 L1485.72,1457.93 L1491.29,1461.15 L1491.29,1467.58 L1485.72,1470.8 L1485.72,1477.23 L1480.15,1480.44 L1474.58,1477.23 L1469.01,1480.44 L1463.44,1477.23 L1457.87,1480.44 L1457.87,1486.88 L1463.44,1490.09 L1469.01,1486.88 L1474.58,1490.09 L1474.58,1496.53 L1480.15,1499.74 L1485.72,1496.53 L1491.29,1499.74 L1491.29,1506.18 L1496.86,1509.39 L1496.86,1515.82 L1491.29,1519.04 L1491.29,1525.47 L1496.86,1528.69 L1496.86,1535.12 L1502.43,1538.34 L1502.43,1544.77 L1496.86,1547.99 L1496.86,1554.42 L1502.43,1557.64 L1502.43,1564.07 L1508,1567.29 L1508,1573.72 L1513.58,1576.94 L1513.58,1583.37 L1519.15,1586.59 L1519.15,1593.02 L1513.58,1596.23 L1513.58,1602.67 L1508,1605.88 L1508,1612.32 L1502.43,1615.53 L1502.43,1621.97 L1508,1625.18 L1513.58,1621.97 L1519.15,1625.18 L1519.15,1631.61 L1524.72,1634.83 L1524.72,1641.26 L1530.29,1644.48 L1535.86,1641.26 L1541.43,1644.48 L1547,1641.26 L1547,1634.83 L1552.57,1631.61 L1558.14,1634.83 L1563.71,1631.61 L1563.71,1625.18 L1569.28,1621.97 L1574.86,1625.18 L1580.43,1621.97 L1586,1625.18 L1591.57,1621.97 L1597.14,1625.18 L1597.14,1631.61 L1602.71,1634.83 L1608.28,1631.61 L1613.85,1634.83 L1619.42,1631.61 L1624.99,1634.83 L1630.56,1631.61 L1636.14,1634.83 L1636.14,1641.26 L1641.71,1644.48 L1647.28,1641.26 L1652.85,1644.48 L1652.85,1650.91 L1658.42,1654.13 L1663.99,1650.91 L1669.56,1654.13 L1669.56,1660.56 L1675.13,1663.78 L1675.13,1670.21 L1669.56,1673.43 L1669.56,1679.86 L1675.13,1683.08 L1675.13,1689.51 L1680.7,1692.73 L1680.7,1699.16 L1686.27,1702.38 L1686.27,1708.81 L1691.84,1712.02 L1691.84,1718.46 L1686.27,1721.67 L1680.7,1718.46 L1675.13,1721.67 L1675.13,1728.11"/>
<path vector-effect="none" fill-rule="evenodd" d="M1251.4,2165.13 L1245.84,2161.9 L1240.26,2165.1 L1234.7,2161.86 L1229.12,2165.06 L1223.56,2161.82 L1223.58,2155.39 L1229.16,2152.19 L1229.18,2145.76 L1234.76,2142.56 L1234.79,2136.13 L1240.37,2132.93 L1245.93,2136.17 L1251.51,2132.97 L1257.07,2136.21 L1257.05,2142.64 L1262.61,2145.87 L1262.59,2152.31 L1257,2155.5 L1256.98,2161.94 L1251.4,2165.13"/>
<path vector-effect="none" fill-rule="evenodd" d="M900.774,1043.01 L895.203,1046.23 L889.632,1043.01 L889.632,1036.58 L895.203,1033.36 L900.774,1036.58 L900.774,1043.01"/>
<path vector-effect="none" fill-rule="evenodd" d="M917.487,1033.37 L911.916,1036.58 L906.345,1033.36 L906.345,1026.93 L911.916,1023.72 L911.916,1017.28 L917.487,1014.07 L923.058,1017.28 L923.058,1023.72 L917.487,1026.93 L917.487,1033.37"/>
<path vector-effect="none" fill-rule="evenodd" d="M923.058,1004.42 L917.487,1007.63 L911.916,1004.42 L906.345,1007.63 L900.774,1004.42 L900.774,997.985 L906.345,994.768 L906.345,988.336 L911.916,985.119 L917.487,988.336 L917.487,994.768 L923.058,997.985 L923.058,1004.42"/>
<path vector-effect="none" fill-rule="evenodd" d="M889.633,927.224 L884.062,930.441 L878.491,927.224 L878.491,920.791 L884.062,917.575 L884.062,911.142 L889.633,907.926 L895.204,911.142 L895.204,917.575 L889.633,920.792 L889.633,927.224"/>
<path vector-effect="none" fill-rule="evenodd" d="M906.346,898.277 L900.775,901.493 L895.204,898.277 L895.204,891.844 L889.633,888.628 L889.633,882.195 L895.204,878.979 L900.775,882.195 L900.775,888.628 L906.346,891.844 L906.346,898.277"/>
<path vector-effect="none" fill-rule="evenodd" d="M928.63,853.248 L928.63,859.68 L923.059,862.897 L923.059,869.33 L917.488,872.546 L917.488,878.979 L911.917,882.195 L906.346,878.979 L906.346,872.546 L900.775,869.329 L900.775,862.897 L906.346,859.68 L906.346,853.248 L911.917,850.031 L917.488,853.248 L923.059,850.031 L928.63,853.248"/>
<path vector-effect="none" fill-rule="evenodd" d="M923.058,1139.51 L917.487,1142.72 L911.916,1139.51 L911.916,1133.07 L906.345,1129.86 L906.345,1123.42 L911.916,1120.21 L917.487,1123.42 L917.487,1129.86 L923.058,1133.07 L923.058,1139.51"/>
<path vector-effect="none" fill-rule="evenodd" d="M1023.34,830.733 L1017.76,833.95 L1012.19,830.733 L1012.19,824.3 L1017.76,821.084 L1023.34,824.301 L1023.34,830.733"/>
<path vector-effect="none" fill-rule="evenodd" d="M1034.48,811.435 L1040.05,814.651 L1040.05,821.084 L1034.48,824.301 L1028.91,821.084 L1028.91,814.651 L1023.34,811.435 L1017.76,814.651 L1012.19,811.435 L1012.19,805.002 L1017.76,801.786 L1017.76,795.353 L1023.34,792.137 L1028.91,795.353 L1028.91,801.786 L1034.48,805.002 L1034.48,811.435"/>
<path vector-effect="none" fill-rule="evenodd" d="M1118.04,698.862 L1118.04,705.295 L1112.47,708.511 L1106.9,705.295 L1101.33,708.511 L1095.76,705.295 L1095.76,698.862 L1101.33,695.646 L1106.9,698.862 L1112.47,695.646 L1112.47,689.213 L1106.9,685.996 L1106.9,679.564 L1112.47,676.347 L1112.47,669.914 L1118.04,666.698 L1123.61,669.915 L1123.61,676.347 L1118.04,679.564 L1118.04,685.996 L1123.61,689.213 L1123.61,695.646 L1118.04,698.862"/>
<path vector-effect="none" fill-rule="evenodd" d="M945.342,901.493 L945.342,907.926 L939.771,911.143 L939.771,917.575 L934.2,920.792 L928.629,917.575 L928.629,911.143 L923.058,907.926 L923.058,901.493 L928.629,898.277 L934.2,901.493 L939.771,898.277 L945.342,901.493"/>
<path vector-effect="none" fill-rule="evenodd" d="M939.895,1611.89 L934.324,1615.11 L928.753,1611.89 L923.182,1615.11 L917.611,1611.89 L917.611,1605.46 L923.182,1602.24 L923.182,1595.81 L917.611,1592.59 L917.611,1586.16 L912.04,1582.94 L912.04,1576.51 L917.611,1573.29 L917.611,1566.86 L923.182,1563.64 L928.753,1566.86 L928.753,1573.29 L934.324,1576.51 L934.324,1582.94 L939.895,1586.16 L939.895,1592.59 L945.466,1595.81 L945.466,1602.24 L939.895,1605.46 L939.895,1611.89"/>
</g>

<g fill="#ffb900" fill-opacity="1" stroke="#000000" stroke-opacity="1" stroke-width="3.07087" stroke-linecap="square" stroke-linejoin="bevel" transform="matrix(0.999751,0,0,0.999751,-2.27374e-13,0)"
font-family=".Lucida Grande UI" font-size="54.1667" font-weight="400" font-style="normal" 
>
<path vector-effect="none" fill-rule="evenodd" d="M1502.43,1924.31 L1502.43,1930.74 L1508,1933.95 L1513.57,1930.74 L1519.14,1933.95 L1519.14,1940.39 L1524.72,1943.6 L1524.72,1950.04 L1519.14,1953.25 L1513.57,1950.04 L1508,1953.25 L1502.43,1950.04 L1496.86,1953.25 L1491.29,1950.04 L1491.29,1943.6 L1485.72,1940.39 L1485.72,1933.95 L1480.15,1930.74 L1480.15,1924.31 L1485.72,1921.09 L1491.29,1924.31 L1496.86,1921.09 L1502.43,1924.31"/>
<path vector-effect="none" fill-rule="evenodd" d="M1268.45,1731.32 L1268.45,1737.75 L1262.88,1740.97 L1257.31,1737.75 L1251.74,1740.97 L1251.74,1747.4 L1246.17,1750.62 L1246.17,1757.05 L1240.6,1760.27 L1235.03,1757.05 L1229.46,1760.27 L1223.89,1757.05 L1223.89,1750.62 L1229.46,1747.4 L1229.46,1740.97 L1223.89,1737.75 L1223.89,1731.32 L1229.46,1728.1 L1235.03,1731.32 L1240.6,1728.1 L1246.17,1731.32 L1251.74,1728.1 L1257.31,1731.32 L1262.88,1728.1 L1268.45,1731.32"/>
<path vector-effect="none" fill-rule="evenodd" d="M1262.88,1760.27 L1262.88,1766.7 L1257.31,1769.92 L1251.74,1766.7 L1246.17,1769.92 L1246.17,1776.35 L1240.6,1779.57 L1235.03,1776.35 L1229.46,1779.57 L1223.89,1776.35 L1223.89,1769.92 L1218.31,1766.7 L1218.31,1760.27 L1223.89,1757.05 L1229.46,1760.27 L1235.03,1757.05 L1240.6,1760.27 L1246.17,1757.05 L1246.17,1750.62 L1251.74,1747.4 L1251.74,1740.97 L1257.31,1737.75 L1262.88,1740.97 L1262.88,1747.4 L1268.45,1750.62 L1268.45,1757.05 L1262.88,1760.27"/>
<path vector-effect="none" fill-rule="evenodd" d="M1157.04,1229.57 L1157.04,1236 L1162.61,1239.21 L1168.18,1236 L1173.75,1239.21 L1179.32,1236 L1184.89,1239.21 L1184.89,1245.65 L1190.46,1248.86 L1196.03,1245.65 L1201.6,1248.86 L1201.6,1255.3 L1196.03,1258.51 L1190.46,1255.3 L1184.89,1258.51 L1179.32,1255.3 L1173.75,1258.51 L1168.18,1255.3 L1168.18,1248.86 L1162.61,1245.65 L1157.04,1248.86 L1151.47,1245.65 L1145.89,1248.86 L1140.32,1245.65 L1140.32,1239.21 L1134.75,1236 L1134.75,1229.57 L1140.32,1226.35 L1145.89,1229.57 L1151.47,1226.35 L1157.04,1229.57"/>
<path vector-effect="none" fill-rule="evenodd" d="M1251.74,1400.03 L1246.17,1403.25 L1240.6,1400.03 L1240.6,1393.6 L1235.03,1390.38 L1235.03,1383.95 L1229.46,1380.74 L1229.46,1374.3 L1223.89,1371.09 L1223.89,1364.65 L1229.46,1361.44 L1229.46,1355 L1235.03,1351.79 L1240.6,1355 L1240.6,1361.44 L1246.17,1364.65 L1246.17,1371.09 L1251.74,1374.3 L1251.74,1380.74 L1257.31,1383.95 L1257.31,1390.38 L1251.74,1393.6 L1251.74,1400.03"/>
<path vector-effect="none" fill-rule="evenodd" d="M1424.44,1866.41 L1424.44,1872.84 L1418.87,1876.06 L1418.87,1882.49 L1424.44,1885.71 L1424.44,1892.14 L1418.87,1895.36 L1418.87,1901.79 L1413.3,1905.01 L1407.73,1901.79 L1402.16,1905.01 L1396.58,1901.79 L1391.01,1905.01 L1385.44,1901.79 L1385.44,1895.36 L1391.01,1892.14 L1391.01,1885.71 L1396.58,1882.49 L1396.58,1876.06 L1402.16,1872.84 L1402.16,1866.41 L1407.73,1863.19 L1413.3,1866.41 L1418.87,1863.19 L1424.44,1866.41"/>
<path vector-effect="none" fill-rule="evenodd" d="M1106.9,1953.25 L1106.9,1959.68 L1112.47,1962.9 L1112.47,1969.33 L1118.04,1972.55 L1118.04,1978.98 L1112.47,1982.2 L1106.9,1978.98 L1101.32,1982.2 L1095.75,1978.98 L1095.75,1972.55 L1090.18,1969.33 L1084.61,1972.55 L1079.04,1969.33 L1079.04,1962.9 L1084.61,1959.68 L1084.61,1953.25 L1090.18,1950.03 L1095.75,1953.25 L1101.32,1950.03 L1101.32,1943.6 L1106.9,1940.39 L1112.47,1943.6 L1112.47,1950.03 L1106.9,1953.25"/>
<path vector-effect="none" fill-rule="evenodd" d="M1535.86,1699.16 L1541.43,1702.37 L1547,1699.16 L1552.57,1702.38 L1552.57,1708.81 L1547,1712.02 L1547,1718.46 L1552.57,1721.67 L1552.57,1728.11 L1547,1731.32 L1541.43,1728.11 L1535.86,1731.32 L1530.29,1728.11 L1530.29,1721.67 L1524.72,1718.46 L1524.72,1712.02 L1519.15,1708.81 L1519.15,1702.37 L1524.72,1699.16 L1524.72,1692.73 L1530.29,1689.51 L1535.86,1692.73 L1535.86,1699.16"/>
<path vector-effect="none" fill-rule="evenodd" d="M1340.88,1567.29 L1340.88,1573.72 L1335.31,1576.94 L1335.31,1583.37 L1329.73,1586.58 L1324.16,1583.37 L1318.59,1586.58 L1318.59,1593.02 L1313.02,1596.23 L1307.45,1593.02 L1301.88,1596.23 L1296.31,1593.02 L1290.74,1596.23 L1285.17,1593.02 L1279.6,1596.23 L1274.02,1593.02 L1268.45,1596.23 L1262.88,1593.02 L1262.88,1586.58 L1268.45,1583.37 L1274.02,1586.58 L1279.6,1583.37 L1285.17,1586.58 L1290.74,1583.37 L1296.31,1586.58 L1301.88,1583.37 L1301.88,1576.94 L1307.45,1573.72 L1313.02,1576.94 L1318.59,1573.72 L1318.59,1567.29 L1324.16,1564.07 L1329.73,1567.29 L1335.31,1564.07 L1340.88,1567.29"/>
<path vector-effect="none" fill-rule="evenodd" d="M1190.46,1268.16 L1190.46,1274.59 L1196.03,1277.81 L1201.6,1274.59 L1207.17,1277.81 L1212.75,1274.59 L1218.32,1277.81 L1223.89,1274.59 L1229.46,1277.81 L1235.03,1274.59 L1240.6,1277.81 L1246.17,1274.59 L1251.74,1277.81 L1251.74,1284.24 L1246.17,1287.46 L1240.6,1284.24 L1235.03,1287.46 L1229.46,1284.24 L1223.89,1287.46 L1218.32,1284.24 L1212.75,1287.46 L1207.17,1284.24 L1201.6,1287.46 L1196.03,1284.24 L1190.46,1287.46 L1184.89,1284.24 L1179.32,1287.46 L1173.75,1284.24 L1173.75,1277.81 L1168.18,1274.59 L1168.18,1268.16 L1173.75,1264.95 L1179.32,1268.16 L1184.89,1264.95 L1190.46,1268.16"/>
</g>

<g fill="#7d0069" fill-opacity="1" stroke="#000000" stroke-opacity="1" stroke-width="3.07087" stroke-linecap="square" stroke-linejoin="bevel" transform="matrix(0.999751,0,0,0.999751,-2.27374e-13,0)"
font-family=".Lucida Grande UI" font-size="54.1667" font-weight="400" font-style="normal" 
>
<path vector-effect="none" fill-rule="evenodd" d="M1491.29,1499.74 L1491.29,1506.18 L1496.86,1509.39 L1496.86,1515.82 L1491.29,1519.04 L1491.29,1525.47 L1485.72,1528.69 L1485.72,1535.12 L1480.15,1538.34 L1474.58,1535.12 L1474.58,1528.69 L1469.01,1525.47 L1469.01,1519.04 L1463.44,1515.82 L1463.44,1509.39 L1469.01,1506.18 L1469.01,1499.74 L1474.58,1496.53 L1480.15,1499.74 L1485.72,1496.53 L1491.29,1499.74"/>
</g>

<g fill="#ffb900" fill-opacity="1" stroke="#000000" stroke-opacity="1" stroke-width="3.07087" stroke-linecap="square" stroke-linejoin="bevel" transform="matrix(0.999751,0,0,0.999751,-2.27374e-13,0)"
font-family=".Lucida Grande UI" font-size="54.1667" font-weight="400" font-style="normal" 
>
<path vector-effect="none" fill-rule="evenodd" d="M1480.15,1827.81 L1480.15,1834.25 L1485.72,1837.46 L1485.72,1843.9 L1491.29,1847.11 L1491.29,1853.54 L1485.72,1856.76 L1480.15,1853.54 L1474.58,1856.76 L1469.01,1853.54 L1463.44,1856.76 L1457.86,1853.54 L1452.29,1856.76 L1446.72,1853.54 L1446.72,1847.11 L1452.29,1843.9 L1452.29,1837.46 L1457.87,1834.25 L1457.87,1827.81 L1463.44,1824.6 L1469.01,1827.81 L1474.58,1824.6 L1480.15,1827.81"/>
<path vector-effect="none" fill-rule="evenodd" d="M1502.43,1885.71 L1502.43,1892.14 L1508,1895.36 L1508,1901.79 L1502.43,1905.01 L1502.43,1911.44 L1496.86,1914.66 L1491.29,1911.44 L1485.72,1914.66 L1480.15,1911.44 L1480.15,1905.01 L1474.58,1901.79 L1474.58,1895.36 L1469.01,1892.14 L1469.01,1885.71 L1474.58,1882.49 L1480.15,1885.71 L1485.72,1882.49 L1491.29,1885.71 L1496.86,1882.49 L1502.43,1885.71"/>
<path vector-effect="none" fill-rule="evenodd" d="M1441.15,1432.2 L1441.15,1438.63 L1446.72,1441.85 L1452.3,1438.63 L1457.87,1441.85 L1457.87,1448.28 L1452.3,1451.5 L1452.3,1457.93 L1446.72,1461.15 L1441.15,1457.93 L1435.58,1461.15 L1430.01,1457.93 L1424.44,1461.15 L1418.87,1457.93 L1418.87,1451.5 L1424.44,1448.28 L1424.44,1441.85 L1418.87,1438.63 L1418.87,1432.2 L1424.44,1428.98 L1430.01,1432.2 L1435.58,1428.98 L1441.15,1432.2"/>
<path vector-effect="none" fill-rule="evenodd" d="M1240.6,1335.71 L1240.6,1342.14 L1246.17,1345.36 L1251.74,1342.14 L1257.31,1345.36 L1257.31,1351.79 L1262.88,1355 L1268.45,1351.79 L1274.03,1355 L1274.03,1361.44 L1279.6,1364.65 L1279.6,1371.09 L1285.17,1374.3 L1285.17,1380.74 L1279.6,1383.95 L1274.03,1380.74 L1274.03,1374.3 L1268.45,1371.09 L1268.45,1364.65 L1262.88,1361.44 L1257.31,1364.65 L1251.74,1361.44 L1246.17,1364.65 L1240.6,1361.44 L1240.6,1355 L1235.03,1351.79 L1235.03,1345.36 L1229.46,1342.14 L1223.89,1345.36 L1218.32,1342.14 L1218.32,1335.71 L1223.89,1332.49 L1229.46,1335.71 L1235.03,1332.49 L1240.6,1335.71"/>
<path vector-effect="none" fill-rule="evenodd" d="M1079.04,1557.64 L1079.04,1564.07 L1073.47,1567.29 L1067.9,1564.07 L1062.33,1567.29 L1062.33,1573.72 L1056.76,1576.93 L1056.76,1583.37 L1051.19,1586.58 L1045.62,1583.37 L1045.62,1576.93 L1040.05,1573.72 L1040.05,1567.29 L1045.62,1564.07 L1045.62,1557.64 L1040.05,1554.42 L1040.05,1547.99 L1045.62,1544.77 L1051.19,1547.99 L1051.19,1554.42 L1056.76,1557.64 L1062.33,1554.42 L1062.33,1547.99 L1067.9,1544.77 L1073.47,1547.99 L1073.47,1554.42 L1079.04,1557.64"/>
<path vector-effect="none" fill-rule="evenodd" d="M1212.74,1519.04 L1212.74,1525.47 L1207.17,1528.69 L1207.17,1535.12 L1201.6,1538.34 L1201.6,1544.77 L1196.03,1547.99 L1190.46,1544.77 L1190.46,1538.34 L1184.89,1535.12 L1179.32,1538.34 L1173.75,1535.12 L1168.18,1538.34 L1162.61,1535.12 L1162.61,1528.69 L1168.18,1525.47 L1173.75,1528.69 L1179.32,1525.47 L1179.32,1519.04 L1184.89,1515.82 L1190.46,1519.04 L1196.03,1515.82 L1201.6,1519.04 L1207.17,1515.82 L1212.74,1519.04"/>
<path vector-effect="none" fill-rule="evenodd" d="M1190.46,1538.34 L1190.46,1544.77 L1184.89,1547.99 L1184.89,1554.42 L1190.46,1557.64 L1190.46,1564.07 L1184.89,1567.29 L1184.89,1573.72 L1179.32,1576.93 L1173.75,1573.72 L1173.75,1567.29 L1168.18,1564.07 L1168.18,1557.64 L1162.61,1554.42 L1157.04,1557.64 L1151.46,1554.42 L1151.46,1547.99 L1157.04,1544.77 L1157.04,1538.34 L1162.61,1535.12 L1168.18,1538.34 L1173.75,1535.12 L1179.32,1538.34 L1184.89,1535.12 L1190.46,1538.34"/>
<path vector-effect="none" fill-rule="evenodd" d="M1184.89,1207.05 L1190.46,1210.27 L1196.03,1207.05 L1201.6,1210.27 L1207.18,1207.05 L1212.75,1210.27 L1212.75,1216.7 L1218.32,1219.92 L1223.89,1216.7 L1229.46,1219.92 L1229.46,1226.35 L1223.89,1229.57 L1218.32,1226.35 L1212.75,1229.57 L1207.18,1226.35 L1201.6,1229.57 L1196.03,1226.35 L1190.46,1229.57 L1184.89,1226.35 L1184.89,1219.92 L1179.32,1216.7 L1179.32,1210.27 L1173.75,1207.05 L1173.75,1200.62 L1179.32,1197.4 L1184.89,1200.62 L1184.89,1207.05"/>
<path vector-effect="none" fill-rule="evenodd" d="M1179.32,1190.97 L1179.32,1197.4 L1173.75,1200.62 L1173.75,1207.05 L1168.18,1210.27 L1162.61,1207.05 L1157.04,1210.27 L1151.47,1207.05 L1145.89,1210.27 L1140.32,1207.05 L1134.75,1210.27 L1134.75,1216.7 L1140.32,1219.92 L1140.32,1226.35 L1134.75,1229.57 L1129.18,1226.35 L1129.18,1219.92 L1123.61,1216.7 L1123.61,1210.27 L1129.18,1207.05 L1129.18,1200.62 L1134.75,1197.4 L1134.75,1190.97 L1140.32,1187.75 L1145.89,1190.97 L1151.47,1187.75 L1157.04,1190.97 L1162.61,1187.75 L1168.18,1190.97 L1173.75,1187.75 L1179.32,1190.97"/>
<path vector-effect="none" fill-rule="evenodd" d="M1262.88,1856.76 L1262.88,1863.19 L1268.45,1866.41 L1268.45,1872.84 L1262.88,1876.06 L1262.88,1882.49 L1257.31,1885.71 L1251.74,1882.49 L1246.17,1885.71 L1240.6,1882.49 L1240.6,1876.06 L1235.03,1872.84 L1235.03,1866.41 L1240.6,1863.19 L1240.6,1856.76 L1235.03,1853.54 L1235.03,1847.11 L1240.6,1843.89 L1246.17,1847.11 L1246.17,1853.54 L1251.74,1856.76 L1257.31,1853.54 L1257.31,1847.11 L1262.88,1843.89 L1268.45,1847.11 L1268.45,1853.54 L1262.88,1856.76"/>
<path vector-effect="none" fill-rule="evenodd" d="M1207.17,1438.63 L1212.75,1441.85 L1218.32,1438.63 L1223.89,1441.85 L1223.89,1448.28 L1218.32,1451.5 L1212.75,1448.28 L1207.17,1451.5 L1201.6,1448.28 L1201.6,1441.85 L1196.03,1438.63 L1190.46,1441.85 L1184.89,1438.63 L1184.89,1432.2 L1179.32,1428.98 L1179.32,1422.55 L1173.75,1419.33 L1173.75,1412.9 L1179.32,1409.68 L1179.32,1403.25 L1184.89,1400.03 L1190.46,1403.25 L1190.46,1409.68 L1196.03,1412.9 L1196.03,1419.33 L1201.6,1422.55 L1201.6,1428.98 L1207.17,1432.2 L1207.17,1438.63"/>
</g>

<g fill="#7d0069" fill-opacity="1" stroke="#000000" stroke-opacity="1" stroke-width="3.07087" stroke-linecap="square" stroke-linejoin="bevel" transform="matrix(0.999751,0,0,0.999751,-2.27374e-13,0)"
font-family=".Lucida Grande UI" font-size="54.1667" font-weight="400" font-style="normal" 
>
<path vector-effect="none" fill-rule="evenodd" d="M1363.16,1509.39 L1363.16,1515.82 L1368.73,1519.04 L1368.73,1525.47 L1374.3,1528.69 L1374.3,1535.12 L1379.87,1538.34 L1379.87,1544.77 L1374.3,1547.99 L1368.73,1544.77 L1363.16,1547.99 L1357.59,1544.77 L1357.59,1538.34 L1352.02,1535.12 L1352.02,1528.69 L1346.45,1525.47 L1346.45,1519.04 L1340.88,1515.82 L1335.31,1519.04 L1329.73,1515.82 L1329.73,1509.39 L1335.31,1506.17 L1340.88,1509.39 L1346.45,1506.17 L1352.02,1509.39 L1357.59,1506.17 L1363.16,1509.39"/>
</g>

<g fill="#ffb900" fill-opacity="1" stroke="#000000" stroke-opacity="1" stroke-width="3.07087" stroke-linecap="square" stroke-linejoin="bevel" transform="matrix(0.999751,0,0,0.999751,-2.27374e-13,0)"
font-family=".Lucida Grande UI" font-size="54.1667" font-weight="400" font-style="normal" 
>
<path vector-effect="none" fill-rule="evenodd" d="M1318.59,1528.69 L1318.59,1535.12 L1324.16,1538.34 L1329.73,1535.12 L1335.31,1538.34 L1340.88,1535.12 L1346.45,1538.34 L1346.45,1544.77 L1340.88,1547.99 L1335.31,1544.77 L1329.73,1547.99 L1324.16,1544.77 L1318.59,1547.99 L1313.02,1544.77 L1307.45,1547.99 L1301.88,1544.77 L1296.31,1547.99 L1290.74,1544.77 L1285.17,1547.99 L1279.6,1544.77 L1279.6,1538.34 L1285.17,1535.12 L1285.17,1528.69 L1290.74,1525.47 L1296.31,1528.69 L1301.88,1525.47 L1307.45,1528.69 L1313.02,1525.47 L1318.59,1528.69"/>
<path vector-effect="none" fill-rule="evenodd" d="M1296.31,1547.99 L1296.31,1554.42 L1290.74,1557.64 L1290.74,1564.07 L1296.31,1567.29 L1296.31,1573.72 L1290.74,1576.94 L1285.17,1573.72 L1279.6,1576.94 L1274.03,1573.72 L1268.45,1576.94 L1262.88,1573.72 L1262.88,1567.29 L1257.31,1564.07 L1257.31,1557.64 L1262.88,1554.42 L1262.88,1547.99 L1268.45,1544.77 L1274.03,1547.99 L1279.6,1544.77 L1285.17,1547.99 L1290.74,1544.77 L1296.31,1547.99"/>
<path vector-effect="none" fill-rule="evenodd" d="M1480.15,1982.2 L1480.15,1988.63 L1485.72,1991.85 L1485.72,1998.28 L1491.29,2001.5 L1491.29,2007.93 L1496.86,2011.15 L1496.86,2017.58 L1491.29,2020.8 L1485.72,2017.58 L1480.15,2020.8 L1474.58,2017.58 L1474.58,2011.15 L1469.01,2007.93 L1469.01,2001.5 L1463.44,1998.28 L1457.86,2001.5 L1452.29,1998.28 L1452.29,1991.85 L1457.86,1988.63 L1457.86,1982.2 L1463.44,1978.98 L1469.01,1982.2 L1474.58,1978.98 L1480.15,1982.2"/>
<path vector-effect="none" fill-rule="evenodd" d="M1541.43,1818.16 L1541.43,1824.6 L1547,1827.81 L1547,1834.25 L1541.43,1837.46 L1541.43,1843.9 L1535.86,1847.11 L1535.86,1853.54 L1530.29,1856.76 L1524.72,1853.54 L1524.72,1847.11 L1519.15,1843.9 L1519.15,1837.46 L1513.57,1834.25 L1513.57,1827.81 L1519.15,1824.6 L1519.15,1818.16 L1524.72,1814.95 L1530.29,1818.16 L1535.86,1814.95 L1541.43,1818.16"/>
</g>

<g fill="#ffb900" fill-opacity="1" stroke="#000000" stroke-opacity="1" stroke-width="3.07087" stroke-linecap="square" stroke-linejoin="bevel" transform="matrix(0.999751,0,0,0.999751,-2.27374e-13,0)"
font-family=".Lucida Grande UI" font-size="54.1667" font-weight="400" font-style="normal" 
>
<path vector-effect="none" fill-rule="evenodd" d="M900.774,1043.01 L895.203,1046.23 L889.632,1043.01 L889.632,1036.58 L895.203,1033.36 L900.774,1036.58 L900.774,1043.01"/>
<path vector-effect="none" fill-rule="evenodd" d="M917.487,1033.37 L911.916,1036.58 L906.345,1033.36 L906.345,1026.93 L911.916,1023.72 L911.916,1017.28 L917.487,1014.07 L923.058,1017.28 L923.058,1023.72 L917.487,1026.93 L917.487,1033.37"/>
<path vector-effect="none" fill-rule="evenodd" d="M923.058,1004.42 L917.487,1007.63 L911.916,1004.42 L906.345,1007.63 L900.774,1004.42 L900.774,997.985 L906.345,994.768 L906.345,988.336 L911.916,985.119 L917.487,988.336 L917.487,994.768 L923.058,997.985 L923.058,1004.42"/>
<path vector-effect="none" fill-rule="evenodd" d="M939.771,1014.07 L934.2,1017.28 L928.629,1014.07 L928.629,1007.63 L934.2,1004.42 L934.2,997.985 L939.771,994.769 L939.771,988.336 L945.342,985.119 L945.342,978.687 L950.913,975.47 L956.484,978.687 L956.484,985.119 L950.913,988.336 L950.913,994.769 L945.342,997.985 L945.342,1004.42 L939.771,1007.63 L939.771,1014.07"/>
<path vector-effect="none" fill-rule="evenodd" d="M1001.05,862.897 L1001.05,869.33 L995.481,872.546 L995.481,878.979 L989.91,882.195 L989.91,888.628 L984.339,891.844 L978.768,888.628 L978.768,882.195 L973.197,878.979 L973.197,872.546 L967.626,869.33 L967.626,862.897 L962.055,859.681 L962.055,853.248 L967.626,850.031 L973.197,853.248 L973.197,859.681 L978.768,862.897 L984.339,859.681 L984.339,853.248 L989.91,850.031 L989.91,843.599 L995.481,840.382 L1001.05,843.599 L1001.05,850.032 L1006.62,853.248 L1006.62,859.681 L1001.05,862.897"/>
<path vector-effect="none" fill-rule="evenodd" d="M1001.05,1004.42 L1006.62,1007.63 L1006.62,1014.07 L1012.19,1017.28 L1012.19,1023.72 L1017.76,1026.93 L1017.76,1033.37 L1023.33,1036.58 L1023.33,1043.01 L1017.76,1046.23 L1012.19,1043.01 L1012.19,1036.58 L1006.62,1033.37 L1006.62,1026.93 L1001.05,1023.72 L1001.05,1017.28 L995.48,1014.07 L995.48,1007.63 L989.909,1004.42 L984.338,1007.63 L984.338,1014.07 L978.767,1017.28 L973.196,1014.07 L973.196,1007.63 L978.767,1004.42 L978.767,997.985 L984.338,994.769 L984.338,988.336 L989.909,985.12 L995.48,988.336 L995.48,994.769 L1001.05,997.985 L1001.05,1004.42"/>
<path vector-effect="none" fill-rule="evenodd" d="M1079.04,1055.88 L1079.04,1062.31 L1073.47,1065.53 L1073.47,1071.96 L1079.04,1075.18 L1079.04,1081.61 L1073.47,1084.83 L1073.47,1091.26 L1079.04,1094.48 L1079.04,1100.91 L1073.47,1104.13 L1067.9,1100.91 L1067.9,1094.48 L1062.33,1091.26 L1062.33,1084.83 L1056.76,1081.61 L1056.76,1075.18 L1051.19,1071.96 L1051.19,1065.53 L1045.62,1062.31 L1045.62,1055.88 L1051.19,1052.66 L1056.76,1055.88 L1062.33,1052.66 L1067.9,1055.88 L1073.47,1052.66 L1079.04,1055.88"/>
<path vector-effect="none" fill-rule="evenodd" d="M1140.33,891.845 L1140.33,898.278 L1134.75,901.494 L1129.18,898.278 L1123.61,901.494 L1118.04,898.278 L1112.47,901.494 L1106.9,898.278 L1101.33,901.494 L1095.76,898.278 L1090.19,901.494 L1090.19,907.927 L1084.62,911.143 L1084.62,917.576 L1079.04,920.792 L1073.47,917.576 L1067.9,920.792 L1062.33,917.576 L1062.33,911.143 L1067.9,907.927 L1067.9,901.494 L1073.47,898.278 L1079.04,901.494 L1084.62,898.278 L1084.62,891.845 L1090.19,888.628 L1095.76,891.845 L1101.33,888.628 L1106.9,891.845 L1112.47,888.629 L1118.04,891.845 L1123.61,888.629 L1129.18,891.845 L1134.75,888.629 L1140.33,891.845"/>
<path vector-effect="none" fill-rule="evenodd" d="M1012.19,901.494 L1012.19,907.926 L1017.76,911.143 L1023.34,907.926 L1028.91,911.143 L1028.91,917.576 L1023.34,920.792 L1017.76,917.576 L1012.19,920.792 L1012.19,927.225 L1006.62,930.441 L1001.05,927.225 L995.481,930.441 L995.48,936.874 L989.91,940.09 L984.339,936.874 L984.339,930.441 L989.91,927.225 L989.91,920.792 L984.339,917.575 L984.339,911.143 L989.91,907.926 L989.91,901.494 L995.481,898.277 L1001.05,901.494 L1006.62,898.277 L1012.19,901.494"/>
<path vector-effect="none" fill-rule="evenodd" d="M1084.62,988.336 L1084.62,994.769 L1090.19,997.985 L1095.76,994.769 L1101.33,997.986 L1101.33,1004.42 L1106.9,1007.63 L1112.47,1004.42 L1118.04,1007.63 L1118.04,1014.07 L1123.61,1017.28 L1129.18,1014.07 L1134.75,1017.28 L1134.75,1023.72 L1129.18,1026.93 L1123.61,1023.72 L1118.04,1026.93 L1112.47,1023.72 L1112.47,1017.28 L1106.9,1014.07 L1101.33,1017.28 L1095.76,1014.07 L1095.76,1007.63 L1090.19,1004.42 L1084.62,1007.63 L1079.04,1004.42 L1079.04,997.985 L1073.47,994.769 L1067.9,997.985 L1062.33,994.769 L1062.33,988.336 L1067.9,985.12 L1073.47,988.336 L1079.04,985.12 L1084.62,988.336"/>
<path vector-effect="none" fill-rule="evenodd" d="M1023.34,830.733 L1017.76,833.95 L1012.19,830.733 L1012.19,824.3 L1017.76,821.084 L1023.34,824.301 L1023.34,830.733"/>
<path vector-effect="none" fill-rule="evenodd" d="M1034.48,811.435 L1040.05,814.651 L1040.05,821.084 L1034.48,824.301 L1028.91,821.084 L1028.91,814.651 L1023.34,811.435 L1017.76,814.651 L1012.19,811.435 L1012.19,805.002 L1017.76,801.786 L1017.76,795.353 L1023.34,792.137 L1028.91,795.353 L1028.91,801.786 L1034.48,805.002 L1034.48,811.435"/>
<path vector-effect="none" fill-rule="evenodd" d="M1118.04,698.862 L1118.04,705.295 L1112.47,708.511 L1106.9,705.295 L1101.33,708.511 L1095.76,705.295 L1095.76,698.862 L1101.33,695.646 L1106.9,698.862 L1112.47,695.646 L1112.47,689.213 L1106.9,685.996 L1106.9,679.564 L1112.47,676.347 L1112.47,669.914 L1118.04,666.698 L1123.61,669.915 L1123.61,676.347 L1118.04,679.564 L1118.04,685.996 L1123.61,689.213 L1123.61,695.646 L1118.04,698.862"/>
<path vector-effect="none" fill-rule="evenodd" d="M945.342,901.493 L945.342,907.926 L939.771,911.143 L939.771,917.575 L934.2,920.792 L928.629,917.575 L928.629,911.143 L923.058,907.926 L923.058,901.493 L928.629,898.277 L934.2,901.493 L939.771,898.277 L945.342,901.493"/>
<path vector-effect="none" fill-rule="evenodd" d="M995.481,891.844 L995.481,898.277 L989.91,901.494 L989.91,907.926 L984.339,911.143 L984.339,917.575 L989.91,920.792 L989.91,927.225 L984.339,930.441 L984.339,936.874 L978.768,940.09 L973.197,936.874 L973.197,930.441 L978.768,927.225 L978.768,920.792 L973.197,917.575 L973.197,911.143 L967.626,907.926 L967.626,901.494 L973.197,898.277 L973.197,891.844 L978.768,888.628 L984.339,891.844 L989.91,888.628 L995.481,891.844"/>
<path vector-effect="none" fill-rule="evenodd" d="M1101.33,920.792 L1101.33,927.225 L1095.76,930.441 L1090.19,927.225 L1084.62,930.441 L1084.62,936.874 L1079.04,940.091 L1073.47,936.874 L1073.47,930.441 L1067.9,927.225 L1062.33,930.441 L1056.76,927.225 L1051.19,930.441 L1045.62,927.225 L1040.05,930.441 L1034.48,927.225 L1028.91,930.441 L1023.34,927.225 L1017.76,930.441 L1012.19,927.225 L1012.19,920.792 L1017.76,917.576 L1023.34,920.792 L1028.91,917.576 L1034.48,920.792 L1040.05,917.576 L1045.62,920.792 L1051.19,917.576 L1056.76,920.792 L1062.33,917.576 L1067.9,920.792 L1073.47,917.576 L1079.04,920.792 L1084.62,917.576 L1090.19,920.792 L1095.76,917.576 L1101.33,920.792"/>
</g>

<g fill="#ffb900" fill-opacity="1" stroke="#000000" stroke-opacity="1" stroke-width="3.07087" stroke-linecap="square" stroke-linejoin="bevel" transform="matrix(0.999751,0,0,0.999751,-2.27374e-13,0)"
font-family=".Lucida Grande UI" font-size="54.1667" font-weight="400" font-style="normal" 
>
<path vector-effect="none" fill-rule="evenodd" d="M939.895,1611.89 L934.324,1615.11 L928.753,1611.89 L923.182,1615.11 L917.611,1611.89 L917.611,1605.46 L923.182,1602.24 L923.182,1595.81 L917.611,1592.59 L917.611,1586.16 L912.04,1582.94 L912.04,1576.51 L917.611,1573.29 L917.611,1566.86 L923.182,1563.64 L928.753,1566.86 L928.753,1573.29 L934.324,1576.51 L934.324,1582.94 L939.895,1586.16 L939.895,1592.59 L945.466,1595.81 L945.466,1602.24 L939.895,1605.46 L939.895,1611.89"/>
<path vector-effect="none" fill-rule="evenodd" d="M950.91,1837.46 L950.91,1843.89 L945.339,1847.11 L945.339,1853.54 L939.768,1856.76 L939.768,1863.19 L934.197,1866.41 L934.197,1872.84 L928.626,1876.06 L923.055,1872.84 L923.055,1866.41 L917.484,1863.19 L917.484,1856.76 L923.055,1853.54 L923.055,1847.11 L928.626,1843.89 L928.626,1837.46 L934.197,1834.24 L939.768,1837.46 L945.339,1834.24 L945.339,1827.81 L950.91,1824.6 L956.481,1827.81 L956.481,1834.24 L950.91,1837.46"/>
<path vector-effect="none" fill-rule="evenodd" d="M950.909,1921.09 L945.338,1924.3 L939.767,1921.09 L939.767,1914.65 L934.197,1911.44 L934.197,1905 L928.626,1901.79 L928.626,1895.36 L934.197,1892.14 L934.197,1885.71 L939.768,1882.49 L939.768,1876.06 L945.339,1872.84 L950.91,1876.06 L950.909,1882.49 L956.48,1885.71 L956.48,1892.14 L962.051,1895.36 L962.051,1901.79 L956.48,1905 L956.48,1911.44 L950.909,1914.65 L950.909,1921.09"/>
<path vector-effect="none" fill-rule="evenodd" d="M1045.62,1943.6 L1045.62,1950.03 L1051.19,1953.25 L1051.19,1959.68 L1045.62,1962.9 L1045.62,1969.33 L1040.04,1972.55 L1040.04,1978.98 L1034.47,1982.2 L1028.9,1978.98 L1028.9,1972.55 L1023.33,1969.33 L1023.33,1962.9 L1017.76,1959.68 L1017.76,1953.25 L1023.33,1950.03 L1023.33,1943.6 L1028.9,1940.39 L1034.47,1943.6 L1040.04,1940.39 L1045.62,1943.6"/>
<path vector-effect="none" fill-rule="evenodd" d="M1001.05,1892.14 L995.477,1895.36 L989.906,1892.14 L989.906,1885.71 L984.335,1882.49 L984.335,1876.06 L978.764,1872.84 L978.764,1866.41 L973.193,1863.19 L973.193,1856.76 L978.764,1853.54 L978.764,1847.11 L984.335,1843.89 L989.906,1847.11 L989.906,1853.54 L995.477,1856.76 L995.477,1863.19 L1001.05,1866.41 L1001.05,1872.84 L1006.62,1876.06 L1006.62,1882.49 L1001.05,1885.71 L1001.05,1892.14"/>
<path vector-effect="none" fill-rule="evenodd" d="M1090.18,1930.74 L1084.61,1933.95 L1079.04,1930.74 L1073.47,1933.95 L1073.47,1940.39 L1067.9,1943.6 L1062.33,1940.39 L1062.33,1933.95 L1067.9,1930.74 L1067.9,1924.3 L1073.47,1921.09 L1073.47,1914.65 L1067.9,1911.44 L1067.9,1905.01 L1073.47,1901.79 L1073.47,1895.36 L1067.9,1892.14 L1067.9,1885.71 L1073.47,1882.49 L1079.04,1885.71 L1079.04,1892.14 L1084.61,1895.36 L1084.61,1901.79 L1090.18,1905.01 L1090.18,1911.44 L1095.75,1914.65 L1095.75,1921.09 L1090.18,1924.3 L1090.18,1930.74"/>
<path vector-effect="none" fill-rule="evenodd" d="M962.052,1625.18 L962.052,1631.61 L956.481,1634.83 L956.481,1641.26 L950.91,1644.48 L950.91,1650.91 L945.339,1654.13 L945.339,1660.56 L950.91,1663.78 L950.91,1670.21 L945.339,1673.43 L939.768,1670.21 L939.768,1663.78 L934.197,1660.56 L934.197,1654.13 L928.627,1650.91 L928.627,1644.48 L934.198,1641.26 L934.198,1634.83 L928.627,1631.61 L928.627,1625.18 L934.198,1621.96 L939.769,1625.18 L945.339,1621.96 L950.91,1625.18 L956.481,1621.96 L962.052,1625.18"/>
<path vector-effect="none" fill-rule="evenodd" d="M1006.62,1779.57 L1006.62,1786 L1001.05,1789.22 L1001.05,1795.65 L1006.62,1798.86 L1006.62,1805.3 L1001.05,1808.51 L1001.05,1814.95 L995.477,1818.16 L989.906,1814.95 L984.335,1818.16 L978.764,1814.95 L973.193,1818.16 L967.623,1814.95 L967.623,1808.51 L973.194,1805.3 L973.194,1798.86 L978.764,1795.65 L978.765,1789.22 L984.335,1786 L984.335,1779.57 L989.906,1776.35 L995.477,1779.57 L1001.05,1776.35 L1006.62,1779.57"/>
<path vector-effect="none" fill-rule="evenodd" d="M984.335,1818.16 L984.335,1824.6 L978.764,1827.81 L978.764,1834.24 L984.335,1837.46 L984.335,1843.89 L978.764,1847.11 L978.764,1853.54 L973.193,1856.76 L973.193,1863.19 L978.764,1866.41 L978.764,1872.84 L973.193,1876.06 L967.622,1872.84 L967.622,1866.41 L962.051,1863.19 L962.051,1856.76 L967.622,1853.54 L967.622,1847.11 L962.051,1843.89 L962.052,1837.46 L956.481,1834.24 L956.481,1827.81 L962.052,1824.6 L962.052,1818.16 L967.623,1814.95 L973.193,1818.16 L978.764,1814.95 L984.335,1818.16"/>
<path vector-effect="none" fill-rule="evenodd" d="M1017.76,1882.49 L1012.19,1885.71 L1006.62,1882.49 L1006.62,1876.06 L1001.05,1872.84 L1001.05,1866.41 L995.477,1863.19 L995.477,1856.76 L989.906,1853.54 L989.906,1847.11 L984.335,1843.89 L984.335,1837.46 L978.764,1834.24 L978.764,1827.81 L984.335,1824.6 L984.335,1818.16 L989.906,1814.95 L995.477,1818.16 L995.477,1824.6 L1001.05,1827.81 L1001.05,1834.24 L995.477,1837.46 L995.477,1843.89 L1001.05,1847.11 L1001.05,1853.54 L1006.62,1856.76 L1006.62,1863.19 L1012.19,1866.41 L1012.19,1872.84 L1017.76,1876.06 L1017.76,1882.49"/>
<path vector-effect="none" fill-rule="evenodd" d="M1028.9,1863.19 L1023.33,1866.41 L1017.76,1863.19 L1012.19,1866.41 L1006.62,1863.19 L1006.62,1856.76 L1001.05,1853.54 L1001.05,1847.11 L995.477,1843.89 L995.477,1837.46 L1001.05,1834.24 L1001.05,1827.81 L995.477,1824.6 L995.477,1818.16 L1001.05,1814.95 L1001.05,1808.51 L1006.62,1805.3 L1012.19,1808.51 L1012.19,1814.95 L1006.62,1818.16 L1006.62,1824.6 L1012.19,1827.81 L1012.19,1834.24 L1017.76,1837.46 L1017.76,1843.89 L1023.33,1847.11 L1023.33,1853.54 L1028.9,1856.76 L1028.9,1863.19"/>
<path vector-effect="none" fill-rule="evenodd" d="M1006.62,1940.39 L1001.05,1943.6 L995.477,1940.39 L995.477,1933.95 L1001.05,1930.74 L1001.05,1924.3 L995.477,1921.09 L995.477,1914.65 L1001.05,1911.44 L1001.05,1905.01 L995.477,1901.79 L995.477,1895.36 L1001.05,1892.14 L1001.05,1885.71 L1006.62,1882.49 L1012.19,1885.71 L1012.19,1892.14 L1017.76,1895.36 L1017.76,1901.79 L1023.33,1905.01 L1023.33,1911.44 L1017.76,1914.65 L1017.76,1921.09 L1012.19,1924.3 L1012.19,1930.74 L1006.62,1933.95 L1006.62,1940.39"/>
<path vector-effect="none" fill-rule="evenodd" d="M1034.47,1892.14 L1040.04,1895.36 L1045.62,1892.14 L1051.19,1895.36 L1051.19,1901.79 L1045.62,1905.01 L1045.62,1911.44 L1040.04,1914.65 L1034.47,1911.44 L1028.9,1914.65 L1023.33,1911.44 L1023.33,1905.01 L1017.76,1901.79 L1017.76,1895.36 L1012.19,1892.14 L1012.19,1885.71 L1017.76,1882.49 L1017.76,1876.06 L1012.19,1872.84 L1012.19,1866.41 L1017.76,1863.19 L1023.33,1866.41 L1023.33,1872.84 L1028.9,1876.06 L1028.9,1882.49 L1034.47,1885.71 L1034.47,1892.14"/>
<path vector-effect="none" fill-rule="evenodd" d="M1056.76,1892.14 L1051.19,1895.36 L1045.62,1892.14 L1040.04,1895.36 L1034.47,1892.14 L1034.47,1885.71 L1028.9,1882.49 L1028.9,1876.06 L1023.33,1872.84 L1023.33,1866.41 L1028.9,1863.19 L1028.9,1856.76 L1023.33,1853.54 L1023.33,1847.11 L1028.9,1843.89 L1034.47,1847.11 L1034.47,1853.54 L1040.04,1856.76 L1040.04,1863.19 L1045.62,1866.41 L1045.62,1872.84 L1051.19,1876.06 L1051.19,1882.49 L1056.76,1885.71 L1056.76,1892.14"/>
</g>

<g fill="none" stroke="#000000" stroke-opacity="1" stroke-width="1" stroke-linecap="square" stroke-linejoin="bevel" transform="matrix(11.8081,0,0,11.8081,-1.61577e-13,0)"
font-family=".Lucida Grande UI" font-size="54.1667" font-weight="400" font-style="normal" 
>
</g>

<g fill="none" stroke="#000000" stroke-opacity="1" stroke-width="1" stroke-linecap="square" stroke-linejoin="bevel" transform="matrix(11.8081,0,0,11.8081,-1.61577e-13,0)"
font-family=".Lucida Grande UI" font-size="54.1667" font-weight="400" font-style="normal" 
>
</g>

<g fill="none" stroke="#000000" stroke-opacity="1" stroke-width="1" stroke-linecap="square" stroke-linejoin="bevel" transform="matrix(11.8081,0,0,11.8081,-1.61577e-13,0)"
font-family=".Lucida Grande UI" font-size="54.1667" font-weight="400" font-style="normal" 
>
</g>

<g fill="none" stroke="#000000" stroke-opacity="1" stroke-width="1" stroke-linecap="square" stroke-linejoin="bevel" transform="matrix(1,0,0,1,0,0)"
font-family=".Lucida Grande UI" font-size="54.1667" font-weight="400" font-style="normal" 
>
</g>

<g fill="none" stroke="#000000" stroke-opacity="1" stroke-width="1" stroke-linecap="square" stroke-linejoin="bevel" transform="matrix(11.8081,0,0,11.8081,-1.61577e-13,0)"
font-family=".Lucida Grande UI" font-size="54.1667" font-weight="400" font-style="normal" 
>
</g>

<g fill="none" stroke="#000000" stroke-opacity="1" stroke-width="1" stroke-linecap="square" stroke-linejoin="bevel" transform="matrix(11.8081,0,0,11.8081,-1.61577e-13,0)"
font-family=".Lucida Grande UI" font-size="54.1667" font-weight="400" font-style="normal" 
>
</g>

<g fill="none" stroke="#000000" stroke-opacity="1" stroke-width="1" stroke-linecap="square" stroke-linejoin="bevel" transform="matrix(11.8081,0,0,11.8081,0,0)"
font-family=".Lucida Grande UI" font-size="54.1667" font-weight="400" font-style="normal" 
>
</g>

<g fill="none" stroke="#000000" stroke-opacity="1" stroke-width="1" stroke-linecap="square" stroke-linejoin="bevel" transform="matrix(11.8081,0,0,11.8081,0,0)"
font-family=".Lucida Grande UI" font-size="54.1667" font-weight="400" font-style="normal" 
>
</g>

<g fill="none" stroke="#000000" stroke-opacity="1" stroke-width="1" stroke-linecap="square" stroke-linejoin="bevel" transform="matrix(11.8081,0,0,11.8081,0,0)"
font-family=".Lucida Grande UI" font-size="54.1667" font-weight="400" font-style="normal" 
>
</g>

<g fill="none" stroke="#000000" stroke-opacity="1" stroke-width="1" stroke-linecap="square" stroke-linejoin="bevel" transform="matrix(11.8081,0,0,11.8081,0,0)"
font-family=".Lucida Grande UI" font-size="54.1667" font-weight="400" font-style="normal" 
>
</g>

<g fill="none" stroke="#000000" stroke-opacity="1" stroke-width="1" stroke-linecap="square" stroke-linejoin="bevel" transform="matrix(1,0,0,1,0,0)"
font-family=".Lucida Grande UI" font-size="54.1667" font-weight="400" font-style="normal" 
>
</g>
</g>
</svg>
