<?xml version="1.0" encoding="UTF-8" standalone="no"?>
<svg width="296.926mm" height="209.973mm"
 viewBox="0 0 3507 2480"
 xmlns="http://www.w3.org/2000/svg" xmlns:xlink="http://www.w3.org/1999/xlink"  version="1.2" baseProfile="tiny">
<desc>Generated with Qt</desc>
<defs>
</defs>
<g fill="none" stroke="black" stroke-width="1" fill-rule="evenodd" stroke-linecap="square" stroke-linejoin="bevel" >

<g fill="none" stroke="#000000" stroke-opacity="1" stroke-width="1" stroke-linecap="square" stroke-linejoin="bevel" transform="matrix(1,0,0,1,0,0)"
font-family=".Lucida Grande UI" font-size="54.1667" font-weight="400" font-style="normal" 
>
</g>

<g fill="none" stroke="#000000" stroke-opacity="1" stroke-width="1" stroke-linecap="square" stroke-linejoin="bevel" transform="matrix(11.8081,0,0,11.8081,0,0)"
font-family=".Lucida Grande UI" font-size="54.1667" font-weight="400" font-style="normal" 
>
</g>

<g fill="#ffffff" fill-opacity="1" stroke="none" transform="matrix(0.999751,0,0,0.999751,0,0)"
font-family=".Lucida Grande UI" font-size="54.1667" font-weight="400" font-style="normal" 
>
<path vector-effect="none" fill-rule="evenodd" d="M-1,-1 L3508.87,-1 L3508.87,2481.31 L-1,2481.31 L-1,-1"/>
</g>

<g fill="none" stroke="#000000" stroke-opacity="1" stroke-width="1" stroke-linecap="square" stroke-linejoin="bevel" transform="matrix(11.8081,0,0,11.8081,0,0)"
font-family=".Lucida Grande UI" font-size="54.1667" font-weight="400" font-style="normal" 
>
</g>

<g fill="none" stroke="#000000" stroke-opacity="1" stroke-width="1" stroke-linecap="square" stroke-linejoin="bevel" transform="matrix(11.8081,0,0,11.8081,0,0)"
font-family=".Lucida Grande UI" font-size="54.1667" font-weight="400" font-style="normal" 
>
</g>

<g fill="none" stroke="#000000" stroke-opacity="1" stroke-width="1" stroke-linecap="square" stroke-linejoin="bevel" transform="matrix(11.8081,0,0,11.8081,401.475,177.121)"
font-family=".Lucida Grande UI" font-size="54.1667" font-weight="400" font-style="normal" 
>
</g>

<g fill="none" stroke="#000000" stroke-opacity="1" stroke-width="1" stroke-linecap="square" stroke-linejoin="bevel" transform="matrix(11.8081,0,0,11.8081,401.475,177.121)"
font-family=".Lucida Grande UI" font-size="54.1667" font-weight="400" font-style="normal" 
>
</g>

<g fill="#ffffff" fill-opacity="1" stroke="none" transform="matrix(11.8081,0,0,11.8081,401.475,177.121)"
font-family=".Lucida Grande UI" font-size="54.1667" font-weight="400" font-style="normal" 
>
<path vector-effect="non-scaling-stroke" fill-rule="evenodd" d="M0,0 L146,0 L146,166 L0,166 L0,0"/>
</g>

<g fill="none" stroke="#000000" stroke-opacity="1" stroke-width="1" stroke-linecap="square" stroke-linejoin="bevel" transform="matrix(11.8081,0,0,11.8081,401.475,177.121)"
font-family=".Lucida Grande UI" font-size="54.1667" font-weight="400" font-style="normal" 
>
</g>

<g fill="#000000" fill-opacity="0" stroke="none" transform="matrix(0.999751,0,0,0.999751,401.475,177.121)"
font-family=".Lucida Grande UI" font-size="54.1667" font-weight="400" font-style="normal" 
>
<path vector-effect="non-scaling-stroke" fill-rule="evenodd" d="M0,0 L1724,0 L1724,1961 L0,1961 L0,0"/>
</g>

<g fill="#ececec" fill-opacity="1" stroke="#000000" stroke-opacity="0" stroke-width="3.07087" stroke-linecap="square" stroke-linejoin="bevel" transform="matrix(0.999751,0,0,0.999751,401.475,177.121)"
font-family=".Lucida Grande UI" font-size="54.1667" font-weight="400" font-style="normal" 
>
<path vector-effect="none" fill-rule="evenodd" d="M616.533,1314.75 L620.42,1314.75 L622.364,1311.39 L626.251,1311.39 L628.194,1308.02 L632.081,1308.02 L634.025,1311.39 L632.081,1314.75 L634.025,1318.12 L637.912,1318.12 L639.855,1321.48 L643.742,1321.48 L645.686,1324.85 L649.573,1324.85 L651.516,1328.22 L655.403,1328.22 L657.347,1331.58 L655.403,1334.95 L657.347,1338.32 L661.234,1338.32 L663.177,1341.68 L667.064,1341.68 L669.008,1345.05 L667.064,1348.41 L669.008,1351.78 L667.064,1355.15 L669.008,1358.51 L667.064,1361.88 L669.008,1365.25 L667.064,1368.61 L669.008,1371.98 L667.064,1375.34 L663.177,1375.34 L661.234,1378.71 L663.177,1382.08 L661.234,1385.44 L657.347,1385.44 L655.403,1382.08 L651.516,1382.08 L649.573,1385.44 L645.686,1385.44 L643.742,1388.81 L645.686,1392.18 L643.742,1395.54 L639.855,1395.54 L637.912,1398.91 L634.025,1398.91 L632.081,1395.54 L628.194,1395.54 L626.251,1392.18 L622.364,1392.18 L620.42,1395.54 L616.533,1395.54 L614.59,1392.18 L610.703,1392.18 L608.759,1388.81 L604.872,1388.81 L602.929,1385.44 L604.872,1382.08 L602.929,1378.71 L599.042,1378.71 L597.098,1375.34 L599.042,1371.98 L597.098,1368.61 L593.211,1368.61 L591.268,1371.98 L587.381,1371.98 L585.437,1375.34 L587.381,1378.71 L585.437,1382.08 L581.55,1382.08 L579.607,1378.71 L575.72,1378.71 L573.776,1375.34 L569.889,1375.34 L567.946,1371.98 L564.059,1371.98 L562.115,1368.61 L564.059,1365.25 L567.946,1365.25 L569.889,1361.88 L567.946,1358.51 L569.889,1355.15 L573.776,1355.15 L575.72,1351.78 L579.607,1351.78 L581.55,1348.41 L579.607,1345.05 L581.55,1341.68 L579.607,1338.32 L581.55,1334.95 L579.607,1331.58 L581.55,1328.22 L579.607,1324.85 L581.55,1321.48 L585.437,1321.48 L587.381,1324.85 L591.268,1324.85 L593.211,1321.48 L597.098,1321.48 L599.042,1318.12 L602.929,1318.12 L604.872,1314.75 L608.759,1314.75 L610.703,1311.39 L614.59,1311.39 L616.533,1314.75"/>
<path vector-effect="none" fill-rule="evenodd" d="M1133.04,1627.6 L1136.64,1629.68 L1136.64,1633.85 L1133.04,1635.93 L1133.04,1640.09 L1136.64,1642.17 L1136.64,1646.34 L1140.25,1648.42 L1140.25,1652.58 L1136.64,1654.66 L1136.64,1658.83 L1133.04,1660.91 L1133.04,1665.07 L1129.43,1667.15 L1129.43,1671.32 L1133.04,1673.4 L1133.04,1677.56 L1136.64,1679.65 L1136.64,1683.81 L1133.04,1685.89 L1133.04,1690.05 L1136.64,1692.14 L1136.64,1696.3 L1133.04,1698.38 L1129.43,1696.3 L1125.83,1698.38 L1125.83,1702.55 L1129.43,1704.63 L1129.43,1708.79 L1133.04,1710.87 L1133.04,1715.04 L1136.64,1717.12 L1140.25,1715.04 L1143.86,1717.12 L1143.86,1721.28 L1147.46,1723.36 L1147.46,1727.53 L1151.07,1729.61 L1151.07,1733.77 L1147.46,1735.85 L1147.46,1740.02 L1143.86,1742.1 L1143.86,1746.26 L1140.25,1748.34 L1136.64,1746.26 L1133.04,1748.34 L1129.43,1746.26 L1125.83,1748.34 L1125.83,1752.51 L1122.22,1754.59 L1122.22,1758.75 L1118.61,1760.84 L1118.61,1765 L1122.22,1767.08 L1125.83,1765 L1129.43,1767.08 L1133.04,1765 L1136.64,1767.08 L1140.25,1765 L1143.85,1767.08 L1147.46,1765 L1147.46,1760.84 L1151.07,1758.75 L1154.67,1760.84 L1158.28,1758.75 L1161.88,1760.84 L1161.88,1765 L1158.28,1767.08 L1158.28,1771.24 L1161.88,1773.33 L1161.88,1777.49 L1158.28,1779.57 L1158.28,1783.73 L1154.67,1785.82 L1154.67,1789.98 L1151.07,1792.06 L1151.07,1796.23 L1154.67,1798.31 L1154.67,1802.47 L1151.07,1804.55 L1151.07,1808.72 L1147.46,1810.8 L1147.46,1814.96 L1143.85,1817.04 L1143.85,1821.21 L1140.25,1823.29 L1140.25,1827.45 L1136.64,1829.53 L1133.04,1827.45 L1129.43,1829.53 L1129.43,1833.7 L1125.83,1835.78 L1125.83,1839.94 L1122.22,1842.02 L1122.22,1846.19 L1118.61,1848.27 L1118.61,1852.43 L1115.01,1854.52 L1115.01,1858.68 L1111.4,1860.76 L1107.8,1858.68 L1104.19,1860.76 L1100.59,1858.68 L1096.98,1860.76 L1096.98,1864.92 L1093.37,1867.01 L1093.37,1871.17 L1089.77,1873.25 L1086.16,1871.17 L1082.56,1873.25 L1082.56,1877.41 L1078.95,1879.5 L1075.35,1877.41 L1071.74,1879.5 L1071.74,1883.66 L1068.13,1885.74 L1064.53,1883.66 L1060.92,1885.74 L1060.92,1889.91 L1057.32,1891.99 L1057.32,1896.15 L1053.71,1898.23 L1050.1,1896.15 L1046.5,1898.23 L1046.5,1902.4 L1042.89,1904.48 L1039.29,1902.4 L1035.68,1904.48 L1032.08,1902.4 L1032.08,1898.23 L1028.47,1896.15 L1024.86,1898.23 L1024.86,1902.4 L1021.26,1904.48 L1021.26,1908.64 L1017.65,1910.72 L1014.05,1908.64 L1010.44,1910.72 L1006.84,1908.64 L1003.23,1910.72 L999.624,1908.64 L999.624,1904.48 L996.019,1902.4 L992.413,1904.48 L988.807,1902.4 L985.201,1904.48 L981.596,1902.4 L977.99,1904.48 L974.384,1902.4 L970.778,1904.48 L967.173,1902.4 L963.567,1904.48 L959.961,1902.4 L956.355,1904.48 L952.75,1902.4 L949.144,1904.48 L945.538,1902.4 L941.932,1904.48 L938.327,1902.4 L934.721,1904.48 L931.115,1902.4 L927.509,1904.48 L923.904,1902.4 L920.298,1904.48 L916.692,1902.4 L913.086,1904.48 L913.086,1908.64 L909.481,1910.72 L905.875,1908.64 L902.269,1910.72 L898.663,1908.64 L895.058,1910.72 L891.452,1908.64 L891.452,1904.48 L887.846,1902.4 L887.846,1898.23 L884.24,1896.15 L880.635,1898.23 L877.029,1896.15 L877.029,1891.99 L873.423,1889.9 L869.817,1891.99 L866.212,1889.9 L866.212,1885.74 L862.606,1883.66 L859,1885.74 L855.394,1883.66 L855.394,1879.5 L851.789,1877.41 L851.789,1873.25 L848.183,1871.17 L844.577,1873.25 L844.577,1877.41 L840.971,1879.5 L840.971,1883.66 L844.577,1885.74 L844.577,1889.9 L840.971,1891.99 L840.971,1896.15 L837.366,1898.23 L833.76,1896.15 L830.154,1898.23 L826.548,1896.15 L826.548,1891.99 L822.943,1889.9 L819.337,1891.99 L815.731,1889.9 L812.125,1891.99 L808.52,1889.9 L804.914,1891.99 L804.914,1896.15 L801.308,1898.23 L797.702,1896.15 L797.702,1891.99 L794.097,1889.9 L790.491,1891.99 L786.885,1889.9 L786.885,1885.74 L783.279,1883.66 L783.279,1879.5 L779.674,1877.41 L779.674,1873.25 L776.068,1871.17 L776.068,1867 L772.462,1864.92 L768.857,1867 L765.251,1864.92 L761.645,1867 L758.039,1864.92 L758.039,1860.76 L754.434,1858.68 L750.828,1860.76 L747.222,1858.68 L743.616,1860.76 L740.011,1858.68 L736.405,1860.76 L732.799,1858.68 L729.193,1860.76 L729.193,1864.92 L725.588,1867 L721.982,1864.92 L718.376,1867 L714.77,1864.92 L711.165,1867 L707.559,1864.92 L707.559,1860.76 L703.953,1858.68 L700.347,1860.76 L700.347,1864.92 L703.953,1867 L703.953,1871.17 L707.559,1873.25 L707.559,1877.41 L711.164,1879.5 L711.164,1883.66 L714.77,1885.74 L714.77,1889.9 L718.376,1891.99 L718.376,1896.15 L714.77,1898.23 L714.77,1902.39 L711.164,1904.48 L707.559,1902.39 L703.953,1904.48 L700.347,1902.39 L696.741,1904.48 L693.136,1902.39 L689.53,1904.48 L685.924,1902.39 L682.318,1904.48 L678.713,1902.39 L675.107,1904.48 L671.501,1902.39 L667.895,1904.48 L664.29,1902.39 L664.29,1898.23 L660.684,1896.15 L657.078,1898.23 L653.472,1896.15 L653.472,1891.99 L649.867,1889.9 L649.867,1885.74 L646.261,1883.66 L642.655,1885.74 L639.049,1883.66 L635.444,1885.74 L635.444,1889.9 L631.838,1891.99 L631.838,1896.15 L628.232,1898.23 L624.626,1896.15 L621.021,1898.23 L621.021,1902.39 L617.415,1904.48 L617.415,1908.64 L613.809,1910.72 L610.203,1908.64 L606.598,1910.72 L606.598,1914.89 L610.203,1916.97 L610.203,1921.13 L606.598,1923.21 L606.598,1927.38 L602.992,1929.46 L602.992,1933.62 L599.386,1935.7 L595.78,1933.62 L595.78,1929.46 L592.174,1927.38 L592.175,1923.21 L588.569,1921.13 L584.963,1923.21 L581.357,1921.13 L581.357,1916.97 L577.752,1914.88 L574.146,1916.97 L574.146,1921.13 L570.54,1923.21 L566.934,1921.13 L566.934,1916.97 L570.54,1914.88 L570.54,1910.72 L574.146,1908.64 L577.752,1910.72 L581.357,1908.64 L581.357,1904.48 L584.963,1902.39 L588.569,1904.48 L592.175,1902.39 L592.175,1898.23 L595.78,1896.15 L599.386,1898.23 L602.992,1896.15 L602.992,1891.99 L606.598,1889.9 L606.598,1885.74 L610.203,1883.66 L610.203,1879.49 L613.809,1877.41 L613.809,1873.25 L617.415,1871.17 L617.415,1867 L621.021,1864.92 L624.626,1867 L628.232,1864.92 L631.838,1867 L635.444,1864.92 L635.444,1860.76 L639.05,1858.68 L639.05,1854.51 L642.655,1852.43 L646.261,1854.51 L649.867,1852.43 L649.867,1848.27 L653.473,1846.19 L653.473,1842.02 L657.078,1839.94 L660.684,1842.02 L664.29,1839.94 L664.29,1835.78 L667.896,1833.7 L671.501,1835.78 L675.107,1833.7 L675.107,1829.53 L671.501,1827.45 L671.501,1823.29 L667.896,1821.21 L667.896,1817.04 L671.501,1814.96 L675.107,1817.04 L678.713,1814.96 L682.319,1817.04 L685.924,1814.96 L689.53,1817.04 L689.53,1821.21 L693.136,1823.29 L696.742,1821.21 L700.347,1823.29 L703.953,1821.21 L707.559,1823.29 L707.559,1827.45 L711.165,1829.53 L714.77,1827.45 L718.376,1829.53 L721.982,1827.45 L725.588,1829.53 L729.193,1827.45 L732.799,1829.53 L736.405,1827.45 L736.405,1823.29 L740.011,1821.21 L740.011,1817.04 L736.405,1814.96 L736.405,1810.8 L732.799,1808.71 L732.799,1804.55 L736.405,1802.47 L736.405,1798.31 L740.011,1796.22 L740.011,1792.06 L743.617,1789.98 L743.617,1785.82 L740.011,1783.73 L740.011,1779.57 L743.617,1777.49 L743.617,1773.32 L747.222,1771.24 L747.222,1767.08 L750.828,1765 L750.828,1760.83 L747.222,1758.75 L743.617,1760.83 L743.617,1765 L740.011,1767.08 L740.011,1771.24 L736.405,1773.32 L736.405,1777.49 L732.799,1779.57 L732.799,1783.73 L729.194,1785.82 L729.194,1789.98 L725.588,1792.06 L725.588,1796.22 L721.982,1798.31 L721.982,1802.47 L718.376,1804.55 L714.77,1802.47 L711.165,1804.55 L707.559,1802.47 L703.953,1804.55 L700.347,1802.47 L700.347,1798.31 L696.742,1796.22 L696.742,1792.06 L693.136,1789.98 L693.136,1785.81 L689.53,1783.73 L685.925,1785.81 L682.319,1783.73 L678.713,1785.81 L675.107,1783.73 L675.107,1779.57 L671.502,1777.49 L671.502,1773.32 L675.107,1771.24 L675.107,1767.08 L671.502,1765 L671.502,1760.83 L675.107,1758.75 L675.107,1754.59 L671.502,1752.51 L671.502,1748.34 L675.107,1746.26 L675.107,1742.1 L671.502,1740.02 L667.896,1742.1 L667.896,1746.26 L664.29,1748.34 L664.29,1752.51 L660.684,1754.59 L657.079,1752.51 L653.473,1754.59 L649.867,1752.51 L649.867,1748.34 L646.261,1746.26 L642.656,1748.34 L639.05,1746.26 L639.05,1742.1 L642.656,1740.02 L642.656,1735.85 L639.05,1733.77 L639.05,1729.61 L642.656,1727.52 L642.656,1723.36 L646.261,1721.28 L646.262,1717.12 L642.656,1715.03 L639.05,1717.12 L635.444,1715.03 L631.839,1717.12 L631.838,1721.28 L628.233,1723.36 L624.627,1721.28 L621.021,1723.36 L617.415,1721.28 L613.81,1723.36 L610.204,1721.28 L610.204,1717.12 L613.81,1715.03 L613.81,1710.87 L617.416,1708.79 L617.416,1704.63 L621.021,1702.54 L621.021,1698.38 L624.627,1696.3 L628.233,1698.38 L631.839,1696.3 L631.839,1692.13 L635.444,1690.05 L639.05,1692.13 L642.656,1690.05 L646.262,1692.13 L649.867,1690.05 L653.473,1692.13 L657.079,1690.05 L657.079,1685.89 L660.685,1683.81 L660.685,1679.64 L664.29,1677.56 L664.29,1673.4 L667.896,1671.32 L667.896,1667.15 L671.502,1665.07 L671.502,1660.91 L675.108,1658.83 L678.713,1660.91 L682.319,1658.83 L682.319,1654.66 L685.925,1652.58 L689.531,1654.66 L693.137,1652.58 L693.137,1648.42 L696.742,1646.34 L696.742,1642.17 L693.137,1640.09 L693.137,1635.93 L689.531,1633.84 L685.925,1635.93 L682.319,1633.84 L682.319,1629.68 L678.714,1627.6 L678.714,1623.44 L675.108,1621.35 L675.108,1617.19 L671.502,1615.11 L671.502,1610.95 L667.896,1608.86 L667.896,1604.7 L664.291,1602.62 L664.291,1598.45 L660.685,1596.37 L660.685,1592.21 L657.079,1590.13 L657.079,1585.96 L653.473,1583.88 L653.474,1579.72 L649.868,1577.64 L649.868,1573.47 L653.474,1571.39 L653.474,1567.23 L649.868,1565.15 L649.868,1560.98 L653.474,1558.9 L657.079,1560.98 L660.685,1558.9 L664.291,1560.98 L667.897,1558.9 L671.502,1560.98 L671.502,1565.15 L675.108,1567.23 L678.714,1565.15 L678.714,1560.98 L682.32,1558.9 L682.32,1554.74 L685.925,1552.66 L689.531,1554.74 L693.137,1552.66 L693.137,1548.49 L689.531,1546.41 L689.531,1542.25 L685.925,1540.16 L685.925,1536 L689.531,1533.92 L689.531,1529.76 L685.925,1527.67 L685.925,1523.51 L689.531,1521.43 L689.531,1517.27 L693.137,1515.18 L696.743,1517.27 L700.349,1515.18 L700.349,1511.02 L696.743,1508.94 L696.743,1504.77 L700.349,1502.69 L700.349,1498.53 L703.954,1496.45 L703.954,1492.28 L700.349,1490.2 L700.349,1486.04 L703.954,1483.96 L703.954,1479.79 L707.56,1477.71 L707.56,1473.55 L703.954,1471.47 L703.954,1467.3 L707.56,1465.22 L707.56,1461.06 L711.166,1458.98 L711.166,1454.81 L714.772,1452.73 L714.772,1448.57 L718.378,1446.48 L718.378,1442.32 L721.983,1440.24 L721.983,1436.08 L725.589,1433.99 L725.589,1429.83 L721.983,1427.75 L721.983,1423.59 L725.589,1421.5 L725.589,1417.34 L721.983,1415.26 L721.983,1411.09 L725.589,1409.01 L725.589,1404.85 L729.195,1402.77 L732.801,1404.85 L736.406,1402.77 L736.406,1398.6 L740.012,1396.52 L740.012,1392.36 L736.406,1390.28 L736.407,1386.11 L740.012,1384.03 L740.012,1379.87 L743.618,1377.79 L747.224,1379.87 L750.83,1377.79 L750.83,1373.62 L754.435,1371.54 L754.435,1367.38 L758.041,1365.3 L758.041,1361.13 L754.435,1359.05 L750.83,1361.13 L750.83,1365.3 L747.224,1367.38 L747.224,1371.54 L743.618,1373.62 L740.012,1371.54 L740.012,1367.38 L736.407,1365.3 L736.407,1361.13 L740.012,1359.05 L740.012,1354.89 L743.618,1352.8 L743.618,1348.64 L747.224,1346.56 L747.224,1342.4 L743.618,1340.31 L743.618,1336.15 L740.012,1334.07 L740.012,1329.9 L736.407,1327.82 L736.407,1323.66 L740.013,1321.58 L740.013,1317.41 L743.618,1315.33 L743.618,1311.17 L740.013,1309.09 L740.013,1304.92 L743.618,1302.84 L743.618,1298.68 L747.224,1296.6 L747.224,1292.43 L743.618,1290.35 L740.013,1292.43 L736.407,1290.35 L732.801,1292.43 L732.801,1296.6 L729.195,1298.68 L725.59,1296.6 L721.984,1298.68 L718.378,1296.6 L714.772,1298.68 L714.772,1302.84 L711.167,1304.92 L707.561,1302.84 L703.955,1304.92 L700.349,1302.84 L696.744,1304.92 L693.138,1302.84 L689.532,1304.92 L689.532,1309.09 L685.926,1311.17 L682.321,1309.09 L682.321,1304.92 L678.715,1302.84 L675.109,1304.92 L671.503,1302.84 L671.503,1298.68 L675.109,1296.6 L678.715,1298.68 L682.321,1296.6 L682.321,1292.43 L678.715,1290.35 L678.715,1286.19 L682.321,1284.11 L682.321,1279.94 L678.715,1277.86 L678.715,1273.7 L682.321,1271.61 L682.321,1267.45 L678.715,1265.37 L678.715,1261.21 L675.109,1259.12 L675.109,1254.96 L671.503,1252.88 L671.503,1248.72 L667.898,1246.63 L664.292,1248.72 L660.686,1246.63 L660.686,1242.47 L657.081,1240.39 L657.081,1236.22 L653.475,1234.14 L653.475,1229.98 L649.869,1227.9 L649.869,1223.73 L653.475,1221.65 L653.475,1217.49 L657.081,1215.41 L657.081,1211.24 L660.686,1209.16 L660.686,1205 L657.081,1202.92 L657.081,1198.75 L660.686,1196.67 L660.686,1192.51 L657.081,1190.43 L657.081,1186.26 L660.686,1184.18 L660.686,1180.02 L657.081,1177.93 L657.081,1173.77 L660.687,1171.69 L660.687,1167.53 L657.081,1165.44 L653.475,1167.53 L649.869,1165.44 L649.869,1161.28 L653.475,1159.2 L653.475,1155.03 L657.081,1152.95 L657.081,1148.79 L660.687,1146.71 L660.687,1142.54 L664.292,1140.46 L667.898,1142.54 L671.504,1140.46 L675.11,1142.54 L678.715,1140.46 L678.715,1136.3 L682.321,1134.22 L682.321,1130.05 L685.927,1127.97 L689.533,1130.05 L693.138,1127.97 L693.138,1123.81 L689.533,1121.73 L689.533,1117.56 L685.927,1115.48 L682.321,1117.56 L678.716,1115.48 L678.716,1111.32 L682.321,1109.24 L682.321,1105.07 L678.716,1102.99 L678.716,1098.83 L675.11,1096.75 L675.11,1092.58 L678.716,1090.5 L678.716,1086.34 L682.321,1084.25 L682.321,1080.09 L678.716,1078.01 L678.716,1073.85 L675.11,1071.76 L675.11,1067.6 L671.504,1065.52 L671.504,1061.35 L675.11,1059.27 L678.716,1061.35 L678.716,1065.52 L682.321,1067.6 L685.927,1065.52 L685.927,1061.35 L689.533,1059.27 L689.533,1055.11 L693.139,1053.03 L696.744,1055.11 L696.744,1059.27 L700.35,1061.35 L700.35,1065.52 L696.744,1067.6 L696.744,1071.76 L693.139,1073.85 L693.139,1078.01 L689.533,1080.09 L689.533,1084.25 L693.139,1086.34 L693.139,1090.5 L696.744,1092.58 L700.35,1090.5 L703.956,1092.58 L703.956,1096.75 L707.562,1098.83 L711.167,1096.75 L714.773,1098.83 L718.379,1096.75 L718.379,1092.58 L721.985,1090.5 L725.59,1092.58 L729.196,1090.5 L729.196,1086.34 L732.802,1084.25 L736.408,1086.34 L740.013,1084.25 L743.619,1086.34 L747.225,1084.25 L747.225,1080.09 L750.831,1078.01 L754.436,1080.09 L758.042,1078.01 L761.648,1080.09 L765.254,1078.01 L768.859,1080.09 L772.465,1078.01 L772.465,1073.85 L776.071,1071.76 L779.677,1073.85 L783.282,1071.76 L786.888,1073.85 L790.494,1071.76 L794.1,1073.85 L794.1,1078.01 L790.494,1080.09 L790.494,1084.25 L794.1,1086.34 L794.1,1090.5 L797.705,1092.58 L797.705,1096.75 L794.1,1098.83 L794.1,1102.99 L790.494,1105.07 L790.494,1109.24 L786.888,1111.32 L783.282,1109.24 L779.677,1111.32 L776.071,1109.24 L772.465,1111.32 L768.859,1109.24 L765.254,1111.32 L761.648,1109.24 L758.042,1111.32 L754.436,1109.24 L750.831,1111.32 L750.831,1115.48 L747.225,1117.56 L747.225,1121.73 L750.831,1123.81 L750.83,1127.97 L754.436,1130.05 L754.436,1134.22 L758.042,1136.3 L758.042,1140.46 L754.436,1142.54 L750.83,1140.46 L747.225,1142.54 L747.225,1146.71 L750.83,1148.79 L750.83,1152.95 L754.436,1155.04 L758.042,1152.95 L761.648,1155.04 L761.648,1159.2 L765.253,1161.28 L768.859,1159.2 L772.465,1161.28 L772.465,1165.44 L776.071,1167.53 L779.676,1165.44 L783.282,1167.53 L783.282,1171.69 L779.676,1173.77 L776.071,1171.69 L772.465,1173.77 L768.859,1171.69 L765.253,1173.77 L765.253,1177.93 L761.648,1180.02 L761.648,1184.18 L758.042,1186.26 L754.436,1184.18 L754.436,1180.02 L750.83,1177.93 L747.225,1180.02 L743.619,1177.93 L740.013,1180.02 L736.407,1177.93 L732.802,1180.02 L729.196,1177.93 L725.59,1180.02 L725.59,1184.18 L729.196,1186.26 L729.196,1190.43 L732.801,1192.51 L736.407,1190.43 L740.013,1192.51 L743.619,1190.43 L747.224,1192.51 L750.83,1190.43 L754.436,1192.51 L754.436,1196.67 L758.042,1198.75 L758.042,1202.92 L761.647,1205 L761.647,1209.16 L765.253,1211.24 L768.859,1209.16 L772.465,1211.24 L776.07,1209.16 L779.676,1211.24 L779.676,1215.41 L783.282,1217.49 L783.282,1221.65 L786.888,1223.73 L786.888,1227.9 L790.493,1229.98 L790.493,1234.14 L786.888,1236.22 L786.888,1240.39 L783.282,1242.47 L783.282,1246.63 L786.888,1248.72 L786.888,1252.88 L790.493,1254.96 L794.099,1252.88 L797.705,1254.96 L797.705,1259.12 L801.311,1261.21 L801.31,1265.37 L804.916,1267.45 L808.522,1265.37 L812.128,1267.45 L815.733,1265.37 L819.339,1267.45 L822.945,1265.37 L826.551,1267.45 L830.156,1265.37 L833.762,1267.45 L833.762,1271.62 L837.368,1273.7 L840.974,1271.62 L844.579,1273.7 L844.579,1277.86 L848.185,1279.94 L851.791,1277.86 L855.397,1279.94 L855.397,1284.11 L859.002,1286.19 L862.608,1284.11 L866.214,1286.19 L866.214,1290.35 L869.82,1292.43 L873.425,1290.35 L877.031,1292.43 L877.031,1296.6 L880.637,1298.68 L884.243,1296.6 L887.848,1298.68 L887.848,1302.84 L884.243,1304.92 L884.243,1309.09 L887.848,1311.17 L887.848,1315.33 L891.454,1317.41 L891.454,1321.58 L887.848,1323.66 L887.848,1327.82 L891.454,1329.91 L891.454,1334.07 L895.06,1336.15 L895.06,1340.31 L898.665,1342.4 L898.665,1346.56 L902.271,1348.64 L905.877,1346.56 L909.483,1348.64 L909.483,1352.81 L913.088,1354.89 L916.694,1352.81 L920.3,1354.89 L920.3,1359.05 L923.906,1361.13 L923.906,1365.3 L927.511,1367.38 L931.117,1365.3 L934.723,1367.38 L934.723,1371.54 L938.329,1373.62 L938.329,1377.79 L941.934,1379.87 L941.934,1384.03 L945.54,1386.11 L945.54,1390.28 L941.934,1392.36 L941.934,1396.52 L945.54,1398.6 L945.54,1402.77 L949.146,1404.85 L949.146,1409.01 L952.751,1411.1 L956.357,1409.01 L959.963,1411.1 L959.963,1415.26 L963.569,1417.34 L963.569,1421.5 L967.174,1423.59 L970.78,1421.5 L974.386,1423.59 L974.386,1427.75 L977.992,1429.83 L981.597,1427.75 L985.203,1429.83 L985.203,1433.99 L988.809,1436.08 L992.415,1433.99 L996.02,1436.08 L999.626,1433.99 L1003.23,1436.08 L1003.23,1440.24 L1006.84,1442.32 L1006.84,1446.49 L1010.44,1448.57 L1010.44,1452.73 L1014.05,1454.81 L1014.05,1458.98 L1010.44,1461.06 L1010.44,1465.22 L1006.84,1467.3 L1003.23,1465.22 L999.626,1467.3 L996.02,1465.22 L992.415,1467.3 L992.415,1471.47 L996.02,1473.55 L999.626,1471.47 L1003.23,1473.55 L1003.23,1477.71 L1006.84,1479.79 L1010.44,1477.71 L1014.05,1479.79 L1014.05,1483.96 L1017.65,1486.04 L1017.65,1490.2 L1014.05,1492.28 L1014.05,1496.45 L1017.65,1498.53 L1017.65,1502.69 L1021.26,1504.78 L1021.26,1508.94 L1017.65,1511.02 L1017.65,1515.18 L1021.26,1517.27 L1021.26,1521.43 L1024.87,1523.51 L1024.87,1527.68 L1028.47,1529.76 L1028.47,1533.92 L1032.08,1536 L1032.08,1540.17 L1028.47,1542.25 L1028.47,1546.41 L1024.87,1548.49 L1024.87,1552.66 L1021.26,1554.74 L1021.26,1558.9 L1024.87,1560.98 L1028.47,1558.9 L1032.08,1560.98 L1032.08,1565.15 L1035.68,1567.23 L1035.68,1571.39 L1039.29,1573.47 L1042.89,1571.39 L1046.5,1573.47 L1050.11,1571.39 L1050.11,1567.23 L1053.71,1565.15 L1057.32,1567.23 L1060.92,1565.15 L1060.92,1560.98 L1064.53,1558.9 L1068.13,1560.98 L1071.74,1558.9 L1075.35,1560.98 L1078.95,1558.9 L1082.56,1560.98 L1082.56,1565.15 L1086.16,1567.23 L1089.77,1565.15 L1093.38,1567.23 L1096.98,1565.15 L1100.59,1567.23 L1104.19,1565.15 L1107.8,1567.23 L1107.8,1571.39 L1111.4,1573.47 L1115.01,1571.39 L1118.62,1573.47 L1118.62,1577.64 L1122.22,1579.72 L1125.83,1577.64 L1129.43,1579.72 L1129.43,1583.88 L1133.04,1585.97 L1133.04,1590.13 L1129.43,1592.21 L1129.43,1596.37 L1133.04,1598.46 L1133.04,1602.62 L1136.64,1604.7 L1136.64,1608.87 L1140.25,1610.95 L1140.25,1615.11 L1143.86,1617.19 L1143.86,1621.36 L1140.25,1623.44 L1136.64,1621.36 L1133.04,1623.44 L1133.04,1627.6"/>
<path vector-effect="none" fill-rule="evenodd" d="M858.781,1910.46 L855.182,1908.37 L851.569,1910.44 L847.971,1908.35 L844.358,1910.42 L840.759,1908.32 L840.773,1904.16 L844.386,1902.09 L844.4,1897.92 L848.013,1895.86 L848.027,1891.69 L851.64,1889.62 L855.238,1891.72 L858.851,1889.65 L862.45,1891.74 L862.436,1895.9 L866.034,1898 L866.02,1902.16 L862.408,1904.23 L862.394,1908.39 L858.781,1910.46"/>
<path vector-effect="none" fill-rule="evenodd" d="M631.84,1184.18 L628.235,1186.26 L624.629,1184.18 L624.629,1180.02 L628.235,1177.93 L631.84,1180.02 L631.84,1184.18"/>
<path vector-effect="none" fill-rule="evenodd" d="M642.658,1177.93 L639.052,1180.02 L635.446,1177.93 L635.446,1173.77 L639.052,1171.69 L639.052,1167.53 L642.658,1165.44 L646.264,1167.53 L646.264,1171.69 L642.658,1173.77 L642.658,1177.93"/>
<path vector-effect="none" fill-rule="evenodd" d="M646.264,1159.2 L642.658,1161.28 L639.052,1159.2 L635.446,1161.28 L631.841,1159.2 L631.841,1155.03 L635.446,1152.95 L635.446,1148.79 L639.052,1146.71 L642.658,1148.79 L642.658,1152.95 L646.264,1155.03 L646.264,1159.2"/>
<path vector-effect="none" fill-rule="evenodd" d="M624.629,1109.24 L621.023,1111.32 L617.418,1109.24 L617.418,1105.07 L621.024,1102.99 L621.024,1098.83 L624.629,1096.74 L628.235,1098.83 L628.235,1102.99 L624.629,1105.07 L624.629,1109.24"/>
<path vector-effect="none" fill-rule="evenodd" d="M635.447,1090.5 L631.841,1092.58 L628.235,1090.5 L628.235,1086.34 L624.629,1084.25 L624.629,1080.09 L628.235,1078.01 L631.841,1080.09 L631.841,1084.25 L635.447,1086.34 L635.447,1090.5"/>
<path vector-effect="none" fill-rule="evenodd" d="M649.87,1061.35 L649.87,1065.52 L646.264,1067.6 L646.264,1071.76 L642.658,1073.85 L642.658,1078.01 L639.052,1080.09 L635.447,1078.01 L635.447,1073.85 L631.841,1071.76 L631.841,1067.6 L635.447,1065.52 L635.447,1061.35 L639.052,1059.27 L642.658,1061.35 L646.264,1059.27 L649.87,1061.35"/>
<path vector-effect="none" fill-rule="evenodd" d="M646.263,1246.63 L642.657,1248.72 L639.052,1246.63 L639.052,1242.47 L635.446,1240.39 L635.446,1236.22 L639.052,1234.14 L642.658,1236.22 L642.658,1240.39 L646.263,1242.47 L646.263,1246.63"/>
<path vector-effect="none" fill-rule="evenodd" d="M711.168,1046.78 L707.562,1048.86 L703.956,1046.78 L703.956,1042.62 L707.562,1040.54 L711.168,1042.62 L711.168,1046.78"/>
<path vector-effect="none" fill-rule="evenodd" d="M718.379,1034.29 L721.985,1036.37 L721.985,1040.54 L718.379,1042.62 L714.773,1040.54 L714.773,1036.37 L711.168,1034.29 L707.562,1036.37 L703.956,1034.29 L703.956,1030.13 L707.562,1028.05 L707.562,1023.88 L711.168,1021.8 L714.773,1023.88 L714.773,1028.05 L718.379,1030.13 L718.379,1034.29"/>
<path vector-effect="none" fill-rule="evenodd" d="M772.466,961.43 L772.466,965.593 L768.86,967.675 L765.254,965.593 L761.648,967.675 L758.043,965.593 L758.043,961.43 L761.648,959.348 L765.254,961.43 L768.86,959.348 L768.86,955.184 L765.254,953.103 L765.254,948.939 L768.86,946.857 L768.86,942.694 L772.466,940.612 L776.071,942.694 L776.071,946.857 L772.466,948.939 L772.466,953.103 L776.071,955.184 L776.071,959.348 L772.466,961.43"/>
<path vector-effect="none" fill-rule="evenodd" d="M660.687,1092.58 L660.687,1096.75 L657.081,1098.83 L657.081,1102.99 L653.475,1105.07 L649.87,1102.99 L649.87,1098.83 L646.264,1096.75 L646.264,1092.58 L649.87,1090.5 L653.475,1092.58 L657.081,1090.5 L660.687,1092.58"/>
<path vector-effect="none" fill-rule="evenodd" d="M657.161,1552.38 L653.555,1554.46 L649.95,1552.38 L646.344,1554.46 L642.738,1552.38 L642.738,1548.22 L646.344,1546.14 L646.344,1541.97 L642.738,1539.89 L642.738,1535.73 L639.132,1533.65 L639.132,1529.48 L642.738,1527.4 L642.738,1523.24 L646.344,1521.15 L649.95,1523.24 L649.95,1527.4 L653.555,1529.48 L653.555,1533.65 L657.161,1535.73 L657.161,1539.89 L660.767,1541.97 L660.767,1546.14 L657.161,1548.22 L657.161,1552.38"/>
</g>

<g fill="#ffb900" fill-opacity="1" stroke="#000000" stroke-opacity="1" stroke-width="3.07087" stroke-linecap="square" stroke-linejoin="bevel" transform="matrix(0.999751,0,0,0.999751,401.475,177.121)"
font-family=".Lucida Grande UI" font-size="54.1667" font-weight="400" font-style="normal" 
>
<path vector-effect="none" fill-rule="evenodd" d="M1021.26,1754.59 L1021.26,1758.75 L1024.87,1760.83 L1028.47,1758.75 L1032.08,1760.83 L1032.08,1765 L1035.68,1767.08 L1035.68,1771.24 L1032.08,1773.33 L1028.47,1771.24 L1024.87,1773.33 L1021.26,1771.24 L1017.65,1773.33 L1014.05,1771.24 L1014.05,1767.08 L1010.44,1765 L1010.44,1760.83 L1006.84,1758.75 L1006.84,1754.59 L1010.44,1752.51 L1014.05,1754.59 L1017.65,1752.51 L1021.26,1754.59"/>
<path vector-effect="none" fill-rule="evenodd" d="M869.818,1629.68 L869.818,1633.85 L866.213,1635.93 L862.607,1633.85 L859.001,1635.93 L859.001,1640.09 L855.395,1642.17 L855.395,1646.34 L851.79,1648.42 L848.184,1646.34 L844.578,1648.42 L840.972,1646.34 L840.972,1642.17 L844.578,1640.09 L844.578,1635.93 L840.972,1633.85 L840.972,1629.68 L844.578,1627.6 L848.184,1629.68 L851.79,1627.6 L855.395,1629.68 L859.001,1627.6 L862.607,1629.68 L866.213,1627.6 L869.818,1629.68"/>
<path vector-effect="none" fill-rule="evenodd" d="M866.213,1648.42 L866.213,1652.58 L862.607,1654.66 L859.001,1652.58 L855.395,1654.66 L855.395,1658.83 L851.79,1660.91 L848.184,1658.83 L844.578,1660.91 L840.972,1658.83 L840.972,1654.66 L837.367,1652.58 L837.367,1648.42 L840.972,1646.34 L844.578,1648.42 L848.184,1646.34 L851.79,1648.42 L855.395,1646.34 L855.395,1642.17 L859.001,1640.09 L859.001,1635.93 L862.607,1633.85 L866.213,1635.93 L866.213,1640.09 L869.818,1642.17 L869.818,1646.34 L866.213,1648.42"/>
<path vector-effect="none" fill-rule="evenodd" d="M797.705,1304.92 L797.705,1309.09 L801.31,1311.17 L804.916,1309.09 L808.522,1311.17 L812.128,1309.09 L815.733,1311.17 L815.733,1315.33 L819.339,1317.41 L822.945,1315.33 L826.551,1317.41 L826.551,1321.58 L822.945,1323.66 L819.339,1321.58 L815.733,1323.66 L812.128,1321.58 L808.522,1323.66 L804.916,1321.58 L804.916,1317.41 L801.31,1315.33 L797.705,1317.41 L794.099,1315.33 L790.493,1317.41 L786.887,1315.33 L786.887,1311.17 L783.282,1309.09 L783.282,1304.92 L786.887,1302.84 L790.493,1304.92 L794.099,1302.84 L797.705,1304.92"/>
<path vector-effect="none" fill-rule="evenodd" d="M859.002,1415.26 L855.396,1417.34 L851.79,1415.26 L851.79,1411.09 L848.185,1409.01 L848.185,1404.85 L844.579,1402.77 L844.579,1398.6 L840.973,1396.52 L840.973,1392.36 L844.579,1390.28 L844.579,1386.11 L848.185,1384.03 L851.791,1386.11 L851.791,1390.28 L855.396,1392.36 L855.396,1396.52 L859.002,1398.6 L859.002,1402.77 L862.608,1404.85 L862.608,1409.01 L859.002,1411.09 L859.002,1415.26"/>
<path vector-effect="none" fill-rule="evenodd" d="M970.779,1717.12 L970.779,1721.28 L967.173,1723.36 L967.173,1727.53 L970.779,1729.61 L970.779,1733.77 L967.173,1735.85 L967.173,1740.02 L963.568,1742.1 L959.962,1740.02 L956.356,1742.1 L952.75,1740.02 L949.145,1742.1 L945.539,1740.02 L945.539,1735.85 L949.145,1733.77 L949.145,1729.61 L952.75,1727.53 L952.75,1723.36 L956.356,1721.28 L956.356,1717.12 L959.962,1715.04 L963.568,1717.12 L967.173,1715.04 L970.779,1717.12"/>
<path vector-effect="none" fill-rule="evenodd" d="M765.251,1773.32 L765.251,1777.49 L768.857,1779.57 L768.857,1783.73 L772.463,1785.82 L772.463,1789.98 L768.857,1792.06 L765.251,1789.98 L761.645,1792.06 L758.04,1789.98 L758.04,1785.82 L754.434,1783.73 L750.828,1785.82 L747.222,1783.73 L747.222,1779.57 L750.828,1777.49 L750.828,1773.32 L754.434,1771.24 L758.04,1773.32 L761.645,1771.24 L761.645,1767.08 L765.251,1765 L768.857,1767.08 L768.857,1771.24 L765.251,1773.32"/>
<path vector-effect="none" fill-rule="evenodd" d="M1042.89,1608.86 L1046.5,1610.95 L1050.11,1608.86 L1053.71,1610.95 L1053.71,1615.11 L1050.11,1617.19 L1050.11,1621.36 L1053.71,1623.44 L1053.71,1627.6 L1050.11,1629.68 L1046.5,1627.6 L1042.89,1629.68 L1039.29,1627.6 L1039.29,1623.44 L1035.68,1621.36 L1035.68,1617.19 L1032.08,1615.11 L1032.08,1610.95 L1035.68,1608.86 L1035.68,1604.7 L1039.29,1602.62 L1042.89,1604.7 L1042.89,1608.86"/>
<path vector-effect="none" fill-rule="evenodd" d="M916.694,1523.51 L916.694,1527.67 L913.088,1529.76 L913.088,1533.92 L909.482,1536 L905.876,1533.92 L902.271,1536 L902.271,1540.17 L898.665,1542.25 L895.059,1540.17 L891.453,1542.25 L887.847,1540.17 L884.242,1542.25 L880.636,1540.17 L877.03,1542.25 L873.424,1540.17 L869.819,1542.25 L866.213,1540.17 L866.213,1536 L869.819,1533.92 L873.425,1536 L877.03,1533.92 L880.636,1536 L884.242,1533.92 L887.848,1536 L891.453,1533.92 L891.453,1529.76 L895.059,1527.67 L898.665,1529.76 L902.271,1527.67 L902.271,1523.51 L905.876,1521.43 L909.482,1523.51 L913.088,1521.43 L916.694,1523.51"/>
<path vector-effect="none" fill-rule="evenodd" d="M819.339,1329.91 L819.339,1334.07 L822.945,1336.15 L826.55,1334.07 L830.156,1336.15 L833.762,1334.07 L837.368,1336.15 L840.973,1334.07 L844.579,1336.15 L848.185,1334.07 L851.791,1336.15 L855.397,1334.07 L859.002,1336.15 L859.002,1340.31 L855.396,1342.4 L851.791,1340.31 L848.185,1342.4 L844.579,1340.31 L840.973,1342.4 L837.368,1340.31 L833.762,1342.4 L830.156,1340.31 L826.55,1342.4 L822.945,1340.31 L819.339,1342.4 L815.733,1340.31 L812.127,1342.4 L808.522,1340.31 L808.522,1336.15 L804.916,1334.07 L804.916,1329.91 L808.522,1327.82 L812.127,1329.91 L815.733,1327.82 L819.339,1329.91"/>
</g>

<g fill="#7d0069" fill-opacity="1" stroke="#000000" stroke-opacity="1" stroke-width="3.07087" stroke-linecap="square" stroke-linejoin="bevel" transform="matrix(0.999751,0,0,0.999751,401.475,177.121)"
font-family=".Lucida Grande UI" font-size="54.1667" font-weight="400" font-style="normal" 
>
<path vector-effect="none" fill-rule="evenodd" d="M959.963,1448.57 L959.963,1452.73 L956.357,1454.81 L956.357,1458.98 L952.751,1461.06 L952.751,1465.22 L949.146,1467.3 L945.54,1465.22 L941.934,1467.3 L941.934,1471.47 L945.54,1473.55 L945.54,1477.71 L941.934,1479.79 L938.328,1477.71 L938.328,1473.55 L934.723,1471.47 L934.723,1467.3 L938.328,1465.22 L938.328,1461.06 L941.934,1458.98 L941.934,1454.81 L945.54,1452.73 L945.54,1448.57 L949.146,1446.49 L952.751,1448.57 L956.357,1446.49 L959.963,1448.57"/>
<path vector-effect="none" fill-rule="evenodd" d="M779.675,1635.93 L779.675,1640.09 L783.28,1642.17 L783.28,1646.34 L779.675,1648.42 L779.675,1652.58 L776.069,1654.66 L772.463,1652.58 L772.463,1648.42 L768.857,1646.34 L765.252,1648.42 L761.646,1646.34 L758.04,1648.42 L754.434,1646.34 L754.434,1642.17 L758.04,1640.09 L758.04,1635.93 L761.646,1633.85 L765.252,1635.93 L768.857,1633.85 L772.463,1635.93 L776.069,1633.85 L779.675,1635.93"/>
<path vector-effect="none" fill-rule="evenodd" d="M1014.05,1479.79 L1014.05,1483.96 L1017.65,1486.04 L1017.65,1490.2 L1014.05,1492.28 L1014.05,1496.45 L1010.44,1498.53 L1010.44,1502.69 L1006.84,1504.78 L1003.23,1502.69 L1003.23,1498.53 L999.626,1496.45 L999.626,1492.28 L996.02,1490.2 L996.02,1486.04 L999.626,1483.96 L999.626,1479.79 L1003.23,1477.71 L1006.84,1479.79 L1010.44,1477.71 L1014.05,1479.79"/>
</g>

<g fill="#ffb900" fill-opacity="1" stroke="#000000" stroke-opacity="1" stroke-width="3.07087" stroke-linecap="square" stroke-linejoin="bevel" transform="matrix(0.999751,0,0,0.999751,401.475,177.121)"
font-family=".Lucida Grande UI" font-size="54.1667" font-weight="400" font-style="normal" 
>
<path vector-effect="none" fill-rule="evenodd" d="M1006.84,1692.14 L1006.84,1696.3 L1010.44,1698.38 L1010.44,1702.54 L1014.05,1704.63 L1014.05,1708.79 L1010.44,1710.87 L1006.84,1708.79 L1003.23,1710.87 L999.625,1708.79 L996.019,1710.87 L992.414,1708.79 L988.808,1710.87 L985.202,1708.79 L985.202,1704.63 L988.808,1702.54 L988.808,1698.38 L992.414,1696.3 L992.414,1692.14 L996.019,1690.05 L999.625,1692.14 L1003.23,1690.05 L1006.84,1692.14"/>
<path vector-effect="none" fill-rule="evenodd" d="M1021.26,1729.61 L1021.26,1733.77 L1024.87,1735.85 L1024.87,1740.02 L1021.26,1742.1 L1021.26,1746.26 L1017.65,1748.34 L1014.05,1746.26 L1010.44,1748.34 L1006.84,1746.26 L1006.84,1742.1 L1003.23,1740.02 L1003.23,1735.85 L999.625,1733.77 L999.625,1729.61 L1003.23,1727.53 L1006.84,1729.61 L1010.44,1727.53 L1014.05,1729.61 L1017.65,1727.53 L1021.26,1729.61"/>
<path vector-effect="none" fill-rule="evenodd" d="M981.597,1436.08 L981.597,1440.24 L985.203,1442.32 L988.809,1440.24 L992.415,1442.32 L992.415,1446.49 L988.809,1448.57 L988.809,1452.73 L985.203,1454.81 L981.597,1452.73 L977.992,1454.81 L974.386,1452.73 L970.78,1454.81 L967.174,1452.73 L967.174,1448.57 L970.78,1446.49 L970.78,1442.32 L967.174,1440.24 L967.174,1436.08 L970.78,1433.99 L974.386,1436.08 L977.992,1433.99 L981.597,1436.08"/>
<path vector-effect="none" fill-rule="evenodd" d="M851.791,1373.62 L851.791,1377.79 L855.396,1379.87 L859.002,1377.79 L862.608,1379.87 L862.608,1384.03 L866.214,1386.11 L869.819,1384.03 L873.425,1386.11 L873.425,1390.28 L877.031,1392.36 L877.031,1396.52 L880.637,1398.6 L880.637,1402.77 L877.031,1404.85 L873.425,1402.77 L873.425,1398.6 L869.819,1396.52 L869.819,1392.36 L866.214,1390.28 L862.608,1392.36 L859.002,1390.28 L855.396,1392.36 L851.791,1390.28 L851.791,1386.11 L848.185,1384.03 L848.185,1379.87 L844.579,1377.79 L840.973,1379.87 L837.368,1377.79 L837.368,1373.62 L840.973,1371.54 L844.579,1373.62 L848.185,1371.54 L851.791,1373.62"/>
<path vector-effect="none" fill-rule="evenodd" d="M747.223,1517.27 L747.223,1521.43 L743.618,1523.51 L740.012,1521.43 L736.406,1523.51 L736.406,1527.67 L732.8,1529.76 L732.8,1533.92 L729.194,1536 L725.589,1533.92 L725.589,1529.76 L721.983,1527.67 L721.983,1523.51 L725.589,1521.43 L725.589,1517.27 L721.983,1515.18 L721.983,1511.02 L725.589,1508.94 L729.195,1511.02 L729.195,1515.18 L732.8,1517.27 L736.406,1515.18 L736.406,1511.02 L740.012,1508.94 L743.618,1511.02 L743.618,1515.18 L747.223,1517.27"/>
<path vector-effect="none" fill-rule="evenodd" d="M833.761,1492.28 L833.761,1496.45 L830.156,1498.53 L830.156,1502.69 L826.55,1504.77 L826.55,1508.94 L822.944,1511.02 L819.338,1508.94 L819.338,1504.77 L815.733,1502.69 L812.127,1504.77 L808.521,1502.69 L804.915,1504.77 L801.31,1502.69 L801.31,1498.53 L804.915,1496.45 L808.521,1498.53 L812.127,1496.45 L812.127,1492.28 L815.733,1490.2 L819.338,1492.28 L822.944,1490.2 L826.55,1492.28 L830.156,1490.2 L833.761,1492.28"/>
<path vector-effect="none" fill-rule="evenodd" d="M819.338,1504.77 L819.338,1508.94 L815.733,1511.02 L815.733,1515.18 L819.338,1517.27 L819.338,1521.43 L815.733,1523.51 L815.733,1527.67 L812.127,1529.76 L808.521,1527.67 L808.521,1523.51 L804.915,1521.43 L804.915,1517.27 L801.31,1515.18 L797.704,1517.27 L794.098,1515.18 L794.098,1511.02 L797.704,1508.94 L797.704,1504.77 L801.31,1502.69 L804.915,1504.77 L808.521,1502.69 L812.127,1504.77 L815.733,1502.69 L819.338,1504.77"/>
<path vector-effect="none" fill-rule="evenodd" d="M815.733,1290.35 L819.339,1292.43 L822.945,1290.35 L826.551,1292.43 L830.156,1290.35 L833.762,1292.43 L833.762,1296.6 L837.368,1298.68 L840.974,1296.6 L844.579,1298.68 L844.579,1302.84 L840.974,1304.92 L837.368,1302.84 L833.762,1304.92 L830.156,1302.84 L826.551,1304.92 L822.945,1302.84 L819.339,1304.92 L815.733,1302.84 L815.733,1298.68 L812.128,1296.6 L812.128,1292.43 L808.522,1290.35 L808.522,1286.19 L812.128,1284.11 L815.733,1286.19 L815.733,1290.35"/>
<path vector-effect="none" fill-rule="evenodd" d="M812.128,1279.94 L812.128,1284.11 L808.522,1286.19 L808.522,1290.35 L804.916,1292.43 L801.31,1290.35 L797.705,1292.43 L794.099,1290.35 L790.493,1292.43 L786.887,1290.35 L783.282,1292.43 L783.282,1296.6 L786.887,1298.68 L786.887,1302.84 L783.282,1304.92 L779.676,1302.84 L779.676,1298.68 L776.07,1296.6 L776.07,1292.43 L779.676,1290.35 L779.676,1286.19 L783.282,1284.11 L783.282,1279.94 L786.887,1277.86 L790.493,1279.94 L794.099,1277.86 L797.705,1279.94 L801.31,1277.86 L804.916,1279.94 L808.522,1277.86 L812.128,1279.94"/>
<path vector-effect="none" fill-rule="evenodd" d="M866.212,1710.87 L866.212,1715.03 L869.818,1717.12 L869.818,1721.28 L866.212,1723.36 L866.212,1727.53 L862.607,1729.61 L859.001,1727.53 L855.395,1729.61 L851.789,1727.53 L851.789,1723.36 L848.184,1721.28 L848.184,1717.12 L851.789,1715.03 L851.789,1710.87 L848.184,1708.79 L848.184,1704.63 L851.789,1702.54 L855.395,1704.63 L855.395,1708.79 L859.001,1710.87 L862.607,1708.79 L862.607,1704.63 L866.212,1702.54 L869.818,1704.63 L869.818,1708.79 L866.212,1710.87"/>
</g>

<g fill="#7d0069" fill-opacity="1" stroke="#000000" stroke-opacity="1" stroke-width="3.07087" stroke-linecap="square" stroke-linejoin="bevel" transform="matrix(0.999751,0,0,0.999751,401.475,177.121)"
font-family=".Lucida Grande UI" font-size="54.1667" font-weight="400" font-style="normal" 
>
<path vector-effect="none" fill-rule="evenodd" d="M667.895,1867 L667.895,1871.17 L671.501,1873.25 L671.501,1877.41 L675.107,1879.49 L675.107,1883.66 L671.501,1885.74 L667.895,1883.66 L664.29,1885.74 L660.684,1883.66 L660.684,1879.49 L657.078,1877.41 L653.472,1879.49 L649.867,1877.41 L649.867,1873.25 L646.261,1871.17 L646.261,1867 L649.867,1864.92 L653.472,1867 L657.078,1864.92 L660.684,1867 L664.29,1864.92 L667.895,1867"/>
</g>

<g fill="#ffb900" fill-opacity="1" stroke="#000000" stroke-opacity="1" stroke-width="3.07087" stroke-linecap="square" stroke-linejoin="bevel" transform="matrix(0.999751,0,0,0.999751,401.475,177.121)"
font-family=".Lucida Grande UI" font-size="54.1667" font-weight="400" font-style="normal" 
>
<path vector-effect="none" fill-rule="evenodd" d="M830.156,1440.24 L833.762,1442.32 L837.367,1440.24 L840.973,1442.32 L840.973,1446.49 L837.367,1448.57 L833.762,1446.49 L830.156,1448.57 L826.55,1446.48 L826.55,1442.32 L822.944,1440.24 L819.339,1442.32 L815.733,1440.24 L815.733,1436.08 L812.127,1433.99 L812.127,1429.83 L808.521,1427.75 L808.521,1423.59 L812.127,1421.5 L812.127,1417.34 L815.733,1415.26 L819.339,1417.34 L819.339,1421.5 L822.944,1423.59 L822.944,1427.75 L826.55,1429.83 L826.55,1433.99 L830.156,1436.08 L830.156,1440.24"/>
</g>

<g fill="#7d0069" fill-opacity="1" stroke="#000000" stroke-opacity="1" stroke-width="3.07087" stroke-linecap="square" stroke-linejoin="bevel" transform="matrix(0.999751,0,0,0.999751,401.475,177.121)"
font-family=".Lucida Grande UI" font-size="54.1667" font-weight="400" font-style="normal" 
>
<path vector-effect="none" fill-rule="evenodd" d="M959.963,1498.53 L959.963,1502.69 L956.357,1504.78 L956.357,1508.94 L952.751,1511.02 L952.751,1515.18 L956.357,1517.27 L956.357,1521.43 L952.751,1523.51 L949.145,1521.43 L949.145,1517.27 L945.54,1515.18 L941.934,1517.27 L938.328,1515.18 L934.722,1517.27 L931.117,1515.18 L931.117,1511.02 L934.722,1508.94 L938.328,1511.02 L941.934,1508.94 L941.934,1504.78 L938.328,1502.69 L938.328,1498.53 L941.934,1496.45 L945.54,1498.53 L949.145,1496.45 L952.751,1498.53 L956.357,1496.45 L959.963,1498.53"/>
<path vector-effect="none" fill-rule="evenodd" d="M931.117,1486.04 L931.117,1490.2 L934.722,1492.28 L934.722,1496.45 L938.328,1498.53 L938.328,1502.69 L941.934,1504.78 L941.934,1508.94 L938.328,1511.02 L934.722,1508.94 L931.117,1511.02 L927.511,1508.94 L927.511,1504.78 L923.905,1502.69 L923.905,1498.53 L920.299,1496.45 L920.299,1492.28 L916.694,1490.2 L913.088,1492.28 L909.482,1490.2 L909.482,1486.04 L913.088,1483.96 L916.694,1486.04 L920.299,1483.96 L923.905,1486.04 L927.511,1483.96 L931.117,1486.04"/>
<path vector-effect="none" fill-rule="evenodd" d="M931.117,1486.04 L931.117,1490.2 L934.722,1492.28 L934.722,1496.45 L938.328,1498.53 L938.328,1502.69 L941.934,1504.78 L941.934,1508.94 L938.328,1511.02 L934.722,1508.94 L931.117,1511.02 L927.511,1508.94 L927.511,1504.78 L923.905,1502.69 L923.905,1498.53 L920.299,1496.45 L920.299,1492.28 L916.694,1490.2 L913.088,1492.28 L909.482,1490.2 L909.482,1486.04 L913.088,1483.96 L916.694,1486.04 L920.299,1483.96 L923.905,1486.04 L927.511,1483.96 L931.117,1486.04"/>
</g>

<g fill="#ffb900" fill-opacity="1" stroke="#000000" stroke-opacity="1" stroke-width="3.07087" stroke-linecap="square" stroke-linejoin="bevel" transform="matrix(0.999751,0,0,0.999751,401.475,177.121)"
font-family=".Lucida Grande UI" font-size="54.1667" font-weight="400" font-style="normal" 
>
<path vector-effect="none" fill-rule="evenodd" d="M902.271,1498.53 L902.271,1502.69 L905.876,1504.78 L909.482,1502.69 L913.088,1504.78 L916.694,1502.69 L920.299,1504.78 L920.299,1508.94 L916.694,1511.02 L913.088,1508.94 L909.482,1511.02 L905.876,1508.94 L902.271,1511.02 L898.665,1508.94 L895.059,1511.02 L891.453,1508.94 L887.848,1511.02 L884.242,1508.94 L880.636,1511.02 L877.03,1508.94 L877.03,1504.78 L880.636,1502.69 L880.636,1498.53 L884.242,1496.45 L887.848,1498.53 L891.453,1496.45 L895.059,1498.53 L898.665,1496.45 L902.271,1498.53"/>
<path vector-effect="none" fill-rule="evenodd" d="M887.848,1511.02 L887.848,1515.18 L884.242,1517.27 L884.242,1521.43 L887.848,1523.51 L887.848,1527.67 L884.242,1529.76 L880.636,1527.67 L877.03,1529.76 L873.425,1527.67 L869.819,1529.76 L866.213,1527.67 L866.213,1523.51 L862.607,1521.43 L862.607,1517.27 L866.213,1515.18 L866.213,1511.02 L869.819,1508.94 L873.425,1511.02 L877.03,1508.94 L880.636,1511.02 L884.242,1508.94 L887.848,1511.02"/>
<path vector-effect="none" fill-rule="evenodd" d="M1006.84,1792.06 L1006.84,1796.22 L1010.44,1798.31 L1010.44,1802.47 L1014.05,1804.55 L1014.05,1808.72 L1017.65,1810.8 L1017.65,1814.96 L1014.05,1817.04 L1010.44,1814.96 L1006.84,1817.04 L1003.23,1814.96 L1003.23,1810.8 L999.625,1808.72 L999.625,1804.55 L996.019,1802.47 L992.413,1804.55 L988.808,1802.47 L988.808,1798.31 L992.413,1796.22 L992.413,1792.06 L996.019,1789.98 L999.625,1792.06 L1003.23,1789.98 L1006.84,1792.06"/>
</g>

<g fill="#7d0069" fill-opacity="1" stroke="#000000" stroke-opacity="1" stroke-width="3.07087" stroke-linecap="square" stroke-linejoin="bevel" transform="matrix(0.999751,0,0,0.999751,401.475,177.121)"
font-family=".Lucida Grande UI" font-size="54.1667" font-weight="400" font-style="normal" 
>
<path vector-effect="none" fill-rule="evenodd" d="M819.338,1604.7 L819.338,1608.86 L815.732,1610.95 L812.126,1608.86 L808.521,1610.95 L808.521,1615.11 L804.915,1617.19 L801.309,1615.11 L797.703,1617.19 L794.098,1615.11 L790.492,1617.19 L786.886,1615.11 L786.886,1610.95 L790.492,1608.86 L794.098,1610.95 L797.703,1608.86 L797.703,1604.7 L794.098,1602.62 L794.098,1598.45 L797.704,1596.37 L801.309,1598.45 L801.309,1602.62 L804.915,1604.7 L808.521,1602.62 L812.126,1604.7 L815.732,1602.62 L815.732,1598.46 L819.338,1596.37 L822.944,1598.46 L822.944,1602.62 L819.338,1604.7"/>
</g>

<g fill="#ffb900" fill-opacity="1" stroke="#000000" stroke-opacity="1" stroke-width="3.07087" stroke-linecap="square" stroke-linejoin="bevel" transform="matrix(0.999751,0,0,0.999751,401.475,177.121)"
font-family=".Lucida Grande UI" font-size="54.1667" font-weight="400" font-style="normal" 
>
<path vector-effect="none" fill-rule="evenodd" d="M1046.5,1685.89 L1046.5,1690.05 L1050.11,1692.14 L1050.11,1696.3 L1046.5,1698.38 L1046.5,1702.54 L1042.89,1704.63 L1042.89,1708.79 L1039.29,1710.87 L1035.68,1708.79 L1035.68,1704.63 L1032.08,1702.54 L1032.08,1698.38 L1028.47,1696.3 L1028.47,1692.14 L1032.08,1690.05 L1032.08,1685.89 L1035.68,1683.81 L1039.29,1685.89 L1042.89,1683.81 L1046.5,1685.89"/>
<path vector-effect="none" fill-rule="evenodd" d="M631.84,1184.18 L628.235,1186.26 L624.629,1184.18 L624.629,1180.02 L628.235,1177.93 L631.84,1180.02 L631.84,1184.18"/>
<path vector-effect="none" fill-rule="evenodd" d="M642.658,1177.93 L639.052,1180.02 L635.446,1177.93 L635.446,1173.77 L639.052,1171.69 L639.052,1167.53 L642.658,1165.44 L646.264,1167.53 L646.264,1171.69 L642.658,1173.77 L642.658,1177.93"/>
<path vector-effect="none" fill-rule="evenodd" d="M646.264,1159.2 L642.658,1161.28 L639.052,1159.2 L635.446,1161.28 L631.841,1159.2 L631.841,1155.03 L635.446,1152.95 L635.446,1148.79 L639.052,1146.71 L642.658,1148.79 L642.658,1152.95 L646.264,1155.03 L646.264,1159.2"/>
<path vector-effect="none" fill-rule="evenodd" d="M657.081,1165.44 L653.475,1167.53 L649.869,1165.44 L649.869,1161.28 L653.475,1159.2 L653.475,1155.03 L657.081,1152.95 L657.081,1148.79 L660.687,1146.71 L660.687,1142.54 L664.292,1140.46 L667.898,1142.54 L667.898,1146.71 L664.292,1148.79 L664.292,1152.95 L660.687,1155.03 L660.687,1159.2 L657.081,1161.28 L657.081,1165.44"/>
<path vector-effect="none" fill-rule="evenodd" d="M696.744,1067.6 L696.744,1071.76 L693.139,1073.85 L693.139,1078.01 L689.533,1080.09 L689.533,1084.25 L685.927,1086.34 L682.321,1084.25 L682.321,1080.09 L678.716,1078.01 L678.716,1073.85 L675.11,1071.76 L675.11,1067.6 L671.504,1065.52 L671.504,1061.35 L675.11,1059.27 L678.716,1061.35 L678.716,1065.52 L682.321,1067.6 L685.927,1065.52 L685.927,1061.35 L689.533,1059.27 L689.533,1055.11 L693.139,1053.03 L696.744,1055.11 L696.744,1059.27 L700.35,1061.35 L700.35,1065.52 L696.744,1067.6"/>
<path vector-effect="none" fill-rule="evenodd" d="M696.744,1159.2 L700.35,1161.28 L700.35,1165.44 L703.956,1167.53 L703.956,1171.69 L707.561,1173.77 L707.561,1177.93 L711.167,1180.02 L711.167,1184.18 L707.561,1186.26 L703.956,1184.18 L703.956,1180.02 L700.35,1177.93 L700.35,1173.77 L696.744,1171.69 L696.744,1167.53 L693.138,1165.44 L693.138,1161.28 L689.533,1159.2 L685.927,1161.28 L685.927,1165.44 L682.321,1167.53 L678.715,1165.44 L678.715,1161.28 L682.321,1159.2 L682.321,1155.04 L685.927,1152.95 L685.927,1148.79 L689.533,1146.71 L693.138,1148.79 L693.138,1152.95 L696.744,1155.04 L696.744,1159.2"/>
<path vector-effect="none" fill-rule="evenodd" d="M747.224,1192.51 L747.224,1196.67 L743.619,1198.75 L743.619,1202.92 L747.224,1205 L747.224,1209.16 L743.619,1211.24 L743.619,1215.41 L747.224,1217.49 L747.224,1221.65 L743.619,1223.73 L740.013,1221.65 L740.013,1217.49 L736.407,1215.41 L736.407,1211.24 L732.801,1209.16 L732.801,1205 L729.196,1202.92 L729.196,1198.75 L725.59,1196.67 L725.59,1192.51 L729.196,1190.43 L732.801,1192.51 L736.407,1190.43 L740.013,1192.51 L743.619,1190.43 L747.224,1192.51"/>
<path vector-effect="none" fill-rule="evenodd" d="M786.888,1086.34 L786.888,1090.5 L783.282,1092.58 L779.677,1090.5 L776.071,1092.58 L772.465,1090.5 L768.859,1092.58 L765.254,1090.5 L761.648,1092.58 L758.042,1090.5 L754.436,1092.58 L754.436,1096.75 L750.831,1098.83 L750.831,1102.99 L747.225,1105.07 L743.619,1102.99 L740.013,1105.07 L736.408,1102.99 L736.408,1098.83 L740.013,1096.75 L740.013,1092.58 L743.619,1090.5 L747.225,1092.58 L750.831,1090.5 L750.831,1086.34 L754.436,1084.25 L758.042,1086.34 L761.648,1084.25 L765.254,1086.34 L768.859,1084.25 L772.465,1086.34 L776.071,1084.25 L779.677,1086.34 L783.282,1084.25 L786.888,1086.34"/>
<path vector-effect="none" fill-rule="evenodd" d="M703.956,1092.58 L703.956,1096.75 L707.562,1098.83 L711.167,1096.75 L714.773,1098.83 L714.773,1102.99 L711.167,1105.07 L707.562,1102.99 L703.956,1105.07 L703.956,1109.24 L700.35,1111.32 L696.744,1109.24 L693.139,1111.32 L693.139,1115.48 L689.533,1117.56 L685.927,1115.48 L685.927,1111.32 L689.533,1109.24 L689.533,1105.07 L685.927,1102.99 L685.927,1098.83 L689.533,1096.75 L689.533,1092.58 L693.139,1090.5 L696.744,1092.58 L700.35,1090.5 L703.956,1092.58"/>
<path vector-effect="none" fill-rule="evenodd" d="M750.83,1148.79 L750.83,1152.95 L754.436,1155.04 L758.042,1152.95 L761.648,1155.04 L761.648,1159.2 L765.253,1161.28 L768.859,1159.2 L772.465,1161.28 L772.465,1165.44 L776.071,1167.53 L779.676,1165.44 L783.282,1167.53 L783.282,1171.69 L779.676,1173.77 L776.071,1171.69 L772.465,1173.77 L768.859,1171.69 L768.859,1167.53 L765.253,1165.44 L761.648,1167.53 L758.042,1165.44 L758.042,1161.28 L754.436,1159.2 L750.83,1161.28 L747.225,1159.2 L747.225,1155.04 L743.619,1152.95 L740.013,1155.04 L736.407,1152.95 L736.407,1148.79 L740.013,1146.71 L743.619,1148.79 L747.225,1146.71 L750.83,1148.79"/>
<path vector-effect="none" fill-rule="evenodd" d="M711.168,1046.78 L707.562,1048.86 L703.956,1046.78 L703.956,1042.62 L707.562,1040.54 L711.168,1042.62 L711.168,1046.78"/>
<path vector-effect="none" fill-rule="evenodd" d="M718.379,1034.29 L721.985,1036.37 L721.985,1040.54 L718.379,1042.62 L714.773,1040.54 L714.773,1036.37 L711.168,1034.29 L707.562,1036.37 L703.956,1034.29 L703.956,1030.13 L707.562,1028.05 L707.562,1023.88 L711.168,1021.8 L714.773,1023.88 L714.773,1028.05 L718.379,1030.13 L718.379,1034.29"/>
<path vector-effect="none" fill-rule="evenodd" d="M772.466,961.43 L772.466,965.593 L768.86,967.675 L765.254,965.593 L761.648,967.675 L758.043,965.593 L758.043,961.43 L761.648,959.348 L765.254,961.43 L768.86,959.348 L768.86,955.184 L765.254,953.103 L765.254,948.939 L768.86,946.857 L768.86,942.694 L772.466,940.612 L776.071,942.694 L776.071,946.857 L772.466,948.939 L772.466,953.103 L776.071,955.184 L776.071,959.348 L772.466,961.43"/>
<path vector-effect="none" fill-rule="evenodd" d="M660.687,1092.58 L660.687,1096.75 L657.081,1098.83 L657.081,1102.99 L653.475,1105.07 L649.87,1102.99 L649.87,1098.83 L646.264,1096.75 L646.264,1092.58 L649.87,1090.5 L653.475,1092.58 L657.081,1090.5 L660.687,1092.58"/>
<path vector-effect="none" fill-rule="evenodd" d="M693.139,1086.34 L693.139,1090.5 L689.533,1092.58 L689.533,1096.75 L685.927,1098.83 L685.927,1102.99 L689.533,1105.07 L689.533,1109.24 L685.927,1111.32 L685.927,1115.48 L682.321,1117.56 L678.716,1115.48 L678.716,1111.32 L682.321,1109.24 L682.321,1105.07 L678.716,1102.99 L678.716,1098.83 L675.11,1096.75 L675.11,1092.58 L678.716,1090.5 L678.716,1086.34 L682.321,1084.25 L685.927,1086.34 L689.533,1084.25 L693.139,1086.34"/>
<path vector-effect="none" fill-rule="evenodd" d="M657.161,1552.38 L653.555,1554.46 L649.95,1552.38 L646.344,1554.46 L642.738,1552.38 L642.738,1548.22 L646.344,1546.14 L646.344,1541.97 L642.738,1539.89 L642.738,1535.73 L639.132,1533.65 L639.132,1529.48 L642.738,1527.4 L642.738,1523.24 L646.344,1521.15 L649.95,1523.24 L649.95,1527.4 L653.555,1529.48 L653.555,1533.65 L657.161,1535.73 L657.161,1539.89 L660.767,1541.97 L660.767,1546.14 L657.161,1548.22 L657.161,1552.38"/>
<path vector-effect="none" fill-rule="evenodd" d="M664.29,1698.38 L664.29,1702.54 L660.685,1704.63 L660.685,1708.79 L657.079,1710.87 L657.079,1715.03 L653.473,1717.12 L653.473,1721.28 L649.867,1723.36 L646.261,1721.28 L646.262,1717.12 L642.656,1715.03 L642.656,1710.87 L646.262,1708.79 L646.262,1704.63 L649.867,1702.54 L649.867,1698.38 L653.473,1696.3 L657.079,1698.38 L660.685,1696.3 L660.685,1692.13 L664.29,1690.05 L667.896,1692.13 L667.896,1696.3 L664.29,1698.38"/>
<path vector-effect="none" fill-rule="evenodd" d="M664.29,1752.51 L660.684,1754.59 L657.079,1752.51 L657.079,1748.34 L653.473,1746.26 L653.473,1742.1 L649.867,1740.02 L649.867,1735.85 L653.473,1733.77 L653.473,1729.61 L657.079,1727.52 L657.079,1723.36 L660.685,1721.28 L664.29,1723.36 L664.29,1727.52 L667.896,1729.61 L667.896,1733.77 L671.502,1735.85 L671.502,1740.02 L667.896,1742.1 L667.896,1746.26 L664.29,1748.34 L664.29,1752.51"/>
<path vector-effect="none" fill-rule="evenodd" d="M725.588,1767.08 L725.588,1771.24 L729.194,1773.32 L729.194,1777.49 L725.588,1779.57 L725.588,1783.73 L721.982,1785.81 L721.982,1789.98 L718.376,1792.06 L714.771,1789.98 L714.771,1785.81 L711.165,1783.73 L711.165,1779.57 L707.559,1777.49 L707.559,1773.32 L711.165,1771.24 L711.165,1767.08 L714.771,1765 L718.376,1767.08 L721.982,1765 L725.588,1767.08"/>
<path vector-effect="none" fill-rule="evenodd" d="M696.742,1733.77 L693.136,1735.85 L689.53,1733.77 L689.53,1729.61 L685.925,1727.52 L685.925,1723.36 L682.319,1721.28 L682.319,1717.12 L678.713,1715.03 L678.713,1710.87 L682.319,1708.79 L682.319,1704.63 L685.925,1702.54 L689.531,1704.63 L689.531,1708.79 L693.136,1710.87 L693.136,1715.03 L696.742,1717.12 L696.742,1721.28 L700.348,1723.36 L700.348,1727.53 L696.742,1729.61 L696.742,1733.77"/>
<path vector-effect="none" fill-rule="evenodd" d="M754.434,1758.75 L750.828,1760.83 L747.222,1758.75 L743.617,1760.83 L743.617,1765 L740.011,1767.08 L736.405,1765 L736.405,1760.83 L740.011,1758.75 L740.011,1754.59 L743.617,1752.51 L743.617,1748.34 L740.011,1746.26 L740.011,1742.1 L743.617,1740.02 L743.617,1735.85 L740.011,1733.77 L740.011,1729.61 L743.617,1727.53 L747.223,1729.61 L747.222,1733.77 L750.828,1735.85 L750.828,1740.02 L754.434,1742.1 L754.434,1746.26 L758.04,1748.34 L758.04,1752.51 L754.434,1754.59 L754.434,1758.75"/>
<path vector-effect="none" fill-rule="evenodd" d="M671.502,1560.98 L671.502,1565.15 L667.897,1567.23 L667.897,1571.39 L664.291,1573.47 L664.291,1577.64 L660.685,1579.72 L660.685,1583.88 L664.291,1585.96 L664.291,1590.13 L660.685,1592.21 L657.079,1590.13 L657.079,1585.96 L653.473,1583.88 L653.474,1579.72 L649.868,1577.64 L649.868,1573.47 L653.474,1571.39 L653.474,1567.23 L649.868,1565.15 L649.868,1560.98 L653.474,1558.9 L657.079,1560.98 L660.685,1558.9 L664.291,1560.98 L667.897,1558.9 L671.502,1560.98"/>
<path vector-effect="none" fill-rule="evenodd" d="M671.502,1690.05 L667.896,1692.13 L664.29,1690.05 L660.685,1692.13 L660.685,1696.3 L657.079,1698.38 L653.473,1696.3 L653.473,1692.13 L657.079,1690.05 L657.079,1685.89 L660.685,1683.81 L660.685,1679.64 L664.29,1677.56 L664.29,1673.4 L667.896,1671.32 L667.896,1667.15 L671.502,1665.07 L671.502,1660.91 L675.108,1658.83 L678.713,1660.91 L678.713,1665.07 L682.319,1667.15 L682.319,1671.32 L678.713,1673.4 L678.713,1677.56 L675.108,1679.64 L675.108,1683.81 L671.502,1685.89 L671.502,1690.05"/>
<path vector-effect="none" fill-rule="evenodd" d="M700.348,1660.91 L700.348,1665.07 L696.742,1667.15 L696.742,1671.32 L700.348,1673.4 L700.348,1677.56 L696.742,1679.64 L696.742,1683.81 L693.136,1685.89 L689.531,1683.81 L685.925,1685.89 L682.319,1683.81 L678.713,1685.89 L675.108,1683.81 L675.108,1679.64 L678.713,1677.56 L678.713,1673.4 L682.319,1671.32 L682.319,1667.15 L685.925,1665.07 L685.925,1660.91 L689.531,1658.83 L693.136,1660.91 L696.742,1658.83 L700.348,1660.91"/>
<path vector-effect="none" fill-rule="evenodd" d="M685.925,1685.89 L685.925,1690.05 L682.319,1692.13 L682.319,1696.3 L685.925,1698.38 L685.925,1702.54 L682.319,1704.63 L682.319,1708.79 L678.713,1710.87 L678.713,1715.03 L682.319,1717.12 L682.319,1721.28 L678.713,1723.36 L675.108,1721.28 L675.108,1717.12 L671.502,1715.03 L671.502,1710.87 L675.108,1708.79 L675.108,1704.63 L671.502,1702.54 L671.502,1698.38 L667.896,1696.3 L667.896,1692.13 L671.502,1690.05 L671.502,1685.89 L675.108,1683.81 L678.713,1685.89 L682.319,1683.81 L685.925,1685.89"/>
<path vector-effect="none" fill-rule="evenodd" d="M707.559,1727.53 L703.953,1729.61 L700.348,1727.53 L700.348,1723.36 L696.742,1721.28 L696.742,1717.12 L693.136,1715.03 L693.136,1710.87 L689.531,1708.79 L689.531,1704.63 L685.925,1702.54 L685.925,1698.38 L682.319,1696.3 L682.319,1692.13 L685.925,1690.05 L685.925,1685.89 L689.531,1683.81 L693.136,1685.89 L693.136,1690.05 L696.742,1692.13 L696.742,1696.3 L693.136,1698.38 L693.136,1702.54 L696.742,1704.63 L696.742,1708.79 L700.348,1710.87 L700.348,1715.03 L703.954,1717.12 L703.954,1721.28 L707.559,1723.36 L707.559,1727.53"/>
<path vector-effect="none" fill-rule="evenodd" d="M714.771,1715.03 L711.165,1717.12 L707.559,1715.03 L703.954,1717.12 L700.348,1715.03 L700.348,1710.87 L696.742,1708.79 L696.742,1704.63 L693.136,1702.54 L693.136,1698.38 L696.742,1696.3 L696.742,1692.13 L693.136,1690.05 L693.136,1685.89 L696.742,1683.81 L696.742,1679.64 L700.348,1677.56 L703.954,1679.64 L703.954,1683.81 L700.348,1685.89 L700.348,1690.05 L703.954,1692.13 L703.954,1696.3 L707.559,1698.38 L707.559,1702.54 L711.165,1704.63 L711.165,1708.79 L714.771,1710.87 L714.771,1715.03"/>
<path vector-effect="none" fill-rule="evenodd" d="M700.348,1765 L696.742,1767.08 L693.136,1765 L693.136,1760.83 L696.742,1758.75 L696.742,1754.59 L693.136,1752.51 L693.136,1748.34 L696.742,1746.26 L696.742,1742.1 L693.136,1740.02 L693.136,1735.85 L696.742,1733.77 L696.742,1729.61 L700.348,1727.53 L703.953,1729.61 L703.953,1733.77 L707.559,1735.85 L707.559,1740.02 L711.165,1742.1 L711.165,1746.26 L707.559,1748.34 L707.559,1752.51 L703.953,1754.59 L703.953,1758.75 L700.348,1760.83 L700.348,1765"/>
<path vector-effect="none" fill-rule="evenodd" d="M718.376,1733.77 L721.982,1735.85 L725.588,1733.77 L729.194,1735.85 L729.194,1740.02 L725.588,1742.1 L725.588,1746.26 L721.982,1748.34 L718.376,1746.26 L714.771,1748.34 L711.165,1746.26 L711.165,1742.1 L707.559,1740.02 L707.559,1735.85 L703.953,1733.77 L703.953,1729.61 L707.559,1727.53 L707.559,1723.36 L703.954,1721.28 L703.954,1717.12 L707.559,1715.03 L711.165,1717.12 L711.165,1721.28 L714.771,1723.36 L714.771,1727.53 L718.376,1729.61 L718.376,1733.77"/>
<path vector-effect="none" fill-rule="evenodd" d="M732.799,1733.77 L729.194,1735.85 L725.588,1733.77 L721.982,1735.85 L718.376,1733.77 L718.376,1729.61 L714.771,1727.53 L714.771,1723.36 L711.165,1721.28 L711.165,1717.12 L714.771,1715.03 L714.771,1710.87 L711.165,1708.79 L711.165,1704.63 L714.771,1702.54 L718.377,1704.63 L718.377,1708.79 L721.982,1710.87 L721.982,1715.03 L725.588,1717.12 L725.588,1721.28 L729.194,1723.36 L729.194,1727.53 L732.799,1729.61 L732.799,1733.77"/>
</g>

<g fill="none" stroke="#000000" stroke-opacity="1" stroke-width="1" stroke-linecap="square" stroke-linejoin="bevel" transform="matrix(11.8081,0,0,11.8081,401.475,177.121)"
font-family=".Lucida Grande UI" font-size="54.1667" font-weight="400" font-style="normal" 
>
</g>

<g fill="none" stroke="#000000" stroke-opacity="1" stroke-width="1" stroke-linecap="square" stroke-linejoin="bevel" transform="matrix(11.8081,0,0,11.8081,401.475,177.121)"
font-family=".Lucida Grande UI" font-size="54.1667" font-weight="400" font-style="normal" 
>
</g>

<g fill="none" stroke="#000000" stroke-opacity="1" stroke-width="1" stroke-linecap="square" stroke-linejoin="bevel" transform="matrix(11.8081,0,0,11.8081,401.475,177.121)"
font-family=".Lucida Grande UI" font-size="54.1667" font-weight="400" font-style="normal" 
>
</g>

<g fill="none" stroke="#000000" stroke-opacity="1" stroke-width="1" stroke-linecap="square" stroke-linejoin="bevel" transform="matrix(1,0,0,1,0,0)"
font-family=".Lucida Grande UI" font-size="54.1667" font-weight="400" font-style="normal" 
>
</g>

<g fill="none" stroke="#000000" stroke-opacity="1" stroke-width="1" stroke-linecap="square" stroke-linejoin="bevel" transform="matrix(11.8081,0,0,11.8081,401.475,177.121)"
font-family=".Lucida Grande UI" font-size="54.1667" font-weight="400" font-style="normal" 
>
</g>

<g fill="none" stroke="#000000" stroke-opacity="1" stroke-width="1" stroke-linecap="square" stroke-linejoin="bevel" transform="matrix(11.8081,0,0,11.8081,401.475,177.121)"
font-family=".Lucida Grande UI" font-size="54.1667" font-weight="400" font-style="normal" 
>
</g>

<g fill="none" stroke="#000000" stroke-opacity="1" stroke-width="1" stroke-linecap="square" stroke-linejoin="bevel" transform="matrix(11.8081,0,0,11.8081,401.475,177.121)"
font-family=".Lucida Grande UI" font-size="54.1667" font-weight="400" font-style="normal" 
>
</g>

<g fill="none" stroke="#000000" stroke-opacity="1" stroke-width="1" stroke-linecap="square" stroke-linejoin="bevel" transform="matrix(11.8081,0,0,11.8081,401.475,177.121)"
font-family=".Lucida Grande UI" font-size="54.1667" font-weight="400" font-style="normal" 
>
</g>

<g fill="none" stroke="#000000" stroke-opacity="1" stroke-width="1" stroke-linecap="square" stroke-linejoin="bevel" transform="matrix(11.8081,0,0,11.8081,0,0)"
font-family=".Lucida Grande UI" font-size="54.1667" font-weight="400" font-style="normal" 
>
</g>

<g fill="none" stroke="#000000" stroke-opacity="1" stroke-width="1" stroke-linecap="square" stroke-linejoin="bevel" transform="matrix(11.8081,0,0,11.8081,0,0)"
font-family=".Lucida Grande UI" font-size="54.1667" font-weight="400" font-style="normal" 
>
</g>

<g fill="none" stroke="#000000" stroke-opacity="1" stroke-width="1" stroke-linecap="square" stroke-linejoin="bevel" transform="matrix(1,0,0,1,0,0)"
font-family=".Lucida Grande UI" font-size="54.1667" font-weight="400" font-style="normal" 
>
</g>
</g>
</svg>
