<?xml version="1.0" encoding="utf-8"?>
<!-- Generator: Adobe Illustrator 18.0.0, SVG Export Plug-In . SVG Version: 6.00 Build 0)  -->
<!DOCTYPE svg PUBLIC "-//W3C//DTD SVG 1.1//EN" "http://www.w3.org/Graphics/SVG/1.1/DTD/svg11.dtd">
<svg version="1.1" id="map" xmlns="http://www.w3.org/2000/svg" xmlns:xlink="http://www.w3.org/1999/xlink" x="0px" y="0px"
	 viewBox="0 800 483.7 800.2" enable-background="new 0 800 483.7 800.2" xml:space="preserve">
<g id="bg">
	<g transform="matrix(0.999751,0,0,0.999751,-2.27374e-13,0)">
		
			<path vector-effect="none" fill="#ECECEC" stroke="#000000" stroke-width="3.0709" stroke-linecap="square" stroke-linejoin="bevel" stroke-opacity="0" d="
			M43.7,1100.2h3.1l1.6-2.7h3.1l1.6-2.7h3.1l1.6,2.7l-1.6,2.7l1.6,2.7h3.1l1.6,2.7h3.1l1.6,2.7h3l1.6,2.7h3.1l1.6,2.7l-1.6,2.7
			l1.6,2.7h3.1l1.6,2.7h3.1l1.6,2.7l-1.6,2.7l1.6,2.7l-1.6,2.7l1.6,2.7l-1.6,2.7l1.6,2.7l-1.6,2.7l1.6,2.7l-1.6,2.7h-3.1l-1.6,2.7
			l1.6,2.7l-1.6,2.7h-3.1l-1.6-2.7h-3.1l-1.6,2.5h-3.1l-1.6,2.7l1.6,2.7l-1.6,2.7h-3.1l-1.6,2.7h-3.1l-1.6-2.7H53l-1.6-2.7h-3.1
			l-1.6,2.7h-3.1l-1.6-2.7h-3.1l-1.6-2.7h-3.1l-1.6-2.7l1.6-2.7l-1.6-2.7h-3.1l-1.6-2.7l1.6-2.7l-1.6-2.7h-3.1l-1.6,2.7H20l-1.6,2.7
			l1.6,2.7l-1.6,2.7h-3.1l-1.6-2.7h-3.1l-1.6-2.7H6.3l-1.6-2.7H1.6l-1.6-2.7l1.6-2.7h3.1l1.6-2.7l-1.6-2.7l1.6-2.7h3.1l1.6-2.7h3.1
			l1.6-2.7l-1.6-2.7l1.6-2.7l-1.6-2.7l1.6-2.7l-1.6-2.7l1.6-2.7l-1.6-2.7l1.6-2.7h3.1l1.6,2.7h3.1l1.6-2.7h3l1.6-2.7h3.1l1.6-2.7
			h3.1l1.6-2.7h3L43.7,1100.2"/>
		
			<path vector-effect="none" fill="#ECECEC" stroke="#000000" stroke-width="3.0709" stroke-linecap="square" stroke-linejoin="bevel" stroke-opacity="0" d="
			M457.7,1350.9l2.9,1.7v3.3l-2.9,1.7v3.3l2.9,1.7v3.3l2.9,1.7v3.3l-2.9,1.7v3.3l-2.9,1.7v3.3l-2.9,1.7v3.3l2.9,1.7v3.3l2.9,1.7v3.3
			l-2.9,1.7v3.3l2.9,1.7v3.3l-2.9,1.7l-2.9-1.7l-2.9,1.7v3.3l2.9,1.7v3.3l2.9,1.7v3.3l2.9,1.7l2.9-1.7l2.9,1.7v3.3l2.9,1.7v3.3
			l2.9,1.7v3.3l-2.9,1.7v3.3l-2.9,1.7v3.3l-2.9,1.7l-2.9-1.7l-2.9,1.7l-2.9-1.7l-2.9,1.7v3.3l-2.9,1.7v3.3l-2.9,1.7v3.3l2.9,1.7
			l2.9-1.7l2.9,1.7l2.9-1.7l2.9,1.7l2.9-1.7l2.9,1.7l2.9-1.7v-3.3l2.9-1.7l2.9,1.7l2.9-1.7l2.9,1.7v3.3l-2.9,1.7v3.3l2.9,1.7v3.3
			l-2.9,1.7v3.3l-2.9,1.7v3.3l-2.9,1.7v3.3l2.9,1.7v3.3l-2.9,1.7v3.3l-2.9,1.7v3.3l-2.9,1.7v3.3l-2.9,1.7v3.3l-2.9,1.7l-2.9-1.7
			l-2.9,1.7v3.3l-2.9,1.7v3.3l-2.9,1.7v3.3l-2.9,1.7v3.3l-2.9,1.7v3.3l-2.9,1.7l-2.9-1.7l-2.9,1.7l-2.9-1.7l-2.9,1.7v3.3l-2.9,1.7
			v3.3l-2.9,1.7l-2.9-1.7l-2.9,1.7v3.3l-2.9,1.7l-2.9-1.7l-2.9,1.7v3.3l-2.9,1.7l-2.9-1.7l-2.9,1.7v3.3l-2.9,1.7v3.3l-2.9,1.7
			l-2.9-1.7l-2.9,1.7v3.3l-2.9,1.7l-2.9-1.7l-2.9,1.7l-2.9-1.7v-3.3l-2.9-1.7l-2.9,1.7v3.3l-2.9,1.7v3.3l-2.9,1.7l-2.9-1.7l-2.9,1.7
			l-2.9-1.7l-2.9,1.7l-2.9-1.7v-3.3l-2.9-1.7l-2.9,1.7l-2.9-1.7l-2.9,1.7l-2.9-1.7l-2.9,1.7l-2.9-1.7l-2.9,1.7l-2.9-1.7l-2.9,1.7
			l-2.9-1.7l-2.9,1.7l-2.9-1.7l-2.9,1.7l-2.9-1.7l-2.9,1.7l-2.9-1.7l-2.9,1.7l-2.9-1.7l-2.9,1.7l-2.9-1.7l-2.9,1.7l-2.9-1.7
			l-2.9,1.7v3.3l-2.9,1.7l-2.9-1.7l-2.9,1.7l-2.9-1.7l-2.9,1.7l-2.9-1.7v-3.3l-2.9-1.7v-3.3l-2.9-1.7l-2.9,1.7l-2.9-1.7v-3.3
			l-2.9-1.7l-2.9,1.7l-2.9-1.7v-3.3l-2.9-1.7l-2.9,1.7l-2.9-1.7v-3.3l-2.9-1.7v-3.3l-2.9-1.7l-2.9,1.7v3.3l-2.9,1.7v3.3l2.9,1.7v3.3
			l-2.9,1.7v3.3l-2.9,1.7l-2.9-1.7l-2.9,1.7l-2.9-1.7v-3.3l-2.9-1.7l-2.9,1.7l-2.9-1.7l-2.9,1.7l-2.9-1.7l-2.9,1.7v3.3l-2.9,1.7
			l-2.9-1.7v-3.3l-2.9-1.7l-2.9,1.7l-2.9-1.7v-3.3l-2.9-1.7v-3.3l-2.9-1.7v-3.3l-2.9-1.7v-3.3l-2.9-1.7l-2.9,1.7l-2.9-1.7l-2.9,1.7
			l-2.9-1.7v-3.3l-2.9-1.7l-2.9,1.7l-2.9-1.7l-2.9,1.7l-2.9-1.7l-2.9,1.7l-2.9-1.7l-2.9,1.7v3.3l-2.9,1.7l-2.9-1.7l-2.9,1.7
			l-2.9-1.7l-2.9,1.7l-2.9-1.7v-3.3l-2.9-1.7l-2.9,1.7v3.3l2.9,1.7v3.3l2.9,1.7v3.3l2.9,1.7v3.3l2.9,1.7v3.3l2.9,1.7v3.3l-2.9,1.7
			v3.3l-2.9,1.7l-2.9-1.7l-2.9,1.7l-2.9-1.7l-2.9,1.7l-2.9-1.7l-2.9,1.7l-2.9-1.7l-2.9,1.7l-2.9-1.7l-2.9,1.7l-2.9-1.7l-2.9,1.7
			l-2.9-1.7v-3.3l-2.9-1.7l-2.9,1.7l-2.9-1.7v-3.3l-2.9-1.7v-3.3l-2.9-1.7l-2.9,1.7l-2.9-1.7l-2.9,1.7v3.3l-2.9,1.7v3.3l-2.9,1.7
			l-2.9-1.7l-2.9,1.7v3.3l-2.9,1.7v3.3l-2.9,1.7l-2.9-1.7l-2.9,1.7v3.3l2.9,1.7v3.3l-2.9,1.7v3.3l-2.9,1.7v3.3l-2.9,1.7l-2.9-1.7
			v-3.3l-2.9-1.7v-3.3l-2.9-1.7l-2.9,1.7l-2.9-1.7v-3.3l-2.9-1.7l-2.9,1.7v3.3l-2.9,1.7l-2.9-1.7v-3.3l2.9-1.7v-3.3l2.9-1.7l2.9,1.7
			l2.9-1.7v-3.3l2.9-1.7l2.9,1.7l2.9-1.7v-3.3l2.9-1.7l2.9,1.7l2.9-1.7v-3.3l2.9-1.7v-3.3l2.9-1.7v-3.3l2.9-1.7v-3.3l2.9-1.7v-3.3
			l2.9-1.7l2.9,1.7l2.9-1.7l2.9,1.7l2.9-1.7v-3.3l2.9-1.7v-3.3l2.9-1.7l2.9,1.7l2.9-1.7v-3.3l2.9-1.7v-3.3l2.9-1.7l2.9,1.7l2.9-1.7
			v-3.3l2.9-1.7l2.9,1.7l2.9-1.7v-3.3l-2.9-1.7v-3.3l-2.9-1.7v-3.3l2.9-1.7l2.9,1.7l2.9-1.7l2.9,1.7l2.9-1.7l2.9,1.7v3.3l2.9,1.7
			l2.9-1.7l2.9,1.7l2.9-1.7l2.9,1.7v3.3l2.9,1.7l2.9-1.7l2.9,1.7l2.9-1.7l2.9,1.7l2.9-1.7l2.9,1.7l2.9-1.7v-3.3l2.9-1.7v-3.3
			l-2.9-1.7v-3.3l-2.9-1.7v-3.3l2.9-1.7v-3.3l2.9-1.7v-3.3l2.9-1.7v-3.3l-2.9-1.7v-3.3l2.9-1.7v-3.3l2.9-1.7v-3.3l2.9-1.7v-3.3
			l-2.9-1.7l-2.9,1.7v3.3l-2.9,1.7v3.3l-2.9,1.7v3.3l-2.9,1.7v3.3l-2.9,1.7v3.3l-2.9,1.7v3.3l-2.9,1.7v3.3l-2.9,1.7l-2.9-1.7
			l-2.9,1.7l-2.9-1.7l-2.9,1.7l-2.9-1.7v-3.3l-2.9-1.7v-3.3l-2.9-1.7v-3.3l-2.9-1.7l-2.9,1.7l-2.9-1.7l-2.9,1.7l-2.9-1.7v-3.3
			l-2.9-1.7v-3.3l2.9-1.7v-3.3l-2.9-1.7v-3.3l2.9-1.7v-3.3l-2.9-1.7v-3.3l2.9-1.7v-3.3l-2.9-1.7l-2.9,1.7v3.3l-2.9,1.7v3.3l-2.9,1.7
			l-2.9-1.7l-2.9,1.7l-2.9-1.7v-3.3l-2.9-1.7l-2.9,1.7l-2.9-1.7v-3.3l2.9-1.7v-3.3l-2.9-1.7v-3.3l2.9-1.7v-3.3l2.9-1.7v-3.3
			l-2.9-1.7l-2.9,1.7l-2.9-1.7l-2.9,1.7v3.3l-2.9,1.7l-2.9-1.7l-2.9,1.7l-2.9-1.7l-2.9,1.7l-2.9-1.7v-3.3l2.9-1.7v-3.3l2.9-1.7v-3.3
			l2.9-1.7v-3.3l2.9-1.7l2.9,1.7l2.9-1.7v-3.3l2.9-1.7l2.9,1.7l2.9-1.7l2.9,1.7l2.9-1.7l2.9,1.7l2.9-1.7v-3.3l2.9-1.7v-3.3l2.9-1.7
			v-3.3l2.9-1.7v-3.3l2.9-1.7v-3.3l2.9-1.7l2.9,1.7l2.9-1.7v-3.3l2.9-1.7l2.9,1.7l2.9-1.7v-3.3l2.9-1.7v-3.3l-2.9-1.7v-3.3l-2.9-1.7
			l-2.9,1.7l-2.9-1.7v-3.3l-2.9-1.7v-3.3l-2.9-1.7v-3.3l-2.9-1.7v-3.3l-2.9-1.7v-3.3l-2.9-1.7v-3.3l-2.9-1.7v-3.3l-2.9-1.7v-3.3
			l-2.9-1.7v-3.3l-2.9-1.7v-3.3l2.9-1.7v-3.3l-2.9-1.7v-3.3l2.9-1.7l2.9,1.7l2.9-1.7l2.9,1.7l2.9-1.7l2.9,1.7v3.3l2.9,1.7l2.9-1.7
			v-3.3l2.9-1.7v-3.3l2.9-1.7l2.9,1.7l2.9-1.7v-3.3l-2.9-1.7v-3.3l-2.9-1.7v-3.3l2.9-1.7v-3.3l-2.9-1.7v-3.3l2.9-1.7v-3.3l2.9-1.7
			l2.9,1.7l2.9-1.7v-3.3l-2.9-1.7v-3.3l2.9-1.7v-3.3l2.9-1.7v-3.3l-2.9-1.7v-3.3l2.9-1.7v-3.3l2.9-1.7v-3.3l-2.9-1.7v-3.3l2.9-1.7
			v-3.3l2.9-1.7v-3.3l2.9-1.7v-3.3l2.9-1.7v-3.3l2.9-1.7v-3.3l2.9-1.7v-3.3l-2.9-1.7v-3.3l2.9-1.7v-3.3l-2.9-1.7v-3.3l2.9-1.7v-3.3
			l2.9-1.7l2.9,1.7l2.9-1.7v-3.3l2.9-1.7v-3.3l-2.9-1.7v-3.3l2.9-1.7v-3.3l2.9-1.7l2.9,1.7l2.9-1.7v-3.3l2.9-1.7v-3.3l2.9-1.7v-3.3
			l-2.9-1.7l-2.9,1.7v3.3l-2.9,1.7v3.3l-2.9,1.7l-2.9-1.7v-3.3l-2.9-1.7v-3.3l2.9-1.7v-3.3l2.9-1.7v-3.3l2.9-1.7v-3.3l-2.9-1.7v-3.3
			l-2.9-1.7v-3.3l-2.9-1.7v-3.3l2.9-1.7v-3.3l2.9-1.7v-3.3l-2.9-1.7v-3.3l2.9-1.7v-3.3l2.9-1.7v-3.3l-2.9-1.7l-2.9,1.7l-2.9-1.7
			l-2.9,1.7v3.3l-2.9,1.7l-2.9-1.7l-2.9,1.7l-2.9-1.7l-2.9,1.7v3.3l-2.9,1.7l-2.9-1.7l-2.9,1.7l-2.9-1.7l-2.9,1.7l-2.9-1.7l-2.9,1.7
			v3.3l-2.9,1.7l-2.9-1.7v-3.3l-2.9-1.7l-2.9,1.7l-2.9-1.7v-3.3l2.9-1.7l2.9,1.7l2.9-1.7v-3.3l-2.9-1.7v-3.3l2.9-1.7v-3.3l-2.9-1.7
			v-3.3l2.9-1.7v-3.3l-2.9-1.7v-3.3l-2.9-1.7v-3.3l-2.9-1.7v-3.3l-2.9-1.7L80,1047l-2.9-1.7v-3.3l-2.9-1.7v-3.3l-0.9-1.4v-3.3
			l-2.9-1.7v-3.3l2.9-1.7v-3.3l2.9-1.7v-3.3l2.9-1.7v-3.3l-2.9-1.7v-3.3l2.9-1.7v-3.3l-2.9-1.7v-3.3l2.9-1.7v-3.3l-2.9-1.7v-3.3
			l2.9-1.7v-3.3l-2.9-1.7l-2.9,1.7l-2.9-1.7v-3.3l2.9-1.7v-3.3l2.9-1.7v-3.3l2.9-1.7v-3.3l2.9-1.7l2.9,1.7l2.9-1.7l2.9,1.7l2.9-1.7
			v-3.3l2.9-1.7v-3.3l2.9-1.7l2.9,1.7l2.9-1.7v-3.3l-2.9-1.7v-3.3l-2.9-1.7l-2.9,1.7l-2.9-1.7v-3.3l2.9-1.7v-3.3l-2.9-1.7v-3.3
			l-2.9-1.7V922l2.9-1.7V917l2.9-1.7V912l-2.9-1.7V907l-2.9-1.7V902l-2.9-1.7V897l2.9-1.7l2.9,1.7v3.3l2.9,1.7l2.9-1.7V897l2.9-1.7
			V892l2.9-1.7l2.9,1.7v3.3l2.9,1.7v3.3l-2.9,1.7v3.3l-2.9,1.7v3.3l-2.9,1.7v3.3l2.9,1.7v3.3l2.9,1.7l2.9-1.7l2.9,1.7v3.3l2.9,1.7
			l2.9-1.7l2.9,1.7l2.9-1.7V922l2.9-1.7l2.9,1.7l2.9-1.7V917l2.9-1.7l2.9,1.7l2.9-1.7l2.9,1.7l2.9-1.7V912l2.9-1.7l2.9,1.7l2.9-1.7
			l2.9,1.7l2.9-1.7l2.9,1.7l2.9-1.7V907l2.9-1.7l2.9,1.7l2.9-1.7l2.9,1.7l2.9-1.7l2.9,1.7v3.3l-2.9,1.7v3.3l2.9,1.7v3.3l2.9,1.7v3.3
			l-2.9,1.7v3.3l-2.9,1.7v3.3l-2.9,1.7l-2.9-1.7l-2.9,1.7l-2.9-1.7l-2.9,1.7l-2.9-1.7l-2.9,1.7l-2.9-1.7l-2.9,1.7l-2.9-1.7l-2.9,1.7
			v3.3l-2.9,1.7v3.3l2.9,1.7v3.3l2.9,1.7v3.3l2.9,1.7v3.3l-2.9,1.7l-2.9-1.7l-2.9,1.7v3.3l2.9,1.7v3.3l2.9,1.7l2.9-1.7l2.9,1.7v3.3
			l2.9,1.7l2.9-1.7l2.9,1.7v3.3l2.9,1.7l2.9-1.7l2.9,1.7v3.3l-2.9,1.7l-2.9-1.7l-2.9,1.7l-2.9-1.7l-2.9,1.7v3.3l-2.9,1.7v3.3
			l-2.9,1.7l-2.9-1.7v-3.3l-2.9-1.7l-2.9,1.7l-2.9-1.7l-2.9,1.7l-2.9-1.7l-2.9,1.7l-2.9-1.7l-2.9,1.7v3.3l2.9,1.7v3.3l2.9,1.7
			l2.9-1.7l2.9,1.7l2.9-1.7l2.9,1.7l2.9-1.7l2.9,1.7v3.3l2.9,1.7v3.3l2.9,1.7v3.3l2.9,1.7l2.9-1.7l2.9,1.7l2.9-1.7l2.9,1.7v3.3
			l2.9,1.7v3.3l2.9,1.7v3.3l2.9,1.7v3.3l-2.9,1.7v3.3l-2.9,1.7v3.3l2.9,1.7v3.3l2.9,1.7l2.9-1.7l2.9,1.7v3.3l2.9,1.7v3.3l2.9,1.7
			l2.9-1.7l2.9,1.7l2.9-1.7l2.9,1.7l2.9-1.7l2.9,1.7l2.9-1.7l2.9,1.7v3.3l2.9,1.7l2.9-1.7l2.9,1.7v3.3l2.9,1.7l2.9-1.7l2.9,1.7v3.3
			l2.9,1.7l2.9-1.7l2.9,1.7v3.3l2.9,1.7l2.9-1.7l2.9,1.7v3.3l2.9,1.7l2.9-1.7l2.9,1.7v3.3l-2.9,1.7v3.3l2.9,1.7v3.3l2.9,1.7v3.3
			l-2.9,1.7v3.3l2.9,1.7v3.3l2.9,1.7v3.3l2.9,1.7v3.3l2.9,1.7l2.9-1.7l2.9,1.7v3.3l2.9,1.7l2.9-1.7l2.9,1.7v3.3l2.9,1.7v3.3l2.9,1.7
			l2.9-1.7l2.9,1.7v3.3l2.9,1.7v3.3l2.9,1.7v3.3l2.9,1.7v3.3l-2.9,1.7v3.3l2.9,1.7v3.3l2.9,1.7v3.3l2.9,1.7l2.9-1.7l2.9,1.7v3.3
			l2.9,1.7v3.3l2.9,1.7l2.9-1.7l2.9,1.7v3.3l2.9,1.7l2.9-1.7l2.9,1.7v3.3l2.9,1.7l2.9-1.7l2.9,1.7l2.9-1.7l2.9,1.7v3.3l2.9,1.7v3.3
			l2.9,1.7v3.3l2.9,1.7v3.3l-2.9,1.7v3.3l-2.9,1.7l-2.9-1.7l-2.9,1.7l-2.9-1.7l-2.9,1.7v3.3l2.9,1.7l2.9-1.7l2.9,1.7v3.3l2.9,1.7
			l2.9-1.7l2.9,1.7v3.3l2.9,1.7v3.3l-2.9,1.7v3.3l2.9,1.7v3.3l2.9,1.7v3.3l-2.9,1.7v3.3l2.9,1.7v3.3l2.9,1.7v3.3l2.9,1.7v3.3
			l2.9,1.7v3.3l-2.9,1.7v3.3l-2.9,1.7v3.3l-2.9,1.7v3.3l2.9,1.7l2.9-1.7l2.9,1.7v3.3l2.9,1.7v3.3l2.9,1.7l2.9-1.7l2.9,1.7l2.9-1.7
			v-3.3l2.9-1.7l2.9,1.7l2.9-1.7v-3.3l2.9-1.7l2.9,1.7l2.9-1.7l2.9,1.7l2.9-1.7l2.9,1.7v3.3l2.9,1.7l2.9-1.7l2.9,1.7l2.9-1.7
			l2.9,1.7l2.9-1.7l2.9,1.7v3.3l2.9,1.7l2.9-1.7l2.9,1.7v3.3l2.9,1.7l2.9-1.7l2.9,1.7v3.3l2.9,1.7v3.3l-2.9,1.7v3.3l2.9,1.7v3.3
			l2.9,1.7v3.3l2.9,1.7v3.3l2.9,1.7v3.3l-2.9,1.7l-2.9-1.7l-2.9,1.7L457.7,1350.9"/>
		
			<path vector-effect="none" fill="#ECECEC" stroke="#000000" stroke-width="3.0709" stroke-linecap="square" stroke-linejoin="bevel" stroke-opacity="0" d="
			M237.9,1577.7l-2.9-1.7l-2.9,1.7l-2.9-1.7l-2.9,1.7l-2.9-1.7v-3.3l2.9-1.7v-3.3l2.9-1.7v-3.3l2.9-1.7l2.9,1.7l2.9-1.7l2.9,1.7v3.3
			l2.9,1.7v3.3l-2.9,1.7v3.3L237.9,1577.7"/>
		
			<path vector-effect="none" fill="#ECECEC" stroke="#000000" stroke-width="3.0709" stroke-linecap="square" stroke-linejoin="bevel" stroke-opacity="0" d="
			M56,995.5l-2.9,1.7l-2.9-1.7v-3.3l2.9-1.7l2.9,1.7L56,995.5"/>
		
			<path vector-effect="none" fill="#ECECEC" stroke="#000000" stroke-width="3.0709" stroke-linecap="square" stroke-linejoin="bevel" stroke-opacity="0" d="
			M64.6,990.5l-2.9,1.7l-2.9-1.7v-3.3l2.9-1.7v-3.3l2.9-1.7l2.9,1.7v3.3l-2.9,1.7V990.5"/>
		
			<path vector-effect="none" fill="#ECECEC" stroke="#000000" stroke-width="3.0709" stroke-linecap="square" stroke-linejoin="bevel" stroke-opacity="0" d="
			M67.5,975.5l-2.9,1.7l-2.9-1.7l-2.9,1.7l-2.9-1.7v-3.3l2.9-1.7v-3.3l2.9-1.7l2.9,1.7v3.3l2.9,1.7V975.5"/>
		
			<path vector-effect="none" fill="#ECECEC" stroke="#000000" stroke-width="3.0709" stroke-linecap="square" stroke-linejoin="bevel" stroke-opacity="0" d="
			M50.2,935.5l-2.9,1.7l-2.9-1.7v-3.3l2.9-1.7v-3.3l2.9-1.7l2.9,1.7v3.3l-2.9,1.7V935.5"/>
		
			<path vector-effect="none" fill="#ECECEC" stroke="#000000" stroke-width="3.0709" stroke-linecap="square" stroke-linejoin="bevel" stroke-opacity="0" d="
			M58.9,920.4l-2.9,1.7l-2.9-1.7v-3.3l-2.9-1.7v-3.3l2.9-1.7l2.9,1.7v3.3l2.9,1.7V920.4"/>
		
			<path vector-effect="none" fill="#ECECEC" stroke="#000000" stroke-width="3.0709" stroke-linecap="square" stroke-linejoin="bevel" stroke-opacity="0" d="
			M70.4,897.1v3.3l-2.9,1.7v3.3l-2.9,1.7v3.3l-2.9,1.7l-2.9-1.7v-3.3l-2.9-1.7v-3.3l2.9-1.7v-3.3l2.9-1.7l2.9,1.7l2.9-1.7
			L70.4,897.1"/>
		
			<path vector-effect="none" fill="#ECECEC" stroke="#000000" stroke-width="3.0709" stroke-linecap="square" stroke-linejoin="bevel" stroke-opacity="0" d="
			M67.5,1045.6l-2.9,1.7l-2.9-1.7v-3.3l-2.9-1.7v-3.3l2.9-1.7l2.9,1.7v3.3l2.9,1.7V1045.6"/>
		
			<path vector-effect="none" fill="#ECECEC" stroke="#000000" stroke-width="3.0709" stroke-linecap="square" stroke-linejoin="bevel" stroke-opacity="0" d="
			M119.5,885.4l-2.9,1.7l-2.9-1.7v-3.3l2.9-1.7l2.9,1.7V885.4"/>
		
			<path vector-effect="none" fill="#ECECEC" stroke="#000000" stroke-width="3.0709" stroke-linecap="square" stroke-linejoin="bevel" stroke-opacity="0" d="
			M125.4,875.4l2.9,1.7v3.3l-2.9,1.7l-2.9-1.7v-3.3l-2.9-1.7l-2.9,1.7l-2.9-1.7V872l2.9-1.7V867l2.9-1.7l2.9,1.7v3.3l2.9,1.7V875.4"
			/>
		
			<path vector-effect="none" fill="#ECECEC" stroke="#000000" stroke-width="3.0709" stroke-linecap="square" stroke-linejoin="bevel" stroke-opacity="0" d="
			M168.7,817v3.3l-2.9,1.7l-2.9-1.7L160,822l-2.9-1.7V817l2.9-1.7l2.9,1.7l2.9-1.7V812l-2.9-1.7V807l2.9-1.7V802l2.9-1.7l2.9,1.7
			v3.3l-2.9,1.7v3.3l2.9,1.7v3.3L168.7,817"/>
		
			<path vector-effect="none" fill="#ECECEC" stroke="#000000" stroke-width="3.0709" stroke-linecap="square" stroke-linejoin="bevel" stroke-opacity="0" d="
			M79.1,922.1v3.3l-2.9,1.7v3.3l-2.9,1.7l-2.9-1.7v-3.3l-2.9-1.7v-3.3l2.9-1.7l2.9,1.7l2.9-1.7L79.1,922.1"/>
		
			<path vector-effect="none" fill="#ECECEC" stroke="#000000" stroke-width="3.0709" stroke-linecap="square" stroke-linejoin="bevel" stroke-opacity="0" d="
			M76.3,1290.6l-2.9,1.7l-2.9-1.7l-2.9,1.7l-2.9-1.7v-3.3l2.9-1.7v-3.3l-2.9-1.7v-3.3l-2.9-1.7v-3.3l2.9-1.7v-3.3l2.9-1.7l2.9,1.7
			v3.3l2.9,1.7v3.3l2.9,1.7v3.3l2.9,1.7v3.3l-2.9,1.7V1290.6"/>
	</g>
</g>
<g id="lab">
	
		<path id="E14000530" vector-effect="none" fill="#FFB900" stroke="#FFFFFF" stroke-width="0.5" stroke-linecap="square" stroke-linejoin="bevel" d="
		M266.8,1520.7l2.9,1.7l2.9-1.7l2.9,1.7v3.3l-2.9,1.7l-2.9-1.7l-2.9,1.7l-2.9-1.7l-2.9,1.7l-2.9-1.7v-3.3l-2.9-1.7v-3.3l-2.9-1.7
		v-3.3l2.9-1.7v-3.3l-2.9-1.7v-3.3l-2.9-1.7v-3.3l2.9-1.7l2.9,1.7v3.3l2.9,1.7v3.3l2.9,1.7v3.3l2.9,1.7v3.3l2.9,1.7V1520.7"/>
	
		<path id="E14000547" vector-effect="none" fill="#FFB900" stroke="#FFFFFF" stroke-width="0.5" stroke-linecap="square" stroke-linejoin="bevel" d="
		M188.9,1495.7l-2.9,1.7l-2.9-1.7l-2.9,1.7l-2.9-1.7v-3.3l-2.9-1.7v-3.3l2.9-1.7v-3.3l2.9-1.7v-3.3l2.9-1.7v-3.3l2.9-1.7l2.9,1.7
		v3.3l-2.9,1.7v3.3l2.9,1.7v3.3l-2.9,1.7v3.3l2.9,1.7V1495.7"/>
	
		<path id="E14000554" vector-effect="none" fill="#FFB900" stroke="#FFFFFF" stroke-width="0.5" stroke-linecap="square" stroke-linejoin="bevel" d="
		M188.9,1052v3.3l2.9,1.7v3.3l-2.9,1.7v3.3l-2.9,1.7l-2.9-1.7l-2.9,1.7v3.3l-2.9,1.7v3.3l-2.9,1.7l-2.9-1.7v-3.3l2.9-1.7v-3.3
		l2.9-1.7v-3.3l-2.9-1.7v-3.3l2.9-1.7v-3.3l2.9-1.7l2.9,1.7l2.9-1.7L188.9,1052"/>
	
		<path id="E14000621" vector-effect="none" fill="#FFB900" stroke="#FFFFFF" stroke-width="0.5" stroke-linecap="square" stroke-linejoin="bevel" d="
		M353.5,1517.3v3.3l2.9,1.7v3.3l-2.9,1.7v3.3l-2.9,1.7l-2.9-1.7l-2.9,1.7l-2.9-1.7v-3.3l-2.9-1.7l-2.9,1.7l-2.9-1.7v-3.3l2.9-1.7
		v-3.3l2.9-1.7l2.9,1.7l2.9-1.7l2.9,1.7l2.9-1.7L353.5,1517.3"/>
	
		<path id="E14000622" vector-effect="none" fill="#7D0069" stroke="#FFFFFF" stroke-width="0.5" stroke-linecap="square" stroke-linejoin="bevel" d="
		M440.3,1430.7l2.9,1.7l2.9-1.7l2.9,1.7v3.3l2.9,1.7v3.3l-2.9,1.7v3.3l-2.9,1.7v3.3l-2.9,1.7l-2.9-1.7v-3.3l-2.9-1.7v-3.3l-2.9-1.7
		v-3.3l-2.9-1.7v-3.3l2.9-1.7v-3.3l2.9-1.7l2.9,1.7V1430.7"/>
	
		<path id="E14000623" vector-effect="none" fill="#FFB900" stroke="#FFFFFF" stroke-width="0.5" stroke-linecap="square" stroke-linejoin="bevel" d="
		M105.1,1517.3v3.3l2.9,1.7l2.9-1.7l2.9,1.7v3.3l-2.9,1.7l-2.9-1.7l-2.9,1.7l-2.9-1.7v-3.3l-2.9-1.7l-2.9,1.7l-2.9-1.7l-2.9,1.7v3.3
		l2.9,1.7v3.3l2.9,1.7v3.3l2.9,1.7l2.9-1.7l2.9,1.7v3.3l-2.9,1.7l-2.9-1.7l-2.9,1.7l-2.9-1.7v-3.3l-2.9-1.7v-3.3l-2.9-1.7v-3.3
		l-2.9-1.7v-3.3l2.9-1.7v-3.3l2.9-1.7l2.9,1.7l2.9-1.7l2.9,1.7l2.9-1.7L105.1,1517.3"/>
	
		<path id="E14000627" vector-effect="none" fill="#FFB900" stroke="#FFFFFF" stroke-width="0.5" stroke-linecap="square" stroke-linejoin="bevel" d="
		M217.7,1272.1v3.3l-2.9,1.7v3.3l-2.9,1.7l-2.9-1.7l-2.9,1.7v3.3l-2.9,1.7l-2.9-1.7l-2.9,1.7l-2.9-1.7v-3.3l-2.9-1.7v-3.3l2.9-1.7
		l2.9,1.7l2.9-1.7v-3.3l2.9-1.7l2.9,1.7l2.9-1.7l2.9,1.7l2.9-1.7L217.7,1272.1"/>
	
		<path id="E14000628" vector-effect="none" fill="#FFB900" stroke="#FFFFFF" stroke-width="0.5" stroke-linecap="square" stroke-linejoin="bevel" d="
		M420,1385.6l2.9,1.7l2.9-1.7l2.9,1.7v3.3l2.9,1.7v3.3l2.9,1.7v3.3l-2.9,1.7v3.3l-2.9,1.7l-2.9-1.7v-3.3l-2.9-1.7v-3.3l-2.9-1.7
		v-3.3l-2.9-1.7v-3.3l-2.9-1.7v-3.3l2.9-1.7l2.9,1.7V1385.6"/>
	
		<path id="E14000630" vector-effect="none" fill="#FFB900" stroke="#FFFFFF" stroke-width="0.5" stroke-linecap="square" stroke-linejoin="bevel" d="
		M197.5,1420.6l2.9,1.7l2.9-1.7l2.9,1.7v3.3l-2.9,1.7v3.3l-2.9,1.7l-2.9-1.7l-2.9,1.7l-2.9-1.7l-2.9,1.7l-2.9-1.7v-3.3l-2.9-1.7
		v-3.3l2.9-1.7l2.9,1.7l2.9-1.7v-3.3l2.9-1.7l2.9,1.7V1420.6"/>
	
		<path id="E14000635" vector-effect="none" fill="#FFB900" stroke="#FFFFFF" stroke-width="0.5" stroke-linecap="square" stroke-linejoin="bevel" d="
		M200.4,1472.3v3.3l-2.9,1.7v3.3l-2.9,1.7v3.3l2.9,1.7v3.3l-2.9,1.7v3.3l-2.9,1.7l-2.9-1.7v-3.3l-2.9-1.7v-3.3l2.9-1.7v-3.3
		l-2.9-1.7v-3.3l2.9-1.7v-3.3l2.9-1.7l2.9,1.7l2.9-1.7L200.4,1472.3"/>
	
		<path id="E14000644" vector-effect="none" fill="#FFB900" stroke="#FFFFFF" stroke-width="0.5" stroke-linecap="square" stroke-linejoin="bevel" d="
		M437.4,1372.2v3.3l2.9,1.7v3.3l2.9,1.7v3.3l-2.9,1.7v3.3l2.9,1.7v3.3l-2.9,1.7l-2.9-1.7v-3.3l-2.9-1.7v-3.3l-2.9-1.7v-3.3l-2.9-1.7
		v-3.3l-2.9-1.7v-3.3l2.9-1.7l2.9,1.7l2.9-1.7L437.4,1372.2"/>
	
		<path id="E14000680" vector-effect="none" fill="#FFB900" stroke="#FFFFFF" stroke-width="0.5" stroke-linecap="square" stroke-linejoin="bevel" d="
		M249.5,1520.7l2.9,1.7l2.9-1.7l2.9,1.7v3.3l2.9,1.7l2.9-1.7l2.9,1.7v3.3l2.9,1.7v3.3l2.9,1.7v3.3l-2.9,1.7l-2.9-1.7v-3.3l-2.9-1.7
		l-2.9,1.7l-2.9-1.7v-3.3l-2.9-1.7l-2.9,1.7l-2.9-1.7v-3.3l-2.9-1.7v-3.3l-2.9-1.7v-3.3l2.9-1.7l2.9,1.7V1520.7"/>
	
		<path id="E14000684" vector-effect="none" fill="#FFB900" stroke="#FFFFFF" stroke-width="0.5" stroke-linecap="square" stroke-linejoin="bevel" d="
		M396.9,1565.7l-2.9,1.7l-2.9-1.7l-2.9,1.7v3.3l-2.9,1.7l-2.9-1.7v-3.3l2.9-1.7v-3.3l2.9-1.7v-3.3l2.9-1.7v-3.3l2.9-1.7v-3.3
		l2.9-1.7l2.9,1.7v3.3l2.9,1.7v3.3l-2.9,1.7v3.3l-2.9,1.7V1565.7"/>
	
		<path id="E14000685" vector-effect="none" fill="#FFB900" stroke="#FFFFFF" stroke-width="0.5" stroke-linecap="square" stroke-linejoin="bevel" d="
		M232.2,1520.7l2.9,1.7l2.9-1.7l2.9,1.7v3.3l2.9,1.7v3.3l-2.9,1.7v3.3l2.9,1.7v3.3l-2.9,1.7v3.3l-2.9,1.7l-2.9-1.7v-3.3l2.9-1.7
		v-3.3l-2.9-1.7v-3.3l-2.9-1.7v-3.3l-2.9-1.7v-3.3l-2.9-1.7v-3.3l2.9-1.7l2.9,1.7V1520.7"/>
	
		<path id="E14000704" vector-effect="none" fill="#FFB900" stroke="#FFFFFF" stroke-width="0.5" stroke-linecap="square" stroke-linejoin="bevel" d="
		M451.8,1517.3v3.3l-2.9,1.7v3.3l-2.9,1.7v3.3l-2.9,1.7v3.3l-2.9,1.7l-2.9-1.7v-3.3l-2.9-1.7v-3.3l2.9-1.7v-3.3l2.9-1.7v-3.3
		l2.9-1.7l2.9,1.7l2.9-1.7v-3.3l2.9-1.7v-3.3l2.9-1.7l2.9,1.7v3.3l-2.9,1.7v3.3L451.8,1517.3"/>
	
		<path id="E14000719" vector-effect="none" fill="#FFB900" stroke="#FFFFFF" stroke-width="0.5" stroke-linecap="square" stroke-linejoin="bevel" d="
		M281.4,1525.8l2.9,1.7l2.9-1.7l2.9,1.7v3.3l2.9,1.7l2.9-1.7l2.9,1.7v3.3l2.9,1.7l2.9-1.7l2.9,1.7v3.3l2.9,1.7v3.3l-2.9,1.7
		l-2.9-1.7l-2.9,1.7l-2.9-1.7l-2.9,1.7l-2.9-1.7v-3.3l2.9-1.7v-3.3l-2.9-1.7l-2.9,1.7l-2.9-1.7v-3.3l-2.9-1.7l-2.9,1.7l-2.9-1.7
		v-3.3l-2.9-1.7v-3.3l2.9-1.7l2.9,1.7V1525.8"/>
	
		<path id="E14000730" vector-effect="none" fill="#FFB900" stroke="#FFFFFF" stroke-width="0.5" stroke-linecap="square" stroke-linejoin="bevel" d="
		M243.8,1147.1v3.3l2.9,1.7l2.9-1.7l2.9,1.7l2.9-1.7l2.9,1.7l2.9-1.7l2.9,1.7v3.3l2.9,1.7v3.3l-2.9,1.7l-2.9-1.7l-2.9,1.7l-2.9-1.7
		l-2.9,1.7l-2.9-1.7v-3.3l-2.9-1.7l-2.9,1.7l-2.9-1.7v-3.3l-2.9-1.7l-2.9,1.7l-2.9-1.7v-3.3l2.9-1.7l2.9,1.7l2.9-1.7L243.8,1147.1"
		/>
	
		<path id="E14000738" vector-effect="none" fill="#FFB900" stroke="#FFFFFF" stroke-width="0.5" stroke-linecap="square" stroke-linejoin="bevel" d="
		M238,1257.1v3.3l-2.9,1.7v3.3l-2.9,1.7v3.3l-2.9,1.7l-2.9-1.7l-2.9,1.7v3.3l-2.9,1.7l-2.9-1.7v-3.3l2.9-1.7v-3.3l2.9-1.7v-3.3
		l-2.9-1.7v-3.3l2.9-1.7l2.9,1.7l2.9-1.7l2.9,1.7l2.9-1.7L238,1257.1"/>
	
		<path id="E14000743" vector-effect="none" fill="#FFB900" stroke="#FFFFFF" stroke-width="0.5" stroke-linecap="square" stroke-linejoin="bevel" d="
		M122.4,1390.6l2.9,1.7l2.9-1.7l2.9,1.7v3.3l2.9,1.7v3.3l2.9,1.7l2.9-1.7l2.9,1.7v3.3l2.9,1.7l2.9-1.7l2.9,1.7v3.3l-2.9,1.7v3.3
		l-2.9,1.7l-2.9-1.7v-3.3l-2.9-1.7v-3.3l-2.9-1.7l-2.9,1.7l-2.9-1.7v-3.3l-2.9-1.7v-3.3l-2.9-1.7l-2.9,1.7l-2.9-1.7v-3.3l-2.9-1.7
		v-3.3l2.9-1.7l2.9,1.7V1390.6"/>
	
		<path id="E14000753" vector-effect="none" fill="#FFB900" stroke="#FFFFFF" stroke-width="0.5" stroke-linecap="square" stroke-linejoin="bevel" d="
		M327.6,1542.4v3.3l2.9,1.7l2.9-1.7l2.9,1.7l2.9-1.7l2.9,1.7v3.3l-2.9,1.7l-2.9-1.7l-2.9,1.7l-2.9-1.7l-2.9,1.7l-2.9-1.7l-2.9,1.7
		l-2.9-1.7l-2.9,1.7l-2.9-1.7l-2.9,1.7l-2.9-1.7v-3.3l2.9-1.7v-3.3l2.9-1.7l2.9,1.7l2.9-1.7l2.9,1.7l2.9-1.7L327.6,1542.4"/>
	
		<path id="E14000770" vector-effect="none" fill="#FFB900" stroke="#FFFFFF" stroke-width="0.5" stroke-linecap="square" stroke-linejoin="bevel" d="
		M313.1,1497.4v3.3l2.9,1.7v3.3l2.9,1.7v3.3l2.9,1.7v3.3l-2.9,1.7l-2.9-1.7l-2.9,1.7l-2.9-1.7l-2.9,1.7l-2.9-1.7v-3.3l-2.9-1.7v-3.3
		l2.9-1.7v-3.3l-2.9-1.7v-3.3l2.9-1.7l2.9,1.7l2.9-1.7L313.1,1497.4"/>
	
		<path id="E14000598" vector-effect="none" fill="#33A22B" stroke="#FFFFFF" stroke-width="0.5" stroke-linecap="square" stroke-linejoin="bevel" d="
		M356.4,1552.4v3.3l2.9,1.7l2.9-1.7l2.9,1.7v3.3l-2.9,1.7v3.3l-2.9,1.7l-2.9-1.7l-2.9,1.7v3.3l-2.9,1.7l-2.9-1.7v-3.3l2.9-1.7v-3.3
		l-2.9-1.7v-3.3l-2.9-1.7v-3.3l2.9-1.7l2.9,1.7l2.9-1.7L356.4,1552.4"/>
	
		<path id="E14000786" vector-effect="none" fill="#FFB900" stroke="#FFFFFF" stroke-width="0.5" stroke-linecap="square" stroke-linejoin="bevel" d="
		M379.6,1552.4v3.3l2.9,1.7l2.9-1.7l2.9,1.7v3.3l-2.9,1.7v3.3l-2.9,1.7v3.3l-2.9,1.7l-2.9-1.7v-3.3l-2.9-1.7v-3.3l-2.9-1.7v-3.3
		l-2.9-1.7l-2.9,1.7l-2.9-1.7v-3.3l2.9-1.7l2.9,1.7l2.9-1.7l2.9,1.7l2.9-1.7L379.6,1552.4"/>
	
		<path id="E14000799" vector-effect="none" fill="#FFB900" stroke="#FFFFFF" stroke-width="0.5" stroke-linecap="square" stroke-linejoin="bevel" d="
		M148.4,1362.2v3.3l-2.9,1.7v3.3l-2.9,1.7v3.3l-2.9,1.7v3.3l-2.9,1.7l-2.9-1.7l-2.9,1.7l-2.9-1.7v-3.3l-2.9-1.7v-3.3l2.9-1.7v-3.3
		l2.9-1.7l2.9,1.7l2.9-1.7v-3.3l2.9-1.7l2.9,1.7l2.9-1.7L148.4,1362.2"/>
	
		<path id="E14000803" vector-effect="none" fill="#FFB900" stroke="#FFFFFF" stroke-width="0.5" stroke-linecap="square" stroke-linejoin="bevel" d="
		M255.3,1447.3v3.3l-2.9,1.7v3.3l-2.9,1.7v3.3l2.9,1.7v3.3l2.9,1.7v3.3l2.9,1.7v3.3l-2.9,1.7l-2.9-1.7v-3.3l-2.9-1.7v-3.3l-2.9-1.7
		l-2.9,1.7l-2.9-1.7v-3.3l2.9-1.7v-3.3l-2.9-1.7v-3.3l2.9-1.7v-3.3l2.9-1.7l2.9,1.7l2.9-1.7L255.3,1447.3"/>
	
		<path id="E14000804" vector-effect="none" fill="#FFB900" stroke="#FFFFFF" stroke-width="0.5" stroke-linecap="square" stroke-linejoin="bevel" d="
		M431.6,1522.3v3.3l-2.9,1.7v3.3l-2.9,1.7l-2.9-1.7l-2.9,1.7l-2.9-1.7v-3.3l-2.9-1.7l-2.9,1.7l-2.9-1.7v-3.3l2.9-1.7l2.9,1.7
		l2.9-1.7v-3.3l2.9-1.7v-3.3l2.9-1.7l2.9,1.7v3.3l2.9,1.7v3.3L431.6,1522.3"/>
	
		<path id="E14000811" vector-effect="none" fill="#FFB900" stroke="#FFFFFF" stroke-width="0.5" stroke-linecap="square" stroke-linejoin="bevel" d="
		M249.5,1530.8l2.9,1.7l2.9-1.7l2.9,1.7v3.3l2.9,1.7l2.9-1.7l2.9,1.7v3.3l2.9,1.7l2.9-1.7l2.9,1.7v3.3l-2.9,1.7l-2.9-1.7l-2.9,1.7
		l-2.9-1.7v-3.3l-2.9-1.7l-2.9,1.7l-2.9-1.7v-3.3l-2.9-1.7l-2.9,1.7l-2.9-1.7l-2.9,1.7l-2.9-1.7v-3.3l2.9-1.7v-3.3l-2.9-1.7v-3.3
		l2.9-1.7l2.9,1.7v3.3l2.9,1.7V1530.8"/>
	
		<path id="E14000815" vector-effect="none" fill="#FFB900" stroke="#FFFFFF" stroke-width="0.5" stroke-linecap="square" stroke-linejoin="bevel" d="
		M194.7,1532.4v3.3l-2.9,1.7v3.3l-2.9,1.7l-2.9-1.7l-2.9,1.7v3.3l-2.9,1.7l-2.9-1.7v-3.3l-2.9-1.7v-3.3l-2.9-1.7v-3.3l2.9-1.7
		l2.9,1.7l2.9-1.7l2.9,1.7l2.9-1.7v-3.3l2.9-1.7l2.9,1.7v3.3L194.7,1532.4"/>
	
		<path id="E14000817" vector-effect="none" fill="#FFB900" stroke="#FFFFFF" stroke-width="0.5" stroke-linecap="square" stroke-linejoin="bevel" d="
		M373.7,1542.4v3.3l2.9,1.7v3.3l-2.9,1.7l-2.9-1.7l-2.9,1.7l-2.9-1.7l-2.9,1.7v3.3l-2.9,1.7l-2.9-1.7v-3.3l-2.9-1.7v-3.3l2.9-1.7
		v-3.3l2.9-1.7l2.9,1.7l2.9-1.7l2.9,1.7l2.9-1.7L373.7,1542.4"/>
	
		<path id="E14000827" vector-effect="none" fill="#FFB900" stroke="#FFFFFF" stroke-width="0.5" stroke-linecap="square" stroke-linejoin="bevel" d="
		M214.8,1530.8l2.9,1.7l2.9-1.7l2.9,1.7v3.3l2.9,1.7v3.3l2.9,1.7v3.3l-2.9,1.7v3.3l-2.9,1.7l-2.9-1.7v-3.3l-2.9-1.7v-3.3l2.9-1.7
		v-3.3l-2.9-1.7l-2.9,1.7l-2.9-1.7v-3.3l-2.9-1.7v-3.3l-2.9-1.7v-3.3l-2.9-1.7v-3.3l2.9-1.7l2.9,1.7v3.3l2.9,1.7v3.3l2.9,1.7V1530.8
		"/>
	
		<path id="E14000830" vector-effect="none" fill="#FFB900" stroke="#FFFFFF" stroke-width="0.5" stroke-linecap="square" stroke-linejoin="bevel" d="
		M226.5,1480.7l-2.9,1.7l-2.9-1.7l-2.9,1.7l-2.9-1.7l-2.9,1.7l-2.9-1.7v-3.3l2.9-1.7v-3.3l-2.9-1.7v-3.3l2.9-1.7v-3.3l2.9-1.7
		l2.9,1.7v3.3l2.9,1.7v3.3l2.9,1.7v3.3l2.9,1.7V1480.7"/>
	
		<path id="E14000835" vector-effect="none" fill="#FFB900" stroke="#FFFFFF" stroke-width="0.5" stroke-linecap="square" stroke-linejoin="bevel" d="
		M113.7,1542.4v3.3l2.9,1.7v3.3l-2.9,1.7l-2.9-1.7l-2.9,1.7v3.3l-2.9,1.7l-2.9-1.7v-3.3l-2.9-1.7v-3.3l-2.9-1.7v-3.3l2.9-1.7
		l2.9,1.7l2.9-1.7v-3.3l2.9-1.7l2.9,1.7v3.3L113.7,1542.4"/>
	
		<path id="E14000837" vector-effect="none" fill="#FFB900" stroke="#FFFFFF" stroke-width="0.5" stroke-linecap="square" stroke-linejoin="bevel" d="
		M79.1,1532.4v3.3l-2.9,1.7l-2.9-1.7l-2.9,1.7l-2.9-1.7l-2.9,1.7v3.3l-2.9,1.7v3.3l-2.9,1.7v3.3l-2.9,1.7l-2.9-1.7v-3.3l-2.9-1.7
		l-2.9,1.7l-2.9-1.7v-3.3l2.9-1.7l2.9,1.7l2.9-1.7l2.9,1.7l2.9-1.7v-3.3l2.9-1.7v-3.3l2.9-1.7l2.9,1.7l2.9-1.7v-3.3l2.9-1.7l2.9,1.7
		v3.3L79.1,1532.4"/>
	
		<path id="E14000838" vector-effect="none" fill="#FFB900" stroke="#FFFFFF" stroke-width="0.5" stroke-linecap="square" stroke-linejoin="bevel" d="
		M102.2,1502.4v3.3l2.9,1.7v3.3l2.9,1.7v3.3l-2.9,1.7l-2.9-1.7l-2.9,1.7l-2.9-1.7l-2.9,1.7l-2.9-1.7v-3.3l-2.9-1.7v-3.3l-2.9-1.7
		v-3.3l2.9-1.7l2.9,1.7l2.9-1.7l2.9,1.7l2.9-1.7L102.2,1502.4"/>
	
		<path id="E14000839" vector-effect="none" fill="#FFB900" stroke="#FFFFFF" stroke-width="0.5" stroke-linecap="square" stroke-linejoin="bevel" d="
		M194.7,1522.3v3.3l-2.9,1.7l-2.9-1.7l-2.9,1.7v3.3l-2.9,1.7l-2.9-1.7l-2.9,1.7l-2.9-1.7l-2.9,1.7l-2.9-1.7v-3.3l2.9-1.7v-3.3
		l2.9-1.7v-3.3l2.9-1.7l2.9,1.7v3.3l2.9,1.7l2.9-1.7v-3.3l2.9-1.7l2.9,1.7v3.3L194.7,1522.3"/>
	
		<path id="E14000847" vector-effect="none" fill="#FFB900" stroke="#FFFFFF" stroke-width="0.5" stroke-linecap="square" stroke-linejoin="bevel" d="
		M131.1,1382.3v3.3l2.9,1.7v3.3l2.9,1.7l2.9-1.7l2.9,1.7v3.3l2.9,1.7v3.3l2.9,1.7v3.3l-2.9,1.7l-2.9-1.7v-3.3l-2.9-1.7l-2.9,1.7
		l-2.9-1.7v-3.3l-2.9-1.7v-3.3l-2.9-1.7l-2.9,1.7l-2.9-1.7v-3.3l-2.9-1.7v-3.3l2.9-1.7l2.9,1.7l2.9-1.7L131.1,1382.3"/>
	
		<path id="E14000848" vector-effect="none" fill="#FFB900" stroke="#FFFFFF" stroke-width="0.5" stroke-linecap="square" stroke-linejoin="bevel" d="
		M417.1,1297.2v3.3l2.9,1.7l2.9-1.7l2.9,1.7l2.9-1.7l2.9,1.7l2.9-1.7l2.9,1.7v3.3l2.9,1.7l2.9-1.7l2.9,1.7v3.3l-2.9,1.7l-2.9-1.7
		l-2.9,1.7l-2.9-1.7v-3.3l-2.9-1.7l-2.9,1.7l-2.9-1.7l-2.9,1.7l-2.9-1.7l-2.9,1.7l-2.9-1.7v-3.3l-2.9-1.7l-2.9,1.7l-2.9-1.7
		l-2.9,1.7l-2.9-1.7v-3.3l2.9-1.7l2.9,1.7l2.9-1.7l2.9,1.7l2.9-1.7L417.1,1297.2"/>
	
		<path id="E14000850" vector-effect="none" fill="#FFB900" stroke="#FFFFFF" stroke-width="0.5" stroke-linecap="square" stroke-linejoin="bevel" d="
		M148.4,1475.7l2.9,1.7l2.9-1.7l2.9,1.7v3.3l-2.9,1.7v3.3l2.9,1.7v3.3l2.9,1.7v3.3l-2.9,1.7l-2.9-1.7v-3.3l-2.9-1.7l-2.9,1.7
		l-2.9-1.7v-3.3l-2.9-1.7v-3.3l2.9-1.7v-3.3l-2.9-1.7v-3.3l2.9-1.7l2.9,1.7V1475.7"/>
	
		<path id="E14000860" vector-effect="none" fill="#FFB900" stroke="#FFFFFF" stroke-width="0.5" stroke-linecap="square" stroke-linejoin="bevel" d="
		M197.5,1447.3v3.3l2.9,1.7v3.3l-2.9,1.7v3.3l-2.9,1.7v3.3l2.9,1.7v3.3l-2.9,1.7l-2.9-1.7l-2.9,1.7l-2.9-1.7v-3.3l2.9-1.7v-3.3
		l-2.9-1.7v-3.3l2.9-1.7v-3.3l-2.9-1.7v-3.3l2.9-1.7l2.9,1.7l2.9-1.7L197.5,1447.3"/>
	
		<path id="E14000874" vector-effect="none" fill="#FFB900" stroke="#FFFFFF" stroke-width="0.5" stroke-linecap="square" stroke-linejoin="bevel" d="
		M229.4,1445.7l-2.9,1.7l-2.9-1.7l-2.9,1.7l-2.9-1.7v-3.3l2.9-1.7v-3.3l-2.9-1.7v-3.3l2.9-1.7v-3.3l2.9-1.7v-3.3l2.9-1.7l2.9,1.7
		v3.3l2.9,1.7v3.3l2.9,1.7v3.3l-2.9,1.7v3.3l-2.9,1.7V1445.7"/>
	
		<path id="E14000881" vector-effect="none" fill="#FFB900" stroke="#FFFFFF" stroke-width="0.5" stroke-linecap="square" stroke-linejoin="bevel" d="
		M194.7,1542.4v3.3l2.9,1.7v3.3l2.9,1.7v3.3l2.9,1.7v3.3l-2.9,1.7l-2.9-1.7l-2.9,1.7l-2.9-1.7v-3.3l-2.9-1.7v-3.3l-2.9-1.7v-3.3
		l-2.9-1.7v-3.3l2.9-1.7l2.9,1.7l2.9-1.7L194.7,1542.4"/>
	
		<path id="E14000762" vector-effect="none" fill="#FFB900" stroke="#FFFFFF" stroke-width="0.5" stroke-linecap="square" stroke-linejoin="bevel" d="
		M237.8,1577.3l-2.9-1.7l-2.9,1.7l-2.9-1.7l-2.9,1.7l-2.9-1.7v-3.3l2.9-1.7v-3.3l2.9-1.7v-3.3l2.9-1.7l2.9,1.7l2.9-1.7l2.9,1.7v3.3
		l2.9,1.7v3.3l-2.9,1.7v3.3L237.8,1577.3"/>
	
		<path id="E14000896" vector-effect="none" fill="#FFB900" stroke="#FFFFFF" stroke-width="0.5" stroke-linecap="square" stroke-linejoin="bevel" d="
		M316,1472.3v3.3l2.9,1.7v3.3l-2.9,1.7v3.3l-2.9,1.7v3.3l-2.9,1.7v3.3l-2.9,1.7l-2.9-1.7v-3.3l2.9-1.7v-3.3l-2.9-1.7v-3.3l-2.9-1.7
		v-3.3l2.9-1.7v-3.3l2.9-1.7l2.9,1.7l2.9-1.7L316,1472.3"/>
	
		<path id="E14000898" vector-effect="none" fill="#7D0069" stroke="#FFFFFF" stroke-width="0.5" stroke-linecap="square" stroke-linejoin="bevel" d="
		M446,1457.3v3.3l2.9,1.7v3.3l-2.9,1.7v3.3l-2.9,1.7v3.3l-2.9,1.7l-2.9-1.7v-3.3l-2.9-1.7v-3.3l-2.9-1.7v-3.3l2.9-1.7v-3.3l2.9-1.7
		l2.9,1.7l2.9-1.7v-3.3l2.9-1.7l2.9,1.7v3.3L446,1457.3"/>
	
		<path id="E14000901" vector-effect="none" fill="#FFB900" stroke="#FFFFFF" stroke-width="0.5" stroke-linecap="square" stroke-linejoin="bevel" d="
		M220.6,1497.4v3.3l-2.9,1.7v3.3l2.9,1.7v3.3l-2.9,1.7v3.3l-2.9,1.7l-2.9-1.7l-2.9,1.7l-2.9-1.7v-3.3l2.9-1.7v-3.3l-2.9-1.7v-3.3
		l-2.9-1.7v-3.3l2.9-1.7l2.9,1.7l2.9-1.7v-3.3l2.9-1.7l2.9,1.7v3.3L220.6,1497.4"/>
	
		<path id="E14000912" vector-effect="none" fill="#FFB900" stroke="#FFFFFF" stroke-width="0.5" stroke-linecap="square" stroke-linejoin="bevel" d="
		M203.3,1497.4v3.3l2.9,1.7v3.3l2.9,1.7v3.3l-2.9,1.7v3.3l-2.9,1.7l-2.9-1.7v-3.3l-2.9-1.7l-2.9,1.7v3.3l-2.9,1.7l-2.9-1.7v-3.3
		l2.9-1.7v-3.3l2.9-1.7v-3.3l-2.9-1.7v-3.3l2.9-1.7l2.9,1.7l2.9-1.7L203.3,1497.4"/>
	
		<path id="E14000928" vector-effect="none" fill="#FFB900" stroke="#FFFFFF" stroke-width="0.5" stroke-linecap="square" stroke-linejoin="bevel" d="
		M194.7,1132.1v3.3l2.9,1.7l2.9-1.7l2.9,1.7l2.9-1.7l2.9,1.7l2.9-1.7l2.9,1.7v3.3l2.9,1.7l2.9-1.7l2.9,1.7v3.3l-2.9,1.7l-2.9-1.7
		l-2.9,1.7l-2.9-1.7v-3.3l-2.9-1.7l-2.9,1.7l-2.9-1.7l-2.9,1.7v3.3l-2.9,1.7l-2.9-1.7v-3.3l-2.9-1.7v-3.3l-2.9-1.7l-2.9,1.7
		l-2.9-1.7v-3.3l2.9-1.7l2.9,1.7l2.9-1.7L194.7,1132.1"/>
	
		<path id="E14000931" vector-effect="none" fill="#FFB900" stroke="#FFFFFF" stroke-width="0.5" stroke-linecap="square" stroke-linejoin="bevel" d="
		M229.4,1382.3v3.3l-2.9,1.7l-2.9-1.7l-2.9,1.7v3.3l-2.9,1.7v3.3l-2.9,1.7l-2.9-1.7v-3.3l-2.9-1.7v-3.3l-2.9-1.7v-3.3l2.9-1.7
		l2.9,1.7l2.9-1.7l2.9,1.7l2.9-1.7l2.9,1.7l2.9-1.7v-3.3l2.9-1.7l2.9,1.7v3.3L229.4,1382.3"/>
	
		<path id="E14000932" vector-effect="none" fill="#FFB900" stroke="#FFFFFF" stroke-width="0.5" stroke-linecap="square" stroke-linejoin="bevel" d="
		M180.2,1507.4v3.3l-2.9,1.7l-2.9-1.7l-2.9,1.7v3.3l2.9,1.7v3.3l-2.9,1.7l-2.9-1.7l-2.9,1.7l-2.9-1.7l-2.9,1.7l-2.9-1.7l-2.9,1.7
		l-2.9-1.7l-2.9,1.7l-2.9-1.7v-3.3l2.9-1.7l2.9,1.7l2.9-1.7l2.9,1.7l2.9-1.7l2.9,1.7l2.9-1.7v-3.3l2.9-1.7v-3.3l2.9-1.7l2.9,1.7
		l2.9-1.7v-3.3l2.9-1.7l2.9,1.7v3.3L180.2,1507.4"/>
	
		<path id="E14000934" vector-effect="none" fill="#FFB900" stroke="#FFFFFF" stroke-width="0.5" stroke-linecap="square" stroke-linejoin="bevel" d="
		M379.6,1332.3v3.3l-2.9,1.7v3.3l2.9,1.7v3.3l2.9,1.7v3.3l-2.9,1.7l-2.9-1.7l-2.9,1.7l-2.9-1.7v-3.3l-2.9-1.7l-2.9,1.7l-2.9-1.7
		v-3.3l2.9-1.7v-3.3l2.9-1.7v-3.3l2.9-1.7l2.9,1.7l2.9-1.7L379.6,1332.3"/>
	
		<path id="E14000937" vector-effect="none" fill="#FFB900" stroke="#FFFFFF" stroke-width="0.5" stroke-linecap="square" stroke-linejoin="bevel" d="
		M394,1327.3v3.3l2.9,1.7v3.3l2.9,1.7v3.3l2.9,1.7v3.3l-2.9,1.7v3.3l-2.9,1.7l-2.9-1.7v-3.3l-2.9-1.7v-3.3l2.9-1.7v-3.3l-2.9-1.7
		l-2.9,1.7l-2.9-1.7v-3.3l-2.9-1.7l-2.9,1.7l-2.9-1.7v-3.3l2.9-1.7l2.9,1.7l2.9-1.7l2.9,1.7l2.9-1.7L394,1327.3"/>
	
		<path id="E14000938" vector-effect="none" fill="#FFB900" stroke="#FFFFFF" stroke-width="0.5" stroke-linecap="square" stroke-linejoin="bevel" d="
		M82,1537.4v3.3l-2.9,1.7l-2.9-1.7l-2.9,1.7l-2.9-1.7l-2.9,1.7v3.3l2.9,1.7v3.3l2.9,1.7v3.3l-2.9,1.7l-2.9-1.7l-2.9,1.7l-2.9-1.7
		l-2.9,1.7l-2.9-1.7v-3.3l2.9-1.7v-3.3l2.9-1.7v-3.3l2.9-1.7v-3.3l2.9-1.7l2.9,1.7l2.9-1.7l2.9,1.7l2.9-1.7L82,1537.4"/>
	
		<path id="E14000953" vector-effect="none" fill="#FFB900" stroke="#FFFFFF" stroke-width="0.5" stroke-linecap="square" stroke-linejoin="bevel" d="
		M278.5,1527.4v3.3l2.9,1.7l2.9-1.7l2.9,1.7v3.3l2.9,1.7l2.9-1.7l2.9,1.7v3.3l-2.9,1.7l-2.9-1.7l-2.9,1.7l-2.9-1.7l-2.9,1.7
		l-2.9-1.7v-3.3l-2.9-1.7l-2.9,1.7l-2.9-1.7v-3.3l-2.9-1.7v-3.3l2.9-1.7l2.9,1.7l2.9-1.7L278.5,1527.4"/>
	
		<path id="E14000958" vector-effect="none" fill="#FFB900" stroke="#FFFFFF" stroke-width="0.5" stroke-linecap="square" stroke-linejoin="bevel" d="
		M131.1,1215.4l-2.9,1.7l-2.9-1.7l-2.9,1.7l-2.9-1.7v-3.3l2.9-1.7v-3.3l2.9-1.7v-3.3l2.9-1.7v-3.3l2.9-1.7v-3.3l2.9-1.7l2.9,1.7v3.3
		l2.9,1.7v3.3l-2.9,1.7v3.3l-2.9,1.7v3.3l-2.9,1.7V1215.4"/>
	
		<path id="E14000960" vector-effect="none" fill="#FFB900" stroke="#FFFFFF" stroke-width="0.5" stroke-linecap="square" stroke-linejoin="bevel" d="
		M327.6,1382.3v3.3l-2.9,1.7l-2.9-1.7l-2.9,1.7v3.3l-2.9,1.7v3.3l-2.9,1.7l-2.9-1.7l-2.9,1.7l-2.9-1.7l-2.9,1.7v3.3l-2.9,1.7
		l-2.9-1.7v-3.3l2.9-1.7v-3.3l2.9-1.7l2.9,1.7l2.9-1.7v-3.3l2.9-1.7l2.9,1.7l2.9-1.7v-3.3l2.9-1.7l2.9,1.7l2.9-1.7L327.6,1382.3"/>
	
		<path id="E14000961" vector-effect="none" fill="#FFB900" stroke="#FFFFFF" stroke-width="0.5" stroke-linecap="square" stroke-linejoin="bevel" d="
		M53.1,1547.4v3.3l2.9,1.7v3.3l2.9,1.7v3.3l-2.9,1.7v3.3l-2.9,1.7l-2.9-1.7l-2.9,1.7l-2.9-1.7v-3.3l2.9-1.7v-3.3l-2.9-1.7l-2.9,1.7
		l-2.9-1.7v-3.3l2.9-1.7v-3.3l2.9-1.7l2.9,1.7l2.9-1.7L53.1,1547.4"/>
	
		<path id="E14000964" vector-effect="none" fill="#FFB900" stroke="#FFFFFF" stroke-width="0.5" stroke-linecap="square" stroke-linejoin="bevel" d="
		M24.1,1577.5v3.3l2.9,1.7v3.3l2.9,1.7l2.9-1.7l2.9,1.7v3.3l-2.9,1.7v3.3l-2.9,1.7l-2.9-1.7v-3.3l-2.9-1.7v-3.3l-2.9-1.7l-2.9,1.7
		l-2.9-1.7v-3.3l-2.9-1.7l-2.9,1.7v3.3l-2.9,1.7l-2.9-1.7v-3.3l2.9-1.7v-3.3l2.9-1.7l2.9,1.7l2.9-1.7l2.9,1.7l2.9-1.7L24.1,1577.5"
		/>
	
		<path id="E14000977" vector-effect="none" fill="#FFB900" stroke="#FFFFFF" stroke-width="0.5" stroke-linecap="square" stroke-linejoin="bevel" d="
		M229.4,1402.3v3.3l-2.9,1.7v3.3l-2.9,1.7v3.3l-2.9,1.7l-2.9-1.7l-2.9,1.7l-2.9-1.7l-2.9,1.7l-2.9-1.7v-3.3l2.9-1.7v-3.3l2.9-1.7
		v-3.3l2.9-1.7l2.9,1.7l2.9-1.7l2.9,1.7l2.9-1.7L229.4,1402.3"/>
	
		<path id="E14000984" vector-effect="none" fill="#FFB900" stroke="#FFFFFF" stroke-width="0.5" stroke-linecap="square" stroke-linejoin="bevel" d="
		M333.4,1512.3v3.3l2.9,1.7v3.3l-2.9,1.7v3.3l2.9,1.7v3.3l-2.9,1.7l-2.9-1.7l-2.9,1.7l-2.9-1.7v-3.3l-2.9-1.7v-3.3l-2.9-1.7v-3.3
		l2.9-1.7v-3.3l2.9-1.7l2.9,1.7l2.9-1.7L333.4,1512.3"/>
	
		<path id="E14000988" vector-effect="none" fill="#FFB900" stroke="#FFFFFF" stroke-width="0.5" stroke-linecap="square" stroke-linejoin="bevel" d="
		M145.5,1517.3v3.3l-2.9,1.7v3.3l-2.9,1.7v3.3l-2.9,1.7l-2.9-1.7v-3.3l-2.9-1.7l-2.9,1.7l-2.9-1.7v-3.3l-2.9-1.7v-3.3l2.9-1.7
		l2.9,1.7l2.9-1.7l2.9,1.7l2.9-1.7l2.9,1.7l2.9-1.7L145.5,1517.3"/>
	
		<path id="E14000990" vector-effect="none" fill="#FFB900" stroke="#FFFFFF" stroke-width="0.5" stroke-linecap="square" stroke-linejoin="bevel" d="
		M191.8,1417.3v3.3l-2.9,1.7l-2.9-1.7l-2.9,1.7v3.3l2.9,1.7v3.3l2.9,1.7l2.9-1.7l2.9,1.7v3.3l-2.9,1.7l-2.9-1.7l-2.9,1.7l-2.9-1.7
		v-3.3l-2.9-1.7v-3.3l-2.9-1.7l-2.9,1.7l-2.9-1.7v-3.3l2.9-1.7v-3.3l2.9-1.7l2.9,1.7l2.9-1.7l2.9,1.7l2.9-1.7L191.8,1417.3"/>
	
		<path id="E14000991" vector-effect="none" fill="#FFB900" stroke="#FFFFFF" stroke-width="0.5" stroke-linecap="square" stroke-linejoin="bevel" d="
		M206.2,1432.3v3.3l-2.9,1.7v3.3l-2.9,1.7v3.3l-2.9,1.7l-2.9-1.7l-2.9,1.7l-2.9-1.7v-3.3l2.9-1.7v-3.3l2.9-1.7v-3.3l2.9-1.7l2.9,1.7
		l2.9-1.7v-3.3l2.9-1.7v-3.3l2.9-1.7v-3.3l2.9-1.7l2.9,1.7v3.3l-2.9,1.7v3.3l-2.9,1.7v3.3L206.2,1432.3"/>
	
		<path id="E14000994" vector-effect="none" fill="#FFB900" stroke="#FFFFFF" stroke-width="0.5" stroke-linecap="square" stroke-linejoin="bevel" d="
		M168.6,1440.7l2.9,1.7l2.9-1.7l2.9,1.7v3.3l2.9,1.7l2.9-1.7l2.9,1.7v3.3l2.9,1.7v3.3l-2.9,1.7v3.3l-2.9,1.7l-2.9-1.7v-3.3l-2.9-1.7
		v-3.3l-2.9-1.7v-3.3l-2.9-1.7l-2.9,1.7l-2.9-1.7v-3.3l-2.9-1.7v-3.3l2.9-1.7l2.9,1.7V1440.7"/>
	
		<path id="E14000996" vector-effect="none" fill="#FFB900" stroke="#FFFFFF" stroke-width="0.5" stroke-linecap="square" stroke-linejoin="bevel" d="
		M122.4,1517.3v3.3l2.9,1.7v3.3l2.9,1.7l2.9-1.7l2.9,1.7v3.3l2.9,1.7l2.9-1.7l2.9,1.7v3.3l-2.9,1.7l-2.9-1.7l-2.9,1.7l-2.9-1.7v-3.3
		l-2.9-1.7l-2.9,1.7l-2.9-1.7v-3.3l-2.9-1.7l-2.9,1.7l-2.9-1.7v-3.3l-2.9-1.7l-2.9,1.7l-2.9-1.7v-3.3l2.9-1.7l2.9,1.7l2.9-1.7
		l2.9,1.7l2.9-1.7L122.4,1517.3"/>
	
		<path id="E14000999" vector-effect="none" fill="#FFB900" stroke="#FFFFFF" stroke-width="0.5" stroke-linecap="square" stroke-linejoin="bevel" d="
		M119.5,1552.4v3.3l2.9,1.7v3.3l2.9,1.7v3.3l-2.9,1.7v3.3l-2.9,1.7l-2.9-1.7v-3.3l-2.9-1.7l-2.9,1.7l-2.9-1.7v-3.3l2.9-1.7v-3.3
		l-2.9-1.7v-3.3l2.9-1.7l2.9,1.7l2.9-1.7L119.5,1552.4"/>
	
		<path id="E14001000" vector-effect="none" fill="#FFB900" stroke="#FFFFFF" stroke-width="0.5" stroke-linecap="square" stroke-linejoin="bevel" d="
		M84.9,1522.3v3.3l2.9,1.7v3.3l2.9,1.7v3.3l2.9,1.7v3.3l-2.9,1.7l-2.9-1.7l-2.9,1.7l-2.9-1.7v-3.3l-2.9-1.7v-3.3l-2.9-1.7v-3.3
		l-2.9-1.7v-3.3l2.9-1.7l2.9,1.7l2.9-1.7v-3.3l2.9-1.7l2.9,1.7v3.3L84.9,1522.3"/>
	
		<path id="E14001001" vector-effect="none" fill="#FFB900" stroke="#FFFFFF" stroke-width="0.5" stroke-linecap="square" stroke-linejoin="bevel" d="
		M102.2,1555.7l2.9,1.7l2.9-1.7l2.9,1.7v3.3l-2.9,1.7v3.3l2.9,1.7l2.9-1.7l2.9,1.7v3.3l-2.9,1.7l-2.9-1.7l-2.9,1.7l-2.9-1.7
		l-2.9,1.7l-2.9-1.7v-3.3l2.9-1.7v-3.3l-2.9-1.7v-3.3l-2.9-1.7v-3.3l-2.9-1.7v-3.3l-2.9-1.7v-3.3l2.9-1.7l2.9,1.7v3.3l2.9,1.7v3.3
		l2.9,1.7V1555.7"/>
	
		<path id="E14001005" vector-effect="none" fill="#FFB900" stroke="#FFFFFF" stroke-width="0.5" stroke-linecap="square" stroke-linejoin="bevel" d="
		M304.4,1482.4v3.3l2.9,1.7v3.3l-2.9,1.7v3.3l-2.9,1.7v3.3l2.9,1.7v3.3l-2.9,1.7l-2.9-1.7v-3.3l-2.9-1.7v-3.3l-2.9-1.7v-3.3
		l-2.9-1.7v-3.3l-2.9-1.7v-3.3l2.9-1.7l2.9,1.7l2.9-1.7l2.9,1.7l2.9-1.7L304.4,1482.4"/>
	
		<path id="E14001026" vector-effect="none" fill="#FFB900" stroke="#FFFFFF" stroke-width="0.5" stroke-linecap="square" stroke-linejoin="bevel" d="
		M154.2,1505.7l2.9,1.7l2.9-1.7l2.9,1.7l2.9-1.7l2.9,1.7v3.3l-2.9,1.7v3.3l-2.9,1.7l-2.9-1.7l-2.9,1.7l-2.9-1.7l-2.9,1.7l-2.9-1.7
		v-3.3l-2.9-1.7l-2.9,1.7l-2.9-1.7v-3.3l2.9-1.7l2.9,1.7l2.9-1.7v-3.3l2.9-1.7l2.9,1.7V1505.7"/>
	
		<path id="E14001031" vector-effect="none" fill="#FFB900" stroke="#FFFFFF" stroke-width="0.5" stroke-linecap="square" stroke-linejoin="bevel" d="
		M171.5,1532.4v3.3l-2.9,1.7v3.3l-2.9,1.7l-2.9-1.7l-2.9,1.7l-2.9-1.7v-3.3l-2.9-1.7l-2.9,1.7l-2.9-1.7l-2.9,1.7l-2.9-1.7v-3.3
		l2.9-1.7l2.9,1.7l2.9-1.7l2.9,1.7l2.9-1.7l2.9,1.7l2.9-1.7v-3.3l2.9-1.7v-3.3l2.9-1.7l2.9,1.7v3.3l-2.9,1.7v3.3L171.5,1532.4"/>
	
		<path id="E14001035" vector-effect="none" fill="#FFB900" stroke="#FFFFFF" stroke-width="0.5" stroke-linecap="square" stroke-linejoin="bevel" d="
		M154.2,1405.6l2.9,1.7l2.9-1.7l2.9,1.7v3.3l2.9,1.7l2.9-1.7l2.9,1.7l2.9-1.7l2.9,1.7v3.3l-2.9,1.7v3.3l-2.9,1.7l-2.9-1.7v-3.3
		l-2.9-1.7l-2.9,1.7l-2.9-1.7v-3.3l-2.9-1.7l-2.9,1.7l-2.9-1.7v-3.3l-2.9-1.7v-3.3l-2.9-1.7v-3.3l2.9-1.7l2.9,1.7v3.3l2.9,1.7
		V1405.6"/>
	
		<path id="E14001037" vector-effect="none" fill="#FFB900" stroke="#FFFFFF" stroke-width="0.5" stroke-linecap="square" stroke-linejoin="bevel" d="
		M168.6,1117v3.3l2.9,1.7l2.9-1.7l2.9,1.7l2.9-1.7l2.9,1.7v3.3l-2.9,1.7l-2.9-1.7l-2.9,1.7l-2.9-1.7l-2.9,1.7l-2.9-1.7l-2.9,1.7v3.3
		l-2.9,1.7v3.3l-2.9,1.7l-2.9-1.7v-3.3l2.9-1.7v-3.3l-2.9-1.7v-3.3l2.9-1.7v-3.3l2.9-1.7l2.9,1.7l2.9-1.7L168.6,1117"/>
	
		<path id="E14001038" vector-effect="none" fill="#FFB900" stroke="#FFFFFF" stroke-width="0.5" stroke-linecap="square" stroke-linejoin="bevel" d="
		M145.5,1490.7l2.9,1.7l2.9-1.7l2.9,1.7v3.3l2.9,1.7v3.3l-2.9,1.7l-2.9-1.7l-2.9,1.7v3.3l-2.9,1.7l-2.9-1.7v-3.3l-2.9-1.7v-3.3
		l-2.9-1.7v-3.3l2.9-1.7v-3.3l2.9-1.7l2.9,1.7V1490.7"/>
	
		<path id="E14001041" vector-effect="none" fill="#FFB900" stroke="#FFFFFF" stroke-width="0.5" stroke-linecap="square" stroke-linejoin="bevel" d="
		M232.2,1510.7l2.9,1.7l2.9-1.7l2.9,1.7v3.3l2.9,1.7v3.3l-2.9,1.7l-2.9-1.7l-2.9,1.7l-2.9-1.7v-3.3l-2.9-1.7v-3.3l-2.9-1.7l-2.9,1.7
		l-2.9-1.7v-3.3l-2.9-1.7v-3.3l2.9-1.7v-3.3l2.9-1.7l2.9,1.7v3.3l2.9,1.7v3.3l2.9,1.7V1510.7"/>
	
		<path id="E14001047" vector-effect="none" fill="#FFB900" stroke="#FFFFFF" stroke-width="0.5" stroke-linecap="square" stroke-linejoin="bevel" d="
		M292.9,1512.3v3.3l2.9,1.7v3.3l-2.9,1.7v3.3l-2.9,1.7l-2.9-1.7l-2.9,1.7l-2.9-1.7v-3.3l-2.9-1.7l-2.9,1.7l-2.9-1.7v-3.3l-2.9-1.7
		v-3.3l2.9-1.7l2.9,1.7l2.9-1.7l2.9,1.7l2.9-1.7l2.9,1.7l2.9-1.7L292.9,1512.3"/>
	
		<path id="E14001060" vector-effect="none" fill="#FFB900" stroke="#FFFFFF" stroke-width="0.5" stroke-linecap="square" stroke-linejoin="bevel" d="
		M165.7,1522.3v3.3l-2.9,1.7v3.3l-2.9,1.7l-2.9-1.7l-2.9,1.7l-2.9-1.7l-2.9,1.7l-2.9-1.7l-2.9,1.7l-2.9-1.7v-3.3l2.9-1.7v-3.3
		l2.9-1.7l2.9,1.7l2.9-1.7l2.9,1.7l2.9-1.7l2.9,1.7l2.9-1.7L165.7,1522.3"/>
	
		<path id="E14001062" vector-effect="none" fill="#FFB900" stroke="#FFFFFF" stroke-width="0.5" stroke-linecap="square" stroke-linejoin="bevel" d="
		M290,1180.5l2.9,1.7l2.9-1.7l2.9,1.7l2.9-1.7l2.9,1.7v3.3l2.9,1.7v3.3l-2.9,1.7l-2.9-1.7l-2.9,1.7l-2.9-1.7v-3.3l-2.9-1.7l-2.9,1.7
		l-2.9-1.7v-3.3l-2.9-1.7v-3.3l-2.9-1.7v-3.3l-2.9-1.7v-3.3l2.9-1.7l2.9,1.7v3.3l2.9,1.7v3.3l2.9,1.7V1180.5"/>
	
		<path id="S14000005" vector-effect="none" fill="#FCDD03" stroke="#FFFFFF" stroke-width="0.5" stroke-linecap="square" stroke-linejoin="bevel" d="
		M56,995.3l-2.9,1.7l-2.9-1.7V992l2.9-1.7L56,992V995.3 M64.6,990.3l-2.9,1.7l-2.9-1.7V987l2.9-1.7V982l2.9-1.7l2.9,1.7v3.3
		l-2.9,1.7V990.3 M67.5,975.3l-2.9,1.7l-2.9-1.7l-2.9,1.7l-2.9-1.7v-3.3l2.9-1.7v-3.3l2.9-1.7l2.9,1.7v3.3l2.9,1.7V975.3
		 M76.2,980.3l-2.9,1.7l-2.9-1.7V977l2.9-1.7v-3.3l2.9-1.7v-3.3l2.9-1.7v-3.3l2.9-1.7l2.9,1.7v3.3l-2.9,1.7v3.3l-2.9,1.7v3.3
		l-2.9,1.7V980.3"/>
	
		<path id="S14000008" vector-effect="none" fill="#FCDD03" stroke="#FFFFFF" stroke-width="0.5" stroke-linecap="square" stroke-linejoin="bevel" d="
		M177.4,1065.3l-2.9,1.7l-2.9-1.7l-2.9,1.7v3.3l-2.9,1.7v3.3l-2.9,1.7l-2.9-1.7l-2.9,1.7l-2.9-1.7v-3.3l2.9-1.7v-3.3l2.9-1.7
		l2.9,1.7l2.9-1.7v-3.3l2.9-1.7v-3.3l2.9-1.7v-3.3l2.9-1.7v-3.3l2.9-1.7l2.9,1.7v3.3l-2.9,1.7v3.3l-2.9,1.7v3.3l2.9,1.7V1065.3"/>
	
		<path id="S14000009" vector-effect="none" fill="#FCDD03" stroke="#FFFFFF" stroke-width="0.5" stroke-linecap="square" stroke-linejoin="bevel" d="
		M108,901.9v3.3l-2.9,1.7v3.3l-2.9,1.7v3.3l-2.9,1.7l-2.9-1.7v-3.3l-2.9-1.7v-3.3l-2.9-1.7v-3.3l-2.9-1.7v-3.3l2.9-1.7l2.9,1.7v3.3
		l2.9,1.7l2.9-1.7v-3.3l2.9-1.7v-3.3l2.9-1.7l2.9,1.7v3.3l2.9,1.7v3.3L108,901.9"/>
	
		<path id="S14000013" vector-effect="none" fill="#FCDD03" stroke="#FFFFFF" stroke-width="0.5" stroke-linecap="square" stroke-linejoin="bevel" d="
		M136.9,1082v3.3l-2.9,1.7l-2.9-1.7l-2.9,1.7l-2.9-1.7l-2.9,1.7v3.3l-2.9,1.7l-2.9-1.7l-2.9,1.7l-2.9-1.7l-2.9,1.7l-2.9-1.7
		l-2.9,1.7v3.3l-2.9,1.7l-2.9-1.7v-3.3l2.9-1.7v-3.3l2.9-1.7l2.9,1.7l2.9-1.7l2.9,1.7l2.9-1.7v-3.3l2.9-1.7l2.9,1.7l2.9-1.7l2.9,1.7
		l2.9-1.7l2.9,1.7l2.9-1.7L136.9,1082"/>
	
		<path id="S14000014" vector-effect="none" fill="#FCDD03" stroke="#FFFFFF" stroke-width="0.5" stroke-linecap="square" stroke-linejoin="bevel" d="
		M154.2,1075.4l2.9,1.7l2.9-1.7l2.9,1.7v3.3l-2.9,1.7l-2.9-1.7l-2.9,1.7l-2.9-1.7l-2.9,1.7l-2.9-1.7l-2.9,1.7l-2.9-1.7v-3.3l2.9-1.7
		v-3.3l2.9-1.7v-3.3l2.9-1.7v-3.3l2.9-1.7l2.9,1.7v3.3l2.9,1.7v3.3l-2.9,1.7V1075.4"/>
	
		<path id="S14000018" vector-effect="none" fill="#FCDD03" stroke="#FFFFFF" stroke-width="0.5" stroke-linecap="square" stroke-linejoin="bevel" d="
		M108,975.3l2.9,1.7v3.3l2.9,1.7v3.3l2.9,1.7v3.3l2.9,1.7v3.3l-2.9,1.7l-2.9-1.7V992l-2.9-1.7V987l-2.9-1.7V982l-2.9-1.7V977
		l-2.9-1.7l-2.9,1.7v3.3l-2.9,1.7l-2.9-1.7V977l2.9-1.7v-3.3l2.9-1.7v-3.3l2.9-1.7l2.9,1.7v3.3l2.9,1.7V975.3"/>
	
		<path id="S14000026" vector-effect="none" fill="#FCDD03" stroke="#FFFFFF" stroke-width="0.5" stroke-linecap="square" stroke-linejoin="bevel" d="
		M148.4,1001.9v3.3l-2.9,1.7v3.3l2.9,1.7v3.3l-2.9,1.7v3.3l2.9,1.7v3.3l-2.9,1.7l-2.9-1.7v-3.3l-2.9-1.7v-3.3l-2.9-1.7v-3.3
		l-2.9-1.7v-3.3l-2.9-1.7v-3.3l2.9-1.7l2.9,1.7l2.9-1.7l2.9,1.7l2.9-1.7L148.4,1001.9"/>
	
		<path id="S14000037" vector-effect="none" fill="#FCDD03" stroke="#FFFFFF" stroke-width="0.5" stroke-linecap="square" stroke-linejoin="bevel" d="
		M180.2,916.8v3.3l-2.9,1.7l-2.9-1.7l-2.9,1.7l-2.9-1.7l-2.9,1.7l-2.9-1.7l-2.9,1.7l-2.9-1.7l-2.9,1.7v3.3l-2.9,1.7v3.3l-2.9,1.7
		l-2.9-1.7l-2.9,1.7l-2.9-1.7v-3.3l2.9-1.7v-3.3l2.9-1.7l2.9,1.7l2.9-1.7v-3.3l2.9-1.7l2.9,1.7l2.9-1.7l2.9,1.7l2.9-1.7l2.9,1.7
		l2.9-1.7l2.9,1.7l2.9-1.7L180.2,916.8"/>
	
		<path id="S14000039" vector-effect="none" fill="#FCDD03" stroke="#FFFFFF" stroke-width="0.5" stroke-linecap="square" stroke-linejoin="bevel" d="
		M113.7,921.8v3.3l2.9,1.7l2.9-1.7l2.9,1.7v3.3l-2.9,1.7l-2.9-1.7l-2.9,1.7v3.3l-2.9,1.7l-2.9-1.7l-2.9,1.7v3.3l-2.9,1.7l-2.9-1.7
		v-3.3l2.9-1.7v-3.3l-2.9-1.7v-3.3l2.9-1.7v-3.3l2.9-1.7l2.9,1.7l2.9-1.7L113.7,921.8"/>
	
		<path id="S14000049" vector-effect="none" fill="#FCDD03" stroke="#FFFFFF" stroke-width="0.5" stroke-linecap="square" stroke-linejoin="bevel" d="
		M151.3,966.9v3.3l2.9,1.7l2.9-1.7l2.9,1.7v3.3l2.9,1.7l2.9-1.7l2.9,1.7v3.3l2.9,1.7l2.9-1.7l2.9,1.7v3.3l-2.9,1.7l-2.9-1.7
		l-2.9,1.7l-2.9-1.7V982l-2.9-1.7L160,982l-2.9-1.7V977l-2.9-1.7l-2.9,1.7l-2.9-1.7v-3.3l-2.9-1.7l-2.9,1.7l-2.9-1.7v-3.3l2.9-1.7
		l2.9,1.7l2.9-1.7L151.3,966.9"/>
	
		<path id="S14000051" vector-effect="none" fill="#FCDD03" stroke="#FFFFFF" stroke-width="0.5" stroke-linecap="square" stroke-linejoin="bevel" d="
		M119.5,885.2l-2.9,1.7l-2.9-1.7v-3.3l2.9-1.7l2.9,1.7V885.2 M125.4,875.2l2.9,1.7v3.3l-2.9,1.7l-2.9-1.7v-3.3l-2.9-1.7l-2.9,1.7
		l-2.9-1.7v-3.3l2.9-1.7v-3.3l2.9-1.7l2.9,1.7v3.3l2.9,1.7V875.2 M168.6,816.7v3.3l-2.9,1.7l-2.9-1.7l-2.9,1.7L157,820v-3.3l2.9-1.7
		l2.9,1.7l2.9-1.7v-3.3l-2.9-1.7v-3.3l2.9-1.7v-3.3l2.9-1.7l2.9,1.7v3.3l-2.9,1.7v3.3l2.9,1.7v3.3L168.6,816.7"/>
	
		<path id="S14000055" vector-effect="none" fill="#FCDD03" stroke="#FFFFFF" stroke-width="0.5" stroke-linecap="square" stroke-linejoin="bevel" d="
		M79.1,921.8v3.3l-2.9,1.7v3.3l-2.9,1.7l-2.9-1.7v-3.3l-2.9-1.7v-3.3l2.9-1.7l2.9,1.7l2.9-1.7L79.1,921.8 M105.1,916.8v3.3l-2.9,1.7
		v3.3l-2.9,1.7v3.3l2.9,1.7v3.3l-2.9,1.7v3.3l-2.9,1.7l-2.9-1.7v-3.3l2.9-1.7v-3.3l-2.9-1.7v-3.3l-2.9-1.7v-3.3l2.9-1.7v-3.3
		l2.9-1.7l2.9,1.7l2.9-1.7L105.1,916.8"/>
	
		<path id="S14000058" vector-effect="none" fill="#FCDD03" stroke="#FFFFFF" stroke-width="0.5" stroke-linecap="square" stroke-linejoin="bevel" d="
		M160,931.9v3.3l-2.9,1.7l-2.9-1.7l-2.9,1.7v3.3l-2.9,1.7l-2.9-1.7v-3.3l-2.9-1.7l-2.9,1.7l-2.9-1.7l-2.9,1.7l-2.9-1.7l-2.9,1.7
		l-2.9-1.7l-2.9,1.7l-2.9-1.7l-2.9,1.7l-2.9-1.7v-3.3l2.9-1.7l2.9,1.7l2.9-1.7l2.9,1.7l2.9-1.7l2.9,1.7l2.9-1.7l2.9,1.7l2.9-1.7
		l2.9,1.7l2.9-1.7l2.9,1.7l2.9-1.7l2.9,1.7l2.9-1.7L160,931.9"/>
	
		<path id="W07000067" vector-effect="none" fill="#868686" stroke="#FFFFFF" stroke-width="0.5" stroke-linecap="square" stroke-linejoin="bevel" d="
		M110.8,1377.3v3.3l-2.9,1.7v3.3l2.9,1.7v3.3l-2.9,1.7v3.3l-2.9,1.7l-2.9-1.7l-2.8,1.7l-2.9-1.7l-2.9,1.7l-2.9-1.7v-3.3l2.9-1.7
		v-3.3l2.9-1.7v-3.3l2.9-1.7v-3.3l2.9-1.7l2.9,1.7l2.9-1.7L110.8,1377.3"/>
	
		<path id="E14000884" vector-effect="none" fill="#FFB900" stroke="#FFFFFF" stroke-width="0.5" stroke-linecap="square" stroke-linejoin="bevel" d="
		M275.6,1562.4v3.3l2.9,1.7v3.3l2.9,1.7v3.3l-2.9,1.7l-2.9-1.7l-2.9,1.7l-2.9-1.7l-2.9,1.7l-2.9-1.7v-3.3l-2.9-1.7v-3.3l2.9-1.7
		v-3.3l2.9-1.7l2.9,1.7l2.9-1.7L275.6,1562.4"/>
	<path id="E14000582" vector-effect="none" fill="#7D0069" stroke="#FFFFFF" stroke-linecap="square" stroke-linejoin="bevel" d="
		M375.3,1282.5v3.3l-2.9,1.7v3.3l-2.9,1.7v3.3l-2.9,1.7l-2.9-1.7v-3.3l-2.9-1.7v-3.3l-2.9-1.7v-3.3l2.9-1.7l2.9,1.7l2.9-1.7v-3.3
		l2.9-1.7v-3.3l2.9-1.7l2.9,1.7v3.3l2.9,1.7v3.3L375.3,1282.5"/>
	
		<path id="E14000933" vector-effect="none" fill="#7D0069" stroke="#FFFFFF" stroke-width="0.5" stroke-linecap="square" stroke-linejoin="bevel" d="
		M443.1,1455.6l-2.9,1.7l-2.9-1.7l-2.9,1.7v3.3l-2.9,1.7l-2.9-1.7v-3.3l2.9-1.7v-3.3l2.9-1.7v-3.3l-2.9-1.7v-3.3l-2.9-1.7v-3.3
		l-2.9-1.7v-3.3l2.9-1.7v-3.3l2.9-1.7v-3.3l2.9-1.7l2.9,1.7v3.3l-2.9,1.7v3.3l-2.9,1.7v3.3l2.9,1.7v3.3l2.9,1.7v3.3l2.9,1.7v3.3
		l2.9,1.7V1455.6"/>
</g>
<g id="con" display="none">
	
		<path id="E14000553" vector-effect="none" display="inline" fill="#FFB900" stroke="#FFFFFF" stroke-width="0.5" stroke-linecap="square" stroke-linejoin="bevel" d="
		M368,1452.3v3.3l2.9,1.7l2.9-1.7l2.9,1.7v3.3l2.9,1.7v3.3l-2.9,1.7l-2.9-1.7l-2.9,1.7l-2.9-1.7l-2.9,1.7l-2.9-1.7v-3.3l-2.9-1.7
		v-3.3l-2.9-1.7v-3.3l2.9-1.7l2.9,1.7l2.9-1.7L368,1452.3"/>
	
		<path id="E14000563" vector-effect="none" display="inline" fill="#FFB900" stroke="#FFFFFF" stroke-width="0.5" stroke-linecap="square" stroke-linejoin="bevel" d="
		M246.7,1352.2v3.3l-2.9,1.7l-2.9-1.7l-2.9,1.7v3.3l-2.9,1.7v3.3l-2.9,1.7l-2.9-1.7l-2.9,1.7l-2.9-1.7v-3.3l2.9-1.7v-3.3l-2.9-1.7
		v-3.3l2.9-1.7l2.9,1.7l2.9-1.7l2.9,1.7l2.9-1.7l2.9,1.7l2.9-1.7L246.7,1352.2"/>
	
		<path id="E14000568" vector-effect="none" display="inline" fill="#FFB900" stroke="#FFFFFF" stroke-width="0.5" stroke-linecap="square" stroke-linejoin="bevel" d="
		M243.8,1367.2v3.3l-2.9,1.7l-2.9-1.7l-2.9,1.7v3.3l-2.9,1.7l-2.9-1.7l-2.9,1.7l-2.9-1.7v-3.3l-2.9-1.7v-3.3l2.9-1.7l2.9,1.7
		l2.9-1.7l2.9,1.7l2.9-1.7v-3.3l2.9-1.7v-3.3l2.9-1.7l2.9,1.7v3.3l2.9,1.7v3.3L243.8,1367.2"/>
	
		<path id="E14000574" vector-effect="none" display="inline" fill="#FFB900" stroke="#FFFFFF" stroke-width="0.5" stroke-linecap="square" stroke-linejoin="bevel" d="
		M188.9,1092v3.3l2.9,1.7l2.9-1.7l2.9,1.7l2.9-1.7l2.9,1.7v3.3l2.9,1.7l2.9-1.7l2.9,1.7v3.3l-2.9,1.7l-2.9-1.7l-2.9,1.7l-2.9-1.7
		l-2.9,1.7l-2.9-1.7v-3.3l-2.9-1.7l-2.9,1.7l-2.9-1.7l-2.9,1.7l-2.9-1.7v-3.3l-2.9-1.7v-3.3l2.9-1.7l2.9,1.7l2.9-1.7L188.9,1092"/>
	
		<path id="E14000587" vector-effect="none" display="inline" fill="#FFB900" stroke="#FFFFFF" stroke-width="0.5" stroke-linecap="square" stroke-linejoin="bevel" d="
		M238,1180.5l-2.9,1.7l-2.9-1.7v-3.3l-2.9-1.7v-3.3l-2.9-1.7v-3.3l-2.9-1.7v-3.3l2.9-1.7v-3.3l2.9-1.7l2.9,1.7v3.3l2.9,1.7v3.3
		l2.9,1.7v3.3l2.9,1.7v3.3l-2.9,1.7V1180.5"/>
	
		<path id="E14000591" vector-effect="none" display="inline" fill="#FFB900" stroke="#FFFFFF" stroke-width="0.5" stroke-linecap="square" stroke-linejoin="bevel" d="
		M327.6,1422.3v3.3l-2.9,1.7v3.3l2.9,1.7v3.3l-2.9,1.7v3.3l-2.9,1.7l-2.9-1.7l-2.9,1.7l-2.9-1.7l-2.9,1.7l-2.9-1.7v-3.3l2.9-1.7
		v-3.3l2.9-1.7v-3.3l2.9-1.7v-3.3l2.9-1.7l2.9,1.7l2.9-1.7L327.6,1422.3"/>
	
		<path id="E14000602" vector-effect="none" display="inline" fill="#FFB900" stroke="#FFFFFF" stroke-width="0.5" stroke-linecap="square" stroke-linejoin="bevel" d="
		M162.8,1467.3v3.3l2.9,1.7v3.3l2.9,1.7v3.3l-2.9,1.7l-2.9-1.7l-2.9,1.7l-2.9-1.7v-3.3l-2.9-1.7l-2.9,1.7l-2.9-1.7v-3.3l2.9-1.7
		v-3.3l2.9-1.7l2.9,1.7l2.9-1.7v-3.3l2.9-1.7l2.9,1.7v3.3L162.8,1467.3"/>
	
		<path id="E14000617" vector-effect="none" display="inline" fill="#FFB900" stroke="#FFFFFF" stroke-width="0.5" stroke-linecap="square" stroke-linejoin="bevel" d="
		M385.4,1335.6l2.9,1.7l2.9-1.7l2.9,1.7v3.3l-2.9,1.7v3.3l2.9,1.7v3.3l-2.9,1.7l-2.9-1.7l-2.9,1.7l-2.9-1.7v-3.3l-2.9-1.7v-3.3
		l-2.9-1.7v-3.3l2.9-1.7v-3.3l2.9-1.7l2.9,1.7V1335.6"/>
	
		<path id="E14000632" vector-effect="none" display="inline" fill="#FFB900" stroke="#FFFFFF" stroke-width="0.5" stroke-linecap="square" stroke-linejoin="bevel" d="
		M284.3,1267.1v3.3l-2.9,1.7v3.3l-2.9,1.7l-2.9-1.7l-2.9,1.7v3.3l-2.9,1.7l-2.9-1.7l-2.9,1.7l-2.9-1.7l-2.9,1.7l-2.9-1.7l-2.9,1.7
		l-2.9-1.7l-2.9,1.7l-2.9-1.7v-3.3l2.9-1.7l2.9,1.7l2.9-1.7l2.9,1.7l2.9-1.7l2.9,1.7l2.9-1.7v-3.3l2.9-1.7l2.9,1.7l2.9-1.7v-3.3
		l2.9-1.7l2.9,1.7l2.9-1.7L284.3,1267.1"/>
	
		<path id="E14000641" vector-effect="none" display="inline" fill="#FFB900" stroke="#FFFFFF" stroke-width="0.5" stroke-linecap="square" stroke-linejoin="bevel" d="
		M206.2,1112v3.3l2.9,1.7l2.9-1.7l2.9,1.7l2.9-1.7l2.9,1.7l2.9-1.7l2.9,1.7l2.9-1.7l2.9,1.7l2.9-1.7l2.9,1.7v3.3l-2.9,1.7l-2.9-1.7
		l-2.9,1.7l-2.9-1.7l-2.9,1.7l-2.9-1.7l-2.9,1.7l-2.9-1.7l-2.9,1.7l-2.9-1.7l-2.9,1.7l-2.9-1.7l-2.9,1.7l-2.9-1.7v-3.3l-2.9-1.7
		v-3.3l2.9-1.7l2.9,1.7l2.9-1.7L206.2,1112"/>
	
		<path id="E14000752" vector-effect="none" display="inline" fill="#FFB900" stroke="#FFFFFF" stroke-width="0.5" stroke-linecap="square" stroke-linejoin="bevel" d="
		M356.4,1402.3v3.3l2.9,1.7v3.3l2.9,1.7v3.3l-2.9,1.7l-2.9-1.7l-2.9,1.7l-2.9-1.7l-2.9,1.7l-2.9-1.7l-2.9,1.7l-2.9-1.7v-3.3l2.9-1.7
		v-3.3l2.9-1.7v-3.3l2.9-1.7l2.9,1.7l2.9-1.7L356.4,1402.3"/>
	
		<path id="E14000764" vector-effect="none" display="inline" fill="#FFB900" stroke="#FFFFFF" stroke-width="0.5" stroke-linecap="square" stroke-linejoin="bevel" d="
		M368,1432.3v3.3l2.9,1.7v3.3l-2.9,1.7v3.3l-2.9,1.7l-2.9-1.7l-2.9,1.7l-2.9-1.7v-3.3l-2.9-1.7v-3.3l-2.9-1.7v-3.3l2.9-1.7l2.9,1.7
		l2.9-1.7l2.9,1.7l2.9-1.7L368,1432.3"/>
	
		<path id="E14000772" vector-effect="none" display="inline" fill="#FFB900" stroke="#FFFFFF" stroke-width="0.5" stroke-linecap="square" stroke-linejoin="bevel" d="
		M336.2,1197.1v3.3l2.9,1.7l2.9-1.7l2.9,1.7v3.3l-2.9,1.7v3.3l-2.9,1.7l-2.9-1.7l-2.9,1.7l-2.9-1.7l-2.9,1.7l-2.9-1.7v-3.3l2.9-1.7
		v-3.3l-2.9-1.7v-3.3l2.9-1.7l2.9,1.7l2.9-1.7L336.2,1197.1"/>
	
		<path id="E14000780" vector-effect="none" display="inline" fill="#FFB900" stroke="#FFFFFF" stroke-width="0.5" stroke-linecap="square" stroke-linejoin="bevel" d="
		M232.2,1147.1v3.3l2.9,1.7l2.9-1.7l2.9,1.7v3.3l2.9,1.7l2.9-1.7l2.9,1.7v3.3l2.9,1.7v3.3l2.9,1.7v3.3l-2.9,1.7l-2.9-1.7v-3.3
		l-2.9-1.7v-3.3l-2.9-1.7l-2.9,1.7l-2.9-1.7l-2.9,1.7l-2.9-1.7v-3.3l-2.9-1.7v-3.3l-2.9-1.7l-2.9,1.7l-2.9-1.7v-3.3l2.9-1.7l2.9,1.7
		l2.9-1.7L232.2,1147.1"/>
	
		<path id="E14000795" vector-effect="none" display="inline" fill="#FFB900" stroke="#FFFFFF" stroke-width="0.5" stroke-linecap="square" stroke-linejoin="bevel" d="
		M148.4,1262.1v3.3l-2.9,1.7l-2.9-1.7l-2.9,1.7v3.3l-2.9,1.7v3.3l-2.9,1.7l-2.9-1.7v-3.3l-2.9-1.7v-3.3l2.9-1.7v-3.3l-2.9-1.7v-3.3
		l2.9-1.7l2.9,1.7v3.3l2.9,1.7l2.9-1.7v-3.3l2.9-1.7l2.9,1.7v3.3L148.4,1262.1"/>
	
		<path id="E14000808" vector-effect="none" display="inline" fill="#FFB900" stroke="#FFFFFF" stroke-width="0.5" stroke-linecap="square" stroke-linejoin="bevel" d="
		M217.7,1242.2v3.3l-2.9,1.7v3.3l-2.9,1.7v3.3l-2.9,1.7l-2.9-1.7v-3.3l-2.9-1.7l-2.9,1.7l-2.9-1.7l-2.9,1.7l-2.9-1.7v-3.3l2.9-1.7
		l2.9,1.7l2.9-1.7v-3.3l2.9-1.7l2.9,1.7l2.9-1.7l2.9,1.7l2.9-1.7L217.7,1242.2"/>
	
		<path id="E14000809" vector-effect="none" display="inline" fill="#FFB900" stroke="#FFFFFF" stroke-width="0.5" stroke-linecap="square" stroke-linejoin="bevel" d="
		M206.2,1252.1v3.3l-2.9,1.7v3.3l2.9,1.7v3.3l-2.9,1.7v3.3l-2.9,1.7l-2.9-1.7v-3.3l-2.9-1.7v-3.3l-2.9-1.7l-2.9,1.7l-2.9-1.7v-3.3
		l2.9-1.7v-3.3l2.9-1.7l2.9,1.7l2.9-1.7l2.9,1.7l2.9-1.7L206.2,1252.1"/>
	
		<path id="E14000832" vector-effect="none" display="inline" fill="#FFB900" stroke="#FFFFFF" stroke-width="0.5" stroke-linecap="square" stroke-linejoin="bevel" d="
		M203.3,1080.4l2.9,1.7l2.9-1.7l2.9,1.7l2.9-1.7l2.9,1.7v3.3l2.9,1.7l2.9-1.7l2.9,1.7v3.3l-2.9,1.7l-2.9-1.7l-2.9,1.7l-2.9-1.7
		l-2.9,1.7l-2.9-1.7l-2.9,1.7l-2.9-1.7v-3.3l-2.9-1.7v-3.3l-2.9-1.7v-3.3l2.9-1.7l2.9,1.7V1080.4"/>
	
		<path id="E14000833" vector-effect="none" display="inline" fill="#FFB900" stroke="#FFFFFF" stroke-width="0.5" stroke-linecap="square" stroke-linejoin="bevel" d="
		M200.4,1072v3.3l-2.9,1.7v3.3l-2.9,1.7l-2.9-1.7l-2.9,1.7l-2.9-1.7l-2.9,1.7l-2.9-1.7l-2.9,1.7v3.3l2.9,1.7v3.3l-2.9,1.7l-2.9-1.7
		v-3.3l-2.9-1.7v-3.3l2.9-1.7v-3.3l2.9-1.7v-3.3l2.9-1.7l2.9,1.7l2.9-1.7l2.9,1.7l2.9-1.7l2.9,1.7l2.9-1.7L200.4,1072"/>
	
		<path id="E14000873" vector-effect="none" display="inline" fill="#FFB900" stroke="#FFFFFF" stroke-width="0.5" stroke-linecap="square" stroke-linejoin="bevel" d="
		M243.8,1417.3v3.3l2.9,1.7v3.3l-2.9,1.7v3.3l-2.9,1.7l-2.9-1.7l-2.9,1.7l-2.9-1.7v-3.3l-2.9-1.7v-3.3l2.9-1.7v-3.3l-2.9-1.7v-3.3
		l2.9-1.7l2.9,1.7v3.3l2.9,1.7l2.9-1.7v-3.3l2.9-1.7l2.9,1.7v3.3L243.8,1417.3"/>
	
		<path id="E14000897" vector-effect="none" display="inline" fill="#FFB900" stroke="#FFFFFF" stroke-width="0.5" stroke-linecap="square" stroke-linejoin="bevel" d="
		M214.8,1200.4l2.9,1.7l2.9-1.7l2.9,1.7v3.3l-2.9,1.7l-2.9-1.7l-2.9,1.7l-2.9-1.7v-3.3l-2.9-1.7l-2.9,1.7l-2.9-1.7v-3.3l-2.9-1.7
		v-3.3l-2.9-1.7v-3.3l2.9-1.7v-3.3l2.9-1.7l2.9,1.7v3.3l2.9,1.7v3.3l2.9,1.7v3.3l2.9,1.7V1200.4"/>
	
		<path id="E14000904" vector-effect="none" display="inline" fill="#7D0069" stroke="#FFFFFF" stroke-width="0.5" stroke-linecap="square" stroke-linejoin="bevel" d="
		M295.8,1237.2v3.3l2.9,1.7v3.3l2.9,1.7v3.3l2.9,1.7v3.3l-2.9,1.7l-2.9-1.7l-2.9,1.7l-2.9-1.7v-3.3l-2.9-1.7v-3.3l-2.9-1.7v-3.3
		l-2.9-1.7l-2.9,1.7l-2.9-1.7v-3.3l2.9-1.7l2.9,1.7l2.9-1.7l2.9,1.7l2.9-1.7L295.8,1237.2"/>
	
		<path id="E14000919" vector-effect="none" display="inline" fill="#FFB900" stroke="#FFFFFF" stroke-width="0.5" stroke-linecap="square" stroke-linejoin="bevel" d="
		M272.6,1247.2v3.3l2.9,1.7l2.9-1.7l2.9,1.7l2.9-1.7l2.9,1.7v3.3l-2.9,1.7l-2.9-1.7l-2.9,1.7l-2.9-1.7l-2.9,1.7l-2.9-1.7l-2.9,1.7
		l-2.9-1.7l-2.9,1.7l-2.9-1.7l-2.9,1.7l-2.9-1.7v-3.3l2.9-1.7v-3.3l2.9-1.7l2.9,1.7l2.9-1.7l2.9,1.7l2.9-1.7L272.6,1247.2"/>
	
		<path id="E14000922" vector-effect="none" display="inline" fill="#FFB900" stroke="#FFFFFF" stroke-width="0.5" stroke-linecap="square" stroke-linejoin="bevel" d="
		M261.1,1257.1v3.3l-2.9,1.7v3.3l2.9,1.7v3.3l-2.9,1.7l-2.9-1.7l-2.9,1.7l-2.9-1.7l-2.9,1.7l-2.9-1.7v-3.3l-2.9-1.7v-3.3l2.9-1.7
		v-3.3l2.9-1.7l2.9,1.7l2.9-1.7l2.9,1.7l2.9-1.7L261.1,1257.1"/>
	
		<path id="E14000978" vector-effect="none" display="inline" fill="#FFB900" stroke="#FFFFFF" stroke-width="0.5" stroke-linecap="square" stroke-linejoin="bevel" d="
		M356.4,1482.4v3.3l2.9,1.7v3.3l2.9,1.7v3.3l2.9,1.7v3.3l-2.9,1.7l-2.9-1.7l-2.9,1.7l-2.9-1.7v-3.3l-2.9-1.7v-3.3l-2.9-1.7l-2.9,1.7
		l-2.9-1.7v-3.3l2.9-1.7v-3.3l2.9-1.7l2.9,1.7l2.9-1.7L356.4,1482.4"/>
	
		<path id="E14001013" vector-effect="none" display="inline" fill="#FFB900" stroke="#FFFFFF" stroke-width="0.5" stroke-linecap="square" stroke-linejoin="bevel" d="
		M388.3,1397.3v3.3l2.9,1.7v3.3l-2.9,1.7v3.3l-2.9,1.7v3.3l-2.9,1.7l-2.9-1.7v-3.3l-2.9-1.7v-3.3l-2.9-1.7v-3.3l2.9-1.7v-3.3
		l2.9-1.7l2.9,1.7l2.9-1.7L388.3,1397.3"/>
	
		<path id="S14000005" vector-effect="none" display="inline" fill="#FFB900" stroke="#FFFFFF" stroke-width="0.5" stroke-linecap="square" stroke-linejoin="bevel" d="
		M56,995.3l-2.9,1.7l-2.9-1.7V992l2.9-1.7L56,992V995.3"/>
	
		<path id="S14000005" vector-effect="none" display="inline" fill="#FFB900" stroke="#FFFFFF" stroke-width="0.5" stroke-linecap="square" stroke-linejoin="bevel" d="
		M64.6,990.3l-2.9,1.7l-2.9-1.7V987l2.9-1.7V982l2.9-1.7l2.9,1.7v3.3l-2.9,1.7V990.3"/>
	
		<path id="S14000005" vector-effect="none" display="inline" fill="#FFB900" stroke="#FFFFFF" stroke-width="0.5" stroke-linecap="square" stroke-linejoin="bevel" d="
		M67.5,975.3l-2.9,1.7l-2.9-1.7l-2.9,1.7l-2.9-1.7v-3.3l2.9-1.7v-3.3l2.9-1.7l2.9,1.7v3.3l2.9,1.7V975.3"/>
	
		<path id="S14000005" vector-effect="none" display="inline" fill="#FFB900" stroke="#FFFFFF" stroke-width="0.5" stroke-linecap="square" stroke-linejoin="bevel" d="
		M76.2,980.3l-2.9,1.7l-2.9-1.7V977l2.9-1.7v-3.3l2.9-1.7v-3.3l2.9-1.7v-3.3l2.9-1.7l2.9,1.7v3.3l-2.9,1.7v3.3l-2.9,1.7v3.3
		l-2.9,1.7V980.3"/>
	
		<path id="S14000009" vector-effect="none" display="inline" fill="#FFB900" stroke="#FFFFFF" stroke-width="0.5" stroke-linecap="square" stroke-linejoin="bevel" d="
		M108,901.9v3.3l-2.9,1.7v3.3l-2.9,1.7v3.3l-2.9,1.7l-2.9-1.7v-3.3l-2.9-1.7v-3.3l-2.9-1.7v-3.3l-2.9-1.7v-3.3l2.9-1.7l2.9,1.7v3.3
		l2.9,1.7l2.9-1.7v-3.3l2.9-1.7v-3.3l2.9-1.7l2.9,1.7v3.3l2.9,1.7v3.3L108,901.9"/>
	
		<path id="S14000018" vector-effect="none" display="inline" fill="#FFB900" stroke="#FFFFFF" stroke-width="0.5" stroke-linecap="square" stroke-linejoin="bevel" d="
		M108,975.3l2.9,1.7v3.3l2.9,1.7v3.3l2.9,1.7v3.3l2.9,1.7v3.3l-2.9,1.7l-2.9-1.7V992l-2.9-1.7V987l-2.9-1.7V982l-2.9-1.7V977
		l-2.9-1.7l-2.9,1.7v3.3l-2.9,1.7l-2.9-1.7V977l2.9-1.7v-3.3l2.9-1.7v-3.3l2.9-1.7l2.9,1.7v3.3l2.9,1.7V975.3"/>
	
		<path id="S14000026" vector-effect="none" display="inline" fill="#FFB900" stroke="#FFFFFF" stroke-width="0.5" stroke-linecap="square" stroke-linejoin="bevel" d="
		M148.4,1001.9v3.3l-2.9,1.7v3.3l2.9,1.7v3.3l-2.9,1.7v3.3l2.9,1.7v3.3l-2.9,1.7l-2.9-1.7v-3.3l-2.9-1.7v-3.3l-2.9-1.7v-3.3
		l-2.9-1.7v-3.3l-2.9-1.7v-3.3l2.9-1.7l2.9,1.7l2.9-1.7l2.9,1.7l2.9-1.7L148.4,1001.9"/>
	
		<path id="S14000037" vector-effect="none" display="inline" fill="#FFB900" stroke="#FFFFFF" stroke-width="0.5" stroke-linecap="square" stroke-linejoin="bevel" d="
		M180.2,916.8v3.3l-2.9,1.7l-2.9-1.7l-2.9,1.7l-2.9-1.7l-2.9,1.7l-2.9-1.7l-2.9,1.7l-2.9-1.7l-2.9,1.7v3.3l-2.9,1.7v3.3l-2.9,1.7
		l-2.9-1.7l-2.9,1.7l-2.9-1.7v-3.3l2.9-1.7v-3.3l2.9-1.7l2.9,1.7l2.9-1.7v-3.3l2.9-1.7l2.9,1.7l2.9-1.7l2.9,1.7l2.9-1.7l2.9,1.7
		l2.9-1.7l2.9,1.7l2.9-1.7L180.2,916.8"/>
	
		<path id="S14000039" vector-effect="none" display="inline" fill="#FFB900" stroke="#FFFFFF" stroke-width="0.5" stroke-linecap="square" stroke-linejoin="bevel" d="
		M113.7,921.8v3.3l2.9,1.7l2.9-1.7l2.9,1.7v3.3l-2.9,1.7l-2.9-1.7l-2.9,1.7v3.3l-2.9,1.7l-2.9-1.7l-2.9,1.7v3.3l-2.9,1.7l-2.9-1.7
		v-3.3l2.9-1.7v-3.3l-2.9-1.7v-3.3l2.9-1.7v-3.3l2.9-1.7l2.9,1.7l2.9-1.7L113.7,921.8"/>
	
		<path id="S14000049" vector-effect="none" display="inline" fill="#FFB900" stroke="#FFFFFF" stroke-width="0.5" stroke-linecap="square" stroke-linejoin="bevel" d="
		M151.3,966.9v3.3l2.9,1.7l2.9-1.7l2.9,1.7v3.3l2.9,1.7l2.9-1.7l2.9,1.7v3.3l2.9,1.7l2.9-1.7l2.9,1.7v3.3l-2.9,1.7l-2.9-1.7
		l-2.9,1.7l-2.9-1.7V982l-2.9-1.7L160,982l-2.9-1.7V977l-2.9-1.7l-2.9,1.7l-2.9-1.7v-3.3l-2.9-1.7l-2.9,1.7l-2.9-1.7v-3.3l2.9-1.7
		l2.9,1.7l2.9-1.7L151.3,966.9"/>
	
		<path id="S14000051" vector-effect="none" display="inline" fill="#FFB900" stroke="#FFFFFF" stroke-width="0.5" stroke-linecap="square" stroke-linejoin="bevel" d="
		M119.5,885.2l-2.9,1.7l-2.9-1.7v-3.3l2.9-1.7l2.9,1.7V885.2 M125.4,875.2l2.9,1.7v3.3l-2.9,1.7l-2.9-1.7v-3.3l-2.9-1.7l-2.9,1.7
		l-2.9-1.7v-3.3l2.9-1.7v-3.3l2.9-1.7l2.9,1.7v3.3l2.9,1.7V875.2 M168.6,816.7v3.3l-2.9,1.7l-2.9-1.7l-2.9,1.7L157,820v-3.3l2.9-1.7
		l2.9,1.7l2.9-1.7v-3.3l-2.9-1.7v-3.3l2.9-1.7v-3.3l2.9-1.7l2.9,1.7v3.3l-2.9,1.7v3.3l2.9,1.7v3.3L168.6,816.7"/>
	
		<path id="S14000055" vector-effect="none" display="inline" fill="#FFB900" stroke="#FFFFFF" stroke-width="0.5" stroke-linecap="square" stroke-linejoin="bevel" d="
		M79.1,921.8v3.3l-2.9,1.7v3.3l-2.9,1.7l-2.9-1.7v-3.3l-2.9-1.7v-3.3l2.9-1.7l2.9,1.7l2.9-1.7L79.1,921.8 M105.1,916.8v3.3l-2.9,1.7
		v3.3l-2.9,1.7v3.3l2.9,1.7v3.3l-2.9,1.7v3.3l-2.9,1.7l-2.9-1.7v-3.3l2.9-1.7v-3.3l-2.9-1.7v-3.3l-2.9-1.7v-3.3l2.9-1.7v-3.3
		l2.9-1.7l2.9,1.7l2.9-1.7L105.1,916.8"/>
	
		<path id="W07000041" vector-effect="none" display="inline" fill="#FFB900" stroke="#FFFFFF" stroke-width="0.5" stroke-linecap="square" stroke-linejoin="bevel" d="
		M76.3,1290.3l-2.9,1.7l-2.9-1.7l-2.9,1.7l-2.9-1.7v-3.3l2.9-1.7v-3.3l-2.9-1.7v-3.3l-2.9-1.7v-3.3l2.9-1.7v-3.3l2.9-1.7l2.9,1.7
		v3.3l2.9,1.7v3.3l2.9,1.7v3.3l2.9,1.7v3.3l-2.9,1.7V1290.3"/>
	
		<path id="W07000045" vector-effect="none" display="inline" fill="#FFB900" stroke="#FFFFFF" stroke-width="0.5" stroke-linecap="square" stroke-linejoin="bevel" d="
		M82,1407.3v3.3l-2.9,1.7v3.3l-2.9,1.7v3.3l-2.9,1.7v3.3l-2.9,1.7l-2.9-1.7v-3.3l-2.9-1.7v-3.3l2.9-1.7v-3.3l2.9-1.7v-3.3l2.9-1.7
		l2.9,1.7l2.9-1.7v-3.3l2.9-1.7l2.9,1.7v3.3L82,1407.3"/>
	
		<path id="W07000047" vector-effect="none" display="inline" fill="#FFB900" stroke="#FFFFFF" stroke-width="0.5" stroke-linecap="square" stroke-linejoin="bevel" d="
		M82,1450.7l-2.9,1.7l-2.9-1.7v-3.3l-2.9-1.7v-3.3l-2.9-1.7v-3.3l2.9-1.7v-3.3l2.9-1.7v-3.3l2.9-1.7l2.9,1.7v3.3l2.9,1.7v3.3
		l2.9,1.7v3.3l-2.9,1.7v3.3l-2.9,1.7V1450.7"/>
	
		<path id="W07000050" vector-effect="none" display="inline" fill="#FFB900" stroke="#FFFFFF" stroke-width="0.5" stroke-linecap="square" stroke-linejoin="bevel" d="
		M131.1,1462.3v3.3l2.9,1.7v3.3l-2.9,1.7v3.3l-2.9,1.7v3.3l-2.9,1.7l-2.9-1.7v-3.3l-2.9-1.7v-3.3l-2.9-1.7v-3.3l2.9-1.7v-3.3
		l2.9-1.7l2.9,1.7l2.9-1.7L131.1,1462.3"/>
	
		<path id="W07000052" vector-effect="none" display="inline" fill="#FFB900" stroke="#FFFFFF" stroke-width="0.5" stroke-linecap="square" stroke-linejoin="bevel" d="
		M108,1435.7l-2.9,1.7l-2.9-1.7v-3.3l-2.9-1.7v-3.3l-2.9-1.7v-3.3l-2.9-1.7v-3.3l2.9-1.7v-3.3l2.9-1.7l2.9,1.7v3.3l2.9,1.7v3.3
		l2.9,1.7v3.3l2.9,1.7v3.3l-2.9,1.7V1435.7"/>
	
		<path id="W07000055" vector-effect="none" display="inline" fill="#FFB900" stroke="#FFFFFF" stroke-width="0.5" stroke-linecap="square" stroke-linejoin="bevel" d="
		M154.2,1455.6l-2.9,1.7l-2.9-1.7l-2.9,1.7v3.3l-2.9,1.7l-2.9-1.7v-3.3l2.9-1.7v-3.3l2.9-1.7v-3.3l-2.9-1.7v-3.3l2.9-1.7v-3.3
		l-2.9-1.7v-3.3l2.9-1.7l2.9,1.7v3.3l2.9,1.7v3.3l2.9,1.7v3.3l2.9,1.7v3.3l-2.9,1.7V1455.6"/>
	
		<path id="W07000057" vector-effect="none" display="inline" fill="#FFB900" stroke="#FFFFFF" stroke-width="0.5" stroke-linecap="square" stroke-linejoin="bevel" d="
		M87.8,1297.2v3.3l-2.9,1.7v3.3l-2.9,1.7v3.3l-2.9,1.7v3.3l2.9,1.7v3.3l-2.9,1.7l-2.9-1.7v-3.3l-2.9-1.7v-3.3l-2.9-1.7v-3.3l2.9-1.7
		v-3.3l-2.9-1.7v-3.3l2.9-1.7l2.9,1.7l2.9-1.7l2.9,1.7l2.9-1.7L87.8,1297.2"/>
	
		<path id="W07000067" vector-effect="none" display="inline" fill="#FFB900" stroke="#FFFFFF" stroke-width="0.5" stroke-linecap="square" stroke-linejoin="bevel" d="
		M110.8,1377.3v3.3l-2.9,1.7v3.3l2.9,1.7v3.3l-2.9,1.7v3.3l-2.9,1.7l-2.9-1.7l-2.8,1.7l-2.9-1.7l-2.9,1.7l-2.9-1.7v-3.3l2.9-1.7
		v-3.3l2.9-1.7v-3.3l2.9-1.7v-3.3l2.9-1.7l2.9,1.7l2.9-1.7L110.8,1377.3"/>
	
		<path id="W07000069" vector-effect="none" display="inline" fill="#FFB900" stroke="#FFFFFF" stroke-width="0.5" stroke-linecap="square" stroke-linejoin="bevel" d="
		M99.3,1397.3v3.3l-2.9,1.7v3.3l2.9,1.7v3.3l-2.9,1.7v3.3l-2.9,1.7v3.3l2.9,1.7v3.3l-2.9,1.7l-2.9-1.7v-3.3l-2.9-1.7v-3.3l2.9-1.7
		v-3.3l-2.9-1.7v-3.3l-2.9-1.7v-3.3l2.9-1.7v-3.3l2.9-1.7l2.9,1.7l2.9-1.7L99.3,1397.3"/>
	
		<path id="W07000070" vector-effect="none" display="inline" fill="#FFB900" stroke="#FFFFFF" stroke-width="0.5" stroke-linecap="square" stroke-linejoin="bevel" d="
		M116.6,1430.7l-2.9,1.7l-2.9-1.7v-3.3l-2.9-1.7v-3.3l-2.9-1.7v-3.3l-2.9-1.7v-3.3l-2.9-1.7v-3.3l-2.9-1.7v-3.3l2.9-1.7v-3.3
		l2.9-1.7l2.9,1.7v3.3l2.9,1.7v3.3l-2.9,1.7v3.3l2.9,1.7v3.3l2.9,1.7v3.3l2.9,1.7v3.3l2.9,1.7V1430.7"/>
	
		<path id="W07000071" vector-effect="none" display="inline" fill="#FFB900" stroke="#FFFFFF" stroke-width="0.5" stroke-linecap="square" stroke-linejoin="bevel" d="
		M122.4,1420.6l-2.9,1.7l-2.9-1.7l-2.9,1.7l-2.9-1.7v-3.3l-2.9-1.7v-3.3l-2.9-1.7v-3.3l2.9-1.7v-3.3l-2.9-1.7v-3.3l2.9-1.7v-3.3
		l2.9-1.7l2.9,1.7v3.3l-2.9,1.7v3.3l2.9,1.7v3.3l2.9,1.7v3.3l2.9,1.7v3.3l2.9,1.7V1420.6"/>
	
		<path id="W07000075" vector-effect="none" display="inline" fill="#FFB900" stroke="#FFFFFF" stroke-width="0.5" stroke-linecap="square" stroke-linejoin="bevel" d="
		M110.8,1460.6l-2.9,1.7l-2.9-1.7v-3.3l2.9-1.7v-3.3l-2.9-1.7v-3.3l2.9-1.7v-3.3l-2.9-1.7v-3.3l2.9-1.7v-3.3l2.9-1.7l2.9,1.7v3.3
		l2.9,1.7v3.3l2.9,1.7v3.3l-2.9,1.7v3.3l-2.9,1.7v3.3l-2.9,1.7V1460.6"/>
	
		<path id="W07000076" vector-effect="none" display="inline" fill="#FFB900" stroke="#FFFFFF" stroke-width="0.5" stroke-linecap="square" stroke-linejoin="bevel" d="
		M125.4,1435.7l2.9,1.7l2.9-1.7l2.9,1.7v3.3l-2.9,1.7v3.3l-2.9,1.7l-2.9-1.7l-2.9,1.7l-2.9-1.7v-3.3l-2.9-1.7v-3.3l-2.9-1.7v-3.3
		l2.9-1.7v-3.3l-2.9-1.7v-3.3l2.9-1.7l2.9,1.7v3.3l2.9,1.7v3.3l2.9,1.7V1435.7"/>
	
		<path id="W07000077" vector-effect="none" display="inline" fill="#FFB900" stroke="#FFFFFF" stroke-width="0.5" stroke-linecap="square" stroke-linejoin="bevel" d="
		M136.9,1435.7l-2.9,1.7l-2.9-1.7l-2.9,1.7l-2.9-1.7v-3.3l-2.9-1.7v-3.3l-2.9-1.7v-3.3l2.9-1.7v-3.3l-2.9-1.7v-3.3l2.9-1.7l2.9,1.7
		v3.3l2.9,1.7v3.3l2.9,1.7v3.3l2.9,1.7v3.3l2.9,1.7V1435.7"/>
	
		<path id="E14000669" vector-effect="none" display="inline" fill="#7D0069" stroke="#FFFFFF" stroke-linecap="square" stroke-linejoin="bevel" d="
		M319,1208.4v3.3l-2.9,1.7v3.3l-2.9,1.7v3.3l-2.9,1.7l-2.9-1.7l-2.9,1.7v3.3l2.9,1.7v3.3l-2.9,1.7l-2.9-1.7v-3.3l-2.9-1.7v-3.3
		l2.9-1.7v-3.3l2.9-1.7v-3.3l2.9-1.7v-3.3l2.9-1.7l2.9,1.7l2.9-1.7L319,1208.4"/>
	
		<path id="E14000671" vector-effect="none" display="inline" fill="#7D0069" stroke="#FFFFFF" stroke-linecap="square" stroke-linejoin="bevel" d="
		M174.6,1358.4v3.3l2.9,1.7v3.3l-2.9,1.7v3.3l-2.9,1.7l-2.9-1.7v-3.3l-2.9-1.7l-2.9,1.7l-2.9-1.7l-2.9,1.7l-2.9-1.7v-3.3l2.9-1.7
		v-3.3l2.9-1.7l2.9,1.7l2.9-1.7l2.9,1.7l2.9-1.7L174.6,1358.4"/>
	
		<path id="E14001011" vector-effect="none" display="inline" fill="#7D0069" stroke="#FFFFFF" stroke-linecap="square" stroke-linejoin="bevel" d="
		M206.4,1333.5v3.3l-2.9,1.7l-2.9-1.7l-2.9,1.7v3.3l-2.9,1.7l-2.9-1.7l-2.9,1.7l-2.9-1.7l-2.9,1.7l-2.9-1.7v-3.3l2.9-1.7l2.9,1.7
		l2.9-1.7v-3.3l-2.9-1.7v-3.3l2.9-1.7l2.9,1.7v3.3l2.9,1.7l2.9-1.7l2.9,1.7l2.9-1.7v-3.3l2.9-1.7l2.9,1.7v3.3L206.4,1333.5"/>
	
		<path id="W07000064" vector-effect="none" display="inline" fill="#FFB900" stroke="#FFFFFF" stroke-linecap="square" stroke-linejoin="bevel" d="
		M88.1,1401.8l-2.9,1.7l-2.9-1.7l-2.9,1.7v3.3l-2.9,1.7l-2.9-1.7v-3.3l2.9-1.7v-3.3l2.9-1.7v-3.3l2.9-1.7v-3.3l2.9-1.7v-3.3l2.9-1.7
		v-3.3l2.9-1.7l2.9,1.7v3.3l2.9,1.7v3.3l-2.9,1.7v3.3l-2.9,1.7v3.3l-2.9,1.7V1401.8"/>
	
		<path id="E14000879" vector-effect="none" display="inline" fill="#7D0069" stroke="#FFFFFF" stroke-linecap="square" stroke-linejoin="bevel" d="
		M85.2,1543.5v3.3l2.9,1.7v3.3l2.9,1.7v3.3l-2.9,1.7l-2.9-1.7l-2.9,1.7l-2.9-1.7v-3.3l-2.9-1.7l-2.9,1.7l-2.9-1.7v-3.3l-2.9-1.7
		v-3.3l2.9-1.7l2.9,1.7l2.9-1.7l2.9,1.7l2.9-1.7L85.2,1543.5"/>
	
		<path id="E14000716" vector-effect="none" display="inline" fill="#7D0069" stroke="#FFFFFF" stroke-linecap="square" stroke-linejoin="bevel" d="
		M362.2,1232.2v3.3l2.9,1.7v3.3l-2.9,1.7v3.3l-2.9,1.7v3.3l-2.9,1.7l-2.9-1.7v-3.3l-2.9-1.7v-3.3l-2.9-1.7v-3.3l2.9-1.7v-3.3
		l2.9-1.7l2.9,1.7l2.9-1.7L362.2,1232.2"/>
	
		<path id="E14000903" vector-effect="none" display="inline" fill="#7D0069" stroke="#FFFFFF" stroke-linecap="square" stroke-linejoin="bevel" d="
		M318.8,1247.2v3.3l-2.9,1.7v3.3l-2.9,1.7v3.3l2.9,1.7v3.3l-2.9,1.7l-2.9-1.7v-3.3l-2.9-1.7l-2.9,1.7l-2.9-1.7l-2.9,1.7l-2.9-1.7
		v-3.3l2.9-1.7l2.9,1.7l2.9-1.7v-3.3l-2.9-1.7v-3.3l2.9-1.7l2.9,1.7l2.9-1.7l2.9,1.7l2.9-1.7L318.8,1247.2"/>
	
		<path id="E14000669" vector-effect="none" display="inline" fill="#7D0069" stroke="#FFFFFF" stroke-linecap="square" stroke-linejoin="bevel" d="
		M319,1208.4v3.3l-2.9,1.7v3.3l-2.9,1.7v3.3l-2.9,1.7l-2.9-1.7l-2.9,1.7v3.3l2.9,1.7v3.3l-2.9,1.7l-2.9-1.7v-3.3l-2.9-1.7v-3.3
		l2.9-1.7v-3.3l2.9-1.7v-3.3l2.9-1.7v-3.3l2.9-1.7l2.9,1.7l2.9-1.7L319,1208.4"/>
</g>
<g id="areas" transform="matrix(0.999751,0,0,0.999751,0,0)">
	<path vector-effect="none" fill="none" stroke="#FFFFFF" stroke-linecap="square" stroke-linejoin="bevel" d="M379.7,1305.8
		l-2.9,1.7l-2.9-1.7l-2.9,1.7l-2.9-1.7l-2.9,1.7l-2.9-1.7l-2.9,1.7l-2.9-1.7l-2.9,1.7v3.3l-2.9,1.7l-2.9-1.7l-2.9,1.7v3.3l2.9,1.7
		v3.3l2.9,1.7v3.3l-2.9,1.7v3.3l-2.9,1.7v3.3l-2.9,1.7l-2.9-1.7l-2.9,1.7v3.3l-2.9,1.7v3.3l-2.9,1.7l-2.9-1.7l-2.9,1.7v3.3l-2.9,1.7
		l-2.9-1.7l-2.9,1.7v3.3l-2.9,1.7l-2.9-1.7l-2.9,1.7l-2.9-1.7l-2.9,1.7v3.3l-2.9,1.7v3.3l-2.9,1.7v3.3l-2.9,1.7v3.3l-2.9,1.7
		l-2.9-1.7l-2.9,1.7v3.3l-2.9,1.7l-2.9-1.7v-3.3l-2.9-1.7l-2.9,1.7v3.3l-2.9,1.7v3.3l-2.9,1.7v3.3l-2.9,1.7l-2.9-1.7l-2.9,1.7v3.3
		l-2.9,1.7v3.3l-2.9,1.7l-2.9-1.7l-2.9,1.7l-2.9-1.7v-3.3l2.9-1.7v-3.3l2.9-1.7l2.9,1.7l2.9-1.7v-3.3l2.9-1.7l2.9,1.7l2.9-1.7v-3.3
		l2.9-1.7v-3.3l2.9-1.7v-3.3l2.9-1.7v-3.3l2.9-1.7v-3.3l2.9-1.7v-3.3l2.9-1.7v-3.3l-2.9-1.7v-3.3l2.9-1.7v-3.3l-2.9-1.7v-3.3
		l2.9-1.7v-3.3l-2.9-1.7l-2.9,1.7v3.3l-2.9,1.7l-2.9-1.7l-2.9,1.7l-2.9-1.7l-2.9,1.7l-2.9-1.7l-2.9,1.7l-2.9-1.7v-3.3l-2.9-1.7v-3.3
		l2.9-1.7v-3.3l-2.9-1.7l-2.9,1.7l-2.9-1.7l-2.9,1.7l-2.9-1.7v-3.3l2.9-1.7v-3.3l-2.9-1.7l-2.9,1.7l-2.9-1.7v-3.3l2.9-1.7"/>
	<path vector-effect="none" fill="none" stroke="#FFFFFF" stroke-linecap="square" stroke-linejoin="bevel" d="M235.2,1305.8v-3.3
		l-2.9-1.7v-3.3l-2.9-1.7v-3.3l-2.9-1.7v-3.3l-2.9-1.7v-3.3l2.9-1.7v-3.3l2.9-1.7v-3.3l2.9-1.7v-3.3l2.9-1.7v-3.3l2.9-1.7l2.9,1.7
		v3.3l2.9,1.7v3.3l2.9,1.7l2.9-1.7l2.9,1.7l2.9-1.7l2.9,1.7l2.9-1.7v-3.3l2.9-1.7l2.9,1.7l2.9-1.7l2.9,1.7l2.9-1.7l2.9,1.7l2.9-1.7
		l2.9,1.7l2.9-1.7l2.9,1.7l2.9-1.7v-3.3l2.9-1.7l2.9,1.7l2.9-1.7l2.9,1.7l2.9-1.7l2.9,1.7v3.3l2.9,1.7l2.9-1.7v-3.3l-2.9-1.7v-3.3
		l2.9-1.7v-3.3l2.9-1.7v-3.3l2.9-1.7v-3.3l2.9-1.7l2.9,1.7l2.9-1.7l2.9,1.7v3.3l2.9,1.7v3.3l2.9,1.7v3.3l2.9,1.7l2.9-1.7v-3.3
		l2.9-1.7l2.9,1.7v3.3l2.9,1.7v3.3l2.9,1.7l2.9-1.7v-3.3l2.9-1.7v-3.3l2.9-1.7"/>
	<path vector-effect="none" fill="none" stroke="#FFFFFF" stroke-linecap="square" stroke-linejoin="bevel" d="M252.5,1335.9
		l2.9,1.7l2.9-1.7l2.9,1.7l2.9-1.7l2.9,1.7l2.9-1.7l2.9,1.7l2.9-1.7v-3.3l2.9-1.7l2.9,1.7v3.3l-2.9,1.7v3.3l2.9,1.7v3.3l-2.9,1.7
		v3.3l2.9,1.7v3.3l-2.9,1.7v3.3l-2.9,1.7v3.3l-2.9,1.7v3.3l-2.9,1.7v3.3l-2.9,1.7v3.3l-2.9,1.7v3.3l-2.9,1.7l-2.9-1.7l-2.9,1.7v3.3
		l-2.9,1.7l-2.9-1.7l-2.9,1.7v3.3l-2.9,1.7v3.3l2.9,1.7v3.3l-2.9,1.7l-2.9-1.7v-3.3l-2.9-1.7l-2.9,1.7v3.3l-2.9,1.7l-2.9-1.7
		l-2.9,1.7v3.3l-2.9,1.7v3.3l-2.9,1.7l-2.9-1.7l-2.9,1.7l-2.9-1.7l-2.9,1.7v3.3l-2.9,1.7l-2.9-1.7l-2.9,1.7l-2.9-1.7v-3.3l-2.9-1.7
		l-2.9,1.7l-2.9-1.7l-2.9,1.7l-2.9-1.7l-2.9,1.7l-2.9-1.7l-2.9,1.7v3.3l-2.9,1.7l-2.9-1.7v-3.3l-2.9-1.7l-2.9,1.7l-2.9-1.7v-3.3
		l-2.9-1.7l-2.9,1.7l-2.9-1.7l-2.9,1.7v3.3l-2.9,1.7l-2.9-1.7v-3.3l-2.9-1.7v-3.3l-2.9-1.7l-2.9,1.7l-2.9-1.7v-3.3l-2.9-1.7v-3.3
		l-2.9-1.7l-2.9,1.7l-2.9-1.7v-3.3l-2.9-1.7v-3.3l2.9-1.7v-3.3l2.9-1.7l2.9,1.7l2.9-1.7v-3.3l-2.9-1.7v-3.3l2.9-1.7v-3.3l-2.9-1.7
		l-2.9,1.7v3.3l-2.9,1.7l-2.9-1.7v-3.3l-2.9-1.7v-3.3l-2.9-1.7v-3.3l2.9-1.7v-3.3l2.9-1.7v-3.3l-2.9-1.7v-3.3l2.9-1.7l2.9,1.7
		l2.9-1.7v-3.3l2.9-1.7l2.9,1.7l2.9-1.7v-3.3l2.9-1.7l2.9,1.7l2.9-1.7l2.9,1.7l2.9-1.7v-3.3l2.9-1.7l2.9,1.7l2.9-1.7v-3.3l2.9-1.7
		l2.9,1.7l2.9-1.7v-3.3l2.9-1.7v-3.3l2.9-1.7v-3.3l2.9-1.7l2.9,1.7l2.9-1.7v-3.3l2.9-1.7l2.9,1.7l2.9-1.7v-3.3l2.9-1.7l2.9,1.7
		l2.9-1.7v-3.3l2.9-1.7l2.9,1.7l2.9-1.7l2.9,1.7l2.9-1.7l2.9,1.7l2.9-1.7v-3.3l2.9-1.7l2.9,1.7l2.9-1.7l2.9,1.7v3.3l2.9,1.7v3.3
		l2.9,1.7v3.3l2.9,1.7v3.3l-2.9,1.7v3.3l2.9,1.7l2.9-1.7l2.9,1.7v3.3l-2.9,1.7v3.3l2.9,1.7l2.9-1.7l2.9,1.7l2.9-1.7l2.9,1.7v3.3
		l-2.9,1.7v3.3l2.9,1.7V1335.9"/>
	<path vector-effect="none" fill="none" stroke="#FFFFFF" stroke-linecap="square" stroke-linejoin="bevel" d="M151.3,1457.7
		l2.9-1.7v-3.3l2.9-1.7v-3.3l-2.9-1.7v-3.3l-2.9-1.7v-3.3l2.9-1.7v-3.3l-2.9-1.7v-3.3l-2.9-1.7v-3.3l-2.9-1.7v-3.3l2.9-1.7v-3.3
		l2.9-1.7l2.9,1.7l2.9-1.7l2.9,1.7v3.3l2.9,1.7l2.9-1.7l2.9,1.7v3.3l2.9,1.7l2.9-1.7v-3.3l2.9-1.7l2.9,1.7l2.9-1.7l2.9,1.7l2.9-1.7
		l2.9,1.7l2.9-1.7l2.9,1.7v3.3l2.9,1.7l2.9-1.7l2.9,1.7l2.9-1.7v-3.3l2.9-1.7l2.9,1.7v3.3l-2.9,1.7v3.3l-2.9,1.7v3.3l-2.9,1.7v3.3
		l2.9,1.7l2.9-1.7l2.9,1.7v3.3l-2.9,1.7v3.3l-2.9,1.7v3.3l2.9,1.7v3.3l-2.9,1.7v3.3l2.9,1.7v3.3l-2.9,1.7v3.3l2.9,1.7v3.3l-2.9,1.7
		v3.3l2.9,1.7v3.3l-2.9,1.7v3.3l-2.9,1.7l-2.9-1.7l-2.9,1.7v3.3l2.9,1.7v3.3l2.9,1.7v3.3l2.9,1.7v3.3l-2.9,1.7v3.3l-2.9,1.7
		l-2.9-1.7v-3.3l-2.9-1.7l-2.9,1.7v3.3l-2.9,1.7v3.3l2.9,1.7v3.3l2.9,1.7l2.9-1.7l2.9,1.7v3.3l2.9,1.7v3.3l2.9,1.7v3.3l2.9,1.7
		l2.9-1.7l2.9,1.7v3.3l2.9,1.7v3.3l2.9,1.7"/>
	<path vector-effect="none" fill="none" stroke="#FFFFFF" stroke-linecap="square" stroke-linejoin="bevel" d="M142.7,1486.1v-3.3
		l2.9-1.7v-3.3l-2.9-1.7v-3.3l2.9-1.7v-3.3l2.9-1.7v-3.3"/>
	<path vector-effect="none" fill="none" stroke="#FFFFFF" stroke-linecap="square" stroke-linejoin="bevel" d="M449,1452.7l-2.9-1.7
		l-2.9,1.7v3.3l-2.9,1.7l-2.9-1.7l-2.9,1.7v3.3l-2.9,1.7v3.3l-2.9,1.7l-2.9-1.7l-2.9,1.7l-2.9-1.7v-3.3l-2.9-1.7v-3.3l2.9-1.7v-3.3
		l2.9-1.7l2.9,1.7l2.9-1.7v-3.3l-2.9-1.7v-3.3l2.9-1.7v-3.3l-2.9-1.7v-3.3"/>
	<path vector-effect="none" fill="none" stroke="#FFFFFF" stroke-linecap="square" stroke-linejoin="bevel" d="M425.9,1432.7
		l-2.9-1.7v-3.3l-2.9-1.7v-3.3l2.9-1.7v-3.3l-2.9-1.7v-3.3l2.9-1.7v-3.3l2.9-1.7v-3.3l-2.9-1.7l-2.9,1.7l-2.9-1.7v-3.3l-2.9-1.7
		v-3.3l-2.9-1.7l-2.9,1.7l-2.9-1.7l-2.9,1.7l-2.9-1.7l-2.9,1.7l-2.9-1.7v-3.3l-2.9-1.7l-2.9,1.7l-2.9-1.7v-3.3l-2.9-1.7v-3.3
		l-2.9-1.7l-2.9,1.7l-2.9-1.7l-2.9,1.7l-2.9-1.7l-2.9,1.7l-2.9-1.7l-2.9,1.7l-2.9-1.7l-2.9,1.7v3.3l-2.9,1.7l-2.9-1.7l-2.9,1.7v3.3
		l-2.9,1.7l-2.9-1.7l-2.9,1.7v3.3l-2.9,1.7l-2.9-1.7l-2.9,1.7v3.3l-2.9,1.7l-2.9-1.7l-2.9,1.7v3.3l-2.9,1.7l-2.9-1.7l-2.9,1.7
		l-2.9-1.7l-2.9,1.7v3.3l-2.9,1.7v3.3l-2.9,1.7v3.3l-2.9,1.7l-2.9-1.7l-2.9,1.7v3.3l-2.9,1.7l-2.9-1.7l-2.9,1.7l-2.9-1.7v-3.3
		l2.9-1.7v-3.3l-2.9-1.7l-2.9,1.7l-2.9-1.7l-2.9,1.7l-2.9-1.7v-3.3l2.9-1.7v-3.3l2.9-1.7v-3.3l2.9-1.7v-3.3l2.9-1.7l2.9,1.7l2.9-1.7
		v-3.3l2.9-1.7v-3.3l2.9-1.7l2.9,1.7l2.9-1.7v-3.3l2.9-1.7l2.9,1.7l2.9-1.7v-3.3l2.9-1.7v-3.3l2.9-1.7v-3.3l2.9-1.7v-3.3l2.9-1.7
		v-3.3l2.9-1.7l2.9,1.7l2.9-1.7v-3.3l2.9-1.7l2.9,1.7l2.9-1.7v-3.3l2.9-1.7v-3.3l2.9-1.7l2.9,1.7l2.9-1.7v-3.3l2.9-1.7v-3.3l2.9-1.7
		v-3.3l-2.9-1.7v-3.3l-2.9-1.7v-3.3l2.9-1.7l2.9,1.7l2.9-1.7v-3.3l2.9-1.7l2.9,1.7l2.9-1.7l2.9,1.7l2.9-1.7l2.9,1.7l2.9-1.7l2.9,1.7
		l2.9-1.7"/>
	<path vector-effect="none" fill="none" stroke="#FFFFFF" stroke-linecap="square" stroke-linejoin="bevel" d="M293,1142.4v3.3
		l2.9,1.7v3.3l-2.9,1.7v3.3l-2.9,1.7l-2.9-1.7l-2.9,1.7l-2.9-1.7l-2.9,1.7l-2.9-1.7l-2.9,1.7l-2.9-1.7l-2.9,1.7l-2.9-1.7v-3.3
		l-2.9-1.7l-2.9,1.7l-2.9-1.7l-2.9,1.7l-2.9-1.7l-2.9,1.7l-2.9-1.7v-3.3l-2.9-1.7v-3.3l-2.9-1.7l-2.9,1.7l-2.9-1.7l-2.9,1.7
		l-2.9-1.7v-3.3l-2.9-1.7l-2.9,1.7l-2.9-1.7v-3.3l-2.9-1.7l-2.9,1.7l-2.9-1.7l-2.9,1.7l-2.9-1.7v-3.3l-2.9-1.7l-2.9,1.7v3.3
		l-2.9,1.7l-2.9-1.7l-2.9,1.7l-2.9-1.7v-3.3l-2.9-1.7v-3.3l-2.9-1.7v-3.3l-2.9-1.7v-3.3l-2.9-1.7v-3.3l-2.9-1.7v-3.3l2.9-1.7v-3.3
		l-2.9-1.7v-3.3l-2.9-1.7l-2.9,1.7l-2.9-1.7v-3.3l-2.9-1.7v-3.3l2.9-1.7v-3.3l2.9-1.7v-3.3l2.9-1.7v-3.3l2.9-1.7l2.9,1.7l2.9-1.7
		v-3.3l-2.9-1.7v-3.3l2.9-1.7v-3.3l2.9-1.7l2.9,1.7l2.9-1.7l2.9,1.7"/>
	<path vector-effect="none" fill="none" stroke="#FFFFFF" stroke-linecap="square" stroke-linejoin="bevel" d="M180.3,1050.6
		l-2.9,1.7v3.3l-2.9,1.7v3.3l2.9,1.7v3.3l-2.9,1.7l-2.9-1.7l-2.9,1.7v3.3l-2.9,1.7v3.3l-2.9,1.7v3.3l-2.9,1.7l-2.9-1.7l-2.9,1.7
		l-2.9-1.7l-2.9,1.7"/>
	<path vector-effect="none" fill="none" stroke="#FFFFFF" stroke-linecap="square" stroke-linejoin="bevel" d="M222.3,1552.9
		l-2.9-1.7v-3.3l-2.9-1.7v-3.3l-2.9-1.7l-2.9,1.7l-2.9-1.7v-3.3l-2.9-1.7v-3.3l-2.9-1.7v-3.3l-2.9-1.7l-2.9,1.7l-2.9-1.7v-3.3
		l-2.9-1.7v-3.3l2.9-1.7v-3.3l2.9-1.7l2.9,1.7v3.3l2.9,1.7l2.9-1.7v-3.3l2.9-1.7v-3.3l-2.9-1.7v-3.3l-2.9-1.7v-3.3l-2.9-1.7v-3.3
		l2.9-1.7l2.9,1.7l2.9-1.7v-3.3l2.9-1.7v-3.3l-2.9-1.7v-3.3l2.9-1.7v-3.3l-2.9-1.7v-3.3l2.9-1.7v-3.3l-2.9-1.7v-3.3l2.9-1.7v-3.3
		l-2.9-1.7v-3.3l2.9-1.7v-3.3l2.9-1.7v-3.3l-2.9-1.7l-2.9,1.7l-2.9-1.7v-3.3l2.9-1.7v-3.3l2.9-1.7v-3.3l2.9-1.7v-3.3l2.9-1.7
		l2.9,1.7l2.9-1.7v-3.3l2.9-1.7v-3.3l2.9-1.7l2.9,1.7l2.9-1.7v-3.3l2.9-1.7l2.9,1.7v3.3l2.9,1.7l2.9-1.7v-3.3l2.9-1.7l2.9,1.7
		l2.9-1.7v-3.3l2.9-1.7v-3.3l2.9-1.7l2.9,1.7l2.9-1.7v-3.3l2.9-1.7v-3.3l2.9-1.7v-3.3l2.9-1.7l2.9,1.7v3.3l2.9,1.7l2.9-1.7v-3.3
		l2.9-1.7l2.9,1.7l2.9-1.7v-3.3l2.9-1.7v-3.3l2.9-1.7v-3.3l2.9-1.7v-3.3l2.9-1.7l2.9,1.7l2.9-1.7l2.9,1.7v3.3l-2.9,1.7v3.3l-2.9,1.7
		v3.3l-2.9,1.7v3.3l-2.9,1.7l-2.9-1.7l-2.9,1.7v3.3l-2.9,1.7l-2.9-1.7l-2.9,1.7v3.3l-2.9,1.7v3.3l-2.9,1.7l-2.9-1.7l-2.9,1.7v3.3
		l-2.9,1.7v3.3l-2.9,1.7v3.3l-2.9,1.7v3.3l2.9,1.7l2.9-1.7l2.9,1.7l2.9-1.7l2.9,1.7v3.3l-2.9,1.7v3.3l-2.9,1.7v3.3l-2.9,1.7v3.3
		l-2.9,1.7v3.3l2.9,1.7v3.3l-2.9,1.7v3.3l-2.9,1.7l-2.9-1.7l-2.9,1.7v3.3l2.9,1.7l2.9-1.7l2.9,1.7v3.3l2.9,1.7v3.3l-2.9,1.7v3.3
		l-2.9,1.7v3.3l2.9,1.7v3.3"/>
	<path vector-effect="none" fill="none" stroke="#FFFFFF" stroke-linecap="square" stroke-linejoin="bevel" d="M268.8,1476.1
		l2.9,1.7v3.3l2.9,1.7l2.9-1.7l2.9,1.7v3.3l2.9,1.7v3.3l2.9,1.7l2.9-1.7l2.9,1.7v3.3l2.9,1.7v3.3l2.9,1.7v3.3l2.9,1.7v3.3l2.9,1.7
		v3.3l2.9,1.7l2.9-1.7l2.9,1.7l2.9-1.7l2.9,1.7v3.3l2.9,1.7v3.3l2.9,1.7v3.3l2.9,1.7l2.9-1.7l2.9,1.7l2.9-1.7v-3.3l2.9-1.7l2.9,1.7
		v3.3l2.9,1.7l2.9-1.7l2.9,1.7v3.3l2.9,1.7l2.9-1.7l2.9,1.7l2.9-1.7l2.9,1.7l2.9-1.7v-3.3l2.9-1.7l2.9,1.7l2.9-1.7v-3.3l2.9-1.7
		l2.9,1.7v3.3l2.9,1.7l2.9-1.7l2.9,1.7l2.9-1.7v-3.3l2.9-1.7v-3.3l2.9-1.7v-3.3l2.9-1.7v-3.3l2.9-1.7v-3.3l2.9-1.7v-3.3l-2.9-1.7
		v-3.3l2.9-1.7l2.9,1.7v3.3l2.9,1.7l2.9-1.7v-3.3l-2.9-1.7v-3.3l2.9-1.7v-3.3l2.9-1.7v-3.3l2.9-1.7v-3.3l2.9-1.7v-3.3l-2.9-1.7v-3.3
		l2.9-1.7l2.9,1.7l2.9-1.7v-3.3l2.9-1.7v-3.3l2.9-1.7l2.9,1.7l2.9-1.7v-3.3l2.9-1.7l2.9,1.7"/>
	<path vector-effect="none" fill="none" stroke="#FFFFFF" stroke-linecap="square" stroke-linejoin="bevel" d="M237.9,1577.7
		l-2.9-1.7l-2.9,1.7l-2.9-1.7l-2.9,1.7l-2.9-1.7v-3.3l2.9-1.7v-3.3l2.9-1.7v-3.3l2.9-1.7l2.9,1.7l2.9-1.7l2.9,1.7v3.3l2.9,1.7v3.3
		l-2.9,1.7v3.3L237.9,1577.7"/>
	<path vector-effect="none" fill="none" stroke="#FFFFFF" stroke-linecap="square" stroke-linejoin="bevel" d="M148.5,1082.3
		l2.9-1.7l2.9,1.7l2.9-1.7l2.9,1.7v3.3l2.9,1.7v3.3l2.9,1.7l2.9-1.7l2.9,1.7v3.3l2.9,1.7v3.3l-2.9,1.7v3.3l2.9,1.7v3.3l2.9,1.7v3.3
		l2.9,1.7v3.3l2.9,1.7v3.3l2.9,1.7v3.3l-2.9,1.7v3.3l2.9,1.7l2.9-1.7l2.9,1.7v3.3l2.9,1.7v3.3l2.9,1.7l2.9-1.7l2.9,1.7v3.3l2.9,1.7
		v3.3l-2.9,1.7v3.3l2.9,1.7v3.3l2.9,1.7v3.3l-2.9,1.7v3.3l-2.9,1.7v3.3l2.9,1.7v3.3l2.9,1.7v3.3l2.9,1.7v3.3l2.9,1.7v3.3l2.9,1.7
		l2.9-1.7l2.9,1.7v3.3l2.9,1.7v3.3l2.9,1.7v3.3l2.9,1.7v3.3l2.9,1.7v3.3l2.9,1.7v3.3l2.9,1.7v3.3l2.9,1.7v3.3l-2.9,1.7v3.3l2.9,1.7
		v3.3l-2.9,1.7v3.3l2.9,1.7v3.3l-2.9,1.7l-2.9-1.7"/>
	<path vector-effect="none" fill="none" stroke="#FFFFFF" stroke-linecap="square" stroke-linejoin="bevel" d="M102.2,1285.9v-3.3
		l-2.9-1.7v-3.3l2.9-1.7v-3.3l-2.9-1.7v-3.3l2.9-1.7v-3.3l2.9-1.7l2.9,1.7l2.9-1.7v-3.3l-2.9-1.7v-3.3l2.9-1.7v-3.3l2.9-1.7v-3.3
		l-2.9-1.7v-3.3l2.9-1.7v-3.3l2.9-1.7v-3.3l-2.9-1.7v-3.3l2.9-1.7v-3.3l2.9-1.7v-3.3l2.9-1.7v-3.3l2.9-1.7v-3.3l2.9-1.7v-3.3
		l2.9-1.7v-3.3l-2.9-1.7v-3.3l2.9-1.7v-3.3l-2.9-1.7v-3.3l2.9-1.7v-3.3l2.9-1.7l2.9,1.7l2.9-1.7v-3.3l2.9-1.7v-3.3l-2.9-1.7v-3.3
		l2.9-1.7v-3.3l2.9-1.7l2.9,1.7l2.9-1.7v-3.3l2.9-1.7v-3.3l2.9-1.7v-3.3l-2.9-1.7l-2.9,1.7v3.3l-2.9,1.7v3.3l-2.9,1.7l-2.9-1.7v-3.3
		l-2.9-1.7v-3.3l2.9-1.7v-3.3l2.9-1.7v-3.3l2.9-1.7v-3.3l-2.9-1.7v-3.3l-2.9-1.7v-3.3l-2.9-1.7v-3.3l2.9-1.7v-3.3l2.9-1.7v-3.3
		l-2.9-1.7v-3.3l2.9-1.7v-3.3"/>
	<path vector-effect="none" fill="none" stroke="#FFFFFF" stroke-linecap="square" stroke-linejoin="bevel" d="M238.1,1260.8
		l-2.9,1.7v3.3l-2.9,1.7v3.3l-2.9,1.7v3.3l-2.9,1.7v3.3l-2.9,1.7v3.3l-2.9,1.7l-2.9-1.7l-2.9,1.7v3.3l-2.9,1.7l-2.9-1.7l-2.9,1.7
		l-2.9-1.7l-2.9,1.7l-2.9-1.7l-2.9,1.7v3.3l-2.9,1.7l-2.9-1.7l-2.9,1.7v3.3l-2.9,1.7l-2.9-1.7l-2.9,1.7v3.3l-2.9,1.7l-2.9-1.7
		l-2.9,1.7v3.3l-2.9,1.7v3.3l-2.9,1.7v3.3l-2.9,1.7l-2.9-1.7l-2.9,1.7v3.3l-2.9,1.7l-2.9-1.7l-2.9,1.7v3.3l-2.9,1.7l-2.9-1.7
		l-2.9,1.7l-2.9-1.7v-3.3l-2.9-1.7v-3.3l-2.9-1.7l-2.9,1.7l-2.9-1.7v-3.3l2.9-1.7v-3.3l-2.9-1.7v-3.3l-2.9-1.7l-2.9,1.7l-2.9-1.7
		v-3.3l-2.9-1.7v-3.3l-2.9-1.7v-3.3l-2.9-1.7"/>
	<path vector-effect="none" fill="none" stroke="#FFFFFF" stroke-linecap="square" stroke-linejoin="bevel" d="M365.2,1250.8
		l-2.9,1.7v3.3l-2.9,1.7v3.3l-2.9,1.7l-2.9-1.7v-3.3l-2.9-1.7v-3.3l-2.9-1.7l-2.9,1.7v3.3l-2.9,1.7l-2.9-1.7v-3.3l-2.9-1.7v-3.3
		l-2.9-1.7v-3.3l-2.9-1.7l-2.9,1.7l-2.9-1.7l-2.9,1.7v3.3l-2.9,1.7v3.3l-2.9,1.7v3.3l-2.9,1.7v3.3l2.9,1.7v3.3l-2.9,1.7l-2.9-1.7
		v-3.3l-2.9-1.7l-2.9,1.7l-2.9-1.7l-2.9,1.7l-2.9-1.7l-2.9,1.7v3.3l-2.9,1.7l-2.9-1.7l-2.9,1.7l-2.9-1.7l-2.9,1.7l-2.9-1.7l-2.9,1.7
		l-2.9-1.7l-2.9,1.7l-2.9-1.7l-2.9,1.7"/>
	<path vector-effect="none" fill="none" stroke="#FFFFFF" stroke-linecap="square" stroke-linejoin="bevel" d="M261.1,1267.4v3.3
		l-2.9,1.7l-2.9-1.7l-2.9,1.7l-2.9-1.7l-2.9,1.7l-2.9-1.7v-3.3l-2.9-1.7v-3.3l2.9-1.7v-3.3l-2.9-1.7v-3.3l2.9-1.7v-3.3l-2.9-1.7
		v-3.3l2.9-1.7v-3.3l-2.9-1.7v-3.3l-2.9-1.7v-3.3l-2.9-1.7v-3.3l-2.9-1.7v-3.3l-2.9-1.7v-3.3l-2.9-1.7v-3.3l-2.9-1.7v-3.3l-2.9-1.7
		l-2.9,1.7l-2.9-1.7v-3.3l-2.9-1.7v-3.3l-2.9-1.7v-3.3l-2.9-1.7v-3.3l-2.9-1.7v-3.3l2.9-1.7v-3.3l2.9-1.7v-3.3l-2.9-1.7v-3.3
		l-2.9-1.7v-3.3l2.9-1.7v-3.3l-2.9-1.7v-3.3l-2.9-1.7l-2.9,1.7l-2.9-1.7v-3.3l-2.9-1.7v-3.3l-2.9-1.7l-2.9,1.7l-2.9-1.7v-3.3
		l2.9-1.7l2.9,1.7l2.9-1.7l2.9,1.7l2.9-1.7v-3.3l2.9-1.7l2.9,1.7v3.3l2.9,1.7l2.9-1.7l2.9,1.7l2.9-1.7l2.9,1.7v3.3l2.9,1.7l2.9-1.7
		l2.9,1.7v3.3l2.9,1.7l2.9-1.7l2.9,1.7l2.9-1.7l2.9,1.7v3.3l2.9,1.7v3.3l2.9,1.7l2.9-1.7l2.9,1.7l2.9-1.7l2.9,1.7l2.9-1.7l2.9,1.7
		v3.3l2.9,1.7l2.9-1.7l2.9,1.7l2.9-1.7l2.9,1.7l2.9-1.7l2.9,1.7l2.9-1.7l2.9,1.7l2.9-1.7v-3.3l2.9-1.7v-3.3l-2.9-1.7v-3.3"/>
	<path vector-effect="none" fill="none" stroke="#FFFFFF" stroke-linecap="square" stroke-linejoin="bevel" d="M76.3,1290.6
		l-2.9,1.7l-2.9-1.7l-2.9,1.7l-2.9-1.7v-3.3l2.9-1.7v-3.3l-2.9-1.7v-3.3l-2.9-1.7v-3.3l2.9-1.7v-3.3l2.9-1.7l2.9,1.7v3.3l2.9,1.7
		v3.3l2.9,1.7v3.3l2.9,1.7v3.3l-2.9,1.7V1290.6"/>
	<path vector-effect="none" fill="none" stroke="#FFFFFF" stroke-linecap="square" stroke-linejoin="bevel" d="M104.3,1290.8
		l2.9,1.7v3.3l2.9,1.7v3.3l2.9,1.7v3.3l2.9,1.7l2.9-1.7l2.9,1.7v3.3l2.9,1.7v3.3l-2.9,1.7v3.3l2.9,1.7l2.9-1.7l2.9,1.7v3.3l2.9,1.7
		v3.3l-2.9,1.7v3.3l-2.9,1.7l-2.9-1.7l-2.9,1.7v3.3l-2.9,1.7l-2.9-1.7l-2.9,1.7v3.3l2.9,1.7v3.3l-2.9,1.7v3.3l-2.9,1.7v3.3l2.9,1.7
		v3.3l2.9,1.7v3.3l2.9,1.7l2.9-1.7v-3.3l2.9-1.7l2.9,1.7v3.3l-2.9,1.7v3.3l2.9,1.7v3.3l-2.9,1.7l-2.9-1.7l-2.9,1.7v3.3l-2.9,1.7v3.3
		l2.9,1.7v3.3l2.9,1.7l2.9-1.7l2.9,1.7v3.3l2.9,1.7v3.3l2.9,1.7l2.9-1.7l2.9,1.7v3.3l2.9,1.7v3.3l2.9,1.7v3.3l2.9,1.7v3.3l2.9,1.7
		v3.3l2.9,1.7v3.3l-2.9,1.7v3.3l2.9,1.7v3.3l2.9,1.7v3.3l-2.9,1.7v3.3l-2.9,1.7"/>
	<path vector-effect="none" fill="none" stroke="#FFFFFF" stroke-linecap="square" stroke-linejoin="bevel" d="M419.9,1402.6
		l2.9-1.7l2.9,1.7v3.3l-2.9,1.7v3.3l-2.9,1.7v3.3l2.9,1.7v3.3l-2.9,1.7v3.3l2.9,1.7v3.3l2.9,1.7v3.3l2.9,1.7v3.3l-2.9,1.7v3.3
		l2.9,1.7v3.3l-2.9,1.7l-2.9-1.7l-2.9,1.7v3.3l-2.9,1.7v3.3l2.9,1.7v3.3l2.9,1.7v3.3l2.9,1.7v3.3l-2.9,1.7v3.3l-2.9,1.7v3.3
		l-2.9,1.7v3.3l-2.9,1.7v3.3l2.9,1.7v3.3l-2.9,1.7l-2.9-1.7v-3.3l-2.9-1.7l-2.9,1.7v3.3l2.9,1.7v3.3l-2.9,1.7v3.3l-2.9,1.7v3.3
		l-2.9,1.7v3.3l-2.9,1.7v3.3l-2.9,1.7v3.3l-2.9,1.7l-2.9-1.7l-2.9,1.7l-2.9-1.7v-3.3l-2.9-1.7l-2.9,1.7v3.3l-2.9,1.7l-2.9-1.7
		l-2.9,1.7v3.3l-2.9,1.7l-2.9-1.7l-2.9,1.7l-2.9-1.7l-2.9,1.7l-2.9-1.7v-3.3l-2.9-1.7l-2.9,1.7l-2.9-1.7v-3.3l-2.9-1.7l-2.9,1.7v3.3
		l-2.9,1.7l-2.9-1.7l-2.9,1.7l-2.9-1.7v-3.3l-2.9-1.7v-3.3l-2.9-1.7v-3.3l-2.9-1.7l-2.9,1.7l-2.9-1.7l-2.9,1.7l-2.9-1.7v-3.3
		l-2.9-1.7v-3.3l-2.9-1.7v-3.3l-2.9-1.7v-3.3l-2.9-1.7v-3.3l-2.9-1.7l-2.9,1.7l-2.9-1.7v-3.3l-2.9-1.7v-3.3l-2.9-1.7l-2.9,1.7
		l-2.9-1.7v-3.3l-2.9-1.7v-3.3l-2.9-1.7v-3.3l2.9-1.7v-3.3l2.9-1.7v-3.3l-2.9-1.7v-3.3l-2.9-1.7l-2.9,1.7l-2.9-1.7v-3.3l2.9-1.7
		l2.9,1.7l2.9-1.7v-3.3l2.9-1.7v-3.3l-2.9-1.7v-3.3l2.9-1.7v-3.3l2.9-1.7v-3.3l2.9-1.7l2.9,1.7l2.9-1.7l2.9,1.7l2.9-1.7v-3.3
		l2.9-1.7l2.9,1.7l2.9-1.7v-3.3l2.9-1.7v-3.3l2.9-1.7v-3.3l2.9-1.7l2.9,1.7l2.9-1.7l2.9,1.7l2.9-1.7v-3.3l2.9-1.7l2.9,1.7l2.9-1.7
		v-3.3l2.9-1.7l2.9,1.7l2.9-1.7v-3.3l2.9-1.7l2.9,1.7l2.9-1.7v-3.3l2.9-1.7l2.9,1.7l2.9-1.7v-3.3l2.9-1.7l2.9,1.7l2.9-1.7l2.9,1.7
		l2.9-1.7l2.9,1.7l2.9-1.7l2.9,1.7l2.9-1.7l2.9,1.7v3.3l2.9,1.7v3.3l2.9,1.7l2.9-1.7l2.9,1.7v3.3l2.9,1.7l2.9-1.7l2.9,1.7l2.9-1.7
		l2.9,1.7l2.9-1.7l2.9,1.7v3.3l2.9,1.7v3.3L419.9,1402.6"/>
</g>
</svg>
