<?xml version="1.0" encoding="utf-8"?>
<!-- Generator: Adobe Illustrator 18.0.0, SVG Export Plug-In . SVG Version: 6.00 Build 0)  -->
<!DOCTYPE svg PUBLIC "-//W3C//DTD SVG 1.1//EN" "http://www.w3.org/Graphics/SVG/1.1/DTD/svg11.dtd">
<svg version="1.1" id="map" xmlns="http://www.w3.org/2000/svg" xmlns:xlink="http://www.w3.org/1999/xlink" x="0px" y="0px"
	 viewBox="113.608 1030.956 302.865 500.397" enable-background="new 113.608 1030.956 302.865 500.397" xml:space="preserve">
<g id="bg">
	<g transform="matrix(0.999751,0,0,0.999751,-2.27374e-13,0)">
		
			<path vector-effect="none" fill="#ECECEC" stroke="#000000" stroke-width="3.0709" stroke-linecap="square" stroke-linejoin="bevel" stroke-opacity="0" d="
			M443.7,1101.6h3.1l1.6-2.7h3.1l1.6-2.7h3.1l1.6,2.7l-1.6,2.7l1.6,2.7h3.1l1.6,2.7h3.1l1.6,2.7h3.1l1.6,2.7h3.1l1.6,2.7l-1.6,2.7
			l1.6,2.7h3.1l1.6,2.7h3.1l1.6,2.7l-1.6,2.7l1.6,2.7l-1.6,2.7l1.6,2.7l-1.6,2.7l1.6,2.7l-1.6,2.7l1.6,2.7l-1.6,2.7H481l-1.6,2.7
			l1.6,2.7l-1.6,2.7h-3.1l-1.6-2.7h-3.1l-1.6,2.7H467l-1.6,2.7l1.6,2.7l-1.6,2.7h-3.1l-1.6,2.7h-3.1l-1.6-2.7H453l-1.6-2.7h-3.1
			l-1.6,2.7h-3.1l-1.6-2.7H439l-1.6-2.7h-3.1l-1.6-2.7l1.6-2.7l-1.6-2.7h-3.1l-1.6-2.7l1.6-2.7l-1.6-2.7H425l-1.6,2.7h-3.1l-1.6,2.7
			l1.6,2.7l-1.6,2.7h-3.1l-1.6-2.7H411l-1.6-2.7h-3.1l-1.6-2.7l-3.1,0l-1.6-2.7l1.6-2.7h3.1l1.6-2.7l-1.6-2.7l1.6-2.7h3.1l1.6-2.7
			h3.1l1.6-2.7l-1.6-2.7l1.6-2.7l-1.6-2.7l1.6-2.7l-1.6-2.7l1.6-2.7l-1.6-2.7l1.6-2.7h3.1l1.6,2.7h3.1l1.6-2.7h3.1l1.6-2.7h3.1
			l1.6-2.7h3.1l1.6-2.7h3.1L443.7,1101.6"/>
		
			<path vector-effect="none" fill="#ECECEC" stroke="#000000" stroke-width="3.0709" stroke-linecap="square" stroke-linejoin="bevel" stroke-opacity="0" d="
			M856.8,1351.8l2.9,1.7v3.3l-2.9,1.7v3.3l2.9,1.7v3.3l2.9,1.7v3.3l-2.9,1.7v3.3l-2.9,1.7v3.3l-2.9,1.7v3.3l2.9,1.7v3.3l2.9,1.7v3.3
			l-2.9,1.7v3.3l2.9,1.7v3.3l-2.9,1.7l-2.9-1.7l-2.9,1.7v3.3l2.9,1.7v3.3l2.9,1.7v3.3l2.9,1.7l2.9-1.7l2.9,1.7v3.3l2.9,1.7v3.3
			l2.9,1.7v3.3l-2.9,1.7v3.3l-2.9,1.7v3.3l-2.9,1.7l-2.9-1.7l-2.9,1.7l-2.9-1.7l-2.9,1.7v3.3l-2.9,1.7v3.3l-2.9,1.7v3.3l2.9,1.7
			l2.9-1.7l2.9,1.7l2.9-1.7l2.9,1.7l2.9-1.7l2.9,1.7l2.9-1.7v-3.3l2.9-1.7l2.9,1.7l2.9-1.7l2.9,1.7v3.3l-2.9,1.7v3.3l2.9,1.7v3.3
			l-2.9,1.7v3.3l-2.9,1.7v3.3l-2.9,1.7v3.3l2.9,1.7v3.3l-2.9,1.7v3.3l-2.9,1.7v3.3l-2.9,1.7v3.3l-2.9,1.7v3.3l-2.9,1.7l-2.9-1.7
			l-2.9,1.7v3.3l-2.9,1.7v3.3l-2.9,1.7v3.3l-2.9,1.7v3.3l-2.9,1.7v3.3l-2.9,1.7l-2.9-1.7l-2.9,1.7l-2.9-1.7l-2.9,1.7v3.3l-2.9,1.7
			v3.3l-2.9,1.7l-2.9-1.7l-2.9,1.7v3.3l-2.9,1.7l-2.9-1.7l-2.9,1.7v3.3l-2.9,1.7l-2.9-1.7l-2.9,1.7v3.3l-2.9,1.7v3.3l-2.9,1.7
			l-2.9-1.7l-2.9,1.7v3.3l-2.9,1.7l-2.9-1.7l-2.9,1.7l-2.9-1.7v-3.3l-2.9-1.7l-2.9,1.7v3.3l-2.9,1.7v3.3l-2.9,1.7l-2.9-1.7l-2.9,1.7
			l-2.9-1.7l-2.9,1.7l-2.9-1.7v-3.3l-2.9-1.7l-2.9,1.7l-2.9-1.7l-2.9,1.7l-2.9-1.7l-2.9,1.7l-2.9-1.7l-2.9,1.7l-2.9-1.7l-2.9,1.7
			l-2.9-1.7l-2.9,1.7l-2.9-1.7l-2.9,1.7l-2.9-1.7l-2.9,1.7l-2.9-1.7l-2.9,1.7l-2.9-1.7l-2.9,1.7l-2.9-1.7l-2.9,1.7l-2.9-1.7
			l-2.9,1.7v3.3l-2.9,1.7l-2.9-1.7l-2.9,1.7l-2.9-1.7l-2.9,1.7l-2.9-1.7v-3.3l-2.9-1.7v-3.3l-2.9-1.7l-2.9,1.7l-2.9-1.7v-3.3
			l-2.9-1.7l-2.9,1.7l-2.9-1.7v-3.3l-2.9-1.7l-2.9,1.7l-2.9-1.7v-3.3l-2.9-1.7v-3.3l-2.9-1.7l-2.9,1.7v3.3l-2.9,1.7v3.3l2.9,1.7v3.3
			l-2.9,1.7v3.3l-2.9,1.7l-2.9-1.7l-2.9,1.7l-2.9-1.7v-3.3l-2.9-1.7l-2.9,1.7l-2.9-1.7l-2.9,1.7l-2.9-1.7l-2.9,1.7v3.3l-2.9,1.7
			l-2.9-1.7v-3.3l-2.9-1.7l-2.9,1.7l-2.9-1.7v-3.3l-2.9-1.7v-3.3l-2.9-1.7v-3.3l-2.9-1.7v-3.3l-2.9-1.7l-2.9,1.7l-2.9-1.7l-2.9,1.7
			l-2.9-1.7v-3.3l-2.9-1.7l-2.9,1.7l-2.9-1.7l-2.9,1.7l-2.9-1.7l-2.9,1.7l-2.9-1.7l-2.9,1.7v3.3l-2.9,1.7l-2.9-1.7l-2.9,1.7
			l-2.9-1.7l-2.9,1.7l-2.9-1.7v-3.3l-2.9-1.7l-2.9,1.7v3.3l2.9,1.7v3.3l2.9,1.7v3.3l2.9,1.7v3.3l2.9,1.7v3.3l2.9,1.7v3.3l-2.9,1.7
			v3.3l-2.9,1.7l-2.9-1.7l-2.9,1.7l-2.9-1.7l-2.9,1.7l-2.9-1.7l-2.9,1.7l-2.9-1.7l-2.9,1.7l-2.9-1.7l-2.9,1.7l-2.9-1.7l-2.9,1.7
			l-2.9-1.7v-3.3l-2.9-1.7l-2.9,1.7l-2.9-1.7v-3.3l-2.9-1.7v-3.3l-2.9-1.7l-2.9,1.7l-2.9-1.7l-2.9,1.7v3.3l-2.9,1.7v3.3l-2.9,1.7
			l-2.9-1.7l-2.9,1.7v3.3l-2.9,1.7v3.3l-2.9,1.7l-2.9-1.7l-2.9,1.7v3.3l2.9,1.7v3.3l-2.9,1.7v3.3l-2.9,1.7v3.3l-2.9,1.7l-2.9-1.7
			v-3.3l-2.9-1.7v-3.3l-2.9-1.7l-2.9,1.7l-2.9-1.7v-3.3l-2.9-1.7l-2.9,1.7v3.3l-2.9,1.7l-2.9-1.7v-3.3l2.9-1.7v-3.3l2.9-1.7l2.9,1.7
			l2.9-1.7v-3.3l2.9-1.7l2.9,1.7l2.9-1.7v-3.3l2.9-1.7l2.9,1.7l2.9-1.7v-3.3l2.9-1.7v-3.3l2.9-1.7v-3.3l2.9-1.7v-3.3l2.9-1.7v-3.3
			l2.9-1.7l2.9,1.7l2.9-1.7l2.9,1.7l2.9-1.7v-3.3l2.9-1.7v-3.3l2.9-1.7l2.9,1.7l2.9-1.7v-3.3l2.9-1.7v-3.3l2.9-1.7l2.9,1.7l2.9-1.7
			v-3.3l2.9-1.7l2.9,1.7l2.9-1.7v-3.3l-2.9-1.7v-3.3l-2.9-1.7v-3.3l2.9-1.7l2.9,1.7l2.9-1.7l2.9,1.7l2.9-1.7l2.9,1.7v3.3l2.9,1.7
			l2.9-1.7l2.9,1.7l2.9-1.7l2.9,1.7v3.3l2.9,1.7l2.9-1.7l2.9,1.7l2.9-1.7l2.9,1.7l2.9-1.7l2.9,1.7l2.9-1.7v-3.3l2.9-1.7v-3.3
			l-2.9-1.7v-3.3l-2.9-1.7v-3.3l2.9-1.7v-3.3l2.9-1.7v-3.3l2.9-1.7v-3.3l-2.9-1.7v-3.3l2.9-1.7v-3.3l2.9-1.7v-3.3l2.9-1.7v-3.3
			l-2.9-1.7l-2.9,1.7v3.3l-2.9,1.7v3.3l-2.9,1.7v3.3l-2.9,1.7v3.3l-2.9,1.7v3.3l-2.9,1.7v3.3l-2.9,1.7v3.3l-2.9,1.7l-2.9-1.7
			l-2.9,1.7l-2.9-1.7l-2.9,1.7l-2.9-1.7v-3.3l-2.9-1.7v-3.3l-2.9-1.7v-3.3l-2.9-1.7l-2.9,1.7l-2.9-1.7l-2.9,1.7l-2.9-1.7v-3.3
			l-2.9-1.7v-3.3l2.9-1.7v-3.3l-2.9-1.7v-3.3l2.9-1.7v-3.3l-2.9-1.7v-3.3l2.9-1.7v-3.3l-2.9-1.7l-2.9,1.7v3.3l-2.9,1.7v3.3l-2.9,1.7
			l-2.9-1.7l-2.9,1.7l-2.9-1.7v-3.3l-2.9-1.7l-2.9,1.7l-2.9-1.7v-3.3l2.9-1.7v-3.3l-2.9-1.7v-3.3l2.9-1.7v-3.3l2.9-1.7v-3.3
			l-2.9-1.7l-2.9,1.7l-2.9-1.7l-2.9,1.7v3.3l-2.9,1.7l-2.9-1.7l-2.9,1.7l-2.9-1.7l-2.9,1.7l-2.9-1.7v-3.3l2.9-1.7v-3.3l2.9-1.7v-3.3
			l2.9-1.7v-3.3l2.9-1.7l2.9,1.7l2.9-1.7v-3.3l2.9-1.7l2.9,1.7l2.9-1.7l2.9,1.7l2.9-1.7l2.9,1.7l2.9-1.7v-3.3l2.9-1.7v-3.3l2.9-1.7
			v-3.3l2.9-1.7v-3.3l2.9-1.7v-3.3l2.9-1.7l2.9,1.7l2.9-1.7v-3.3l2.9-1.7l2.9,1.7l2.9-1.7v-3.3l2.9-1.7v-3.3l-2.9-1.7v-3.3l-2.9-1.7
			l-2.9,1.7l-2.9-1.7v-3.3l-2.9-1.7v-3.3l-2.9-1.7v-3.3l-2.9-1.7v-3.3l-2.9-1.7v-3.3l-2.9-1.7v-3.3l-2.9-1.7v-3.3l-2.9-1.7v-3.3
			l-2.9-1.7v-3.3l-2.9-1.7v-3.3l2.9-1.7v-3.3l-2.9-1.7v-3.3l2.9-1.7l2.9,1.7l2.9-1.7l2.9,1.7l2.9-1.7l2.9,1.7v3.3l2.9,1.7l2.9-1.7
			v-3.3l2.9-1.7v-3.3l2.9-1.7l2.9,1.7l2.9-1.7v-3.3l-2.9-1.7v-3.3l-2.9-1.7v-3.3l2.9-1.7v-3.3l-2.9-1.7v-3.3l2.9-1.7v-3.3l2.9-1.7
			l2.9,1.7l2.9-1.7v-3.3l-2.9-1.7v-3.3l2.9-1.7v-3.3l2.9-1.7v-3.3l-2.9-1.7v-3.3l2.9-1.7v-3.3l2.9-1.7v-3.3l-2.9-1.7v-3.3l2.9-1.7
			v-3.3l2.9-1.7v-3.3l2.9-1.7v-3.3l2.9-1.7v-3.3l2.9-1.7v-3.3l2.9-1.7v-3.3l-2.9-1.7v-3.3l2.9-1.7v-3.3l-2.9-1.7v-3.3l2.9-1.7v-3.3
			l2.9-1.7l2.9,1.7l2.9-1.7v-3.3l2.9-1.7v-3.3l-2.9-1.7v-3.3l2.9-1.7v-3.3l2.9-1.7l2.9,1.7l2.9-1.7v-3.3l2.9-1.7v-3.3l2.9-1.7v-3.3
			l-2.9-1.7l-2.9,1.7v3.3l-2.9,1.7v3.3l-2.9,1.7l-2.9-1.7v-3.3l-2.9-1.7v-3.3l2.9-1.7v-3.3l2.9-1.7v-3.3l2.9-1.7v-3.3l-2.9-1.7v-3.3
			l-2.9-1.7v-3.3l-2.9-1.7v-3.3l2.9-1.7v-3.3l2.9-1.7v-3.3l-2.9-1.7v-3.3l2.9-1.7v-3.3l2.9-1.7v-3.3l-2.9-1.7l-2.9,1.7l-2.9-1.7
			l-2.9,1.7v3.3l-2.9,1.7l-2.9-1.7l-2.9,1.7l-2.9-1.7l-2.9,1.7v3.3l-2.9,1.7l-2.9-1.7l-2.9,1.7l-2.9-1.7l-2.9,1.7l-2.9-1.7l-2.9,1.7
			v3.3l-2.9,1.7l-2.9-1.7v-3.3l-2.9-1.7l-2.9,1.7l-2.9-1.7v-3.3l2.9-1.7l2.9,1.7l2.9-1.7v-3.3l-2.9-1.7v-3.3l2.9-1.7v-3.3l-2.9-1.7
			v-3.3l2.9-1.7v-3.3l-2.9-1.7v-3.3l-2.9-1.7v-3.3l-2.9-1.7v-3.3l-2.9-1.7l-2.9,1.7l-2.9-1.7v-3.3l-2.9-1.7v-3.3l-2.9-1.7v-3.3
			l-2.9-1.7v-3.3l2.9-1.7v-3.3l2.9-1.7v-3.3l2.9-1.7v-3.3l-2.9-1.7v-3.3l2.9-1.7v-3.3l-2.9-1.7v-3.3l2.9-1.7v-3.3l-2.9-1.7v-3.3
			l2.9-1.7v-3.3l-2.9-1.7l-2.9,1.7l-2.9-1.7v-3.3l2.9-1.7v-3.3l2.9-1.7v-3.3l2.9-1.7v-3.3l2.9-1.7l2.9,1.7l2.9-1.7l2.9,1.7l2.9-1.7
			v-3.3l2.9-1.7v-3.3l2.9-1.7l2.9,1.7l2.9-1.7v-3.3l-2.9-1.7v-3.3l-2.9-1.7l-2.9,1.7l-2.9-1.7v-3.3l2.9-1.7v-3.3l-2.9-1.7v-3.3
			l-2.9-1.7v-3.3l2.9-1.7v-3.3l2.9-1.7v-3.3l-2.9-1.7v-3.3l-2.9-1.7v-3.3l-2.9-1.7v-3.3l2.9-1.7l2.9,1.7v3.3l2.9,1.7l2.9-1.7v-3.3
			l2.9-1.7v-3.3l2.9-1.7l2.9,1.7v3.3l2.9,1.7v3.3l-2.9,1.7v3.3l-2.9,1.7v3.3l-2.9,1.7v3.3l2.9,1.7v3.3l2.9,1.7l2.9-1.7l2.9,1.7v3.3
			l2.9,1.7l2.9-1.7l2.9,1.7l2.9-1.7v-3.3l2.9-1.7l2.9,1.7l2.9-1.7v-3.3l2.9-1.7l2.9,1.7l2.9-1.7l2.9,1.7l2.9-1.7v-3.3l2.9-1.7
			l2.9,1.7l2.9-1.7l2.9,1.7l2.9-1.7l2.9,1.7l2.9-1.7v-3.3l2.9-1.7l2.9,1.7l2.9-1.7l2.9,1.7l2.9-1.7l2.9,1.7v3.3l-2.9,1.7v3.3
			l2.9,1.7v3.3l2.9,1.7v3.3l-2.9,1.7v3.3l-2.9,1.7v3.3l-2.9,1.7l-2.9-1.7l-2.9,1.7l-2.9-1.7l-2.9,1.7l-2.9-1.7l-2.9,1.7l-2.9-1.7
			l-2.9,1.7l-2.9-1.7l-2.9,1.7v3.3l-2.9,1.7v3.3l2.9,1.7v3.3l2.9,1.7v3.3l2.9,1.7v3.3l-2.9,1.7l-2.9-1.7l-2.9,1.7v3.3l2.9,1.7v3.3
			l2.9,1.7l2.9-1.7l2.9,1.7v3.3l2.9,1.7l2.9-1.7l2.9,1.7v3.3l2.9,1.7l2.9-1.7l2.9,1.7v3.3l-2.9,1.7l-2.9-1.7l-2.9,1.7l-2.9-1.7
			l-2.9,1.7v3.3l-2.9,1.7v3.3l-2.9,1.7l-2.9-1.7v-3.3l-2.9-1.7l-2.9,1.7l-2.9-1.7l-2.9,1.7l-2.9-1.7l-2.9,1.7l-2.9-1.7l-2.9,1.7v3.3
			l2.9,1.7v3.3l2.9,1.7l2.9-1.7l2.9,1.7l2.9-1.7l2.9,1.7l2.9-1.7l2.9,1.7v3.3l2.9,1.7v3.3l2.9,1.7v3.3l2.9,1.7l2.9-1.7l2.9,1.7
			l2.9-1.7l2.9,1.7v3.3l2.9,1.7v3.3l2.9,1.7v3.3l2.9,1.7v3.3l-2.9,1.7v3.3l-2.9,1.7v3.3l2.9,1.7v3.3l2.9,1.7l2.9-1.7l2.9,1.7v3.3
			l2.9,1.7v3.3l2.9,1.7l2.9-1.7l2.9,1.7l2.9-1.7l2.9,1.7l2.9-1.7l2.9,1.7l2.9-1.7l2.9,1.7v3.3l2.9,1.7l2.9-1.7l2.9,1.7v3.3l2.9,1.7
			l2.9-1.7l2.9,1.7v3.3l2.9,1.7l2.9-1.7l2.9,1.7v3.3l2.9,1.7l2.9-1.7l2.9,1.7v3.3l2.9,1.7l2.9-1.7l2.9,1.7v3.3l-2.9,1.7v3.3l2.9,1.7
			v3.3l2.9,1.7v3.3l-2.9,1.7v3.3l2.9,1.7v3.3l2.9,1.7v3.3l2.9,1.7v3.3l2.9,1.7l2.9-1.7l2.9,1.7v3.3l2.9,1.7l2.9-1.7l2.9,1.7v3.3
			l2.9,1.7v3.3l2.9,1.7l2.9-1.7l2.9,1.7v3.3l2.9,1.7v3.3l2.9,1.7v3.3l2.9,1.7v3.3l-2.9,1.7v3.3l2.9,1.7v3.3l2.9,1.7v3.3l2.9,1.7
			l2.9-1.7l2.9,1.7v3.3l2.9,1.7v3.3l2.9,1.7l2.9-1.7l2.9,1.7v3.3l2.9,1.7l2.9-1.7l2.9,1.7v3.3l2.9,1.7l2.9-1.7l2.9,1.7l2.9-1.7
			l2.9,1.7v3.3l2.9,1.7v3.3l2.9,1.7v3.3l2.9,1.7v3.3l-2.9,1.7v3.3l-2.9,1.7l-2.9-1.7l-2.9,1.7l-2.9-1.7l-2.9,1.7v3.3l2.9,1.7
			l2.9-1.7l2.9,1.7v3.3l2.9,1.7l2.9-1.7l2.9,1.7v3.3l2.9,1.7v3.3l-2.9,1.7v3.3l2.9,1.7v3.3l2.9,1.7v3.3l-2.9,1.7v3.3l2.9,1.7v3.3
			l2.9,1.7v3.3l2.9,1.7v3.3l2.9,1.7v3.3l-2.9,1.7v3.3l-2.9,1.7v3.3l-2.9,1.7v3.3l2.9,1.7l2.9-1.7l2.9,1.7v3.3l2.9,1.7v3.3l2.9,1.7
			l2.9-1.7l2.9,1.7l2.9-1.7v-3.3l2.9-1.7l2.9,1.7l2.9-1.7v-3.3l2.9-1.7l2.9,1.7l2.9-1.7l2.9,1.7l2.9-1.7l2.9,1.7v3.3l2.9,1.7
			l2.9-1.7l2.9,1.7l2.9-1.7l2.9,1.7l2.9-1.7l2.9,1.7v3.3l2.9,1.7l2.9-1.7l2.9,1.7v3.3l2.9,1.7l2.9-1.7l2.9,1.7v3.3l2.9,1.7v3.3
			l-2.9,1.7v3.3l2.9,1.7v3.3l2.9,1.7v3.3l2.9,1.7v3.3l2.9,1.7v3.3l-2.9,1.7l-2.9-1.7l-2.9,1.7L856.8,1351.8"/>
		
			<path vector-effect="none" fill="#ECECEC" stroke="#000000" stroke-width="3.0709" stroke-linecap="square" stroke-linejoin="bevel" stroke-opacity="0" d="
			M637.4,1578.1l-2.9-1.7l-2.9,1.7l-2.9-1.7l-2.9,1.7l-2.9-1.7l0-3.3l2.9-1.7l0-3.3l2.9-1.7l0-3.3l2.9-1.7l2.9,1.7l2.9-1.7l2.9,1.7
			l0,3.3l2.9,1.7l0,3.3l-2.9,1.7l0,3.3L637.4,1578.1"/>
		
			<path vector-effect="none" fill="#ECECEC" stroke="#000000" stroke-width="3.0709" stroke-linecap="square" stroke-linejoin="bevel" stroke-opacity="0" d="
			M455.9,997.1l-2.9,1.7l-2.9-1.7v-3.3l2.9-1.7l2.9,1.7V997.1"/>
		
			<path vector-effect="none" fill="#ECECEC" stroke="#000000" stroke-width="3.0709" stroke-linecap="square" stroke-linejoin="bevel" stroke-opacity="0" d="
			M464.5,992.2l-2.9,1.7l-2.9-1.7v-3.3l2.9-1.7v-3.3l2.9-1.7l2.9,1.7v3.3l-2.9,1.7V992.2"/>
		
			<path vector-effect="none" fill="#ECECEC" stroke="#000000" stroke-width="3.0709" stroke-linecap="square" stroke-linejoin="bevel" stroke-opacity="0" d="
			M467.4,977.2l-2.9,1.7l-2.9-1.7l-2.9,1.7l-2.9-1.7v-3.3l2.9-1.7v-3.3l2.9-1.7l2.9,1.7v3.3l2.9,1.7V977.2"/>
		
			<path vector-effect="none" fill="#ECECEC" stroke="#000000" stroke-width="3.0709" stroke-linecap="square" stroke-linejoin="bevel" stroke-opacity="0" d="
			M450.1,937.2l-2.9,1.7l-2.9-1.7v-3.3l2.9-1.7v-3.3l2.9-1.7l2.9,1.7v3.3l-2.9,1.7V937.2"/>
		
			<path vector-effect="none" fill="#ECECEC" stroke="#000000" stroke-width="3.0709" stroke-linecap="square" stroke-linejoin="bevel" stroke-opacity="0" d="
			M458.8,922.2l-2.9,1.7l-2.9-1.7v-3.3l-2.9-1.7v-3.3l2.9-1.7l2.9,1.7v3.3l2.9,1.7V922.2"/>
		
			<path vector-effect="none" fill="#ECECEC" stroke="#000000" stroke-width="3.0709" stroke-linecap="square" stroke-linejoin="bevel" stroke-opacity="0" d="
			M470.3,898.9v3.3l-2.9,1.7v3.3l-2.9,1.7v3.3l-2.9,1.7l-2.9-1.7v-3.3l-2.9-1.7v-3.3l2.9-1.7v-3.3l2.9-1.7l2.9,1.7l2.9-1.7
			L470.3,898.9"/>
		
			<path vector-effect="none" fill="#ECECEC" stroke="#000000" stroke-width="3.0709" stroke-linecap="square" stroke-linejoin="bevel" stroke-opacity="0" d="
			M467.4,1047.1l-2.9,1.7l-2.9-1.7v-3.3l-2.9-1.7v-3.3l2.9-1.7l2.9,1.7v3.3l2.9,1.7V1047.1"/>
		
			<path vector-effect="none" fill="#ECECEC" stroke="#000000" stroke-width="3.0709" stroke-linecap="square" stroke-linejoin="bevel" stroke-opacity="0" d="
			M519.4,887.2l-2.9,1.7l-2.9-1.7v-3.3l2.9-1.7l2.9,1.7V887.2"/>
		
			<path vector-effect="none" fill="#ECECEC" stroke="#000000" stroke-width="3.0709" stroke-linecap="square" stroke-linejoin="bevel" stroke-opacity="0" d="
			M525.1,877.3l2.9,1.7v3.3l-2.9,1.7l-2.9-1.7v-3.3l-2.9-1.7l-2.9,1.7l-2.9-1.7v-3.3l2.9-1.7v-3.3l2.9-1.7l2.9,1.7v3.3l2.9,1.7
			V877.3"/>
		
			<path vector-effect="none" fill="#ECECEC" stroke="#000000" stroke-width="3.0709" stroke-linecap="square" stroke-linejoin="bevel" stroke-opacity="0" d="
			M568.4,819v3.3l-2.9,1.7l-2.9-1.7l-2.9,1.7l-2.9-1.7V819l2.9-1.7l2.9,1.7l2.9-1.7V814l-2.9-1.7V809l2.9-1.7V804l2.9-1.7l2.9,1.7
			v3.3l-2.9,1.7v3.3l2.9,1.7v3.3L568.4,819"/>
		
			<path vector-effect="none" fill="#ECECEC" stroke="#000000" stroke-width="3.0709" stroke-linecap="square" stroke-linejoin="bevel" stroke-opacity="0" d="
			M479,923.9v3.3l-2.9,1.7v3.3l-2.9,1.7l-2.9-1.7v-3.3l-2.9-1.7v-3.3l2.9-1.7l2.9,1.7l2.9-1.7L479,923.9"/>
		
			<path vector-effect="none" fill="#ECECEC" stroke="#000000" stroke-width="3.0709" stroke-linecap="square" stroke-linejoin="bevel" stroke-opacity="0" d="
			M476.2,1291.7l-2.9,1.7l-2.9-1.7l-2.9,1.7l-2.9-1.7v-3.3l2.9-1.7v-3.3l-2.9-1.7v-3.3l-2.9-1.7v-3.3l2.9-1.7v-3.3l2.9-1.7l2.9,1.7
			v3.3l2.9,1.7v3.3l2.9,1.7v3.3l2.9,1.7v3.3l-2.9,1.7V1291.7"/>
	</g>
</g>
<g id="lab">
	
		<path id="E14000530_2_" vector-effect="none" fill="#FFB900" stroke="#FFFFFF" stroke-width="0.5" stroke-linecap="square" stroke-linejoin="bevel" d="
		M666.3,1521.3l2.9,1.7l2.9-1.7l2.9,1.7v3.3l-2.9,1.7l-2.9-1.7l-2.9,1.7l-2.9-1.7l-2.9,1.7l-2.9-1.7v-3.3l-2.9-1.7v-3.3l-2.9-1.7
		v-3.3l2.9-1.7v-3.3l-2.9-1.7v-3.3l-2.9-1.7v-3.3l2.9-1.7l2.9,1.7v3.3l2.9,1.7v3.3l2.9,1.7v3.3l2.9,1.7v3.3l2.9,1.7V1521.3"/>
	
		<path id="E14000547_2_" vector-effect="none" fill="#FFB900" stroke="#FFFFFF" stroke-width="0.5" stroke-linecap="square" stroke-linejoin="bevel" d="
		M588.4,1496.3l-2.9,1.7l-2.9-1.7l-2.9,1.7l-2.9-1.7v-3.3l-2.9-1.7v-3.3l2.9-1.7v-3.3l2.9-1.7v-3.3l2.9-1.7v-3.3l2.9-1.7l2.9,1.7
		v3.3l-2.9,1.7v3.3l2.9,1.7v3.3l-2.9,1.7v3.3l2.9,1.7V1496.3"/>
	
		<path id="E14000554_2_" vector-effect="none" fill="#FFB900" stroke="#FFFFFF" stroke-width="0.5" stroke-linecap="square" stroke-linejoin="bevel" d="
		M588.4,1053.5v3.3l2.9,1.7v3.3l-2.9,1.7v3.3l-2.9,1.7l-2.9-1.7l-2.9,1.7v3.3l-2.9,1.7v3.3l-2.9,1.7l-2.9-1.7v-3.3l2.9-1.7v-3.3
		l2.9-1.7v-3.3l-2.9-1.7v-3.3l2.9-1.7v-3.3l2.9-1.7l2.9,1.7l2.9-1.7L588.4,1053.5"/>
	
		<path id="E14000621_2_" vector-effect="none" fill="#FFB900" stroke="#FFFFFF" stroke-width="0.5" stroke-linecap="square" stroke-linejoin="bevel" d="
		M752.8,1518v3.3l2.9,1.7v3.3l-2.9,1.7v3.3l-2.9,1.7l-2.9-1.7l-2.9,1.7l-2.9-1.7v-3.3l-2.9-1.7l-2.9,1.7l-2.9-1.7v-3.3l2.9-1.7v-3.3
		l2.9-1.7l2.9,1.7l2.9-1.7l2.9,1.7l2.9-1.7L752.8,1518"/>
	
		<path id="E14000622_2_" vector-effect="none" fill="#7D0069" stroke="#FFFFFF" stroke-width="0.5" stroke-linecap="square" stroke-linejoin="bevel" d="
		M839.3,1431.4l2.9,1.7l2.9-1.7l2.9,1.7v3.3l2.9,1.7v3.3l-2.9,1.7v3.3l-2.9,1.7v3.3l-2.9,1.7l-2.9-1.7v-3.3l-2.9-1.7v-3.3l-2.9-1.7
		v-3.3l-2.9-1.7v-3.3l2.9-1.7v-3.3l2.9-1.7l2.9,1.7V1431.4"/>
	
		<path id="E14000623_2_" vector-effect="none" fill="#FFB900" stroke="#FFFFFF" stroke-width="0.5" stroke-linecap="square" stroke-linejoin="bevel" d="
		M504.8,1518v3.3l2.9,1.7l2.9-1.7l2.9,1.7v3.3l-2.9,1.7l-2.9-1.7l-2.9,1.7l-2.9-1.7v-3.3l-2.9-1.7l-2.9,1.7l-2.9-1.7l-2.9,1.7v3.3
		l2.9,1.7v3.3l2.9,1.7v3.3l2.9,1.7l2.9-1.7l2.9,1.7v3.3l-2.9,1.7l-2.9-1.7l-2.9,1.7l-2.9-1.7v-3.3l-2.9-1.7v-3.3l-2.9-1.7v-3.3
		l-2.9-1.7v-3.3l2.9-1.7v-3.3l2.9-1.7l2.9,1.7l2.9-1.7l2.9,1.7l2.9-1.7L504.8,1518"/>
	
		<path id="E14000627_2_" vector-effect="none" fill="#FFB900" stroke="#FFFFFF" stroke-width="0.5" stroke-linecap="square" stroke-linejoin="bevel" d="
		M617.3,1273.2v3.3l-2.9,1.7v3.3l-2.9,1.7l-2.9-1.7l-2.9,1.7v3.3l-2.9,1.7l-2.9-1.7l-2.9,1.7l-2.9-1.7v-3.3l-2.9-1.7v-3.3l2.9-1.7
		l2.9,1.7l2.9-1.7v-3.3l2.9-1.7l2.9,1.7l2.9-1.7l2.9,1.7l2.9-1.7L617.3,1273.2"/>
	
		<path id="E14000628_2_" vector-effect="none" fill="#FFB900" stroke="#FFFFFF" stroke-width="0.5" stroke-linecap="square" stroke-linejoin="bevel" d="
		M819.1,1386.5l2.9,1.7l2.9-1.7l2.9,1.7v3.3l2.9,1.7v3.3l2.9,1.7v3.3l-2.9,1.7v3.3l-2.9,1.7l-2.9-1.7v-3.3l-2.9-1.7v-3.3l-2.9-1.7
		v-3.3l-2.9-1.7v-3.3l-2.9-1.7v-3.3l2.9-1.7l2.9,1.7V1386.5"/>
	
		<path id="E14000630_2_" vector-effect="none" fill="#FFB900" stroke="#FFFFFF" stroke-width="0.5" stroke-linecap="square" stroke-linejoin="bevel" d="
		M597.1,1421.4l2.9,1.7l2.9-1.7l2.9,1.7v3.3l-2.9,1.7v3.3l-2.9,1.7l-2.9-1.7l-2.9,1.7l-2.9-1.7l-2.9,1.7l-2.9-1.7v-3.3l-2.9-1.7
		v-3.3l2.9-1.7l2.9,1.7l2.9-1.7v-3.3l2.9-1.7l2.9,1.7L597.1,1421.4"/>
	
		<path id="E14000635_2_" vector-effect="none" fill="#FFB900" stroke="#FFFFFF" stroke-width="0.5" stroke-linecap="square" stroke-linejoin="bevel" d="
		M600,1473v3.3l-2.9,1.7v3.3l-2.9,1.7v3.3l2.9,1.7v3.3l-2.9,1.7v3.3l-2.9,1.7l-2.9-1.7v-3.3l-2.9-1.7v-3.3l2.9-1.7v-3.3l-2.9-1.7
		v-3.3l2.9-1.7v-3.3l2.9-1.7l2.9,1.7l2.9-1.7L600,1473"/>
	
		<path id="E14000644_2_" vector-effect="none" fill="#FFB900" stroke="#FFFFFF" stroke-width="0.5" stroke-linecap="square" stroke-linejoin="bevel" d="
		M836.4,1373.1v3.3l2.9,1.7v3.3l2.9,1.7v3.3l-2.9,1.7v3.3l2.9,1.7v3.3l-2.9,1.7l-2.9-1.7v-3.3l-2.9-1.7v-3.3l-2.9-1.7v-3.3l-2.9-1.7
		v-3.3l-2.9-1.7v-3.3l2.9-1.7l2.9,1.7l2.9-1.7L836.4,1373.1"/>
	
		<path id="E14000680_2_" vector-effect="none" fill="#FFB900" stroke="#FFFFFF" stroke-width="0.5" stroke-linecap="square" stroke-linejoin="bevel" d="
		M649,1521.3l2.9,1.7l2.9-1.7l2.9,1.7v3.3l2.9,1.7l2.9-1.7l2.9,1.7v3.3l2.9,1.7v3.3l2.9,1.7v3.3l-2.9,1.7l-2.9-1.7v-3.3l-2.9-1.7
		l-2.9,1.7l-2.9-1.7v-3.3l-2.9-1.7l-2.9,1.7l-2.9-1.7v-3.3l-2.9-1.7v-3.3l-2.9-1.7v-3.3l2.9-1.7l2.9,1.7V1521.3"/>
	
		<path id="E14000684_2_" vector-effect="none" fill="#FFB900" stroke="#FFFFFF" stroke-width="0.5" stroke-linecap="square" stroke-linejoin="bevel" d="
		M796,1566.2l-2.9,1.7l-2.9-1.7l-2.9,1.7v3.3l-2.9,1.7l-2.9-1.7v-3.3l2.9-1.7v-3.3l2.9-1.7v-3.3l2.9-1.7v-3.3l2.9-1.7v-3.3l2.9-1.7
		l2.9,1.7v3.3l2.9,1.7v3.3l-2.9,1.7v3.3l-2.9,1.7V1566.2"/>
	
		<path id="E14000685_2_" vector-effect="none" fill="#FFB900" stroke="#FFFFFF" stroke-width="0.5" stroke-linecap="square" stroke-linejoin="bevel" d="
		M631.7,1521.3l2.9,1.7l2.9-1.7l2.9,1.7v3.3l2.9,1.7v3.3l-2.9,1.7v3.3l2.9,1.7v3.3l-2.9,1.7v3.3l-2.9,1.7l-2.9-1.7v-3.3l2.9-1.7
		v-3.3l-2.9-1.7v-3.3l-2.9-1.7v-3.3l-2.9-1.7v-3.3l-2.9-1.7v-3.3l2.9-1.7l2.9,1.7V1521.3"/>
	
		<path id="E14000704_2_" vector-effect="none" fill="#FFB900" stroke="#FFFFFF" stroke-width="0.5" stroke-linecap="square" stroke-linejoin="bevel" d="
		M850.8,1518v3.3l-2.9,1.7v3.3l-2.9,1.7v3.3l-2.9,1.7v3.3l-2.9,1.7l-2.9-1.7v-3.3l-2.9-1.7v-3.3l2.9-1.7v-3.3l2.9-1.7v-3.3l2.9-1.7
		l2.9,1.7l2.9-1.7v-3.3l2.9-1.7v-3.3l2.9-1.7l2.9,1.7v3.3l-2.9,1.7v3.3L850.8,1518"/>
	
		<path id="E14000719_2_" vector-effect="none" fill="#FFB900" stroke="#FFFFFF" stroke-width="0.5" stroke-linecap="square" stroke-linejoin="bevel" d="
		M680.7,1526.3l2.9,1.7l2.9-1.7l2.9,1.7v3.3l2.9,1.7l2.9-1.7l2.9,1.7v3.3l2.9,1.7l2.9-1.7l2.9,1.7v3.3l2.9,1.7v3.3l-2.9,1.7
		l-2.9-1.7l-2.9,1.7l-2.9-1.7l-2.9,1.7l-2.9-1.7v-3.3l2.9-1.7v-3.3l-2.9-1.7l-2.9,1.7l-2.9-1.7v-3.3l-2.9-1.7l-2.9,1.7l-2.9-1.7
		v-3.3l-2.9-1.7v-3.3l2.9-1.7l2.9,1.7V1526.3"/>
	
		<path id="E14000730_2_" vector-effect="none" fill="#FFB900" stroke="#FFFFFF" stroke-width="0.5" stroke-linecap="square" stroke-linejoin="bevel" d="
		M643.2,1148.4v3.3l2.9,1.7l2.9-1.7l2.9,1.7l2.9-1.7l2.9,1.7l2.9-1.7l2.9,1.7v3.3l2.9,1.7v3.3l-2.9,1.7l-2.9-1.7l-2.9,1.7l-2.9-1.7
		l-2.9,1.7l-2.9-1.7v-3.3l-2.9-1.7l-2.9,1.7l-2.9-1.7v-3.3l-2.9-1.7l-2.9,1.7l-2.9-1.7v-3.3l2.9-1.7l2.9,1.7l2.9-1.7L643.2,1148.4"
		/>
	
		<path id="E14000738_2_" vector-effect="none" fill="#FFB900" stroke="#FFFFFF" stroke-width="0.5" stroke-linecap="square" stroke-linejoin="bevel" d="
		M637.4,1258.3v3.3l-2.9,1.7v3.3l-2.9,1.7v3.3l-2.9,1.7l-2.9-1.7l-2.9,1.7v3.3l-2.9,1.7l-2.9-1.7v-3.3l2.9-1.7v-3.3l2.9-1.7v-3.3
		l-2.9-1.7v-3.3l2.9-1.7l2.9,1.7l2.9-1.7l2.9,1.7l2.9-1.7L637.4,1258.3"/>
	
		<path id="E14000743_2_" vector-effect="none" fill="#FFB900" stroke="#FFFFFF" stroke-width="0.5" stroke-linecap="square" stroke-linejoin="bevel" d="
		M522.1,1391.4l2.9,1.7l2.9-1.7l2.9,1.7v3.3l2.9,1.7v3.3l2.9,1.7l2.9-1.7l2.9,1.7v3.3l2.9,1.7l2.9-1.7l2.9,1.7v3.3l-2.9,1.7v3.3
		l-2.9,1.7l-2.9-1.7v-3.3l-2.9-1.7v-3.3l-2.9-1.7l-2.9,1.7l-2.9-1.7v-3.3l-2.9-1.7v-3.3l-2.9-1.7l-2.9,1.7l-2.9-1.7v-3.3l-2.9-1.7
		v-3.3l2.9-1.7l2.9,1.7V1391.4"/>
	
		<path id="E14000753_2_" vector-effect="none" fill="#FFB900" stroke="#FFFFFF" stroke-width="0.5" stroke-linecap="square" stroke-linejoin="bevel" d="
		M726.8,1542.9v3.3l2.9,1.7l2.9-1.7l2.9,1.7l2.9-1.7l2.9,1.7v3.3l-2.9,1.7l-2.9-1.7l-2.9,1.7l-2.9-1.7l-2.9,1.7l-2.9-1.7l-2.9,1.7
		l-2.9-1.7l-2.9,1.7l-2.9-1.7l-2.9,1.7l-2.9-1.7v-3.3l2.9-1.7v-3.3l2.9-1.7l2.9,1.7l2.9-1.7l2.9,1.7l2.9-1.7L726.8,1542.9"/>
	
		<path id="E14000770_2_" vector-effect="none" fill="#FFB900" stroke="#FFFFFF" stroke-width="0.5" stroke-linecap="square" stroke-linejoin="bevel" d="
		M712.4,1498v3.3l2.9,1.7v3.3l2.9,1.7v3.3l2.9,1.7v3.3l-2.9,1.7l-2.9-1.7l-2.9,1.7l-2.9-1.7l-2.9,1.7l-2.9-1.7v-3.3l-2.9-1.7v-3.3
		l2.9-1.7v-3.3l-2.9-1.7v-3.3l2.9-1.7l2.9,1.7l2.9-1.7L712.4,1498"/>
	
		<path id="E14000786_2_" vector-effect="none" fill="#FFB900" stroke="#FFFFFF" stroke-width="0.5" stroke-linecap="square" stroke-linejoin="bevel" d="
		M778.7,1552.9v3.3l2.9,1.7l2.9-1.7l2.9,1.7v3.3l-2.9,1.7v3.3l-2.9,1.7v3.3l-2.9,1.7l-2.9-1.7v-3.3l-2.9-1.7v-3.3l-2.9-1.7v-3.3
		l-2.9-1.7l-2.9,1.7l-2.9-1.7v-3.3l2.9-1.7l2.9,1.7l2.9-1.7l2.9,1.7l2.9-1.7L778.7,1552.9"/>
	
		<path id="E14000799_2_" vector-effect="none" fill="#FFB900" stroke="#FFFFFF" stroke-width="0.5" stroke-linecap="square" stroke-linejoin="bevel" d="
		M548.1,1363.1v3.3l-2.9,1.7v3.3l-2.9,1.7v3.3l-2.9,1.7v3.3l-2.9,1.7l-2.9-1.7l-2.9,1.7l-2.9-1.7v-3.3l-2.9-1.7v-3.3l2.9-1.7v-3.3
		l2.9-1.7l2.9,1.7l2.9-1.7v-3.3l2.9-1.7l2.9,1.7l2.9-1.7L548.1,1363.1"/>
	
		<path id="E14000803_2_" vector-effect="none" fill="#FFB900" stroke="#FFFFFF" stroke-width="0.5" stroke-linecap="square" stroke-linejoin="bevel" d="
		M654.7,1448.1v3.3l-2.9,1.7v3.3l-2.9,1.7v3.3l2.9,1.7v3.3l2.9,1.7v3.3l2.9,1.7v3.3l-2.9,1.7l-2.9-1.7v-3.3l-2.9-1.7v-3.3l-2.9-1.7
		l-2.9,1.7l-2.9-1.7v-3.3l2.9-1.7v-3.3l-2.9-1.7v-3.3l2.9-1.7v-3.3l2.9-1.7l2.9,1.7l2.9-1.7L654.7,1448.1"/>
	
		<path id="E14000804_2_" vector-effect="none" fill="#FFB900" stroke="#FFFFFF" stroke-width="0.5" stroke-linecap="square" stroke-linejoin="bevel" d="
		M830.6,1523v3.3l-2.9,1.7v3.3l-2.9,1.7l-2.9-1.7l-2.9,1.7l-2.9-1.7v-3.3l-2.9-1.7l-2.9,1.7l-2.9-1.7v-3.3l2.9-1.7l2.9,1.7l2.9-1.7
		v-3.3l2.9-1.7v-3.3l2.9-1.7l2.9,1.7v3.3l2.9,1.7v3.3L830.6,1523"/>
	
		<path id="E14000811_2_" vector-effect="none" fill="#FFB900" stroke="#FFFFFF" stroke-width="0.5" stroke-linecap="square" stroke-linejoin="bevel" d="
		M649,1531.3l2.9,1.7l2.9-1.7l2.9,1.7v3.3l2.9,1.7l2.9-1.7l2.9,1.7v3.3l2.9,1.7l2.9-1.7l2.9,1.7v3.3l-2.9,1.7l-2.9-1.7l-2.9,1.7
		l-2.9-1.7v-3.3l-2.9-1.7l-2.9,1.7l-2.9-1.7l0-3.3l-2.9-1.7l-2.9,1.7l-2.9-1.7l-2.9,1.7l-2.9-1.7v-3.3l2.9-1.7v-3.3l-2.9-1.7v-3.3
		l2.9-1.7l2.9,1.7v3.3l2.9,1.7V1531.3"/>
	
		<path id="E14000815_2_" vector-effect="none" fill="#FFB900" stroke="#FFFFFF" stroke-width="0.5" stroke-linecap="square" stroke-linejoin="bevel" d="
		M594.2,1532.9v3.3l-2.9,1.7v3.3l-2.9,1.7l-2.9-1.7l-2.9,1.7v3.3l-2.9,1.7l-2.9-1.7v-3.3l-2.9-1.7v-3.3l-2.9-1.7v-3.3l2.9-1.7
		l2.9,1.7l2.9-1.7l2.9,1.7l2.9-1.7v-3.3l2.9-1.7l2.9,1.7v3.3L594.2,1532.9"/>
	
		<path id="E14000817_2_" vector-effect="none" fill="#FFB900" stroke="#FFFFFF" stroke-width="0.5" stroke-linecap="square" stroke-linejoin="bevel" d="
		M773,1542.9v3.3l2.9,1.7v3.3l-2.9,1.7l-2.9-1.7l-2.9,1.7l-2.9-1.7l-2.9,1.7v3.3l-2.9,1.7l-2.9-1.7v-3.3l-2.9-1.7v-3.3l2.9-1.7v-3.3
		l2.9-1.7l2.9,1.7l2.9-1.7l2.9,1.7l2.9-1.7L773,1542.9"/>
	
		<path id="E14000827_2_" vector-effect="none" fill="#FFB900" stroke="#FFFFFF" stroke-width="0.5" stroke-linecap="square" stroke-linejoin="bevel" d="
		M614.4,1531.3l2.9,1.7l2.9-1.7l2.9,1.7v3.3l2.9,1.7v3.3l2.9,1.7v3.3l-2.9,1.7v3.3l-2.9,1.7l-2.9-1.7v-3.3l-2.9-1.7v-3.3l2.9-1.7
		v-3.3l-2.9-1.7l-2.9,1.7l-2.9-1.7v-3.3l-2.9-1.7v-3.3l-2.9-1.7v-3.3l-2.9-1.7v-3.3l2.9-1.7l2.9,1.7v3.3l2.9,1.7v3.3l2.9,1.7V1531.3
		"/>
	
		<path id="E14000830_2_" vector-effect="none" fill="#FFB900" stroke="#FFFFFF" stroke-width="0.5" stroke-linecap="square" stroke-linejoin="bevel" d="
		M625.9,1481.3l-2.9,1.7l-2.9-1.7l-2.9,1.7l-2.9-1.7l-2.9,1.7l-2.9-1.7v-3.3l2.9-1.7v-3.3l-2.9-1.7v-3.3l2.9-1.7v-3.3l2.9-1.7
		l2.9,1.7v3.3l2.9,1.7v3.3l2.9,1.7v3.3l2.9,1.7V1481.3"/>
	
		<path id="E14000835_2_" vector-effect="none" fill="#FFB900" stroke="#FFFFFF" stroke-width="0.5" stroke-linecap="square" stroke-linejoin="bevel" d="
		M513.5,1542.9v3.3l2.9,1.7v3.3l-2.9,1.7l-2.9-1.7l-2.9,1.7v3.3l-2.9,1.7l-2.9-1.7v-3.3l-2.9-1.7v-3.3l-2.9-1.7v-3.3l2.9-1.7
		l2.9,1.7l2.9-1.7v-3.3l2.9-1.7l2.9,1.7v3.3L513.5,1542.9"/>
	
		<path id="E14000837_2_" vector-effect="none" fill="#FFB900" stroke="#FFFFFF" stroke-width="0.5" stroke-linecap="square" stroke-linejoin="bevel" d="
		M478.8,1532.9v3.3l-2.9,1.7l-2.9-1.7l-2.9,1.7l-2.9-1.7l-2.9,1.7v3.3l-2.9,1.7v3.3l-2.9,1.7v3.3l-2.9,1.7l-2.9-1.7v-3.3l-2.9-1.7
		l-2.9,1.7l-2.9-1.7v-3.3l2.9-1.7l2.9,1.7l2.9-1.7l2.9,1.7l2.9-1.7v-3.3l2.9-1.7v-3.3l2.9-1.7l2.9,1.7l2.9-1.7v-3.3l2.9-1.7l2.9,1.7
		v3.3L478.8,1532.9"/>
	
		<path id="E14000838_2_" vector-effect="none" fill="#FFB900" stroke="#FFFFFF" stroke-width="0.5" stroke-linecap="square" stroke-linejoin="bevel" d="
		M501.9,1503v3.3l2.9,1.7v3.3l2.9,1.7v3.3l-2.9,1.7l-2.9-1.7l-2.9,1.7l-2.9-1.7l-2.9,1.7l-2.9-1.7v-3.3l-2.9-1.7v-3.3l-2.9-1.7v-3.3
		l2.9-1.7l2.9,1.7l2.9-1.7l2.9,1.7l2.9-1.7L501.9,1503"/>
	
		<path id="E14000839_2_" vector-effect="none" fill="#FFB900" stroke="#FFFFFF" stroke-width="0.5" stroke-linecap="square" stroke-linejoin="bevel" d="
		M594.2,1523v3.3l-2.9,1.7l-2.9-1.7l-2.9,1.7v3.3l-2.9,1.7l-2.9-1.7l-2.9,1.7l-2.9-1.7l-2.9,1.7l-2.9-1.7v-3.3l2.9-1.7v-3.3l2.9-1.7
		v-3.3l2.9-1.7l2.9,1.7v3.3l2.9,1.7l2.9-1.7v-3.3l2.9-1.7l2.9,1.7v3.3L594.2,1523"/>
	
		<path id="E14000847_2_" vector-effect="none" fill="#FFB900" stroke="#FFFFFF" stroke-width="0.5" stroke-linecap="square" stroke-linejoin="bevel" d="
		M530.8,1383.1v3.3l2.9,1.7v3.3l2.9,1.7l2.9-1.7l2.9,1.7v3.3l2.9,1.7v3.3l2.9,1.7v3.3l-2.9,1.7l-2.9-1.7v-3.3l-2.9-1.7l-2.9,1.7
		l-2.9-1.7v-3.3l-2.9-1.7v-3.3l-2.9-1.7l-2.9,1.7l-2.9-1.7v-3.3l-2.9-1.7v-3.3l2.9-1.7l2.9,1.7l2.9-1.7L530.8,1383.1"/>
	
		<path id="E14000848_2_" vector-effect="none" fill="#FFB900" stroke="#FFFFFF" stroke-width="0.5" stroke-linecap="square" stroke-linejoin="bevel" d="
		M816.2,1298.2v3.3l2.9,1.7l2.9-1.7l2.9,1.7l2.9-1.7l2.9,1.7l2.9-1.7l2.9,1.7v3.3l2.9,1.7l2.9-1.7l2.9,1.7v3.3l-2.9,1.7l-2.9-1.7
		l-2.9,1.7l-2.9-1.7v-3.3l-2.9-1.7l-2.9,1.7l-2.9-1.7l-2.9,1.7l-2.9-1.7l-2.9,1.7l-2.9-1.7v-3.3l-2.9-1.7l-2.9,1.7l-2.9-1.7
		l-2.9,1.7l-2.9-1.7v-3.3l2.9-1.7l2.9,1.7l2.9-1.7l2.9,1.7l2.9-1.7L816.2,1298.2"/>
	
		<path id="E14000850_2_" vector-effect="none" fill="#FFB900" stroke="#FFFFFF" stroke-width="0.5" stroke-linecap="square" stroke-linejoin="bevel" d="
		M548.1,1476.3l2.9,1.7l2.9-1.7l2.9,1.7v3.3l-2.9,1.7v3.3l2.9,1.7v3.3l2.9,1.7v3.3l-2.9,1.7l-2.9-1.7v-3.3l-2.9-1.7l-2.9,1.7
		l-2.9-1.7v-3.3l-2.9-1.7v-3.3l2.9-1.7v-3.3l-2.9-1.7v-3.3l2.9-1.7l2.9,1.7V1476.3"/>
	
		<path id="E14000860_2_" vector-effect="none" fill="#FFB900" stroke="#FFFFFF" stroke-width="0.5" stroke-linecap="square" stroke-linejoin="bevel" d="
		M597.1,1448v3.3l2.9,1.7v3.3l-2.9,1.7v3.3l-2.9,1.7v3.3l2.9,1.7v3.3l-2.9,1.7l-2.9-1.7l-2.9,1.7l-2.9-1.7v-3.3l2.9-1.7v-3.3
		l-2.9-1.7v-3.3l2.9-1.7v-3.3l-2.9-1.7v-3.3l2.9-1.7l2.9,1.7l2.9-1.7L597.1,1448"/>
	
		<path id="E14000874_2_" vector-effect="none" fill="#FFB900" stroke="#FFFFFF" stroke-width="0.5" stroke-linecap="square" stroke-linejoin="bevel" d="
		M628.8,1446.4l-2.9,1.7l-2.9-1.7l-2.9,1.7l-2.9-1.7v-3.3l2.9-1.7v-3.3l-2.9-1.7v-3.3l2.9-1.7v-3.3l2.9-1.7v-3.3l2.9-1.7l2.9,1.7
		v3.3l2.9,1.7v3.3l2.9,1.7v3.3l-2.9,1.7v3.3l-2.9,1.7V1446.4"/>
	
		<path id="E14000881_2_" vector-effect="none" fill="#FFB900" stroke="#FFFFFF" stroke-width="0.5" stroke-linecap="square" stroke-linejoin="bevel" d="
		M594.2,1542.9v3.3l2.9,1.7v3.3l2.9,1.7v3.3l2.9,1.7v3.3l-2.9,1.7l-2.9-1.7l-2.9,1.7l-2.9-1.7v-3.3l-2.9-1.7v-3.3l-2.9-1.7v-3.3
		l-2.9-1.7v-3.3l2.9-1.7l2.9,1.7l2.9-1.7L594.2,1542.9"/>
	
		<path id="E14000762_2_" vector-effect="none" fill="#FFB900" stroke="#FFFFFF" stroke-width="0.5" stroke-linecap="square" stroke-linejoin="bevel" d="
		M637.3,1577.7l-2.9-1.7l-2.9,1.7l-2.9-1.7l-2.9,1.7l-2.9-1.7l0-3.3l2.9-1.7l0-3.3l2.9-1.7l0-3.3l2.9-1.7l2.9,1.7l2.9-1.7l2.9,1.7
		l0,3.3l2.9,1.7l0,3.3l-2.9,1.7l0,3.3L637.3,1577.7"/>
	
		<path id="E14000896_2_" vector-effect="none" fill="#FFB900" stroke="#FFFFFF" stroke-width="0.5" stroke-linecap="square" stroke-linejoin="bevel" d="
		M715.3,1473v3.3l2.9,1.7v3.3l-2.9,1.7v3.3l-2.9,1.7v3.3l-2.9,1.7v3.3l-2.9,1.7l-2.9-1.7v-3.3l2.9-1.7v-3.3l-2.9-1.7v-3.3l-2.9-1.7
		v-3.3l2.9-1.7v-3.3l2.9-1.7l2.9,1.7l2.9-1.7L715.3,1473"/>
	
		<path id="E14000898_2_" vector-effect="none" fill="#7D0069" stroke="#FFFFFF" stroke-width="0.5" stroke-linecap="square" stroke-linejoin="bevel" d="
		M845,1458v3.3l2.9,1.7v3.3l-2.9,1.7v3.3l-2.9,1.7v3.3l-2.9,1.7l-2.9-1.7v-3.3l-2.9-1.7v-3.3l-2.9-1.7v-3.3l2.9-1.7v-3.3l2.9-1.7
		l2.9,1.7l2.9-1.7v-3.3l2.9-1.7l2.9,1.7v3.3L845,1458"/>
	
		<path id="E14000901_2_" vector-effect="none" fill="#FFB900" stroke="#FFFFFF" stroke-width="0.5" stroke-linecap="square" stroke-linejoin="bevel" d="
		M620.1,1498v3.3l-2.9,1.7v3.3l2.9,1.7v3.3l-2.9,1.7v3.3l-2.9,1.7l-2.9-1.7l-2.9,1.7l-2.9-1.7v-3.3l2.9-1.7v-3.3l-2.9-1.7v-3.3
		l-2.9-1.7v-3.3l2.9-1.7l2.9,1.7l2.9-1.7v-3.3l2.9-1.7l2.9,1.7v3.3L620.1,1498"/>
	
		<path id="E14000912_2_" vector-effect="none" fill="#FFB900" stroke="#FFFFFF" stroke-width="0.5" stroke-linecap="square" stroke-linejoin="bevel" d="
		M602.8,1498v3.3l2.9,1.7v3.3l2.9,1.7v3.3l-2.9,1.7v3.3l-2.9,1.7l-2.9-1.7v-3.3l-2.9-1.7l-2.9,1.7v3.3l-2.9,1.7l-2.9-1.7v-3.3
		l2.9-1.7v-3.3l2.9-1.7v-3.3l-2.9-1.7v-3.3l2.9-1.7l2.9,1.7l2.9-1.7L602.8,1498"/>
	
		<path id="E14000928_2_" vector-effect="none" fill="#FFB900" stroke="#FFFFFF" stroke-width="0.5" stroke-linecap="square" stroke-linejoin="bevel" d="
		M594.2,1133.4v3.3l2.9,1.7l2.9-1.7l2.9,1.7l2.9-1.7l2.9,1.7l2.9-1.7l2.9,1.7v3.3l2.9,1.7l2.9-1.7l2.9,1.7v3.3l-2.9,1.7l-2.9-1.7
		l-2.9,1.7l-2.9-1.7v-3.3l-2.9-1.7l-2.9,1.7l-2.9-1.7l-2.9,1.7v3.3l-2.9,1.7l-2.9-1.7v-3.3l-2.9-1.7v-3.3l-2.9-1.7l-2.9,1.7
		l-2.9-1.7v-3.3l2.9-1.7l2.9,1.7l2.9-1.7L594.2,1133.4"/>
	
		<path id="E14000931_2_" vector-effect="none" fill="#FFB900" stroke="#FFFFFF" stroke-width="0.5" stroke-linecap="square" stroke-linejoin="bevel" d="
		M628.8,1383.1v3.3l-2.9,1.7l-2.9-1.7l-2.9,1.7v3.3l-2.9,1.7v3.3l-2.9,1.7l-2.9-1.7v-3.3l-2.9-1.7v-3.3l-2.9-1.7v-3.3l2.9-1.7
		l2.9,1.7l2.9-1.7l2.9,1.7l2.9-1.7l2.9,1.7l2.9-1.7v-3.3l2.9-1.7l2.9,1.7v3.3L628.8,1383.1"/>
	
		<path id="E14000932_2_" vector-effect="none" fill="#FFB900" stroke="#FFFFFF" stroke-width="0.5" stroke-linecap="square" stroke-linejoin="bevel" d="
		M579.8,1508v3.3l-2.9,1.7l-2.9-1.7l-2.9,1.7v3.3l2.9,1.7v3.3l-2.9,1.7l-2.9-1.7l-2.9,1.7l-2.9-1.7l-2.9,1.7l-2.9-1.7l-2.9,1.7
		l-2.9-1.7l-2.9,1.7l-2.9-1.7v-3.3l2.9-1.7l2.9,1.7l2.9-1.7l2.9,1.7l2.9-1.7l2.9,1.7l2.9-1.7v-3.3l2.9-1.7v-3.3l2.9-1.7l2.9,1.7
		l2.9-1.7v-3.3l2.9-1.7l2.9,1.7v3.3L579.8,1508"/>
	
		<path id="E14000934_2_" vector-effect="none" fill="#FFB900" stroke="#FFFFFF" stroke-width="0.5" stroke-linecap="square" stroke-linejoin="bevel" d="
		M778.7,1333.2v3.3l-2.9,1.7v3.3l2.9,1.7v3.3l2.9,1.7v3.3l-2.9,1.7l-2.9-1.7l-2.9,1.7l-2.9-1.7v-3.3l-2.9-1.7l-2.9,1.7l-2.9-1.7
		v-3.3l2.9-1.7v-3.3l2.9-1.7v-3.3l2.9-1.7l2.9,1.7l2.9-1.7L778.7,1333.2"/>
	
		<path id="E14000937_2_" vector-effect="none" fill="#FFB900" stroke="#FFFFFF" stroke-width="0.5" stroke-linecap="square" stroke-linejoin="bevel" d="
		M793.1,1328.2v3.3l2.9,1.7v3.3l2.9,1.7v3.3l2.9,1.7v3.3l-2.9,1.7v3.3l-2.9,1.7l-2.9-1.7v-3.3l-2.9-1.7v-3.3l2.9-1.7v-3.3l-2.9-1.7
		l-2.9,1.7l-2.9-1.7v-3.3l-2.9-1.7l-2.9,1.7l-2.9-1.7v-3.3l2.9-1.7l2.9,1.7l2.9-1.7l2.9,1.7l2.9-1.7L793.1,1328.2"/>
	
		<path id="E14000938_2_" vector-effect="none" fill="#FFB900" stroke="#FFFFFF" stroke-width="0.5" stroke-linecap="square" stroke-linejoin="bevel" d="
		M481.7,1537.9v3.3l-2.9,1.7l-2.9-1.7l-2.9,1.7l-2.9-1.7l-2.9,1.7v3.3l2.9,1.7v3.3l2.9,1.7v3.3l-2.9,1.7l-2.9-1.7l-2.9,1.7l-2.9-1.7
		l-2.9,1.7l-2.9-1.7v-3.3l2.9-1.7v-3.3l2.9-1.7v-3.3l2.9-1.7v-3.3l2.9-1.7l2.9,1.7l2.9-1.7l2.9,1.7l2.9-1.7L481.7,1537.9"/>
	
		<path id="E14000953_2_" vector-effect="none" fill="#FFB900" stroke="#FFFFFF" stroke-width="0.5" stroke-linecap="square" stroke-linejoin="bevel" d="
		M677.8,1528v3.3l2.9,1.7l2.9-1.7l2.9,1.7v3.3l2.9,1.7l2.9-1.7l2.9,1.7v3.3l-2.9,1.7l-2.9-1.7l-2.9,1.7l-2.9-1.7l-2.9,1.7l-2.9-1.7
		v-3.3l-2.9-1.7l-2.9,1.7l-2.9-1.7v-3.3l-2.9-1.7v-3.3l2.9-1.7l2.9,1.7l2.9-1.7L677.8,1528"/>
	
		<path id="E14000958_2_" vector-effect="none" fill="#FFB900" stroke="#FFFFFF" stroke-width="0.5" stroke-linecap="square" stroke-linejoin="bevel" d="
		M530.8,1216.6l-2.9,1.7l-2.9-1.7l-2.9,1.7l-2.9-1.7v-3.3l2.9-1.7v-3.3l2.9-1.7v-3.3l2.9-1.7v-3.3l2.9-1.7v-3.3l2.9-1.7l2.9,1.7v3.3
		l2.9,1.7v3.3l-2.9,1.7v3.3l-2.9,1.7v3.3l-2.9,1.7V1216.6"/>
	
		<path id="E14000960_2_" vector-effect="none" fill="#FFB900" stroke="#FFFFFF" stroke-width="0.5" stroke-linecap="square" stroke-linejoin="bevel" d="
		M726.8,1383.1v3.3l-2.9,1.7l-2.9-1.7l-2.9,1.7v3.3l-2.9,1.7v3.3l-2.9,1.7l-2.9-1.7l-2.9,1.7l-2.9-1.7l-2.9,1.7v3.3l-2.9,1.7
		l-2.9-1.7v-3.3l2.9-1.7v-3.3l2.9-1.7l2.9,1.7l2.9-1.7v-3.3l2.9-1.7l2.9,1.7l2.9-1.7v-3.3l2.9-1.7l2.9,1.7l2.9-1.7L726.8,1383.1"/>
	
		<path id="E14000961_2_" vector-effect="none" fill="#FFB900" stroke="#FFFFFF" stroke-width="0.5" stroke-linecap="square" stroke-linejoin="bevel" d="
		M452.9,1547.9v3.3l2.9,1.7v3.3l2.9,1.7v3.3l-2.9,1.7v3.3l-2.9,1.7l-2.9-1.7l-2.9,1.7l-2.9-1.7v-3.3l2.9-1.7v-3.3l-2.9-1.7l-2.9,1.7
		l-2.9-1.7v-3.3l2.9-1.7v-3.3l2.9-1.7l2.9,1.7l2.9-1.7L452.9,1547.9"/>
	
		<path id="E14000964_2_" vector-effect="none" fill="#FFB900" stroke="#FFFFFF" stroke-width="0.5" stroke-linecap="square" stroke-linejoin="bevel" d="
		M424.1,1577.9v3.3l2.9,1.7v3.3l2.9,1.7l2.9-1.7l2.9,1.7v3.3l-2.9,1.7v3.3l-2.9,1.7l-2.9-1.7v-3.3l-2.9-1.7v-3.3l-2.9-1.7l-2.9,1.7
		l-2.9-1.7v-3.3l-2.9-1.7l-2.9,1.7v3.3l-2.9,1.7l-2.9-1.7v-3.3l2.9-1.7v-3.3l2.9-1.7l2.9,1.7l2.9-1.7l2.9,1.7l2.9-1.7L424.1,1577.9"
		/>
	
		<path id="E14000977_2_" vector-effect="none" fill="#FFB900" stroke="#FFFFFF" stroke-width="0.5" stroke-linecap="square" stroke-linejoin="bevel" d="
		M628.8,1403.1v3.3l-2.9,1.7v3.3l-2.9,1.7v3.3l-2.9,1.7l-2.9-1.7l-2.9,1.7l-2.9-1.7l-2.9,1.7l-2.9-1.7v-3.3l2.9-1.7v-3.3l2.9-1.7
		v-3.3l2.9-1.7l2.9,1.7l2.9-1.7l2.9,1.7l2.9-1.7L628.8,1403.1"/>
	
		<path id="E14000984_2_" vector-effect="none" fill="#FFB900" stroke="#FFFFFF" stroke-width="0.5" stroke-linecap="square" stroke-linejoin="bevel" d="
		M732.6,1513v3.3l2.9,1.7v3.3l-2.9,1.7v3.3l2.9,1.7v3.3l-2.9,1.7l-2.9-1.7l-2.9,1.7l-2.9-1.7v-3.3l-2.9-1.7v-3.3l-2.9-1.7v-3.3
		l2.9-1.7v-3.3l2.9-1.7l2.9,1.7l2.9-1.7L732.6,1513"/>
	
		<path id="E14000988_2_" vector-effect="none" fill="#FFB900" stroke="#FFFFFF" stroke-width="0.5" stroke-linecap="square" stroke-linejoin="bevel" d="
		M545.2,1518v3.3l-2.9,1.7v3.3l-2.9,1.7v3.3l-2.9,1.7l-2.9-1.7v-3.3l-2.9-1.7l-2.9,1.7l-2.9-1.7v-3.3l-2.9-1.7v-3.3l2.9-1.7l2.9,1.7
		l2.9-1.7l2.9,1.7l2.9-1.7l2.9,1.7l2.9-1.7L545.2,1518"/>
	
		<path id="E14000990_2_" vector-effect="none" fill="#FFB900" stroke="#FFFFFF" stroke-width="0.5" stroke-linecap="square" stroke-linejoin="bevel" d="
		M591.3,1418.1v3.3l-2.9,1.7l-2.9-1.7l-2.9,1.7v3.3l2.9,1.7v3.3l2.9,1.7l2.9-1.7l2.9,1.7v3.3l-2.9,1.7l-2.9-1.7l-2.9,1.7l-2.9-1.7
		v-3.3l-2.9-1.7v-3.3l-2.9-1.7l-2.9,1.7l-2.9-1.7v-3.3l2.9-1.7v-3.3l2.9-1.7l2.9,1.7l2.9-1.7l2.9,1.7l2.9-1.7L591.3,1418.1"/>
	
		<path id="E14000991_2_" vector-effect="none" fill="#FFB900" stroke="#FFFFFF" stroke-width="0.5" stroke-linecap="square" stroke-linejoin="bevel" d="
		M605.7,1433.1v3.3l-2.9,1.7v3.3l-2.9,1.7v3.3l-2.9,1.7l-2.9-1.7l-2.9,1.7l-2.9-1.7v-3.3l2.9-1.7v-3.3l2.9-1.7v-3.3l2.9-1.7l2.9,1.7
		l2.9-1.7v-3.3l2.9-1.7v-3.3l2.9-1.7v-3.3l2.9-1.7l2.9,1.7v3.3l-2.9,1.7v3.3l-2.9,1.7v3.3L605.7,1433.1"/>
	
		<path id="E14000994_2_" vector-effect="none" fill="#FFB900" stroke="#FFFFFF" stroke-width="0.5" stroke-linecap="square" stroke-linejoin="bevel" d="
		M568.2,1441.4l2.9,1.7l2.9-1.7l2.9,1.7v3.3l2.9,1.7l2.9-1.7l2.9,1.7v3.3l2.9,1.7v3.3l-2.9,1.7v3.3l-2.9,1.7l-2.9-1.7v-3.3l-2.9-1.7
		v-3.3l-2.9-1.7v-3.3l-2.9-1.7l-2.9,1.7l-2.9-1.7v-3.3l-2.9-1.7v-3.3l2.9-1.7l2.9,1.7V1441.4"/>
	
		<path id="E14000996_2_" vector-effect="none" fill="#FFB900" stroke="#FFFFFF" stroke-width="0.5" stroke-linecap="square" stroke-linejoin="bevel" d="
		M522.1,1518v3.3l2.9,1.7v3.3l2.9,1.7l2.9-1.7l2.9,1.7v3.3l2.9,1.7l2.9-1.7l2.9,1.7v3.3l-2.9,1.7l-2.9-1.7l-2.9,1.7l-2.9-1.7v-3.3
		l-2.9-1.7l-2.9,1.7l-2.9-1.7v-3.3l-2.9-1.7l-2.9,1.7l-2.9-1.7v-3.3l-2.9-1.7l-2.9,1.7l-2.9-1.7v-3.3l2.9-1.7l2.9,1.7l2.9-1.7
		l2.9,1.7l2.9-1.7L522.1,1518"/>
	
		<path id="E14000999_2_" vector-effect="none" fill="#FFB900" stroke="#FFFFFF" stroke-width="0.5" stroke-linecap="square" stroke-linejoin="bevel" d="
		M519.2,1552.9v3.3l2.9,1.7v3.3l2.9,1.7v3.3l-2.9,1.7v3.3l-2.9,1.7l-2.9-1.7v-3.3l-2.9-1.7l-2.9,1.7l-2.9-1.7v-3.3l2.9-1.7v-3.3
		l-2.9-1.7v-3.3l2.9-1.7l2.9,1.7l2.9-1.7L519.2,1552.9"/>
	
		<path id="E14001000_2_" vector-effect="none" fill="#FFB900" stroke="#FFFFFF" stroke-width="0.5" stroke-linecap="square" stroke-linejoin="bevel" d="
		M484.6,1523v3.3l2.9,1.7v3.3l2.9,1.7v3.3l2.9,1.7v3.3l-2.9,1.7l-2.9-1.7l-2.9,1.7l-2.9-1.7v-3.3l-2.9-1.7v-3.3l-2.9-1.7v-3.3
		l-2.9-1.7v-3.3l2.9-1.7l2.9,1.7l2.9-1.7v-3.3l2.9-1.7l2.9,1.7v3.3L484.6,1523"/>
	
		<path id="E14001001_2_" vector-effect="none" fill="#FFB900" stroke="#FFFFFF" stroke-width="0.5" stroke-linecap="square" stroke-linejoin="bevel" d="
		M501.9,1556.3l2.9,1.7l2.9-1.7l2.9,1.7v3.3l-2.9,1.7v3.3l2.9,1.7l2.9-1.7l2.9,1.7v3.3l-2.9,1.7l-2.9-1.7l-2.9,1.7l-2.9-1.7
		l-2.9,1.7l-2.9-1.7v-3.3l2.9-1.7v-3.3l-2.9-1.7v-3.3l-2.9-1.7v-3.3l-2.9-1.7v-3.3l-2.9-1.7v-3.3l2.9-1.7l2.9,1.7v3.3l2.9,1.7v3.3
		l2.9,1.7V1556.3"/>
	
		<path id="E14001005_2_" vector-effect="none" fill="#FFB900" stroke="#FFFFFF" stroke-width="0.5" stroke-linecap="square" stroke-linejoin="bevel" d="
		M703.8,1483v3.3l2.9,1.7v3.3l-2.9,1.7v3.3l-2.9,1.7v3.3l2.9,1.7v3.3l-2.9,1.7l-2.9-1.7v-3.3l-2.9-1.7v-3.3l-2.9-1.7v-3.3l-2.9-1.7
		v-3.3l-2.9-1.7v-3.3l2.9-1.7l2.9,1.7l2.9-1.7l2.9,1.7l2.9-1.7L703.8,1483"/>
	
		<path id="E14001026_2_" vector-effect="none" fill="#FFB900" stroke="#FFFFFF" stroke-width="0.5" stroke-linecap="square" stroke-linejoin="bevel" d="
		M553.8,1506.3l2.9,1.7l2.9-1.7l2.9,1.7l2.9-1.7l2.9,1.7v3.3l-2.9,1.7v3.3l-2.9,1.7l-2.9-1.7l-2.9,1.7l-2.9-1.7l-2.9,1.7l-2.9-1.7
		v-3.3l-2.9-1.7l-2.9,1.7l-2.9-1.7v-3.3l2.9-1.7l2.9,1.7l2.9-1.7v-3.3l2.9-1.7l2.9,1.7V1506.3"/>
	
		<path id="E14001031_2_" vector-effect="none" fill="#FFB900" stroke="#FFFFFF" stroke-width="0.5" stroke-linecap="square" stroke-linejoin="bevel" d="
		M571.1,1532.9v3.3l-2.9,1.7v3.3l-2.9,1.7l-2.9-1.7l-2.9,1.7l-2.9-1.7v-3.3l-2.9-1.7l-2.9,1.7l-2.9-1.7l-2.9,1.7l-2.9-1.7v-3.3
		l2.9-1.7l2.9,1.7l2.9-1.7l2.9,1.7l2.9-1.7l2.9,1.7l2.9-1.7v-3.3l2.9-1.7v-3.3l2.9-1.7l2.9,1.7v3.3l-2.9,1.7v3.3L571.1,1532.9"/>
	
		<path id="E14001035_2_" vector-effect="none" fill="#FFB900" stroke="#FFFFFF" stroke-width="0.5" stroke-linecap="square" stroke-linejoin="bevel" d="
		M553.8,1406.4l2.9,1.7l2.9-1.7l2.9,1.7v3.3l2.9,1.7l2.9-1.7l2.9,1.7l2.9-1.7l2.9,1.7v3.3l-2.9,1.7v3.3l-2.9,1.7l-2.9-1.7v-3.3
		l-2.9-1.7l-2.9,1.7l-2.9-1.7v-3.3l-2.9-1.7l-2.9,1.7l-2.9-1.7v-3.3l-2.9-1.7v-3.3l-2.9-1.7v-3.3l2.9-1.7l2.9,1.7v3.3l2.9,1.7
		V1406.4"/>
	
		<path id="E14001037_2_" vector-effect="none" fill="#FFB900" stroke="#FFFFFF" stroke-width="0.5" stroke-linecap="square" stroke-linejoin="bevel" d="
		M568.2,1118.4v3.3l2.9,1.7l2.9-1.7l2.9,1.7l2.9-1.7l2.9,1.7v3.3l-2.9,1.7l-2.9-1.7l-2.9,1.7l-2.9-1.7l-2.9,1.7l-2.9-1.7l-2.9,1.7
		v3.3l-2.9,1.7v3.3l-2.9,1.7l-2.9-1.7v-3.3l2.9-1.7v-3.3l-2.9-1.7v-3.3l2.9-1.7v-3.3l2.9-1.7l2.9,1.7l2.9-1.7L568.2,1118.4"/>
	
		<path id="E14001038_2_" vector-effect="none" fill="#FFB900" stroke="#FFFFFF" stroke-width="0.5" stroke-linecap="square" stroke-linejoin="bevel" d="
		M545.2,1491.3l2.9,1.7l2.9-1.7l2.9,1.7v3.3l2.9,1.7v3.3l-2.9,1.7l-2.9-1.7l-2.9,1.7v3.3l-2.9,1.7l-2.9-1.7v-3.3l-2.9-1.7v-3.3
		l-2.9-1.7v-3.3l2.9-1.7v-3.3l2.9-1.7l2.9,1.7V1491.3"/>
	
		<path id="E14001041_2_" vector-effect="none" fill="#FFB900" stroke="#FFFFFF" stroke-width="0.5" stroke-linecap="square" stroke-linejoin="bevel" d="
		M631.7,1511.3l2.9,1.7l2.9-1.7l2.9,1.7v3.3l2.9,1.7v3.3l-2.9,1.7l-2.9-1.7l-2.9,1.7l-2.9-1.7v-3.3l-2.9-1.7v-3.3l-2.9-1.7l-2.9,1.7
		l-2.9-1.7v-3.3l-2.9-1.7v-3.3l2.9-1.7v-3.3l2.9-1.7l2.9,1.7v3.3l2.9,1.7v3.3l2.9,1.7V1511.3"/>
	
		<path id="E14001047_2_" vector-effect="none" fill="#FFB900" stroke="#FFFFFF" stroke-width="0.5" stroke-linecap="square" stroke-linejoin="bevel" d="
		M692.2,1513v3.3l2.9,1.7v3.3l-2.9,1.7v3.3l-2.9,1.7l-2.9-1.7l-2.9,1.7l-2.9-1.7v-3.3l-2.9-1.7l-2.9,1.7l-2.9-1.7v-3.3l-2.9-1.7
		v-3.3l2.9-1.7l2.9,1.7l2.9-1.7l2.9,1.7l2.9-1.7l2.9,1.7l2.9-1.7L692.2,1513"/>
	
		<path id="E14001060_2_" vector-effect="none" fill="#FFB900" stroke="#FFFFFF" stroke-width="0.5" stroke-linecap="square" stroke-linejoin="bevel" d="
		M565.4,1523v3.3l-2.9,1.7v3.3l-2.9,1.7l-2.9-1.7l-2.9,1.7l-2.9-1.7l-2.9,1.7l-2.9-1.7l-2.9,1.7l-2.9-1.7v-3.3l2.9-1.7v-3.3l2.9-1.7
		l2.9,1.7l2.9-1.7l2.9,1.7l2.9-1.7l2.9,1.7l2.9-1.7L565.4,1523"/>
	
		<path id="E14001062_2_" vector-effect="none" fill="#FFB900" stroke="#FFFFFF" stroke-width="0.5" stroke-linecap="square" stroke-linejoin="bevel" d="
		M689.3,1181.7l2.9,1.7l2.9-1.7l2.9,1.7l2.9-1.7l2.9,1.7v3.3l2.9,1.7v3.3l-2.9,1.7l-2.9-1.7l-2.9,1.7l-2.9-1.7v-3.3l-2.9-1.7
		l-2.9,1.7l-2.9-1.7v-3.3l-2.9-1.7v-3.3l-2.9-1.7v-3.3l-2.9-1.7v-3.3l2.9-1.7l2.9,1.7v3.3l2.9,1.7v3.3l2.9,1.7V1181.7"/>
	
		<path id="S14000005_2_" vector-effect="none" fill="#FCDD03" stroke="#FFFFFF" stroke-width="0.5" stroke-linecap="square" stroke-linejoin="bevel" d="
		M455.8,996.9l-2.9,1.7l-2.9-1.7v-3.3l2.9-1.7l2.9,1.7V996.9"/>
	
		<path id="S14000005_7_" vector-effect="none" fill="#FCDD03" stroke="#FFFFFF" stroke-width="0.5" stroke-linecap="square" stroke-linejoin="bevel" d="
		M464.4,991.9l-2.9,1.7l-2.9-1.7v-3.3l2.9-1.7v-3.3l2.9-1.7l2.9,1.7v3.3l-2.9,1.7V991.9"/>
	
		<path id="S14000005_6_" vector-effect="none" fill="#FCDD03" stroke="#FFFFFF" stroke-width="0.5" stroke-linecap="square" stroke-linejoin="bevel" d="
		M467.3,976.9l-2.9,1.7l-2.9-1.7l-2.9,1.7l-2.9-1.7v-3.3l2.9-1.7v-3.3l2.9-1.7l2.9,1.7v3.3l2.9,1.7V976.9"/>
	
		<path id="S14000005_5_" vector-effect="none" fill="#FCDD03" stroke="#FFFFFF" stroke-width="0.5" stroke-linecap="square" stroke-linejoin="bevel" d="
		M476,981.9l-2.9,1.7l-2.9-1.7v-3.3l2.9-1.7v-3.3l2.9-1.7v-3.3l2.9-1.7v-3.3l2.9-1.7l2.9,1.7v3.3l-2.9,1.7v3.3l-2.9,1.7v3.3
		l-2.9,1.7V981.9"/>
	
		<path id="S14000008_2_" vector-effect="none" fill="#FCDD03" stroke="#FFFFFF" stroke-width="0.5" stroke-linecap="square" stroke-linejoin="bevel" d="
		M576.9,1066.8l-2.9,1.7l-2.9-1.7l-2.9,1.7v3.3l-2.9,1.7v3.3l-2.9,1.7l-2.9-1.7l-2.9,1.7l-2.9-1.7v-3.3l2.9-1.7v-3.3l2.9-1.7
		l2.9,1.7l2.9-1.7v-3.3l2.9-1.7v-3.3l2.9-1.7v-3.3l2.9-1.7v-3.3l2.9-1.7l2.9,1.7v3.3l-2.9,1.7v3.3l-2.9,1.7v3.3l2.9,1.7V1066.8"/>
	
		<path id="S14000009_2_" vector-effect="none" fill="#FCDD03" stroke="#FFFFFF" stroke-width="0.5" stroke-linecap="square" stroke-linejoin="bevel" d="
		M507.7,903.7v3.3l-2.9,1.7v3.3l-2.9,1.7v3.3l-2.9,1.7l-2.9-1.7v-3.3l-2.9-1.7v-3.3l-2.9-1.7v-3.3l-2.9-1.7v-3.3l2.9-1.7l2.9,1.7
		v3.3l2.9,1.7l2.9-1.7v-3.3l2.9-1.7v-3.3l2.9-1.7l2.9,1.7v3.3l2.9,1.7v3.3L507.7,903.7"/>
	
		<path id="S14000013_2_" vector-effect="none" fill="#FCDD03" stroke="#FFFFFF" stroke-width="0.5" stroke-linecap="square" stroke-linejoin="bevel" d="
		M536.5,1083.5v3.3l-2.9,1.7l-2.9-1.7l-2.9,1.7l-2.9-1.7l-2.9,1.7v3.3l-2.9,1.7l-2.9-1.7l-2.9,1.7l-2.9-1.7l-2.9,1.7l-2.9-1.7
		l-2.9,1.7v3.3l-2.9,1.7l-2.9-1.7v-3.3l2.9-1.7v-3.3l2.9-1.7l2.9,1.7l2.9-1.7l2.9,1.7l2.9-1.7v-3.3l2.9-1.7l2.9,1.7l2.9-1.7l2.9,1.7
		l2.9-1.7l2.9,1.7l2.9-1.7L536.5,1083.5"/>
	
		<path id="S14000014_2_" vector-effect="none" fill="#FCDD03" stroke="#FFFFFF" stroke-width="0.5" stroke-linecap="square" stroke-linejoin="bevel" d="
		M553.8,1076.8l2.9,1.7l2.9-1.7l2.9,1.7v3.3l-2.9,1.7l-2.9-1.7l-2.9,1.7l-2.9-1.7l-2.9,1.7l-2.9-1.7l-2.9,1.7l-2.9-1.7v-3.3l2.9-1.7
		v-3.3l2.9-1.7v-3.3l2.9-1.7v-3.3l2.9-1.7l2.9,1.7v3.3l2.9,1.7v3.3l-2.9,1.7V1076.8"/>
	
		<path id="S14000018_2_" vector-effect="none" fill="#FCDD03" stroke="#FFFFFF" stroke-width="0.5" stroke-linecap="square" stroke-linejoin="bevel" d="
		M507.7,976.9l2.9,1.7v3.3l2.9,1.7v3.3l2.9,1.7v3.3l2.9,1.7v3.3l-2.9,1.7l-2.9-1.7v-3.3l-2.9-1.7v-3.3l-2.9-1.7v-3.3l-2.9-1.7v-3.3
		l-2.9-1.7l-2.9,1.7v3.3l-2.9,1.7l-2.9-1.7v-3.3l2.9-1.7v-3.3l2.9-1.7v-3.3l2.9-1.7l2.9,1.7v3.3l2.9,1.7V976.9"/>
	
		<path id="S14000026_2_" vector-effect="none" fill="#FCDD03" stroke="#FFFFFF" stroke-width="0.5" stroke-linecap="square" stroke-linejoin="bevel" d="
		M548.1,1003.6v3.3l-2.9,1.7v3.3l2.9,1.7v3.3l-2.9,1.7v3.3l2.9,1.7v3.3l-2.9,1.7l-2.9-1.7v-3.3l-2.9-1.7v-3.3l-2.9-1.7v-3.3
		l-2.9-1.7v-3.3l-2.9-1.7v-3.3l2.9-1.7l2.9,1.7l2.9-1.7l2.9,1.7l2.9-1.7L548.1,1003.6"/>
	
		<path id="S14000037_2_" vector-effect="none" fill="#FCDD03" stroke="#FFFFFF" stroke-width="0.5" stroke-linecap="square" stroke-linejoin="bevel" d="
		M579.8,918.7v3.3l-2.9,1.7L574,922l-2.9,1.7l-2.9-1.7l-2.9,1.7l-2.9-1.7l-2.9,1.7l-2.9-1.7l-2.9,1.7v3.3l-2.9,1.7v3.3l-2.9,1.7
		l-2.9-1.7l-2.9,1.7l-2.9-1.7v-3.3l2.9-1.7v-3.3l2.9-1.7l2.9,1.7l2.9-1.7v-3.3l2.9-1.7l2.9,1.7l2.9-1.7l2.9,1.7l2.9-1.7l2.9,1.7
		l2.9-1.7l2.9,1.7l2.9-1.7L579.8,918.7"/>
	
		<path id="S14000039_2_" vector-effect="none" fill="#FCDD03" stroke="#FFFFFF" stroke-width="0.5" stroke-linecap="square" stroke-linejoin="bevel" d="
		M513.5,923.7v3.3l2.9,1.7l2.9-1.7l2.9,1.7v3.3l-2.9,1.7l-2.9-1.7l-2.9,1.7v3.3l-2.9,1.7l-2.9-1.7l-2.9,1.7v3.3l-2.9,1.7L499,942
		v-3.3l2.9-1.7v-3.3L499,932v-3.3l2.9-1.7v-3.3l2.9-1.7l2.9,1.7l2.9-1.7L513.5,923.7"/>
	
		<path id="S14000049_2_" vector-effect="none" fill="#FCDD03" stroke="#FFFFFF" stroke-width="0.5" stroke-linecap="square" stroke-linejoin="bevel" d="
		M550.9,968.6v3.3l2.9,1.7l2.9-1.7l2.9,1.7v3.3l2.9,1.7l2.9-1.7l2.9,1.7v3.3l2.9,1.7l2.9-1.7l2.9,1.7v3.3l-2.9,1.7l-2.9-1.7
		l-2.9,1.7l-2.9-1.7v-3.3l-2.9-1.7l-2.9,1.7l-2.9-1.7v-3.3l-2.9-1.7l-2.9,1.7l-2.9-1.7v-3.3l-2.9-1.7l-2.9,1.7l-2.9-1.7v-3.3
		l2.9-1.7l2.9,1.7l2.9-1.7L550.9,968.6"/>
	
		<path id="S14000051_22_" vector-effect="none" fill="#FCDD03" stroke="#FFFFFF" stroke-width="0.5" stroke-linecap="square" stroke-linejoin="bevel" d="
		M519.2,887l-2.9,1.7l-2.9-1.7v-3.3l2.9-1.7l2.9,1.7V887"/>
	
		<path id="S14000051_2_" vector-effect="none" fill="#FCDD03" stroke="#FFFFFF" stroke-width="0.5" stroke-linecap="square" stroke-linejoin="bevel" d="
		M525,877l2.9,1.7v3.3l-2.9,1.7l-2.9-1.7v-3.3l-2.9-1.7l-2.9,1.7l-2.9-1.7v-3.3l2.9-1.7v-3.3l2.9-1.7l2.9,1.7v3.3l2.9,1.7V877"/>
	
		<path id="S14000051_1_" vector-effect="none" fill="#FCDD03" stroke="#FFFFFF" stroke-width="0.5" stroke-linecap="square" stroke-linejoin="bevel" d="
		M568.2,818.8v3.3l-2.9,1.7l-2.9-1.7l-2.9,1.7l-2.9-1.7v-3.3l2.9-1.7l2.9,1.7l2.9-1.7v-3.3l-2.9-1.7v-3.3l2.9-1.7v-3.3l2.9-1.7
		l2.9,1.7v3.3l-2.9,1.7v3.3l2.9,1.7v3.3L568.2,818.8"/>
	
		<path id="S14000055_2_" vector-effect="none" fill="#FCDD03" stroke="#FFFFFF" stroke-width="0.5" stroke-linecap="square" stroke-linejoin="bevel" d="
		M478.9,923.7v3.3l-2.9,1.7v3.3l-2.9,1.7l-2.9-1.7v-3.3l-2.9-1.7v-3.3l2.9-1.7l2.9,1.7l2.9-1.7L478.9,923.7"/>
	
		<path id="S14000055_1_" vector-effect="none" fill="#FCDD03" stroke="#FFFFFF" stroke-width="0.5" stroke-linecap="square" stroke-linejoin="bevel" d="
		M504.8,918.7v3.3l-2.9,1.7v3.3l-2.9,1.7v3.3l2.9,1.7v3.3l-2.9,1.7v3.3l-2.9,1.7l-2.9-1.7v-3.3l2.9-1.7v-3.3l-2.9-1.7v-3.3l-2.9-1.7
		v-3.3l2.9-1.7v-3.3l2.9-1.7l2.9,1.7l2.9-1.7L504.8,918.7"/>
	
		<path id="S14000058_2_" vector-effect="none" fill="#FCDD03" stroke="#FFFFFF" stroke-width="0.5" stroke-linecap="square" stroke-linejoin="bevel" d="
		M559.6,933.6v3.3l-2.9,1.7l-2.9-1.7l-2.9,1.7v3.3l-2.9,1.7l-2.9-1.7v-3.3l-2.9-1.7l-2.9,1.7l-2.9-1.7l-2.9,1.7l-2.9-1.7l-2.9,1.7
		L525,937l-2.9,1.7l-2.9-1.7l-2.9,1.7l-2.9-1.7v-3.3l2.9-1.7l2.9,1.7l2.9-1.7l2.9,1.7l2.9-1.7l2.9,1.7l2.9-1.7l2.9,1.7l2.9-1.7
		l2.9,1.7l2.9-1.7l2.9,1.7l2.9-1.7l2.9,1.7l2.9-1.7L559.6,933.6"/>
	
		<path id="W07000067_2_" vector-effect="none" fill="#868686" stroke="#FFFFFF" stroke-width="0.5" stroke-linecap="square" stroke-linejoin="bevel" d="
		M510.6,1378.1v3.3l-2.9,1.7v3.3l2.9,1.7v3.3l-2.9,1.7v3.3l-2.9,1.7l-2.9-1.7l-2.9,1.7l-2.9-1.7l-2.9,1.7l-2.9-1.7v-3.3l2.9-1.7
		v-3.3l2.9-1.7v-3.3l2.9-1.7v-3.3l2.9-1.7l2.9,1.7l2.9-1.7L510.6,1378.1"/>
	
		<path id="E14000884_2_" vector-effect="none" fill="#FFB900" stroke="#FFFFFF" stroke-width="0.5" stroke-linecap="square" stroke-linejoin="bevel" d="
		M674.9,1562.9v3.3l2.9,1.7v3.3l2.9,1.7v3.3l-2.9,1.7l-2.9-1.7l-2.9,1.7l-2.9-1.7l-2.9,1.7l-2.9-1.7v-3.3l-2.9-1.7v-3.3l2.9-1.7
		v-3.3l2.9-1.7l2.9,1.7l2.9-1.7L674.9,1562.9"/>
	
		<path id="E14000598_2_" vector-effect="none" fill="#33A22B" stroke="#FFFFFF" stroke-width="0.5" stroke-linecap="square" stroke-linejoin="bevel" d="
		M755.7,1553v3.3l2.9,1.7l2.9-1.7l2.9,1.7v3.3l-2.9,1.7v3.3l-2.9,1.7l-2.9-1.7l-2.9,1.7v3.3l-2.9,1.7l-2.9-1.7v-3.3l2.9-1.7v-3.3
		l-2.9-1.7v-3.3l-2.9-1.7v-3.3l2.9-1.7l2.9,1.7l2.9-1.7L755.7,1553"/>
</g>
<g id="con" display="none">
	
		<path id="E14000553_2_" vector-effect="none" display="inline" fill="#FFB900" stroke="#FFFFFF" stroke-width="0.5" stroke-linecap="square" stroke-linejoin="bevel" d="
		M767.2,1453v3.3l2.9,1.7l2.9-1.7l2.9,1.7v3.3l2.9,1.7v3.3l-2.9,1.7l-2.9-1.7l-2.9,1.7l-2.9-1.7l-2.9,1.7l-2.9-1.7v-3.3l-2.9-1.7
		v-3.3l-2.9-1.7v-3.3l2.9-1.7l2.9,1.7l2.9-1.7L767.2,1453"/>
	
		<path id="E14000563_2_" vector-effect="none" display="inline" fill="#FFB900" stroke="#FFFFFF" stroke-width="0.5" stroke-linecap="square" stroke-linejoin="bevel" d="
		M646.1,1353.2v3.3l-2.9,1.7l-2.9-1.7l-2.9,1.7v3.3l-2.9,1.7v3.3l-2.9,1.7l-2.9-1.7l-2.9,1.7l-2.9-1.7v-3.3l2.9-1.7v-3.3l-2.9-1.7
		v-3.3l2.9-1.7l2.9,1.7l2.9-1.7l2.9,1.7l2.9-1.7l2.9,1.7l2.9-1.7L646.1,1353.2"/>
	
		<path id="E14000568_2_" vector-effect="none" display="inline" fill="#FFB900" stroke="#FFFFFF" stroke-width="0.5" stroke-linecap="square" stroke-linejoin="bevel" d="
		M643.2,1368.1v3.3l-2.9,1.7l-2.9-1.7l-2.9,1.7v3.3l-2.9,1.7l-2.9-1.7l-2.9,1.7l-2.9-1.7v-3.3l-2.9-1.7v-3.3l2.9-1.7l2.9,1.7
		l2.9-1.7l2.9,1.7l2.9-1.7v-3.3l2.9-1.7v-3.3l2.9-1.7l2.9,1.7v3.3l2.9,1.7v3.3L643.2,1368.1"/>
	
		<path id="E14000574_2_" vector-effect="none" display="inline" fill="#FFB900" stroke="#FFFFFF" stroke-width="0.5" stroke-linecap="square" stroke-linejoin="bevel" d="
		M588.4,1093.5v3.3l2.9,1.7l2.9-1.7l2.9,1.7l2.9-1.7l2.9,1.7v3.3l2.9,1.7l2.9-1.7l2.9,1.7v3.3l-2.9,1.7l-2.9-1.7l-2.9,1.7l-2.9-1.7
		l-2.9,1.7l-2.9-1.7v-3.3l-2.9-1.7l-2.9,1.7l-2.9-1.7l-2.9,1.7l-2.9-1.7v-3.3l-2.9-1.7v-3.3l2.9-1.7l2.9,1.7l2.9-1.7L588.4,1093.5"
		/>
	
		<path id="E14000587_2_" vector-effect="none" display="inline" fill="#FFB900" stroke="#FFFFFF" stroke-width="0.5" stroke-linecap="square" stroke-linejoin="bevel" d="
		M637.4,1181.7l-2.9,1.7l-2.9-1.7v-3.3l-2.9-1.7v-3.3l-2.9-1.7v-3.3l-2.9-1.7v-3.3l2.9-1.7v-3.3l2.9-1.7l2.9,1.7v3.3l2.9,1.7v3.3
		l2.9,1.7v3.3l2.9,1.7v3.3l-2.9,1.7V1181.7"/>
	
		<path id="E14000591_2_" vector-effect="none" display="inline" fill="#FFB900" stroke="#FFFFFF" stroke-width="0.5" stroke-linecap="square" stroke-linejoin="bevel" d="
		M726.8,1423.1v3.3l-2.9,1.7v3.3l2.9,1.7v3.3l-2.9,1.7v3.3l-2.9,1.7l-2.9-1.7l-2.9,1.7l-2.9-1.7l-2.9,1.7l-2.9-1.7v-3.3l2.9-1.7
		v-3.3l2.9-1.7v-3.3l2.9-1.7v-3.3l2.9-1.7l2.9,1.7l2.9-1.7L726.8,1423.1"/>
	
		<path id="E14000602_2_" vector-effect="none" display="inline" fill="#FFB900" stroke="#FFFFFF" stroke-width="0.5" stroke-linecap="square" stroke-linejoin="bevel" d="
		M562.5,1468v3.3l2.9,1.7v3.3l2.9,1.7v3.3l-2.9,1.7l-2.9-1.7l-2.9,1.7l-2.9-1.7v-3.3l-2.9-1.7l-2.9,1.7l-2.9-1.7v-3.3l2.9-1.7v-3.3
		l2.9-1.7l2.9,1.7l2.9-1.7v-3.3l2.9-1.7l2.9,1.7v3.3L562.5,1468"/>
	
		<path id="E14000617_2_" vector-effect="none" display="inline" fill="#FFB900" stroke="#FFFFFF" stroke-width="0.5" stroke-linecap="square" stroke-linejoin="bevel" d="
		M784.5,1336.5l2.9,1.7l2.9-1.7l2.9,1.7v3.3l-2.9,1.7v3.3l2.9,1.7v3.3l-2.9,1.7l-2.9-1.7l-2.9,1.7l-2.9-1.7v-3.3l-2.9-1.7v-3.3
		l-2.9-1.7v-3.3l2.9-1.7v-3.3l2.9-1.7l2.9,1.7V1336.5"/>
	
		<path id="E14000632_2_" vector-effect="none" display="inline" fill="#FFB900" stroke="#FFFFFF" stroke-width="0.5" stroke-linecap="square" stroke-linejoin="bevel" d="
		M683.6,1268.3v3.3l-2.9,1.7v3.3l-2.9,1.7l-2.9-1.7l-2.9,1.7v3.3l-2.9,1.7l-2.9-1.7l-2.9,1.7l-2.9-1.7l-2.9,1.7l-2.9-1.7l-2.9,1.7
		l-2.9-1.7l-2.9,1.7l-2.9-1.7v-3.3l2.9-1.7l2.9,1.7l2.9-1.7l2.9,1.7l2.9-1.7l2.9,1.7l2.9-1.7v-3.3l2.9-1.7l2.9,1.7l2.9-1.7v-3.3
		l2.9-1.7l2.9,1.7l2.9-1.7L683.6,1268.3"/>
	
		<path id="E14000641_2_" vector-effect="none" display="inline" fill="#FFB900" stroke="#FFFFFF" stroke-width="0.5" stroke-linecap="square" stroke-linejoin="bevel" d="
		M605.7,1113.4v3.3l2.9,1.7l2.9-1.7l2.9,1.7l2.9-1.7l2.9,1.7l2.9-1.7l2.9,1.7l2.9-1.7l2.9,1.7l2.9-1.7l2.9,1.7v3.3l-2.9,1.7
		l-2.9-1.7l-2.9,1.7l-2.9-1.7l-2.9,1.7l-2.9-1.7l-2.9,1.7l-2.9-1.7l-2.9,1.7l-2.9-1.7l-2.9,1.7l-2.9-1.7l-2.9,1.7l-2.9-1.7v-3.3
		l-2.9-1.7v-3.3l2.9-1.7l2.9,1.7l2.9-1.7L605.7,1113.4"/>
	
		<path id="E14000716_2_" vector-effect="none" display="inline" fill="#7D0069" stroke="#FFFFFF" stroke-width="0.5" stroke-linecap="square" stroke-linejoin="bevel" d="
		M761.4,1233.3v3.3l2.9,1.7v3.3l-2.9,1.7v3.3l-2.9,1.7v3.3l-2.9,1.7l-2.9-1.7v-3.3l-2.9-1.7v-3.3l-2.9-1.7v-3.3l2.9-1.7v-3.3
		l2.9-1.7l2.9,1.7l2.9-1.7L761.4,1233.3"/>
	
		<path id="E14000752_2_" vector-effect="none" display="inline" fill="#FFB900" stroke="#FFFFFF" stroke-width="0.5" stroke-linecap="square" stroke-linejoin="bevel" d="
		M755.7,1403.1v3.3l2.9,1.7v3.3l2.9,1.7v3.3l-2.9,1.7l-2.9-1.7l-2.9,1.7l-2.9-1.7l-2.9,1.7l-2.9-1.7l-2.9,1.7l-2.9-1.7v-3.3l2.9-1.7
		v-3.3l2.9-1.7v-3.3l2.9-1.7l2.9,1.7l2.9-1.7L755.7,1403.1"/>
	
		<path id="E14000764_2_" vector-effect="none" display="inline" fill="#FFB900" stroke="#FFFFFF" stroke-width="0.5" stroke-linecap="square" stroke-linejoin="bevel" d="
		M767.2,1433.1v3.3l2.9,1.7v3.3l-2.9,1.7v3.3l-2.9,1.7l-2.9-1.7l-2.9,1.7l-2.9-1.7v-3.3l-2.9-1.7v-3.3l-2.9-1.7v-3.3l2.9-1.7
		l2.9,1.7l2.9-1.7l2.9,1.7l2.9-1.7L767.2,1433.1"/>
	
		<path id="E14000772_2_" vector-effect="none" display="inline" fill="#FFB900" stroke="#FFFFFF" stroke-width="0.5" stroke-linecap="square" stroke-linejoin="bevel" d="
		M735.5,1198.3v3.3l2.9,1.7l2.9-1.7l2.9,1.7v3.3l-2.9,1.7v3.3l-2.9,1.7l-2.9-1.7l-2.9,1.7l-2.9-1.7l-2.9,1.7l-2.9-1.7v-3.3l2.9-1.7
		v-3.3l-2.9-1.7v-3.3l2.9-1.7l2.9,1.7l2.9-1.7L735.5,1198.3"/>
	
		<path id="E14000780_2_" vector-effect="none" display="inline" fill="#FFB900" stroke="#FFFFFF" stroke-width="0.5" stroke-linecap="square" stroke-linejoin="bevel" d="
		M631.7,1148.4v3.3l2.9,1.7l2.9-1.7l2.9,1.7v3.3l2.9,1.7l2.9-1.7l2.9,1.7v3.3l2.9,1.7v3.3l2.9,1.7v3.3l-2.9,1.7l-2.9-1.7v-3.3
		l-2.9-1.7v-3.3l-2.9-1.7l-2.9,1.7l-2.9-1.7l-2.9,1.7l-2.9-1.7v-3.3l-2.9-1.7v-3.3l-2.9-1.7l-2.9,1.7l-2.9-1.7v-3.3l2.9-1.7l2.9,1.7
		l2.9-1.7L631.7,1148.4"/>
	
		<path id="E14000795_2_" vector-effect="none" display="inline" fill="#FFB900" stroke="#FFFFFF" stroke-width="0.5" stroke-linecap="square" stroke-linejoin="bevel" d="
		M548.1,1263.3v3.3l-2.9,1.7l-2.9-1.7l-2.9,1.7v3.3l-2.9,1.7v3.3l-2.9,1.7l-2.9-1.7v-3.3l-2.9-1.7v-3.3l2.9-1.7v-3.3l-2.9-1.7v-3.3
		l2.9-1.7l2.9,1.7v3.3l2.9,1.7l2.9-1.7v-3.3l2.9-1.7l2.9,1.7v3.3L548.1,1263.3"/>
	
		<path id="E14000808_2_" vector-effect="none" display="inline" fill="#FFB900" stroke="#FFFFFF" stroke-width="0.5" stroke-linecap="square" stroke-linejoin="bevel" d="
		M617.3,1243.3v3.3l-2.9,1.7v3.3l-2.9,1.7v3.3l-2.9,1.7l-2.9-1.7v-3.3l-2.9-1.7l-2.9,1.7l-2.9-1.7l-2.9,1.7l-2.9-1.7v-3.3l2.9-1.7
		l2.9,1.7l2.9-1.7v-3.3l2.9-1.7l2.9,1.7l2.9-1.7l2.9,1.7l2.9-1.7L617.3,1243.3"/>
	
		<path id="E14000809_2_" vector-effect="none" display="inline" fill="#FFB900" stroke="#FFFFFF" stroke-width="0.5" stroke-linecap="square" stroke-linejoin="bevel" d="
		M605.7,1253.3v3.3l-2.9,1.7v3.3l2.9,1.7v3.3l-2.9,1.7v3.3l-2.9,1.7l-2.9-1.7v-3.3l-2.9-1.7v-3.3l-2.9-1.7l-2.9,1.7l-2.9-1.7v-3.3
		l2.9-1.7v-3.3l2.9-1.7l2.9,1.7l2.9-1.7l2.9,1.7l2.9-1.7L605.7,1253.3"/>
	
		<path id="E14000832_2_" vector-effect="none" display="inline" fill="#FFB900" stroke="#FFFFFF" stroke-width="0.5" stroke-linecap="square" stroke-linejoin="bevel" d="
		M602.8,1081.8l2.9,1.7l2.9-1.7l2.9,1.7l2.9-1.7l2.9,1.7v3.3l2.9,1.7l2.9-1.7l2.9,1.7v3.3l-2.9,1.7l-2.9-1.7l-2.9,1.7l-2.9-1.7
		l-2.9,1.7l-2.9-1.7l-2.9,1.7l-2.9-1.7v-3.3l-2.9-1.7v-3.3l-2.9-1.7v-3.3l2.9-1.7l2.9,1.7V1081.8"/>
	
		<path id="E14000833_2_" vector-effect="none" display="inline" fill="#FFB900" stroke="#FFFFFF" stroke-width="0.5" stroke-linecap="square" stroke-linejoin="bevel" d="
		M600,1073.5v3.3l-2.9,1.7v3.3l-2.9,1.7l-2.9-1.7l-2.9,1.7l-2.9-1.7l-2.9,1.7l-2.9-1.7l-2.9,1.7v3.3l2.9,1.7v3.3l-2.9,1.7l-2.9-1.7
		v-3.3l-2.9-1.7v-3.3l2.9-1.7v-3.3l2.9-1.7v-3.3l2.9-1.7l2.9,1.7l2.9-1.7l2.9,1.7l2.9-1.7l2.9,1.7l2.9-1.7L600,1073.5"/>
	
		<path id="E14000873_2_" vector-effect="none" display="inline" fill="#FFB900" stroke="#FFFFFF" stroke-width="0.5" stroke-linecap="square" stroke-linejoin="bevel" d="
		M643.2,1418.1v3.3l2.9,1.7v3.3l-2.9,1.7v3.3l-2.9,1.7l-2.9-1.7l-2.9,1.7l-2.9-1.7v-3.3l-2.9-1.7v-3.3l2.9-1.7v-3.3l-2.9-1.7v-3.3
		l2.9-1.7l2.9,1.7v3.3l2.9,1.7l2.9-1.7v-3.3l2.9-1.7l2.9,1.7v3.3L643.2,1418.1"/>
	
		<path id="E14000897_2_" vector-effect="none" display="inline" fill="#FFB900" stroke="#FFFFFF" stroke-width="0.5" stroke-linecap="square" stroke-linejoin="bevel" d="
		M614.4,1201.7l2.9,1.7l2.9-1.7l2.9,1.7v3.3l-2.9,1.7l-2.9-1.7l-2.9,1.7l-2.9-1.7v-3.3l-2.9-1.7l-2.9,1.7l-2.9-1.7v-3.3l-2.9-1.7
		v-3.3l-2.9-1.7v-3.3l2.9-1.7v-3.3l2.9-1.7l2.9,1.7v3.3l2.9,1.7v3.3l2.9,1.7v3.3l2.9,1.7V1201.7"/>
	
		<path id="E14000904_2_" vector-effect="none" display="inline" fill="#7D0069" stroke="#FFFFFF" stroke-width="0.5" stroke-linecap="square" stroke-linejoin="bevel" d="
		M695.1,1238.3v3.3l2.9,1.7v3.3l2.9,1.7v3.3l2.9,1.7v3.3l-2.9,1.7l-2.9-1.7l-2.9,1.7l-2.9-1.7v-3.3l-2.9-1.7v-3.3l-2.9-1.7v-3.3
		l-2.9-1.7l-2.9,1.7l-2.9-1.7v-3.3l2.9-1.7l2.9,1.7l2.9-1.7l2.9,1.7l2.9-1.7L695.1,1238.3"/>
	
		<path id="E14000919_2_" vector-effect="none" display="inline" fill="#FFB900" stroke="#FFFFFF" stroke-width="0.5" stroke-linecap="square" stroke-linejoin="bevel" d="
		M672,1248.3v3.3l2.9,1.7l2.9-1.7l2.9,1.7l2.9-1.7l2.9,1.7v3.3l-2.9,1.7l-2.9-1.7l-2.9,1.7l-2.9-1.7l-2.9,1.7l-2.9-1.7l-2.9,1.7
		l-2.9-1.7l-2.9,1.7l-2.9-1.7l-2.9,1.7l-2.9-1.7v-3.3l2.9-1.7v-3.3l2.9-1.7l2.9,1.7l2.9-1.7l2.9,1.7l2.9-1.7L672,1248.3"/>
	
		<path id="E14000922_2_" vector-effect="none" display="inline" fill="#FFB900" stroke="#FFFFFF" stroke-width="0.5" stroke-linecap="square" stroke-linejoin="bevel" d="
		M660.5,1258.3v3.3l-2.9,1.7v3.3l2.9,1.7v3.3l-2.9,1.7l-2.9-1.7l-2.9,1.7l-2.9-1.7l-2.9,1.7l-2.9-1.7v-3.3l-2.9-1.7v-3.3l2.9-1.7
		v-3.3l2.9-1.7l2.9,1.7l2.9-1.7l2.9,1.7l2.9-1.7L660.5,1258.3"/>
	
		<path id="E14000978_2_" vector-effect="none" display="inline" fill="#FFB900" stroke="#FFFFFF" stroke-width="0.5" stroke-linecap="square" stroke-linejoin="bevel" d="
		M755.7,1483v3.3l2.9,1.7v3.3l2.9,1.7v3.3l2.9,1.7v3.3l-2.9,1.7l-2.9-1.7l-2.9,1.7l-2.9-1.7v-3.3l-2.9-1.7v-3.3l-2.9-1.7l-2.9,1.7
		l-2.9-1.7v-3.3l2.9-1.7v-3.3l2.9-1.7l2.9,1.7l2.9-1.7L755.7,1483"/>
	
		<path id="E14001013_2_" vector-effect="none" display="inline" fill="#FFB900" stroke="#FFFFFF" stroke-width="0.5" stroke-linecap="square" stroke-linejoin="bevel" d="
		M787.4,1398.1v3.3l2.9,1.7v3.3l-2.9,1.7v3.3l-2.9,1.7v3.3l-2.9,1.7l-2.9-1.7v-3.3l-2.9-1.7v-3.3l-2.9-1.7v-3.3l2.9-1.7v-3.3
		l2.9-1.7l2.9,1.7l2.9-1.7L787.4,1398.1"/>
	
		<path id="S14000005_1_" vector-effect="none" display="inline" fill="#FFB900" stroke="#FFFFFF" stroke-width="0.5" stroke-linecap="square" stroke-linejoin="bevel" d="
		M455.8,996.9l-2.9,1.7l-2.9-1.7v-3.3l2.9-1.7l2.9,1.7V996.9"/>
	
		<path id="S14000005_3_" vector-effect="none" display="inline" fill="#FFB900" stroke="#FFFFFF" stroke-width="0.5" stroke-linecap="square" stroke-linejoin="bevel" d="
		M464.4,991.9l-2.9,1.7l-2.9-1.7v-3.3l2.9-1.7v-3.3l2.9-1.7l2.9,1.7v3.3l-2.9,1.7V991.9"/>
	
		<path id="S14000005_4_" vector-effect="none" display="inline" fill="#FFB900" stroke="#FFFFFF" stroke-width="0.5" stroke-linecap="square" stroke-linejoin="bevel" d="
		M467.3,976.9l-2.9,1.7l-2.9-1.7l-2.9,1.7l-2.9-1.7v-3.3l2.9-1.7v-3.3l2.9-1.7l2.9,1.7v3.3l2.9,1.7V976.9"/>
	
		<path id="S14000005_8_" vector-effect="none" display="inline" fill="#FFB900" stroke="#FFFFFF" stroke-width="0.5" stroke-linecap="square" stroke-linejoin="bevel" d="
		M476,981.9l-2.9,1.7l-2.9-1.7v-3.3l2.9-1.7v-3.3l2.9-1.7v-3.3l2.9-1.7v-3.3l2.9-1.7l2.9,1.7v3.3l-2.9,1.7v3.3l-2.9,1.7v3.3
		l-2.9,1.7V981.9"/>
	
		<path id="S14000009_1_" vector-effect="none" display="inline" fill="#FFB900" stroke="#FFFFFF" stroke-width="0.5" stroke-linecap="square" stroke-linejoin="bevel" d="
		M507.7,903.7v3.3l-2.9,1.7v3.3l-2.9,1.7v3.3l-2.9,1.7l-2.9-1.7v-3.3l-2.9-1.7v-3.3l-2.9-1.7v-3.3l-2.9-1.7v-3.3l2.9-1.7l2.9,1.7
		v3.3l2.9,1.7l2.9-1.7v-3.3l2.9-1.7v-3.3l2.9-1.7l2.9,1.7v3.3l2.9,1.7v3.3L507.7,903.7"/>
	
		<path id="S14000018_1_" vector-effect="none" display="inline" fill="#FFB900" stroke="#FFFFFF" stroke-width="0.5" stroke-linecap="square" stroke-linejoin="bevel" d="
		M507.7,976.9l2.9,1.7v3.3l2.9,1.7v3.3l2.9,1.7v3.3l2.9,1.7v3.3l-2.9,1.7l-2.9-1.7v-3.3l-2.9-1.7v-3.3l-2.9-1.7v-3.3l-2.9-1.7v-3.3
		l-2.9-1.7l-2.9,1.7v3.3l-2.9,1.7l-2.9-1.7v-3.3l2.9-1.7v-3.3l2.9-1.7v-3.3l2.9-1.7l2.9,1.7v3.3l2.9,1.7V976.9"/>
	
		<path id="S14000026_1_" vector-effect="none" display="inline" fill="#FFB900" stroke="#FFFFFF" stroke-width="0.5" stroke-linecap="square" stroke-linejoin="bevel" d="
		M548.1,1003.6v3.3l-2.9,1.7v3.3l2.9,1.7v3.3l-2.9,1.7v3.3l2.9,1.7v3.3l-2.9,1.7l-2.9-1.7v-3.3l-2.9-1.7v-3.3l-2.9-1.7v-3.3
		l-2.9-1.7v-3.3l-2.9-1.7v-3.3l2.9-1.7l2.9,1.7l2.9-1.7l2.9,1.7l2.9-1.7L548.1,1003.6"/>
	
		<path id="S14000037_1_" vector-effect="none" display="inline" fill="#FFB900" stroke="#FFFFFF" stroke-width="0.5" stroke-linecap="square" stroke-linejoin="bevel" d="
		M579.8,918.7v3.3l-2.9,1.7L574,922l-2.9,1.7l-2.9-1.7l-2.9,1.7l-2.9-1.7l-2.9,1.7l-2.9-1.7l-2.9,1.7v3.3l-2.9,1.7v3.3l-2.9,1.7
		l-2.9-1.7l-2.9,1.7l-2.9-1.7v-3.3l2.9-1.7v-3.3l2.9-1.7l2.9,1.7l2.9-1.7v-3.3l2.9-1.7l2.9,1.7l2.9-1.7l2.9,1.7l2.9-1.7l2.9,1.7
		l2.9-1.7l2.9,1.7l2.9-1.7L579.8,918.7"/>
	
		<path id="S14000039_1_" vector-effect="none" display="inline" fill="#FFB900" stroke="#FFFFFF" stroke-width="0.5" stroke-linecap="square" stroke-linejoin="bevel" d="
		M513.5,923.7v3.3l2.9,1.7l2.9-1.7l2.9,1.7v3.3l-2.9,1.7l-2.9-1.7l-2.9,1.7v3.3l-2.9,1.7l-2.9-1.7l-2.9,1.7v3.3l-2.9,1.7L499,942
		v-3.3l2.9-1.7v-3.3L499,932v-3.3l2.9-1.7v-3.3l2.9-1.7l2.9,1.7l2.9-1.7L513.5,923.7"/>
	
		<path id="S14000049_1_" vector-effect="none" display="inline" fill="#FFB900" stroke="#FFFFFF" stroke-width="0.5" stroke-linecap="square" stroke-linejoin="bevel" d="
		M550.9,968.6v3.3l2.9,1.7l2.9-1.7l2.9,1.7v3.3l2.9,1.7l2.9-1.7l2.9,1.7v3.3l2.9,1.7l2.9-1.7l2.9,1.7v3.3l-2.9,1.7l-2.9-1.7
		l-2.9,1.7l-2.9-1.7v-3.3l-2.9-1.7l-2.9,1.7l-2.9-1.7v-3.3l-2.9-1.7l-2.9,1.7l-2.9-1.7v-3.3l-2.9-1.7l-2.9,1.7l-2.9-1.7v-3.3
		l2.9-1.7l2.9,1.7l2.9-1.7L550.9,968.6"/>
	
		<path id="S14000051_3_" vector-effect="none" display="inline" fill="#FFB900" stroke="#FFFFFF" stroke-width="0.5" stroke-linecap="square" stroke-linejoin="bevel" d="
		M519.2,887l-2.9,1.7l-2.9-1.7v-3.3l2.9-1.7l2.9,1.7V887"/>
	
		<path id="S14000051_4_" vector-effect="none" display="inline" fill="#FFB900" stroke="#FFFFFF" stroke-width="0.5" stroke-linecap="square" stroke-linejoin="bevel" d="
		M525,877l2.9,1.7v3.3l-2.9,1.7l-2.9-1.7v-3.3l-2.9-1.7l-2.9,1.7l-2.9-1.7v-3.3l2.9-1.7v-3.3l2.9-1.7l2.9,1.7v3.3l2.9,1.7V877"/>
	
		<path id="S14000051_5_" vector-effect="none" display="inline" fill="#FFB900" stroke="#FFFFFF" stroke-width="0.5" stroke-linecap="square" stroke-linejoin="bevel" d="
		M568.2,818.8v3.3l-2.9,1.7l-2.9-1.7l-2.9,1.7l-2.9-1.7v-3.3l2.9-1.7l2.9,1.7l2.9-1.7v-3.3l-2.9-1.7v-3.3l2.9-1.7v-3.3l2.9-1.7
		l2.9,1.7v3.3l-2.9,1.7v3.3l2.9,1.7v3.3L568.2,818.8"/>
	
		<path id="S14000055_3_" vector-effect="none" display="inline" fill="#FFB900" stroke="#FFFFFF" stroke-width="0.5" stroke-linecap="square" stroke-linejoin="bevel" d="
		M478.9,923.7v3.3l-2.9,1.7v3.3l-2.9,1.7l-2.9-1.7v-3.3l-2.9-1.7v-3.3l2.9-1.7l2.9,1.7l2.9-1.7L478.9,923.7"/>
	
		<path id="S14000055_4_" vector-effect="none" display="inline" fill="#FFB900" stroke="#FFFFFF" stroke-width="0.5" stroke-linecap="square" stroke-linejoin="bevel" d="
		M504.8,918.7v3.3l-2.9,1.7v3.3l-2.9,1.7v3.3l2.9,1.7v3.3l-2.9,1.7v3.3l-2.9,1.7l-2.9-1.7v-3.3l2.9-1.7v-3.3l-2.9-1.7v-3.3l-2.9-1.7
		v-3.3l2.9-1.7v-3.3l2.9-1.7l2.9,1.7l2.9-1.7L504.8,918.7"/>
	
		<path id="S14000058_1_" vector-effect="none" display="inline" fill="#FFB900" stroke="#FFFFFF" stroke-width="0.5" stroke-linecap="square" stroke-linejoin="bevel" d="
		M559.6,933.6v3.3l-2.9,1.7l-2.9-1.7l-2.9,1.7v3.3l-2.9,1.7l-2.9-1.7v-3.3l-2.9-1.7l-2.9,1.7l-2.9-1.7l-2.9,1.7l-2.9-1.7l-2.9,1.7
		L525,937l-2.9,1.7l-2.9-1.7l-2.9,1.7l-2.9-1.7v-3.3l2.9-1.7l2.9,1.7l2.9-1.7l2.9,1.7l2.9-1.7l2.9,1.7l2.9-1.7l2.9,1.7l2.9-1.7
		l2.9,1.7l2.9-1.7l2.9,1.7l2.9-1.7l2.9,1.7l2.9-1.7L559.6,933.6"/>
	
		<path id="W07000041_2_" vector-effect="none" display="inline" fill="#FFB900" stroke="#FFFFFF" stroke-width="0.5" stroke-linecap="square" stroke-linejoin="bevel" d="
		M476,1291.3l-2.9,1.7l-2.9-1.7l-2.9,1.7l-2.9-1.7v-3.3l2.9-1.7v-3.3l-2.9-1.7v-3.3l-2.9-1.7v-3.3l2.9-1.7v-3.3l2.9-1.7l2.9,1.7v3.3
		l2.9,1.7v3.3l2.9,1.7v3.3l2.9,1.7v3.3l-2.9,1.7V1291.3"/>
	
		<path id="W07000045_2_" vector-effect="none" display="inline" fill="#FFB900" stroke="#FFFFFF" stroke-width="0.5" stroke-linecap="square" stroke-linejoin="bevel" d="
		M481.7,1408.1v3.3l-2.9,1.7v3.3l-2.9,1.7v3.3l-2.9,1.7v3.3l-2.9,1.7l-2.9-1.7v-3.3l-2.9-1.7v-3.3l2.9-1.7v-3.3l2.9-1.7v-3.3
		l2.9-1.7l2.9,1.7l2.9-1.7v-3.3l2.9-1.7l2.9,1.7v3.3L481.7,1408.1"/>
	
		<path id="W07000047_2_" vector-effect="none" display="inline" fill="#FFB900" stroke="#FFFFFF" stroke-width="0.5" stroke-linecap="square" stroke-linejoin="bevel" d="
		M481.7,1451.4l-2.9,1.7l-2.9-1.7v-3.3l-2.9-1.7v-3.3l-2.9-1.7v-3.3l2.9-1.7v-3.3l2.9-1.7v-3.3l2.9-1.7l2.9,1.7v3.3l2.9,1.7v3.3
		l2.9,1.7v3.3l-2.9,1.7v3.3l-2.9,1.7L481.7,1451.4"/>
	
		<path id="W07000050_2_" vector-effect="none" display="inline" fill="#FFB900" stroke="#FFFFFF" stroke-width="0.5" stroke-linecap="square" stroke-linejoin="bevel" d="
		M530.8,1463v3.3l2.9,1.7v3.3l-2.9,1.7v3.3l-2.9,1.7v3.3l-2.9,1.7l-2.9-1.7v-3.3l-2.9-1.7v-3.3l-2.9-1.7v-3.3l2.9-1.7v-3.3l2.9-1.7
		l2.9,1.7l2.9-1.7L530.8,1463"/>
	
		<path id="W07000052_2_" vector-effect="none" display="inline" fill="#FFB900" stroke="#FFFFFF" stroke-width="0.5" stroke-linecap="square" stroke-linejoin="bevel" d="
		M507.7,1436.4l-2.9,1.7l-2.9-1.7v-3.3l-2.9-1.7v-3.3l-2.9-1.7v-3.3l-2.9-1.7v-3.3l2.9-1.7v-3.3l2.9-1.7l2.9,1.7v3.3l2.9,1.7v3.3
		l2.9,1.7v3.3l2.9,1.7v3.3l-2.9,1.7V1436.4"/>
	
		<path id="W07000055_2_" vector-effect="none" display="inline" fill="#FFB900" stroke="#FFFFFF" stroke-width="0.5" stroke-linecap="square" stroke-linejoin="bevel" d="
		M553.8,1456.4l-2.9,1.7l-2.9-1.7l-2.9,1.7v3.3l-2.9,1.7l-2.9-1.7v-3.3l2.9-1.7v-3.3l2.9-1.7v-3.3l-2.9-1.7v-3.3l2.9-1.7v-3.3
		l-2.9-1.7v-3.3l2.9-1.7l2.9,1.7v3.3l2.9,1.7v3.3l2.9,1.7v3.3l2.9,1.7v3.3l-2.9,1.7V1456.4"/>
	
		<path id="W07000057_2_" vector-effect="none" display="inline" fill="#FFB900" stroke="#FFFFFF" stroke-width="0.5" stroke-linecap="square" stroke-linejoin="bevel" d="
		M487.5,1298.2v3.3l-2.9,1.7v3.3l-2.9,1.7v3.3l-2.9,1.7v3.3l2.9,1.7v3.3l-2.9,1.7l-2.9-1.7v-3.3l-2.9-1.7v-3.3l-2.9-1.7v-3.3
		l2.9-1.7v-3.3l-2.9-1.7v-3.3l2.9-1.7l2.9,1.7l2.9-1.7l2.9,1.7l2.9-1.7L487.5,1298.2"/>
	
		<path id="W07000067_1_" vector-effect="none" display="inline" fill="#FFB900" stroke="#FFFFFF" stroke-width="0.5" stroke-linecap="square" stroke-linejoin="bevel" d="
		M510.6,1378.1v3.3l-2.9,1.7v3.3l2.9,1.7v3.3l-2.9,1.7v3.3l-2.9,1.7l-2.9-1.7l-2.9,1.7l-2.9-1.7l-2.9,1.7l-2.9-1.7v-3.3l2.9-1.7
		v-3.3l2.9-1.7v-3.3l2.9-1.7v-3.3l2.9-1.7l2.9,1.7l2.9-1.7L510.6,1378.1"/>
	
		<path id="W07000069_2_" vector-effect="none" display="inline" fill="#FFB900" stroke="#FFFFFF" stroke-width="0.5" stroke-linecap="square" stroke-linejoin="bevel" d="
		M499,1398.1v3.3l-2.9,1.7v3.3l2.9,1.7v3.3l-2.9,1.7v3.3l-2.9,1.7v3.3l2.9,1.7v3.3l-2.9,1.7l-2.9-1.7v-3.3l-2.9-1.7v-3.3l2.9-1.7
		v-3.3l-2.9-1.7v-3.3l-2.9-1.7v-3.3l2.9-1.7v-3.3l2.9-1.7l2.9,1.7l2.9-1.7L499,1398.1"/>
	
		<path id="W07000070_2_" vector-effect="none" display="inline" fill="#FFB900" stroke="#FFFFFF" stroke-width="0.5" stroke-linecap="square" stroke-linejoin="bevel" d="
		M516.3,1431.4l-2.9,1.7l-2.9-1.7v-3.3l-2.9-1.7v-3.3l-2.9-1.7v-3.3l-2.9-1.7v-3.3l-2.9-1.7v-3.3l-2.9-1.7v-3.3l2.9-1.7v-3.3
		l2.9-1.7l2.9,1.7v3.3l2.9,1.7v3.3l-2.9,1.7v3.3l2.9,1.7v3.3l2.9,1.7v3.3l2.9,1.7v3.3l2.9,1.7V1431.4"/>
	
		<path id="W07000071_2_" vector-effect="none" display="inline" fill="#FFB900" stroke="#FFFFFF" stroke-width="0.5" stroke-linecap="square" stroke-linejoin="bevel" d="
		M522.1,1421.4l-2.9,1.7l-2.9-1.7l-2.9,1.7l-2.9-1.7v-3.3l-2.9-1.7v-3.3l-2.9-1.7v-3.3l2.9-1.7v-3.3l-2.9-1.7v-3.3l2.9-1.7v-3.3
		l2.9-1.7l2.9,1.7v3.3l-2.9,1.7v3.3l2.9,1.7v3.3l2.9,1.7v3.3l2.9,1.7v3.3l2.9,1.7V1421.4"/>
	
		<path id="W07000075_2_" vector-effect="none" display="inline" fill="#FFB900" stroke="#FFFFFF" stroke-width="0.5" stroke-linecap="square" stroke-linejoin="bevel" d="
		M510.6,1461.4l-2.9,1.7l-2.9-1.7v-3.3l2.9-1.7v-3.3l-2.9-1.7v-3.3l2.9-1.7v-3.3l-2.9-1.7v-3.3l2.9-1.7v-3.3l2.9-1.7l2.9,1.7v3.3
		l2.9,1.7v3.3l2.9,1.7v3.3l-2.9,1.7v3.3l-2.9,1.7v3.3l-2.9,1.7V1461.4"/>
	
		<path id="W07000076_2_" vector-effect="none" display="inline" fill="#FFB900" stroke="#FFFFFF" stroke-width="0.5" stroke-linecap="square" stroke-linejoin="bevel" d="
		M525,1436.4l2.9,1.7l2.9-1.7l2.9,1.7v3.3l-2.9,1.7v3.3l-2.9,1.7l-2.9-1.7l-2.9,1.7l-2.9-1.7v-3.3l-2.9-1.7v-3.3l-2.9-1.7v-3.3
		l2.9-1.7v-3.3l-2.9-1.7v-3.3l2.9-1.7l2.9,1.7v3.3l2.9,1.7v3.3l2.9,1.7V1436.4"/>
	
		<path id="W07000077_2_" vector-effect="none" display="inline" fill="#FFB900" stroke="#FFFFFF" stroke-width="0.5" stroke-linecap="square" stroke-linejoin="bevel" d="
		M536.5,1436.4l-2.9,1.7l-2.9-1.7l-2.9,1.7l-2.9-1.7v-3.3l-2.9-1.7v-3.3l-2.9-1.7v-3.3l2.9-1.7v-3.3l-2.9-1.7v-3.3l2.9-1.7l2.9,1.7
		v3.3l2.9,1.7v3.3l2.9,1.7v3.3l2.9,1.7v3.3l2.9,1.7V1436.4"/>
</g>
<g id="areas_2_" transform="matrix(0.999751,0,0,0.999751,0,0)">
	<path vector-effect="none" fill="none" stroke="#FFFFFF" stroke-linecap="square" stroke-linejoin="bevel" d="M778.9,1306.9
		l-2.9,1.7l-2.9-1.7l-2.9,1.7l-2.9-1.7l-2.9,1.7l-2.9-1.7l-2.9,1.7l-2.9-1.7l-2.9,1.7v3.3l-2.9,1.7l-2.9-1.7l-2.9,1.7v3.3l2.9,1.7
		v3.3l2.9,1.7v3.3l-2.9,1.7v3.3l-2.9,1.7v3.3l-2.9,1.7l-2.9-1.7l-2.9,1.7v3.3l-2.9,1.7v3.3l-2.9,1.7l-2.9-1.7l-2.9,1.7v3.3l-2.9,1.7
		l-2.9-1.7l-2.9,1.7v3.3l-2.9,1.7l-2.9-1.7l-2.9,1.7l-2.9-1.7l-2.9,1.7v3.3l-2.9,1.7v3.3l-2.9,1.7v3.3l-2.9,1.7v3.3l-2.9,1.7
		l-2.9-1.7l-2.9,1.7v3.3l-2.9,1.7l-2.9-1.7v-3.3l-2.9-1.7l-2.9,1.7v3.3l-2.9,1.7v3.3l-2.9,1.7v3.3l-2.9,1.7l-2.9-1.7l-2.9,1.7v3.3
		l-2.9,1.7v3.3l-2.9,1.7l-2.9-1.7l-2.9,1.7l-2.9-1.7v-3.3l2.9-1.7v-3.3l2.9-1.7l2.9,1.7l2.9-1.7v-3.3l2.9-1.7l2.9,1.7l2.9-1.7v-3.3
		l2.9-1.7v-3.3l2.9-1.7v-3.3l2.9-1.7v-3.3l2.9-1.7v-3.3l2.9-1.7v-3.3l2.9-1.7v-3.3l-2.9-1.7v-3.3l2.9-1.7v-3.3l-2.9-1.7v-3.3
		l2.9-1.7v-3.3l-2.9-1.7l-2.9,1.7v3.3l-2.9,1.7l-2.9-1.7l-2.9,1.7l-2.9-1.7l-2.9,1.7l-2.9-1.7l-2.9,1.7l-2.9-1.7v-3.3l-2.9-1.7v-3.3
		l2.9-1.7v-3.3l-2.9-1.7l-2.9,1.7l-2.9-1.7l-2.9,1.7l-2.9-1.7v-3.3l2.9-1.7v-3.3l-2.9-1.7l-2.9,1.7l-2.9-1.7v-3.3l2.9-1.7"/>
	<path vector-effect="none" fill="none" stroke="#FFFFFF" stroke-linecap="square" stroke-linejoin="bevel" d="M634.7,1306.9v-3.3
		l-2.9-1.7v-3.3l-2.9-1.7v-3.3l-2.9-1.7v-3.3l-2.9-1.7v-3.3l2.9-1.7v-3.3l2.9-1.7v-3.3l2.9-1.7v-3.3l2.9-1.7v-3.3l2.9-1.7l2.9,1.7
		v3.3l2.9,1.7v3.3l2.9,1.7l2.9-1.7l2.9,1.7l2.9-1.7l2.9,1.7l2.9-1.7v-3.3l2.9-1.7l2.9,1.7l2.9-1.7l2.9,1.7l2.9-1.7l2.9,1.7l2.9-1.7
		l2.9,1.7l2.9-1.7l2.9,1.7l2.9-1.7v-3.3l2.9-1.7l2.9,1.7l2.9-1.7l2.9,1.7l2.9-1.7l2.9,1.7v3.3l2.9,1.7l2.9-1.7v-3.3l-2.9-1.7v-3.3
		l2.9-1.7v-3.3l2.9-1.7v-3.3l2.9-1.7v-3.3l2.9-1.7l2.9,1.7l2.9-1.7l2.9,1.7v3.3l2.9,1.7v3.3l2.9,1.7v3.3l2.9,1.7l2.9-1.7v-3.3
		l2.9-1.7l2.9,1.7v3.3l2.9,1.7v3.3l2.9,1.7l2.9-1.7v-3.3l2.9-1.7v-3.3l2.9-1.7"/>
	<path vector-effect="none" fill="none" stroke="#FFFFFF" stroke-linecap="square" stroke-linejoin="bevel" d="M652,1336.8l2.9,1.7
		l2.9-1.7l2.9,1.7l2.9-1.7l2.9,1.7l2.9-1.7l2.9,1.7l2.9-1.7v-3.3l2.9-1.7l2.9,1.7v3.3l-2.9,1.7v3.3l2.9,1.7v3.3l-2.9,1.7v3.3
		l2.9,1.7v3.3l-2.9,1.7v3.3l-2.9,1.7v3.3l-2.9,1.7v3.3l-2.9,1.7v3.3l-2.9,1.7v3.3l-2.9,1.7v3.3l-2.9,1.7l-2.9-1.7l-2.9,1.7v3.3
		l-2.9,1.7l-2.9-1.7l-2.9,1.7v3.3l-2.9,1.7v3.3l2.9,1.7v3.3l-2.9,1.7l-2.9-1.7v-3.3l-2.9-1.7l-2.9,1.7v3.3l-2.9,1.7l-2.9-1.7
		l-2.9,1.7v3.3l-2.9,1.7v3.3l-2.9,1.7l-2.9-1.7l-2.9,1.7l-2.9-1.7l-2.9,1.7v3.3l-2.9,1.7l-2.9-1.7l-2.9,1.7l-2.9-1.7v-3.3l-2.9-1.7
		l-2.9,1.7l-2.9-1.7l-2.9,1.7l-2.9-1.7l-2.9,1.7l-2.9-1.7l-2.9,1.7v3.3l-2.9,1.7l-2.9-1.7v-3.3l-2.9-1.7l-2.9,1.7l-2.9-1.7v-3.3
		l-2.9-1.7l-2.9,1.7l-2.9-1.7l-2.9,1.7v3.3l-2.9,1.7l-2.9-1.7v-3.3l-2.9-1.7v-3.3l-2.9-1.7l-2.9,1.7l-2.9-1.7v-3.3l-2.9-1.7v-3.3
		l-2.9-1.7l-2.9,1.7l-2.9-1.7v-3.3l-2.9-1.7v-3.3l2.9-1.7v-3.3l2.9-1.7l2.9,1.7l2.9-1.7v-3.3l-2.9-1.7v-3.3l2.9-1.7v-3.3l-2.9-1.7
		l-2.9,1.7v3.3l-2.9,1.7l-2.9-1.7v-3.3l-2.9-1.7v-3.3l-2.9-1.7v-3.3l2.9-1.7v-3.3l2.9-1.7v-3.3l-2.9-1.7v-3.3l2.9-1.7l2.9,1.7
		l2.9-1.7v-3.3l2.9-1.7l2.9,1.7l2.9-1.7v-3.3l2.9-1.7l2.9,1.7l2.9-1.7l2.9,1.7l2.9-1.7v-3.3l2.9-1.7l2.9,1.7l2.9-1.7v-3.3l2.9-1.7
		l2.9,1.7l2.9-1.7v-3.3l2.9-1.7v-3.3l2.9-1.7v-3.3l2.9-1.7l2.9,1.7l2.9-1.7v-3.3l2.9-1.7l2.9,1.7l2.9-1.7v-3.3l2.9-1.7l2.9,1.7
		l2.9-1.7v-3.3l2.9-1.7l2.9,1.7l2.9-1.7l2.9,1.7l2.9-1.7l2.9,1.7l2.9-1.7v-3.3l2.9-1.7l2.9,1.7l2.9-1.7l2.9,1.7v3.3l2.9,1.7v3.3
		l2.9,1.7v3.3l2.9,1.7v3.3l-2.9,1.7v3.3l2.9,1.7l2.9-1.7l2.9,1.7v3.3l-2.9,1.7v3.3l2.9,1.7l2.9-1.7l2.9,1.7l2.9-1.7l2.9,1.7v3.3
		l-2.9,1.7v3.3l2.9,1.7V1336.8"/>
	<path vector-effect="none" fill="none" stroke="#FFFFFF" stroke-linecap="square" stroke-linejoin="bevel" d="M551.1,1458.4
		l2.9-1.7v-3.3l2.9-1.7v-3.3l-2.9-1.7v-3.3l-2.9-1.7v-3.3l2.9-1.7v-3.3l-2.9-1.7v-3.3l-2.9-1.7v-3.3l-2.9-1.7v-3.3l2.9-1.7v-3.3
		l2.9-1.7l2.9,1.7l2.9-1.7l2.9,1.7v3.3l2.9,1.7l2.9-1.7l2.9,1.7v3.3l2.9,1.7l2.9-1.7v-3.3l2.9-1.7l2.9,1.7l2.9-1.7l2.9,1.7l2.9-1.7
		l2.9,1.7l2.9-1.7l2.9,1.7v3.3l2.9,1.7l2.9-1.7l2.9,1.7l2.9-1.7v-3.3l2.9-1.7l2.9,1.7v3.3l-2.9,1.7v3.3l-2.9,1.7v3.3l-2.9,1.7v3.3
		l2.9,1.7l2.9-1.7l2.9,1.7v3.3l-2.9,1.7v3.3l-2.9,1.7v3.3l2.9,1.7v3.3l-2.9,1.7v3.3l2.9,1.7v3.3l-2.9,1.7v3.3l2.9,1.7v3.3l-2.9,1.7
		v3.3l2.9,1.7v3.3l-2.9,1.7v3.3l-2.9,1.7l-2.9-1.7l-2.9,1.7v3.3l2.9,1.7v3.3l2.9,1.7v3.3l2.9,1.7v3.3l-2.9,1.7v3.3l-2.9,1.7
		l-2.9-1.7v-3.3l-2.9-1.7l-2.9,1.7v3.3l-2.9,1.7v3.3l2.9,1.7v3.3l2.9,1.7l2.9-1.7l2.9,1.7v3.3l2.9,1.7v3.3l2.9,1.7v3.3l2.9,1.7
		l2.9-1.7l2.9,1.7v3.3l2.9,1.7v3.3l2.9,1.7"/>
	<path vector-effect="none" fill="none" stroke="#FFFFFF" stroke-linecap="square" stroke-linejoin="bevel" d="M542.4,1486.7v-3.3
		l2.9-1.7v-3.3l-2.9-1.7v-3.3l2.9-1.7v-3.3l2.9-1.7v-3.3"/>
	<path vector-effect="none" fill="none" stroke="#FFFFFF" stroke-linecap="square" stroke-linejoin="bevel" d="M848.1,1453.4
		l-2.9-1.7l-2.9,1.7v3.3l-2.9,1.7l-2.9-1.7l-2.9,1.7v3.3l-2.9,1.7v3.3l-2.9,1.7l-2.9-1.7l-2.9,1.7l-2.9-1.7v-3.3l-2.9-1.7v-3.3
		l2.9-1.7v-3.3l2.9-1.7l2.9,1.7l2.9-1.7v-3.3l-2.9-1.7v-3.3l2.9-1.7v-3.3l-2.9-1.7v-3.3"/>
	<path vector-effect="none" fill="none" stroke="#FFFFFF" stroke-linecap="square" stroke-linejoin="bevel" d="M825.1,1433.4
		l-2.9-1.7v-3.3l-2.9-1.7v-3.3l2.9-1.7v-3.3l-2.9-1.7v-3.3l2.9-1.7v-3.3l2.9-1.7v-3.3l-2.9-1.7l-2.9,1.7l-2.9-1.7v-3.3l-2.9-1.7
		v-3.3l-2.9-1.7l-2.9,1.7l-2.9-1.7l-2.9,1.7l-2.9-1.7l-2.9,1.7l-2.9-1.7v-3.3l-2.9-1.7l-2.9,1.7l-2.9-1.7v-3.3l-2.9-1.7v-3.3
		l-2.9-1.7l-2.9,1.7l-2.9-1.7l-2.9,1.7l-2.9-1.7l-2.9,1.7l-2.9-1.7l-2.9,1.7l-2.9-1.7l-2.9,1.7v3.3l-2.9,1.7l-2.9-1.7l-2.9,1.7v3.3
		l-2.9,1.7l-2.9-1.7l-2.9,1.7v3.3l-2.9,1.7l-2.9-1.7l-2.9,1.7v3.3l-2.9,1.7l-2.9-1.7l-2.9,1.7v3.3l-2.9,1.7l-2.9-1.7l-2.9,1.7
		l-2.9-1.7l-2.9,1.7v3.3l-2.9,1.7v3.3l-2.9,1.7v3.3l-2.9,1.7l-2.9-1.7l-2.9,1.7v3.3l-2.9,1.7l-2.9-1.7l-2.9,1.7l-2.9-1.7v-3.3
		l2.9-1.7v-3.3l-2.9-1.7l-2.9,1.7l-2.9-1.7l-2.9,1.7l-2.9-1.7v-3.3l2.9-1.7v-3.3l2.9-1.7v-3.3l2.9-1.7v-3.3l2.9-1.7l2.9,1.7l2.9-1.7
		v-3.3l2.9-1.7v-3.3l2.9-1.7l2.9,1.7l2.9-1.7v-3.3l2.9-1.7l2.9,1.7l2.9-1.7v-3.3l2.9-1.7v-3.3l2.9-1.7v-3.3l2.9-1.7v-3.3l2.9-1.7
		v-3.3l2.9-1.7l2.9,1.7l2.9-1.7v-3.3l2.9-1.7l2.9,1.7l2.9-1.7v-3.3l2.9-1.7v-3.3l2.9-1.7l2.9,1.7l2.9-1.7v-3.3l2.9-1.7v-3.3l2.9-1.7
		v-3.3l-2.9-1.7v-3.3l-2.9-1.7v-3.3l2.9-1.7l2.9,1.7l2.9-1.7v-3.3l2.9-1.7l2.9,1.7l2.9-1.7l2.9,1.7l2.9-1.7l2.9,1.7l2.9-1.7l2.9,1.7
		l2.9-1.7"/>
	<path vector-effect="none" fill="none" stroke="#FFFFFF" stroke-linecap="square" stroke-linejoin="bevel" d="M692.4,1143.7v3.3
		l2.9,1.7v3.3l-2.9,1.7v3.3l-2.9,1.7l-2.9-1.7l-2.9,1.7l-2.9-1.7l-2.9,1.7l-2.9-1.7l-2.9,1.7l-2.9-1.7l-2.9,1.7l-2.9-1.7v-3.3
		l-2.9-1.7l-2.9,1.7l-2.9-1.7l-2.9,1.7l-2.9-1.7l-2.9,1.7l-2.9-1.7v-3.3l-2.9-1.7v-3.3l-2.9-1.7l-2.9,1.7l-2.9-1.7l-2.9,1.7
		l-2.9-1.7v-3.3l-2.9-1.7l-2.9,1.7l-2.9-1.7v-3.3l-2.9-1.7l-2.9,1.7l-2.9-1.7l-2.9,1.7l-2.9-1.7v-3.3l-2.9-1.7l-2.9,1.7v3.3
		l-2.9,1.7l-2.9-1.7l-2.9,1.7l-2.9-1.7v-3.3l-2.9-1.7v-3.3l-2.9-1.7v-3.3l-2.9-1.7v-3.3l-2.9-1.7v-3.3l-2.9-1.7v-3.3l2.9-1.7v-3.3
		l-2.9-1.7v-3.3l-2.9-1.7l-2.9,1.7l-2.9-1.7v-3.3l-2.9-1.7v-3.3l2.9-1.7v-3.3l2.9-1.7v-3.3l2.9-1.7v-3.3l2.9-1.7l2.9,1.7l2.9-1.7
		v-3.3l-2.9-1.7v-3.3l2.9-1.7v-3.3l2.9-1.7l2.9,1.7l2.9-1.7l2.9,1.7"/>
	<path vector-effect="none" fill="none" stroke="#FFFFFF" stroke-linecap="square" stroke-linejoin="bevel" d="M579.9,1052.1
		l-2.9,1.7v3.3l-2.9,1.7v3.3l2.9,1.7v3.3l-2.9,1.7l-2.9-1.7l-2.9,1.7v3.3l-2.9,1.7v3.3l-2.9,1.7v3.3l-2.9,1.7l-2.9-1.7l-2.9,1.7
		l-2.9-1.7l-2.9,1.7"/>
	<path vector-effect="none" fill="none" stroke="#FFFFFF" stroke-linecap="square" stroke-linejoin="bevel" d="M623.2,1553.3
		l-2.9-1.7v-3.3l-2.9-1.7v-3.3l-2.9-1.7l-2.9,1.7l-2.9-1.7v-3.3l-2.9-1.7v-3.3l-2.9-1.7v-3.3l-2.9-1.7l-2.9,1.7l-2.9-1.7v-3.3
		l-2.9-1.7v-3.3l2.9-1.7v-3.3l2.9-1.7l2.9,1.7v3.3l2.9,1.7l2.9-1.7v-3.3l2.9-1.7v-3.3l-2.9-1.7v-3.3l-2.9-1.7v-3.3l-2.9-1.7v-3.3
		l2.9-1.7l2.9,1.7l2.9-1.7v-3.3l2.9-1.7v-3.3l-2.9-1.7v-3.3l2.9-1.7v-3.3l-2.9-1.7v-3.3l2.9-1.7v-3.3l-2.9-1.7v-3.3l2.9-1.7v-3.3
		l-2.9-1.7v-3.3l2.9-1.7v-3.3l2.9-1.7v-3.3l-2.9-1.7l-2.9,1.7l-2.9-1.7v-3.3l2.9-1.7v-3.3l2.9-1.7v-3.3l2.9-1.7v-3.3l2.9-1.7
		l2.9,1.7l2.9-1.7v-3.3l2.9-1.7v-3.3l2.9-1.7l2.9,1.7l2.9-1.7v-3.3l2.9-1.7l2.9,1.7v3.3l2.9,1.7l2.9-1.7v-3.3l2.9-1.7l2.9,1.7
		l2.9-1.7v-3.3l2.9-1.7v-3.3l2.9-1.7l2.9,1.7l2.9-1.7v-3.3l2.9-1.7v-3.3l2.9-1.7v-3.3l2.9-1.7l2.9,1.7v3.3l2.9,1.7l2.9-1.7v-3.3
		l2.9-1.7l2.9,1.7l2.9-1.7v-3.3l2.9-1.7v-3.3l2.9-1.7v-3.3l2.9-1.7v-3.3l2.9-1.7l2.9,1.7l2.9-1.7l2.9,1.7v3.3l-2.9,1.7v3.3l-2.9,1.7
		v3.3l-2.9,1.7v3.3l-2.9,1.7l-2.9-1.7l-2.9,1.7v3.3l-2.9,1.7l-2.9-1.7l-2.9,1.7v3.3l-2.9,1.7v3.3l-2.9,1.7l-2.9-1.7l-2.9,1.7v3.3
		l-2.9,1.7v3.3l-2.9,1.7v3.3l-2.9,1.7v3.3l2.9,1.7l2.9-1.7l2.9,1.7l2.9-1.7l2.9,1.7v3.3l-2.9,1.7v3.3l-2.9,1.7v3.3l-2.9,1.7v3.3
		l-2.9,1.7v3.3l2.9,1.7v3.3l-2.9,1.7v3.3l-2.9,1.7l-2.9-1.7l-2.9,1.7v3.3l2.9,1.7l2.9-1.7l2.9,1.7v3.3l2.9,1.7v3.3l-2.9,1.7v3.3
		l-2.9,1.7v3.3l2.9,1.7v3.3"/>
	<path vector-effect="none" fill="none" stroke="#FFFFFF" stroke-linecap="square" stroke-linejoin="bevel" d="M669.3,1476.7
		l2.9,1.7v3.3l2.9,1.7l2.9-1.7l2.9,1.7v3.3l2.9,1.7v3.3l2.9,1.7l2.9-1.7l2.9,1.7v3.3l2.9,1.7v3.3l2.9,1.7v3.3l2.9,1.7v3.3l2.9,1.7
		v3.3l2.9,1.7l2.9-1.7l2.9,1.7l2.9-1.7l2.9,1.7v3.3l2.9,1.7v3.3l2.9,1.7v3.3l2.9,1.7l2.9-1.7l2.9,1.7l2.9-1.7v-3.3l2.9-1.7l2.9,1.7
		v3.3l2.9,1.7l2.9-1.7l2.9,1.7v3.3l2.9,1.7l2.9-1.7l2.9,1.7l2.9-1.7l2.9,1.7l2.9-1.7v-3.3l2.9-1.7l2.9,1.7l2.9-1.7v-3.3l2.9-1.7
		l2.9,1.7v3.3l2.9,1.7l2.9-1.7l2.9,1.7l2.9-1.7v-3.3l2.9-1.7v-3.3l2.9-1.7v-3.3l2.9-1.7v-3.3l2.9-1.7v-3.3l2.9-1.7v-3.3l-2.9-1.7
		v-3.3l2.9-1.7l2.9,1.7v3.3l2.9,1.7l2.9-1.7v-3.3l-2.9-1.7v-3.3l2.9-1.7v-3.3l2.9-1.7v-3.3l2.9-1.7v-3.3l2.9-1.7v-3.3l-2.9-1.7v-3.3
		l2.9-1.7l2.9,1.7l2.9-1.7v-3.3l2.9-1.7v-3.3l2.9-1.7l2.9,1.7l2.9-1.7v-3.3l2.9-1.7l2.9,1.7"/>
	<path vector-effect="none" fill="none" stroke="#FFFFFF" stroke-linecap="square" stroke-linejoin="bevel" d="M637.4,1578.1
		l-2.9-1.7l-2.9,1.7l-2.9-1.7l-2.9,1.7l-2.9-1.7l0-3.3l2.9-1.7l0-3.3l2.9-1.7l0-3.3l2.9-1.7l2.9,1.7l2.9-1.7l2.9,1.7l0,3.3l2.9,1.7
		l0,3.3l-2.9,1.7l0,3.3L637.4,1578.1"/>
	<path vector-effect="none" fill="none" stroke="#FFFFFF" stroke-linecap="square" stroke-linejoin="bevel" d="M548.2,1083.7
		l2.9-1.7l2.9,1.7l2.9-1.7l2.9,1.7v3.3l2.9,1.7v3.3l2.9,1.7l2.9-1.7l2.9,1.7v3.3l2.9,1.7v3.3l-2.9,1.7v3.3l2.9,1.7v3.3l2.9,1.7v3.3
		l2.9,1.7v3.3l2.9,1.7v3.3l2.9,1.7v3.3l-2.9,1.7v3.3l2.9,1.7l2.9-1.7l2.9,1.7v3.3l2.9,1.7v3.3l2.9,1.7l2.9-1.7l2.9,1.7v3.3l2.9,1.7
		v3.3l-2.9,1.7v3.3l2.9,1.7v3.3l2.9,1.7v3.3l-2.9,1.7v3.3l-2.9,1.7v3.3l2.9,1.7v3.3l2.9,1.7v3.3l2.9,1.7v3.3l2.9,1.7v3.3l2.9,1.7
		l2.9-1.7l2.9,1.7v3.3l2.9,1.7v3.3l2.9,1.7v3.3l2.9,1.7v3.3l2.9,1.7v3.3l2.9,1.7v3.3l2.9,1.7v3.3l2.9,1.7v3.3l-2.9,1.7v3.3l2.9,1.7
		v3.3l-2.9,1.7v3.3l2.9,1.7v3.3l-2.9,1.7l-2.9-1.7"/>
	<path vector-effect="none" fill="none" stroke="#FFFFFF" stroke-linecap="square" stroke-linejoin="bevel" d="M502,1286.9v-3.3
		l-2.9-1.7v-3.3l2.9-1.7v-3.3l-2.9-1.7v-3.3l2.9-1.7v-3.3l2.9-1.7l2.9,1.7l2.9-1.7v-3.3l-2.9-1.7v-3.3l2.9-1.7v-3.3l2.9-1.7v-3.3
		l-2.9-1.7v-3.3l2.9-1.7v-3.3l2.9-1.7v-3.3l-2.9-1.7v-3.3l2.9-1.7v-3.3l2.9-1.7v-3.3l2.9-1.7v-3.3l2.9-1.7v-3.3l2.9-1.7v-3.3
		l2.9-1.7v-3.3l-2.9-1.7v-3.3l2.9-1.7v-3.3l-2.9-1.7v-3.3l2.9-1.7v-3.3l2.9-1.7l2.9,1.7l2.9-1.7v-3.3l2.9-1.7v-3.3l-2.9-1.7v-3.3
		l2.9-1.7v-3.3l2.9-1.7l2.9,1.7l2.9-1.7v-3.3l2.9-1.7v-3.3l2.9-1.7v-3.3l-2.9-1.7l-2.9,1.7v3.3l-2.9,1.7v3.3l-2.9,1.7l-2.9-1.7v-3.3
		l-2.9-1.7v-3.3l2.9-1.7v-3.3l2.9-1.7v-3.3l2.9-1.7v-3.3l-2.9-1.7v-3.3l-2.9-1.7v-3.3l-2.9-1.7v-3.3l2.9-1.7v-3.3l2.9-1.7v-3.3
		l-2.9-1.7v-3.3l2.9-1.7v-3.3"/>
	<path vector-effect="none" fill="none" stroke="#FFFFFF" stroke-linecap="square" stroke-linejoin="bevel" d="M637.6,1261.9
		l-2.9,1.7v3.3l-2.9,1.7v3.3l-2.9,1.7v3.3l-2.9,1.7v3.3l-2.9,1.7v3.3l-2.9,1.7l-2.9-1.7l-2.9,1.7v3.3l-2.9,1.7l-2.9-1.7l-2.9,1.7
		l-2.9-1.7l-2.9,1.7l-2.9-1.7l-2.9,1.7v3.3l-2.9,1.7l-2.9-1.7l-2.9,1.7v3.3l-2.9,1.7l-2.9-1.7l-2.9,1.7v3.3l-2.9,1.7l-2.9-1.7
		l-2.9,1.7v3.3l-2.9,1.7v3.3l-2.9,1.7v3.3l-2.9,1.7l-2.9-1.7l-2.9,1.7v3.3l-2.9,1.7l-2.9-1.7l-2.9,1.7v3.3l-2.9,1.7l-2.9-1.7
		l-2.9,1.7l-2.9-1.7v-3.3l-2.9-1.7v-3.3l-2.9-1.7l-2.9,1.7l-2.9-1.7v-3.3l2.9-1.7v-3.3l-2.9-1.7v-3.3l-2.9-1.7l-2.9,1.7l-2.9-1.7
		v-3.3l-2.9-1.7v-3.3l-2.9-1.7v-3.3l-2.9-1.7"/>
	<path vector-effect="none" fill="none" stroke="#FFFFFF" stroke-linecap="square" stroke-linejoin="bevel" d="M764.5,1251.9
		l-2.9,1.7v3.3l-2.9,1.7v3.3l-2.9,1.7l-2.9-1.7v-3.3l-2.9-1.7v-3.3l-2.9-1.7l-2.9,1.7v3.3l-2.9,1.7l-2.9-1.7v-3.3l-2.9-1.7v-3.3
		l-2.9-1.7v-3.3l-2.9-1.7l-2.9,1.7l-2.9-1.7l-2.9,1.7v3.3l-2.9,1.7v3.3l-2.9,1.7v3.3l-2.9,1.7v3.3l2.9,1.7v3.3l-2.9,1.7l-2.9-1.7
		v-3.3l-2.9-1.7l-2.9,1.7l-2.9-1.7l-2.9,1.7l-2.9-1.7l-2.9,1.7v3.3l-2.9,1.7l-2.9-1.7l-2.9,1.7l-2.9-1.7l-2.9,1.7l-2.9-1.7l-2.9,1.7
		l-2.9-1.7l-2.9,1.7l-2.9-1.7l-2.9,1.7"/>
	<path vector-effect="none" fill="none" stroke="#FFFFFF" stroke-linecap="square" stroke-linejoin="bevel" d="M660.7,1268.6v3.3
		l-2.9,1.7l-2.9-1.7l-2.9,1.7l-2.9-1.7l-2.9,1.7l-2.9-1.7v-3.3l-2.9-1.7v-3.3l2.9-1.7v-3.3l-2.9-1.7v-3.3l2.9-1.7v-3.3l-2.9-1.7
		v-3.3l2.9-1.7v-3.3l-2.9-1.7v-3.3l-2.9-1.7v-3.3l-2.9-1.7v-3.3l-2.9-1.7v-3.3l-2.9-1.7v-3.3l-2.9-1.7v-3.3l-2.9-1.7v-3.3l-2.9-1.7
		l-2.9,1.7l-2.9-1.7v-3.3l-2.9-1.7v-3.3l-2.9-1.7v-3.3l-2.9-1.7v-3.3l-2.9-1.7v-3.3l2.9-1.7v-3.3l2.9-1.7v-3.3l-2.9-1.7v-3.3
		l-2.9-1.7v-3.3l2.9-1.7v-3.3l-2.9-1.7v-3.3l-2.9-1.7l-2.9,1.7l-2.9-1.7v-3.3l-2.9-1.7v-3.3l-2.9-1.7l-2.9,1.7l-2.9-1.7v-3.3
		l2.9-1.7l2.9,1.7l2.9-1.7l2.9,1.7l2.9-1.7v-3.3l2.9-1.7l2.9,1.7v3.3l2.9,1.7l2.9-1.7l2.9,1.7l2.9-1.7l2.9,1.7v3.3l2.9,1.7l2.9-1.7
		l2.9,1.7v3.3l2.9,1.7l2.9-1.7l2.9,1.7l2.9-1.7l2.9,1.7v3.3l2.9,1.7v3.3l2.9,1.7l2.9-1.7l2.9,1.7l2.9-1.7l2.9,1.7l2.9-1.7l2.9,1.7
		v3.3l2.9,1.7l2.9-1.7l2.9,1.7l2.9-1.7l2.9,1.7l2.9-1.7l2.9,1.7l2.9-1.7l2.9,1.7l2.9-1.7v-3.3l2.9-1.7v-3.3l-2.9-1.7v-3.3"/>
	<path vector-effect="none" fill="none" stroke="#FFFFFF" stroke-linecap="square" stroke-linejoin="bevel" d="M476.2,1291.7
		l-2.9,1.7l-2.9-1.7l-2.9,1.7l-2.9-1.7v-3.3l2.9-1.7v-3.3l-2.9-1.7v-3.3l-2.9-1.7v-3.3l2.9-1.7v-3.3l2.9-1.7l2.9,1.7v3.3l2.9,1.7
		v3.3l2.9,1.7v3.3l2.9,1.7v3.3l-2.9,1.7V1291.7"/>
	<path vector-effect="none" fill="none" stroke="#FFFFFF" stroke-linecap="square" stroke-linejoin="bevel" d="M504.9,1291.9
		l2.9,1.7v3.3l2.9,1.7v3.3l2.9,1.7v3.3l2.9,1.7l2.9-1.7l2.9,1.7v3.3l2.9,1.7v3.3l-2.9,1.7v3.3l2.9,1.7l2.9-1.7l2.9,1.7v3.3l2.9,1.7
		v3.3l-2.9,1.7v3.3l-2.9,1.7l-2.9-1.7l-2.9,1.7v3.3l-2.9,1.7l-2.9-1.7l-2.9,1.7v3.3l2.9,1.7v3.3l-2.9,1.7v3.3l-2.9,1.7v3.3l2.9,1.7
		v3.3l2.9,1.7v3.3l2.9,1.7l2.9-1.7v-3.3l2.9-1.7l2.9,1.7v3.3l-2.9,1.7v3.3l2.9,1.7v3.3l-2.9,1.7l-2.9-1.7l-2.9,1.7v3.3l-2.9,1.7v3.3
		l2.9,1.7v3.3l2.9,1.7l2.9-1.7l2.9,1.7v3.3l2.9,1.7v3.3l2.9,1.7l2.9-1.7l2.9,1.7v3.3l2.9,1.7v3.3l2.9,1.7v3.3l2.9,1.7v3.3l2.9,1.7
		v3.3l2.9,1.7v3.3l-2.9,1.7v3.3l2.9,1.7v3.3l2.9,1.7v3.3l-2.9,1.7v3.3l-2.9,1.7"/>
	<path vector-effect="none" fill="none" stroke="#FFFFFF" stroke-linecap="square" stroke-linejoin="bevel" d="M819.3,1403.4
		l2.9-1.7l2.9,1.7v3.3l-2.9,1.7v3.3l-2.9,1.7v3.3l2.9,1.7v3.3l-2.9,1.7v3.3l2.9,1.7v3.3l2.9,1.7v3.3l2.9,1.7v3.3l-2.9,1.7v3.3
		l2.9,1.7v3.3l-2.9,1.7l-2.9-1.7l-2.9,1.7v3.3l-2.9,1.7v3.3l2.9,1.7v3.3l2.9,1.7v3.3l2.9,1.7v3.3l-2.9,1.7v3.3l-2.9,1.7v3.3
		l-2.9,1.7v3.3l-2.9,1.7v3.3l2.9,1.7v3.3l-2.9,1.7l-2.9-1.7v-3.3l-2.9-1.7l-2.9,1.7v3.3l2.9,1.7v3.3l-2.9,1.7v3.3l-2.9,1.7v3.3
		l-2.9,1.7v3.3l-2.9,1.7v3.3l-2.9,1.7v3.3l-2.9,1.7l-2.9-1.7l-2.9,1.7l-2.9-1.7v-3.3l-2.9-1.7l-2.9,1.7v3.3l-2.9,1.7l-2.9-1.7
		l-2.9,1.7v3.3l-2.9,1.7l-2.9-1.7l-2.9,1.7l-2.9-1.7l-2.9,1.7l-2.9-1.7v-3.3l-2.9-1.7l-2.9,1.7l-2.9-1.7v-3.3l-2.9-1.7l-2.9,1.7v3.3
		l-2.9,1.7l-2.9-1.7l-2.9,1.7l-2.9-1.7v-3.3l-2.9-1.7v-3.3l-2.9-1.7v-3.3l-2.9-1.7l-2.9,1.7l-2.9-1.7l-2.9,1.7l-2.9-1.7v-3.3
		l-2.9-1.7v-3.3l-2.9-1.7v-3.3l-2.9-1.7v-3.3l-2.9-1.7v-3.3l-2.9-1.7l-2.9,1.7l-2.9-1.7v-3.3l-2.9-1.7v-3.3l-2.9-1.7l-2.9,1.7
		l-2.9-1.7v-3.3l-2.9-1.7v-3.3l-2.9-1.7v-3.3l2.9-1.7v-3.3l2.9-1.7v-3.3l-2.9-1.7v-3.3l-2.9-1.7l-2.9,1.7l-2.9-1.7v-3.3l2.9-1.7
		l2.9,1.7l2.9-1.7v-3.3l2.9-1.7v-3.3l-2.9-1.7v-3.3l2.9-1.7v-3.3l2.9-1.7v-3.3l2.9-1.7l2.9,1.7l2.9-1.7l2.9,1.7l2.9-1.7v-3.3
		l2.9-1.7l2.9,1.7l2.9-1.7v-3.3l2.9-1.7v-3.3l2.9-1.7v-3.3l2.9-1.7l2.9,1.7l2.9-1.7l2.9,1.7l2.9-1.7v-3.3l2.9-1.7l2.9,1.7l2.9-1.7
		v-3.3l2.9-1.7l2.9,1.7l2.9-1.7v-3.3l2.9-1.7l2.9,1.7l2.9-1.7v-3.3l2.9-1.7l2.9,1.7l2.9-1.7v-3.3l2.9-1.7l2.9,1.7l2.9-1.7l2.9,1.7
		l2.9-1.7l2.9,1.7l2.9-1.7l2.9,1.7l2.9-1.7l2.9,1.7v3.3l2.9,1.7v3.3l2.9,1.7l2.9-1.7l2.9,1.7v3.3l2.9,1.7l2.9-1.7l2.9,1.7l2.9-1.7
		l2.9,1.7l2.9-1.7l2.9,1.7v3.3l2.9,1.7v3.3L819.3,1403.4"/>
</g>
</svg>
