<?xml version="1.0" encoding="utf-8"?>
<!-- Generator: Adobe Illustrator 18.0.0, SVG Export Plug-In . SVG Version: 6.00 Build 0)  -->
<!DOCTYPE svg PUBLIC "-//W3C//DTD SVG 1.1//EN" "http://www.w3.org/Graphics/SVG/1.1/DTD/svg11.dtd">
<svg version="1.1" id="map" xmlns="http://www.w3.org/2000/svg" xmlns:xlink="http://www.w3.org/1999/xlink" x="0px" y="0px"
	 viewBox="0 800 482.5 798.4" enable-background="new 0 800 482.5 798.4" xml:space="preserve">
<g id="bg">
	<g transform="matrix(0.999751,0,0,0.999751,-2.27374e-13,0)">
		
			<path vector-effect="none" fill="#ECECEC" stroke="#000000" stroke-width="3.0709" stroke-linecap="square" stroke-linejoin="bevel" stroke-opacity="0" d="
			M43.5,1099.5h3.1l1.6-2.7h3.1l1.6-2.7H56l1.6,2.7l-1.6,2.7l1.6,2.7h3.1l1.6,2.7h3.1l1.6,2.7H70l1.6,2.7h3.1l1.6,2.7l-1.6,2.7
			l1.6,2.7h3.1l1.6,2.7h3.1l1.6,2.7l-1.6,2.7l1.6,2.7l-1.6,2.7l1.6,2.7l-1.6,2.7l1.6,2.7l-1.6,2.7l1.6,2.7l-1.6,2.7h-3.1l-1.6,2.7
			l1.6,2.7l-1.6,2.7h-3.1l-1.6-2.7h-3.1L70,1156h-3.1l-1.6,2.7l1.6,2.7l-1.6,2.7h-3.1l-1.6,2.7h-3.1l-1.6-2.7h-3.1l-1.6-2.7h-3.1
			l-1.6,2.7h-3.1l-1.6-2.7h-3.1l-1.6-2.7h-3.1l-1.6-2.7l1.6-2.7l-1.6-2.7h-3.1l-1.6-2.7l1.6-2.7l-1.6-2.7h-3.1l-1.6,2.7h-3.1
			l-1.6,2.7l1.6,2.7l-1.6,2.7h-3.1l-1.6-2.7h-3.1l-1.6-2.7H6.2l-1.6-2.7l-3.1,0l-1.6-2.7l1.6-2.7h3.1l1.6-2.7l-1.6-2.7l1.6-2.7h3.1
			l1.6-2.7H14l1.6-2.7l-1.6-2.7l1.6-2.7l-1.6-2.7l1.6-2.7l-1.6-2.7l1.6-2.7l-1.6-2.7l1.6-2.7h3.1l1.6,2.7h3.1l1.6-2.7H28l1.6-2.7
			h3.1l1.6-2.7h3.1l1.6-2.7H42L43.5,1099.5"/>
		
			<path vector-effect="none" fill="#ECECEC" stroke="#000000" stroke-width="3.0709" stroke-linecap="square" stroke-linejoin="bevel" stroke-opacity="0" d="
			M456.7,1349.7l2.9,1.7v3.3l-2.9,1.7v3.3l2.9,1.7v3.3l2.9,1.7v3.3l-2.9,1.7v3.3l-2.9,1.7v3.3l-2.9,1.7v3.3l2.9,1.7v3.3l2.9,1.7v3.3
			l-2.9,1.7v3.3l2.9,1.7v3.3l-2.9,1.7l-2.9-1.7l-2.9,1.7v3.3l2.9,1.7v3.3l2.9,1.7v3.3l2.9,1.7l2.9-1.7l2.9,1.7v3.3l2.9,1.7v3.3
			l2.9,1.7v3.3l-2.9,1.7v3.3l-2.9,1.7v3.3l-2.9,1.7l-2.9-1.7l-2.9,1.7l-2.9-1.7l-2.9,1.7v3.3l-2.9,1.7v3.3l-2.9,1.7v3.3l2.9,1.7
			l2.9-1.7l2.9,1.7l2.9-1.7l2.9,1.7l2.9-1.7l2.9,1.7l2.9-1.7v-3.3l2.9-1.7l2.9,1.7l2.9-1.7l2.9,1.7v3.3l-2.9,1.7v3.3l2.9,1.7v3.3
			l-2.9,1.7v3.3l-2.9,1.7v3.3l-2.9,1.7v3.3l2.9,1.7v3.3l-2.9,1.7v3.3l-2.9,1.7v3.3l-2.9,1.7v3.3l-2.9,1.7v3.3l-2.9,1.7l-2.9-1.7
			l-2.9,1.7v3.3l-2.9,1.7v3.3l-2.9,1.7v3.3l-2.9,1.7v3.3l-2.9,1.7v3.3l-2.9,1.7l-2.9-1.7l-2.9,1.7l-2.9-1.7l-2.9,1.7v3.3l-2.9,1.7
			v3.3l-2.9,1.7l-2.9-1.7l-2.9,1.7v3.3l-2.9,1.7l-2.9-1.7l-2.9,1.7v3.3l-2.9,1.7l-2.9-1.7l-2.9,1.7v3.3l-2.9,1.7v3.3l-2.9,1.7
			l-2.9-1.7l-2.9,1.7v3.3l-2.9,1.7l-2.9-1.7l-2.9,1.7l-2.9-1.7v-3.3l-2.9-1.7l-2.9,1.7v3.3l-2.9,1.7v3.3l-2.9,1.7l-2.9-1.7l-2.9,1.7
			l-2.9-1.7l-2.9,1.7l-2.9-1.7v-3.3l-2.9-1.7l-2.9,1.7l-2.9-1.7l-2.9,1.7l-2.9-1.7l-2.9,1.7l-2.9-1.7l-2.9,1.7l-2.9-1.7l-2.9,1.7
			l-2.9-1.7l-2.9,1.7l-2.9-1.7l-2.9,1.7l-2.9-1.7l-2.9,1.7l-2.9-1.7l-2.9,1.7l-2.9-1.7l-2.9,1.7l-2.9-1.7l-2.9,1.7l-2.9-1.7
			l-2.9,1.7v3.3l-2.9,1.7l-2.9-1.7l-2.9,1.7l-2.9-1.7l-2.9,1.7l-2.9-1.7v-3.3l-2.9-1.7v-3.3l-2.9-1.7l-2.9,1.7l-2.9-1.7v-3.3
			l-2.9-1.7l-2.9,1.7l-2.9-1.7v-3.3l-2.9-1.7l-2.9,1.7l-2.9-1.7v-3.3l-2.9-1.7v-3.3l-2.9-1.7l-2.9,1.7v3.3l-2.9,1.7v3.3l2.9,1.7v3.3
			l-2.9,1.7v3.3l-2.9,1.7l-2.9-1.7l-2.9,1.7l-2.9-1.7v-3.3l-2.9-1.7l-2.9,1.7l-2.9-1.7l-2.9,1.7l-2.9-1.7l-2.9,1.7v3.3l-2.9,1.7
			l-2.9-1.7v-3.3l-2.9-1.7l-2.9,1.7l-2.9-1.7v-3.3l-2.9-1.7v-3.3l-2.9-1.7v-3.3l-2.9-1.7v-3.3l-2.9-1.7l-2.9,1.7l-2.9-1.7l-2.9,1.7
			l-2.9-1.7v-3.3l-2.9-1.7l-2.9,1.7l-2.9-1.7l-2.9,1.7l-2.9-1.7l-2.9,1.7l-2.9-1.7l-2.9,1.7v3.3l-2.9,1.7l-2.9-1.7l-2.9,1.7
			l-2.9-1.7l-2.9,1.7l-2.9-1.7v-3.3l-2.9-1.7l-2.9,1.7v3.3l2.9,1.7v3.3l2.9,1.7v3.3l2.9,1.7v3.3l2.9,1.7v3.3l2.9,1.7v3.3l-2.9,1.7
			v3.3l-2.9,1.7l-2.9-1.7l-2.9,1.7l-2.9-1.7l-2.9,1.7l-2.9-1.7l-2.9,1.7l-2.9-1.7l-2.9,1.7l-2.9-1.7l-2.9,1.7l-2.9-1.7l-2.9,1.7
			l-2.9-1.7v-3.3l-2.9-1.7l-2.9,1.7l-2.9-1.7v-3.3l-2.9-1.7v-3.3l-2.9-1.7l-2.9,1.7l-2.9-1.7l-2.9,1.7v3.3l-2.9,1.7v3.3l-2.9,1.7
			l-2.9-1.7l-2.9,1.7v3.3l-2.9,1.7v3.3l-2.9,1.7l-2.9-1.7l-2.9,1.7v3.3l2.9,1.7v3.3l-2.9,1.7v3.3l-2.9,1.7v3.3l-2.9,1.7l-2.9-1.7
			v-3.3l-2.9-1.7v-3.3l-2.9-1.7l-2.9,1.7l-2.9-1.7v-3.3l-2.9-1.7l-2.9,1.7v3.3l-2.9,1.7l-2.9-1.7v-3.3l2.9-1.7v-3.3l2.9-1.7l2.9,1.7
			l2.9-1.7v-3.3l2.9-1.7l2.9,1.7l2.9-1.7v-3.3l2.9-1.7l2.9,1.7l2.9-1.7v-3.3l2.9-1.7v-3.3l2.9-1.7v-3.3l2.9-1.7v-3.3l2.9-1.7v-3.3
			l2.9-1.7l2.9,1.7l2.9-1.7l2.9,1.7l2.9-1.7v-3.3l2.9-1.7v-3.3l2.9-1.7l2.9,1.7l2.9-1.7v-3.3l2.9-1.7v-3.3l2.9-1.7l2.9,1.7l2.9-1.7
			v-3.3l2.9-1.7l2.9,1.7l2.9-1.7v-3.3l-2.9-1.7v-3.3l-2.9-1.7v-3.3l2.9-1.7l2.9,1.7l2.9-1.7l2.9,1.7l2.9-1.7l2.9,1.7v3.3l2.9,1.7
			l2.9-1.7l2.9,1.7l2.9-1.7l2.9,1.7v3.3l2.9,1.7l2.9-1.7l2.9,1.7l2.9-1.7l2.9,1.7l2.9-1.7l2.9,1.7l2.9-1.7v-3.3l2.9-1.7v-3.3
			l-2.9-1.7v-3.3l-2.9-1.7v-3.3l2.9-1.7v-3.3l2.9-1.7v-3.3l2.9-1.7v-3.3l-2.9-1.7v-3.3l2.9-1.7v-3.3l2.9-1.7v-3.3l2.9-1.7v-3.3
			l-2.9-1.7l-2.9,1.7v3.3l-2.9,1.7v3.3l-2.9,1.7v3.3l-2.9,1.7v3.3l-2.9,1.7v3.3l-2.9,1.7v3.3l-2.9,1.7v3.3l-2.9,1.7l-2.9-1.7
			l-2.9,1.7l-2.9-1.7l-2.9,1.7l-2.9-1.7v-3.3l-2.9-1.7v-3.3l-2.9-1.7v-3.3l-2.9-1.7l-2.9,1.7l-2.9-1.7l-2.9,1.7l-2.9-1.7v-3.3
			l-2.9-1.7v-3.3l2.9-1.7v-3.3l-2.9-1.7v-3.3l2.9-1.7v-3.3l-2.9-1.7v-3.3l2.9-1.7v-3.3l-2.9-1.7l-2.9,1.7v3.3l-2.9,1.7v3.3l-2.9,1.7
			l-2.9-1.7l-2.9,1.7l-2.9-1.7v-3.3l-2.9-1.7l-2.9,1.7l-2.9-1.7v-3.3l2.9-1.7v-3.3l-2.9-1.7v-3.3l2.9-1.7v-3.3l2.9-1.7v-3.3
			l-2.9-1.7l-2.9,1.7l-2.9-1.7l-2.9,1.7v3.3l-2.9,1.7l-2.9-1.7l-2.9,1.7l-2.9-1.7l-2.9,1.7l-2.9-1.7v-3.3l2.9-1.7v-3.3l2.9-1.7v-3.3
			l2.9-1.7v-3.3l2.9-1.7l2.9,1.7l2.9-1.7v-3.3l2.9-1.7l2.9,1.7l2.9-1.7l2.9,1.7l2.9-1.7l2.9,1.7l2.9-1.7v-3.3l2.9-1.7v-3.3l2.9-1.7
			v-3.3l2.9-1.7v-3.3l2.9-1.7v-3.3l2.9-1.7l2.9,1.7l2.9-1.7v-3.3l2.9-1.7l2.9,1.7l2.9-1.7v-3.3l2.9-1.7v-3.3l-2.9-1.7v-3.3l-2.9-1.7
			l-2.9,1.7l-2.9-1.7v-3.3l-2.9-1.7v-3.3l-2.9-1.7v-3.3l-2.9-1.7v-3.3l-2.9-1.7v-3.3l-2.9-1.7v-3.3l-2.9-1.7v-3.3l-2.9-1.7v-3.3
			l-2.9-1.7v-3.3l-2.9-1.7v-3.3l2.9-1.7v-3.3l-2.9-1.7v-3.3l2.9-1.7l2.9,1.7l2.9-1.7l2.9,1.7l2.9-1.7l2.9,1.7v3.3l2.9,1.7l2.9-1.7
			v-3.3l2.9-1.7v-3.3l2.9-1.7l2.9,1.7l2.9-1.7v-3.3l-2.9-1.7v-3.3l-2.9-1.7v-3.3l2.9-1.7v-3.3l-2.9-1.7v-3.3l2.9-1.7v-3.3l2.9-1.7
			l2.9,1.7l2.9-1.7v-3.3l-2.9-1.7v-3.3l2.9-1.7v-3.3l2.9-1.7v-3.3l-2.9-1.7v-3.3l2.9-1.7v-3.3l2.9-1.7v-3.3l-2.9-1.7v-3.3l2.9-1.7
			v-3.3l2.9-1.7v-3.3l2.9-1.7v-3.3l2.9-1.7v-3.3l2.9-1.7v-3.3l2.9-1.7v-3.3l-2.9-1.7v-3.3l2.9-1.7v-3.3l-2.9-1.7v-3.3l2.9-1.7v-3.3
			l2.9-1.7l2.9,1.7l2.9-1.7v-3.3l2.9-1.7v-3.3l-2.9-1.7v-3.3l2.9-1.7v-3.3l2.9-1.7l2.9,1.7l2.9-1.7v-3.3l2.9-1.7v-3.3l2.9-1.7v-3.3
			l-2.9-1.7l-2.9,1.7v3.3l-2.9,1.7v3.3l-2.9,1.7l-2.9-1.7v-3.3l-2.9-1.7v-3.3l2.9-1.7v-3.3l2.9-1.7v-3.3l2.9-1.7v-3.3l-2.9-1.7v-3.3
			l-2.9-1.7v-3.3l-2.9-1.7v-3.3l2.9-1.7v-3.3l2.9-1.7v-3.3l-2.9-1.7v-3.3l2.9-1.7v-3.3l2.9-1.7v-3.3l-2.9-1.7l-2.9,1.7l-2.9-1.7
			l-2.9,1.7v3.3l-2.9,1.7l-2.9-1.7l-2.9,1.7l-2.9-1.7l-2.9,1.7v3.3l-2.9,1.7l-2.9-1.7l-2.9,1.7l-2.9-1.7l-2.9,1.7l-2.9-1.7l-2.9,1.7
			v3.3l-2.9,1.7l-2.9-1.7v-3.3l-2.9-1.7l-2.9,1.7l-2.9-1.7v-3.3l2.9-1.7l2.9,1.7l2.9-1.7v-3.3l-2.9-1.7v-3.3l2.9-1.7v-3.3l-2.9-1.7
			v-3.3l2.9-1.7v-3.3l-2.9-1.7v-3.3l-2.9-1.7v-3.3l-2.9-1.7v-3.3l-2.9-1.7l-2.9,1.7l-2.9-1.7v-3.3l-2.9-1.7v-3.3L73,1035v-3.3
			l-2.9-1.7v-3.3l2.9-1.7v-3.3l2.9-1.7v-3.3l2.9-1.7v-3.3l-2.9-1.7v-3.3l2.9-1.7v-3.3l-2.9-1.7v-3.3l2.9-1.7v-3.3l-2.9-1.7v-3.3
			l2.9-1.7v-3.3l-2.9-1.7l-2.9,1.7l-2.9-1.7v-3.3l2.9-1.7v-3.3l2.9-1.7v-3.3l2.9-1.7v-3.3l2.9-1.7l2.9,1.7l2.9-1.7l2.9,1.7l2.9-1.7
			v-3.3l2.9-1.7v-3.3l2.9-1.7l2.9,1.7l2.9-1.7v-3.3l-2.9-1.7v-3.3l-2.9-1.7l-2.9,1.7l-2.9-1.7v-3.3l2.9-1.7v-3.3l-2.9-1.7v-3.3
			l-2.9-1.7v-3.3l2.9-1.7v-3.3l2.9-1.7v-3.3l-2.9-1.7v-3.3l-2.9-1.7v-3.3l-2.9-1.7v-3.3l2.9-1.7l2.9,1.7v3.3l2.9,1.7l2.9-1.7v-3.3
			l2.9-1.7v-3.3l2.9-1.7l2.9,1.7v3.3l2.9,1.7v3.3l-2.9,1.7v3.3l-2.9,1.7v3.3l-2.9,1.7v3.3l2.9,1.7v3.3l2.9,1.7l2.9-1.7l2.9,1.7v3.3
			l2.9,1.7l2.9-1.7l2.9,1.7l2.9-1.7v-3.3l2.9-1.7l2.9,1.7l2.9-1.7v-3.3l2.9-1.7l2.9,1.7l2.9-1.7l2.9,1.7l2.9-1.7v-3.3l2.9-1.7
			l2.9,1.7l2.9-1.7l2.9,1.7l2.9-1.7l2.9,1.7l2.9-1.7v-3.3l2.9-1.7l2.9,1.7l2.9-1.7l2.9,1.7l2.9-1.7l2.9,1.7v3.3l-2.9,1.7v3.3
			l2.9,1.7v3.3l2.9,1.7v3.3l-2.9,1.7v3.3l-2.9,1.7v3.3l-2.9,1.7l-2.9-1.7l-2.9,1.7l-2.9-1.7l-2.9,1.7l-2.9-1.7l-2.9,1.7l-2.9-1.7
			l-2.9,1.7l-2.9-1.7l-2.9,1.7v3.3l-2.9,1.7v3.3l2.9,1.7v3.3l2.9,1.7v3.3l2.9,1.7v3.3l-2.9,1.7l-2.9-1.7l-2.9,1.7v3.3l2.9,1.7v3.3
			l2.9,1.7l2.9-1.7l2.9,1.7v3.3l2.9,1.7l2.9-1.7l2.9,1.7v3.3l2.9,1.7l2.9-1.7l2.9,1.7v3.3l-2.9,1.7l-2.9-1.7l-2.9,1.7l-2.9-1.7
			l-2.9,1.7v3.3l-2.9,1.7v3.3l-2.9,1.7l-2.9-1.7v-3.3l-2.9-1.7l-2.9,1.7l-2.9-1.7l-2.9,1.7l-2.9-1.7l-2.9,1.7l-2.9-1.7l-2.9,1.7v3.3
			l2.9,1.7v3.3l2.9,1.7l2.9-1.7l2.9,1.7l2.9-1.7l2.9,1.7l2.9-1.7l2.9,1.7v3.3l2.9,1.7v3.3l2.9,1.7v3.3l2.9,1.7l2.9-1.7l2.9,1.7
			l2.9-1.7l2.9,1.7v3.3l2.9,1.7v3.3l2.9,1.7v3.3l2.9,1.7v3.3l-2.9,1.7v3.3l-2.9,1.7v3.3l2.9,1.7v3.3l2.9,1.7l2.9-1.7l2.9,1.7v3.3
			l2.9,1.7v3.3l2.9,1.7l2.9-1.7l2.9,1.7l2.9-1.7l2.9,1.7l2.9-1.7l2.9,1.7l2.9-1.7l2.9,1.7v3.3l2.9,1.7l2.9-1.7l2.9,1.7v3.3l2.9,1.7
			l2.9-1.7l2.9,1.7v3.3l2.9,1.7l2.9-1.7l2.9,1.7v3.3l2.9,1.7l2.9-1.7l2.9,1.7v3.3l2.9,1.7l2.9-1.7l2.9,1.7v3.3l-2.9,1.7v3.3l2.9,1.7
			v3.3l2.9,1.7v3.3l-2.9,1.7v3.3l2.9,1.7v3.3l2.9,1.7v3.3l2.9,1.7v3.3l2.9,1.7l2.9-1.7l2.9,1.7v3.3l2.9,1.7l2.9-1.7l2.9,1.7v3.3
			l2.9,1.7v3.3l2.9,1.7l2.9-1.7l2.9,1.7v3.3l2.9,1.7v3.3l2.9,1.7v3.3l2.9,1.7v3.3l-2.9,1.7v3.3l2.9,1.7v3.3l2.9,1.7v3.3l2.9,1.7
			l2.9-1.7l2.9,1.7v3.3l2.9,1.7v3.3l2.9,1.7l2.9-1.7l2.9,1.7v3.3l2.9,1.7l2.9-1.7l2.9,1.7v3.3l2.9,1.7l2.9-1.7l2.9,1.7l2.9-1.7
			l2.9,1.7v3.3l2.9,1.7v3.3l2.9,1.7v3.3l2.9,1.7v3.3l-2.9,1.7v3.3l-2.9,1.7l-2.9-1.7l-2.9,1.7l-2.9-1.7l-2.9,1.7v3.3l2.9,1.7
			l2.9-1.7l2.9,1.7v3.3l2.9,1.7l2.9-1.7l2.9,1.7v3.3l2.9,1.7v3.3l-2.9,1.7v3.3l2.9,1.7v3.3l2.9,1.7v3.3l-2.9,1.7v3.3l2.9,1.7v3.3
			l2.9,1.7v3.3l2.9,1.7v3.3l2.9,1.7v3.3l-2.9,1.7v3.3l-2.9,1.7v3.3l-2.9,1.7v3.3l2.9,1.7l2.9-1.7l2.9,1.7v3.3l2.9,1.7v3.3l2.9,1.7
			l2.9-1.7l2.9,1.7l2.9-1.7v-3.3l2.9-1.7l2.9,1.7l2.9-1.7v-3.3l2.9-1.7l2.9,1.7l2.9-1.7l2.9,1.7l2.9-1.7l2.9,1.7v3.3l2.9,1.7
			l2.9-1.7l2.9,1.7l2.9-1.7l2.9,1.7l2.9-1.7l2.9,1.7v3.3l2.9,1.7l2.9-1.7l2.9,1.7v3.3l2.9,1.7l2.9-1.7l2.9,1.7v3.3l2.9,1.7v3.3
			l-2.9,1.7v3.3l2.9,1.7v3.3l2.9,1.7v3.3l2.9,1.7v3.3l2.9,1.7v3.3l-2.9,1.7l-2.9-1.7l-2.9,1.7L456.7,1349.7"/>
		
			<path vector-effect="none" fill="#ECECEC" stroke="#000000" stroke-width="3.0709" stroke-linecap="square" stroke-linejoin="bevel" stroke-opacity="0" d="
			M237.3,1576l-2.9-1.7l-2.9,1.7l-2.9-1.7l-2.9,1.7l-2.9-1.7l0-3.3l2.9-1.7l0-3.3l2.9-1.7l0-3.3l2.9-1.7l2.9,1.7l2.9-1.7l2.9,1.7
			l0,3.3l2.9,1.7l0,3.3l-2.9,1.7l0,3.3L237.3,1576"/>
		
			<path vector-effect="none" fill="#ECECEC" stroke="#000000" stroke-width="3.0709" stroke-linecap="square" stroke-linejoin="bevel" stroke-opacity="0" d="
			M55.8,995l-2.9,1.7L50,995v-3.3l2.9-1.7l2.9,1.7V995"/>
		
			<path vector-effect="none" fill="#ECECEC" stroke="#000000" stroke-width="3.0709" stroke-linecap="square" stroke-linejoin="bevel" stroke-opacity="0" d="
			M64.4,990l-2.9,1.7l-2.9-1.7v-3.3l2.9-1.7v-3.3l2.9-1.7l2.9,1.7v3.3l-2.9,1.7V990"/>
		
			<path vector-effect="none" fill="#ECECEC" stroke="#000000" stroke-width="3.0709" stroke-linecap="square" stroke-linejoin="bevel" stroke-opacity="0" d="
			M67.3,975l-2.9,1.7l-2.9-1.7l-2.9,1.7l-2.9-1.7v-3.3l2.9-1.7v-3.3l2.9-1.7l2.9,1.7v3.3l2.9,1.7V975"/>
		
			<path vector-effect="none" fill="#ECECEC" stroke="#000000" stroke-width="3.0709" stroke-linecap="square" stroke-linejoin="bevel" stroke-opacity="0" d="
			M50,935.1l-2.9,1.7l-2.9-1.7v-3.3l2.9-1.7v-3.3l2.9-1.7l2.9,1.7v3.3l-2.9,1.7V935.1"/>
		
			<path vector-effect="none" fill="#ECECEC" stroke="#000000" stroke-width="3.0709" stroke-linecap="square" stroke-linejoin="bevel" stroke-opacity="0" d="
			M58.7,920.1l-2.9,1.7l-2.9-1.7v-3.3l-2.9-1.7v-3.3l2.9-1.7l2.9,1.7v3.3l2.9,1.7V920.1"/>
		
			<path vector-effect="none" fill="#ECECEC" stroke="#000000" stroke-width="3.0709" stroke-linecap="square" stroke-linejoin="bevel" stroke-opacity="0" d="
			M70.2,896.8v3.3l-2.9,1.7v3.3l-2.9,1.7v3.3l-2.9,1.7l-2.9-1.7v-3.3l-2.9-1.7v-3.3l2.9-1.7v-3.3l2.9-1.7l2.9,1.7l2.9-1.7
			L70.2,896.8"/>
		
			<path vector-effect="none" fill="#ECECEC" stroke="#000000" stroke-width="3.0709" stroke-linecap="square" stroke-linejoin="bevel" stroke-opacity="0" d="
			M67.3,1045l-2.9,1.7l-2.9-1.7v-3.3l-2.9-1.7v-3.3l2.9-1.7l2.9,1.7v3.3l2.9,1.7V1045"/>
		
			<path vector-effect="none" fill="#ECECEC" stroke="#000000" stroke-width="3.0709" stroke-linecap="square" stroke-linejoin="bevel" stroke-opacity="0" d="
			M119.2,885.1l-2.9,1.7l-2.9-1.7v-3.3l2.9-1.7l2.9,1.7V885.1"/>
		
			<path vector-effect="none" fill="#ECECEC" stroke="#000000" stroke-width="3.0709" stroke-linecap="square" stroke-linejoin="bevel" stroke-opacity="0" d="
			M125,875.1l2.9,1.7v3.3l-2.9,1.7l-2.9-1.7v-3.3l-2.9-1.7l-2.9,1.7l-2.9-1.7v-3.3l2.9-1.7v-3.3l2.9-1.7l2.9,1.7v3.3l2.9,1.7V875.1"
			/>
		
			<path vector-effect="none" fill="#ECECEC" stroke="#000000" stroke-width="3.0709" stroke-linecap="square" stroke-linejoin="bevel" stroke-opacity="0" d="
			M168.3,816.9v3.3l-2.9,1.7l-2.9-1.7l-2.9,1.7l-2.9-1.7v-3.3l2.9-1.7l2.9,1.7l2.9-1.7v-3.3l-2.9-1.7v-3.3l2.9-1.7v-3.3l2.9-1.7
			l2.9,1.7v3.3l-2.9,1.7v3.3l2.9,1.7v3.3L168.3,816.9"/>
		
			<path vector-effect="none" fill="#ECECEC" stroke="#000000" stroke-width="3.0709" stroke-linecap="square" stroke-linejoin="bevel" stroke-opacity="0" d="
			M78.8,921.8v3.3l-2.9,1.7v3.3l-2.9,1.7l-2.9-1.7v-3.3l-2.9-1.7v-3.3l2.9-1.7l2.9,1.7l2.9-1.7L78.8,921.8"/>
		
			<path vector-effect="none" fill="#ECECEC" stroke="#000000" stroke-width="3.0709" stroke-linecap="square" stroke-linejoin="bevel" stroke-opacity="0" d="
			M76,1289.5l-2.9,1.7l-2.9-1.7l-2.9,1.7l-2.9-1.7v-3.3l2.9-1.7v-3.3l-2.9-1.7v-3.3l-2.9-1.7v-3.3l2.9-1.7v-3.3l2.9-1.7l2.9,1.7v3.3
			l2.9,1.7v3.3l2.9,1.7v3.3l2.9,1.7v3.3l-2.9,1.7V1289.5"/>
	</g>
</g>
<g id="lab" display="none">
	
		<path id="E14000530" vector-effect="none" display="inline" fill="#FFB900" stroke="#FFFFFF" stroke-width="0.5" stroke-linecap="square" stroke-linejoin="bevel" d="
		M266.2,1519.2l2.9,1.7l2.9-1.7l2.9,1.7v3.3l-2.9,1.7l-2.9-1.7l-2.9,1.7l-2.9-1.7l-2.9,1.7l-2.9-1.7v-3.3l-2.9-1.7v-3.3l-2.9-1.7
		v-3.3l2.9-1.7v-3.3l-2.9-1.7v-3.3l-2.9-1.7v-3.3l2.9-1.7l2.9,1.7v3.3l2.9,1.7v3.3l2.9,1.7v3.3l2.9,1.7v3.3l2.9,1.7V1519.2"/>
	
		<path id="E14000547" vector-effect="none" display="inline" fill="#FFB900" stroke="#FFFFFF" stroke-width="0.5" stroke-linecap="square" stroke-linejoin="bevel" d="
		M188.4,1494.2l-2.9,1.7l-2.9-1.7l-2.9,1.7l-2.9-1.7v-3.3l-2.9-1.7v-3.3l2.9-1.7v-3.3l2.9-1.7v-3.3l2.9-1.7v-3.3l2.9-1.7l2.9,1.7
		v3.3l-2.9,1.7v3.3l2.9,1.7v3.3l-2.9,1.7v3.3l2.9,1.7V1494.2"/>
	
		<path id="E14000554" vector-effect="none" display="inline" fill="#FFB900" stroke="#FFFFFF" stroke-width="0.5" stroke-linecap="square" stroke-linejoin="bevel" d="
		M188.4,1051.4v3.3l2.9,1.7v3.3l-2.9,1.7v3.3l-2.9,1.7l-2.9-1.7l-2.9,1.7v3.3l-2.9,1.7v3.3l-2.9,1.7l-2.9-1.7v-3.3l2.9-1.7v-3.3
		l2.9-1.7v-3.3l-2.9-1.7v-3.3l2.9-1.7v-3.3l2.9-1.7l2.9,1.7l2.9-1.7L188.4,1051.4"/>
	
		<path id="E14000621" vector-effect="none" display="inline" fill="#FFB900" stroke="#FFFFFF" stroke-width="0.5" stroke-linecap="square" stroke-linejoin="bevel" d="
		M352.7,1515.8v3.3l2.9,1.7v3.3l-2.9,1.7v3.3l-2.9,1.7l-2.9-1.7l-2.9,1.7l-2.9-1.7v-3.3l-2.9-1.7l-2.9,1.7l-2.9-1.7v-3.3l2.9-1.7
		v-3.3l2.9-1.7l2.9,1.7l2.9-1.7l2.9,1.7l2.9-1.7L352.7,1515.8"/>
	
		<path id="E14000622" vector-effect="none" display="inline" fill="#7D0069" stroke="#FFFFFF" stroke-width="0.5" stroke-linecap="square" stroke-linejoin="bevel" d="
		M439.3,1429.3l2.9,1.7l2.9-1.7l2.9,1.7v3.3l2.9,1.7v3.3l-2.9,1.7v3.3l-2.9,1.7v3.3l-2.9,1.7l-2.9-1.7v-3.3l-2.9-1.7v-3.3l-2.9-1.7
		v-3.3l-2.9-1.7v-3.3l2.9-1.7v-3.3l2.9-1.7l2.9,1.7V1429.3"/>
	
		<path id="E14000623" vector-effect="none" display="inline" fill="#FFB900" stroke="#FFFFFF" stroke-width="0.5" stroke-linecap="square" stroke-linejoin="bevel" d="
		M104.8,1515.8v3.3l2.9,1.7l2.9-1.7l2.9,1.7v3.3l-2.9,1.7l-2.9-1.7l-2.9,1.7l-2.9-1.7v-3.3l-2.9-1.7l-2.9,1.7l-2.9-1.7l-2.9,1.7v3.3
		l2.9,1.7v3.3l2.9,1.7v3.3l2.9,1.7l2.9-1.7l2.9,1.7v3.3l-2.9,1.7l-2.9-1.7l-2.9,1.7l-2.9-1.7v-3.3l-2.9-1.7v-3.3l-2.9-1.7v-3.3
		l-2.9-1.7v-3.3l2.9-1.7v-3.3l2.9-1.7l2.9,1.7l2.9-1.7l2.9,1.7l2.9-1.7L104.8,1515.8"/>
	
		<path id="E14000627" vector-effect="none" display="inline" fill="#FFB900" stroke="#FFFFFF" stroke-width="0.5" stroke-linecap="square" stroke-linejoin="bevel" d="
		M217.2,1271.1v3.3l-2.9,1.7v3.3l-2.9,1.7l-2.9-1.7l-2.9,1.7v3.3l-2.9,1.7l-2.9-1.7l-2.9,1.7l-2.9-1.7v-3.3l-2.9-1.7v-3.3l2.9-1.7
		l2.9,1.7l2.9-1.7v-3.3l2.9-1.7l2.9,1.7l2.9-1.7l2.9,1.7l2.9-1.7L217.2,1271.1"/>
	
		<path id="E14000628" vector-effect="none" display="inline" fill="#FFB900" stroke="#FFFFFF" stroke-width="0.5" stroke-linecap="square" stroke-linejoin="bevel" d="
		M419.1,1384.3l2.9,1.7l2.9-1.7l2.9,1.7v3.3l2.9,1.7v3.3l2.9,1.7v3.3l-2.9,1.7v3.3l-2.9,1.7l-2.9-1.7v-3.3l-2.9-1.7v-3.3l-2.9-1.7
		v-3.3l-2.9-1.7v-3.3l-2.9-1.7v-3.3l2.9-1.7l2.9,1.7V1384.3"/>
	
		<path id="E14000630" vector-effect="none" display="inline" fill="#FFB900" stroke="#FFFFFF" stroke-width="0.5" stroke-linecap="square" stroke-linejoin="bevel" d="
		M197,1419.3l2.9,1.7l2.9-1.7l2.9,1.7v3.3l-2.9,1.7v3.3l-2.9,1.7l-2.9-1.7l-2.9,1.7l-2.9-1.7l-2.9,1.7l-2.9-1.7v-3.3l-2.9-1.7v-3.3
		l2.9-1.7l2.9,1.7l2.9-1.7v-3.3l2.9-1.7l2.9,1.7V1419.3"/>
	
		<path id="E14000635" vector-effect="none" display="inline" fill="#FFB900" stroke="#FFFFFF" stroke-width="0.5" stroke-linecap="square" stroke-linejoin="bevel" d="
		M199.9,1470.9v3.3l-2.9,1.7v3.3l-2.9,1.7v3.3l2.9,1.7v3.3l-2.9,1.7v3.3l-2.9,1.7l-2.9-1.7v-3.3l-2.9-1.7v-3.3l2.9-1.7v-3.3
		l-2.9-1.7v-3.3l2.9-1.7v-3.3l2.9-1.7l2.9,1.7l2.9-1.7L199.9,1470.9"/>
	
		<path id="E14000644" vector-effect="none" display="inline" fill="#FFB900" stroke="#FFFFFF" stroke-width="0.5" stroke-linecap="square" stroke-linejoin="bevel" d="
		M436.4,1371v3.3l2.9,1.7v3.3l2.9,1.7v3.3l-2.9,1.7v3.3l2.9,1.7v3.3l-2.9,1.7l-2.9-1.7v-3.3l-2.9-1.7v-3.3l-2.9-1.7v-3.3l-2.9-1.7
		v-3.3l-2.9-1.7v-3.3l2.9-1.7l2.9,1.7l2.9-1.7L436.4,1371"/>
	
		<path id="E14000680" vector-effect="none" display="inline" fill="#FFB900" stroke="#FFFFFF" stroke-width="0.5" stroke-linecap="square" stroke-linejoin="bevel" d="
		M248.9,1519.2l2.9,1.7l2.9-1.7l2.9,1.7v3.3l2.9,1.7l2.9-1.7l2.9,1.7v3.3l2.9,1.7v3.3l2.9,1.7v3.3l-2.9,1.7l-2.9-1.7v-3.3l-2.9-1.7
		l-2.9,1.7l-2.9-1.7v-3.3l-2.9-1.7l-2.9,1.7l-2.9-1.7v-3.3l-2.9-1.7v-3.3l-2.9-1.7v-3.3l2.9-1.7l2.9,1.7V1519.2"/>
	
		<path id="E14000684" vector-effect="none" display="inline" fill="#FFB900" stroke="#FFFFFF" stroke-width="0.5" stroke-linecap="square" stroke-linejoin="bevel" d="
		M396,1564.1l-2.9,1.7l-2.9-1.7l-2.9,1.7v3.3l-2.9,1.7l-2.9-1.7v-3.3l2.9-1.7v-3.3l2.9-1.7v-3.3l2.9-1.7v-3.3l2.9-1.7v-3.3l2.9-1.7
		l2.9,1.7v3.3l2.9,1.7v3.3l-2.9,1.7v3.3l-2.9,1.7V1564.1"/>
	
		<path id="E14000685" vector-effect="none" display="inline" fill="#FFB900" stroke="#FFFFFF" stroke-width="0.5" stroke-linecap="square" stroke-linejoin="bevel" d="
		M231.6,1519.2l2.9,1.7l2.9-1.7l2.9,1.7v3.3l2.9,1.7v3.3l-2.9,1.7v3.3l2.9,1.7v3.3l-2.9,1.7v3.3l-2.9,1.7l-2.9-1.7v-3.3l2.9-1.7
		v-3.3l-2.9-1.7v-3.3l-2.9-1.7v-3.3l-2.9-1.7v-3.3l-2.9-1.7v-3.3l2.9-1.7l2.9,1.7V1519.2"/>
	
		<path id="E14000704" vector-effect="none" display="inline" fill="#FFB900" stroke="#FFFFFF" stroke-width="0.5" stroke-linecap="square" stroke-linejoin="bevel" d="
		M450.8,1515.8v3.3l-2.9,1.7v3.3l-2.9,1.7v3.3l-2.9,1.7v3.3l-2.9,1.7l-2.9-1.7v-3.3l-2.9-1.7v-3.3l2.9-1.7v-3.3l2.9-1.7v-3.3
		l2.9-1.7l2.9,1.7l2.9-1.7v-3.3l2.9-1.7v-3.3l2.9-1.7l2.9,1.7v3.3l-2.9,1.7v3.3L450.8,1515.8"/>
	
		<path id="E14000719" vector-effect="none" display="inline" fill="#FFB900" stroke="#FFFFFF" stroke-width="0.5" stroke-linecap="square" stroke-linejoin="bevel" d="
		M280.7,1524.2l2.9,1.7l2.9-1.7l2.9,1.7v3.3l2.9,1.7l2.9-1.7l2.9,1.7v3.3l2.9,1.7l2.9-1.7l2.9,1.7v3.3l2.9,1.7v3.3l-2.9,1.7
		l-2.9-1.7l-2.9,1.7l-2.9-1.7l-2.9,1.7l-2.9-1.7v-3.3l2.9-1.7v-3.3l-2.9-1.7l-2.9,1.7l-2.9-1.7v-3.3l-2.9-1.7l-2.9,1.7l-2.9-1.7
		v-3.3l-2.9-1.7v-3.3l2.9-1.7l2.9,1.7V1524.2"/>
	
		<path id="E14000730" vector-effect="none" display="inline" fill="#FFB900" stroke="#FFFFFF" stroke-width="0.5" stroke-linecap="square" stroke-linejoin="bevel" d="
		M243.2,1146.3v3.3l2.9,1.7l2.9-1.7l2.9,1.7l2.9-1.7l2.9,1.7l2.9-1.7l2.9,1.7v3.3l2.9,1.7v3.3l-2.9,1.7l-2.9-1.7l-2.9,1.7l-2.9-1.7
		l-2.9,1.7l-2.9-1.7v-3.3l-2.9-1.7l-2.9,1.7l-2.9-1.7v-3.3l-2.9-1.7l-2.9,1.7l-2.9-1.7v-3.3l2.9-1.7l2.9,1.7l2.9-1.7L243.2,1146.3"
		/>
	
		<path id="E14000738" vector-effect="none" display="inline" fill="#FFB900" stroke="#FFFFFF" stroke-width="0.5" stroke-linecap="square" stroke-linejoin="bevel" d="
		M237.4,1256.1v3.3l-2.9,1.7v3.3l-2.9,1.7v3.3l-2.9,1.7l-2.9-1.7l-2.9,1.7v3.3l-2.9,1.7l-2.9-1.7v-3.3l2.9-1.7v-3.3l2.9-1.7v-3.3
		l-2.9-1.7v-3.3l2.9-1.7l2.9,1.7l2.9-1.7l2.9,1.7l2.9-1.7L237.4,1256.1"/>
	
		<path id="E14000743" vector-effect="none" display="inline" fill="#FFB900" stroke="#FFFFFF" stroke-width="0.5" stroke-linecap="square" stroke-linejoin="bevel" d="
		M122.1,1389.3l2.9,1.7l2.9-1.7l2.9,1.7v3.3l2.9,1.7v3.3l2.9,1.7l2.9-1.7l2.9,1.7v3.3l2.9,1.7l2.9-1.7l2.9,1.7v3.3l-2.9,1.7v3.3
		l-2.9,1.7l-2.9-1.7v-3.3l-2.9-1.7v-3.3l-2.9-1.7l-2.9,1.7l-2.9-1.7v-3.3l-2.9-1.7v-3.3l-2.9-1.7l-2.9,1.7l-2.9-1.7v-3.3l-2.9-1.7
		v-3.3l2.9-1.7l2.9,1.7V1389.3"/>
	
		<path id="E14000753" vector-effect="none" display="inline" fill="#FFB900" stroke="#FFFFFF" stroke-width="0.5" stroke-linecap="square" stroke-linejoin="bevel" d="
		M326.8,1540.8v3.3l2.9,1.7l2.9-1.7l2.9,1.7l2.9-1.7l2.9,1.7v3.3l-2.9,1.7l-2.9-1.7l-2.9,1.7l-2.9-1.7l-2.9,1.7l-2.9-1.7l-2.9,1.7
		l-2.9-1.7l-2.9,1.7l-2.9-1.7l-2.9,1.7l-2.9-1.7v-3.3l2.9-1.7v-3.3l2.9-1.7l2.9,1.7l2.9-1.7l2.9,1.7l2.9-1.7L326.8,1540.8"/>
	
		<path id="E14000770" vector-effect="none" display="inline" fill="#FFB900" stroke="#FFFFFF" stroke-width="0.5" stroke-linecap="square" stroke-linejoin="bevel" d="
		M312.4,1495.9v3.3l2.9,1.7v3.3l2.9,1.7v3.3l2.9,1.7v3.3l-2.9,1.7l-2.9-1.7l-2.9,1.7l-2.9-1.7l-2.9,1.7l-2.9-1.7v-3.3l-2.9-1.7v-3.3
		l2.9-1.7v-3.3l-2.9-1.7v-3.3l2.9-1.7l2.9,1.7l2.9-1.7L312.4,1495.9"/>
	
		<path id="E14000598" vector-effect="none" display="inline" fill="#33A22B" stroke="#FFFFFF" stroke-width="0.5" stroke-linecap="square" stroke-linejoin="bevel" d="
		M355.6,1550.8v3.3l2.9,1.7l2.9-1.7l2.9,1.7v3.3l-2.9,1.7v3.3l-2.9,1.7l-2.9-1.7l-2.9,1.7v3.3l-2.9,1.7l-2.9-1.7v-3.3l2.9-1.7v-3.3
		l-2.9-1.7v-3.3l-2.9-1.7v-3.3l2.9-1.7l2.9,1.7l2.9-1.7L355.6,1550.8"/>
	
		<path id="E14000786" vector-effect="none" display="inline" fill="#FFB900" stroke="#FFFFFF" stroke-width="0.5" stroke-linecap="square" stroke-linejoin="bevel" d="
		M378.7,1550.8v3.3l2.9,1.7l2.9-1.7l2.9,1.7v3.3l-2.9,1.7v3.3l-2.9,1.7v3.3l-2.9,1.7l-2.9-1.7v-3.3l-2.9-1.7v-3.3l-2.9-1.7v-3.3
		l-2.9-1.7l-2.9,1.7l-2.9-1.7v-3.3l2.9-1.7l2.9,1.7l2.9-1.7l2.9,1.7l2.9-1.7L378.7,1550.8"/>
	
		<path id="E14000799" vector-effect="none" display="inline" fill="#FFB900" stroke="#FFFFFF" stroke-width="0.5" stroke-linecap="square" stroke-linejoin="bevel" d="
		M148,1361v3.3l-2.9,1.7v3.3l-2.9,1.7v3.3l-2.9,1.7v3.3l-2.9,1.7l-2.9-1.7l-2.9,1.7l-2.9-1.7v-3.3l-2.9-1.7v-3.3l2.9-1.7v-3.3
		l2.9-1.7l2.9,1.7l2.9-1.7v-3.3l2.9-1.7l2.9,1.7l2.9-1.7L148,1361"/>
	
		<path id="E14000803" vector-effect="none" display="inline" fill="#FFB900" stroke="#FFFFFF" stroke-width="0.5" stroke-linecap="square" stroke-linejoin="bevel" d="
		M254.7,1445.9v3.3l-2.9,1.7v3.3l-2.9,1.7v3.3l2.9,1.7v3.3l2.9,1.7v3.3l2.9,1.7v3.3l-2.9,1.7l-2.9-1.7v-3.3l-2.9-1.7v-3.3l-2.9-1.7
		l-2.9,1.7l-2.9-1.7v-3.3l2.9-1.7v-3.3l-2.9-1.7v-3.3l2.9-1.7v-3.3l2.9-1.7l2.9,1.7l2.9-1.7L254.7,1445.9"/>
	
		<path id="E14000804" vector-effect="none" display="inline" fill="#FFB900" stroke="#FFFFFF" stroke-width="0.5" stroke-linecap="square" stroke-linejoin="bevel" d="
		M430.6,1520.8v3.3l-2.9,1.7v3.3l-2.9,1.7l-2.9-1.7l-2.9,1.7l-2.9-1.7v-3.3l-2.9-1.7l-2.9,1.7l-2.9-1.7v-3.3l2.9-1.7l2.9,1.7
		l2.9-1.7v-3.3l2.9-1.7v-3.3l2.9-1.7l2.9,1.7v3.3l2.9,1.7v3.3L430.6,1520.8"/>
	
		<path id="E14000811" vector-effect="none" display="inline" fill="#FFB900" stroke="#FFFFFF" stroke-width="0.5" stroke-linecap="square" stroke-linejoin="bevel" d="
		M248.9,1529.2l2.9,1.7l2.9-1.7l2.9,1.7v3.3l2.9,1.7l2.9-1.7l2.9,1.7v3.3l2.9,1.7l2.9-1.7l2.9,1.7v3.3l-2.9,1.7l-2.9-1.7l-2.9,1.7
		l-2.9-1.7v-3.3l-2.9-1.7l-2.9,1.7l-2.9-1.7l0-3.3l-2.9-1.7l-2.9,1.7l-2.9-1.7l-2.9,1.7l-2.9-1.7v-3.3l2.9-1.7v-3.3l-2.9-1.7v-3.3
		l2.9-1.7l2.9,1.7v3.3l2.9,1.7V1529.2"/>
	
		<path id="E14000815" vector-effect="none" display="inline" fill="#FFB900" stroke="#FFFFFF" stroke-width="0.5" stroke-linecap="square" stroke-linejoin="bevel" d="
		M194.2,1530.8v3.3l-2.9,1.7v3.3l-2.9,1.7l-2.9-1.7l-2.9,1.7v3.3l-2.9,1.7l-2.9-1.7v-3.3l-2.9-1.7v-3.3l-2.9-1.7v-3.3l2.9-1.7
		l2.9,1.7l2.9-1.7l2.9,1.7l2.9-1.7v-3.3l2.9-1.7l2.9,1.7v3.3L194.2,1530.8"/>
	
		<path id="E14000817" vector-effect="none" display="inline" fill="#FFB900" stroke="#FFFFFF" stroke-width="0.5" stroke-linecap="square" stroke-linejoin="bevel" d="
		M372.9,1540.8v3.3l2.9,1.7v3.3l-2.9,1.7l-2.9-1.7l-2.9,1.7l-2.9-1.7l-2.9,1.7v3.3l-2.9,1.7l-2.9-1.7v-3.3l-2.9-1.7v-3.3l2.9-1.7
		v-3.3l2.9-1.7l2.9,1.7l2.9-1.7l2.9,1.7l2.9-1.7L372.9,1540.8"/>
	
		<path id="E14000827" vector-effect="none" display="inline" fill="#FFB900" stroke="#FFFFFF" stroke-width="0.5" stroke-linecap="square" stroke-linejoin="bevel" d="
		M214.3,1529.2l2.9,1.7l2.9-1.7l2.9,1.7v3.3l2.9,1.7v3.3l2.9,1.7v3.3l-2.9,1.7v3.3l-2.9,1.7l-2.9-1.7v-3.3l-2.9-1.7v-3.3l2.9-1.7
		v-3.3l-2.9-1.7l-2.9,1.7l-2.9-1.7v-3.3l-2.9-1.7v-3.3l-2.9-1.7v-3.3l-2.9-1.7v-3.3l2.9-1.7l2.9,1.7v3.3l2.9,1.7v3.3l2.9,1.7
		L214.3,1529.2"/>
	
		<path id="E14000830" vector-effect="none" display="inline" fill="#FFB900" stroke="#FFFFFF" stroke-width="0.5" stroke-linecap="square" stroke-linejoin="bevel" d="
		M225.9,1479.2l-2.9,1.7l-2.9-1.7l-2.9,1.7l-2.9-1.7l-2.9,1.7l-2.9-1.7v-3.3l2.9-1.7v-3.3l-2.9-1.7v-3.3l2.9-1.7v-3.3l2.9-1.7
		l2.9,1.7v3.3l2.9,1.7v3.3l2.9,1.7v3.3l2.9,1.7V1479.2"/>
	
		<path id="E14000835" vector-effect="none" display="inline" fill="#FFB900" stroke="#FFFFFF" stroke-width="0.5" stroke-linecap="square" stroke-linejoin="bevel" d="
		M113.4,1540.8v3.3l2.9,1.7v3.3l-2.9,1.7l-2.9-1.7l-2.9,1.7v3.3l-2.9,1.7l-2.9-1.7v-3.3l-2.9-1.7v-3.3l-2.9-1.7v-3.3l2.9-1.7
		l2.9,1.7l2.9-1.7v-3.3l2.9-1.7l2.9,1.7v3.3L113.4,1540.8"/>
	
		<path id="E14000837" vector-effect="none" display="inline" fill="#FFB900" stroke="#FFFFFF" stroke-width="0.5" stroke-linecap="square" stroke-linejoin="bevel" d="
		M78.8,1530.8v3.3l-2.9,1.7l-2.9-1.7l-2.9,1.7l-2.9-1.7l-2.9,1.7v3.3l-2.9,1.7v3.3l-2.9,1.7v3.3l-2.9,1.7l-2.9-1.7v-3.3l-2.9-1.7
		l-2.9,1.7l-2.9-1.7v-3.3l2.9-1.7l2.9,1.7l2.9-1.7l2.9,1.7l2.9-1.7v-3.3l2.9-1.7v-3.3l2.9-1.7l2.9,1.7l2.9-1.7v-3.3l2.9-1.7l2.9,1.7
		v3.3L78.8,1530.8"/>
	
		<path id="E14000838" vector-effect="none" display="inline" fill="#FFB900" stroke="#FFFFFF" stroke-width="0.5" stroke-linecap="square" stroke-linejoin="bevel" d="
		M101.9,1500.9v3.3l2.9,1.7v3.3l2.9,1.7v3.3l-2.9,1.7l-2.9-1.7l-2.9,1.7l-2.9-1.7l-2.9,1.7l-2.9-1.7v-3.3l-2.9-1.7v-3.3l-2.9-1.7
		v-3.3l2.9-1.7l2.9,1.7l2.9-1.7l2.9,1.7l2.9-1.7L101.9,1500.9"/>
	
		<path id="E14000839" vector-effect="none" display="inline" fill="#FFB900" stroke="#FFFFFF" stroke-width="0.5" stroke-linecap="square" stroke-linejoin="bevel" d="
		M194.2,1520.8v3.3l-2.9,1.7l-2.9-1.7l-2.9,1.7v3.3l-2.9,1.7l-2.9-1.7l-2.9,1.7l-2.9-1.7l-2.9,1.7l-2.9-1.7v-3.3l2.9-1.7v-3.3
		l2.9-1.7v-3.3l2.9-1.7l2.9,1.7v3.3l2.9,1.7l2.9-1.7v-3.3l2.9-1.7l2.9,1.7v3.3L194.2,1520.8"/>
	
		<path id="E14000847" vector-effect="none" display="inline" fill="#FFB900" stroke="#FFFFFF" stroke-width="0.5" stroke-linecap="square" stroke-linejoin="bevel" d="
		M130.7,1381v3.3l2.9,1.7v3.3l2.9,1.7l2.9-1.7l2.9,1.7v3.3l2.9,1.7v3.3l2.9,1.7v3.3l-2.9,1.7l-2.9-1.7v-3.3l-2.9-1.7l-2.9,1.7
		l-2.9-1.7v-3.3l-2.9-1.7v-3.3l-2.9-1.7l-2.9,1.7l-2.9-1.7v-3.3l-2.9-1.7v-3.3l2.9-1.7l2.9,1.7l2.9-1.7L130.7,1381"/>
	
		<path id="E14000848" vector-effect="none" display="inline" fill="#FFB900" stroke="#FFFFFF" stroke-width="0.5" stroke-linecap="square" stroke-linejoin="bevel" d="
		M416.2,1296.1v3.3l2.9,1.7l2.9-1.7l2.9,1.7l2.9-1.7l2.9,1.7l2.9-1.7l2.9,1.7v3.3l2.9,1.7l2.9-1.7l2.9,1.7v3.3l-2.9,1.7l-2.9-1.7
		l-2.9,1.7l-2.9-1.7v-3.3l-2.9-1.7l-2.9,1.7l-2.9-1.7l-2.9,1.7l-2.9-1.7l-2.9,1.7l-2.9-1.7v-3.3l-2.9-1.7l-2.9,1.7l-2.9-1.7
		l-2.9,1.7l-2.9-1.7v-3.3l2.9-1.7l2.9,1.7l2.9-1.7l2.9,1.7l2.9-1.7L416.2,1296.1"/>
	
		<path id="E14000850" vector-effect="none" display="inline" fill="#FFB900" stroke="#FFFFFF" stroke-width="0.5" stroke-linecap="square" stroke-linejoin="bevel" d="
		M148,1474.2l2.9,1.7l2.9-1.7l2.9,1.7v3.3l-2.9,1.7v3.3l2.9,1.7v3.3l2.9,1.7v3.3l-2.9,1.7l-2.9-1.7v-3.3l-2.9-1.7l-2.9,1.7l-2.9-1.7
		v-3.3l-2.9-1.7v-3.3l2.9-1.7v-3.3l-2.9-1.7v-3.3l2.9-1.7l2.9,1.7V1474.2"/>
	
		<path id="E14000860" vector-effect="none" display="inline" fill="#FFB900" stroke="#FFFFFF" stroke-width="0.5" stroke-linecap="square" stroke-linejoin="bevel" d="
		M197,1445.9v3.3l2.9,1.7v3.3l-2.9,1.7v3.3l-2.9,1.7v3.3l2.9,1.7v3.3l-2.9,1.7l-2.9-1.7l-2.9,1.7l-2.9-1.7v-3.3l2.9-1.7v-3.3
		l-2.9-1.7v-3.3l2.9-1.7v-3.3l-2.9-1.7v-3.3l2.9-1.7l2.9,1.7l2.9-1.7L197,1445.9"/>
	
		<path id="E14000874" vector-effect="none" display="inline" fill="#FFB900" stroke="#FFFFFF" stroke-width="0.5" stroke-linecap="square" stroke-linejoin="bevel" d="
		M228.8,1444.3l-2.9,1.7l-2.9-1.7l-2.9,1.7l-2.9-1.7v-3.3l2.9-1.7v-3.3l-2.9-1.7v-3.3l2.9-1.7v-3.3l2.9-1.7v-3.3l2.9-1.7l2.9,1.7
		v3.3l2.9,1.7v3.3l2.9,1.7v3.3l-2.9,1.7v3.3l-2.9,1.7V1444.3"/>
	
		<path id="E14000881" vector-effect="none" display="inline" fill="#FFB900" stroke="#FFFFFF" stroke-width="0.5" stroke-linecap="square" stroke-linejoin="bevel" d="
		M194.2,1540.8v3.3l2.9,1.7v3.3l2.9,1.7v3.3l2.9,1.7v3.3l-2.9,1.7l-2.9-1.7l-2.9,1.7l-2.9-1.7v-3.3l-2.9-1.7v-3.3l-2.9-1.7v-3.3
		l-2.9-1.7v-3.3l2.9-1.7l2.9,1.7l2.9-1.7L194.2,1540.8"/>
	
		<path id="E14000762" vector-effect="none" display="inline" fill="#FFB900" stroke="#FFFFFF" stroke-width="0.5" stroke-linecap="square" stroke-linejoin="bevel" d="
		M237.2,1575.6l-2.9-1.7l-2.9,1.7l-2.9-1.7l-2.9,1.7l-2.9-1.7l0-3.3l2.9-1.7l0-3.3l2.9-1.7l0-3.3l2.9-1.7l2.9,1.7l2.9-1.7l2.9,1.7
		l0,3.3l2.9,1.7l0,3.3l-2.9,1.7l0,3.3L237.2,1575.6"/>
	
		<path id="E14000896" vector-effect="none" display="inline" fill="#FFB900" stroke="#FFFFFF" stroke-width="0.5" stroke-linecap="square" stroke-linejoin="bevel" d="
		M315.3,1470.9v3.3l2.9,1.7v3.3l-2.9,1.7v3.3l-2.9,1.7v3.3l-2.9,1.7v3.3l-2.9,1.7l-2.9-1.7v-3.3l2.9-1.7v-3.3l-2.9-1.7v-3.3
		l-2.9-1.7v-3.3l2.9-1.7v-3.3l2.9-1.7l2.9,1.7l2.9-1.7L315.3,1470.9"/>
	
		<path id="E14000898" vector-effect="none" display="inline" fill="#7D0069" stroke="#FFFFFF" stroke-width="0.5" stroke-linecap="square" stroke-linejoin="bevel" d="
		M445,1455.9v3.3l2.9,1.7v3.3l-2.9,1.7v3.3l-2.9,1.7v3.3l-2.9,1.7l-2.9-1.7v-3.3l-2.9-1.7v-3.3l-2.9-1.7v-3.3l2.9-1.7v-3.3l2.9-1.7
		l2.9,1.7l2.9-1.7v-3.3l2.9-1.7l2.9,1.7v3.3L445,1455.9"/>
	
		<path id="E14000901" vector-effect="none" display="inline" fill="#FFB900" stroke="#FFFFFF" stroke-width="0.5" stroke-linecap="square" stroke-linejoin="bevel" d="
		M220.1,1495.9v3.3l-2.9,1.7v3.3l2.9,1.7v3.3l-2.9,1.7v3.3l-2.9,1.7l-2.9-1.7l-2.9,1.7l-2.9-1.7v-3.3l2.9-1.7v-3.3l-2.9-1.7v-3.3
		l-2.9-1.7v-3.3l2.9-1.7l2.9,1.7l2.9-1.7v-3.3l2.9-1.7l2.9,1.7v3.3L220.1,1495.9"/>
	
		<path id="E14000912" vector-effect="none" display="inline" fill="#FFB900" stroke="#FFFFFF" stroke-width="0.5" stroke-linecap="square" stroke-linejoin="bevel" d="
		M202.8,1495.9v3.3l2.9,1.7v3.3l2.9,1.7v3.3l-2.9,1.7v3.3l-2.9,1.7l-2.9-1.7v-3.3l-2.9-1.7l-2.9,1.7v3.3l-2.9,1.7l-2.9-1.7v-3.3
		l2.9-1.7v-3.3l2.9-1.7v-3.3l-2.9-1.7v-3.3l2.9-1.7l2.9,1.7l2.9-1.7L202.8,1495.9"/>
	
		<path id="E14000928" vector-effect="none" display="inline" fill="#FFB900" stroke="#FFFFFF" stroke-width="0.5" stroke-linecap="square" stroke-linejoin="bevel" d="
		M194.2,1131.3v3.3l2.9,1.7l2.9-1.7l2.9,1.7l2.9-1.7l2.9,1.7l2.9-1.7l2.9,1.7v3.3l2.9,1.7l2.9-1.7l2.9,1.7v3.3l-2.9,1.7l-2.9-1.7
		l-2.9,1.7l-2.9-1.7v-3.3l-2.9-1.7l-2.9,1.7l-2.9-1.7l-2.9,1.7v3.3l-2.9,1.7l-2.9-1.7v-3.3l-2.9-1.7v-3.3l-2.9-1.7l-2.9,1.7
		l-2.9-1.7v-3.3l2.9-1.7l2.9,1.7l2.9-1.7L194.2,1131.3"/>
	
		<path id="E14000931" vector-effect="none" display="inline" fill="#FFB900" stroke="#FFFFFF" stroke-width="0.5" stroke-linecap="square" stroke-linejoin="bevel" d="
		M228.8,1381v3.3l-2.9,1.7l-2.9-1.7l-2.9,1.7v3.3l-2.9,1.7v3.3l-2.9,1.7l-2.9-1.7v-3.3l-2.9-1.7v-3.3l-2.9-1.7v-3.3l2.9-1.7l2.9,1.7
		l2.9-1.7l2.9,1.7l2.9-1.7l2.9,1.7l2.9-1.7v-3.3l2.9-1.7l2.9,1.7v3.3L228.8,1381"/>
	
		<path id="E14000932" vector-effect="none" display="inline" fill="#FFB900" stroke="#FFFFFF" stroke-width="0.5" stroke-linecap="square" stroke-linejoin="bevel" d="
		M179.7,1505.9v3.3l-2.9,1.7l-2.9-1.7l-2.9,1.7v3.3l2.9,1.7v3.3l-2.9,1.7l-2.9-1.7l-2.9,1.7l-2.9-1.7l-2.9,1.7l-2.9-1.7l-2.9,1.7
		l-2.9-1.7l-2.9,1.7l-2.9-1.7v-3.3l2.9-1.7l2.9,1.7l2.9-1.7l2.9,1.7l2.9-1.7l2.9,1.7l2.9-1.7v-3.3l2.9-1.7v-3.3l2.9-1.7l2.9,1.7
		l2.9-1.7v-3.3l2.9-1.7l2.9,1.7v3.3L179.7,1505.9"/>
	
		<path id="E14000934" vector-effect="none" display="inline" fill="#FFB900" stroke="#FFFFFF" stroke-width="0.5" stroke-linecap="square" stroke-linejoin="bevel" d="
		M378.7,1331.1v3.3l-2.9,1.7v3.3l2.9,1.7v3.3l2.9,1.7v3.3l-2.9,1.7l-2.9-1.7l-2.9,1.7l-2.9-1.7v-3.3l-2.9-1.7l-2.9,1.7l-2.9-1.7
		v-3.3l2.9-1.7v-3.3l2.9-1.7v-3.3l2.9-1.7l2.9,1.7l2.9-1.7L378.7,1331.1"/>
	
		<path id="E14000937" vector-effect="none" display="inline" fill="#FFB900" stroke="#FFFFFF" stroke-width="0.5" stroke-linecap="square" stroke-linejoin="bevel" d="
		M393.1,1326.1v3.3l2.9,1.7v3.3l2.9,1.7v3.3l2.9,1.7v3.3l-2.9,1.7v3.3l-2.9,1.7l-2.9-1.7v-3.3l-2.9-1.7v-3.3l2.9-1.7v-3.3l-2.9-1.7
		l-2.9,1.7l-2.9-1.7v-3.3l-2.9-1.7l-2.9,1.7l-2.9-1.7v-3.3l2.9-1.7l2.9,1.7l2.9-1.7l2.9,1.7l2.9-1.7L393.1,1326.1"/>
	
		<path id="E14000938" vector-effect="none" display="inline" fill="#FFB900" stroke="#FFFFFF" stroke-width="0.5" stroke-linecap="square" stroke-linejoin="bevel" d="
		M81.7,1535.8v3.3l-2.9,1.7l-2.9-1.7l-2.9,1.7l-2.9-1.7l-2.9,1.7v3.3l2.9,1.7v3.3l2.9,1.7v3.3l-2.9,1.7l-2.9-1.7l-2.9,1.7l-2.9-1.7
		l-2.9,1.7l-2.9-1.7v-3.3l2.9-1.7v-3.3l2.9-1.7v-3.3l2.9-1.7v-3.3l2.9-1.7l2.9,1.7l2.9-1.7l2.9,1.7l2.9-1.7L81.7,1535.8"/>
	
		<path id="E14000953" vector-effect="none" display="inline" fill="#FFB900" stroke="#FFFFFF" stroke-width="0.5" stroke-linecap="square" stroke-linejoin="bevel" d="
		M277.8,1525.8v3.3l2.9,1.7l2.9-1.7l2.9,1.7v3.3l2.9,1.7l2.9-1.7l2.9,1.7v3.3l-2.9,1.7l-2.9-1.7l-2.9,1.7l-2.9-1.7l-2.9,1.7
		l-2.9-1.7v-3.3l-2.9-1.7l-2.9,1.7l-2.9-1.7v-3.3l-2.9-1.7v-3.3l2.9-1.7l2.9,1.7l2.9-1.7L277.8,1525.8"/>
	
		<path id="E14000958" vector-effect="none" display="inline" fill="#FFB900" stroke="#FFFFFF" stroke-width="0.5" stroke-linecap="square" stroke-linejoin="bevel" d="
		M130.7,1214.5l-2.9,1.7l-2.9-1.7l-2.9,1.7l-2.9-1.7v-3.3l2.9-1.7v-3.3l2.9-1.7v-3.3l2.9-1.7v-3.3l2.9-1.7v-3.3l2.9-1.7l2.9,1.7v3.3
		l2.9,1.7v3.3l-2.9,1.7v3.3l-2.9,1.7v3.3l-2.9,1.7V1214.5"/>
	
		<path id="E14000960" vector-effect="none" display="inline" fill="#FFB900" stroke="#FFFFFF" stroke-width="0.5" stroke-linecap="square" stroke-linejoin="bevel" d="
		M326.8,1381v3.3l-2.9,1.7l-2.9-1.7l-2.9,1.7v3.3l-2.9,1.7v3.3l-2.9,1.7l-2.9-1.7l-2.9,1.7l-2.9-1.7l-2.9,1.7v3.3l-2.9,1.7l-2.9-1.7
		v-3.3l2.9-1.7v-3.3l2.9-1.7l2.9,1.7l2.9-1.7v-3.3l2.9-1.7l2.9,1.7l2.9-1.7v-3.3l2.9-1.7l2.9,1.7l2.9-1.7L326.8,1381"/>
	
		<path id="E14000961" vector-effect="none" display="inline" fill="#FFB900" stroke="#FFFFFF" stroke-width="0.5" stroke-linecap="square" stroke-linejoin="bevel" d="
		M52.9,1545.8v3.3l2.9,1.7v3.3l2.9,1.7v3.3l-2.9,1.7v3.3l-2.9,1.7l-2.9-1.7l-2.9,1.7l-2.9-1.7v-3.3l2.9-1.7v-3.3l-2.9-1.7l-2.9,1.7
		l-2.9-1.7v-3.3l2.9-1.7v-3.3l2.9-1.7l2.9,1.7l2.9-1.7L52.9,1545.8"/>
	
		<path id="E14000964" vector-effect="none" display="inline" fill="#FFB900" stroke="#FFFFFF" stroke-width="0.5" stroke-linecap="square" stroke-linejoin="bevel" d="
		M24,1575.8v3.3l2.9,1.7v3.3l2.9,1.7l2.9-1.7l2.9,1.7v3.3l-2.9,1.7v3.3l-2.9,1.7l-2.9-1.7v-3.3l-2.9-1.7v-3.3l-2.9-1.7l-2.9,1.7
		l-2.9-1.7v-3.3l-2.9-1.7l-2.9,1.7v3.3l-2.9,1.7l-2.9-1.7v-3.3l2.9-1.7v-3.3l2.9-1.7l2.9,1.7l2.9-1.7l2.9,1.7l2.9-1.7L24,1575.8"/>
	
		<path id="E14000977" vector-effect="none" display="inline" fill="#FFB900" stroke="#FFFFFF" stroke-width="0.5" stroke-linecap="square" stroke-linejoin="bevel" d="
		M228.8,1401v3.3l-2.9,1.7v3.3l-2.9,1.7v3.3l-2.9,1.7l-2.9-1.7l-2.9,1.7l-2.9-1.7l-2.9,1.7l-2.9-1.7v-3.3l2.9-1.7v-3.3l2.9-1.7v-3.3
		l2.9-1.7l2.9,1.7l2.9-1.7l2.9,1.7l2.9-1.7L228.8,1401"/>
	
		<path id="E14000984" vector-effect="none" display="inline" fill="#FFB900" stroke="#FFFFFF" stroke-width="0.5" stroke-linecap="square" stroke-linejoin="bevel" d="
		M332.6,1510.8v3.3l2.9,1.7v3.3l-2.9,1.7v3.3l2.9,1.7v3.3l-2.9,1.7l-2.9-1.7l-2.9,1.7l-2.9-1.7v-3.3l-2.9-1.7v-3.3l-2.9-1.7v-3.3
		l2.9-1.7v-3.3l2.9-1.7l2.9,1.7l2.9-1.7L332.6,1510.8"/>
	
		<path id="E14000988" vector-effect="none" display="inline" fill="#FFB900" stroke="#FFFFFF" stroke-width="0.5" stroke-linecap="square" stroke-linejoin="bevel" d="
		M145.1,1515.8v3.3l-2.9,1.7v3.3l-2.9,1.7v3.3l-2.9,1.7l-2.9-1.7v-3.3l-2.9-1.7l-2.9,1.7l-2.9-1.7v-3.3l-2.9-1.7v-3.3l2.9-1.7
		l2.9,1.7l2.9-1.7l2.9,1.7l2.9-1.7l2.9,1.7l2.9-1.7L145.1,1515.8"/>
	
		<path id="E14000990" vector-effect="none" display="inline" fill="#FFB900" stroke="#FFFFFF" stroke-width="0.5" stroke-linecap="square" stroke-linejoin="bevel" d="
		M191.3,1416v3.3l-2.9,1.7l-2.9-1.7l-2.9,1.7v3.3l2.9,1.7v3.3l2.9,1.7l2.9-1.7l2.9,1.7v3.3l-2.9,1.7l-2.9-1.7l-2.9,1.7l-2.9-1.7
		v-3.3l-2.9-1.7v-3.3l-2.9-1.7l-2.9,1.7l-2.9-1.7v-3.3l2.9-1.7v-3.3l2.9-1.7l2.9,1.7l2.9-1.7l2.9,1.7l2.9-1.7L191.3,1416"/>
	
		<path id="E14000991" vector-effect="none" display="inline" fill="#FFB900" stroke="#FFFFFF" stroke-width="0.5" stroke-linecap="square" stroke-linejoin="bevel" d="
		M205.7,1430.9v3.3l-2.9,1.7v3.3l-2.9,1.7v3.3l-2.9,1.7l-2.9-1.7l-2.9,1.7l-2.9-1.7v-3.3l2.9-1.7v-3.3l2.9-1.7v-3.3l2.9-1.7l2.9,1.7
		l2.9-1.7v-3.3l2.9-1.7v-3.3l2.9-1.7v-3.3l2.9-1.7l2.9,1.7v3.3l-2.9,1.7v3.3l-2.9,1.7v3.3L205.7,1430.9"/>
	
		<path id="E14000994" vector-effect="none" display="inline" fill="#FFB900" stroke="#FFFFFF" stroke-width="0.5" stroke-linecap="square" stroke-linejoin="bevel" d="
		M168.2,1439.3l2.9,1.7l2.9-1.7l2.9,1.7v3.3l2.9,1.7l2.9-1.7l2.9,1.7v3.3l2.9,1.7v3.3l-2.9,1.7v3.3l-2.9,1.7l-2.9-1.7v-3.3l-2.9-1.7
		v-3.3l-2.9-1.7v-3.3l-2.9-1.7l-2.9,1.7l-2.9-1.7v-3.3l-2.9-1.7v-3.3l2.9-1.7l2.9,1.7V1439.3"/>
	
		<path id="E14000996" vector-effect="none" display="inline" fill="#FFB900" stroke="#FFFFFF" stroke-width="0.5" stroke-linecap="square" stroke-linejoin="bevel" d="
		M122.1,1515.8v3.3l2.9,1.7v3.3l2.9,1.7l2.9-1.7l2.9,1.7v3.3l2.9,1.7l2.9-1.7l2.9,1.7v3.3l-2.9,1.7l-2.9-1.7l-2.9,1.7l-2.9-1.7v-3.3
		l-2.9-1.7l-2.9,1.7l-2.9-1.7v-3.3l-2.9-1.7l-2.9,1.7l-2.9-1.7v-3.3l-2.9-1.7l-2.9,1.7l-2.9-1.7v-3.3l2.9-1.7l2.9,1.7l2.9-1.7
		l2.9,1.7l2.9-1.7L122.1,1515.8"/>
	
		<path id="E14000999" vector-effect="none" display="inline" fill="#FFB900" stroke="#FFFFFF" stroke-width="0.5" stroke-linecap="square" stroke-linejoin="bevel" d="
		M119.2,1550.8v3.3l2.9,1.7v3.3l2.9,1.7v3.3l-2.9,1.7v3.3l-2.9,1.7l-2.9-1.7v-3.3l-2.9-1.7l-2.9,1.7l-2.9-1.7v-3.3l2.9-1.7v-3.3
		l-2.9-1.7v-3.3l2.9-1.7l2.9,1.7l2.9-1.7L119.2,1550.8"/>
	
		<path id="E14001000" vector-effect="none" display="inline" fill="#FFB900" stroke="#FFFFFF" stroke-width="0.5" stroke-linecap="square" stroke-linejoin="bevel" d="
		M84.6,1520.8v3.3l2.9,1.7v3.3l2.9,1.7v3.3l2.9,1.7v3.3l-2.9,1.7l-2.9-1.7l-2.9,1.7l-2.9-1.7v-3.3l-2.9-1.7v-3.3l-2.9-1.7v-3.3
		l-2.9-1.7v-3.3l2.9-1.7l2.9,1.7l2.9-1.7v-3.3l2.9-1.7l2.9,1.7v3.3L84.6,1520.8"/>
	
		<path id="E14001001" vector-effect="none" display="inline" fill="#FFB900" stroke="#FFFFFF" stroke-width="0.5" stroke-linecap="square" stroke-linejoin="bevel" d="
		M101.9,1554.1l2.9,1.7l2.9-1.7l2.9,1.7v3.3l-2.9,1.7v3.3l2.9,1.7l2.9-1.7l2.9,1.7v3.3l-2.9,1.7l-2.9-1.7l-2.9,1.7l-2.9-1.7
		l-2.9,1.7l-2.9-1.7v-3.3l2.9-1.7v-3.3l-2.9-1.7v-3.3l-2.9-1.7v-3.3l-2.9-1.7v-3.3l-2.9-1.7v-3.3l2.9-1.7l2.9,1.7v3.3l2.9,1.7v3.3
		l2.9,1.7V1554.1"/>
	
		<path id="E14001005" vector-effect="none" display="inline" fill="#FFB900" stroke="#FFFFFF" stroke-width="0.5" stroke-linecap="square" stroke-linejoin="bevel" d="
		M303.7,1480.9v3.3l2.9,1.7v3.3l-2.9,1.7v3.3l-2.9,1.7v3.3l2.9,1.7v3.3l-2.9,1.7l-2.9-1.7v-3.3l-2.9-1.7v-3.3l-2.9-1.7v-3.3
		l-2.9-1.7v-3.3l-2.9-1.7v-3.3l2.9-1.7l2.9,1.7l2.9-1.7l2.9,1.7l2.9-1.7L303.7,1480.9"/>
	
		<path id="E14001026" vector-effect="none" display="inline" fill="#FFB900" stroke="#FFFFFF" stroke-width="0.5" stroke-linecap="square" stroke-linejoin="bevel" d="
		M153.8,1504.2l2.9,1.7l2.9-1.7l2.9,1.7l2.9-1.7l2.9,1.7v3.3l-2.9,1.7v3.3l-2.9,1.7l-2.9-1.7l-2.9,1.7l-2.9-1.7l-2.9,1.7l-2.9-1.7
		v-3.3l-2.9-1.7l-2.9,1.7l-2.9-1.7v-3.3l2.9-1.7l2.9,1.7l2.9-1.7v-3.3l2.9-1.7l2.9,1.7V1504.2"/>
	
		<path id="E14001031" vector-effect="none" display="inline" fill="#FFB900" stroke="#FFFFFF" stroke-width="0.5" stroke-linecap="square" stroke-linejoin="bevel" d="
		M171.1,1530.8v3.3l-2.9,1.7v3.3l-2.9,1.7l-2.9-1.7l-2.9,1.7l-2.9-1.7v-3.3l-2.9-1.7l-2.9,1.7l-2.9-1.7l-2.9,1.7l-2.9-1.7v-3.3
		l2.9-1.7l2.9,1.7l2.9-1.7l2.9,1.7l2.9-1.7l2.9,1.7l2.9-1.7v-3.3l2.9-1.7v-3.3l2.9-1.7l2.9,1.7v3.3l-2.9,1.7v3.3L171.1,1530.8"/>
	
		<path id="E14001035" vector-effect="none" display="inline" fill="#FFB900" stroke="#FFFFFF" stroke-width="0.5" stroke-linecap="square" stroke-linejoin="bevel" d="
		M153.8,1404.3l2.9,1.7l2.9-1.7l2.9,1.7v3.3l2.9,1.7l2.9-1.7l2.9,1.7l2.9-1.7l2.9,1.7v3.3l-2.9,1.7v3.3l-2.9,1.7l-2.9-1.7v-3.3
		l-2.9-1.7l-2.9,1.7l-2.9-1.7v-3.3l-2.9-1.7l-2.9,1.7l-2.9-1.7v-3.3l-2.9-1.7v-3.3l-2.9-1.7v-3.3l2.9-1.7l2.9,1.7v3.3l2.9,1.7
		V1404.3"/>
	
		<path id="E14001037" vector-effect="none" display="inline" fill="#FFB900" stroke="#FFFFFF" stroke-width="0.5" stroke-linecap="square" stroke-linejoin="bevel" d="
		M168.2,1116.3v3.3l2.9,1.7l2.9-1.7l2.9,1.7l2.9-1.7l2.9,1.7v3.3l-2.9,1.7l-2.9-1.7l-2.9,1.7l-2.9-1.7l-2.9,1.7l-2.9-1.7l-2.9,1.7
		v3.3l-2.9,1.7v3.3l-2.9,1.7l-2.9-1.7v-3.3l2.9-1.7v-3.3l-2.9-1.7v-3.3l2.9-1.7v-3.3l2.9-1.7l2.9,1.7l2.9-1.7L168.2,1116.3"/>
	
		<path id="E14001038" vector-effect="none" display="inline" fill="#FFB900" stroke="#FFFFFF" stroke-width="0.5" stroke-linecap="square" stroke-linejoin="bevel" d="
		M145.1,1489.2l2.9,1.7l2.9-1.7l2.9,1.7v3.3l2.9,1.7v3.3l-2.9,1.7l-2.9-1.7l-2.9,1.7v3.3l-2.9,1.7l-2.9-1.7v-3.3l-2.9-1.7v-3.3
		l-2.9-1.7v-3.3l2.9-1.7v-3.3l2.9-1.7l2.9,1.7V1489.2"/>
	
		<path id="E14001041" vector-effect="none" display="inline" fill="#FFB900" stroke="#FFFFFF" stroke-width="0.5" stroke-linecap="square" stroke-linejoin="bevel" d="
		M231.6,1509.2l2.9,1.7l2.9-1.7l2.9,1.7v3.3l2.9,1.7v3.3l-2.9,1.7l-2.9-1.7l-2.9,1.7l-2.9-1.7v-3.3l-2.9-1.7v-3.3l-2.9-1.7l-2.9,1.7
		l-2.9-1.7v-3.3l-2.9-1.7v-3.3l2.9-1.7v-3.3l2.9-1.7l2.9,1.7v3.3l2.9,1.7v3.3l2.9,1.7V1509.2"/>
	
		<path id="E14001047" vector-effect="none" display="inline" fill="#FFB900" stroke="#FFFFFF" stroke-width="0.5" stroke-linecap="square" stroke-linejoin="bevel" d="
		M292.2,1510.8v3.3l2.9,1.7v3.3l-2.9,1.7v3.3l-2.9,1.7l-2.9-1.7l-2.9,1.7l-2.9-1.7v-3.3l-2.9-1.7l-2.9,1.7l-2.9-1.7v-3.3l-2.9-1.7
		v-3.3l2.9-1.7l2.9,1.7l2.9-1.7l2.9,1.7l2.9-1.7l2.9,1.7l2.9-1.7L292.2,1510.8"/>
	
		<path id="E14001060" vector-effect="none" display="inline" fill="#FFB900" stroke="#FFFFFF" stroke-width="0.5" stroke-linecap="square" stroke-linejoin="bevel" d="
		M165.3,1520.8v3.3l-2.9,1.7v3.3l-2.9,1.7l-2.9-1.7l-2.9,1.7l-2.9-1.7l-2.9,1.7l-2.9-1.7l-2.9,1.7l-2.9-1.7v-3.3l2.9-1.7v-3.3
		l2.9-1.7l2.9,1.7l2.9-1.7l2.9,1.7l2.9-1.7l2.9,1.7l2.9-1.7L165.3,1520.8"/>
	
		<path id="E14001062" vector-effect="none" display="inline" fill="#FFB900" stroke="#FFFFFF" stroke-width="0.5" stroke-linecap="square" stroke-linejoin="bevel" d="
		M289.3,1179.6l2.9,1.7l2.9-1.7l2.9,1.7l2.9-1.7l2.9,1.7v3.3l2.9,1.7v3.3l-2.9,1.7l-2.9-1.7l-2.9,1.7l-2.9-1.7v-3.3l-2.9-1.7
		l-2.9,1.7l-2.9-1.7v-3.3l-2.9-1.7v-3.3l-2.9-1.7v-3.3l-2.9-1.7v-3.3l2.9-1.7l2.9,1.7v3.3l2.9,1.7v3.3l2.9,1.7V1179.6"/>
	
		<path id="S14000005" vector-effect="none" display="inline" fill="#FCDD03" stroke="#FFFFFF" stroke-width="0.5" stroke-linecap="square" stroke-linejoin="bevel" d="
		M55.8,994.8l-2.9,1.7l-2.9-1.7v-3.3l2.9-1.7l2.9,1.7V994.8 M64.4,989.8l-2.9,1.7l-2.9-1.7v-3.3l2.9-1.7v-3.3l2.9-1.7l2.9,1.7v3.3l-2.9,1.7V989.8 M67.3,974.8l-2.9,1.7l-2.9-1.7l-2.9,1.7l-2.9-1.7v-3.3l2.9-1.7v-3.3l2.9-1.7l2.9,1.7v3.3l2.9,1.7V974.8 M75.9,979.8l-2.9,1.7l-2.9-1.7v-3.3l2.9-1.7v-3.3l2.9-1.7v-3.3l2.9-1.7v-3.3l2.9-1.7l2.9,1.7v3.3l-2.9,1.7v3.3l-2.9,1.7v3.3
		l-2.9,1.7V979.8"/>
	
		<!-- <path id="S14000005" vector-effect="none" display="inline" fill="#FCDD03" stroke="#FFFFFF" stroke-width="0.5" stroke-linecap="square" stroke-linejoin="bevel" d="
		"/>
	
		<path id="S14000005" vector-effect="none" display="inline" fill="#FCDD03" stroke="#FFFFFF" stroke-width="0.5" stroke-linecap="square" stroke-linejoin="bevel" d="
		"/>
	
		<path id="S14000005" vector-effect="none" display="inline" fill="#FCDD03" stroke="#FFFFFF" stroke-width="0.5" stroke-linecap="square" stroke-linejoin="bevel" d="
		"/> -->
	
		<path id="S14000008" vector-effect="none" display="inline" fill="#FCDD03" stroke="#FFFFFF" stroke-width="0.5" stroke-linecap="square" stroke-linejoin="bevel" d="
		M176.9,1064.7l-2.9,1.7l-2.9-1.7l-2.9,1.7v3.3l-2.9,1.7v3.3l-2.9,1.7l-2.9-1.7l-2.9,1.7l-2.9-1.7v-3.3l2.9-1.7v-3.3l2.9-1.7
		l2.9,1.7l2.9-1.7v-3.3l2.9-1.7v-3.3l2.9-1.7v-3.3l2.9-1.7v-3.3l2.9-1.7l2.9,1.7v3.3l-2.9,1.7v3.3l-2.9,1.7v3.3l2.9,1.7V1064.7"/>
	
		<path id="S14000009" vector-effect="none" display="inline" fill="#FCDD03" stroke="#FFFFFF" stroke-width="0.5" stroke-linecap="square" stroke-linejoin="bevel" d="
		M107.7,901.6v3.3l-2.9,1.7v3.3l-2.9,1.7v3.3l-2.9,1.7l-2.9-1.7v-3.3l-2.9-1.7v-3.3l-2.9-1.7v-3.3l-2.9-1.7v-3.3l2.9-1.7l2.9,1.7
		v3.3l2.9,1.7l2.9-1.7v-3.3l2.9-1.7v-3.3l2.9-1.7l2.9,1.7v3.3l2.9,1.7v3.3L107.7,901.6"/>
	
		<path id="S14000013" vector-effect="none" display="inline" fill="#FCDD03" stroke="#FFFFFF" stroke-width="0.5" stroke-linecap="square" stroke-linejoin="bevel" d="
		M136.5,1081.3v3.3l-2.9,1.7l-2.9-1.7l-2.9,1.7l-2.9-1.7l-2.9,1.7v3.3l-2.9,1.7l-2.9-1.7l-2.9,1.7l-2.9-1.7l-2.9,1.7l-2.9-1.7
		l-2.9,1.7v3.3l-2.9,1.7l-2.9-1.7v-3.3l2.9-1.7v-3.3l2.9-1.7l2.9,1.7l2.9-1.7l2.9,1.7l2.9-1.7v-3.3l2.9-1.7l2.9,1.7l2.9-1.7l2.9,1.7
		l2.9-1.7l2.9,1.7l2.9-1.7L136.5,1081.3"/>
	
		<path id="S14000014" vector-effect="none" display="inline" fill="#FCDD03" stroke="#FFFFFF" stroke-width="0.5" stroke-linecap="square" stroke-linejoin="bevel" d="
		M153.8,1074.7l2.9,1.7l2.9-1.7l2.9,1.7v3.3l-2.9,1.7l-2.9-1.7l-2.9,1.7l-2.9-1.7l-2.9,1.7l-2.9-1.7l-2.9,1.7l-2.9-1.7v-3.3l2.9-1.7
		v-3.3l2.9-1.7v-3.3l2.9-1.7v-3.3l2.9-1.7l2.9,1.7v3.3l2.9,1.7v3.3l-2.9,1.7V1074.7"/>
	
		<path id="S14000018" vector-effect="none" display="inline" fill="#FCDD03" stroke="#FFFFFF" stroke-width="0.5" stroke-linecap="square" stroke-linejoin="bevel" d="
		M107.7,974.8l2.9,1.7v3.3l2.9,1.7v3.3l2.9,1.7v3.3l2.9,1.7v3.3l-2.9,1.7l-2.9-1.7v-3.3l-2.9-1.7v-3.3l-2.9-1.7v-3.3l-2.9-1.7v-3.3
		l-2.9-1.7l-2.9,1.7v3.3l-2.9,1.7l-2.9-1.7v-3.3l2.9-1.7v-3.3l2.9-1.7v-3.3l2.9-1.7l2.9,1.7v3.3l2.9,1.7V974.8"/>
	
		<path id="S14000026" vector-effect="none" display="inline" fill="#FCDD03" stroke="#FFFFFF" stroke-width="0.5" stroke-linecap="square" stroke-linejoin="bevel" d="
		M148,1001.4v3.3l-2.9,1.7v3.3l2.9,1.7v3.3l-2.9,1.7v3.3l2.9,1.7v3.3l-2.9,1.7l-2.9-1.7v-3.3l-2.9-1.7v-3.3l-2.9-1.7v-3.3l-2.9-1.7
		v-3.3l-2.9-1.7v-3.3l2.9-1.7l2.9,1.7l2.9-1.7l2.9,1.7l2.9-1.7L148,1001.4"/>
	
		<path id="S14000037" vector-effect="none" display="inline" fill="#FCDD03" stroke="#FFFFFF" stroke-width="0.5" stroke-linecap="square" stroke-linejoin="bevel" d="
		M179.7,916.5v3.3l-2.9,1.7l-2.9-1.7l-2.9,1.7l-2.9-1.7l-2.9,1.7l-2.9-1.7l-2.9,1.7l-2.9-1.7l-2.9,1.7v3.3l-2.9,1.7v3.3l-2.9,1.7
		l-2.9-1.7l-2.9,1.7l-2.9-1.7v-3.3l2.9-1.7v-3.3l2.9-1.7l2.9,1.7l2.9-1.7v-3.3l2.9-1.7l2.9,1.7l2.9-1.7l2.9,1.7l2.9-1.7l2.9,1.7
		l2.9-1.7l2.9,1.7l2.9-1.7L179.7,916.5"/>
	
		<path id="S14000039" vector-effect="none" display="inline" fill="#FCDD03" stroke="#FFFFFF" stroke-width="0.5" stroke-linecap="square" stroke-linejoin="bevel" d="
		M113.4,921.5v3.3l2.9,1.7l2.9-1.7l2.9,1.7v3.3l-2.9,1.7l-2.9-1.7l-2.9,1.7v3.3l-2.9,1.7l-2.9-1.7l-2.9,1.7v3.3l-2.9,1.7l-2.9-1.7
		v-3.3l2.9-1.7v-3.3l-2.9-1.7v-3.3l2.9-1.7v-3.3l2.9-1.7l2.9,1.7l2.9-1.7L113.4,921.5"/>
	
		<path id="S14000049" vector-effect="none" display="inline" fill="#FCDD03" stroke="#FFFFFF" stroke-width="0.5" stroke-linecap="square" stroke-linejoin="bevel" d="
		M150.9,966.5v3.3l2.9,1.7l2.9-1.7l2.9,1.7v3.3l2.9,1.7l2.9-1.7l2.9,1.7v3.3l2.9,1.7l2.9-1.7l2.9,1.7v3.3l-2.9,1.7l-2.9-1.7
		l-2.9,1.7l-2.9-1.7v-3.3l-2.9-1.7l-2.9,1.7l-2.9-1.7v-3.3l-2.9-1.7l-2.9,1.7l-2.9-1.7v-3.3l-2.9-1.7l-2.9,1.7l-2.9-1.7v-3.3
		l2.9-1.7l2.9,1.7l2.9-1.7L150.9,966.5"/>
	
		<path id="S14000051" vector-effect="none" display="inline" fill="#FCDD03" stroke="#FFFFFF" stroke-width="0.5" stroke-linecap="square" stroke-linejoin="bevel" d="
		M119.2,884.9l-2.9,1.7l-2.9-1.7v-3.3l2.9-1.7l2.9,1.7V884.9 M125,874.9l2.9,1.7v3.3l-2.9,1.7l-2.9-1.7v-3.3l-2.9-1.7l-2.9,1.7l-2.9-1.7v-3.3l2.9-1.7v-3.3l2.9-1.7l2.9,1.7v3.3l2.9,1.7V874.9 M168.2,816.6v3.3l-2.9,1.7l-2.9-1.7l-2.9,1.7l-2.9-1.7v-3.3l2.9-1.7l2.9,1.7l2.9-1.7v-3.3l-2.9-1.7v-3.3l2.9-1.7v-3.3l2.9-1.7
		l2.9,1.7v3.3l-2.9,1.7v3.3l2.9,1.7v3.3L168.2,816.6"/>
	
		<!-- <path id="S14000051" vector-effect="none" display="inline" fill="#FCDD03" stroke="#FFFFFF" stroke-width="0.5" stroke-linecap="square" stroke-linejoin="bevel" d="
		"
		/> -->
	
		<!-- <path id="S14000051" vector-effect="none" display="inline" fill="#FCDD03" stroke="#FFFFFF" stroke-width="0.5" stroke-linecap="square" stroke-linejoin="bevel" d="
		"/> -->
	
		<path id="S14000055" vector-effect="none" display="inline" fill="#FCDD03" stroke="#FFFFFF" stroke-width="0.5" stroke-linecap="square" stroke-linejoin="bevel" d="
		M78.8,921.5v3.3l-2.9,1.7v3.3l-2.9,1.7l-2.9-1.7v-3.3l-2.9-1.7v-3.3l2.9-1.7l2.9,1.7l2.9-1.7L78.8,921.5 M104.8,916.5v3.3l-2.9,1.7v3.3l-2.9,1.7v3.3l2.9,1.7v3.3l-2.9,1.7v3.3l-2.9,1.7l-2.9-1.7v-3.3l2.9-1.7v-3.3l-2.9-1.7v-3.3l-2.9-1.7
		v-3.3l2.9-1.7v-3.3l2.9-1.7l2.9,1.7l2.9-1.7L104.8,916.5"/>
	
		<!-- <path id="S14000055" vector-effect="none" display="inline" fill="#FCDD03" stroke="#FFFFFF" stroke-width="0.5" stroke-linecap="square" stroke-linejoin="bevel" d="
		"/> -->
	
		<path id="S14000058" vector-effect="none" display="inline" fill="#FCDD03" stroke="#FFFFFF" stroke-width="0.5" stroke-linecap="square" stroke-linejoin="bevel" d="
		M159.6,931.5v3.3l-2.9,1.7l-2.9-1.7l-2.9,1.7v3.3l-2.9,1.7l-2.9-1.7v-3.3l-2.9-1.7l-2.9,1.7l-2.9-1.7l-2.9,1.7l-2.9-1.7l-2.9,1.7
		l-2.9-1.7l-2.9,1.7l-2.9-1.7l-2.9,1.7l-2.9-1.7v-3.3l2.9-1.7l2.9,1.7l2.9-1.7l2.9,1.7l2.9-1.7l2.9,1.7l2.9-1.7l2.9,1.7l2.9-1.7
		l2.9,1.7l2.9-1.7l2.9,1.7l2.9-1.7l2.9,1.7l2.9-1.7L159.6,931.5"/>
	
		<path id="W07000067" vector-effect="none" display="inline" fill="#868686" stroke="#FFFFFF" stroke-width="0.5" stroke-linecap="square" stroke-linejoin="bevel" d="
		M110.5,1376v3.3l-2.9,1.7v3.3l2.9,1.7v3.3l-2.9,1.7v3.3l-2.9,1.7l-2.9-1.7L99,1396l-2.9-1.7l-2.9,1.7l-2.9-1.7v-3.3l2.9-1.7v-3.3
		l2.9-1.7v-3.3l2.9-1.7v-3.3l2.9-1.7l2.9,1.7l2.9-1.7L110.5,1376"/>
	
		<path id="E14000884" vector-effect="none" display="inline" fill="#FFB900" stroke="#FFFFFF" stroke-width="0.5" stroke-linecap="square" stroke-linejoin="bevel" d="
		M274.9,1560.8v3.3l2.9,1.7v3.3l2.9,1.7v3.3l-2.9,1.7l-2.9-1.7l-2.9,1.7l-2.9-1.7l-2.9,1.7l-2.9-1.7v-3.3l-2.9-1.7v-3.3l2.9-1.7
		v-3.3l2.9-1.7l2.9,1.7l2.9-1.7L274.9,1560.8"/>
</g>
<g id="con">
	
		<path id="E14000553" vector-effect="none" fill="#FFB900" stroke="#FFFFFF" stroke-width="0.5" stroke-linecap="square" stroke-linejoin="bevel" d="
		M367.2,1450.9v3.3l2.9,1.7l2.9-1.7l2.9,1.7v3.3l2.9,1.7v3.3l-2.9,1.7l-2.9-1.7l-2.9,1.7l-2.9-1.7l-2.9,1.7l-2.9-1.7v-3.3l-2.9-1.7
		v-3.3l-2.9-1.7v-3.3l2.9-1.7l2.9,1.7l2.9-1.7L367.2,1450.9"/>
	
		<path id="E14000563" vector-effect="none" fill="#FFB900" stroke="#FFFFFF" stroke-width="0.5" stroke-linecap="square" stroke-linejoin="bevel" d="
		M246.1,1351v3.3l-2.9,1.7l-2.9-1.7l-2.9,1.7v3.3l-2.9,1.7v3.3l-2.9,1.7l-2.9-1.7l-2.9,1.7l-2.9-1.7v-3.3l2.9-1.7v-3.3l-2.9-1.7
		v-3.3l2.9-1.7l2.9,1.7l2.9-1.7l2.9,1.7l2.9-1.7l2.9,1.7l2.9-1.7L246.1,1351"/>
	
		<path id="E14000568" vector-effect="none" fill="#FFB900" stroke="#FFFFFF" stroke-width="0.5" stroke-linecap="square" stroke-linejoin="bevel" d="
		M243.2,1366v3.3l-2.9,1.7l-2.9-1.7l-2.9,1.7v3.3l-2.9,1.7l-2.9-1.7l-2.9,1.7l-2.9-1.7v-3.3l-2.9-1.7v-3.3l2.9-1.7l2.9,1.7l2.9-1.7
		l2.9,1.7l2.9-1.7v-3.3l2.9-1.7v-3.3l2.9-1.7l2.9,1.7v3.3l2.9,1.7v3.3L243.2,1366"/>
	
		<path id="E14000574" vector-effect="none" fill="#FFB900" stroke="#FFFFFF" stroke-width="0.5" stroke-linecap="square" stroke-linejoin="bevel" d="
		M188.4,1091.3v3.3l2.9,1.7l2.9-1.7l2.9,1.7l2.9-1.7l2.9,1.7v3.3l2.9,1.7l2.9-1.7l2.9,1.7v3.3l-2.9,1.7l-2.9-1.7l-2.9,1.7l-2.9-1.7
		l-2.9,1.7l-2.9-1.7v-3.3l-2.9-1.7l-2.9,1.7l-2.9-1.7l-2.9,1.7l-2.9-1.7v-3.3l-2.9-1.7v-3.3l2.9-1.7l2.9,1.7l2.9-1.7L188.4,1091.3"
		/>
	
		<path id="E14000587" vector-effect="none" fill="#FFB900" stroke="#FFFFFF" stroke-width="0.5" stroke-linecap="square" stroke-linejoin="bevel" d="
		M237.4,1179.6l-2.9,1.7l-2.9-1.7v-3.3l-2.9-1.7v-3.3l-2.9-1.7v-3.3l-2.9-1.7v-3.3l2.9-1.7v-3.3l2.9-1.7l2.9,1.7v3.3l2.9,1.7v3.3
		l2.9,1.7v3.3l2.9,1.7v3.3l-2.9,1.7V1179.6"/>
	
		<path id="E14000591" vector-effect="none" fill="#FFB900" stroke="#FFFFFF" stroke-width="0.5" stroke-linecap="square" stroke-linejoin="bevel" d="
		M326.8,1421v3.3l-2.9,1.7v3.3l2.9,1.7v3.3l-2.9,1.7v3.3l-2.9,1.7l-2.9-1.7l-2.9,1.7l-2.9-1.7l-2.9,1.7l-2.9-1.7v-3.3l2.9-1.7v-3.3
		l2.9-1.7v-3.3l2.9-1.7v-3.3l2.9-1.7l2.9,1.7l2.9-1.7L326.8,1421"/>
	
		<path id="E14000602" vector-effect="none" fill="#FFB900" stroke="#FFFFFF" stroke-width="0.5" stroke-linecap="square" stroke-linejoin="bevel" d="
		M162.4,1465.9v3.3l2.9,1.7v3.3l2.9,1.7v3.3l-2.9,1.7l-2.9-1.7l-2.9,1.7l-2.9-1.7v-3.3l-2.9-1.7l-2.9,1.7l-2.9-1.7v-3.3l2.9-1.7
		v-3.3l2.9-1.7l2.9,1.7l2.9-1.7v-3.3l2.9-1.7l2.9,1.7v3.3L162.4,1465.9"/>
	
		<path id="E14000617" vector-effect="none" fill="#FFB900" stroke="#FFFFFF" stroke-width="0.5" stroke-linecap="square" stroke-linejoin="bevel" d="
		M384.5,1334.4l2.9,1.7l2.9-1.7l2.9,1.7v3.3l-2.9,1.7v3.3l2.9,1.7v3.3l-2.9,1.7l-2.9-1.7l-2.9,1.7l-2.9-1.7v-3.3l-2.9-1.7v-3.3
		l-2.9-1.7v-3.3l2.9-1.7v-3.3l2.9-1.7l2.9,1.7V1334.4"/>
	
		<path id="E14000632" vector-effect="none" fill="#FFB900" stroke="#FFFFFF" stroke-width="0.5" stroke-linecap="square" stroke-linejoin="bevel" d="
		M283.6,1266.1v3.3l-2.9,1.7v3.3l-2.9,1.7l-2.9-1.7l-2.9,1.7v3.3l-2.9,1.7l-2.9-1.7l-2.9,1.7l-2.9-1.7l-2.9,1.7l-2.9-1.7l-2.9,1.7
		l-2.9-1.7l-2.9,1.7l-2.9-1.7v-3.3l2.9-1.7l2.9,1.7l2.9-1.7l2.9,1.7l2.9-1.7l2.9,1.7l2.9-1.7v-3.3l2.9-1.7l2.9,1.7l2.9-1.7v-3.3
		l2.9-1.7l2.9,1.7l2.9-1.7L283.6,1266.1"/>
	
		<path id="E14000641" vector-effect="none" fill="#FFB900" stroke="#FFFFFF" stroke-width="0.5" stroke-linecap="square" stroke-linejoin="bevel" d="
		M205.7,1111.3v3.3l2.9,1.7l2.9-1.7l2.9,1.7l2.9-1.7l2.9,1.7l2.9-1.7l2.9,1.7l2.9-1.7l2.9,1.7l2.9-1.7l2.9,1.7v3.3l-2.9,1.7
		l-2.9-1.7l-2.9,1.7l-2.9-1.7l-2.9,1.7l-2.9-1.7l-2.9,1.7l-2.9-1.7l-2.9,1.7l-2.9-1.7l-2.9,1.7l-2.9-1.7l-2.9,1.7l-2.9-1.7v-3.3
		l-2.9-1.7v-3.3l2.9-1.7l2.9,1.7l2.9-1.7L205.7,1111.3"/>
	
		<path id="E14000752" vector-effect="none" fill="#FFB900" stroke="#FFFFFF" stroke-width="0.5" stroke-linecap="square" stroke-linejoin="bevel" d="
		M355.6,1401v3.3l2.9,1.7v3.3l2.9,1.7v3.3l-2.9,1.7l-2.9-1.7l-2.9,1.7l-2.9-1.7l-2.9,1.7l-2.9-1.7l-2.9,1.7l-2.9-1.7v-3.3l2.9-1.7
		v-3.3l2.9-1.7v-3.3l2.9-1.7l2.9,1.7l2.9-1.7L355.6,1401"/>
	
		<path id="E14000764" vector-effect="none" fill="#FFB900" stroke="#FFFFFF" stroke-width="0.5" stroke-linecap="square" stroke-linejoin="bevel" d="
		M367.2,1430.9v3.3l2.9,1.7v3.3l-2.9,1.7v3.3l-2.9,1.7l-2.9-1.7l-2.9,1.7l-2.9-1.7v-3.3l-2.9-1.7v-3.3l-2.9-1.7v-3.3l2.9-1.7
		l2.9,1.7l2.9-1.7l2.9,1.7l2.9-1.7L367.2,1430.9"/>
	
		<path id="E14000772" vector-effect="none" fill="#FFB900" stroke="#FFFFFF" stroke-width="0.5" stroke-linecap="square" stroke-linejoin="bevel" d="
		M335.4,1196.2v3.3l2.9,1.7l2.9-1.7l2.9,1.7v3.3l-2.9,1.7v3.3l-2.9,1.7l-2.9-1.7l-2.9,1.7l-2.9-1.7l-2.9,1.7l-2.9-1.7v-3.3l2.9-1.7
		v-3.3l-2.9-1.7v-3.3l2.9-1.7l2.9,1.7l2.9-1.7L335.4,1196.2"/>
	
		<path id="E14000780" vector-effect="none" fill="#FFB900" stroke="#FFFFFF" stroke-width="0.5" stroke-linecap="square" stroke-linejoin="bevel" d="
		M231.6,1146.3v3.3l2.9,1.7l2.9-1.7l2.9,1.7v3.3l2.9,1.7l2.9-1.7l2.9,1.7v3.3l2.9,1.7v3.3l2.9,1.7v3.3l-2.9,1.7l-2.9-1.7v-3.3
		l-2.9-1.7v-3.3l-2.9-1.7l-2.9,1.7l-2.9-1.7l-2.9,1.7l-2.9-1.7v-3.3l-2.9-1.7v-3.3l-2.9-1.7l-2.9,1.7l-2.9-1.7v-3.3l2.9-1.7l2.9,1.7
		l2.9-1.7L231.6,1146.3"/>
	
		<path id="E14000795" vector-effect="none" fill="#FFB900" stroke="#FFFFFF" stroke-width="0.5" stroke-linecap="square" stroke-linejoin="bevel" d="
		M148,1261.1v3.3l-2.9,1.7l-2.9-1.7l-2.9,1.7v3.3l-2.9,1.7v3.3l-2.9,1.7l-2.9-1.7v-3.3l-2.9-1.7v-3.3l2.9-1.7v-3.3l-2.9-1.7v-3.3
		l2.9-1.7l2.9,1.7v3.3l2.9,1.7l2.9-1.7v-3.3l2.9-1.7l2.9,1.7v3.3L148,1261.1"/>
	
		<path id="E14000808" vector-effect="none" fill="#FFB900" stroke="#FFFFFF" stroke-width="0.5" stroke-linecap="square" stroke-linejoin="bevel" d="
		M217.2,1241.2v3.3l-2.9,1.7v3.3l-2.9,1.7v3.3l-2.9,1.7l-2.9-1.7v-3.3l-2.9-1.7l-2.9,1.7l-2.9-1.7l-2.9,1.7l-2.9-1.7v-3.3l2.9-1.7
		l2.9,1.7l2.9-1.7v-3.3l2.9-1.7l2.9,1.7l2.9-1.7l2.9,1.7l2.9-1.7L217.2,1241.2"/>
	
		<path id="E14000809" vector-effect="none" fill="#FFB900" stroke="#FFFFFF" stroke-width="0.5" stroke-linecap="square" stroke-linejoin="bevel" d="
		M205.7,1251.1v3.3l-2.9,1.7v3.3l2.9,1.7v3.3l-2.9,1.7v3.3l-2.9,1.7l-2.9-1.7v-3.3l-2.9-1.7v-3.3l-2.9-1.7l-2.9,1.7l-2.9-1.7v-3.3
		l2.9-1.7v-3.3l2.9-1.7l2.9,1.7l2.9-1.7l2.9,1.7l2.9-1.7L205.7,1251.1"/>
	
		<path id="E14000832" vector-effect="none" fill="#FFB900" stroke="#FFFFFF" stroke-width="0.5" stroke-linecap="square" stroke-linejoin="bevel" d="
		M202.8,1079.7l2.9,1.7l2.9-1.7l2.9,1.7l2.9-1.7l2.9,1.7v3.3l2.9,1.7l2.9-1.7l2.9,1.7v3.3l-2.9,1.7l-2.9-1.7l-2.9,1.7l-2.9-1.7
		l-2.9,1.7l-2.9-1.7l-2.9,1.7l-2.9-1.7v-3.3l-2.9-1.7v-3.3l-2.9-1.7v-3.3l2.9-1.7l2.9,1.7V1079.7"/>
	
		<path id="E14000833" vector-effect="none" fill="#FFB900" stroke="#FFFFFF" stroke-width="0.5" stroke-linecap="square" stroke-linejoin="bevel" d="
		M199.9,1071.4v3.3l-2.9,1.7v3.3l-2.9,1.7l-2.9-1.7l-2.9,1.7l-2.9-1.7l-2.9,1.7l-2.9-1.7l-2.9,1.7v3.3l2.9,1.7v3.3l-2.9,1.7
		l-2.9-1.7v-3.3l-2.9-1.7v-3.3l2.9-1.7v-3.3l2.9-1.7v-3.3l2.9-1.7l2.9,1.7l2.9-1.7l2.9,1.7l2.9-1.7l2.9,1.7l2.9-1.7L199.9,1071.4"/>
	
		<path id="E14000873" vector-effect="none" fill="#FFB900" stroke="#FFFFFF" stroke-width="0.5" stroke-linecap="square" stroke-linejoin="bevel" d="
		M243.2,1416v3.3l2.9,1.7v3.3l-2.9,1.7v3.3l-2.9,1.7l-2.9-1.7l-2.9,1.7l-2.9-1.7v-3.3l-2.9-1.7v-3.3l2.9-1.7v-3.3l-2.9-1.7v-3.3
		l2.9-1.7l2.9,1.7v3.3l2.9,1.7l2.9-1.7v-3.3l2.9-1.7l2.9,1.7v3.3L243.2,1416"/>
	
		<path id="E14000897" vector-effect="none" fill="#FFB900" stroke="#FFFFFF" stroke-width="0.5" stroke-linecap="square" stroke-linejoin="bevel" d="
		M214.3,1199.5l2.9,1.7l2.9-1.7l2.9,1.7v3.3l-2.9,1.7l-2.9-1.7l-2.9,1.7l-2.9-1.7v-3.3l-2.9-1.7l-2.9,1.7l-2.9-1.7v-3.3l-2.9-1.7
		v-3.3l-2.9-1.7v-3.3l2.9-1.7v-3.3l2.9-1.7l2.9,1.7v3.3l2.9,1.7v3.3l2.9,1.7v3.3l2.9,1.7V1199.5"/>
	
		<path id="E14000904" vector-effect="none" fill="#7D0069" stroke="#FFFFFF" stroke-width="0.5" stroke-linecap="square" stroke-linejoin="bevel" d="
		M295.1,1236.2v3.3l2.9,1.7v3.3l2.9,1.7v3.3l2.9,1.7v3.3l-2.9,1.7l-2.9-1.7l-2.9,1.7l-2.9-1.7v-3.3l-2.9-1.7v-3.3l-2.9-1.7v-3.3
		l-2.9-1.7l-2.9,1.7l-2.9-1.7v-3.3l2.9-1.7l2.9,1.7l2.9-1.7l2.9,1.7l2.9-1.7L295.1,1236.2"/>
	
		<path id="E14000919" vector-effect="none" fill="#FFB900" stroke="#FFFFFF" stroke-width="0.5" stroke-linecap="square" stroke-linejoin="bevel" d="
		M272,1246.2v3.3l2.9,1.7l2.9-1.7l2.9,1.7l2.9-1.7l2.9,1.7v3.3l-2.9,1.7l-2.9-1.7l-2.9,1.7l-2.9-1.7l-2.9,1.7l-2.9-1.7l-2.9,1.7
		l-2.9-1.7l-2.9,1.7l-2.9-1.7l-2.9,1.7l-2.9-1.7v-3.3l2.9-1.7v-3.3l2.9-1.7l2.9,1.7l2.9-1.7l2.9,1.7l2.9-1.7L272,1246.2"/>
	
		<path id="E14000922" vector-effect="none" fill="#FFB900" stroke="#FFFFFF" stroke-width="0.5" stroke-linecap="square" stroke-linejoin="bevel" d="
		M260.5,1256.1v3.3l-2.9,1.7v3.3l2.9,1.7v3.3l-2.9,1.7l-2.9-1.7l-2.9,1.7l-2.9-1.7l-2.9,1.7l-2.9-1.7v-3.3l-2.9-1.7v-3.3l2.9-1.7
		v-3.3l2.9-1.7l2.9,1.7l2.9-1.7l2.9,1.7l2.9-1.7L260.5,1256.1"/>
	
		<path id="E14000978" vector-effect="none" fill="#FFB900" stroke="#FFFFFF" stroke-width="0.5" stroke-linecap="square" stroke-linejoin="bevel" d="
		M355.6,1480.9v3.3l2.9,1.7v3.3l2.9,1.7v3.3l2.9,1.7v3.3l-2.9,1.7l-2.9-1.7l-2.9,1.7l-2.9-1.7v-3.3l-2.9-1.7v-3.3l-2.9-1.7l-2.9,1.7
		l-2.9-1.7v-3.3l2.9-1.7v-3.3l2.9-1.7l2.9,1.7l2.9-1.7L355.6,1480.9"/>
	
		<path id="E14001013" vector-effect="none" fill="#FFB900" stroke="#FFFFFF" stroke-width="0.5" stroke-linecap="square" stroke-linejoin="bevel" d="
		M387.4,1396v3.3l2.9,1.7v3.3l-2.9,1.7v3.3l-2.9,1.7v3.3l-2.9,1.7l-2.9-1.7v-3.3l-2.9-1.7v-3.3l-2.9-1.7v-3.3l2.9-1.7v-3.3l2.9-1.7
		l2.9,1.7l2.9-1.7L387.4,1396"/>
	
		<path id="S14000005" vector-effect="none" fill="#FFB900" stroke="#FFFFFF" stroke-width="0.5" stroke-linecap="square" stroke-linejoin="bevel" d="
		M55.8,994.8l-2.9,1.7l-2.9-1.7v-3.3l2.9-1.7l2.9,1.7V994.8"/>
	
		<path id="S14000005" vector-effect="none" fill="#FFB900" stroke="#FFFFFF" stroke-width="0.5" stroke-linecap="square" stroke-linejoin="bevel" d="
		M64.4,989.8l-2.9,1.7l-2.9-1.7v-3.3l2.9-1.7v-3.3l2.9-1.7l2.9,1.7v3.3l-2.9,1.7V989.8"/>
	
		<path id="S14000005" vector-effect="none" fill="#FFB900" stroke="#FFFFFF" stroke-width="0.5" stroke-linecap="square" stroke-linejoin="bevel" d="
		M67.3,974.8l-2.9,1.7l-2.9-1.7l-2.9,1.7l-2.9-1.7v-3.3l2.9-1.7v-3.3l2.9-1.7l2.9,1.7v3.3l2.9,1.7V974.8"/>
	
		<path id="S14000005" vector-effect="none" fill="#FFB900" stroke="#FFFFFF" stroke-width="0.5" stroke-linecap="square" stroke-linejoin="bevel" d="
		M75.9,979.8l-2.9,1.7l-2.9-1.7v-3.3l2.9-1.7v-3.3l2.9-1.7v-3.3l2.9-1.7v-3.3l2.9-1.7l2.9,1.7v3.3l-2.9,1.7v3.3l-2.9,1.7v3.3
		l-2.9,1.7V979.8"/>
	
		<path id="S14000009" vector-effect="none" fill="#FFB900" stroke="#FFFFFF" stroke-width="0.5" stroke-linecap="square" stroke-linejoin="bevel" d="
		M107.7,901.6v3.3l-2.9,1.7v3.3l-2.9,1.7v3.3l-2.9,1.7l-2.9-1.7v-3.3l-2.9-1.7v-3.3l-2.9-1.7v-3.3l-2.9-1.7v-3.3l2.9-1.7l2.9,1.7
		v3.3l2.9,1.7l2.9-1.7v-3.3l2.9-1.7v-3.3l2.9-1.7l2.9,1.7v3.3l2.9,1.7v3.3L107.7,901.6"/>
	
		<path id="S14000018" vector-effect="none" fill="#FFB900" stroke="#FFFFFF" stroke-width="0.5" stroke-linecap="square" stroke-linejoin="bevel" d="
		M107.7,974.8l2.9,1.7v3.3l2.9,1.7v3.3l2.9,1.7v3.3l2.9,1.7v3.3l-2.9,1.7l-2.9-1.7v-3.3l-2.9-1.7v-3.3l-2.9-1.7v-3.3l-2.9-1.7v-3.3
		l-2.9-1.7l-2.9,1.7v3.3l-2.9,1.7l-2.9-1.7v-3.3l2.9-1.7v-3.3l2.9-1.7v-3.3l2.9-1.7l2.9,1.7v3.3l2.9,1.7V974.8"/>
	
		<path id="S14000026" vector-effect="none" fill="#FFB900" stroke="#FFFFFF" stroke-width="0.5" stroke-linecap="square" stroke-linejoin="bevel" d="
		M148,1001.4v3.3l-2.9,1.7v3.3l2.9,1.7v3.3l-2.9,1.7v3.3l2.9,1.7v3.3l-2.9,1.7l-2.9-1.7v-3.3l-2.9-1.7v-3.3l-2.9-1.7v-3.3l-2.9-1.7
		v-3.3l-2.9-1.7v-3.3l2.9-1.7l2.9,1.7l2.9-1.7l2.9,1.7l2.9-1.7L148,1001.4"/>
	
		<path id="S14000037" vector-effect="none" fill="#FFB900" stroke="#FFFFFF" stroke-width="0.5" stroke-linecap="square" stroke-linejoin="bevel" d="
		M179.7,916.5v3.3l-2.9,1.7l-2.9-1.7l-2.9,1.7l-2.9-1.7l-2.9,1.7l-2.9-1.7l-2.9,1.7l-2.9-1.7l-2.9,1.7v3.3l-2.9,1.7v3.3l-2.9,1.7
		l-2.9-1.7l-2.9,1.7l-2.9-1.7v-3.3l2.9-1.7v-3.3l2.9-1.7l2.9,1.7l2.9-1.7v-3.3l2.9-1.7l2.9,1.7l2.9-1.7l2.9,1.7l2.9-1.7l2.9,1.7
		l2.9-1.7l2.9,1.7l2.9-1.7L179.7,916.5"/>
	
		<path id="S14000039" vector-effect="none" fill="#FFB900" stroke="#FFFFFF" stroke-width="0.5" stroke-linecap="square" stroke-linejoin="bevel" d="
		M113.4,921.5v3.3l2.9,1.7l2.9-1.7l2.9,1.7v3.3l-2.9,1.7l-2.9-1.7l-2.9,1.7v3.3l-2.9,1.7l-2.9-1.7l-2.9,1.7v3.3l-2.9,1.7l-2.9-1.7
		v-3.3l2.9-1.7v-3.3l-2.9-1.7v-3.3l2.9-1.7v-3.3l2.9-1.7l2.9,1.7l2.9-1.7L113.4,921.5"/>
	
		<path id="S14000049" vector-effect="none" fill="#FFB900" stroke="#FFFFFF" stroke-width="0.5" stroke-linecap="square" stroke-linejoin="bevel" d="
		M150.9,966.5v3.3l2.9,1.7l2.9-1.7l2.9,1.7v3.3l2.9,1.7l2.9-1.7l2.9,1.7v3.3l2.9,1.7l2.9-1.7l2.9,1.7v3.3l-2.9,1.7l-2.9-1.7
		l-2.9,1.7l-2.9-1.7v-3.3l-2.9-1.7l-2.9,1.7l-2.9-1.7v-3.3l-2.9-1.7l-2.9,1.7l-2.9-1.7v-3.3l-2.9-1.7l-2.9,1.7l-2.9-1.7v-3.3
		l2.9-1.7l2.9,1.7l2.9-1.7L150.9,966.5"/>
	
		<path id="S14000051" vector-effect="none" fill="#FFB900" stroke="#FFFFFF" stroke-width="0.5" stroke-linecap="square" stroke-linejoin="bevel" d="
		M119.2,884.9l-2.9,1.7l-2.9-1.7v-3.3l2.9-1.7l2.9,1.7V884.9 M125,874.9l2.9,1.7v3.3l-2.9,1.7l-2.9-1.7v-3.3l-2.9-1.7l-2.9,1.7l-2.9-1.7v-3.3l2.9-1.7v-3.3l2.9-1.7l2.9,1.7v3.3l2.9,1.7V874.9 M168.2,816.6v3.3l-2.9,1.7l-2.9-1.7l-2.9,1.7l-2.9-1.7v-3.3l2.9-1.7l2.9,1.7l2.9-1.7v-3.3l-2.9-1.7v-3.3l2.9-1.7v-3.3l2.9-1.7
		l2.9,1.7v3.3l-2.9,1.7v3.3l2.9,1.7v3.3L168.2,816.6"/>
	
		<!-- <path id="S14000051" vector-effect="none" fill="#FFB900" stroke="#FFFFFF" stroke-width="0.5" stroke-linecap="square" stroke-linejoin="bevel" d="
		M125,874.9l2.9,1.7v3.3l-2.9,1.7l-2.9-1.7v-3.3l-2.9-1.7l-2.9,1.7l-2.9-1.7v-3.3l2.9-1.7v-3.3l2.9-1.7l2.9,1.7v3.3l2.9,1.7V874.9"
		/>
	
		<path id="S14000051" vector-effect="none" fill="#FFB900" stroke="#FFFFFF" stroke-width="0.5" stroke-linecap="square" stroke-linejoin="bevel" d="
		M168.2,816.6v3.3l-2.9,1.7l-2.9-1.7l-2.9,1.7l-2.9-1.7v-3.3l2.9-1.7l2.9,1.7l2.9-1.7v-3.3l-2.9-1.7v-3.3l2.9-1.7v-3.3l2.9-1.7
		l2.9,1.7v3.3l-2.9,1.7v3.3l2.9,1.7v3.3L168.2,816.6"/> -->
	
		<path id="S14000055" vector-effect="none" fill="#FFB900" stroke="#FFFFFF" stroke-width="0.5" stroke-linecap="square" stroke-linejoin="bevel" d="
		M78.8,921.5v3.3l-2.9,1.7v3.3l-2.9,1.7l-2.9-1.7v-3.3l-2.9-1.7v-3.3l2.9-1.7l2.9,1.7l2.9-1.7L78.8,921.5 M104.8,916.5v3.3l-2.9,1.7v3.3l-2.9,1.7v3.3l2.9,1.7v3.3l-2.9,1.7v3.3l-2.9,1.7l-2.9-1.7v-3.3l2.9-1.7v-3.3l-2.9-1.7v-3.3l-2.9-1.7
		v-3.3l2.9-1.7v-3.3l2.9-1.7l2.9,1.7l2.9-1.7L104.8,916.5"/>
	
		<!-- <path id="S14000055" vector-effect="none" fill="#FFB900" stroke="#FFFFFF" stroke-width="0.5" stroke-linecap="square" stroke-linejoin="bevel" d="
		"/> -->
	
		<path id="W07000041" vector-effect="none" fill="#FFB900" stroke="#FFFFFF" stroke-width="0.5" stroke-linecap="square" stroke-linejoin="bevel" d="
		M76,1289.2l-2.9,1.7l-2.9-1.7l-2.9,1.7l-2.9-1.7v-3.3l2.9-1.7v-3.3l-2.9-1.7v-3.3l-2.9-1.7v-3.3l2.9-1.7v-3.3l2.9-1.7l2.9,1.7v3.3
		l2.9,1.7v3.3l2.9,1.7v3.3l2.9,1.7v3.3l-2.9,1.7V1289.2"/>
	
		<path id="W07000045" vector-effect="none" fill="#FFB900" stroke="#FFFFFF" stroke-width="0.5" stroke-linecap="square" stroke-linejoin="bevel" d="
		M81.7,1406v3.3l-2.9,1.7v3.3l-2.9,1.7v3.3l-2.9,1.7v3.3l-2.9,1.7l-2.9-1.7v-3.3l-2.9-1.7v-3.3l2.9-1.7v-3.3l2.9-1.7v-3.3l2.9-1.7
		l2.9,1.7l2.9-1.7v-3.3l2.9-1.7l2.9,1.7v3.3L81.7,1406"/>
	
		<path id="W07000047" vector-effect="none" fill="#FFB900" stroke="#FFFFFF" stroke-width="0.5" stroke-linecap="square" stroke-linejoin="bevel" d="
		M81.7,1449.3l-2.9,1.7l-2.9-1.7v-3.3l-2.9-1.7v-3.3l-2.9-1.7v-3.3l2.9-1.7v-3.3l2.9-1.7v-3.3l2.9-1.7l2.9,1.7v3.3l2.9,1.7v3.3
		l2.9,1.7v3.3l-2.9,1.7v3.3l-2.9,1.7L81.7,1449.3"/>
	
		<path id="W07000050" vector-effect="none" fill="#FFB900" stroke="#FFFFFF" stroke-width="0.5" stroke-linecap="square" stroke-linejoin="bevel" d="
		M130.7,1460.9v3.3l2.9,1.7v3.3l-2.9,1.7v3.3l-2.9,1.7v3.3l-2.9,1.7l-2.9-1.7v-3.3l-2.9-1.7v-3.3l-2.9-1.7v-3.3l2.9-1.7v-3.3
		l2.9-1.7l2.9,1.7l2.9-1.7L130.7,1460.9"/>
	
		<path id="W07000052" vector-effect="none" fill="#FFB900" stroke="#FFFFFF" stroke-width="0.5" stroke-linecap="square" stroke-linejoin="bevel" d="
		M107.7,1434.3l-2.9,1.7l-2.9-1.7v-3.3l-2.9-1.7v-3.3l-2.9-1.7v-3.3l-2.9-1.7v-3.3l2.9-1.7v-3.3l2.9-1.7l2.9,1.7v3.3l2.9,1.7v3.3
		l2.9,1.7v3.3l2.9,1.7v3.3l-2.9,1.7V1434.3"/>
	
		<path id="W07000055" vector-effect="none" fill="#FFB900" stroke="#FFFFFF" stroke-width="0.5" stroke-linecap="square" stroke-linejoin="bevel" d="
		M153.8,1454.2l-2.9,1.7l-2.9-1.7l-2.9,1.7v3.3l-2.9,1.7l-2.9-1.7v-3.3l2.9-1.7v-3.3l2.9-1.7v-3.3l-2.9-1.7v-3.3l2.9-1.7v-3.3
		l-2.9-1.7v-3.3l2.9-1.7l2.9,1.7v3.3l2.9,1.7v3.3l2.9,1.7v3.3l2.9,1.7v3.3l-2.9,1.7V1454.2"/>
	
		<path id="W07000057" vector-effect="none" fill="#FFB900" stroke="#FFFFFF" stroke-width="0.5" stroke-linecap="square" stroke-linejoin="bevel" d="
		M87.5,1296.1v3.3l-2.9,1.7v3.3l-2.9,1.7v3.3l-2.9,1.7v3.3l2.9,1.7v3.3l-2.9,1.7l-2.9-1.7v-3.3l-2.9-1.7v-3.3l-2.9-1.7v-3.3l2.9-1.7
		v-3.3l-2.9-1.7v-3.3l2.9-1.7l2.9,1.7l2.9-1.7l2.9,1.7l2.9-1.7L87.5,1296.1"/>
	
		<path id="W07000067" vector-effect="none" fill="#FFB900" stroke="#FFFFFF" stroke-width="0.5" stroke-linecap="square" stroke-linejoin="bevel" d="
		M110.5,1376v3.3l-2.9,1.7v3.3l2.9,1.7v3.3l-2.9,1.7v3.3l-2.9,1.7l-2.9-1.7L99,1396l-2.9-1.7l-2.9,1.7l-2.9-1.7v-3.3l2.9-1.7v-3.3
		l2.9-1.7v-3.3l2.9-1.7v-3.3l2.9-1.7l2.9,1.7l2.9-1.7L110.5,1376"/>
	
		<path id="W07000069" vector-effect="none" fill="#FFB900" stroke="#FFFFFF" stroke-width="0.5" stroke-linecap="square" stroke-linejoin="bevel" d="
		M99,1396v3.3l-2.9,1.7v3.3l2.9,1.7v3.3l-2.9,1.7v3.3l-2.9,1.7v3.3l2.9,1.7v3.3l-2.9,1.7l-2.9-1.7v-3.3l-2.9-1.7v-3.3l2.9-1.7v-3.3
		l-2.9-1.7v-3.3l-2.9-1.7v-3.3l2.9-1.7v-3.3l2.9-1.7l2.9,1.7l2.9-1.7L99,1396"/>
	
		<path id="W07000070" vector-effect="none" fill="#FFB900" stroke="#FFFFFF" stroke-width="0.5" stroke-linecap="square" stroke-linejoin="bevel" d="
		M116.3,1429.3l-2.9,1.7l-2.9-1.7v-3.3l-2.9-1.7v-3.3l-2.9-1.7v-3.3l-2.9-1.7v-3.3l-2.9-1.7v-3.3l-2.9-1.7v-3.3l2.9-1.7v-3.3
		l2.9-1.7l2.9,1.7v3.3l2.9,1.7v3.3l-2.9,1.7v3.3l2.9,1.7v3.3l2.9,1.7v3.3l2.9,1.7v3.3l2.9,1.7V1429.3"/>
	
		<path id="W07000071" vector-effect="none" fill="#FFB900" stroke="#FFFFFF" stroke-width="0.5" stroke-linecap="square" stroke-linejoin="bevel" d="
		M122.1,1419.3l-2.9,1.7l-2.9-1.7l-2.9,1.7l-2.9-1.7v-3.3l-2.9-1.7v-3.3l-2.9-1.7v-3.3l2.9-1.7v-3.3l-2.9-1.7v-3.3l2.9-1.7v-3.3
		l2.9-1.7l2.9,1.7v3.3l-2.9,1.7v3.3l2.9,1.7v3.3l2.9,1.7v3.3l2.9,1.7v3.3l2.9,1.7V1419.3"/>
	
		<path id="W07000075" vector-effect="none" fill="#FFB900" stroke="#FFFFFF" stroke-width="0.5" stroke-linecap="square" stroke-linejoin="bevel" d="
		M110.5,1459.2l-2.9,1.7l-2.9-1.7v-3.3l2.9-1.7v-3.3l-2.9-1.7v-3.3l2.9-1.7v-3.3l-2.9-1.7v-3.3l2.9-1.7v-3.3l2.9-1.7l2.9,1.7v3.3
		l2.9,1.7v3.3l2.9,1.7v3.3l-2.9,1.7v3.3l-2.9,1.7v3.3l-2.9,1.7V1459.2"/>
	
		<path id="W07000076" vector-effect="none" fill="#FFB900" stroke="#FFFFFF" stroke-width="0.5" stroke-linecap="square" stroke-linejoin="bevel" d="
		M125,1434.3l2.9,1.7l2.9-1.7l2.9,1.7v3.3l-2.9,1.7v3.3l-2.9,1.7l-2.9-1.7l-2.9,1.7l-2.9-1.7v-3.3l-2.9-1.7v-3.3l-2.9-1.7v-3.3
		l2.9-1.7v-3.3l-2.9-1.7v-3.3l2.9-1.7l2.9,1.7v3.3l2.9,1.7v3.3l2.9,1.7V1434.3"/>
	
		<path id="W07000077" vector-effect="none" fill="#FFB900" stroke="#FFFFFF" stroke-width="0.5" stroke-linecap="square" stroke-linejoin="bevel" d="
		M136.5,1434.3l-2.9,1.7l-2.9-1.7l-2.9,1.7l-2.9-1.7v-3.3l-2.9-1.7v-3.3l-2.9-1.7v-3.3l2.9-1.7v-3.3l-2.9-1.7v-3.3l2.9-1.7l2.9,1.7
		v3.3l2.9,1.7v3.3l2.9,1.7v3.3l2.9,1.7v3.3l2.9,1.7V1434.3"/>
	
		<path id="E14000669" vector-effect="none" fill="#7D0069" stroke="#FFFFFF" stroke-linecap="square" stroke-linejoin="bevel" d="
		M318.3,1207.5v3.3l-2.9,1.7v3.3l-2.9,1.7v3.3l-2.9,1.7l-2.9-1.7l-2.9,1.7v3.3l2.9,1.7v3.3l-2.9,1.7l-2.9-1.7v-3.3l-2.9-1.7v-3.3
		l2.9-1.7v-3.3l2.9-1.7v-3.3l2.9-1.7v-3.3l2.9-1.7l2.9,1.7l2.9-1.7L318.3,1207.5"/>
	<path id="E14000671" vector-effect="none" fill="#7D0069" stroke="#FFFFFF" stroke-linecap="square" stroke-linejoin="bevel" d="
		M174.2,1357.2v3.3l2.9,1.7v3.3l-2.9,1.7v3.3l-2.9,1.7l-2.9-1.7v-3.3l-2.9-1.7l-2.9,1.7l-2.9-1.7l-2.9,1.7l-2.9-1.7v-3.3l2.9-1.7
		v-3.3l2.9-1.7l2.9,1.7l2.9-1.7l2.9,1.7l2.9-1.7L174.2,1357.2"/>
	<path id="E14001011" vector-effect="none" fill="#7D0069" stroke="#FFFFFF" stroke-linecap="square" stroke-linejoin="bevel" d="
		M205.9,1332.3v3.3l-2.9,1.7l-2.9-1.7l-2.9,1.7v3.3l-2.9,1.7l-2.9-1.7l-2.9,1.7l-2.9-1.7l-2.9,1.7l-2.9-1.7v-3.3l2.9-1.7l2.9,1.7
		l2.9-1.7v-3.3l-2.9-1.7v-3.3l2.9-1.7l2.9,1.7v3.3l2.9,1.7l2.9-1.7l2.9,1.7l2.9-1.7v-3.3l2.9-1.7l2.9,1.7v3.3L205.9,1332.3"/>
	
		<path id="W07000064" vector-effect="none" fill="#FFB900" stroke="#FFFFFF" stroke-linecap="square" stroke-linejoin="bevel" d="
		M87.8,1400.5l-2.9,1.7l-2.9-1.7l-2.9,1.7v3.3l-2.9,1.7l-2.9-1.7v-3.3l2.9-1.7v-3.3l2.9-1.7v-3.3l2.9-1.7v-3.3l2.9-1.7v-3.3l2.9-1.7
		v-3.3l2.9-1.7l2.9,1.7v3.3l2.9,1.7v3.3l-2.9,1.7v3.3l-2.9,1.7v3.3l-2.9,1.7V1400.5"/>
	<path id="E14000879" vector-effect="none" fill="#7D0069" stroke="#FFFFFF" stroke-linecap="square" stroke-linejoin="bevel" d="
		M84.9,1541.9v3.3l2.9,1.7v3.3l2.9,1.7v3.3l-2.9,1.7l-2.9-1.7l-2.9,1.7l-2.9-1.7v-3.3l-2.9-1.7l-2.9,1.7l-2.9-1.7v-3.3l-2.9-1.7
		v-3.3l2.9-1.7l2.9,1.7l2.9-1.7l2.9,1.7l2.9-1.7L84.9,1541.9"/>
	
		<path id="E14000716" vector-effect="none" fill="#7D0069" stroke="#FFFFFF" stroke-linecap="square" stroke-linejoin="bevel" d="
		M361.4,1231.2v3.3l2.9,1.7v3.3l-2.9,1.7v3.3l-2.9,1.7v3.3l-2.9,1.7l-2.9-1.7v-3.3l-2.9-1.7v-3.3l-2.9-1.7v-3.3l2.9-1.7v-3.3
		l2.9-1.7l2.9,1.7l2.9-1.7L361.4,1231.2"/>
	<path id="E14000903" vector-effect="none" fill="#7D0069" stroke="#FFFFFF" stroke-linecap="square" stroke-linejoin="bevel" d="
		M318.1,1246.2v3.3l-2.9,1.7v3.3l-2.9,1.7v3.3l2.9,1.7v3.3l-2.9,1.7l-2.9-1.7v-3.3l-2.9-1.7l-2.9,1.7l-2.9-1.7l-2.9,1.7l-2.9-1.7
		v-3.3l2.9-1.7l2.9,1.7l2.9-1.7v-3.3l-2.9-1.7v-3.3l2.9-1.7l2.9,1.7l2.9-1.7l2.9,1.7l2.9-1.7L318.1,1246.2"/>
	<path id="E14000669" vector-effect="none" fill="#7D0069" stroke="#FFFFFF" stroke-linecap="square" stroke-linejoin="bevel" d="
		M318.3,1207.5v3.3l-2.9,1.7v3.3l-2.9,1.7v3.3l-2.9,1.7l-2.9-1.7l-2.9,1.7v3.3l2.9,1.7v3.3l-2.9,1.7l-2.9-1.7v-3.3l-2.9-1.7v-3.3
		l2.9-1.7v-3.3l2.9-1.7v-3.3l2.9-1.7v-3.3l2.9-1.7l2.9,1.7l2.9-1.7L318.3,1207.5"/>
</g>
<g id="areas" transform="matrix(0.999751,0,0,0.999751,0,0)">
	<path vector-effect="none" fill="none" stroke="#FFFFFF" stroke-linecap="square" stroke-linejoin="bevel" d="M378.8,1304.7
		l-2.9,1.7l-2.9-1.7l-2.9,1.7l-2.9-1.7l-2.9,1.7l-2.9-1.7l-2.9,1.7l-2.9-1.7l-2.9,1.7v3.3l-2.9,1.7l-2.9-1.7l-2.9,1.7v3.3l2.9,1.7
		v3.3l2.9,1.7v3.3l-2.9,1.7v3.3l-2.9,1.7v3.3l-2.9,1.7l-2.9-1.7l-2.9,1.7v3.3l-2.9,1.7v3.3l-2.9,1.7l-2.9-1.7l-2.9,1.7v3.3l-2.9,1.7
		l-2.9-1.7l-2.9,1.7v3.3l-2.9,1.7l-2.9-1.7l-2.9,1.7l-2.9-1.7l-2.9,1.7v3.3l-2.9,1.7v3.3l-2.9,1.7v3.3l-2.9,1.7v3.3l-2.9,1.7
		l-2.9-1.7l-2.9,1.7v3.3l-2.9,1.7l-2.9-1.7v-3.3l-2.9-1.7l-2.9,1.7v3.3l-2.9,1.7v3.3l-2.9,1.7v3.3l-2.9,1.7l-2.9-1.7l-2.9,1.7v3.3
		l-2.9,1.7v3.3l-2.9,1.7l-2.9-1.7l-2.9,1.7l-2.9-1.7v-3.3l2.9-1.7v-3.3l2.9-1.7l2.9,1.7l2.9-1.7v-3.3l2.9-1.7l2.9,1.7l2.9-1.7v-3.3
		l2.9-1.7v-3.3l2.9-1.7v-3.3l2.9-1.7v-3.3l2.9-1.7v-3.3l2.9-1.7v-3.3l2.9-1.7v-3.3l-2.9-1.7v-3.3l2.9-1.7v-3.3l-2.9-1.7v-3.3
		l2.9-1.7v-3.3l-2.9-1.7l-2.9,1.7v3.3l-2.9,1.7l-2.9-1.7l-2.9,1.7l-2.9-1.7l-2.9,1.7l-2.9-1.7l-2.9,1.7l-2.9-1.7v-3.3l-2.9-1.7v-3.3
		l2.9-1.7v-3.3l-2.9-1.7l-2.9,1.7l-2.9-1.7l-2.9,1.7l-2.9-1.7v-3.3l2.9-1.7v-3.3l-2.9-1.7l-2.9,1.7l-2.9-1.7v-3.3l2.9-1.7"/>
	<path vector-effect="none" fill="none" stroke="#FFFFFF" stroke-linecap="square" stroke-linejoin="bevel" d="M234.6,1304.7v-3.3
		l-2.9-1.7v-3.3l-2.9-1.7v-3.3l-2.9-1.7v-3.3l-2.9-1.7v-3.3l2.9-1.7v-3.3l2.9-1.7v-3.3l2.9-1.7v-3.3l2.9-1.7v-3.3l2.9-1.7l2.9,1.7
		v3.3l2.9,1.7v3.3l2.9,1.7l2.9-1.7l2.9,1.7l2.9-1.7l2.9,1.7l2.9-1.7v-3.3l2.9-1.7l2.9,1.7l2.9-1.7l2.9,1.7l2.9-1.7l2.9,1.7l2.9-1.7
		l2.9,1.7l2.9-1.7l2.9,1.7l2.9-1.7v-3.3l2.9-1.7l2.9,1.7l2.9-1.7l2.9,1.7l2.9-1.7l2.9,1.7v3.3l2.9,1.7l2.9-1.7v-3.3l-2.9-1.7v-3.3
		l2.9-1.7v-3.3l2.9-1.7v-3.3l2.9-1.7v-3.3l2.9-1.7l2.9,1.7l2.9-1.7l2.9,1.7v3.3l2.9,1.7v3.3l2.9,1.7v3.3l2.9,1.7l2.9-1.7v-3.3
		l2.9-1.7l2.9,1.7v3.3l2.9,1.7v3.3l2.9,1.7l2.9-1.7v-3.3l2.9-1.7v-3.3l2.9-1.7"/>
	<path vector-effect="none" fill="none" stroke="#FFFFFF" stroke-linecap="square" stroke-linejoin="bevel" d="M251.9,1334.7
		l2.9,1.7l2.9-1.7l2.9,1.7l2.9-1.7l2.9,1.7l2.9-1.7l2.9,1.7l2.9-1.7v-3.3l2.9-1.7l2.9,1.7v3.3l-2.9,1.7v3.3l2.9,1.7v3.3l-2.9,1.7
		v3.3l2.9,1.7v3.3l-2.9,1.7v3.3l-2.9,1.7v3.3l-2.9,1.7v3.3l-2.9,1.7v3.3l-2.9,1.7v3.3l-2.9,1.7v3.3l-2.9,1.7l-2.9-1.7l-2.9,1.7v3.3
		l-2.9,1.7l-2.9-1.7l-2.9,1.7v3.3l-2.9,1.7v3.3l2.9,1.7v3.3l-2.9,1.7l-2.9-1.7v-3.3l-2.9-1.7l-2.9,1.7v3.3l-2.9,1.7l-2.9-1.7
		l-2.9,1.7v3.3l-2.9,1.7v3.3l-2.9,1.7l-2.9-1.7l-2.9,1.7l-2.9-1.7l-2.9,1.7v3.3l-2.9,1.7l-2.9-1.7l-2.9,1.7l-2.9-1.7v-3.3l-2.9-1.7
		l-2.9,1.7l-2.9-1.7l-2.9,1.7l-2.9-1.7l-2.9,1.7l-2.9-1.7l-2.9,1.7v3.3l-2.9,1.7l-2.9-1.7v-3.3l-2.9-1.7l-2.9,1.7l-2.9-1.7v-3.3
		l-2.9-1.7l-2.9,1.7l-2.9-1.7l-2.9,1.7v3.3l-2.9,1.7l-2.9-1.7v-3.3l-2.9-1.7v-3.3l-2.9-1.7l-2.9,1.7l-2.9-1.7v-3.3l-2.9-1.7v-3.3
		l-2.9-1.7l-2.9,1.7l-2.9-1.7v-3.3l-2.9-1.7v-3.3l2.9-1.7v-3.3l2.9-1.7l2.9,1.7l2.9-1.7v-3.3l-2.9-1.7v-3.3l2.9-1.7v-3.3l-2.9-1.7
		l-2.9,1.7v3.3l-2.9,1.7l-2.9-1.7v-3.3l-2.9-1.7v-3.3l-2.9-1.7v-3.3l2.9-1.7v-3.3l2.9-1.7v-3.3l-2.9-1.7v-3.3l2.9-1.7l2.9,1.7
		l2.9-1.7v-3.3l2.9-1.7l2.9,1.7l2.9-1.7v-3.3l2.9-1.7l2.9,1.7l2.9-1.7l2.9,1.7l2.9-1.7v-3.3l2.9-1.7l2.9,1.7l2.9-1.7v-3.3l2.9-1.7
		l2.9,1.7l2.9-1.7v-3.3l2.9-1.7v-3.3l2.9-1.7v-3.3l2.9-1.7l2.9,1.7l2.9-1.7v-3.3l2.9-1.7l2.9,1.7l2.9-1.7v-3.3l2.9-1.7l2.9,1.7
		l2.9-1.7v-3.3l2.9-1.7l2.9,1.7l2.9-1.7l2.9,1.7l2.9-1.7l2.9,1.7l2.9-1.7v-3.3l2.9-1.7l2.9,1.7l2.9-1.7l2.9,1.7v3.3l2.9,1.7v3.3
		l2.9,1.7v3.3l2.9,1.7v3.3l-2.9,1.7v3.3l2.9,1.7l2.9-1.7l2.9,1.7v3.3l-2.9,1.7v3.3l2.9,1.7l2.9-1.7l2.9,1.7l2.9-1.7l2.9,1.7v3.3
		l-2.9,1.7v3.3l2.9,1.7V1334.7"/>
	<path vector-effect="none" fill="none" stroke="#FFFFFF" stroke-linecap="square" stroke-linejoin="bevel" d="M150.9,1456.3
		l2.9-1.7v-3.3l2.9-1.7v-3.3l-2.9-1.7v-3.3l-2.9-1.7v-3.3l2.9-1.7v-3.3l-2.9-1.7v-3.3l-2.9-1.7v-3.3l-2.9-1.7v-3.3l2.9-1.7v-3.3
		l2.9-1.7l2.9,1.7l2.9-1.7l2.9,1.7v3.3l2.9,1.7l2.9-1.7l2.9,1.7v3.3l2.9,1.7l2.9-1.7v-3.3l2.9-1.7l2.9,1.7l2.9-1.7l2.9,1.7l2.9-1.7
		l2.9,1.7l2.9-1.7l2.9,1.7v3.3l2.9,1.7l2.9-1.7l2.9,1.7l2.9-1.7v-3.3l2.9-1.7l2.9,1.7v3.3l-2.9,1.7v3.3l-2.9,1.7v3.3l-2.9,1.7v3.3
		l2.9,1.7l2.9-1.7l2.9,1.7v3.3l-2.9,1.7v3.3l-2.9,1.7v3.3l2.9,1.7v3.3l-2.9,1.7v3.3l2.9,1.7v3.3l-2.9,1.7v3.3l2.9,1.7v3.3l-2.9,1.7
		v3.3l2.9,1.7v3.3l-2.9,1.7v3.3l-2.9,1.7l-2.9-1.7l-2.9,1.7v3.3l2.9,1.7v3.3l2.9,1.7v3.3l2.9,1.7v3.3l-2.9,1.7v3.3l-2.9,1.7
		l-2.9-1.7v-3.3l-2.9-1.7l-2.9,1.7v3.3l-2.9,1.7v3.3l2.9,1.7v3.3l2.9,1.7l2.9-1.7l2.9,1.7v3.3l2.9,1.7v3.3l2.9,1.7v3.3l2.9,1.7
		l2.9-1.7l2.9,1.7v3.3l2.9,1.7v3.3l2.9,1.7"/>
	<path vector-effect="none" fill="none" stroke="#FFFFFF" stroke-linecap="square" stroke-linejoin="bevel" d="M142.3,1484.6v-3.3
		l2.9-1.7v-3.3l-2.9-1.7v-3.3l2.9-1.7v-3.3l2.9-1.7v-3.3"/>
	<path vector-effect="none" fill="none" stroke="#FFFFFF" stroke-linecap="square" stroke-linejoin="bevel" d="M448,1451.3l-2.9-1.7
		l-2.9,1.7v3.3l-2.9,1.7l-2.9-1.7l-2.9,1.7v3.3l-2.9,1.7v3.3l-2.9,1.7l-2.9-1.7l-2.9,1.7l-2.9-1.7v-3.3l-2.9-1.7v-3.3l2.9-1.7v-3.3
		l2.9-1.7l2.9,1.7l2.9-1.7v-3.3l-2.9-1.7v-3.3l2.9-1.7v-3.3l-2.9-1.7v-3.3"/>
	<path vector-effect="none" fill="none" stroke="#FFFFFF" stroke-linecap="square" stroke-linejoin="bevel" d="M424.9,1431.3
		l-2.9-1.7v-3.3l-2.9-1.7v-3.3l2.9-1.7v-3.3l-2.9-1.7v-3.3l2.9-1.7v-3.3l2.9-1.7v-3.3l-2.9-1.7l-2.9,1.7l-2.9-1.7v-3.3l-2.9-1.7
		v-3.3l-2.9-1.7l-2.9,1.7l-2.9-1.7l-2.9,1.7l-2.9-1.7l-2.9,1.7l-2.9-1.7v-3.3l-2.9-1.7l-2.9,1.7l-2.9-1.7v-3.3l-2.9-1.7v-3.3
		l-2.9-1.7l-2.9,1.7l-2.9-1.7l-2.9,1.7l-2.9-1.7l-2.9,1.7l-2.9-1.7l-2.9,1.7l-2.9-1.7l-2.9,1.7v3.3l-2.9,1.7l-2.9-1.7l-2.9,1.7v3.3
		l-2.9,1.7l-2.9-1.7l-2.9,1.7v3.3l-2.9,1.7l-2.9-1.7l-2.9,1.7v3.3l-2.9,1.7l-2.9-1.7l-2.9,1.7v3.3l-2.9,1.7l-2.9-1.7l-2.9,1.7
		l-2.9-1.7l-2.9,1.7v3.3l-2.9,1.7v3.3l-2.9,1.7v3.3l-2.9,1.7l-2.9-1.7l-2.9,1.7v3.3l-2.9,1.7l-2.9-1.7l-2.9,1.7l-2.9-1.7v-3.3
		l2.9-1.7v-3.3l-2.9-1.7l-2.9,1.7l-2.9-1.7l-2.9,1.7l-2.9-1.7v-3.3l2.9-1.7v-3.3l2.9-1.7v-3.3l2.9-1.7v-3.3l2.9-1.7l2.9,1.7l2.9-1.7
		v-3.3l2.9-1.7v-3.3l2.9-1.7l2.9,1.7l2.9-1.7v-3.3l2.9-1.7l2.9,1.7l2.9-1.7v-3.3l2.9-1.7v-3.3l2.9-1.7v-3.3l2.9-1.7v-3.3l2.9-1.7
		v-3.3l2.9-1.7l2.9,1.7l2.9-1.7v-3.3l2.9-1.7l2.9,1.7l2.9-1.7v-3.3l2.9-1.7v-3.3l2.9-1.7l2.9,1.7l2.9-1.7v-3.3l2.9-1.7v-3.3l2.9-1.7
		v-3.3l-2.9-1.7v-3.3l-2.9-1.7v-3.3l2.9-1.7l2.9,1.7l2.9-1.7v-3.3l2.9-1.7l2.9,1.7l2.9-1.7l2.9,1.7l2.9-1.7l2.9,1.7l2.9-1.7l2.9,1.7
		l2.9-1.7"/>
	<path vector-effect="none" fill="none" stroke="#FFFFFF" stroke-linecap="square" stroke-linejoin="bevel" d="M292.3,1141.6v3.3
		l2.9,1.7v3.3l-2.9,1.7v3.3l-2.9,1.7l-2.9-1.7l-2.9,1.7l-2.9-1.7l-2.9,1.7l-2.9-1.7l-2.9,1.7l-2.9-1.7l-2.9,1.7l-2.9-1.7v-3.3
		l-2.9-1.7l-2.9,1.7l-2.9-1.7l-2.9,1.7l-2.9-1.7l-2.9,1.7l-2.9-1.7v-3.3l-2.9-1.7v-3.3l-2.9-1.7l-2.9,1.7l-2.9-1.7l-2.9,1.7
		l-2.9-1.7v-3.3l-2.9-1.7l-2.9,1.7l-2.9-1.7v-3.3l-2.9-1.7l-2.9,1.7l-2.9-1.7l-2.9,1.7l-2.9-1.7v-3.3l-2.9-1.7l-2.9,1.7v3.3
		l-2.9,1.7l-2.9-1.7l-2.9,1.7l-2.9-1.7v-3.3l-2.9-1.7v-3.3l-2.9-1.7v-3.3l-2.9-1.7v-3.3l-2.9-1.7v-3.3l-2.9-1.7v-3.3l2.9-1.7v-3.3
		l-2.9-1.7v-3.3l-2.9-1.7l-2.9,1.7l-2.9-1.7v-3.3l-2.9-1.7v-3.3l2.9-1.7v-3.3l2.9-1.7v-3.3l2.9-1.7v-3.3l2.9-1.7l2.9,1.7l2.9-1.7
		v-3.3l-2.9-1.7v-3.3l2.9-1.7v-3.3l2.9-1.7l2.9,1.7l2.9-1.7l2.9,1.7"/>
	<path vector-effect="none" fill="none" stroke="#FFFFFF" stroke-linecap="square" stroke-linejoin="bevel" d="M179.8,1050l-2.9,1.7
		v3.3l-2.9,1.7v3.3l2.9,1.7v3.3l-2.9,1.7l-2.9-1.7l-2.9,1.7v3.3l-2.9,1.7v3.3l-2.9,1.7v3.3l-2.9,1.7l-2.9-1.7l-2.9,1.7l-2.9-1.7
		l-2.9,1.7"/>
	<path vector-effect="none" fill="none" stroke="#FFFFFF" stroke-linecap="square" stroke-linejoin="bevel" d="M223.1,1551.2
		l-2.9-1.7v-3.3l-2.9-1.7v-3.3l-2.9-1.7l-2.9,1.7l-2.9-1.7v-3.3l-2.9-1.7v-3.3l-2.9-1.7v-3.3l-2.9-1.7l-2.9,1.7l-2.9-1.7v-3.3
		l-2.9-1.7v-3.3l2.9-1.7v-3.3l2.9-1.7l2.9,1.7v3.3l2.9,1.7l2.9-1.7v-3.3l2.9-1.7v-3.3l-2.9-1.7v-3.3l-2.9-1.7v-3.3l-2.9-1.7v-3.3
		l2.9-1.7l2.9,1.7l2.9-1.7v-3.3l2.9-1.7v-3.3l-2.9-1.7v-3.3l2.9-1.7v-3.3l-2.9-1.7v-3.3l2.9-1.7v-3.3l-2.9-1.7v-3.3l2.9-1.7v-3.3
		l-2.9-1.7v-3.3l2.9-1.7v-3.3l2.9-1.7v-3.3l-2.9-1.7l-2.9,1.7l-2.9-1.7v-3.3l2.9-1.7v-3.3l2.9-1.7v-3.3l2.9-1.7v-3.3l2.9-1.7
		l2.9,1.7l2.9-1.7v-3.3l2.9-1.7v-3.3l2.9-1.7l2.9,1.7l2.9-1.7v-3.3l2.9-1.7l2.9,1.7v3.3l2.9,1.7l2.9-1.7v-3.3l2.9-1.7l2.9,1.7
		l2.9-1.7v-3.3l2.9-1.7v-3.3l2.9-1.7l2.9,1.7l2.9-1.7v-3.3l2.9-1.7v-3.3l2.9-1.7v-3.3l2.9-1.7l2.9,1.7v3.3l2.9,1.7l2.9-1.7v-3.3
		l2.9-1.7l2.9,1.7l2.9-1.7v-3.3l2.9-1.7v-3.3l2.9-1.7v-3.3l2.9-1.7v-3.3l2.9-1.7l2.9,1.7l2.9-1.7l2.9,1.7v3.3l-2.9,1.7v3.3l-2.9,1.7
		v3.3l-2.9,1.7v3.3l-2.9,1.7l-2.9-1.7l-2.9,1.7v3.3l-2.9,1.7l-2.9-1.7l-2.9,1.7v3.3l-2.9,1.7v3.3l-2.9,1.7l-2.9-1.7l-2.9,1.7v3.3
		l-2.9,1.7v3.3l-2.9,1.7v3.3l-2.9,1.7v3.3l2.9,1.7l2.9-1.7l2.9,1.7l2.9-1.7l2.9,1.7v3.3l-2.9,1.7v3.3l-2.9,1.7v3.3l-2.9,1.7v3.3
		l-2.9,1.7v3.3l2.9,1.7v3.3l-2.9,1.7v3.3l-2.9,1.7l-2.9-1.7l-2.9,1.7v3.3l2.9,1.7l2.9-1.7l2.9,1.7v3.3l2.9,1.7v3.3l-2.9,1.7v3.3
		l-2.9,1.7v3.3l2.9,1.7v3.3"/>
	<path vector-effect="none" fill="none" stroke="#FFFFFF" stroke-linecap="square" stroke-linejoin="bevel" d="M269.2,1474.6
		l2.9,1.7v3.3l2.9,1.7l2.9-1.7l2.9,1.7v3.3l2.9,1.7v3.3l2.9,1.7l2.9-1.7l2.9,1.7v3.3l2.9,1.7v3.3l2.9,1.7v3.3l2.9,1.7v3.3l2.9,1.7
		v3.3l2.9,1.7l2.9-1.7l2.9,1.7l2.9-1.7l2.9,1.7v3.3l2.9,1.7v3.3l2.9,1.7v3.3l2.9,1.7l2.9-1.7l2.9,1.7l2.9-1.7v-3.3l2.9-1.7l2.9,1.7
		v3.3l2.9,1.7l2.9-1.7l2.9,1.7v3.3l2.9,1.7l2.9-1.7l2.9,1.7l2.9-1.7l2.9,1.7l2.9-1.7v-3.3l2.9-1.7l2.9,1.7l2.9-1.7v-3.3l2.9-1.7
		l2.9,1.7v3.3l2.9,1.7l2.9-1.7l2.9,1.7l2.9-1.7v-3.3l2.9-1.7v-3.3l2.9-1.7v-3.3l2.9-1.7v-3.3l2.9-1.7v-3.3l2.9-1.7v-3.3l-2.9-1.7
		v-3.3l2.9-1.7l2.9,1.7v3.3l2.9,1.7l2.9-1.7v-3.3l-2.9-1.7v-3.3l2.9-1.7v-3.3l2.9-1.7v-3.3l2.9-1.7v-3.3l2.9-1.7v-3.3l-2.9-1.7v-3.3
		l2.9-1.7l2.9,1.7l2.9-1.7v-3.3l2.9-1.7v-3.3l2.9-1.7l2.9,1.7l2.9-1.7v-3.3l2.9-1.7l2.9,1.7"/>
	<path vector-effect="none" fill="none" stroke="#FFFFFF" stroke-linecap="square" stroke-linejoin="bevel" d="M237.3,1576l-2.9-1.7
		l-2.9,1.7l-2.9-1.7l-2.9,1.7l-2.9-1.7l0-3.3l2.9-1.7l0-3.3l2.9-1.7l0-3.3l2.9-1.7l2.9,1.7l2.9-1.7l2.9,1.7l0,3.3l2.9,1.7l0,3.3
		l-2.9,1.7l0,3.3L237.3,1576"/>
	<path vector-effect="none" fill="none" stroke="#FFFFFF" stroke-linecap="square" stroke-linejoin="bevel" d="M148.1,1081.6
		l2.9-1.7l2.9,1.7l2.9-1.7l2.9,1.7v3.3l2.9,1.7v3.3l2.9,1.7l2.9-1.7l2.9,1.7v3.3l2.9,1.7v3.3l-2.9,1.7v3.3l2.9,1.7v3.3l2.9,1.7v3.3
		l2.9,1.7v3.3l2.9,1.7v3.3l2.9,1.7v3.3l-2.9,1.7v3.3l2.9,1.7l2.9-1.7l2.9,1.7v3.3l2.9,1.7v3.3l2.9,1.7l2.9-1.7l2.9,1.7v3.3l2.9,1.7
		v3.3l-2.9,1.7v3.3l2.9,1.7v3.3l2.9,1.7v3.3l-2.9,1.7v3.3l-2.9,1.7v3.3l2.9,1.7v3.3l2.9,1.7v3.3l2.9,1.7v3.3l2.9,1.7v3.3l2.9,1.7
		l2.9-1.7l2.9,1.7v3.3l2.9,1.7v3.3l2.9,1.7v3.3l2.9,1.7v3.3l2.9,1.7v3.3l2.9,1.7v3.3l2.9,1.7v3.3l2.9,1.7v3.3l-2.9,1.7v3.3l2.9,1.7
		v3.3l-2.9,1.7v3.3l2.9,1.7v3.3l-2.9,1.7l-2.9-1.7"/>
	<path vector-effect="none" fill="none" stroke="#FFFFFF" stroke-linecap="square" stroke-linejoin="bevel" d="M101.9,1284.8v-3.3
		l-2.9-1.7v-3.3l2.9-1.7v-3.3l-2.9-1.7v-3.3l2.9-1.7v-3.3l2.9-1.7l2.9,1.7l2.9-1.7v-3.3l-2.9-1.7v-3.3l2.9-1.7v-3.3l2.9-1.7v-3.3
		l-2.9-1.7v-3.3l2.9-1.7v-3.3l2.9-1.7v-3.3l-2.9-1.7v-3.3l2.9-1.7v-3.3l2.9-1.7v-3.3l2.9-1.7v-3.3l2.9-1.7v-3.3l2.9-1.7v-3.3
		l2.9-1.7v-3.3l-2.9-1.7v-3.3l2.9-1.7v-3.3l-2.9-1.7v-3.3l2.9-1.7v-3.3l2.9-1.7l2.9,1.7l2.9-1.7v-3.3l2.9-1.7v-3.3l-2.9-1.7v-3.3
		l2.9-1.7v-3.3l2.9-1.7l2.9,1.7l2.9-1.7v-3.3l2.9-1.7v-3.3l2.9-1.7v-3.3l-2.9-1.7l-2.9,1.7v3.3l-2.9,1.7v3.3l-2.9,1.7l-2.9-1.7v-3.3
		l-2.9-1.7v-3.3l2.9-1.7v-3.3l2.9-1.7v-3.3l2.9-1.7v-3.3l-2.9-1.7v-3.3l-2.9-1.7v-3.3l-2.9-1.7v-3.3l2.9-1.7v-3.3l2.9-1.7v-3.3
		l-2.9-1.7v-3.3l2.9-1.7v-3.3"/>
	<path vector-effect="none" fill="none" stroke="#FFFFFF" stroke-linecap="square" stroke-linejoin="bevel" d="M237.5,1259.8
		l-2.9,1.7v3.3l-2.9,1.7v3.3l-2.9,1.7v3.3l-2.9,1.7v3.3l-2.9,1.7v3.3l-2.9,1.7l-2.9-1.7l-2.9,1.7v3.3l-2.9,1.7l-2.9-1.7l-2.9,1.7
		l-2.9-1.7l-2.9,1.7l-2.9-1.7l-2.9,1.7v3.3l-2.9,1.7l-2.9-1.7l-2.9,1.7v3.3l-2.9,1.7l-2.9-1.7l-2.9,1.7v3.3l-2.9,1.7l-2.9-1.7
		l-2.9,1.7v3.3l-2.9,1.7v3.3l-2.9,1.7v3.3l-2.9,1.7l-2.9-1.7l-2.9,1.7v3.3l-2.9,1.7l-2.9-1.7l-2.9,1.7v3.3l-2.9,1.7l-2.9-1.7
		l-2.9,1.7l-2.9-1.7v-3.3l-2.9-1.7v-3.3l-2.9-1.7l-2.9,1.7l-2.9-1.7v-3.3l2.9-1.7v-3.3l-2.9-1.7v-3.3l-2.9-1.7l-2.9,1.7l-2.9-1.7
		v-3.3l-2.9-1.7v-3.3l-2.9-1.7v-3.3l-2.9-1.7"/>
	<path vector-effect="none" fill="none" stroke="#FFFFFF" stroke-linecap="square" stroke-linejoin="bevel" d="M364.4,1249.8
		l-2.9,1.7v3.3l-2.9,1.7v3.3l-2.9,1.7l-2.9-1.7v-3.3l-2.9-1.7v-3.3l-2.9-1.7l-2.9,1.7v3.3l-2.9,1.7l-2.9-1.7v-3.3l-2.9-1.7v-3.3
		l-2.9-1.7v-3.3l-2.9-1.7l-2.9,1.7l-2.9-1.7l-2.9,1.7v3.3l-2.9,1.7v3.3l-2.9,1.7v3.3l-2.9,1.7v3.3l2.9,1.7v3.3l-2.9,1.7l-2.9-1.7
		v-3.3l-2.9-1.7l-2.9,1.7l-2.9-1.7l-2.9,1.7l-2.9-1.7l-2.9,1.7v3.3l-2.9,1.7l-2.9-1.7l-2.9,1.7l-2.9-1.7l-2.9,1.7l-2.9-1.7l-2.9,1.7
		l-2.9-1.7l-2.9,1.7l-2.9-1.7l-2.9,1.7"/>
	<path vector-effect="none" fill="none" stroke="#FFFFFF" stroke-linecap="square" stroke-linejoin="bevel" d="M260.5,1266.4v3.3
		l-2.9,1.7l-2.9-1.7l-2.9,1.7l-2.9-1.7l-2.9,1.7l-2.9-1.7v-3.3l-2.9-1.7v-3.3l2.9-1.7v-3.3l-2.9-1.7v-3.3l2.9-1.7v-3.3l-2.9-1.7
		v-3.3l2.9-1.7v-3.3l-2.9-1.7v-3.3l-2.9-1.7v-3.3l-2.9-1.7v-3.3l-2.9-1.7v-3.3l-2.9-1.7v-3.3l-2.9-1.7v-3.3l-2.9-1.7v-3.3l-2.9-1.7
		l-2.9,1.7l-2.9-1.7v-3.3l-2.9-1.7v-3.3l-2.9-1.7v-3.3l-2.9-1.7v-3.3l-2.9-1.7v-3.3l2.9-1.7v-3.3l2.9-1.7v-3.3l-2.9-1.7v-3.3
		l-2.9-1.7v-3.3l2.9-1.7v-3.3l-2.9-1.7v-3.3l-2.9-1.7l-2.9,1.7l-2.9-1.7v-3.3l-2.9-1.7v-3.3l-2.9-1.7l-2.9,1.7l-2.9-1.7v-3.3
		l2.9-1.7l2.9,1.7l2.9-1.7l2.9,1.7l2.9-1.7v-3.3l2.9-1.7l2.9,1.7v3.3l2.9,1.7l2.9-1.7l2.9,1.7l2.9-1.7l2.9,1.7v3.3l2.9,1.7l2.9-1.7
		l2.9,1.7v3.3l2.9,1.7l2.9-1.7l2.9,1.7l2.9-1.7l2.9,1.7v3.3l2.9,1.7v3.3l2.9,1.7l2.9-1.7l2.9,1.7l2.9-1.7l2.9,1.7l2.9-1.7l2.9,1.7
		v3.3l2.9,1.7l2.9-1.7l2.9,1.7l2.9-1.7l2.9,1.7l2.9-1.7l2.9,1.7l2.9-1.7l2.9,1.7l2.9-1.7v-3.3l2.9-1.7v-3.3l-2.9-1.7v-3.3"/>
	<path vector-effect="none" fill="none" stroke="#FFFFFF" stroke-linecap="square" stroke-linejoin="bevel" d="M76,1289.5l-2.9,1.7
		l-2.9-1.7l-2.9,1.7l-2.9-1.7v-3.3l2.9-1.7v-3.3l-2.9-1.7v-3.3l-2.9-1.7v-3.3l2.9-1.7v-3.3l2.9-1.7l2.9,1.7v3.3l2.9,1.7v3.3l2.9,1.7
		v3.3l2.9,1.7v3.3l-2.9,1.7V1289.5"/>
	<path vector-effect="none" fill="none" stroke="#FFFFFF" stroke-linecap="square" stroke-linejoin="bevel" d="M104.8,1289.8
		l2.9,1.7v3.3l2.9,1.7v3.3l2.9,1.7v3.3l2.9,1.7l2.9-1.7l2.9,1.7v3.3l2.9,1.7v3.3l-2.9,1.7v3.3l2.9,1.7l2.9-1.7l2.9,1.7v3.3l2.9,1.7
		v3.3l-2.9,1.7v3.3l-2.9,1.7l-2.9-1.7l-2.9,1.7v3.3l-2.9,1.7l-2.9-1.7l-2.9,1.7v3.3l2.9,1.7v3.3l-2.9,1.7v3.3l-2.9,1.7v3.3l2.9,1.7
		v3.3l2.9,1.7v3.3l2.9,1.7l2.9-1.7v-3.3l2.9-1.7l2.9,1.7v3.3l-2.9,1.7v3.3l2.9,1.7v3.3l-2.9,1.7l-2.9-1.7l-2.9,1.7v3.3l-2.9,1.7v3.3
		l2.9,1.7v3.3l2.9,1.7l2.9-1.7l2.9,1.7v3.3l2.9,1.7v3.3l2.9,1.7l2.9-1.7l2.9,1.7v3.3l2.9,1.7v3.3l2.9,1.7v3.3l2.9,1.7v3.3l2.9,1.7
		v3.3l2.9,1.7v3.3l-2.9,1.7v3.3l2.9,1.7v3.3l2.9,1.7v3.3l-2.9,1.7v3.3l-2.9,1.7"/>
	<path vector-effect="none" fill="none" stroke="#FFFFFF" stroke-linecap="square" stroke-linejoin="bevel" d="M419.2,1401.3
		l2.9-1.7l2.9,1.7v3.3l-2.9,1.7v3.3l-2.9,1.7v3.3l2.9,1.7v3.3l-2.9,1.7v3.3l2.9,1.7v3.3l2.9,1.7v3.3l2.9,1.7v3.3l-2.9,1.7v3.3
		l2.9,1.7v3.3l-2.9,1.7l-2.9-1.7l-2.9,1.7v3.3l-2.9,1.7v3.3l2.9,1.7v3.3l2.9,1.7v3.3l2.9,1.7v3.3l-2.9,1.7v3.3l-2.9,1.7v3.3
		l-2.9,1.7v3.3l-2.9,1.7v3.3l2.9,1.7v3.3l-2.9,1.7l-2.9-1.7v-3.3l-2.9-1.7l-2.9,1.7v3.3l2.9,1.7v3.3l-2.9,1.7v3.3l-2.9,1.7v3.3
		l-2.9,1.7v3.3l-2.9,1.7v3.3l-2.9,1.7v3.3l-2.9,1.7l-2.9-1.7l-2.9,1.7l-2.9-1.7v-3.3l-2.9-1.7l-2.9,1.7v3.3l-2.9,1.7l-2.9-1.7
		l-2.9,1.7v3.3l-2.9,1.7l-2.9-1.7l-2.9,1.7l-2.9-1.7l-2.9,1.7l-2.9-1.7v-3.3l-2.9-1.7l-2.9,1.7l-2.9-1.7v-3.3l-2.9-1.7l-2.9,1.7v3.3
		l-2.9,1.7l-2.9-1.7l-2.9,1.7l-2.9-1.7v-3.3l-2.9-1.7v-3.3l-2.9-1.7v-3.3l-2.9-1.7l-2.9,1.7l-2.9-1.7l-2.9,1.7l-2.9-1.7v-3.3
		l-2.9-1.7v-3.3l-2.9-1.7v-3.3l-2.9-1.7v-3.3l-2.9-1.7v-3.3l-2.9-1.7l-2.9,1.7l-2.9-1.7v-3.3l-2.9-1.7v-3.3l-2.9-1.7l-2.9,1.7
		l-2.9-1.7v-3.3l-2.9-1.7v-3.3l-2.9-1.7v-3.3l2.9-1.7v-3.3l2.9-1.7v-3.3l-2.9-1.7v-3.3l-2.9-1.7l-2.9,1.7l-2.9-1.7v-3.3l2.9-1.7
		l2.9,1.7l2.9-1.7v-3.3l2.9-1.7v-3.3l-2.9-1.7v-3.3l2.9-1.7v-3.3l2.9-1.7v-3.3l2.9-1.7l2.9,1.7l2.9-1.7l2.9,1.7l2.9-1.7v-3.3
		l2.9-1.7l2.9,1.7l2.9-1.7v-3.3l2.9-1.7v-3.3l2.9-1.7v-3.3l2.9-1.7l2.9,1.7l2.9-1.7l2.9,1.7l2.9-1.7v-3.3l2.9-1.7l2.9,1.7l2.9-1.7
		v-3.3l2.9-1.7l2.9,1.7l2.9-1.7v-3.3l2.9-1.7l2.9,1.7l2.9-1.7v-3.3l2.9-1.7l2.9,1.7l2.9-1.7v-3.3l2.9-1.7l2.9,1.7l2.9-1.7l2.9,1.7
		l2.9-1.7l2.9,1.7l2.9-1.7l2.9,1.7l2.9-1.7l2.9,1.7v3.3l2.9,1.7v3.3l2.9,1.7l2.9-1.7l2.9,1.7v3.3l2.9,1.7l2.9-1.7l2.9,1.7l2.9-1.7
		l2.9,1.7l2.9-1.7l2.9,1.7v3.3l2.9,1.7v3.3L419.2,1401.3"/>
</g>
</svg>
