<?xml version="1.0" encoding="utf-8"?>
<!-- Generator: Adobe Illustrator 18.0.0, SVG Export Plug-In . SVG Version: 6.00 Build 0)  -->
<!DOCTYPE svg PUBLIC "-//W3C//DTD SVG 1.1//EN" "http://www.w3.org/Graphics/SVG/1.1/DTD/svg11.dtd">
<svg version="1.1" id="map" xmlns="http://www.w3.org/2000/svg" xmlns:xlink="http://www.w3.org/1999/xlink" x="0px" y="0px"
	 viewBox="113.6 1031 302.9 500.4" enable-background="new 113.6 1031 302.9 500.4" xml:space="preserve">
<g id="bg">
	<g transform="matrix(0.999751,0,0,0.999751,-2.27374e-13,0)">
		
			<path vector-effect="none" fill="#ECECEC" stroke="#000000" stroke-width="3.0709" stroke-linecap="square" stroke-linejoin="bevel" stroke-opacity="0" d="
			M142.2,1219.7h1.9l1-1.7h1.9l1-1.7h1.9l1,1.7l-1,1.7l1,1.7h1.9l1,1.7h1.9l1,1.7h1.9l1,1.7h1.9l1,1.7l-1,1.7l1,1.7h1.9l1,1.7h1.9
			l1,1.7l-1,1.7l1,1.7l-1,1.7l1,1.7l-1,1.7l1,1.7l-1,1.7l1,1.7l-1,1.7h-1.9l-1,1.7l1,1.7l-1,1.7h-1.9l-1-1.7h-1.9l-1,1.7h-1.9
			l-1,1.7l1,1.7l-1,1.7h-1.9l-1,1.7h-1.9l-1-1.7H148l-1-1.7h-1.9l-1,1.7h-1.9l-1-1.7h-1.9l-1-1.7h-1.9l-1-1.7l1-1.7l-1-1.7h-1.9
			l-1-1.7l1-1.7l-1-1.7h-1.9l-1,1.7h-1.9l-1,1.7l1,1.7l-1,1.7h-1.9l-1-1.7h-1.9l-1-1.7h-1.9l-1-1.7l-1.9,0l-1-1.7l1-1.7h1.9l1-1.7
			l-1-1.7l1-1.7h1.9l1-1.7h1.9l1-1.7l-1-1.7l1-1.7l-1-1.7l1-1.7l-1-1.7l1-1.7l-1-1.7l1-1.7h1.9l1,1.7h1.9l1-1.7h1.9l1-1.7h1.9l1-1.7
			h1.9l1-1.7h1.9L142.2,1219.7"/>
		
			<path vector-effect="none" fill="#ECECEC" stroke="#000000" stroke-width="3.0709" stroke-linecap="square" stroke-linejoin="bevel" stroke-opacity="0" d="
			M400.6,1376.3l1.8,1v2.1l-1.8,1v2.1l1.8,1v2.1l1.8,1v2.1l-1.8,1v2.1l-1.8,1v2.1l-1.8,1v2.1l1.8,1v2.1l1.8,1v2.1l-1.8,1v2.1l1.8,1
			v2.1l-1.8,1l-1.8-1l-1.8,1v2.1l1.8,1v2.1l1.8,1v2.1l1.8,1l1.8-1l1.8,1v2.1l1.8,1v2.1l1.8,1v2.1l-1.8,1v2.1l-1.8,1v2.1l-1.8,1
			l-1.8-1l-1.8,1l-1.8-1l-1.8,1v2.1l-1.8,1v2.1l-1.8,1v2.1l1.8,1l1.8-1l1.8,1l1.8-1l1.8,1l1.8-1l1.8,1l1.8-1v-2.1l1.8-1l1.8,1l1.8-1
			l1.8,1v2.1l-1.8,1v2.1l1.8,1v2.1l-1.8,1v2.1l-1.8,1v2.1l-1.8,1v2.1l1.8,1v2.1l-1.8,1v2.1l-1.8,1v2.1l-1.8,1v2.1l-1.8,1v2.1l-1.8,1
			l-1.8-1l-1.8,1v2.1l-1.8,1v2.1l-1.8,1v2.1l-1.8,1v2.1l-1.8,1v2.1l-1.8,1l-1.8-1l-1.8,1l-1.8-1l-1.8,1v2.1l-1.8,1v2.1l-1.8,1
			l-1.8-1l-1.8,1v2.1l-1.8,1l-1.8-1l-1.8,1v2.1l-1.8,1l-1.8-1l-1.8,1v2.1l-1.8,1v2.1l-1.8,1l-1.8-1l-1.8,1v2.1l-1.8,1l-1.8-1l-1.8,1
			l-1.8-1v-2.1l-1.8-1l-1.8,1v2.1l-1.8,1v2.1l-1.8,1l-1.8-1l-1.8,1l-1.8-1l-1.8,1l-1.8-1v-2.1l-1.8-1l-1.8,1l-1.8-1l-1.8,1l-1.8-1
			l-1.8,1l-1.8-1l-1.8,1l-1.8-1l-1.8,1l-1.8-1l-1.8,1l-1.8-1l-1.8,1l-1.8-1l-1.8,1l-1.8-1l-1.8,1l-1.8-1l-1.8,1l-1.8-1l-1.8,1
			l-1.8-1l-1.8,1v2.1l-1.8,1l-1.8-1l-1.8,1l-1.8-1l-1.8,1l-1.8-1v-2.1l-1.8-1v-2.1l-1.8-1l-1.8,1l-1.8-1v-2.1l-1.8-1l-1.8,1l-1.8-1
			v-2.1l-1.8-1l-1.8,1l-1.8-1v-2.1l-1.8-1v-2.1l-1.8-1l-1.8,1v2.1l-1.8,1v2.1l1.8,1v2.1l-1.8,1v2.1l-1.8,1l-1.8-1l-1.8,1l-1.8-1
			v-2.1l-1.8-1l-1.8,1l-1.8-1l-1.8,1l-1.8-1l-1.8,1v2.1l-1.8,1l-1.8-1v-2.1l-1.8-1l-1.8,1l-1.8-1v-2.1l-1.8-1v-2.1l-1.8-1v-2.1
			l-1.8-1v-2.1l-1.8-1l-1.8,1l-1.8-1l-1.8,1l-1.8-1v-2.1l-1.8-1l-1.8,1l-1.8-1l-1.8,1l-1.8-1l-1.8,1l-1.8-1l-1.8,1v2.1l-1.8,1
			l-1.8-1l-1.8,1l-1.8-1l-1.8,1l-1.8-1v-2.1l-1.8-1l-1.8,1v2.1l1.8,1v2.1l1.8,1v2.1l1.8,1v2.1l1.8,1v2.1l1.8,1v2.1l-1.8,1v2.1
			l-1.8,1l-1.8-1l-1.8,1l-1.8-1l-1.8,1l-1.8-1l-1.8,1l-1.8-1l-1.8,1l-1.8-1l-1.8,1l-1.8-1l-1.8,1l-1.8-1v-2.1l-1.8-1l-1.8,1l-1.8-1
			v-2.1l-1.8-1v-2.1l-1.8-1l-1.8,1l-1.8-1l-1.8,1v2.1l-1.8,1v2.1l-1.8,1l-1.8-1l-1.8,1v2.1l-1.8,1v2.1l-1.8,1l-1.8-1l-1.8,1v2.1
			l1.8,1v2.1l-1.8,1v2.1l-1.8,1v2.1l-1.8,1l-1.8-1v-2.1l-1.8-1v-2.1l-1.8-1l-1.8,1l-1.8-1v-2.1l-1.8-1l-1.8,1v2.1l-1.8,1l-1.8-1
			v-2.1l1.8-1v-2.1l1.8-1l1.8,1l1.8-1v-2.1l1.8-1l1.8,1l1.8-1v-2.1l1.8-1l1.8,1l1.8-1v-2.1l1.8-1v-2.1l1.8-1v-2.1l1.8-1v-2.1l1.8-1
			l0-2.1l1.8-1l1.8,1l1.8-1l1.8,1l1.8-1v-2.1l1.8-1v-2.1l1.8-1l1.8,1l1.8-1v-2.1l1.8-1v-2.1l1.8-1l1.8,1l1.8-1v-2.1l1.8-1l1.8,1
			l1.8-1v-2.1l-1.8-1v-2.1l-1.8-1v-2.1l1.8-1l1.8,1l1.8-1l1.8,1l1.8-1l1.8,1v2.1l1.8,1l1.8-1l1.8,1l1.8-1l1.8,1v2.1l1.8,1l1.8-1
			l1.8,1l1.8-1l1.8,1l1.8-1l1.8,1l1.8-1v-2.1l1.8-1v-2.1l-1.8-1v-2.1l-1.8-1v-2.1l1.8-1v-2.1l1.8-1v-2.1l1.8-1v-2.1l-1.8-1v-2.1
			l1.8-1v-2.1l1.8-1v-2.1l1.8-1v-2.1l-1.8-1l-1.8,1v2.1l-1.8,1v2.1l-1.8,1v2.1l-1.8,1v2.1l-1.8,1v2.1l-1.8,1v2.1l-1.8,1v2.1l-1.8,1
			l-1.8-1l-1.8,1l-1.8-1l-1.8,1l-1.8-1v-2.1l-1.8-1v-2.1l-1.8-1v-2.1l-1.8-1l-1.8,1l-1.8-1l-1.8,1l-1.8-1v-2.1l-1.8-1v-2.1l1.8-1
			v-2.1l-1.8-1v-2.1l1.8-1v-2.1l-1.8-1v-2.1l1.8-1v-2.1l-1.8-1l-1.8,1v2.1l-1.8,1v2.1l-1.8,1l-1.8-1l-1.8,1l-1.8-1v-2.1l-1.8-1
			l-1.8,1l-1.8-1v-2.1l1.8-1v-2.1l-1.8-1v-2.1l1.8-1v-2.1l1.8-1v-2.1l-1.8-1l-1.8,1l-1.8-1l-1.8,1v2.1l-1.8,1l-1.8-1l-1.8,1l-1.8-1
			l-1.8,1l-1.8-1v-2.1l1.8-1v-2.1l1.8-1v-2.1l1.8-1v-2.1l1.8-1l1.8,1l1.8-1v-2.1l1.8-1l1.8,1l1.8-1l1.8,1l1.8-1l1.8,1l1.8-1v-2.1
			l1.8-1v-2.1l1.8-1v-2.1l1.8-1v-2.1l1.8-1v-2.1l1.8-1l1.8,1l1.8-1v-2.1l1.8-1l1.8,1l1.8-1v-2.1l1.8-1v-2.1l-1.8-1v-2.1l-1.8-1
			l-1.8,1l-1.8-1v-2.1l-1.8-1v-2.1l-1.8-1v-2.1l-1.8-1v-2.1l-1.8-1v-2.1l-1.8-1v-2.1l-1.8-1v-2.1l-1.8-1v-2.1l-1.8-1v-2.1l-1.8-1
			v-2.1l1.8-1v-2.1l-1.8-1v-2.1l1.8-1l1.8,1l1.8-1l1.8,1l1.8-1l1.8,1v2.1l1.8,1l1.8-1v-2.1l1.8-1v-2.1l1.8-1l1.8,1l1.8-1v-2.1
			l-1.8-1v-2.1l-1.8-1v-2.1l1.8-1v-2.1l-1.8-1v-2.1l1.8-1v-2.1l1.8-1l1.8,1l1.8-1v-2.1l-1.8-1v-2.1l1.8-1v-2.1l1.8-1v-2.1l-1.8-1
			v-2.1l1.8-1v-2.1l1.8-1v-2.1l-1.8-1v-2.1l1.8-1v-2.1l1.8-1v-2.1l1.8-1v-2.1l1.8-1v-2.1l1.8-1v-2.1l1.8-1v-2.1l-1.8-1v-2.1l1.8-1
			v-2.1l-1.8-1v-2.1l1.8-1v-2.1l1.8-1l1.8,1l1.8-1v-2.1l1.8-1v-2.1l-1.8-1v-2.1l1.8-1v-2.1l1.8-1l1.8,1l1.8-1v-2.1l1.8-1v-2.1l1.8-1
			v-2.1l-1.8-1l-1.8,1v2.1l-1.8,1v2.1l-1.8,1l-1.8-1v-2.1l-1.8-1v-2.1l1.8-1v-2.1l1.8-1v-2.1l1.8-1v-2.1l-1.8-1v-2.1l-1.8-1v-2.1
			l-1.8-1v-2.1l1.8-1v-2.1l1.8-1v-2.1l-1.8-1v-2.1l1.8-1v-2.1l1.8-1v-2.1l-1.8-1l-1.8,1l-1.8-1l-1.8,1v2.1l-1.8,1l-1.8-1l-1.8,1
			l-1.8-1l-1.8,1v2.1l-1.8,1l-1.8-1l-1.8,1l-1.8-1l-1.8,1l-1.8-1l-1.8,1v2.1l-1.8,1l-1.8-1v-2.1l-1.8-1l-1.8,1l-1.8-1v-2.1l1.8-1
			l1.8,1l1.8-1v-2.1l-1.8-1v-2.1l1.8-1v-2.1l-1.8-1v-2.1l1.8-1v-2.1l-1.8-1v-2.1l-1.8-1v-2.1l-1.8-1v-2.1l-1.8-1l-1.8,1l-1.8-1v-2.1
			l-1.8-1v-2.1l-1.8-1v-2.1l-1.8-1v-2.1l1.8-1v-2.1l1.8-1v-2.1l1.8-1l0-2.1l-1.8-1v-2.1l1.8-1v-2.1l-1.8-1v-2.1l1.8-1v-2.1l-1.8-1
			v-2.1l1.8-1v-2.1l-1.8-1l-1.8,1l-1.8-1v-2.1l1.8-1v-2.1l1.8-1v-2.1l1.8-1v-2.1l1.8-1l1.8,1l1.8-1l1.8,1l1.8-1v-2.1l1.8-1v-2.1
			l1.8-1l1.8,1l1.8-1v-2.1l-1.8-1v-2.1l-1.8-1l-1.8,1l-1.8-1v-2.1l1.8-1v-2.1l-1.8-1v-2.1l-1.8-1v-2.1l1.8-1v-2.1l1.8-1v-2.1l-1.8-1
			v-2.1l-1.8-1v-2.1l-1.8-1v-2.1l1.8-1l1.8,1v2.1l1.8,1l1.8-1v-2.1l1.8-1v-2.1l1.8-1l1.8,1v2.1l1.8,1v2.1l-1.8,1v2.1l-1.8,1v2.1
			l-1.8,1v2.1l1.8,1v2.1l1.8,1l1.8-1l1.8,1v2.1l1.8,1l1.8-1l1.8,1l1.8-1v-2.1l1.8-1l1.8,1l1.8-1v-2.1l1.8-1l1.8,1l1.8-1l1.8,1l1.8-1
			v-2.1l1.8-1l1.8,1l1.8-1l1.8,1l1.8-1l1.8,1l1.8-1v-2.1l1.8-1l1.8,1l1.8-1l1.8,1l1.8-1l1.8,1v2.1l-1.8,1v2.1l1.8,1v2.1l1.8,1v2.1
			l-1.8,1v2.1l-1.8,1v2.1l-1.8,1l-1.8-1l-1.8,1l-1.8-1l-1.8,1l-1.8-1l-1.8,1l-1.8-1l-1.8,1l-1.8-1l-1.8,1v2.1l-1.8,1v2.1l1.8,1v2.1
			l1.8,1v2.1l1.8,1v2.1l-1.8,1l-1.8-1l-1.8,1v2.1l1.8,1v2.1l1.8,1l1.8-1l1.8,1v2.1l1.8,1l1.8-1l1.8,1v2.1l1.8,1l1.8-1l1.8,1v2.1
			l-1.8,1l-1.8-1l-1.8,1l-1.8-1l-1.8,1v2.1l-1.8,1v2.1l-1.8,1l-1.8-1v-2.1l-1.8-1l-1.8,1l-1.8-1l-1.8,1l-1.8-1l-1.8,1l-1.8-1l-1.8,1
			v2.1l1.8,1v2.1l1.8,1l1.8-1l1.8,1l1.8-1l1.8,1l1.8-1l1.8,1v2.1l1.8,1v2.1l1.8,1v2.1l1.8,1l1.8-1l1.8,1l1.8-1l1.8,1v2.1l1.8,1v2.1
			l1.8,1v2.1l1.8,1v2.1l-1.8,1v2.1l-1.8,1v2.1l1.8,1v2.1l1.8,1l1.8-1l1.8,1v2.1l1.8,1v2.1l1.8,1l1.8-1l1.8,1l1.8-1l1.8,1l1.8-1
			l1.8,1l1.8-1l1.8,1v2.1l1.8,1l1.8-1l1.8,1v2.1l1.8,1l1.8-1l1.8,1v2.1l1.8,1l1.8-1l1.8,1v2.1l1.8,1l1.8-1l1.8,1v2.1l1.8,1l1.8-1
			l1.8,1v2.1l-1.8,1v2.1l1.8,1v2.1l1.8,1v2.1l-1.8,1v2.1l1.8,1v2.1l1.8,1v2.1l1.8,1v2.1l1.8,1l1.8-1l1.8,1v2.1l1.8,1l1.8-1l1.8,1
			v2.1l1.8,1v2.1l1.8,1l1.8-1l1.8,1v2.1l1.8,1v2.1l1.8,1v2.1l1.8,1v2.1l-1.8,1v2.1l1.8,1v2.1l1.8,1v2.1l1.8,1l1.8-1l1.8,1v2.1l1.8,1
			v2.1l1.8,1l1.8-1l1.8,1v2.1l1.8,1l1.8-1l1.8,1v2.1l1.8,1l1.8-1l1.8,1l1.8-1l1.8,1v2.1l1.8,1v2.1l1.8,1v2.1l1.8,1v2.1l-1.8,1v2.1
			l-1.8,1l-1.8-1l-1.8,1l-1.8-1l-1.8,1v2.1l1.8,1l1.8-1l1.8,1v2.1l1.8,1l1.8-1l1.8,1v2.1l1.8,1v2.1l-1.8,1v2.1l1.8,1v2.1l1.8,1v2.1
			l-1.8,1v2.1l1.8,1v2.1l1.8,1v2.1l1.8,1v2.1l1.8,1v2.1l-1.8,1v2.1l-1.8,1v2.1l-1.8,1v2.1l1.8,1l1.8-1l1.8,1v2.1l1.8,1v2.1l1.8,1
			l1.8-1l1.8,1l1.8-1v-2.1l1.8-1l1.8,1l1.8-1v-2.1l1.8-1l1.8,1l1.8-1l1.8,1l1.8-1l1.8,1v2.1l1.8,1l1.8-1l1.8,1l1.8-1l1.8,1l1.8-1
			l1.8,1v2.1l1.8,1l1.8-1l1.8,1v2.1l1.8,1l1.8-1l1.8,1v2.1l1.8,1v2.1l-1.8,1v2.1l1.8,1v2.1l1.8,1v2.1l1.8,1v2.1l1.8,1v2.1l-1.8,1
			l-1.8-1l-1.8,1V1376.3"/>
		
			<path vector-effect="none" fill="#ECECEC" stroke="#000000" stroke-width="3.0709" stroke-linecap="square" stroke-linejoin="bevel" stroke-opacity="0" d="
			M263.4,1517.8l-1.8-1l-1.8,1l-1.8-1l-1.8,1l-1.8-1l0-2.1l1.8-1l0-2.1l1.8-1l0-2.1l1.8-1l1.8,1l1.8-1l1.8,1l0,2.1l1.8,1l0,2.1
			l-1.8,1l0,2.1L263.4,1517.8"/>
		
			<path vector-effect="none" fill="#ECECEC" stroke="#000000" stroke-width="3.0709" stroke-linecap="square" stroke-linejoin="bevel" stroke-opacity="0" d="
			M149.9,1154.4l-1.8,1l-1.8-1v-2.1l1.8-1l1.8,1V1154.4"/>
		
			<path vector-effect="none" fill="#ECECEC" stroke="#000000" stroke-width="3.0709" stroke-linecap="square" stroke-linejoin="bevel" stroke-opacity="0" d="
			M155.3,1151.3l-1.8,1l-1.8-1v-2.1l1.8-1v-2.1l1.8-1l1.8,1v2.1l-1.8,1V1151.3"/>
		
			<path vector-effect="none" fill="#ECECEC" stroke="#000000" stroke-width="3.0709" stroke-linecap="square" stroke-linejoin="bevel" stroke-opacity="0" d="
			M157.1,1141.9l-1.8,1l-1.8-1l-1.8,1l-1.8-1v-2.1l1.8-1v-2.1l1.8-1l1.8,1v2.1l1.8,1V1141.9"/>
		
			<path vector-effect="none" fill="#ECECEC" stroke="#000000" stroke-width="3.0709" stroke-linecap="square" stroke-linejoin="bevel" stroke-opacity="0" d="
			M146.2,1116.9l-1.8,1l-1.8-1v-2.1l1.8-1v-2.1l1.8-1l1.8,1v2.1l-1.8,1V1116.9"/>
		
			<path vector-effect="none" fill="#ECECEC" stroke="#000000" stroke-width="3.0709" stroke-linecap="square" stroke-linejoin="bevel" stroke-opacity="0" d="
			M151.7,1107.5l-1.8,1l-1.8-1v-2.1l-1.8-1v-2.1l1.8-1l1.8,1v2.1l1.8,1V1107.5"/>
		
			<path vector-effect="none" fill="#ECECEC" stroke="#000000" stroke-width="3.0709" stroke-linecap="square" stroke-linejoin="bevel" stroke-opacity="0" d="
			M158.9,1093v2.1l-1.8,1v2.1l-1.8,1v2.1l-1.8,1l-1.8-1v-2.1l-1.8-1v-2.1l1.8-1v-2.1l1.8-1l1.8,1l1.8-1L158.9,1093"/>
		
			<path vector-effect="none" fill="#ECECEC" stroke="#000000" stroke-width="3.0709" stroke-linecap="square" stroke-linejoin="bevel" stroke-opacity="0" d="
			M157.1,1185.7l-1.8,1l-1.8-1v-2.1l-1.8-1v-2.1l1.8-1l1.8,1v2.1l1.8,1V1185.7"/>
		
			<path vector-effect="none" fill="#ECECEC" stroke="#000000" stroke-width="3.0709" stroke-linecap="square" stroke-linejoin="bevel" stroke-opacity="0" d="
			M189.5,1085.7l-1.8,1l-1.8-1v-2.1l1.8-1l1.8,1V1085.7"/>
		
			<path vector-effect="none" fill="#ECECEC" stroke="#000000" stroke-width="3.0709" stroke-linecap="square" stroke-linejoin="bevel" stroke-opacity="0" d="
			M193.1,1079.4l1.8,1v2.1l-1.8,1l-1.8-1v-2.1l-1.8-1l-1.8,1l-1.8-1v-2.1l1.8-1v-2.1l1.8-1l1.8,1v2.1l1.8,1V1079.4"/>
		
			<path vector-effect="none" fill="#ECECEC" stroke="#000000" stroke-width="3.0709" stroke-linecap="square" stroke-linejoin="bevel" stroke-opacity="0" d="
			M220.2,1043v2.1l-1.8,1l-1.8-1l-1.8,1l-1.8-1v-2.1l1.8-1l1.8,1l1.8-1v-2.1l-1.8-1v-2.1l1.8-1v-2.1l1.8-1l1.8,1v2.1l-1.8,1v2.1
			l1.8,1v2.1L220.2,1043"/>
		
			<path vector-effect="none" fill="#ECECEC" stroke="#000000" stroke-width="3.0709" stroke-linecap="square" stroke-linejoin="bevel" stroke-opacity="0" d="
			M164.3,1108.6v2.1l-1.8,1v2.1l-1.8,1l-1.8-1v-2.1l-1.8-1v-2.1l1.8-1l1.8,1l1.8-1L164.3,1108.6"/>
		
			<path vector-effect="none" fill="#ECECEC" stroke="#000000" stroke-width="3.0709" stroke-linecap="square" stroke-linejoin="bevel" stroke-opacity="0" d="
			M162.5,1338.6l-1.8,1l-1.8-1l-1.8,1l-1.8-1v-2.1l1.8-1v-2.1l-1.8-1v-2.1l-1.8-1v-2.1l1.8-1v-2.1l1.8-1l1.8,1v2.1l1.8,1v2.1l1.8,1
			v2.1l1.8,1v2.1l-1.8,1V1338.6"/>
	</g>
</g>
<g id="lab" display='none'>
	
		<path id="E14000530" vector-effect="none" fill="#FFB900" stroke="#FFFFFF" stroke-width="0.5" stroke-linecap="square" stroke-linejoin="bevel" d="
		M281.5,1482.1l1.8,1l1.8-1l1.8,1v2.1l-1.8,1l-1.8-1l-1.8,1l-1.8-1l-1.8,1l-1.8-1v-2.1l-1.8-1v-2.1l-1.8-1v-2.1l1.8-1v-2.1l-1.8-1
		v-2.1l-1.8-1v-2.1l1.8-1l1.8,1v2.1l1.8,1v2.1l1.8,1v2.1l1.8,1v2.1l1.8,1V1482.1"/>
	
		<path id="E14000547" vector-effect="none" fill="#FFB900" stroke="#FFFFFF" stroke-width="0.5" stroke-linecap="square" stroke-linejoin="bevel" d="
		M232.8,1466.5l-1.8,1l-1.8-1l-1.8,1l-1.8-1v-2.1l-1.8-1v-2.1l1.8-1v-2.1l1.8-1v-2.1l1.8-1v-2.1l1.8-1l1.8,1v2.1l-1.8,1v2.1l1.8,1
		v2.1l-1.8,1v2.1l1.8,1V1466.5"/>
	
		<path id="E14000554" vector-effect="none" fill="#FFB900" stroke="#FFFFFF" stroke-width="0.5" stroke-linecap="square" stroke-linejoin="bevel" d="
		M232.8,1189.5v2.1l1.8,1v2.1l-1.8,1v2.1l-1.8,1l-1.8-1l-1.8,1v2.1l-1.8,1v2.1l-1.8,1l-1.8-1v-2.1l1.8-1v-2.1l1.8-1v-2.1l-1.8-1
		v-2.1l1.8-1v-2.1l1.8-1l1.8,1l1.8-1L232.8,1189.5"/>
	
		<path id="E14000621" vector-effect="none" fill="#FFB900" stroke="#FFFFFF" stroke-width="0.5" stroke-linecap="square" stroke-linejoin="bevel" d="
		M335.6,1480v2.1l1.8,1v2.1l-1.8,1v2.1l-1.8,1l-1.8-1l-1.8,1l-1.8-1v-2.1l-1.8-1l-1.8,1l-1.8-1v-2.1l1.8-1v-2.1l1.8-1l1.8,1l1.8-1
		l1.8,1l1.8-1L335.6,1480"/>
	
		<path id="E14000622" vector-effect="none" fill="#7D0069" stroke="#FFFFFF" stroke-width="0.5" stroke-linecap="square" stroke-linejoin="bevel" d="
		M389.7,1425.9l1.8,1l1.8-1l1.8,1v2.1l1.8,1v2.1l-1.8,1v2.1l-1.8,1v2.1l-1.8,1l-1.8-1v-2.1l-1.8-1v-2.1l-1.8-1v-2.1l-1.8-1v-2.1
		l1.8-1v-2.1l1.8-1l1.8,1V1425.9"/>
	
		<path id="E14000623" vector-effect="none" fill="#FFB900" stroke="#FFFFFF" stroke-width="0.5" stroke-linecap="square" stroke-linejoin="bevel" d="
		M180.5,1480v2.1l1.8,1l1.8-1l1.8,1v2.1l-1.8,1l-1.8-1l-1.8,1l-1.8-1v-2.1l-1.8-1l-1.8,1l-1.8-1l-1.8,1v2.1l1.8,1v2.1l1.8,1v2.1
		l1.8,1l1.8-1l1.8,1v2.1l-1.8,1l-1.8-1l-1.8,1l-1.8-1l0-2.1l-1.8-1v-2.1l-1.8-1v-2.1l-1.8-1v-2.1l1.8-1v-2.1l1.8-1l1.8,1l1.8-1
		l1.8,1l1.8-1L180.5,1480"/>
	
		<path id="E14000627" vector-effect="none" fill="#FFB900" stroke="#FFFFFF" stroke-width="0.5" stroke-linecap="square" stroke-linejoin="bevel" d="
		M250.8,1327v2.1l-1.8,1v2.1l-1.8,1l-1.8-1l-1.8,1v2.1l-1.8,1l-1.8-1l-1.8,1l-1.8-1v-2.1l-1.8-1v-2.1l1.8-1l1.8,1l1.8-1v-2.1l1.8-1
		l1.8,1l1.8-1l1.8,1l1.8-1L250.8,1327"/>
	
		<path id="E14000628" vector-effect="none" fill="#FFB900" stroke="#FFFFFF" stroke-width="0.5" stroke-linecap="square" stroke-linejoin="bevel" d="
		M377.1,1397.8l1.8,1l1.8-1l1.8,1v2.1l1.8,1v2.1l1.8,1v2.1l-1.8,1v2.1l-1.8,1l-1.8-1v-2.1l-1.8-1v-2.1l-1.8-1v-2.1l-1.8-1v-2.1
		l-1.8-1v-2.1l1.8-1l1.8,1V1397.8"/>
	
		<path id="E14000630" vector-effect="none" fill="#FFB900" stroke="#FFFFFF" stroke-width="0.5" stroke-linecap="square" stroke-linejoin="bevel" d="
		M238.2,1419.6l1.8,1l1.8-1l1.8,1v2.1l-1.8,1v2.1l-1.8,1l-1.8-1l-1.8,1l-1.8-1l-1.8,1l-1.8-1v-2.1l-1.8-1v-2.1l1.8-1l1.8,1l1.8-1
		v-2.1l1.8-1l1.8,1V1419.6"/>
	
		<path id="E14000635" vector-effect="none" fill="#FFB900" stroke="#FFFFFF" stroke-width="0.5" stroke-linecap="square" stroke-linejoin="bevel" d="
		M240,1451.9v2.1l-1.8,1v2.1l-1.8,1v2.1l1.8,1v2.1l-1.8,1v2.1l-1.8,1l-1.8-1v-2.1l-1.8-1v-2.1l1.8-1v-2.1l-1.8-1v-2.1l1.8-1v-2.1
		l1.8-1l1.8,1l1.8-1L240,1451.9"/>
	
		<path id="E14000644" vector-effect="none" fill="#FFB900" stroke="#FFFFFF" stroke-width="0.5" stroke-linecap="square" stroke-linejoin="bevel" d="
		M387.9,1389.4v2.1l1.8,1v2.1l1.8,1v2.1l-1.8,1v2.1l1.8,1v2.1l-1.8,1l-1.8-1v-2.1l-1.8-1v-2.1l-1.8-1v-2.1l-1.8-1v-2.1l-1.8-1v-2.1
		l1.8-1l1.8,1l1.8-1L387.9,1389.4"/>
	
		<path id="E14000680" vector-effect="none" fill="#FFB900" stroke="#FFFFFF" stroke-width="0.5" stroke-linecap="square" stroke-linejoin="bevel" d="
		M270.7,1482.1l1.8,1l1.8-1l1.8,1v2.1l1.8,1l1.8-1l1.8,1v2.1l1.8,1v2.1l1.8,1v2.1l-1.8,1l-1.8-1v-2.1l-1.8-1l-1.8,1l-1.8-1v-2.1
		l-1.8-1l-1.8,1l-1.8-1v-2.1l-1.8-1v-2.1l-1.8-1v-2.1l1.8-1l1.8,1V1482.1"/>
	
		<path id="E14000684" vector-effect="none" fill="#FFB900" stroke="#FFFFFF" stroke-width="0.5" stroke-linecap="square" stroke-linejoin="bevel" d="
		M362.6,1510.2l-1.8,1l-1.8-1l-1.8,1v2.1l-1.8,1l-1.8-1v-2.1l1.8-1v-2.1l1.8-1v-2.1l1.8-1v-2.1l1.8-1v-2.1l1.8-1l1.8,1v2.1l1.8,1
		v2.1l-1.8,1v2.1l-1.8,1V1510.2"/>
	
		<path id="E14000685" vector-effect="none" fill="#FFB900" stroke="#FFFFFF" stroke-width="0.5" stroke-linecap="square" stroke-linejoin="bevel" d="
		M259.8,1482.1l1.8,1l1.8-1l1.8,1v2.1l1.8,1v2.1l-1.8,1v2.1l1.8,1v2.1l-1.8,1v2.1l-1.8,1l-1.8-1v-2.1l1.8-1v-2.1l-1.8-1v-2.1l-1.8-1
		v-2.1l-1.8-1v-2.1l-1.8-1v-2.1l1.8-1l1.8,1V1482.1"/>
	
		<path id="E14000704" vector-effect="none" fill="#FFB900" stroke="#FFFFFF" stroke-width="0.5" stroke-linecap="square" stroke-linejoin="bevel" d="
		M396.9,1480v2.1l-1.8,1v2.1l-1.8,1v2.1l-1.8,1v2.1l-1.8,1l-1.8-1v-2.1l-1.8-1v-2.1l1.8-1v-2.1l1.8-1v-2.1l1.8-1l1.8,1l1.8-1v-2.1
		l1.8-1v-2.1l1.8-1l1.8,1v2.1l-1.8,1v2.1L396.9,1480"/>
	
		<path id="E14000719" vector-effect="none" fill="#FFB900" stroke="#FFFFFF" stroke-width="0.5" stroke-linecap="square" stroke-linejoin="bevel" d="
		M290.5,1485.2l1.8,1l1.8-1l1.8,1v2.1l1.8,1l1.8-1l1.8,1v2.1l1.8,1l1.8-1l1.8,1v2.1l1.8,1v2.1l-1.8,1l-1.8-1l-1.8,1l-1.8-1l-1.8,1
		l-1.8-1v-2.1l1.8-1v-2.1l-1.8-1l-1.8,1l-1.8-1v-2.1l-1.8-1l-1.8,1l-1.8-1v-2.1l-1.8-1v-2.1l1.8-1l1.8,1V1485.2"/>
	
		<path id="E14000730" vector-effect="none" fill="#FFB900" stroke="#FFFFFF" stroke-width="0.5" stroke-linecap="square" stroke-linejoin="bevel" d="
		M267,1248.9v2.1l1.8,1l1.8-1l1.8,1l1.8-1l1.8,1l1.8-1l1.8,1v2.1l1.8,1v2.1l-1.8,1l-1.8-1l-1.8,1l-1.8-1l-1.8,1l-1.8-1v-2.1l-1.8-1
		l-1.8,1l-1.8-1v-2.1l-1.8-1l-1.8,1l-1.8-1v-2.1l1.8-1l1.8,1l1.8-1L267,1248.9"/>
	
		<path id="E14000738" vector-effect="none" fill="#FFB900" stroke="#FFFFFF" stroke-width="0.5" stroke-linecap="square" stroke-linejoin="bevel" d="
		M263.4,1317.6v2.1l-1.8,1v2.1l-1.8,1v2.1l-1.8,1l-1.8-1l-1.8,1v2.1l-1.8,1l-1.8-1v-2.1l1.8-1v-2.1l1.8-1v-2.1l-1.8-1v-2.1l1.8-1
		l1.8,1l1.8-1l1.8,1l1.8-1L263.4,1317.6"/>
	
		<path id="E14000743" vector-effect="none" fill="#FFB900" stroke="#FFFFFF" stroke-width="0.5" stroke-linecap="square" stroke-linejoin="bevel" d="
		M191.3,1400.9l1.8,1l1.8-1l1.8,1v2.1l1.8,1v2.1l1.8,1l1.8-1l1.8,1v2.1l1.8,1l1.8-1l1.8,1v2.1l-1.8,1v2.1l-1.8,1l-1.8-1v-2.1l-1.8-1
		v-2.1l-1.8-1l-1.8,1l-1.8-1v-2.1l-1.8-1v-2.1l-1.8-1l-1.8,1l-1.8-1v-2.1l-1.8-1v-2.1l1.8-1l1.8,1V1400.9"/>
	
		<path id="E14000753" vector-effect="none" fill="#FFB900" stroke="#FFFFFF" stroke-width="0.5" stroke-linecap="square" stroke-linejoin="bevel" d="
		M319.3,1495.7v2.1l1.8,1l1.8-1l1.8,1l1.8-1l1.8,1v2.1l-1.8,1l-1.8-1l-1.8,1l-1.8-1l-1.8,1l-1.8-1l-1.8,1l-1.8-1l-1.8,1l-1.8-1
		l-1.8,1l-1.8-1v-2.1l1.8-1v-2.1l1.8-1l1.8,1l1.8-1l1.8,1l1.8-1L319.3,1495.7"/>
	
		<path id="E14000770" vector-effect="none" fill="#FFB900" stroke="#FFFFFF" stroke-width="0.5" stroke-linecap="square" stroke-linejoin="bevel" d="
		M310.3,1467.5v2.1l1.8,1v2.1l1.8,1v2.1l1.8,1v2.1l-1.8,1l-1.8-1l-1.8,1l-1.8-1l-1.8,1l-1.8-1v-2.1l-1.8-1v-2.1l1.8-1v-2.1l-1.8-1
		v-2.1l1.8-1l1.8,1l1.8-1L310.3,1467.5"/>
	
		<path id="E14000786" vector-effect="none" fill="#FFB900" stroke="#FFFFFF" stroke-width="0.5" stroke-linecap="square" stroke-linejoin="bevel" d="
		M351.8,1501.9v2.1l1.8,1l1.8-1l1.8,1v2.1l-1.8,1v2.1l-1.8,1v2.1l-1.8,1l-1.8-1v-2.1l-1.8-1v-2.1l-1.8-1v-2.1l-1.8-1l-1.8,1l-1.8-1
		v-2.1l1.8-1l1.8,1l1.8-1l1.8,1l1.8-1L351.8,1501.9"/>
	
		<path id="E14000799" vector-effect="none" fill="#FFB900" stroke="#FFFFFF" stroke-width="0.5" stroke-linecap="square" stroke-linejoin="bevel" d="
		M207.5,1383.2v2.1l-1.8,1v2.1l-1.8,1v2.1l-1.8,1v2.1l-1.8,1l-1.8-1l-1.8,1l-1.8-1v-2.1l-1.8-1v-2.1l1.8-1v-2.1l1.8-1l1.8,1l1.8-1
		v-2.1l1.8-1l1.8,1l1.8-1L207.5,1383.2"/>
	
		<path id="E14000803" vector-effect="none" fill="#FFB900" stroke="#FFFFFF" stroke-width="0.5" stroke-linecap="square" stroke-linejoin="bevel" d="
		M274.3,1436.3v2.1l-1.8,1v2.1l-1.8,1v2.1l1.8,1v2.1l1.8,1v2.1l1.8,1v2.1l-1.8,1l-1.8-1v-2.1l-1.8-1v-2.1l-1.8-1l-1.8,1l-1.8-1v-2.1
		l1.8-1v-2.1l-1.8-1v-2.1l1.8-1v-2.1l1.8-1l1.8,1l1.8-1L274.3,1436.3"/>
	
		<path id="E14000804" vector-effect="none" fill="#FFB900" stroke="#FFFFFF" stroke-width="0.5" stroke-linecap="square" stroke-linejoin="bevel" d="
		M384.3,1483.2v2.1l-1.8,1v2.1l-1.8,1l-1.8-1l-1.8,1l-1.8-1v-2.1l-1.8-1l-1.8,1l-1.8-1v-2.1l1.8-1l1.8,1l1.8-1v-2.1l1.8-1v-2.1
		l1.8-1l1.8,1v2.1l1.8,1v2.1L384.3,1483.2"/>
	
		<path id="E14000811" vector-effect="none" fill="#FFB900" stroke="#FFFFFF" stroke-width="0.5" stroke-linecap="square" stroke-linejoin="bevel" d="
		M270.7,1488.4l1.8,1l1.8-1l1.8,1v2.1l1.8,1l1.8-1l1.8,1v2.1l1.8,1l1.8-1l1.8,1v2.1l-1.8,1l-1.8-1l-1.8,1l-1.8-1v-2.1l-1.8-1l-1.8,1
		l-1.8-1l0-2.1l-1.8-1l-1.8,1l-1.8-1l-1.8,1l-1.8-1v-2.1l1.8-1v-2.1l-1.8-1v-2.1l1.8-1l1.8,1v2.1l1.8,1V1488.4"/>
	
		<path id="E14000815" vector-effect="none" fill="#FFB900" stroke="#FFFFFF" stroke-width="0.5" stroke-linecap="square" stroke-linejoin="bevel" d="
		M236.4,1489.4v2.1l-1.8,1v2.1l-1.8,1l-1.8-1l-1.8,1v2.1l-1.8,1l-1.8-1v-2.1l-1.8-1v-2.1l-1.8-1v-2.1l1.8-1l1.8,1l1.8-1l1.8,1l1.8-1
		v-2.1l1.8-1l1.8,1v2.1L236.4,1489.4"/>
	
		<path id="E14000817" vector-effect="none" fill="#FFB900" stroke="#FFFFFF" stroke-width="0.5" stroke-linecap="square" stroke-linejoin="bevel" d="
		M348.2,1495.7v2.1l1.8,1v2.1l-1.8,1l-1.8-1l-1.8,1l-1.8-1l-1.8,1v2.1l-1.8,1l-1.8-1v-2.1l-1.8-1v-2.1l1.8-1v-2.1l1.8-1l1.8,1l1.8-1
		l1.8,1l1.8-1L348.2,1495.7"/>
	
		<path id="E14000827" vector-effect="none" fill="#FFB900" stroke="#FFFFFF" stroke-width="0.5" stroke-linecap="square" stroke-linejoin="bevel" d="
		M249,1488.4l1.8,1l1.8-1l1.8,1v2.1l1.8,1v2.1l1.8,1v2.1l-1.8,1v2.1l-1.8,1l-1.8-1v-2.1l-1.8-1v-2.1l1.8-1v-2.1l-1.8-1l-1.8,1
		l-1.8-1v-2.1l-1.8-1v-2.1l-1.8-1v-2.1l-1.8-1v-2.1l1.8-1l1.8,1v2.1l1.8,1v2.1l1.8,1V1488.4"/>
	
		<path id="E14000830" vector-effect="none" fill="#FFB900" stroke="#FFFFFF" stroke-width="0.5" stroke-linecap="square" stroke-linejoin="bevel" d="
		M256.2,1457.1l-1.8,1l-1.8-1l-1.8,1l-1.8-1l-1.8,1l-1.8-1v-2.1l1.8-1v-2.1l-1.8-1v-2.1l1.8-1v-2.1l1.8-1l1.8,1v2.1l1.8,1v2.1l1.8,1
		v2.1l1.8,1V1457.1"/>
	
		<path id="E14000835" vector-effect="none" fill="#FFB900" stroke="#FFFFFF" stroke-width="0.5" stroke-linecap="square" stroke-linejoin="bevel" d="
		M185.9,1495.7v2.1l1.8,1v2.1l-1.8,1l-1.8-1l-1.8,1v2.1l-1.8,1l-1.8-1v-2.1l-1.8-1v-2.1l-1.8-1v-2.1l1.8-1l1.8,1l1.8-1v-2.1l1.8-1
		l1.8,1v2.1L185.9,1495.7"/>
	
		<path id="E14000837" vector-effect="none" fill="#FFB900" stroke="#FFFFFF" stroke-width="0.5" stroke-linecap="square" stroke-linejoin="bevel" d="
		M164.2,1489.4v2.1l-1.8,1l-1.8-1l-1.8,1l-1.8-1l-1.8,1v2.1l-1.8,1v2.1l-1.8,1v2.1l-1.8,1l-1.8-1v-2.1l-1.8-1l-1.8,1l-1.8-1l0-2.1
		l1.8-1l1.8,1l1.8-1l1.8,1l1.8-1v-2.1l1.8-1v-2.1l1.8-1l1.8,1l1.8-1v-2.1l1.8-1l1.8,1v2.1L164.2,1489.4"/>
	
		<path id="E14000838" vector-effect="none" fill="#FFB900" stroke="#FFFFFF" stroke-width="0.5" stroke-linecap="square" stroke-linejoin="bevel" d="
		M178.7,1470.7v2.1l1.8,1v2.1l1.8,1v2.1l-1.8,1l-1.8-1l-1.8,1l-1.8-1l-1.8,1l-1.8-1v-2.1l-1.8-1v-2.1l-1.8-1v-2.1l1.8-1l1.8,1l1.8-1
		l1.8,1l1.8-1L178.7,1470.7"/>
	
		<path id="E14000839" vector-effect="none" fill="#FFB900" stroke="#FFFFFF" stroke-width="0.5" stroke-linecap="square" stroke-linejoin="bevel" d="
		M236.4,1483.2v2.1l-1.8,1l-1.8-1l-1.8,1v2.1l-1.8,1l-1.8-1l-1.8,1l-1.8-1l-1.8,1l-1.8-1v-2.1l1.8-1v-2.1l1.8-1v-2.1l1.8-1l1.8,1
		v2.1l1.8,1l1.8-1v-2.1l1.8-1l1.8,1v2.1L236.4,1483.2"/>
	
		<path id="E14000847" vector-effect="none" fill="#FFB900" stroke="#FFFFFF" stroke-width="0.5" stroke-linecap="square" stroke-linejoin="bevel" d="
		M196.7,1395.7v2.1l1.8,1v2.1l1.8,1l1.8-1l1.8,1v2.1l1.8,1v2.1l1.8,1v2.1l-1.8,1l-1.8-1v-2.1l-1.8-1l-1.8,1l-1.8-1v-2.1l-1.8-1v-2.1
		l-1.8-1l-1.8,1l-1.8-1v-2.1l-1.8-1v-2.1l1.8-1l1.8,1l1.8-1L196.7,1395.7"/>
	
		<path id="E14000848" vector-effect="none" fill="#FFB900" stroke="#FFFFFF" stroke-width="0.5" stroke-linecap="square" stroke-linejoin="bevel" d="
		M375.3,1342.6v2.1l1.8,1l1.8-1l1.8,1l1.8-1l1.8,1l1.8-1l1.8,1v2.1l1.8,1l1.8-1l1.8,1v2.1l-1.8,1l-1.8-1l-1.8,1l-1.8-1v-2.1l-1.8-1
		l-1.8,1l-1.8-1l-1.8,1l-1.8-1l-1.8,1l-1.8-1v-2.1l-1.8-1l-1.8,1l-1.8-1l-1.8,1l-1.8-1v-2.1l1.8-1l1.8,1l1.8-1l1.8,1l1.8-1
		L375.3,1342.6"/>
	
		<path id="E14000850" vector-effect="none" fill="#FFB900" stroke="#FFFFFF" stroke-width="0.5" stroke-linecap="square" stroke-linejoin="bevel" d="
		M207.5,1454l1.8,1l1.8-1l1.8,1v2.1l-1.8,1v2.1l1.8,1v2.1l1.8,1v2.1l-1.8,1l-1.8-1v-2.1l-1.8-1l-1.8,1l-1.8-1v-2.1l-1.8-1v-2.1
		l1.8-1v-2.1l-1.8-1v-2.1l1.8-1l1.8,1V1454"/>
	
		<path id="E14000860" vector-effect="none" fill="#FFB900" stroke="#FFFFFF" stroke-width="0.5" stroke-linecap="square" stroke-linejoin="bevel" d="
		M238.2,1436.3v2.1l1.8,1v2.1l-1.8,1v2.1l-1.8,1v2.1l1.8,1v2.1l-1.8,1l-1.8-1l-1.8,1l-1.8-1v-2.1l1.8-1v-2.1l-1.8-1v-2.1l1.8-1v-2.1
		l-1.8-1v-2.1l1.8-1l1.8,1l1.8-1L238.2,1436.3"/>
	
		<path id="E14000874" vector-effect="none" fill="#FFB900" stroke="#FFFFFF" stroke-width="0.5" stroke-linecap="square" stroke-linejoin="bevel" d="
		M258,1435.3l-1.8,1l-1.8-1l-1.8,1l-1.8-1v-2.1l1.8-1v-2.1l-1.8-1v-2.1l1.8-1v-2.1l1.8-1v-2.1l1.8-1l1.8,1v2.1l1.8,1v2.1l1.8,1v2.1
		l-1.8,1v2.1l-1.8,1V1435.3"/>
	
		<path id="E14000881" vector-effect="none" fill="#FFB900" stroke="#FFFFFF" stroke-width="0.5" stroke-linecap="square" stroke-linejoin="bevel" d="
		M236.4,1495.7v2.1l1.8,1v2.1l1.8,1v2.1l1.8,1v2.1l-1.8,1l-1.8-1l-1.8,1l-1.8-1v-2.1l-1.8-1v-2.1l-1.8-1v-2.1l-1.8-1v-2.1l1.8-1
		l1.8,1l1.8-1L236.4,1495.7"/>
	
		<path id="E14000762" vector-effect="none" fill="#FFB900" stroke="#FFFFFF" stroke-width="0.5" stroke-linecap="square" stroke-linejoin="bevel" d="
		M263.3,1517.4l-1.8-1l-1.8,1l-1.8-1l-1.8,1l-1.8-1l0-2.1l1.8-1l0-2.1l1.8-1l0-2.1l1.8-1l1.8,1l1.8-1l1.8,1l0,2.1l1.8,1l0,2.1
		l-1.8,1l0,2.1L263.3,1517.4"/>
	
		<path id="E14000896" vector-effect="none" fill="#FFB900" stroke="#FFFFFF" stroke-width="0.5" stroke-linecap="square" stroke-linejoin="bevel" d="
		M312.1,1451.9v2.1l1.8,1v2.1l-1.8,1v2.1l-1.8,1v2.1l-1.8,1v2.1l-1.8,1l-1.8-1v-2.1l1.8-1v-2.1l-1.8-1v-2.1l-1.8-1v-2.1l1.8-1v-2.1
		l1.8-1l1.8,1l1.8-1L312.1,1451.9"/>
	
		<path id="E14000898" vector-effect="none" fill="#7D0069" stroke="#FFFFFF" stroke-width="0.5" stroke-linecap="square" stroke-linejoin="bevel" d="
		M393.3,1442.6v2.1l1.8,1v2.1l-1.8,1v2.1l-1.8,1v2.1l-1.8,1l-1.8-1v-2.1l-1.8-1v-2.1l-1.8-1v-2.1l1.8-1v-2.1l1.8-1l1.8,1l1.8-1v-2.1
		l1.8-1l1.8,1v2.1L393.3,1442.6"/>
	
		<path id="E14000901" vector-effect="none" fill="#FFB900" stroke="#FFFFFF" stroke-width="0.5" stroke-linecap="square" stroke-linejoin="bevel" d="
		M252.6,1467.5v2.1l-1.8,1v2.1l1.8,1v2.1l-1.8,1v2.1l-1.8,1l-1.8-1l-1.8,1l-1.8-1v-2.1l1.8-1v-2.1l-1.8-1v-2.1l-1.8-1v-2.1l1.8-1
		l1.8,1l1.8-1v-2.1l1.8-1l1.8,1v2.1L252.6,1467.5"/>
	
		<path id="E14000912" vector-effect="none" fill="#FFB900" stroke="#FFFFFF" stroke-width="0.5" stroke-linecap="square" stroke-linejoin="bevel" d="
		M241.8,1467.5v2.1l1.8,1v2.1l1.8,1v2.1l-1.8,1v2.1l-1.8,1l-1.8-1v-2.1l-1.8-1l-1.8,1v2.1l-1.8,1l-1.8-1v-2.1l1.8-1v-2.1l1.8-1v-2.1
		l-1.8-1v-2.1l1.8-1l1.8,1l1.8-1L241.8,1467.5"/>
	
		<path id="E14000928" vector-effect="none" fill="#FFB900" stroke="#FFFFFF" stroke-width="0.5" stroke-linecap="square" stroke-linejoin="bevel" d="
		M236.4,1239.5v2.1l1.8,1l1.8-1l1.8,1l1.8-1l1.8,1l1.8-1l1.8,1v2.1l1.8,1l1.8-1l1.8,1v2.1l-1.8,1l-1.8-1l-1.8,1l-1.8-1v-2.1l-1.8-1
		l-1.8,1l-1.8-1l-1.8,1v2.1l-1.8,1l-1.8-1v-2.1l-1.8-1v-2.1l-1.8-1l-1.8,1l-1.8-1v-2.1l1.8-1l1.8,1l1.8-1L236.4,1239.5"/>
	
		<path id="E14000931" vector-effect="none" fill="#FFB900" stroke="#FFFFFF" stroke-width="0.5" stroke-linecap="square" stroke-linejoin="bevel" d="
		M258,1395.7v2.1l-1.8,1l-1.8-1l-1.8,1v2.1l-1.8,1v2.1l-1.8,1l-1.8-1v-2.1l-1.8-1v-2.1l-1.8-1v-2.1l1.8-1l1.8,1l1.8-1l1.8,1l1.8-1
		l1.8,1l1.8-1v-2.1l1.8-1l1.8,1v2.1L258,1395.7"/>
	
		<path id="E14000932" vector-effect="none" fill="#FFB900" stroke="#FFFFFF" stroke-width="0.5" stroke-linecap="square" stroke-linejoin="bevel" d="
		M227.4,1473.8v2.1l-1.8,1l-1.8-1l-1.8,1v2.1l1.8,1v2.1l-1.8,1l-1.8-1l-1.8,1l-1.8-1l-1.8,1l-1.8-1l-1.8,1l-1.8-1l-1.8,1l-1.8-1
		v-2.1l1.8-1l1.8,1l1.8-1l1.8,1l1.8-1l1.8,1l1.8-1v-2.1l1.8-1v-2.1l1.8-1l1.8,1l1.8-1v-2.1l1.8-1l1.8,1v2.1L227.4,1473.8"/>
	
		<path id="E14000934" vector-effect="none" fill="#FFB900" stroke="#FFFFFF" stroke-width="0.5" stroke-linecap="square" stroke-linejoin="bevel" d="
		M351.8,1364.5v2.1l-1.8,1v2.1l1.8,1v2.1l1.8,1v2.1l-1.8,1l-1.8-1l-1.8,1l-1.8-1v-2.1l-1.8-1l-1.8,1l-1.8-1v-2.1l1.8-1v-2.1l1.8-1
		v-2.1l1.8-1l1.8,1l1.8-1L351.8,1364.5"/>
	
		<path id="E14000937" vector-effect="none" fill="#FFB900" stroke="#FFFFFF" stroke-width="0.5" stroke-linecap="square" stroke-linejoin="bevel" d="
		M360.8,1361.3v2.1l1.8,1v2.1l1.8,1v2.1l1.8,1v2.1l-1.8,1v2.1l-1.8,1l-1.8-1v-2.1l-1.8-1v-2.1l1.8-1v-2.1l-1.8-1l-1.8,1l-1.8-1v-2.1
		l-1.8-1l-1.8,1l-1.8-1v-2.1l1.8-1l1.8,1l1.8-1l1.8,1l1.8-1L360.8,1361.3"/>
	
		<path id="E14000938" vector-effect="none" fill="#FFB900" stroke="#FFFFFF" stroke-width="0.5" stroke-linecap="square" stroke-linejoin="bevel" d="
		M166,1492.5v2.1l-1.8,1l-1.8-1l-1.8,1l-1.8-1l-1.8,1v2.1l1.8,1v2.1l1.8,1v2.1l-1.8,1l-1.8-1l-1.8,1l-1.8-1l-1.8,1l-1.8-1v-2.1
		l1.8-1v-2.1l1.8-1v-2.1l1.8-1v-2.1l1.8-1l1.8,1l1.8-1l1.8,1l1.8-1L166,1492.5"/>
	
		<path id="E14000953" vector-effect="none" fill="#FFB900" stroke="#FFFFFF" stroke-width="0.5" stroke-linecap="square" stroke-linejoin="bevel" d="
		M288.7,1486.3v2.1l1.8,1l1.8-1l1.8,1v2.1l1.8,1l1.8-1l1.8,1v2.1l-1.8,1l-1.8-1l-1.8,1l-1.8-1l-1.8,1l-1.8-1v-2.1l-1.8-1l-1.8,1
		l-1.8-1v-2.1l-1.8-1v-2.1l1.8-1l1.8,1l1.8-1L288.7,1486.3"/>
	
		<path id="E14000958" vector-effect="none" fill="#FFB900" stroke="#FFFFFF" stroke-width="0.5" stroke-linecap="square" stroke-linejoin="bevel" d="
		M196.7,1291.6l-1.8,1l-1.8-1l-1.8,1l-1.8-1v-2.1l1.8-1v-2.1l1.8-1v-2.1l1.8-1v-2.1l1.8-1v-2.1l1.8-1l1.8,1v2.1l1.8,1v2.1l-1.8,1
		v2.1l-1.8,1v2.1l-1.8,1V1291.6"/>
	
		<path id="E14000960" vector-effect="none" fill="#FFB900" stroke="#FFFFFF" stroke-width="0.5" stroke-linecap="square" stroke-linejoin="bevel" d="
		M319.3,1395.7v2.1l-1.8,1l-1.8-1l-1.8,1v2.1l-1.8,1v2.1l-1.8,1l-1.8-1l-1.8,1l-1.8-1l-1.8,1v2.1l-1.8,1l-1.8-1v-2.1l1.8-1v-2.1
		l1.8-1l1.8,1l1.8-1v-2.1l1.8-1l1.8,1l1.8-1v-2.1l1.8-1l1.8,1l1.8-1L319.3,1395.7"/>
	
		<path id="E14000961" vector-effect="none" fill="#FFB900" stroke="#FFFFFF" stroke-width="0.5" stroke-linecap="square" stroke-linejoin="bevel" d="
		M148,1498.8v2.1l1.8,1v2.1l1.8,1v2.1l-1.8,1v2.1l-1.8,1l-1.8-1l-1.8,1l-1.8-1v-2.1l1.8-1v-2.1l-1.8-1l-1.8,1l-1.8-1v-2.1l1.8-1
		v-2.1l1.8-1l1.8,1l1.8-1L148,1498.8"/>
	
		<path id="E14000964" vector-effect="none" fill="#FFB900" stroke="#FFFFFF" stroke-width="0.5" stroke-linecap="square" stroke-linejoin="bevel" d="
		M130,1517.5v2.1l1.8,1v2.1l1.8,1l1.8-1l1.8,1v2.1l-1.8,1v2.1l-1.8,1l-1.8-1v-2.1l-1.8-1v-2.1l-1.8-1l-1.8,1l-1.8-1v-2.1l-1.8-1
		l-1.8,1v2.1l-1.8,1l-1.8-1v-2.1l1.8-1v-2.1l1.8-1l1.8,1l1.8-1l1.8,1l1.8-1L130,1517.5"/>
	
		<path id="E14000977" vector-effect="none" fill="#FFB900" stroke="#FFFFFF" stroke-width="0.5" stroke-linecap="square" stroke-linejoin="bevel" d="
		M258,1408.2v2.1l-1.8,1v2.1l-1.8,1v2.1l-1.8,1l-1.8-1l-1.8,1l-1.8-1l-1.8,1l-1.8-1v-2.1l1.8-1v-2.1l1.8-1v-2.1l1.8-1l1.8,1l1.8-1
		l1.8,1l1.8-1L258,1408.2"/>
	
		<path id="E14000984" vector-effect="none" fill="#FFB900" stroke="#FFFFFF" stroke-width="0.5" stroke-linecap="square" stroke-linejoin="bevel" d="
		M323,1476.9v2.1l1.8,1v2.1l-1.8,1v2.1l1.8,1v2.1l-1.8,1l-1.8-1l-1.8,1l-1.8-1v-2.1l-1.8-1v-2.1l-1.8-1v-2.1l1.8-1v-2.1l1.8-1l1.8,1
		l1.8-1L323,1476.9"/>
	
		<path id="E14000988" vector-effect="none" fill="#FFB900" stroke="#FFFFFF" stroke-width="0.5" stroke-linecap="square" stroke-linejoin="bevel" d="
		M205.7,1480v2.1l-1.8,1v2.1l-1.8,1v2.1l-1.8,1l-1.8-1v-2.1l-1.8-1l-1.8,1l-1.8-1v-2.1l-1.8-1v-2.1l1.8-1l1.8,1l1.8-1l1.8,1l1.8-1
		l1.8,1l1.8-1L205.7,1480"/>
	
		<path id="E14000990" vector-effect="none" fill="#FFB900" stroke="#FFFFFF" stroke-width="0.5" stroke-linecap="square" stroke-linejoin="bevel" d="
		M234.6,1417.6v2.1l-1.8,1l-1.8-1l-1.8,1v2.1l1.8,1v2.1l1.8,1l1.8-1l1.8,1v2.1l-1.8,1l-1.8-1l-1.8,1l-1.8-1v-2.1l-1.8-1v-2.1l-1.8-1
		l-1.8,1l-1.8-1v-2.1l1.8-1v-2.1l1.8-1l1.8,1l1.8-1l1.8,1l1.8-1L234.6,1417.6"/>
	
		<path id="E14000991" vector-effect="none" fill="#FFB900" stroke="#FFFFFF" stroke-width="0.5" stroke-linecap="square" stroke-linejoin="bevel" d="
		M243.6,1426.9v2.1l-1.8,1v2.1l-1.8,1v2.1l-1.8,1l-1.8-1l-1.8,1l-1.8-1v-2.1l1.8-1v-2.1l1.8-1v-2.1l1.8-1l1.8,1l1.8-1v-2.1l1.8-1
		v-2.1l1.8-1v-2.1l1.8-1l1.8,1v2.1l-1.8,1v2.1l-1.8,1v2.1L243.6,1426.9"/>
	
		<path id="E14000994" vector-effect="none" fill="#FFB900" stroke="#FFFFFF" stroke-width="0.5" stroke-linecap="square" stroke-linejoin="bevel" d="
		M220.2,1432.1l1.8,1l1.8-1l1.8,1v2.1l1.8,1l1.8-1l1.8,1v2.1l1.8,1v2.1l-1.8,1v2.1l-1.8,1l-1.8-1v-2.1l-1.8-1v-2.1l-1.8-1v-2.1
		l-1.8-1l-1.8,1l-1.8-1v-2.1l-1.8-1v-2.1l1.8-1l1.8,1V1432.1"/>
	
		<path id="E14000996" vector-effect="none" fill="#FFB900" stroke="#FFFFFF" stroke-width="0.5" stroke-linecap="square" stroke-linejoin="bevel" d="
		M191.3,1480v2.1l1.8,1v2.1l1.8,1l1.8-1l1.8,1v2.1l1.8,1l1.8-1l1.8,1v2.1l-1.8,1l-1.8-1l-1.8,1l-1.8-1v-2.1l-1.8-1l-1.8,1l-1.8-1
		v-2.1l-1.8-1l-1.8,1l-1.8-1v-2.1l-1.8-1l-1.8,1l-1.8-1v-2.1l1.8-1l1.8,1l1.8-1l1.8,1l1.8-1L191.3,1480"/>
	
		<path id="E14000999" vector-effect="none" fill="#FFB900" stroke="#FFFFFF" stroke-width="0.5" stroke-linecap="square" stroke-linejoin="bevel" d="
		M189.5,1501.9v2.1l1.8,1v2.1l1.8,1v2.1l-1.8,1v2.1l-1.8,1l-1.8-1v-2.1l-1.8-1l-1.8,1l-1.8-1v-2.1l1.8-1v-2.1l-1.8-1v-2.1l1.8-1
		l1.8,1l1.8-1L189.5,1501.9"/>
	
		<path id="E14001000" vector-effect="none" fill="#FFB900" stroke="#FFFFFF" stroke-width="0.5" stroke-linecap="square" stroke-linejoin="bevel" d="
		M167.8,1483.2v2.1l1.8,1v2.1l1.8,1v2.1l1.8,1l0,2.1l-1.8,1l-1.8-1l-1.8,1l-1.8-1v-2.1l-1.8-1v-2.1l-1.8-1v-2.1l-1.8-1v-2.1l1.8-1
		l1.8,1l1.8-1v-2.1l1.8-1l1.8,1v2.1L167.8,1483.2"/>
	
		<path id="E14001001" vector-effect="none" fill="#FFB900" stroke="#FFFFFF" stroke-width="0.5" stroke-linecap="square" stroke-linejoin="bevel" d="
		M178.7,1504l1.8,1l1.8-1l1.8,1v2.1l-1.8,1v2.1l1.8,1l1.8-1l1.8,1v2.1l-1.8,1l-1.8-1l-1.8,1l-1.8-1l-1.8,1l-1.8-1v-2.1l1.8-1v-2.1
		l-1.8-1v-2.1l-1.8-1v-2.1l-1.8-1v-2.1l-1.8-1v-2.1l1.8-1l1.8,1v2.1l1.8,1v2.1l1.8,1V1504"/>
	
		<path id="E14001005" vector-effect="none" fill="#FFB900" stroke="#FFFFFF" stroke-width="0.5" stroke-linecap="square" stroke-linejoin="bevel" d="
		M304.9,1458.2v2.1l1.8,1v2.1l-1.8,1v2.1l-1.8,1v2.1l1.8,1v2.1l-1.8,1l-1.8-1v-2.1l-1.8-1v-2.1l-1.8-1v-2.1l-1.8-1v-2.1l-1.8-1v-2.1
		l1.8-1l1.8,1l1.8-1l1.8,1l1.8-1L304.9,1458.2"/>
	
		<path id="E14001026" vector-effect="none" fill="#FFB900" stroke="#FFFFFF" stroke-width="0.5" stroke-linecap="square" stroke-linejoin="bevel" d="
		M211.1,1472.8l1.8,1l1.8-1l1.8,1l1.8-1l1.8,1v2.1l-1.8,1v2.1l-1.8,1l-1.8-1l-1.8,1l-1.8-1l-1.8,1l-1.8-1v-2.1l-1.8-1l-1.8,1l-1.8-1
		v-2.1l1.8-1l1.8,1l1.8-1v-2.1l1.8-1l1.8,1V1472.8"/>
	
		<path id="E14001031" vector-effect="none" fill="#FFB900" stroke="#FFFFFF" stroke-width="0.5" stroke-linecap="square" stroke-linejoin="bevel" d="
		M222,1489.4v2.1l-1.8,1v2.1l-1.8,1l-1.8-1l-1.8,1l-1.8-1v-2.1l-1.8-1l-1.8,1l-1.8-1l-1.8,1l-1.8-1v-2.1l1.8-1l1.8,1l1.8-1l1.8,1
		l1.8-1l1.8,1l1.8-1v-2.1l1.8-1v-2.1l1.8-1l1.8,1v2.1l-1.8,1v2.1L222,1489.4"/>
	
		<path id="E14001035" vector-effect="none" fill="#FFB900" stroke="#FFFFFF" stroke-width="0.5" stroke-linecap="square" stroke-linejoin="bevel" d="
		M211.1,1410.3l1.8,1l1.8-1l1.8,1v2.1l1.8,1l1.8-1l1.8,1l1.8-1l1.8,1v2.1l-1.8,1v2.1l-1.8,1l-1.8-1v-2.1l-1.8-1l-1.8,1l-1.8-1v-2.1
		l-1.8-1l-1.8,1l-1.8-1v-2.1l-1.8-1v-2.1l-1.8-1v-2.1l1.8-1l1.8,1v2.1l1.8,1V1410.3"/>
	
		<path id="E14001037" vector-effect="none" fill="#FFB900" stroke="#FFFFFF" stroke-width="0.5" stroke-linecap="square" stroke-linejoin="bevel" d="
		M220.2,1230.1v2.1l1.8,1l1.8-1l1.8,1l1.8-1l1.8,1v2.1l-1.8,1l-1.8-1l-1.8,1l-1.8-1l-1.8,1l-1.8-1l-1.8,1v2.1l-1.8,1v2.1l-1.8,1
		l-1.8-1v-2.1l1.8-1v-2.1l-1.8-1v-2.1l1.8-1v-2.1l1.8-1l1.8,1l1.8-1L220.2,1230.1"/>
	
		<path id="E14001038" vector-effect="none" fill="#FFB900" stroke="#FFFFFF" stroke-width="0.5" stroke-linecap="square" stroke-linejoin="bevel" d="
		M205.7,1463.4l1.8,1l1.8-1l1.8,1v2.1l1.8,1v2.1l-1.8,1l-1.8-1l-1.8,1v2.1l-1.8,1l-1.8-1v-2.1l-1.8-1v-2.1l-1.8-1v-2.1l1.8-1v-2.1
		l1.8-1l1.8,1V1463.4"/>
	
		<path id="E14001041" vector-effect="none" fill="#FFB900" stroke="#FFFFFF" stroke-width="0.5" stroke-linecap="square" stroke-linejoin="bevel" d="
		M259.8,1475.9l1.8,1l1.8-1l1.8,1v2.1l1.8,1v2.1l-1.8,1l-1.8-1l-1.8,1l-1.8-1v-2.1l-1.8-1v-2.1l-1.8-1l-1.8,1l-1.8-1v-2.1l-1.8-1
		v-2.1l1.8-1v-2.1l1.8-1l1.8,1v2.1l1.8,1v2.1l1.8,1V1475.9"/>
	
		<path id="E14001047" vector-effect="none" fill="#FFB900" stroke="#FFFFFF" stroke-width="0.5" stroke-linecap="square" stroke-linejoin="bevel" d="
		M297.7,1476.9v2.1l1.8,1v2.1l-1.8,1v2.1l-1.8,1l-1.8-1l-1.8,1l-1.8-1v-2.1l-1.8-1l-1.8,1l-1.8-1v-2.1l-1.8-1v-2.1l1.8-1l1.8,1
		l1.8-1l1.8,1l1.8-1l1.8,1l1.8-1L297.7,1476.9"/>
	
		<path id="E14001060" vector-effect="none" fill="#FFB900" stroke="#FFFFFF" stroke-width="0.5" stroke-linecap="square" stroke-linejoin="bevel" d="
		M218.3,1483.2v2.1l-1.8,1v2.1l-1.8,1l-1.8-1l-1.8,1l-1.8-1l-1.8,1l-1.8-1l-1.8,1l-1.8-1v-2.1l1.8-1v-2.1l1.8-1l1.8,1l1.8-1l1.8,1
		l1.8-1l1.8,1l1.8-1L218.3,1483.2"/>
	
		<path id="E14001062" vector-effect="none" fill="#FFB900" stroke="#FFFFFF" stroke-width="0.5" stroke-linecap="square" stroke-linejoin="bevel" d="
		M295.9,1269.7l1.8,1l1.8-1l1.8,1l1.8-1l1.8,1v2.1l1.8,1v2.1l-1.8,1l-1.8-1l-1.8,1l-1.8-1v-2.1l-1.8-1l-1.8,1l-1.8-1v-2.1l-1.8-1
		v-2.1l-1.8-1v-2.1l-1.8-1v-2.1l1.8-1l1.8,1v2.1l1.8,1v2.1l1.8,1V1269.7"/>
	
		<path id="S14000005_7_" vector-effect="none" fill="#FCDD03" stroke="#FFFFFF" stroke-width="0.5" stroke-linecap="square" stroke-linejoin="bevel" d="
		M149.8,1154.1l-1.8,1l-1.8-1v-2.1l1.8-1l1.8,1V1154.1"/>
	
		<path id="S14000005_6_" vector-effect="none" fill="#FCDD03" stroke="#FFFFFF" stroke-width="0.5" stroke-linecap="square" stroke-linejoin="bevel" d="
		M155.2,1151l-1.8,1l-1.8-1v-2.1l1.8-1v-2.1l1.8-1l1.8,1v2.1l-1.8,1V1151"/>
	
		<path id="S14000005_5_" vector-effect="none" fill="#FCDD03" stroke="#FFFFFF" stroke-width="0.5" stroke-linecap="square" stroke-linejoin="bevel" d="
		M157,1141.6l-1.8,1l-1.8-1l-1.8,1l-1.8-1v-2.1l1.8-1v-2.1l1.8-1l1.8,1v2.1l1.8,1V1141.6"/>
	
		<path id="S14000005_4_" vector-effect="none" fill="#FCDD03" stroke="#FFFFFF" stroke-width="0.5" stroke-linecap="square" stroke-linejoin="bevel" d="
		M162.4,1144.7l-1.8,1l-1.8-1v-2.1l1.8-1v-2.1l1.8-1v-2.1l1.8-1v-2.1l1.8-1l1.8,1v2.1l-1.8,1v2.1l-1.8,1v2.1l-1.8,1V1144.7"/>
	
		<path id="S14000008" vector-effect="none" fill="#FCDD03" stroke="#FFFFFF" stroke-width="0.5" stroke-linecap="square" stroke-linejoin="bevel" d="
		M225.6,1197.9l-1.8,1l-1.8-1l-1.8,1v2.1l-1.8,1v2.1l-1.8,1l-1.8-1l-1.8,1l-1.8-1v-2.1l1.8-1v-2.1l1.8-1l1.8,1l1.8-1v-2.1l1.8-1
		v-2.1l1.8-1v-2.1l1.8-1v-2.1l1.8-1l1.8,1v2.1l-1.8,1v2.1l-1.8,1v2.1l1.8,1V1197.9"/>
	
		<path id="S14000009_1_" vector-effect="none" fill="#FCDD03" stroke="#FFFFFF" stroke-width="0.5" stroke-linecap="square" stroke-linejoin="bevel" d="
		M182.3,1095.8v2.1l-1.8,1v2.1l-1.8,1v2.1l-1.8,1l-1.8-1v-2.1l-1.8-1v-2.1l-1.8-1v-2.1l-1.8-1v-2.1l1.8-1l1.8,1v2.1l1.8,1l1.8-1
		v-2.1l1.8-1v-2.1l1.8-1l1.8,1v2.1l1.8,1v2.1L182.3,1095.8"/>
	
		<path id="S14000013" vector-effect="none" fill="#FCDD03" stroke="#FFFFFF" stroke-width="0.5" stroke-linecap="square" stroke-linejoin="bevel" d="
		M200.3,1208.3v2.1l-1.8,1l-1.8-1l-1.8,1l-1.8-1l-1.8,1v2.1l-1.8,1l-1.8-1l-1.8,1l-1.8-1l-1.8,1l-1.8-1l-1.8,1v2.1l-1.8,1l-1.8-1
		v-2.1l1.8-1v-2.1l1.8-1l1.8,1l1.8-1l1.8,1l1.8-1v-2.1l1.8-1l1.8,1l1.8-1l1.8,1l1.8-1l1.8,1l1.8-1L200.3,1208.3"/>
	
		<path id="S14000014" vector-effect="none" fill="#FCDD03" stroke="#FFFFFF" stroke-width="0.5" stroke-linecap="square" stroke-linejoin="bevel" d="
		M211.1,1204.1l1.8,1l1.8-1l1.8,1v2.1l-1.8,1l-1.8-1l-1.8,1l-1.8-1l-1.8,1l-1.8-1l-1.8,1l-1.8-1v-2.1l1.8-1v-2.1l1.8-1v-2.1l1.8-1
		v-2.1l1.8-1l1.8,1v2.1l1.8,1v2.1l-1.8,1V1204.1"/>
	
		<path id="S14000018_1_" vector-effect="none" fill="#FCDD03" stroke="#FFFFFF" stroke-width="0.5" stroke-linecap="square" stroke-linejoin="bevel" d="
		M182.3,1141.6l1.8,1v2.1l1.8,1v2.1l1.8,1v2.1l1.8,1v2.1l-1.8,1l-1.8-1v-2.1l-1.8-1v-2.1l-1.8-1v-2.1l-1.8-1v-2.1l-1.8-1l-1.8,1v2.1
		l-1.8,1l-1.8-1v-2.1l1.8-1v-2.1l1.8-1v-2.1l1.8-1l1.8,1v2.1l1.8,1V1141.6"/>
	
		<path id="S14000026_1_" vector-effect="none" fill="#FCDD03" stroke="#FFFFFF" stroke-width="0.5" stroke-linecap="square" stroke-linejoin="bevel" d="
		M207.5,1158.3v2.1l-1.8,1v2.1l1.8,1v2.1l-1.8,1v2.1l1.8,1v2.1l-1.8,1l-1.8-1v-2.1l-1.8-1v-2.1l-1.8-1v-2.1l-1.8-1v-2.1l-1.8-1v-2.1
		l1.8-1l1.8,1l1.8-1l1.8,1l1.8-1L207.5,1158.3"/>
	
		<path id="S14000037_1_" vector-effect="none" fill="#FCDD03" stroke="#FFFFFF" stroke-width="0.5" stroke-linecap="square" stroke-linejoin="bevel" d="
		M227.4,1105.2v2.1l-1.8,1l-1.8-1l-1.8,1l-1.8-1l-1.8,1l-1.8-1l-1.8,1l-1.8-1l-1.8,1v2.1l-1.8,1v2.1l-1.8,1l-1.8-1l-1.8,1l-1.8-1
		v-2.1l1.8-1v-2.1l1.8-1l1.8,1l1.8-1v-2.1l1.8-1l1.8,1l1.8-1l1.8,1l1.8-1l1.8,1l1.8-1l1.8,1l1.8-1L227.4,1105.2"/>
	
		<path id="S14000039_1_" vector-effect="none" fill="#FCDD03" stroke="#FFFFFF" stroke-width="0.5" stroke-linecap="square" stroke-linejoin="bevel" d="
		M185.9,1108.3v2.1l1.8,1l1.8-1l1.8,1v2.1l-1.8,1l-1.8-1l-1.8,1v2.1l-1.8,1l-1.8-1l-1.8,1l0,2.1l-1.8,1l-1.8-1v-2.1l1.8-1v-2.1
		l-1.8-1v-2.1l1.8-1v-2.1l1.8-1l1.8,1l1.8-1L185.9,1108.3"/>
	
		<path id="S14000049_1_" vector-effect="none" fill="#FCDD03" stroke="#FFFFFF" stroke-width="0.5" stroke-linecap="square" stroke-linejoin="bevel" d="
		M209.3,1136.4v2.1l1.8,1l1.8-1l1.8,1v2.1l1.8,1l1.8-1l1.8,1v2.1l1.8,1l1.8-1l1.8,1v2.1l-1.8,1l-1.8-1l-1.8,1l-1.8-1v-2.1l-1.8-1
		l-1.8,1l-1.8-1v-2.1l-1.8-1l-1.8,1l-1.8-1v-2.1l-1.8-1l-1.8,1l-1.8-1v-2.1l1.8-1l1.8,1l1.8-1L209.3,1136.4"/>
	
		<path id="S14000051_5_" vector-effect="none" fill="#FCDD03" stroke="#FFFFFF" stroke-width="0.5" stroke-linecap="square" stroke-linejoin="bevel" d="
		M189.5,1085.4l-1.8,1l-1.8-1v-2.1l1.8-1l1.8,1V1085.4"/>
	
		<path id="S14000051_4_" vector-effect="none" fill="#FCDD03" stroke="#FFFFFF" stroke-width="0.5" stroke-linecap="square" stroke-linejoin="bevel" d="
		M193.1,1079.1l1.8,1v2.1l-1.8,1l-1.8-1v-2.1l-1.8-1l-1.8,1l-1.8-1v-2.1l1.8-1v-2.1l1.8-1l1.8,1v2.1l1.8,1V1079.1"/>
	
		<path id="S14000051_3_" vector-effect="none" fill="#FCDD03" stroke="#FFFFFF" stroke-width="0.5" stroke-linecap="square" stroke-linejoin="bevel" d="
		M220.2,1042.7v2.1l-1.8,1l-1.8-1l-1.8,1l-1.8-1v-2.1l1.8-1l1.8,1l1.8-1v-2.1l-1.8-1v-2.1l1.8-1v-2.1l1.8-1l1.8,1v2.1l-1.8,1v2.1
		l1.8,1v2.1L220.2,1042.7"/>
	
		<path id="S14000055_3_" vector-effect="none" fill="#FCDD03" stroke="#FFFFFF" stroke-width="0.5" stroke-linecap="square" stroke-linejoin="bevel" d="
		M164.2,1108.3v2.1l-1.8,1v2.1l-1.8,1l-1.8-1v-2.1l-1.8-1v-2.1l1.8-1l1.8,1l1.8-1L164.2,1108.3"/>
	
		<path id="S14000055_2_" vector-effect="none" fill="#FCDD03" stroke="#FFFFFF" stroke-width="0.5" stroke-linecap="square" stroke-linejoin="bevel" d="
		M180.5,1105.2v2.1l-1.8,1v2.1l-1.8,1v2.1l1.8,1v2.1l-1.8,1v2.1l-1.8,1l-1.8-1v-2.1l1.8-1v-2.1l-1.8-1v-2.1l-1.8-1v-2.1l1.8-1v-2.1
		l1.8-1l1.8,1l1.8-1L180.5,1105.2"/>
	
		<path id="S14000058_1_" vector-effect="none" fill="#FCDD03" stroke="#FFFFFF" stroke-width="0.5" stroke-linecap="square" stroke-linejoin="bevel" d="
		M214.7,1114.5v2.1l-1.8,1l-1.8-1l-1.8,1v2.1l-1.8,1l-1.8-1v-2.1l-1.8-1l-1.8,1l-1.8-1l-1.8,1l-1.8-1l-1.8,1l-1.8-1l-1.8,1l-1.8-1
		l-1.8,1l-1.8-1v-2.1l1.8-1l1.8,1l1.8-1l1.8,1l1.8-1l1.8,1l1.8-1l1.8,1l1.8-1l1.8,1l1.8-1l1.8,1l1.8-1l1.8,1l1.8-1L214.7,1114.5"/>
	
		<path id="W07000067_1_" vector-effect="none" fill="#868686" stroke="#FFFFFF" stroke-width="0.5" stroke-linecap="square" stroke-linejoin="bevel" d="
		M184.1,1392.6v2.1l-1.8,1v2.1l1.8,1v2.1l-1.8,1v2.1l-1.8,1l-1.8-1l-1.8,1l-1.8-1l-1.8,1l-1.8-1v-2.1l1.8-1v-2.1l1.8-1l0-2.1l1.8-1
		v-2.1l1.8-1l1.8,1l1.8-1L184.1,1392.6"/>
	
		<path id="E14000884" vector-effect="none" fill="#FFB900" stroke="#FFFFFF" stroke-width="0.5" stroke-linecap="square" stroke-linejoin="bevel" d="
		M286.9,1508.2v2.1l1.8,1v2.1l1.8,1v2.1l-1.8,1l-1.8-1l-1.8,1l-1.8-1l-1.8,1l-1.8-1v-2.1l-1.8-1v-2.1l1.8-1v-2.1l1.8-1l1.8,1l1.8-1
		L286.9,1508.2"/>
</g>
<g id="con">
	
		<path id="E14000553" vector-effect="none" display="inline" fill="#FFB900" stroke="#FFFFFF" stroke-width="0.5" stroke-linecap="square" stroke-linejoin="bevel" d="
		M344.6,1439.4v2.1l1.8,1l1.8-1l1.8,1v2.1l1.8,1v2.1l-1.8,1l-1.8-1l-1.8,1l-1.8-1l-1.8,1l-1.8-1v-2.1l-1.8-1v-2.1l-1.8-1v-2.1l1.8-1
		l1.8,1l1.8-1L344.6,1439.4"/>
	
		<path id="E14000563" vector-effect="none" display="inline" fill="#FFB900" stroke="#FFFFFF" stroke-width="0.5" stroke-linecap="square" stroke-linejoin="bevel" d="
		M268.8,1377v2.1l-1.8,1l-1.8-1l-1.8,1v2.1l-1.8,1v2.1l-1.8,1l-1.8-1l-1.8,1l-1.8-1v-2.1l1.8-1v-2.1l-1.8-1v-2.1l1.8-1l1.8,1l1.8-1
		l1.8,1l1.8-1l1.8,1l1.8-1L268.8,1377"/>
	
		<path id="E14000568" vector-effect="none" display="inline" fill="#FFB900" stroke="#FFFFFF" stroke-width="0.5" stroke-linecap="square" stroke-linejoin="bevel" d="
		M267,1386.3v2.1l-1.8,1l-1.8-1l-1.8,1v2.1l-1.8,1l-1.8-1l-1.8,1l-1.8-1v-2.1l-1.8-1v-2.1l1.8-1l1.8,1l1.8-1l1.8,1l1.8-1v-2.1l1.8-1
		v-2.1l1.8-1l1.8,1v2.1l1.8,1v2.1L267,1386.3"/>
	
		<path id="E14000574" vector-effect="none" display="inline" fill="#FFB900" stroke="#FFFFFF" stroke-width="0.5" stroke-linecap="square" stroke-linejoin="bevel" d="
		M232.8,1214.5v2.1l1.8,1l1.8-1l1.8,1l1.8-1l1.8,1v2.1l1.8,1l1.8-1l1.8,1v2.1l-1.8,1l-1.8-1l-1.8,1l-1.8-1l-1.8,1l-1.8-1v-2.1
		l-1.8-1l-1.8,1l-1.8-1l-1.8,1l-1.8-1v-2.1l-1.8-1v-2.1l1.8-1l1.8,1l1.8-1L232.8,1214.5"/>
	
		<path id="E14000587" vector-effect="none" display="inline" fill="#FFB900" stroke="#FFFFFF" stroke-width="0.5" stroke-linecap="square" stroke-linejoin="bevel" d="
		M263.4,1269.7l-1.8,1l-1.8-1v-2.1l-1.8-1v-2.1l-1.8-1v-2.1l-1.8-1v-2.1l1.8-1v-2.1l1.8-1l1.8,1v2.1l1.8,1v2.1l1.8,1v2.1l1.8,1v2.1
		l-1.8,1V1269.7"/>
	
		<path id="E14000591" vector-effect="none" display="inline" fill="#FFB900" stroke="#FFFFFF" stroke-width="0.5" stroke-linecap="square" stroke-linejoin="bevel" d="
		M319.3,1420.7v2.1l-1.8,1v2.1l1.8,1v2.1l-1.8,1v2.1l-1.8,1l-1.8-1l-1.8,1l-1.8-1l-1.8,1l-1.8-1v-2.1l1.8-1v-2.1l1.8-1v-2.1l1.8-1
		v-2.1l1.8-1l1.8,1l1.8-1L319.3,1420.7"/>
	
		<path id="E14000602" vector-effect="none" display="inline" fill="#FFB900" stroke="#FFFFFF" stroke-width="0.5" stroke-linecap="square" stroke-linejoin="bevel" d="
		M216.5,1448.8v2.1l1.8,1v2.1l1.8,1v2.1l-1.8,1l-1.8-1l-1.8,1l-1.8-1v-2.1l-1.8-1l-1.8,1l-1.8-1v-2.1l1.8-1v-2.1l1.8-1l1.8,1l1.8-1
		v-2.1l1.8-1l1.8,1v2.1L216.5,1448.8"/>
	
		<path id="E14000617" vector-effect="none" display="inline" fill="#FFB900" stroke="#FFFFFF" stroke-width="0.5" stroke-linecap="square" stroke-linejoin="bevel" d="
		M355.4,1366.5l1.8,1l1.8-1l1.8,1v2.1l-1.8,1v2.1l1.8,1v2.1l-1.8,1l-1.8-1l-1.8,1l-1.8-1v-2.1l-1.8-1v-2.1l-1.8-1v-2.1l1.8-1v-2.1
		l1.8-1l1.8,1V1366.5"/>
	
		<path id="E14000632" vector-effect="none" display="inline" fill="#FFB900" stroke="#FFFFFF" stroke-width="0.5" stroke-linecap="square" stroke-linejoin="bevel" d="
		M292.3,1323.8v2.1l-1.8,1v2.1l-1.8,1l-1.8-1l-1.8,1v2.1l-1.8,1l-1.8-1l-1.8,1l-1.8-1l-1.8,1l-1.8-1l-1.8,1l-1.8-1l-1.8,1l-1.8-1
		v-2.1l1.8-1l1.8,1l1.8-1l1.8,1l1.8-1l1.8,1l1.8-1v-2.1l1.8-1l1.8,1l1.8-1v-2.1l1.8-1l1.8,1l1.8-1L292.3,1323.8"/>
	
		<path id="E14000641" vector-effect="none" display="inline" fill="#FFB900" stroke="#FFFFFF" stroke-width="0.5" stroke-linecap="square" stroke-linejoin="bevel" d="
		M243.6,1227v2.1l1.8,1l1.8-1l1.8,1l1.8-1l1.8,1l1.8-1l1.8,1l1.8-1l1.8,1l1.8-1l1.8,1v2.1l-1.8,1l-1.8-1l-1.8,1l-1.8-1l-1.8,1
		l-1.8-1l-1.8,1l-1.8-1l-1.8,1l-1.8-1l-1.8,1l-1.8-1l-1.8,1l-1.8-1v-2.1l-1.8-1v-2.1l1.8-1l1.8,1l1.8-1L243.6,1227"/>
	
		<path id="E14000716" vector-effect="none" display="inline" fill="#7D0069" stroke="#FFFFFF" stroke-width="0.5" stroke-linecap="square" stroke-linejoin="bevel" d="
		M341,1302v2.1l1.8,1v2.1l-1.8,1v2.1l-1.8,1v2.1l-1.8,1l-1.8-1v-2.1l-1.8-1v-2.1l-1.8-1v-2.1l1.8-1v-2.1l1.8-1l1.8,1l1.8-1L341,1302
		"/>
	
		<path id="E14000752" vector-effect="none" display="inline" fill="#FFB900" stroke="#FFFFFF" stroke-width="0.5" stroke-linecap="square" stroke-linejoin="bevel" d="
		M337.4,1408.2v2.1l1.8,1v2.1l1.8,1v2.1l-1.8,1l-1.8-1l-1.8,1l-1.8-1l-1.8,1l-1.8-1l-1.8,1l-1.8-1v-2.1l1.8-1v-2.1l1.8-1v-2.1l1.8-1
		l1.8,1l1.8-1L337.4,1408.2"/>
	
		<path id="E14000764" vector-effect="none" display="inline" fill="#FFB900" stroke="#FFFFFF" stroke-width="0.5" stroke-linecap="square" stroke-linejoin="bevel" d="
		M344.6,1426.9v2.1l1.8,1v2.1l-1.8,1v2.1l-1.8,1l-1.8-1l-1.8,1l-1.8-1v-2.1l-1.8-1v-2.1l-1.8-1v-2.1l1.8-1l1.8,1l1.8-1l1.8,1l1.8-1
		L344.6,1426.9"/>
	
		<path id="E14000772" vector-effect="none" display="inline" fill="#FFB900" stroke="#FFFFFF" stroke-width="0.5" stroke-linecap="square" stroke-linejoin="bevel" d="
		M324.8,1280.1v2.1l1.8,1l1.8-1l1.8,1v2.1l-1.8,1v2.1l-1.8,1l-1.8-1l-1.8,1l-1.8-1l-1.8,1l-1.8-1v-2.1l1.8-1v-2.1l-1.8-1v-2.1l1.8-1
		l1.8,1l1.8-1L324.8,1280.1"/>
	
		<path id="E14000780" vector-effect="none" display="inline" fill="#FFB900" stroke="#FFFFFF" stroke-width="0.5" stroke-linecap="square" stroke-linejoin="bevel" d="
		M259.8,1248.9v2.1l1.8,1l1.8-1l1.8,1v2.1l1.8,1l1.8-1l1.8,1v2.1l1.8,1v2.1l1.8,1v2.1l-1.8,1l-1.8-1v-2.1l-1.8-1v-2.1l-1.8-1l-1.8,1
		l-1.8-1l-1.8,1l-1.8-1v-2.1l-1.8-1v-2.1l-1.8-1l-1.8,1l-1.8-1v-2.1l1.8-1l1.8,1l1.8-1L259.8,1248.9"/>
	
		<path id="E14000795" vector-effect="none" display="inline" fill="#FFB900" stroke="#FFFFFF" stroke-width="0.5" stroke-linecap="square" stroke-linejoin="bevel" d="
		M207.5,1320.7v2.1l-1.8,1l-1.8-1l-1.8,1v2.1l-1.8,1v2.1l-1.8,1l-1.8-1v-2.1l-1.8-1v-2.1l1.8-1v-2.1l-1.8-1v-2.1l1.8-1l1.8,1v2.1
		l1.8,1l1.8-1v-2.1l1.8-1l1.8,1v2.1L207.5,1320.7"/>
	
		<path id="E14000808" vector-effect="none" display="inline" fill="#FFB900" stroke="#FFFFFF" stroke-width="0.5" stroke-linecap="square" stroke-linejoin="bevel" d="
		M250.8,1308.2v2.1l-1.8,1v2.1l-1.8,1v2.1l-1.8,1l-1.8-1v-2.1l-1.8-1l-1.8,1l-1.8-1l-1.8,1l-1.8-1v-2.1l1.8-1l1.8,1l1.8-1v-2.1
		l1.8-1l1.8,1l1.8-1l1.8,1l1.8-1L250.8,1308.2"/>
	
		<path id="E14000809" vector-effect="none" display="inline" fill="#FFB900" stroke="#FFFFFF" stroke-width="0.5" stroke-linecap="square" stroke-linejoin="bevel" d="
		M243.6,1314.5v2.1l-1.8,1v2.1l1.8,1v2.1l-1.8,1v2.1l-1.8,1l-1.8-1v-2.1l-1.8-1v-2.1l-1.8-1l-1.8,1l-1.8-1v-2.1l1.8-1v-2.1l1.8-1
		l1.8,1l1.8-1l1.8,1l1.8-1L243.6,1314.5"/>
	
		<path id="E14000832" vector-effect="none" display="inline" fill="#FFB900" stroke="#FFFFFF" stroke-width="0.5" stroke-linecap="square" stroke-linejoin="bevel" d="
		M241.8,1207.2l1.8,1l1.8-1l1.8,1l1.8-1l1.8,1v2.1l1.8,1l1.8-1l1.8,1v2.1l-1.8,1l-1.8-1l-1.8,1l-1.8-1l-1.8,1l-1.8-1l-1.8,1l-1.8-1
		v-2.1l-1.8-1v-2.1l-1.8-1v-2.1l1.8-1l1.8,1V1207.2"/>
	
		<path id="E14000833" vector-effect="none" display="inline" fill="#FFB900" stroke="#FFFFFF" stroke-width="0.5" stroke-linecap="square" stroke-linejoin="bevel" d="
		M240,1202v2.1l-1.8,1v2.1l-1.8,1l-1.8-1l-1.8,1l-1.8-1l-1.8,1l-1.8-1l-1.8,1v2.1l1.8,1v2.1l-1.8,1l-1.8-1v-2.1l-1.8-1v-2.1l1.8-1
		v-2.1l1.8-1v-2.1l1.8-1l1.8,1l1.8-1l1.8,1l1.8-1l1.8,1l1.8-1L240,1202"/>
	
		<path id="E14000873" vector-effect="none" display="inline" fill="#FFB900" stroke="#FFFFFF" stroke-width="0.5" stroke-linecap="square" stroke-linejoin="bevel" d="
		M267,1417.6v2.1l1.8,1v2.1l-1.8,1v2.1l-1.8,1l-1.8-1l-1.8,1l-1.8-1v-2.1l-1.8-1v-2.1l1.8-1v-2.1l-1.8-1v-2.1l1.8-1l1.8,1v2.1l1.8,1
		l1.8-1v-2.1l1.8-1l1.8,1v2.1L267,1417.6"/>
	
		<path id="E14000897" vector-effect="none" display="inline" fill="#FFB900" stroke="#FFFFFF" stroke-width="0.5" stroke-linecap="square" stroke-linejoin="bevel" d="
		M249,1282.2l1.8,1l1.8-1l1.8,1v2.1l-1.8,1l-1.8-1l-1.8,1l-1.8-1v-2.1l-1.8-1l-1.8,1l-1.8-1v-2.1l-1.8-1v-2.1l-1.8-1v-2.1l1.8-1
		v-2.1l1.8-1l1.8,1v2.1l1.8,1v2.1l1.8,1v2.1l1.8,1V1282.2"/>
	
		<path id="E14000904" vector-effect="none" display="inline" fill="#7D0069" stroke="#FFFFFF" stroke-width="0.5" stroke-linecap="square" stroke-linejoin="bevel" d="
		M299.5,1305.1v2.1l1.8,1v2.1l1.8,1v2.1l1.8,1v2.1l-1.8,1l-1.8-1l-1.8,1l-1.8-1v-2.1l-1.8-1v-2.1l-1.8-1v-2.1l-1.8-1l-1.8,1l-1.8-1
		v-2.1l1.8-1l1.8,1l1.8-1l1.8,1l1.8-1L299.5,1305.1"/>
	
		<path id="E14000919" vector-effect="none" display="inline" fill="#FFB900" stroke="#FFFFFF" stroke-width="0.5" stroke-linecap="square" stroke-linejoin="bevel" d="
		M285.1,1311.4v2.1l1.8,1l1.8-1l1.8,1l1.8-1l1.8,1v2.1l-1.8,1l-1.8-1l-1.8,1l-1.8-1l-1.8,1l-1.8-1l-1.8,1l-1.8-1l-1.8,1l-1.8-1
		l-1.8,1l-1.8-1v-2.1l1.8-1v-2.1l1.8-1l1.8,1l1.8-1l1.8,1l1.8-1L285.1,1311.4"/>
	
		<path id="E14000922" vector-effect="none" display="inline" fill="#FFB900" stroke="#FFFFFF" stroke-width="0.5" stroke-linecap="square" stroke-linejoin="bevel" d="
		M277.9,1317.6v2.1l-1.8,1v2.1l1.8,1v2.1l-1.8,1l-1.8-1l-1.8,1l-1.8-1l-1.8,1l-1.8-1v-2.1l-1.8-1v-2.1l1.8-1v-2.1l1.8-1l1.8,1l1.8-1
		l1.8,1l1.8-1L277.9,1317.6"/>
	
		<path id="E14000978" vector-effect="none" display="inline" fill="#FFB900" stroke="#FFFFFF" stroke-width="0.5" stroke-linecap="square" stroke-linejoin="bevel" d="
		M337.4,1458.2v2.1l1.8,1v2.1l1.8,1v2.1l1.8,1v2.1l-1.8,1l-1.8-1l-1.8,1l-1.8-1v-2.1l-1.8-1v-2.1l-1.8-1l-1.8,1l-1.8-1v-2.1l1.8-1
		v-2.1l1.8-1l1.8,1l1.8-1L337.4,1458.2"/>
	
		<path id="E14001013" vector-effect="none" display="inline" fill="#FFB900" stroke="#FFFFFF" stroke-width="0.5" stroke-linecap="square" stroke-linejoin="bevel" d="
		M357.2,1405.1v2.1l1.8,1v2.1l-1.8,1v2.1l-1.8,1v2.1l-1.8,1l-1.8-1v-2.1l-1.8-1v-2.1l-1.8-1v-2.1l1.8-1v-2.1l1.8-1l1.8,1l1.8-1
		L357.2,1405.1"/>
	
		<path id="S14000005_3_" vector-effect="none" display="inline" fill="#FFB900" stroke="#FFFFFF" stroke-width="0.5" stroke-linecap="square" stroke-linejoin="bevel" d="
		M149.8,1154.1l-1.8,1l-1.8-1v-2.1l1.8-1l1.8,1V1154.1"/>
	
		<path id="S14000005_2_" vector-effect="none" display="inline" fill="#FFB900" stroke="#FFFFFF" stroke-width="0.5" stroke-linecap="square" stroke-linejoin="bevel" d="
		M155.2,1151l-1.8,1l-1.8-1v-2.1l1.8-1v-2.1l1.8-1l1.8,1v2.1l-1.8,1V1151"/>
	
		<path id="S14000005_1_" vector-effect="none" display="inline" fill="#FFB900" stroke="#FFFFFF" stroke-width="0.5" stroke-linecap="square" stroke-linejoin="bevel" d="
		M157,1141.6l-1.8,1l-1.8-1l-1.8,1l-1.8-1v-2.1l1.8-1v-2.1l1.8-1l1.8,1v2.1l1.8,1V1141.6"/>
	
		<path id="S14000005" vector-effect="none" display="inline" fill="#FFB900" stroke="#FFFFFF" stroke-width="0.5" stroke-linecap="square" stroke-linejoin="bevel" d="
		M162.4,1144.7l-1.8,1l-1.8-1v-2.1l1.8-1v-2.1l1.8-1v-2.1l1.8-1v-2.1l1.8-1l1.8,1v2.1l-1.8,1v2.1l-1.8,1v2.1l-1.8,1V1144.7"/>
	
		<path id="S14000009" vector-effect="none" display="inline" fill="#FFB900" stroke="#FFFFFF" stroke-width="0.5" stroke-linecap="square" stroke-linejoin="bevel" d="
		M182.3,1095.8v2.1l-1.8,1v2.1l-1.8,1v2.1l-1.8,1l-1.8-1v-2.1l-1.8-1v-2.1l-1.8-1v-2.1l-1.8-1v-2.1l1.8-1l1.8,1v2.1l1.8,1l1.8-1
		v-2.1l1.8-1v-2.1l1.8-1l1.8,1v2.1l1.8,1v2.1L182.3,1095.8"/>
	
		<path id="S14000018" vector-effect="none" display="inline" fill="#FFB900" stroke="#FFFFFF" stroke-width="0.5" stroke-linecap="square" stroke-linejoin="bevel" d="
		M182.3,1141.6l1.8,1v2.1l1.8,1v2.1l1.8,1v2.1l1.8,1v2.1l-1.8,1l-1.8-1v-2.1l-1.8-1v-2.1l-1.8-1v-2.1l-1.8-1v-2.1l-1.8-1l-1.8,1v2.1
		l-1.8,1l-1.8-1v-2.1l1.8-1v-2.1l1.8-1v-2.1l1.8-1l1.8,1v2.1l1.8,1V1141.6"/>
	
		<path id="S14000026" vector-effect="none" display="inline" fill="#FFB900" stroke="#FFFFFF" stroke-width="0.5" stroke-linecap="square" stroke-linejoin="bevel" d="
		M207.5,1158.3v2.1l-1.8,1v2.1l1.8,1v2.1l-1.8,1v2.1l1.8,1v2.1l-1.8,1l-1.8-1v-2.1l-1.8-1v-2.1l-1.8-1v-2.1l-1.8-1v-2.1l-1.8-1v-2.1
		l1.8-1l1.8,1l1.8-1l1.8,1l1.8-1L207.5,1158.3"/>
	
		<path id="S14000037" vector-effect="none" display="inline" fill="#FFB900" stroke="#FFFFFF" stroke-width="0.5" stroke-linecap="square" stroke-linejoin="bevel" d="
		M227.4,1105.2v2.1l-1.8,1l-1.8-1l-1.8,1l-1.8-1l-1.8,1l-1.8-1l-1.8,1l-1.8-1l-1.8,1v2.1l-1.8,1v2.1l-1.8,1l-1.8-1l-1.8,1l-1.8-1
		v-2.1l1.8-1v-2.1l1.8-1l1.8,1l1.8-1v-2.1l1.8-1l1.8,1l1.8-1l1.8,1l1.8-1l1.8,1l1.8-1l1.8,1l1.8-1L227.4,1105.2"/>
	
		<path id="S14000039" vector-effect="none" display="inline" fill="#FFB900" stroke="#FFFFFF" stroke-width="0.5" stroke-linecap="square" stroke-linejoin="bevel" d="
		M185.9,1108.3v2.1l1.8,1l1.8-1l1.8,1v2.1l-1.8,1l-1.8-1l-1.8,1v2.1l-1.8,1l-1.8-1l-1.8,1l0,2.1l-1.8,1l-1.8-1v-2.1l1.8-1v-2.1
		l-1.8-1v-2.1l1.8-1v-2.1l1.8-1l1.8,1l1.8-1L185.9,1108.3"/>
	
		<path id="S14000049" vector-effect="none" display="inline" fill="#FFB900" stroke="#FFFFFF" stroke-width="0.5" stroke-linecap="square" stroke-linejoin="bevel" d="
		M209.3,1136.4v2.1l1.8,1l1.8-1l1.8,1v2.1l1.8,1l1.8-1l1.8,1v2.1l1.8,1l1.8-1l1.8,1v2.1l-1.8,1l-1.8-1l-1.8,1l-1.8-1v-2.1l-1.8-1
		l-1.8,1l-1.8-1v-2.1l-1.8-1l-1.8,1l-1.8-1v-2.1l-1.8-1l-1.8,1l-1.8-1v-2.1l1.8-1l1.8,1l1.8-1L209.3,1136.4"/>
	
		<path id="S14000051_2_" vector-effect="none" display="inline" fill="#FFB900" stroke="#FFFFFF" stroke-width="0.5" stroke-linecap="square" stroke-linejoin="bevel" d="
		M189.5,1085.4l-1.8,1l-1.8-1v-2.1l1.8-1l1.8,1V1085.4"/>
	
		<path id="S14000051_1_" vector-effect="none" display="inline" fill="#FFB900" stroke="#FFFFFF" stroke-width="0.5" stroke-linecap="square" stroke-linejoin="bevel" d="
		M193.1,1079.1l1.8,1v2.1l-1.8,1l-1.8-1v-2.1l-1.8-1l-1.8,1l-1.8-1v-2.1l1.8-1v-2.1l1.8-1l1.8,1v2.1l1.8,1V1079.1"/>
	
		<path id="S14000051" vector-effect="none" display="inline" fill="#FFB900" stroke="#FFFFFF" stroke-width="0.5" stroke-linecap="square" stroke-linejoin="bevel" d="
		M220.2,1042.7v2.1l-1.8,1l-1.8-1l-1.8,1l-1.8-1v-2.1l1.8-1l1.8,1l1.8-1v-2.1l-1.8-1v-2.1l1.8-1v-2.1l1.8-1l1.8,1v2.1l-1.8,1v2.1
		l1.8,1v2.1L220.2,1042.7"/>
	
		<path id="S14000055_1_" vector-effect="none" display="inline" fill="#FFB900" stroke="#FFFFFF" stroke-width="0.5" stroke-linecap="square" stroke-linejoin="bevel" d="
		M164.2,1108.3v2.1l-1.8,1v2.1l-1.8,1l-1.8-1v-2.1l-1.8-1v-2.1l1.8-1l1.8,1l1.8-1L164.2,1108.3"/>
	
		<path id="S14000055" vector-effect="none" display="inline" fill="#FFB900" stroke="#FFFFFF" stroke-width="0.5" stroke-linecap="square" stroke-linejoin="bevel" d="
		M180.5,1105.2v2.1l-1.8,1v2.1l-1.8,1v2.1l1.8,1v2.1l-1.8,1v2.1l-1.8,1l-1.8-1v-2.1l1.8-1v-2.1l-1.8-1v-2.1l-1.8-1v-2.1l1.8-1v-2.1
		l1.8-1l1.8,1l1.8-1L180.5,1105.2"/>
	
		<path id="S14000058" vector-effect="none" display="inline" fill="#FFB900" stroke="#FFFFFF" stroke-width="0.5" stroke-linecap="square" stroke-linejoin="bevel" d="
		M214.7,1114.5v2.1l-1.8,1l-1.8-1l-1.8,1v2.1l-1.8,1l-1.8-1v-2.1l-1.8-1l-1.8,1l-1.8-1l-1.8,1l-1.8-1l-1.8,1l-1.8-1l-1.8,1l-1.8-1
		l-1.8,1l-1.8-1v-2.1l1.8-1l1.8,1l1.8-1l1.8,1l1.8-1l1.8,1l1.8-1l1.8,1l1.8-1l1.8,1l1.8-1l1.8,1l1.8-1l1.8,1l1.8-1L214.7,1114.5"/>
	
		<path id="W07000041" vector-effect="none" display="inline" fill="#FFB900" stroke="#FFFFFF" stroke-width="0.5" stroke-linecap="square" stroke-linejoin="bevel" d="
		M162.5,1338.3l-1.8,1l-1.8-1l-1.8,1l-1.8-1v-2.1l1.8-1v-2.1l-1.8-1v-2.1l-1.8-1v-2.1l1.8-1v-2.1l1.8-1l1.8,1v2.1l1.8,1v2.1l1.8,1
		v2.1l1.8,1v2.1l-1.8,1V1338.3"/>
	
		<path id="W07000045" vector-effect="none" display="inline" fill="#FFB900" stroke="#FFFFFF" stroke-width="0.5" stroke-linecap="square" stroke-linejoin="bevel" d="
		M166,1411.3v2.1l-1.8,1v2.1l-1.8,1v2.1l-1.8,1v2.1l-1.8,1l-1.8-1v-2.1l-1.8-1v-2.1l1.8-1v-2.1l1.8-1v-2.1l1.8-1l1.8,1l1.8-1v-2.1
		l1.8-1l1.8,1v2.1L166,1411.3"/>
	
		<path id="W07000047" vector-effect="none" display="inline" fill="#FFB900" stroke="#FFFFFF" stroke-width="0.5" stroke-linecap="square" stroke-linejoin="bevel" d="
		M166,1438.4l-1.8,1l-1.8-1v-2.1l-1.8-1v-2.1l-1.8-1v-2.1l1.8-1v-2.1l1.8-1v-2.1l1.8-1l1.8,1l0,2.1l1.8,1v2.1l1.8,1v2.1l-1.8,1v2.1
		l-1.8,1V1438.4"/>
	
		<path id="W07000050" vector-effect="none" display="inline" fill="#FFB900" stroke="#FFFFFF" stroke-width="0.5" stroke-linecap="square" stroke-linejoin="bevel" d="
		M196.7,1445.7v2.1l1.8,1v2.1l-1.8,1v2.1l-1.8,1v2.1l-1.8,1l-1.8-1v-2.1l-1.8-1v-2.1l-1.8-1v-2.1l1.8-1v-2.1l1.8-1l1.8,1l1.8-1
		L196.7,1445.7"/>
	
		<path id="W07000052" vector-effect="none" display="inline" fill="#FFB900" stroke="#FFFFFF" stroke-width="0.5" stroke-linecap="square" stroke-linejoin="bevel" d="
		M182.3,1429l-1.8,1l-1.8-1v-2.1l-1.8-1v-2.1l-1.8-1v-2.1l-1.8-1v-2.1l1.8-1v-2.1l1.8-1l1.8,1v2.1l1.8,1v2.1l1.8,1v2.1l1.8,1v2.1
		l-1.8,1V1429"/>
	
		<path id="W07000055" vector-effect="none" display="inline" fill="#FFB900" stroke="#FFFFFF" stroke-width="0.5" stroke-linecap="square" stroke-linejoin="bevel" d="
		M211.1,1441.5l-1.8,1l-1.8-1l-1.8,1v2.1l-1.8,1l-1.8-1v-2.1l1.8-1v-2.1l1.8-1v-2.1l-1.8-1v-2.1l1.8-1v-2.1l-1.8-1v-2.1l1.8-1l1.8,1
		v2.1l1.8,1v2.1l1.8,1v2.1l1.8,1v2.1l-1.8,1V1441.5"/>
	
		<path id="W07000057" vector-effect="none" display="inline" fill="#FFB900" stroke="#FFFFFF" stroke-width="0.5" stroke-linecap="square" stroke-linejoin="bevel" d="
		M169.7,1342.6v2.1l-1.8,1v2.1l-1.8,1v2.1l-1.8,1v2.1l1.8,1v2.1l-1.8,1l-1.8-1v-2.1l-1.8-1v-2.1l-1.8-1v-2.1l1.8-1v-2.1l-1.8-1v-2.1
		l1.8-1l1.8,1l1.8-1l1.8,1l1.8-1L169.7,1342.6"/>
	
		<path id="W07000067" vector-effect="none" display="inline" fill="#FFB900" stroke="#FFFFFF" stroke-width="0.5" stroke-linecap="square" stroke-linejoin="bevel" d="
		M184.1,1392.6v2.1l-1.8,1v2.1l1.8,1v2.1l-1.8,1v2.1l-1.8,1l-1.8-1l-1.8,1l-1.8-1l-1.8,1l-1.8-1v-2.1l1.8-1v-2.1l1.8-1l0-2.1l1.8-1
		v-2.1l1.8-1l1.8,1l1.8-1L184.1,1392.6"/>
	
		<path id="W07000069" vector-effect="none" display="inline" fill="#FFB900" stroke="#FFFFFF" stroke-width="0.5" stroke-linecap="square" stroke-linejoin="bevel" d="
		M176.9,1405.1v2.1l-1.8,1v2.1l1.8,1v2.1l-1.8,1v2.1l-1.8,1v2.1l1.8,1v2.1l-1.8,1l-1.8-1v-2.1l-1.8-1v-2.1l1.8-1v-2.1l-1.8-1l0-2.1
		l-1.8-1v-2.1l1.8-1v-2.1l1.8-1l1.8,1l1.8-1L176.9,1405.1"/>
	
		<path id="W07000070" vector-effect="none" display="inline" fill="#FFB900" stroke="#FFFFFF" stroke-width="0.5" stroke-linecap="square" stroke-linejoin="bevel" d="
		M187.7,1425.9l-1.8,1l-1.8-1v-2.1l-1.8-1v-2.1l-1.8-1v-2.1l-1.8-1v-2.1l-1.8-1v-2.1l-1.8-1v-2.1l1.8-1v-2.1l1.8-1l1.8,1v2.1l1.8,1
		v2.1l-1.8,1v2.1l1.8,1v2.1l1.8,1v2.1l1.8,1v2.1l1.8,1V1425.9"/>
	
		<path id="W07000071" vector-effect="none" display="inline" fill="#FFB900" stroke="#FFFFFF" stroke-width="0.5" stroke-linecap="square" stroke-linejoin="bevel" d="
		M191.3,1419.6l-1.8,1l-1.8-1l-1.8,1l-1.8-1v-2.1l-1.8-1v-2.1l-1.8-1v-2.1l1.8-1v-2.1l-1.8-1v-2.1l1.8-1v-2.1l1.8-1l1.8,1v2.1
		l-1.8,1v2.1l1.8,1v2.1l1.8,1v2.1l1.8,1v2.1l1.8,1V1419.6"/>
	
		<path id="W07000075" vector-effect="none" display="inline" fill="#FFB900" stroke="#FFFFFF" stroke-width="0.5" stroke-linecap="square" stroke-linejoin="bevel" d="
		M184.1,1444.6l-1.8,1l-1.8-1v-2.1l1.8-1v-2.1l-1.8-1v-2.1l1.8-1v-2.1l-1.8-1v-2.1l1.8-1v-2.1l1.8-1l1.8,1v2.1l1.8,1v2.1l1.8,1v2.1
		l-1.8,1v2.1l-1.8,1v2.1l-1.8,1V1444.6"/>
	
		<path id="W07000076" vector-effect="none" display="inline" fill="#FFB900" stroke="#FFFFFF" stroke-width="0.5" stroke-linecap="square" stroke-linejoin="bevel" d="
		M193.1,1429l1.8,1l1.8-1l1.8,1v2.1l-1.8,1v2.1l-1.8,1l-1.8-1l-1.8,1l-1.8-1v-2.1l-1.8-1v-2.1l-1.8-1v-2.1l1.8-1v-2.1l-1.8-1v-2.1
		l1.8-1l1.8,1v2.1l1.8,1v2.1l1.8,1V1429"/>
	
		<path id="W07000077" vector-effect="none" display="inline" fill="#FFB900" stroke="#FFFFFF" stroke-width="0.5" stroke-linecap="square" stroke-linejoin="bevel" d="
		M200.3,1429l-1.8,1l-1.8-1l-1.8,1l-1.8-1v-2.1l-1.8-1v-2.1l-1.8-1v-2.1l1.8-1v-2.1l-1.8-1v-2.1l1.8-1l1.8,1v2.1l1.8,1v2.1l1.8,1
		v2.1l1.8,1v2.1l1.8,1V1429"/>
</g>
<g id="areas" transform="matrix(0.999751,0,0,0.999751,0,0)">
	<path vector-effect="none" fill="none" stroke="#FFFFFF" stroke-linecap="square" stroke-linejoin="bevel" d="M351.9,1348.1l-1.8,1
		l-1.8-1l-1.8,1l-1.8-1l-1.8,1l-1.8-1l-1.8,1l-1.8-1l-1.8,1v2.1l-1.8,1l-1.8-1l-1.8,1v2.1l1.8,1v2.1l1.8,1v2.1l-1.8,1v2.1l-1.8,1
		v2.1l-1.8,1l-1.8-1l-1.8,1v2.1l-1.8,1v2.1l-1.8,1l-1.8-1l-1.8,1v2.1l-1.8,1l-1.8-1l-1.8,1v2.1l-1.8,1l-1.8-1l-1.8,1l-1.8-1l-1.8,1
		v2.1l-1.8,1v2.1l-1.8,1v2.1l-1.8,1v2.1l-1.8,1l-1.8-1l-1.8,1v2.1l-1.8,1l-1.8-1v-2.1l-1.8-1l-1.8,1v2.1l-1.8,1v2.1l-1.8,1v2.1
		l-1.8,1l-1.8-1l-1.8,1v2.1l-1.8,1v2.1l-1.8,1l-1.8-1l-1.8,1l-1.8-1v-2.1l1.8-1v-2.1l1.8-1l1.8,1l1.8-1v-2.1l1.8-1l1.8,1l1.8-1v-2.1
		l1.8-1v-2.1l1.8-1v-2.1l1.8-1v-2.1l1.8-1v-2.1l1.8-1v-2.1l1.8-1v-2.1l-1.8-1v-2.1l1.8-1v-2.1l-1.8-1v-2.1l1.8-1v-2.1l-1.8-1l-1.8,1
		v2.1l-1.8,1l-1.8-1l-1.8,1l-1.8-1l-1.8,1l-1.8-1l-1.8,1l-1.8-1v-2.1l-1.8-1v-2.1l1.8-1v-2.1l-1.8-1l-1.8,1l-1.8-1l-1.8,1l-1.8-1
		v-2.1l1.8-1v-2.1l-1.8-1l-1.8,1l-1.8-1v-2.1l1.8-1"/>
	<path vector-effect="none" fill="none" stroke="#FFFFFF" stroke-linecap="square" stroke-linejoin="bevel" d="M261.7,1348.1v-2.1
		l-1.8-1v-2.1l-1.8-1v-2.1l-1.8-1v-2.1l-1.8-1v-2.1l1.8-1v-2.1l1.8-1v-2.1l1.8-1v-2.1l1.8-1v-2.1l1.8-1l1.8,1v2.1l1.8,1v2.1l1.8,1
		l1.8-1l1.8,1l1.8-1l1.8,1l1.8-1v-2.1l1.8-1l1.8,1l1.8-1l1.8,1l1.8-1l1.8,1l1.8-1l1.8,1l1.8-1l1.8,1l1.8-1v-2.1l1.8-1l1.8,1l1.8-1
		l1.8,1l1.8-1l1.8,1v2.1l1.8,1l1.8-1v-2.1l-1.8-1v-2.1l1.8-1v-2.1l1.8-1v-2.1l1.8-1v-2.1l1.8-1l1.8,1l1.8-1l1.8,1v2.1l1.8,1v2.1
		l1.8,1v2.1l1.8,1l1.8-1v-2.1l1.8-1l1.8,1v2.1l1.8,1v2.1l1.8,1l1.8-1v-2.1l1.8-1v-2.1l1.8-1"/>
	<path vector-effect="none" fill="none" stroke="#FFFFFF" stroke-linecap="square" stroke-linejoin="bevel" d="M272.5,1366.9l1.8,1
		l1.8-1l1.8,1l1.8-1l1.8,1l1.8-1l1.8,1l1.8-1v-2.1l1.8-1l1.8,1v2.1l-1.8,1v2.1l1.8,1v2.1l-1.8,1v2.1l1.8,1v2.1l-1.8,1v2.1l-1.8,1
		v2.1l-1.8,1v2.1l-1.8,1v2.1l-1.8,1v2.1l-1.8,1v2.1l-1.8,1l-1.8-1l-1.8,1v2.1l-1.8,1l-1.8-1l-1.8,1v2.1l-1.8,1v2.1l1.8,1v2.1l-1.8,1
		l-1.8-1v-2.1l-1.8-1l-1.8,1v2.1l-1.8,1l-1.8-1l-1.8,1v2.1l-1.8,1v2.1l-1.8,1l-1.8-1l-1.8,1l-1.8-1l-1.8,1v2.1l-1.8,1l-1.8-1l-1.8,1
		l-1.8-1v-2.1l-1.8-1l-1.8,1l-1.8-1l-1.8,1l-1.8-1l-1.8,1l-1.8-1l-1.8,1v2.1l-1.8,1l-1.8-1v-2.1l-1.8-1l-1.8,1l-1.8-1v-2.1l-1.8-1
		l-1.8,1l-1.8-1l-1.8,1v2.1l-1.8,1l-1.8-1v-2.1l-1.8-1v-2.1l-1.8-1l-1.8,1l-1.8-1v-2.1l-1.8-1v-2.1l-1.8-1l-1.8,1l-1.8-1v-2.1
		l-1.8-1v-2.1l1.8-1v-2.1l1.8-1l1.8,1l1.8-1v-2.1l-1.8-1v-2.1l1.8-1v-2.1l-1.8-1l-1.8,1v2.1l-1.8,1l-1.8-1v-2.1l-1.8-1v-2.1l-1.8-1
		v-2.1l1.8-1v-2.1l1.8-1v-2.1l-1.8-1v-2.1l1.8-1l1.8,1l1.8-1v-2.1l1.8-1l1.8,1l1.8-1v-2.1l1.8-1l1.8,1l1.8-1l1.8,1l1.8-1v-2.1l1.8-1
		l1.8,1l1.8-1v-2.1l1.8-1l1.8,1l1.8-1v-2.1l1.8-1v-2.1l1.8-1v-2.1l1.8-1l1.8,1l1.8-1v-2.1l1.8-1l1.8,1l1.8-1v-2.1l1.8-1l1.8,1l1.8-1
		v-2.1l1.8-1l1.8,1l1.8-1l1.8,1l1.8-1l1.8,1l1.8-1v-2.1l1.8-1l1.8,1l1.8-1l1.8,1v2.1l1.8,1v2.1l1.8,1v2.1l1.8,1v2.1l-1.8,1v2.1
		l1.8,1l1.8-1l1.8,1v2.1l-1.8,1v2.1l1.8,1l1.8-1l1.8,1l1.8-1l1.8,1v2.1l-1.8,1v2.1l1.8,1V1366.9"/>
	<path vector-effect="none" fill="none" stroke="#FFFFFF" stroke-linecap="square" stroke-linejoin="bevel" d="M209.4,1442.9l1.8-1
		v-2.1l1.8-1v-2.1l-1.8-1v-2.1l-1.8-1v-2.1l1.8-1v-2.1l-1.8-1v-2.1l-1.8-1v-2.1l-1.8-1v-2.1l1.8-1v-2.1l1.8-1l1.8,1l1.8-1l1.8,1v2.1
		l1.8,1l1.8-1l1.8,1v2.1l1.8,1l1.8-1v-2.1l1.8-1l1.8,1l1.8-1l1.8,1l1.8-1l1.8,1l1.8-1l1.8,1v2.1l1.8,1l1.8-1l1.8,1l1.8-1v-2.1l1.8-1
		l1.8,1v2.1l-1.8,1v2.1l-1.8,1v2.1l-1.8,1v2.1l1.8,1l1.8-1l1.8,1v2.1l-1.8,1v2.1l-1.8,1v2.1l1.8,1v2.1l-1.8,1v2.1l1.8,1v2.1l-1.8,1
		v2.1l1.8,1v2.1l-1.8,1v2.1l1.8,1v2.1l-1.8,1v2.1l-1.8,1l-1.8-1l-1.8,1v2.1l1.8,1v2.1l1.8,1v2.1l1.8,1v2.1l-1.8,1v2.1l-1.8,1l-1.8-1
		v-2.1l-1.8-1l-1.8,1v2.1l-1.8,1v2.1l1.8,1v2.1l1.8,1l1.8-1l1.8,1v2.1l1.8,1v2.1l1.8,1v2.1l1.8,1l1.8-1l1.8,1v2.1l1.8,1v2.1l1.8,1"
		/>
	<path vector-effect="none" fill="none" stroke="#FFFFFF" stroke-linecap="square" stroke-linejoin="bevel" d="M204,1460.6v-2.1
		l1.8-1v-2.1l-1.8-1v-2.1l1.8-1v-2.1l1.8-1v-2.1"/>
	<path vector-effect="none" fill="none" stroke="#FFFFFF" stroke-linecap="square" stroke-linejoin="bevel" d="M395.2,1439.8l-1.8-1
		l-1.8,1v2.1l-1.8,1l-1.8-1l-1.8,1v2.1l-1.8,1v2.1l-1.8,1l-1.8-1l-1.8,1l-1.8-1v-2.1l-1.8-1v-2.1l1.8-1v-2.1l1.8-1l1.8,1l1.8-1v-2.1
		l-1.8-1v-2.1l1.8-1v-2.1l-1.8-1v-2.1"/>
	<path vector-effect="none" fill="none" stroke="#FFFFFF" stroke-linecap="square" stroke-linejoin="bevel" d="M380.8,1427.3l-1.8-1
		v-2.1l-1.8-1v-2.1l1.8-1v-2.1l-1.8-1v-2.1l1.8-1v-2.1l1.8-1v-2.1l-1.8-1l-1.8,1l-1.8-1v-2.1l-1.8-1v-2.1l-1.8-1l-1.8,1l-1.8-1
		l-1.8,1l-1.8-1l-1.8,1l-1.8-1v-2.1l-1.8-1l-1.8,1l-1.8-1v-2.1l-1.8-1v-2.1l-1.8-1l-1.8,1l-1.8-1l-1.8,1l-1.8-1l-1.8,1l-1.8-1
		l-1.8,1l-1.8-1l-1.8,1v2.1l-1.8,1l-1.8-1l-1.8,1v2.1l-1.8,1l-1.8-1l-1.8,1v2.1l-1.8,1l-1.8-1l-1.8,1v2.1l-1.8,1l-1.8-1l-1.8,1v2.1
		l-1.8,1l-1.8-1l-1.8,1l-1.8-1l-1.8,1v2.1l-1.8,1v2.1l-1.8,1v2.1l-1.8,1l-1.8-1l-1.8,1v2.1l-1.8,1l-1.8-1l-1.8,1l-1.8-1v-2.1l1.8-1
		v-2.1l-1.8-1l-1.8,1l-1.8-1l-1.8,1l-1.8-1v-2.1l1.8-1v-2.1l1.8-1v-2.1l1.8-1v-2.1l1.8-1l1.8,1l1.8-1v-2.1l1.8-1v-2.1l1.8-1l1.8,1
		l1.8-1v-2.1l1.8-1l1.8,1l1.8-1v-2.1l1.8-1v-2.1l1.8-1v-2.1l1.8-1v-2.1l1.8-1v-2.1l1.8-1l1.8,1l1.8-1v-2.1l1.8-1l1.8,1l1.8-1v-2.1
		l1.8-1v-2.1l1.8-1l1.8,1l1.8-1v-2.1l1.8-1v-2.1l1.8-1v-2.1l-1.8-1v-2.1l-1.8-1v-2.1l1.8-1l1.8,1l1.8-1v-2.1l1.8-1l1.8,1l1.8-1
		l1.8,1l1.8-1l1.8,1l1.8-1l1.8,1l1.8-1"/>
	<path vector-effect="none" fill="none" stroke="#FFFFFF" stroke-linecap="square" stroke-linejoin="bevel" d="M297.8,1246.1v2.1
		l1.8,1v2.1l-1.8,1v2.1l-1.8,1l-1.8-1l-1.8,1l-1.8-1l-1.8,1l-1.8-1l-1.8,1l-1.8-1l-1.8,1l-1.8-1v-2.1l-1.8-1l-1.8,1l-1.8-1l-1.8,1
		l-1.8-1l-1.8,1l-1.8-1v-2.1l-1.8-1v-2.1l-1.8-1l-1.8,1l-1.8-1l-1.8,1l-1.8-1v-2.1l-1.8-1l-1.8,1l-1.8-1v-2.1l-1.8-1l-1.8,1l-1.8-1
		l-1.8,1l-1.8-1v-2.1l-1.8-1l-1.8,1v2.1l-1.8,1l-1.8-1l-1.8,1l-1.8-1v-2.1l-1.8-1v-2.1l-1.8-1v-2.1l-1.8-1v-2.1l-1.8-1v-2.1l-1.8-1
		v-2.1l1.8-1v-2.1l-1.8-1v-2.1l-1.8-1l-1.8,1l-1.8-1v-2.1l-1.8-1v-2.1l1.8-1v-2.1l1.8-1v-2.1l1.8-1v-2.1l1.8-1l1.8,1l1.8-1v-2.1
		l-1.8-1v-2.1l1.8-1v-2.1l1.8-1l1.8,1l1.8-1l1.8,1"/>
	<path vector-effect="none" fill="none" stroke="#FFFFFF" stroke-linecap="square" stroke-linejoin="bevel" d="M227.4,1188.8l-1.8,1
		v2.1l-1.8,1v2.1l1.8,1v2.1l-1.8,1l-1.8-1l-1.8,1v2.1l-1.8,1v2.1l-1.8,1v2.1l-1.8,1l-1.8-1l-1.8,1l-1.8-1l-1.8,1"/>
	<path vector-effect="none" fill="none" stroke="#FFFFFF" stroke-linecap="square" stroke-linejoin="bevel" d="M254.5,1502.3l-1.8-1
		v-2.1l-1.8-1v-2.1l-1.8-1l-1.8,1l-1.8-1v-2.1l-1.8-1v-2.1l-1.8-1v-2.1l-1.8-1l-1.8,1l-1.8-1v-2.1l-1.8-1v-2.1l1.8-1v-2.1l1.8-1
		l1.8,1v2.1l1.8,1l1.8-1v-2.1l1.8-1v-2.1l-1.8-1v-2.1l-1.8-1v-2.1l-1.8-1v-2.1l1.8-1l1.8,1l1.8-1v-2.1l1.8-1v-2.1l-1.8-1v-2.1l1.8-1
		v-2.1l-1.8-1v-2.1l1.8-1v-2.1l-1.8-1v-2.1l1.8-1v-2.1l-1.8-1v-2.1l1.8-1v-2.1l1.8-1v-2.1l-1.8-1l-1.8,1l-1.8-1v-2.1l1.8-1v-2.1
		l1.8-1v-2.1l1.8-1v-2.1l1.8-1l1.8,1l1.8-1v-2.1l1.8-1v-2.1l1.8-1l1.8,1l1.8-1v-2.1l1.8-1l1.8,1v2.1l1.8,1l1.8-1v-2.1l1.8-1l1.8,1
		l1.8-1v-2.1l1.8-1v-2.1l1.8-1l1.8,1l1.8-1v-2.1l1.8-1v-2.1l1.8-1v-2.1l1.8-1l1.8,1v2.1l1.8,1l1.8-1v-2.1l1.8-1l1.8,1l1.8-1v-2.1
		l1.8-1v-2.1l1.8-1v-2.1l1.8-1v-2.1l1.8-1l1.8,1l1.8-1l1.8,1v2.1l-1.8,1v2.1l-1.8,1v2.1l-1.8,1v2.1l-1.8,1l-1.8-1l-1.8,1v2.1l-1.8,1
		l-1.8-1l-1.8,1v2.1l-1.8,1v2.1l-1.8,1l-1.8-1l-1.8,1v2.1l-1.8,1v2.1l-1.8,1v2.1l-1.8,1v2.1l1.8,1l1.8-1l1.8,1l1.8-1l1.8,1v2.1
		l-1.8,1v2.1l-1.8,1v2.1l-1.8,1v2.1l-1.8,1v2.1l1.8,1v2.1l-1.8,1v2.1l-1.8,1l-1.8-1l-1.8,1v2.1l1.8,1l1.8-1l1.8,1v2.1l1.8,1v2.1
		l-1.8,1v2.1l-1.8,1v2.1l1.8,1v2.1"/>
	<path vector-effect="none" fill="none" stroke="#FFFFFF" stroke-linecap="square" stroke-linejoin="bevel" d="M283.3,1454.4l1.8,1
		v2.1l1.8,1l1.8-1l1.8,1v2.1l1.8,1v2.1l1.8,1l1.8-1l1.8,1v2.1l1.8,1v2.1l1.8,1v2.1l1.8,1v2.1l1.8,1v2.1l1.8,1l1.8-1l1.8,1l1.8-1
		l1.8,1v2.1l1.8,1v2.1l1.8,1v2.1l1.8,1l1.8-1l1.8,1l1.8-1v-2.1l1.8-1l1.8,1v2.1l1.8,1l1.8-1l1.8,1v2.1l1.8,1l1.8-1l1.8,1l1.8-1
		l1.8,1l1.8-1v-2.1l1.8-1l1.8,1l1.8-1v-2.1l1.8-1l1.8,1v2.1l1.8,1l1.8-1l1.8,1l1.8-1v-2.1l1.8-1v-2.1l1.8-1v-2.1l1.8-1v-2.1l1.8-1
		v-2.1l1.8-1v-2.1l-1.8-1v-2.1l1.8-1l1.8,1v2.1l1.8,1l1.8-1v-2.1l-1.8-1v-2.1l1.8-1v-2.1l1.8-1v-2.1l1.8-1v-2.1l1.8-1v-2.1l-1.8-1
		v-2.1l1.8-1l1.8,1l1.8-1v-2.1l1.8-1v-2.1l1.8-1l1.8,1l1.8-1v-2.1l1.8-1l1.8,1"/>
	<path vector-effect="none" fill="none" stroke="#FFFFFF" stroke-linecap="square" stroke-linejoin="bevel" d="M263.4,1517.8l-1.8-1
		l-1.8,1l-1.8-1l-1.8,1l-1.8-1l0-2.1l1.8-1l0-2.1l1.8-1l0-2.1l1.8-1l1.8,1l1.8-1l1.8,1l0,2.1l1.8,1l0,2.1l-1.8,1l0,2.1L263.4,1517.8
		"/>
	<path vector-effect="none" fill="none" stroke="#FFFFFF" stroke-linecap="square" stroke-linejoin="bevel" d="M207.6,1208.6l1.8-1
		l1.8,1l1.8-1l1.8,1v2.1l1.8,1v2.1l1.8,1l1.8-1l1.8,1v2.1l1.8,1v2.1l-1.8,1v2.1l1.8,1v2.1l1.8,1v2.1l1.8,1v2.1l1.8,1v2.1l1.8,1v2.1
		l-1.8,1v2.1l1.8,1l1.8-1l1.8,1v2.1l1.8,1v2.1l1.8,1l1.8-1l1.8,1v2.1l1.8,1v2.1l-1.8,1v2.1l1.8,1v2.1l1.8,1v2.1l-1.8,1v2.1l-1.8,1
		v2.1l1.8,1v2.1l1.8,1v2.1l1.8,1v2.1l1.8,1v2.1l1.8,1l1.8-1l1.8,1v2.1l1.8,1v2.1l1.8,1v2.1l1.8,1v2.1l1.8,1v2.1l1.8,1v2.1l1.8,1v2.1
		l1.8,1v2.1l-1.8,1v2.1l1.8,1v2.1l-1.8,1v2.1l1.8,1v2.1l-1.8,1l-1.8-1"/>
	<path vector-effect="none" fill="none" stroke="#FFFFFF" stroke-linecap="square" stroke-linejoin="bevel" d="M178.7,1335.6v-2.1
		l-1.8-1v-2.1l1.8-1v-2.1l-1.8-1v-2.1l1.8-1v-2.1l1.8-1l1.8,1l1.8-1v-2.1l-1.8-1v-2.1l1.8-1v-2.1l1.8-1v-2.1l-1.8-1v-2.1l1.8-1v-2.1
		l1.8-1v-2.1l-1.8-1v-2.1l1.8-1v-2.1l1.8-1v-2.1l1.8-1v-2.1l1.8-1v-2.1l1.8-1v-2.1l1.8-1v-2.1l-1.8-1v-2.1l1.8-1v-2.1l-1.8-1v-2.1
		l1.8-1v-2.1l1.8-1l1.8,1l1.8-1v-2.1l1.8-1v-2.1l-1.8-1v-2.1l1.8-1v-2.1l1.8-1l1.8,1l1.8-1v-2.1l1.8-1v-2.1l1.8-1v-2.1l-1.8-1
		l-1.8,1v2.1l-1.8,1v2.1l-1.8,1l-1.8-1v-2.1l-1.8-1v-2.1l1.8-1v-2.1l1.8-1v-2.1l1.8-1v-2.1l-1.8-1v-2.1l-1.8-1v-2.1l-1.8-1v-2.1
		l1.8-1v-2.1l1.8-1v-2.1l-1.8-1v-2.1l1.8-1v-2.1"/>
	<path vector-effect="none" fill="none" stroke="#FFFFFF" stroke-linecap="square" stroke-linejoin="bevel" d="M263.5,1320l-1.8,1
		v2.1l-1.8,1v2.1l-1.8,1v2.1l-1.8,1v2.1l-1.8,1v2.1l-1.8,1l-1.8-1l-1.8,1v2.1l-1.8,1l-1.8-1l-1.8,1l-1.8-1l-1.8,1l-1.8-1l-1.8,1v2.1
		l-1.8,1l-1.8-1l-1.8,1v2.1l-1.8,1l-1.8-1l-1.8,1v2.1l-1.8,1l-1.8-1l-1.8,1v2.1l-1.8,1v2.1l-1.8,1v2.1l-1.8,1l-1.8-1l-1.8,1v2.1
		l-1.8,1l-1.8-1l-1.8,1v2.1l-1.8,1l-1.8-1l-1.8,1l-1.8-1v-2.1l-1.8-1v-2.1l-1.8-1l-1.8,1l-1.8-1v-2.1l1.8-1v-2.1l-1.8-1v-2.1l-1.8-1
		l-1.8,1l-1.8-1v-2.1l-1.8-1v-2.1l-1.8-1v-2.1l-1.8-1"/>
	<path vector-effect="none" fill="none" stroke="#FFFFFF" stroke-linecap="square" stroke-linejoin="bevel" d="M342.9,1313.8l-1.8,1
		v2.1l-1.8,1v2.1l-1.8,1l-1.8-1v-2.1l-1.8-1v-2.1l-1.8-1l-1.8,1v2.1l-1.8,1l-1.8-1v-2.1l-1.8-1v-2.1l-1.8-1v-2.1l-1.8-1l-1.8,1
		l-1.8-1l-1.8,1v2.1l-1.8,1v2.1l-1.8,1v2.1l-1.8,1v2.1l1.8,1v2.1l-1.8,1l-1.8-1v-2.1l-1.8-1l-1.8,1l-1.8-1l-1.8,1l-1.8-1l-1.8,1v2.1
		l-1.8,1l-1.8-1l-1.8,1l-1.8-1l-1.8,1l-1.8-1l-1.8,1l-1.8-1l-1.8,1l-1.8-1l-1.8,1"/>
	<path vector-effect="none" fill="none" stroke="#FFFFFF" stroke-linecap="square" stroke-linejoin="bevel" d="M277.9,1324.2v2.1
		l-1.8,1l-1.8-1l-1.8,1l-1.8-1l-1.8,1l-1.8-1v-2.1l-1.8-1v-2.1l1.8-1v-2.1l-1.8-1v-2.1l1.8-1v-2.1l-1.8-1v-2.1l1.8-1v-2.1l-1.8-1
		v-2.1l-1.8-1v-2.1l-1.8-1v-2.1l-1.8-1v-2.1l-1.8-1v-2.1l-1.8-1v-2.1l-1.8-1v-2.1l-1.8-1l-1.8,1l-1.8-1v-2.1l-1.8-1v-2.1l-1.8-1
		v-2.1l-1.8-1v-2.1l-1.8-1v-2.1l1.8-1v-2.1l1.8-1v-2.1l-1.8-1v-2.1l-1.8-1v-2.1l1.8-1v-2.1l-1.8-1v-2.1l-1.8-1l-1.8,1l-1.8-1v-2.1
		l-1.8-1v-2.1l-1.8-1l-1.8,1l-1.8-1v-2.1l1.8-1l1.8,1l1.8-1l1.8,1l1.8-1v-2.1l1.8-1l1.8,1v2.1l1.8,1l1.8-1l1.8,1l1.8-1l1.8,1v2.1
		l1.8,1l1.8-1l1.8,1v2.1l1.8,1l1.8-1l1.8,1l1.8-1l1.8,1v2.1l1.8,1v2.1l1.8,1l1.8-1l1.8,1l1.8-1l1.8,1l1.8-1l1.8,1v2.1l1.8,1l1.8-1
		l1.8,1l1.8-1l1.8,1l1.8-1l1.8,1l1.8-1l1.8,1l1.8-1v-2.1l1.8-1v-2.1l-1.8-1v-2.1"/>
	<path vector-effect="none" fill="none" stroke="#FFFFFF" stroke-linecap="square" stroke-linejoin="bevel" d="M162.5,1338.6l-1.8,1
		l-1.8-1l-1.8,1l-1.8-1v-2.1l1.8-1v-2.1l-1.8-1v-2.1l-1.8-1v-2.1l1.8-1v-2.1l1.8-1l1.8,1v2.1l1.8,1v2.1l1.8,1v2.1l1.8,1v2.1l-1.8,1
		V1338.6"/>
	<path vector-effect="none" fill="none" stroke="#FFFFFF" stroke-linecap="square" stroke-linejoin="bevel" d="M180.5,1338.8l1.8,1
		v2.1l1.8,1v2.1l1.8,1v2.1l1.8,1l1.8-1l1.8,1v2.1l1.8,1v2.1l-1.8,1v2.1l1.8,1l1.8-1l1.8,1v2.1l1.8,1v2.1l-1.8,1v2.1l-1.8,1l-1.8-1
		l-1.8,1v2.1l-1.8,1l-1.8-1l-1.8,1v2.1l1.8,1v2.1l-1.8,1v2.1l-1.8,1v2.1l1.8,1v2.1l1.8,1v2.1l1.8,1l1.8-1v-2.1l1.8-1l1.8,1v2.1
		l-1.8,1v2.1l1.8,1v2.1l-1.8,1l-1.8-1l-1.8,1v2.1l-1.8,1v2.1l1.8,1v2.1l1.8,1l1.8-1l1.8,1v2.1l1.8,1v2.1l1.8,1l1.8-1l1.8,1v2.1
		l1.8,1v2.1l1.8,1v2.1l1.8,1v2.1l1.8,1v2.1l1.8,1v2.1l-1.8,1v2.1l1.8,1v2.1l1.8,1v2.1l-1.8,1v2.1l-1.8,1"/>
	<path vector-effect="none" fill="none" stroke="#FFFFFF" stroke-linecap="square" stroke-linejoin="bevel" d="M377.2,1408.5l1.8-1
		l1.8,1v2.1l-1.8,1v2.1l-1.8,1v2.1l1.8,1v2.1l-1.8,1v2.1l1.8,1v2.1l1.8,1v2.1l1.8,1v2.1l-1.8,1v2.1l1.8,1v2.1l-1.8,1l-1.8-1l-1.8,1
		v2.1l-1.8,1v2.1l1.8,1v2.1l1.8,1v2.1l1.8,1v2.1l-1.8,1v2.1l-1.8,1v2.1l-1.8,1v2.1l-1.8,1v2.1l1.8,1v2.1l-1.8,1l-1.8-1v-2.1l-1.8-1
		l-1.8,1v2.1l1.8,1v2.1l-1.8,1v2.1l-1.8,1v2.1l-1.8,1v2.1l-1.8,1v2.1l-1.8,1v2.1l-1.8,1l-1.8-1l-1.8,1l-1.8-1v-2.1l-1.8-1l-1.8,1
		v2.1l-1.8,1l-1.8-1l-1.8,1v2.1l-1.8,1l-1.8-1l-1.8,1l-1.8-1l-1.8,1l-1.8-1v-2.1l-1.8-1l-1.8,1l-1.8-1v-2.1l-1.8-1l-1.8,1v2.1
		l-1.8,1l-1.8-1l-1.8,1l-1.8-1v-2.1l-1.8-1v-2.1l-1.8-1v-2.1l-1.8-1l-1.8,1l-1.8-1l-1.8,1l-1.8-1v-2.1l-1.8-1v-2.1l-1.8-1v-2.1
		l-1.8-1v-2.1l-1.8-1v-2.1l-1.8-1l-1.8,1l-1.8-1v-2.1l-1.8-1v-2.1l-1.8-1l-1.8,1l-1.8-1v-2.1l-1.8-1v-2.1l-1.8-1v-2.1l1.8-1v-2.1
		l1.8-1v-2.1l-1.8-1v-2.1l-1.8-1l-1.8,1l-1.8-1v-2.1l1.8-1l1.8,1l1.8-1v-2.1l1.8-1v-2.1l-1.8-1v-2.1l1.8-1v-2.1l1.8-1v-2.1l1.8-1
		l1.8,1l1.8-1l1.8,1l1.8-1v-2.1l1.8-1l1.8,1l1.8-1v-2.1l1.8-1v-2.1l1.8-1v-2.1l1.8-1l1.8,1l1.8-1l1.8,1l1.8-1v-2.1l1.8-1l1.8,1
		l1.8-1v-2.1l1.8-1l1.8,1l1.8-1v-2.1l1.8-1l1.8,1l1.8-1v-2.1l1.8-1l1.8,1l1.8-1v-2.1l1.8-1l1.8,1l1.8-1l1.8,1l1.8-1l1.8,1l1.8-1
		l1.8,1l1.8-1l1.8,1v2.1l1.8,1v2.1l1.8,1l1.8-1l1.8,1v2.1l1.8,1l1.8-1l1.8,1l1.8-1l1.8,1l1.8-1l1.8,1v2.1l1.8,1v2.1L377.2,1408.5"/>
</g>
</svg>
