<?xml version="1.0" encoding="utf-8"?>
<!-- Generator: Adobe Illustrator 18.0.0, SVG Export Plug-In . SVG Version: 6.00 Build 0)  -->
<!DOCTYPE svg PUBLIC "-//W3C//DTD SVG 1.1//EN" "http://www.w3.org/Graphics/SVG/1.1/DTD/svg11.dtd">
<svg version="1.1" id="Layer_2" xmlns="http://www.w3.org/2000/svg" xmlns:xlink="http://www.w3.org/1999/xlink" x="0px" y="0px"
	 viewBox="213.9 302 174.1 288.9" enable-background="new 213.9 302 174.1 288.9" xml:space="preserve">
<g id="bg">
	<path vector-effect="none" fill="#ECECEC" d="M229.7,410.8h1.1l0.6-1h1.1l0.6-1h1.1l0.6,1l-0.6,1l0.6,1h1.1l0.6,1h1.1l0.6,1h1.1
		l0.6,1h1.1l0.6,1l-0.6,1l0.6,1h1.1l0.6,1h1.1l0.6,1l-0.6,1l0.6,1l-0.6,1l0.6,1l-0.6,1l0.6,1l-0.6,1l0.6,1l-0.6,1h-1.1l-0.6,1l0.6,1
		l-0.6,1h-1.1l-0.6-1h-1.1l-0.6,1h-1.1l-0.6,1l0.6,1l-0.6,1h-1.1l-0.6,1h-1.1l-0.6-1H233l-0.6-1h-1.1l-0.6,1h-1.1l-0.6-1H228l-0.6-1
		h-1.1l-0.6-1l0.6-1l-0.6-1h-1.1l-0.6-1l0.6-1l-0.6-1h-1.1l-0.6,1h-1.1l-0.6,1l0.6,1l-0.6,1h-1.1l-0.6-1h-1.1l-0.6-1h-1.1l-0.6-1
		h-1.1l-0.6-1l0.6-1h1.1l0.6-1l-0.6-1l0.6-1h1.1l0.6-1h1.1l0.6-1l-0.6-1l0.6-1l-0.6-1l0.6-1l-0.6-1l0.6-1l-0.6-1l0.6-1h1.1l0.6,1
		h1.1l0.6-1h1.1l0.6-1h1.1l0.6-1h1.1l0.6-1h1.1L229.7,410.8"/>
	<path vector-effect="none" fill="#ECECEC" d="M379.2,501.3l1,0.6v1.2l-1,0.6v1.2l1,0.6v1.2l1,0.6v1.2l-1,0.6v1.2l-1,0.6v1.2l-1,0.6
		v1.2l1,0.6v1.2l1,0.6v1.2l-1,0.6v1.2l1,0.6v1.2l-1,0.6l-1-0.6l-1,0.6v1.2l1,0.6v1.2l1,0.6v1.2l1,0.6l1-0.6l1,0.6v1.2l1,0.6v1.2
		l1,0.6v1.2l-1,0.6v1.2l-1,0.6v1.2l-1,0.6l-1-0.6l-1,0.6l-1-0.6l-1,0.6v1.2l-1,0.6v1.2l-1,0.6v1.2l1,0.6l1-0.6l1,0.6l1-0.6l1,0.6
		l1-0.6l1,0.6l1-0.6v-1.2l1-0.6l1,0.6l1-0.6l1,0.6v1.2l-1,0.6v1.2l1,0.6v1.2l-1,0.6v1.2l-1,0.6v1.2l-1,0.6v1.2l1,0.6v1.2l-1,0.6v1.2
		l-1,0.6v1.2l-1,0.6v1.2l-1,0.6v1.2l-1,0.6l-1-0.6l-1,0.6v1.2l-1,0.6v1.2l-1,0.6v1.2l-1,0.6v1.2l-1,0.6v1.2l-1,0.6l-1-0.6l-1,0.6
		l-1-0.6l-1,0.6v1.2l-1,0.6v1.2l-1,0.6l-1-0.6l-1,0.6v1.2l-1,0.6l-1-0.6l-1,0.6v1.2l-1,0.6l-1-0.6l-1,0.6v1.2l-1,0.6v1.2l-1,0.6
		l-1-0.6l-1,0.6v1.2l-1,0.6l-1-0.6l-1,0.6l-1-0.6v-1.2l-1-0.6l-1,0.6v1.2l-1,0.6v1.2l-1,0.6l-1-0.6l-1,0.6l-1-0.6l-1,0.6l-1-0.6
		v-1.2l-1-0.6l-1,0.6l-1-0.6l-1,0.6l-1-0.6l-1,0.6l-1-0.6l-1,0.6l-1-0.6l-1,0.6l-1-0.6l-1,0.6l-1-0.6l-1,0.6l-1-0.6l-1,0.6l-1-0.6
		l-1,0.6l-1-0.6l-1,0.6l-1-0.6l-1,0.6l-1-0.6l-1,0.6v1.2l-1,0.6l-1-0.6l-1,0.6l-1-0.6l-1,0.6l-1-0.6v-1.2l-1-0.6v-1.2l-1-0.6l-1,0.6
		l-1-0.6v-1.2l-1-0.6l-1,0.6l-1-0.6V576l-1-0.6l-1,0.6l-1-0.6v-1.2l-1-0.6v-1.2l-1-0.6l-1,0.6v1.2l-1,0.6v1.2l1,0.6v1.2l-1,0.6v1.2
		l-1,0.6l-1-0.6l-1,0.6l-1-0.6v-1.2l-1-0.6l-1,0.6l-1-0.6l-1,0.6l-1-0.6l-1,0.6v1.2l-1,0.6l-1-0.6v-1.2l-1-0.6l-1,0.6l-1-0.6V576
		l-1-0.6v-1.2l-1-0.6v-1.2l-1-0.6v-1.2l-1-0.6l-1,0.6l-1-0.6l-1,0.6l-1-0.6v-1.2l-1-0.6l-1,0.6l-1-0.6l-1,0.6l-1-0.6l-1,0.6l-1-0.6
		l-1,0.6v1.2l-1,0.6l-1-0.6l-1,0.6l-1-0.6l-1,0.6l-1-0.6v-1.2l-1-0.6l-1,0.6v1.2l1,0.6v1.2l1,0.6v1.2l1,0.6v1.2l1,0.6v1.2l1,0.6v1.2
		l-1,0.6v1.2l-1,0.6l-1-0.6l-1,0.6l-1-0.6l-1,0.6l-1-0.6l-1,0.6l-1-0.6l-1,0.6l-1-0.6l-1,0.6l-1-0.6l-1,0.6l-1-0.6v-1.2l-1-0.6
		l-1,0.6l-1-0.6v-1.2l-1-0.6V576l-1-0.6l-1,0.6l-1-0.6l-1,0.6v1.2l-1,0.6v1.2l-1,0.6l-1-0.6l-1,0.6v1.2l-1,0.6v1.2l-1,0.6l-1-0.6
		l-1,0.6v1.2l1,0.6v1.2l-1,0.6v1.2l-1,0.6v1.2l-1,0.6l-1-0.6v-1.2l-1-0.6v-1.2l-1-0.6l-1,0.6l-1-0.6v-1.2l-1-0.6l-1,0.6v1.2l-1,0.6
		l-1-0.6v-1.2l1-0.6v-1.2l1-0.6l1,0.6l1-0.6v-1.2l1-0.6l1,0.6l1-0.6v-1.2l1-0.6l1,0.6l1-0.6v-1.2l1-0.6V576l1-0.6v-1.2l1-0.6v-1.2
		l1-0.6v-1.2l1-0.6l1,0.6l1-0.6l1,0.6l1-0.6v-1.2l1-0.6V567l1-0.6l1,0.6l1-0.6v-1.2l1-0.6v-1.2l1-0.6l1,0.6l1-0.6v-1.2l1-0.6l1,0.6
		l1-0.6v-1.2l-1-0.6V558l-1-0.6v-1.2l1-0.6l1,0.6l1-0.6l1,0.6l1-0.6l1,0.6v1.2l1,0.6l1-0.6l1,0.6l1-0.6l1,0.6v1.2l1,0.6l1-0.6l1,0.6
		l1-0.6l1,0.6l1-0.6l1,0.6l1-0.6V558l1-0.6v-1.2l-1-0.6v-1.2l-1-0.6v-1.2l1-0.6v-1.2l1-0.6v-1.2l1-0.6v-1.2l-1-0.6v-1.2l1-0.6v-1.2
		l1-0.6v-1.2l1-0.6v-1.2l-1-0.6l-1,0.6v1.2l-1,0.6v1.2l-1,0.6v1.2l-1,0.6v1.2l-1,0.6v1.2l-1,0.6v1.2l-1,0.6v1.2l-1,0.6l-1-0.6
		l-1,0.6l-1-0.6l-1,0.6l-1-0.6v-1.2l-1-0.6v-1.2l-1-0.6v-1.2l-1-0.6l-1,0.6l-1-0.6l-1,0.6l-1-0.6v-1.2l-1-0.6v-1.2l1-0.6v-1.2
		l-1-0.6v-1.2l1-0.6v-1.2l-1-0.6v-1.2l1-0.6v-1.2l-1-0.6l-1,0.6l0,1.2l-1,0.6v1.2l-1,0.6l-1-0.6l-1,0.6l-1-0.6v-1.2l-1-0.6l-1,0.6
		l-1-0.6v-1.2l1-0.6v-1.2l-1-0.6v-1.2l1-0.6V529l1-0.6v-1.2l-1-0.6l-1,0.6l-1-0.6l-1,0.6v1.2l-1,0.6l-1-0.6l-1,0.6l-1-0.6l-1,0.6
		l-1-0.6v-1.2l1-0.6v-1.2l1-0.6v-1.2l1-0.6v-1.2l1-0.6l1,0.6l1-0.6V520l1-0.6l1,0.6l1-0.6l1,0.6l1-0.6l1,0.6l1-0.6v-1.2l1-0.6v-1.2
		l1-0.6v-1.2l1-0.6v-1.2l1-0.6V511l1-0.6l1,0.6l1-0.6v-1.2l1-0.6l1,0.6l1-0.6v-1.2l1-0.6v-1.2l-1-0.6v-1.2l-1-0.6l-1,0.6l-1-0.6
		v-1.2l-1-0.6v-1.2l-1-0.6v-1.2l-1-0.6v-1.2l-1-0.6v-1.2l-1-0.6v-1.2l-1-0.6v-1.2l-1-0.6v-1.2l-1-0.6v-1.2l-1-0.6v-1.2l1-0.6v-1.2
		l-1-0.6V482l1-0.6l1,0.6l1-0.6l1,0.6l1-0.6l1,0.6v1.2l1,0.6l1-0.6V482l1-0.6v-1.2l1-0.6l1,0.6l1-0.6v-1.2l-1-0.6v-1.2l-1-0.6v-1.2
		l1-0.6V473l-1-0.6v-1.2l1-0.6v-1.2l1-0.6l1,0.6l1-0.6v-1.2l-1-0.6v-1.2l1-0.6V464l1-0.6v-1.2l-1-0.6v-1.2l1-0.6v-1.2l1-0.6v-1.2
		l-1-0.6v-1.2l1-0.6v-1.2l1-0.6v-1.2l1-0.6v-1.2l1-0.6v-1.2l1-0.6v-1.2l1-0.6v-1.2l-1-0.6v-1.2l1-0.6v-1.2l-1-0.6v-1.2l1-0.6v-1.2
		l1-0.6l1,0.6l1-0.6V435l1-0.6v-1.2l-1-0.6v-1.2l1-0.6v-1.2l1-0.6l1,0.6l1-0.6v-1.2l1-0.6V426l1-0.6v-1.2l-1-0.6l-1,0.6v1.2l-1,0.6
		v1.2l-1,0.6l-1-0.6V426l-1-0.6v-1.2l1-0.6v-1.2l1-0.6v-1.2l1-0.6v-1.2l-1-0.6V417l-1-0.6v-1.2l-1-0.6v-1.2l1-0.6v-1.2l1-0.6v-1.2
		l-1-0.6v-1.2l1-0.6v-1.2l1-0.6v-1.2l-1-0.6l-1,0.6l-1-0.6l-1,0.6v1.2l-1,0.6l-1-0.6l-1,0.6l-1-0.6l-1,0.6v1.2l-1,0.6l-1-0.6l-1,0.6
		l-1-0.6l-1,0.6l-1-0.6l-1,0.6v1.2l-1,0.6l-1-0.6v-1.2l-1-0.6l-1,0.6l-1-0.6v-1.2l1-0.6l1,0.6l1-0.6v-1.2l-1-0.6v-1.2l1-0.6v-1.2
		l-1-0.6v-1.2l1-0.6v-1.2l-1-0.6v-1.2l-1-0.6v-1.2l-1-0.6v-1.2l-1-0.6l-1,0.6l-1-0.6v-1.2l-1-0.6V388l-1-0.6v-1.2l-1-0.6v-1.2l1-0.6
		v-1.2l1-0.6v-1.2l1-0.6V379l-1-0.6v-1.2l1-0.6v-1.2l-1-0.6v-1.2l1-0.6v-1.2l-1-0.6v-1.2l1-0.6v-1.2l-1-0.6l-1,0.6l-1-0.6v-1.2
		l1-0.6v-1.2l1-0.6v-1.2l1-0.6v-1.2l1-0.6l1,0.6l1-0.6l1,0.6l1-0.6v-1.2l1-0.6v-1.2l1-0.6l1,0.6l1-0.6v-1.2l-1-0.6v-1.2l-1-0.6
		l-1,0.6l-1-0.6v-1.2l1-0.6v-1.2l-1-0.6v-1.2l-1-0.6v-1.2l1-0.6v-1.2l1-0.6v-1.2l-1-0.6V341l-1-0.6v-1.2l-1-0.6v-1.2l1-0.6l1,0.6
		v1.2l1,0.6l1-0.6v-1.2l1-0.6v-1.2l1-0.6l1,0.6v1.2l1,0.6v1.2l-1,0.6v1.2l-1,0.6v1.2l-1,0.6v1.2l1,0.6v1.2l1,0.6l1-0.6l1,0.6v1.2
		l1,0.6l1-0.6l1,0.6l1-0.6v-1.2l1-0.6l1,0.6l1-0.6v-1.2l1-0.6l1,0.6l1-0.6l1,0.6l1-0.6v-1.2l1-0.6l1,0.6l1-0.6l1,0.6l1-0.6l1,0.6
		l1-0.6V341l1-0.6l1,0.6l1-0.6l1,0.6l1-0.6l1,0.6v1.2l-1,0.6v1.2l1,0.6v1.2l1,0.6v1.2l-1,0.6v1.2l-1,0.6v1.2l-1,0.6l-1-0.6l-1,0.6
		l-1-0.6l-1,0.6l-1-0.6l-1,0.6l-1-0.6l-1,0.6l-1-0.6l-1,0.6v1.2l-1,0.6v1.2l1,0.6v1.2l1,0.6v1.2l1,0.6v1.2l-1,0.6l-1-0.6l-1,0.6v1.2
		l1,0.6v1.2l1,0.6l1-0.6l1,0.6v1.2l1,0.6l1-0.6l1,0.6v1.2l1,0.6l1-0.6l1,0.6v1.2l-1,0.6l-1-0.6l-1,0.6l-1-0.6l-1,0.6v1.2l-1,0.6v1.2
		l-1,0.6l-1-0.6v-1.2l-1-0.6l-1,0.6l-1-0.6l-1,0.6l-1-0.6l-1,0.6l-1-0.6l-1,0.6v1.2l1,0.6v1.2l1,0.6l1-0.6l1,0.6l1-0.6l1,0.6l1-0.6
		l1,0.6v1.2l1,0.6v1.2l1,0.6v1.2l1,0.6l1-0.6l1,0.6l1-0.6l1,0.6v1.2l1,0.6v1.2l1,0.6v1.2l1,0.6v1.2l-1,0.6v1.2l-1,0.6v1.2l1,0.6v1.2
		l1,0.6l1-0.6l1,0.6v1.2l1,0.6v1.2l1,0.6l1-0.6l1,0.6l1-0.6l1,0.6l1-0.6l1,0.6l1-0.6l1,0.6v1.2l1,0.6l1-0.6l1,0.6v1.2l1,0.6l1-0.6
		l1,0.6v1.2l1,0.6l1-0.6l1,0.6v1.2l1,0.6l1-0.6l1,0.6l0,1.2l1,0.6l1-0.6l1,0.6v1.2l-1,0.6v1.2l1,0.6v1.2l1,0.6v1.2l-1,0.6v1.2l1,0.6
		v1.2l1,0.6v1.2l1,0.6v1.2l1,0.6l1-0.6l1,0.6v1.2l1,0.6l1-0.6l1,0.6v1.2l1,0.6v1.2l1,0.6l1-0.6l1,0.6v1.2l1,0.6v1.2l1,0.6v1.2l1,0.6
		v1.2l-1,0.6v1.2l1,0.6v1.2l1,0.6v1.2l1,0.6l1-0.6l1,0.6v1.2l1,0.6v1.2l1,0.6l1-0.6l1,0.6v1.2l1,0.6l1-0.6l1,0.6v1.2l1,0.6l1-0.6
		l1,0.6l1-0.6l1,0.6v1.2l1,0.6v1.2l1,0.6v1.2l1,0.6v1.2l-1,0.6v1.2l-1,0.6l-1-0.6l-1,0.6l-1-0.6l-1,0.6v1.2l1,0.6l1-0.6l1,0.6v1.2
		l1,0.6l1-0.6l1,0.6v1.2l1,0.6v1.2l-1,0.6v1.2l1,0.6v1.2l1,0.6v1.2l-1,0.6v1.2l1,0.6v1.2l1,0.6v1.2l1,0.6v1.2l1,0.6v1.2l-1,0.6v1.2
		l-1,0.6v1.2l-1,0.6v1.2l1,0.6l1-0.6l1,0.6v1.2l1,0.6v1.2l1,0.6l1-0.6l1,0.6l1-0.6v-1.2l1-0.6l1,0.6l1-0.6V482l1-0.6l1,0.6l1-0.6
		l1,0.6l1-0.6l1,0.6v1.2l1,0.6l1-0.6l1,0.6l1-0.6l1,0.6l1-0.6l1,0.6v1.2l1,0.6l1-0.6l1,0.6v1.2l1,0.6l1-0.6l1,0.6v1.2l1,0.6v1.2
		l-1,0.6v1.2l1,0.6v1.2l1,0.6v1.2l1,0.6v1.2l1,0.6v1.2l-1,0.6l-1-0.6l-1,0.6V501.3"/>
	<path vector-effect="none" fill="#ECECEC" d="M299.8,583.2l-1-0.6l-1,0.6l-1-0.6l-1,0.6l-1-0.6l0-1.2l1-0.6l0-1.2l1-0.6l0-1.2
		l1-0.6l1,0.6l1-0.6l1,0.6l0,1.2l1,0.6l0,1.2l-1,0.6l0,1.2L299.8,583.2"/>
	<path vector-effect="none" fill="#ECECEC" d="M234.1,373l-1,0.6l-1-0.6v-1.2l1-0.6l1,0.6V373"/>
	<path vector-effect="none" fill="#ECECEC" d="M237.2,371.2l-1,0.6l-1-0.6v-1.2l1-0.6v-1.2l1-0.6l1,0.6v1.2l-1,0.6V371.2"/>
	<path vector-effect="none" fill="#ECECEC" d="M238.3,365.7l-1,0.6l-1-0.6l-1,0.6l-1-0.6v-1.2l1-0.6v-1.2l1-0.6l1,0.6v1.2l1,0.6
		V365.7"/>
	<path vector-effect="none" fill="#ECECEC" d="M232,351.3l-1,0.6l-1-0.6v-1.2l1-0.6v-1.2l1-0.6l1,0.6v1.2l-1,0.6V351.3"/>
	<path vector-effect="none" fill="#ECECEC" d="M235.1,345.8l-1,0.6l-1-0.6v-1.2l-1-0.6v-1.2l1-0.6l1,0.6v1.2l1,0.6V345.8"/>
	<path vector-effect="none" fill="#ECECEC" d="M239.3,337.4v1.2l-1,0.6v1.2l-1,0.6v1.2l-1,0.6l-1-0.6V341l-1-0.6v-1.2l1-0.6v-1.2
		l1-0.6l1,0.6l1-0.6L239.3,337.4"/>
	<path vector-effect="none" fill="#ECECEC" d="M238.3,391l-1,0.6l-1-0.6v-1.2l-1-0.6V388l1-0.6l1,0.6v1.2l1,0.6V391"/>
	<path vector-effect="none" fill="#ECECEC" d="M257.1,333.2l-1,0.6l-1-0.6V332l1-0.6l1,0.6V333.2"/>
	<path vector-effect="none" fill="#ECECEC" d="M259.1,329.6l1,0.6v1.2l-1,0.6l-1-0.6v-1.2l-1-0.6l-1,0.6l-1-0.6v-1.2l1-0.6v-1.2
		l1-0.6l1,0.6v1.2l1,0.6V329.6"/>
	<path vector-effect="none" fill="#ECECEC" d="M274.8,308.5v1.2l-1,0.6l-1-0.6l-1,0.6l-1-0.6v-1.2l1-0.6l1,0.6l1-0.6v-1.2l-1-0.6
		v-1.2l1-0.6v-1.2l1-0.6l1,0.6v1.2l-1,0.6v1.2l1,0.6v1.2L274.8,308.5"/>
	<path vector-effect="none" fill="#ECECEC" d="M242.4,346.4v1.2l-1,0.6v1.2l-1,0.6l-1-0.6v-1.2l-1-0.6v-1.2l1-0.6l1,0.6l1-0.6
		L242.4,346.4"/>
	<path vector-effect="none" fill="#ECECEC" d="M241.4,479.5l-1,0.6l-1-0.6l-1,0.6l-1-0.6v-1.2l1-0.6v-1.2l-1-0.6v-1.2l-1-0.6v-1.2
		l1-0.6v-1.2l1-0.6l1,0.6v1.2l1,0.6v1.2l1,0.6v1.2l1,0.6v1.2l-1,0.6V479.5"/>
</g>
<g id="lab" display="none">
	
		<path id="E14000530" vector-effect="none" display="inline" fill="#FFB900" stroke="#FFFFFF" stroke-width="0.5" stroke-linecap="square" stroke-linejoin="bevel" d="
		M310.3,562.8l1,0.6l1-0.6l1,0.6v1.2l-1,0.6l-1-0.6l-1,0.6l-1-0.6l-1,0.6l-1-0.6v-1.2l-1-0.6v-1.2l-1-0.6v-1.2l1-0.6V558l-1-0.6
		v-1.2l-1-0.6v-1.2l1-0.6l1,0.6v1.2l1,0.6v1.2l1,0.6v1.2l1,0.6v1.2l1,0.6V562.8"/>
	
		<path id="E14000547" vector-effect="none" display="inline" fill="#FFB900" stroke="#FFFFFF" stroke-width="0.5" stroke-linecap="square" stroke-linejoin="bevel" d="
		M282.1,553.7l-1,0.6l-1-0.6l-1,0.6l-1-0.6v-1.2l-1-0.6v-1.2l1-0.6v-1.2l1-0.6v-1.2l1-0.6v-1.2l1-0.6l1,0.6v1.2l-1,0.6v1.2l1,0.6
		v1.2l-1,0.6v1.2l1,0.6V553.7"/>
	
		<path id="E14000554" vector-effect="none" display="inline" fill="#FFB900" stroke="#FFFFFF" stroke-width="0.5" stroke-linecap="square" stroke-linejoin="bevel" d="
		M282.1,393.5v1.2l1,0.6v1.2l-1,0.6v1.2l-1,0.6l-1-0.6l-1,0.6v1.2l-1,0.6v1.2l-1,0.6l-1-0.6v-1.2l1-0.6v-1.2l1-0.6v-1.2l-1-0.6v-1.2
		l1-0.6v-1.2l1-0.6l1,0.6l1-0.6L282.1,393.5"/>
	
		<path id="E14000621" vector-effect="none" display="inline" fill="#FFB900" stroke="#FFFFFF" stroke-width="0.5" stroke-linecap="square" stroke-linejoin="bevel" d="
		M341.6,561.6v1.2l1,0.6v1.2l-1,0.6v1.2l-1,0.6l-1-0.6l-1,0.6l-1-0.6v-1.2l-1-0.6l-1,0.6l-1-0.6v-1.2l1-0.6v-1.2l1-0.6l1,0.6l1-0.6
		l1,0.6l1-0.6L341.6,561.6"/>
	
		<path id="E14000622" vector-effect="none" display="inline" fill="#7D0069" stroke="#FFFFFF" stroke-width="0.5" stroke-linecap="square" stroke-linejoin="bevel" d="
		M372.9,530.2l1,0.6l1-0.6l1,0.6v1.2l1,0.6v1.2l-1,0.6v1.2l-1,0.6v1.2l-1,0.6l-1-0.6v-1.2l-1-0.6v-1.2l-1-0.6v-1.2l-1-0.6v-1.2
		l1-0.6V529l1-0.6l1,0.6V530.2"/>
	
		<path id="E14000623" vector-effect="none" display="inline" fill="#FFB900" stroke="#FFFFFF" stroke-width="0.5" stroke-linecap="square" stroke-linejoin="bevel" d="
		M251.8,561.6v1.2l1,0.6l1-0.6l1,0.6v1.2l-1,0.6l-1-0.6l-1,0.6l-1-0.6v-1.2l-1-0.6l-1,0.6l-1-0.6l-1,0.6v1.2l1,0.6v1.2l1,0.6v1.2
		l1,0.6l1-0.6l1,0.6v1.2l-1,0.6l-1-0.6l-1,0.6l-1-0.6v-1.2l-1-0.6V567l-1-0.6v-1.2l-1-0.6v-1.2l1-0.6v-1.2l1-0.6l1,0.6l1-0.6l1,0.6
		l1-0.6L251.8,561.6"/>
	
		<path id="E14000627" vector-effect="none" display="inline" fill="#FFB900" stroke="#FFFFFF" stroke-width="0.5" stroke-linecap="square" stroke-linejoin="bevel" d="
		M292.5,473v1.2l-1,0.6v1.2l-1,0.6l-1-0.6l-1,0.6v1.2l-1,0.6l-1-0.6l-1,0.6l-1-0.6v-1.2l-1-0.6v-1.2l1-0.6l1,0.6l1-0.6V473l1-0.6
		l1,0.6l1-0.6l1,0.6l1-0.6L292.5,473"/>
	
		<path id="E14000628" vector-effect="none" display="inline" fill="#FFB900" stroke="#FFFFFF" stroke-width="0.5" stroke-linecap="square" stroke-linejoin="bevel" d="
		M365.6,514l1,0.6l1-0.6l1,0.6v1.2l1,0.6v1.2l1,0.6v1.2l-1,0.6v1.2l-1,0.6l-1-0.6V520l-1-0.6v-1.2l-1-0.6v-1.2l-1-0.6v-1.2l-1-0.6
		v-1.2l1-0.6l1,0.6V514"/>
	
		<path id="E14000630" vector-effect="none" display="inline" fill="#FFB900" stroke="#FFFFFF" stroke-width="0.5" stroke-linecap="square" stroke-linejoin="bevel" d="
		M285.2,526.6l1,0.6l1-0.6l1,0.6v1.2l-1,0.6v1.2l-1,0.6l-1-0.6l-1,0.6l-1-0.6l-1,0.6l-1-0.6V529l-1-0.6v-1.2l1-0.6l1,0.6l1-0.6v-1.2
		l1-0.6l1,0.6V526.6"/>
	
		<path id="E14000635" vector-effect="none" display="inline" fill="#FFB900" stroke="#FFFFFF" stroke-width="0.5" stroke-linecap="square" stroke-linejoin="bevel" d="
		M286.3,545.3v1.2l-1,0.6v1.2l-1,0.6v1.2l1,0.6v1.2l-1,0.6v1.2l-1,0.6l-1-0.6v-1.2l-1-0.6v-1.2l1-0.6v-1.2l-1-0.6v-1.2l1-0.6v-1.2
		l1-0.6l1,0.6l1-0.6L286.3,545.3"/>
	
		<path id="E14000644" vector-effect="none" display="inline" fill="#FFB900" stroke="#FFFFFF" stroke-width="0.5" stroke-linecap="square" stroke-linejoin="bevel" d="
		M371.9,509.1v1.2l1,0.6v1.2l1,0.6v1.2l-1,0.6v1.2l1,0.6v1.2l-1,0.6l-1-0.6v-1.2l-1-0.6v-1.2l-1-0.6v-1.2l-1-0.6V511l-1-0.6v-1.2
		l1-0.6l1,0.6l1-0.6L371.9,509.1"/>
	
		<path id="E14000680" vector-effect="none" display="inline" fill="#FFB900" stroke="#FFFFFF" stroke-width="0.5" stroke-linecap="square" stroke-linejoin="bevel" d="
		M304,562.8l1,0.6l1-0.6l1,0.6v1.2l1,0.6l1-0.6l1,0.6v1.2l1,0.6v1.2l1,0.6v1.2l-1,0.6l-1-0.6v-1.2l-1-0.6l-1,0.6l-1-0.6V567l-1-0.6
		l-1,0.6l-1-0.6v-1.2l-1-0.6v-1.2l-1-0.6v-1.2l1-0.6l1,0.6V562.8"/>
	
		<path id="E14000684" vector-effect="none" display="inline" fill="#FFB900" stroke="#FFFFFF" stroke-width="0.5" stroke-linecap="square" stroke-linejoin="bevel" d="
		M357.3,579.1l-1,0.6l-1-0.6l-1,0.6v1.2l-1,0.6l-1-0.6v-1.2l1-0.6v-1.2l1-0.6V576l1-0.6v-1.2l1-0.6v-1.2l1-0.6l1,0.6v1.2l1,0.6v1.2
		l-1,0.6v1.2l-1,0.6V579.1"/>
	
		<path id="E14000685" vector-effect="none" display="inline" fill="#FFB900" stroke="#FFFFFF" stroke-width="0.5" stroke-linecap="square" stroke-linejoin="bevel" d="
		M297.8,562.8l1,0.6l1-0.6l1,0.6v1.2l1,0.6v1.2l-1,0.6v1.2l1,0.6v1.2l-1,0.6v1.2l-1,0.6l-1-0.6v-1.2l1-0.6v-1.2l-1-0.6V567l-1-0.6
		v-1.2l-1-0.6v-1.2l-1-0.6v-1.2l1-0.6l1,0.6V562.8"/>
	
		<path id="E14000704" vector-effect="none" display="inline" fill="#FFB900" stroke="#FFFFFF" stroke-width="0.5" stroke-linecap="square" stroke-linejoin="bevel" d="
		M377.1,561.6v1.2l-1,0.6v1.2l-1,0.6v1.2l-1,0.6v1.2l-1,0.6l-1-0.6V567l-1-0.6v-1.2l1-0.6v-1.2l1-0.6v-1.2l1-0.6l1,0.6l1-0.6v-1.2
		l1-0.6V558l1-0.6l1,0.6v1.2l-1,0.6v1.2L377.1,561.6"/>
	
		<path id="E14000719" vector-effect="none" display="inline" fill="#FFB900" stroke="#FFFFFF" stroke-width="0.5" stroke-linecap="square" stroke-linejoin="bevel" d="
		M315.5,564.6l1,0.6l1-0.6l1,0.6v1.2l1,0.6l1-0.6l1,0.6v1.2l1,0.6l1-0.6l1,0.6v1.2l1,0.6v1.2l-1,0.6l-1-0.6l-1,0.6l-1-0.6l-1,0.6
		l-1-0.6v-1.2l1-0.6v-1.2l-1-0.6l-1,0.6l-1-0.6V567l-1-0.6l-1,0.6l-1-0.6v-1.2l-1-0.6v-1.2l1-0.6l1,0.6V564.6"/>
	
		<path id="E14000730" vector-effect="none" display="inline" fill="#FFB900" stroke="#FFFFFF" stroke-width="0.5" stroke-linecap="square" stroke-linejoin="bevel" d="
		M301.9,427.8v1.2l1,0.6l1-0.6l1,0.6l1-0.6l1,0.6l1-0.6l1,0.6v1.2l1,0.6v1.2l-1,0.6l-1-0.6l-1,0.6l-1-0.6l-1,0.6l-1-0.6v-1.2l-1-0.6
		l-1,0.6l-1-0.6v-1.2l-1-0.6l-1,0.6l-1-0.6v-1.2l1-0.6l1,0.6l1-0.6L301.9,427.8"/>
	
		<path id="E14000738" vector-effect="none" display="inline" fill="#FFB900" stroke="#FFFFFF" stroke-width="0.5" stroke-linecap="square" stroke-linejoin="bevel" d="
		M299.8,467.6v1.2l-1,0.6v1.2l-1,0.6v1.2l-1,0.6l-1-0.6l-1,0.6v1.2l-1,0.6l-1-0.6V473l1-0.6v-1.2l1-0.6v-1.2l-1-0.6v-1.2l1-0.6
		l1,0.6l1-0.6l1,0.6l1-0.6L299.8,467.6"/>
	
		<path id="E14000743" vector-effect="none" display="inline" fill="#FFB900" stroke="#FFFFFF" stroke-width="0.5" stroke-linecap="square" stroke-linejoin="bevel" d="
		M258.1,515.8l1,0.6l1-0.6l1,0.6v1.2l1,0.6v1.2l1,0.6l1-0.6l1,0.6v1.2l1,0.6l1-0.6l1,0.6v1.2l-1,0.6v1.2l-1,0.6l-1-0.6v-1.2l-1-0.6
		v-1.2l-1-0.6l-1,0.6l-1-0.6V520l-1-0.6v-1.2l-1-0.6l-1,0.6l-1-0.6v-1.2l-1-0.6v-1.2l1-0.6l1,0.6V515.8"/>
	
		<path id="E14000753" vector-effect="none" display="inline" fill="#FFB900" stroke="#FFFFFF" stroke-width="0.5" stroke-linecap="square" stroke-linejoin="bevel" d="
		M332.2,570.6v1.2l1,0.6l1-0.6l1,0.6l1-0.6l1,0.6v1.2l-1,0.6l-1-0.6l-1,0.6l-1-0.6l-1,0.6l-1-0.6l-1,0.6l-1-0.6l-1,0.6l-1-0.6
		l-1,0.6l-1-0.6v-1.2l1-0.6v-1.2l1-0.6l1,0.6l1-0.6l1,0.6l1-0.6L332.2,570.6"/>
	
		<path id="E14000770" vector-effect="none" display="inline" fill="#FFB900" stroke="#FFFFFF" stroke-width="0.5" stroke-linecap="square" stroke-linejoin="bevel" d="
		M327,554.3v1.2l1,0.6v1.2l1,0.6v1.2l1,0.6v1.2l-1,0.6l-1-0.6l-1,0.6l-1-0.6l-1,0.6l-1-0.6v-1.2l-1-0.6V558l1-0.6v-1.2l-1-0.6v-1.2
		l1-0.6l1,0.6l1-0.6L327,554.3"/>
	
		<path id="E14000786" vector-effect="none" display="inline" fill="#FFB900" stroke="#FFFFFF" stroke-width="0.5" stroke-linecap="square" stroke-linejoin="bevel" d="
		M351,574.2v1.2l1,0.6l1-0.6l1,0.6v1.2l-1,0.6v1.2l-1,0.6v1.2l-1,0.6l-1-0.6v-1.2l-1-0.6v-1.2l-1-0.6V576l-1-0.6l-1,0.6l-1-0.6v-1.2
		l1-0.6l1,0.6l1-0.6l1,0.6l1-0.6L351,574.2"/>
	
		<path id="E14000799" vector-effect="none" display="inline" fill="#FFB900" stroke="#FFFFFF" stroke-width="0.5" stroke-linecap="square" stroke-linejoin="bevel" d="
		M267.5,505.5v1.2l-1,0.6v1.2l-1,0.6v1.2l-1,0.6v1.2l-1,0.6l-1-0.6l-1,0.6l-1-0.6V511l-1-0.6v-1.2l1-0.6v-1.2l1-0.6l1,0.6l1-0.6
		v-1.2l1-0.6l1,0.6l1-0.6L267.5,505.5"/>
	
		<path id="E14000803" vector-effect="none" display="inline" fill="#FFB900" stroke="#FFFFFF" stroke-width="0.5" stroke-linecap="square" stroke-linejoin="bevel" d="
		M306.1,536.3v1.2l-1,0.6v1.2l-1,0.6v1.2l1,0.6v1.2l1,0.6v1.2l1,0.6v1.2l-1,0.6l-1-0.6v-1.2l-1-0.6v-1.2l-1-0.6l-1,0.6l-1-0.6v-1.2
		l1-0.6v-1.2l-1-0.6v-1.2l1-0.6v-1.2l1-0.6l1,0.6l1-0.6L306.1,536.3"/>
	
		<path id="E14000804" vector-effect="none" display="inline" fill="#FFB900" stroke="#FFFFFF" stroke-width="0.5" stroke-linecap="square" stroke-linejoin="bevel" d="
		M369.8,563.4v1.2l-1,0.6v1.2l-1,0.6l-1-0.6l-1,0.6l-1-0.6v-1.2l-1-0.6l-1,0.6l-1-0.6v-1.2l1-0.6l1,0.6l1-0.6v-1.2l1-0.6v-1.2l1-0.6
		l1,0.6v1.2l1,0.6v1.2L369.8,563.4"/>
	
		<path id="E14000811" vector-effect="none" display="inline" fill="#FFB900" stroke="#FFFFFF" stroke-width="0.5" stroke-linecap="square" stroke-linejoin="bevel" d="
		M304,566.4l1,0.6l1-0.6l1,0.6v1.2l1,0.6l1-0.6l1,0.6v1.2l1,0.6l1-0.6l1,0.6v1.2l-1,0.6l-1-0.6l-1,0.6l-1-0.6v-1.2l-1-0.6l-1,0.6
		l-1-0.6v-1.2l-1-0.6l-1,0.6l-1-0.6l-1,0.6l-1-0.6V567l1-0.6v-1.2l-1-0.6v-1.2l1-0.6l1,0.6v1.2l1,0.6V566.4"/>
	
		<path id="E14000815" vector-effect="none" display="inline" fill="#FFB900" stroke="#FFFFFF" stroke-width="0.5" stroke-linecap="square" stroke-linejoin="bevel" d="
		M284.2,567v1.2l-1,0.6v1.2l-1,0.6l-1-0.6l-1,0.6v1.2l-1,0.6l-1-0.6v-1.2l-1-0.6v-1.2l-1-0.6V567l1-0.6l1,0.6l1-0.6l1,0.6l1-0.6
		v-1.2l1-0.6l1,0.6v1.2L284.2,567"/>
	
		<path id="E14000817" vector-effect="none" display="inline" fill="#FFB900" stroke="#FFFFFF" stroke-width="0.5" stroke-linecap="square" stroke-linejoin="bevel" d="
		M348.9,570.6v1.2l1,0.6v1.2l-1,0.6l-1-0.6l-1,0.6l-1-0.6l-1,0.6v1.2l-1,0.6l-1-0.6v-1.2l-1-0.6v-1.2l1-0.6v-1.2l1-0.6l1,0.6l1-0.6
		l1,0.6l1-0.6L348.9,570.6"/>
	
		<path id="E14000827" vector-effect="none" display="inline" fill="#FFB900" stroke="#FFFFFF" stroke-width="0.5" stroke-linecap="square" stroke-linejoin="bevel" d="
		M291.5,566.4l1,0.6l1-0.6l1,0.6v1.2l1,0.6v1.2l1,0.6v1.2l-1,0.6v1.2l-1,0.6l-1-0.6v-1.2l-1-0.6v-1.2l1-0.6v-1.2l-1-0.6l-1,0.6
		l-1-0.6V567l-1-0.6v-1.2l-1-0.6v-1.2l-1-0.6v-1.2l1-0.6l1,0.6v1.2l1,0.6v1.2l1,0.6V566.4"/>
	
		<path id="E14000830" vector-effect="none" display="inline" fill="#FFB900" stroke="#FFFFFF" stroke-width="0.5" stroke-linecap="square" stroke-linejoin="bevel" d="
		M295.7,548.3l-1,0.6l-1-0.6l-1,0.6l-1-0.6l-1,0.6l-1-0.6v-1.2l1-0.6v-1.2l-1-0.6v-1.2l1-0.6v-1.2l1-0.6l1,0.6v1.2l1,0.6v1.2l1,0.6
		v1.2l1,0.6V548.3"/>
	
		<path id="E14000835" vector-effect="none" display="inline" fill="#FFB900" stroke="#FFFFFF" stroke-width="0.5" stroke-linecap="square" stroke-linejoin="bevel" d="
		M255,570.6v1.2l1,0.6v1.2l-1,0.6l-1-0.6l-1,0.6v1.2l-1,0.6l-1-0.6v-1.2l-1-0.6v-1.2l-1-0.6v-1.2l1-0.6l1,0.6l1-0.6v-1.2l1-0.6
		l1,0.6v1.2L255,570.6"/>
	
		<path id="E14000837" vector-effect="none" display="inline" fill="#FFB900" stroke="#FFFFFF" stroke-width="0.5" stroke-linecap="square" stroke-linejoin="bevel" d="
		M242.4,567v1.2l-1,0.6l-1-0.6l-1,0.6l-1-0.6l-1,0.6v1.2l-1,0.6v1.2l-1,0.6v1.2l-1,0.6l-1-0.6v-1.2l-1-0.6l-1,0.6l-1-0.6v-1.2l1-0.6
		l1,0.6l1-0.6l1,0.6l1-0.6v-1.2l1-0.6V567l1-0.6l1,0.6l1-0.6v-1.2l1-0.6l1,0.6v1.2L242.4,567"/>
	
		<path id="E14000838" vector-effect="none" display="inline" fill="#FFB900" stroke="#FFFFFF" stroke-width="0.5" stroke-linecap="square" stroke-linejoin="bevel" d="
		M250.8,556.2v1.2l1,0.6v1.2l1,0.6v1.2l-1,0.6l-1-0.6l-1,0.6l-1-0.6l-1,0.6l-1-0.6v-1.2l-1-0.6V558l-1-0.6v-1.2l1-0.6l1,0.6l1-0.6
		l1,0.6l1-0.6L250.8,556.2"/>
	
		<path id="E14000839" vector-effect="none" display="inline" fill="#FFB900" stroke="#FFFFFF" stroke-width="0.5" stroke-linecap="square" stroke-linejoin="bevel" d="
		M284.2,563.4v1.2l-1,0.6l-1-0.6l-1,0.6v1.2l-1,0.6l-1-0.6l-1,0.6l-1-0.6l-1,0.6l-1-0.6v-1.2l1-0.6v-1.2l1-0.6v-1.2l1-0.6l1,0.6v1.2
		l1,0.6l1-0.6v-1.2l1-0.6l1,0.6v1.2L284.2,563.4"/>
	
		<path id="E14000847" vector-effect="none" display="inline" fill="#FFB900" stroke="#FFFFFF" stroke-width="0.5" stroke-linecap="square" stroke-linejoin="bevel" d="
		M261.2,512.8v1.2l1,0.6v1.2l1,0.6l1-0.6l1,0.6v1.2l1,0.6v1.2l1,0.6v1.2l-1,0.6l-1-0.6V520l-1-0.6l-1,0.6l-1-0.6v-1.2l-1-0.6v-1.2
		l-1-0.6l-1,0.6l-1-0.6v-1.2l-1-0.6v-1.2l1-0.6l1,0.6l1-0.6L261.2,512.8"/>
	
		<path id="E14000848" vector-effect="none" display="inline" fill="#FFB900" stroke="#FFFFFF" stroke-width="0.5" stroke-linecap="square" stroke-linejoin="bevel" d="
		M364.6,482v1.2l1,0.6l1-0.6l1,0.6l1-0.6l1,0.6l1-0.6l1,0.6v1.2l1,0.6l1-0.6l1,0.6v1.2l-1,0.6l-1-0.6l-1,0.6l-1-0.6v-1.2l-1-0.6
		l-1,0.6l-1-0.6l-1,0.6l-1-0.6l-1,0.6l-1-0.6v-1.2l-1-0.6l-1,0.6l-1-0.6l-1,0.6l-1-0.6V482l1-0.6l1,0.6l1-0.6l1,0.6l1-0.6L364.6,482
		"/>
	
		<path id="E14000850" vector-effect="none" display="inline" fill="#FFB900" stroke="#FFFFFF" stroke-width="0.5" stroke-linecap="square" stroke-linejoin="bevel" d="
		M267.5,546.5l1,0.6l1-0.6l1,0.6v1.2l-1,0.6v1.2l1,0.6v1.2l1,0.6v1.2l-1,0.6l-1-0.6v-1.2l-1-0.6l-1,0.6l-1-0.6v-1.2l-1-0.6v-1.2
		l1-0.6v-1.2l-1-0.6v-1.2l1-0.6l1,0.6V546.5"/>
	
		<path id="E14000860" vector-effect="none" display="inline" fill="#FFB900" stroke="#FFFFFF" stroke-width="0.5" stroke-linecap="square" stroke-linejoin="bevel" d="
		M285.2,536.3v1.2l1,0.6v1.2l-1,0.6v1.2l-1,0.6v1.2l1,0.6v1.2l-1,0.6l-1-0.6l-1,0.6l-1-0.6v-1.2l1-0.6v-1.2l-1-0.6v-1.2l1-0.6v-1.2
		l-1-0.6v-1.2l1-0.6l1,0.6l1-0.6L285.2,536.3"/>
	
		<path id="E14000874" vector-effect="none" display="inline" fill="#FFB900" stroke="#FFFFFF" stroke-width="0.5" stroke-linecap="square" stroke-linejoin="bevel" d="
		M296.7,535.7l-1,0.6l-1-0.6l-1,0.6l-1-0.6v-1.2l1-0.6v-1.2l-1-0.6v-1.2l1-0.6V529l1-0.6v-1.2l1-0.6l1,0.6v1.2l1,0.6v1.2l1,0.6v1.2
		l-1,0.6v1.2l-1,0.6V535.7"/>
	
		<path id="E14000881" vector-effect="none" display="inline" fill="#FFB900" stroke="#FFFFFF" stroke-width="0.5" stroke-linecap="square" stroke-linejoin="bevel" d="
		M284.2,570.6v1.2l1,0.6v1.2l1,0.6v1.2l1,0.6v1.2l-1,0.6l-1-0.6l-1,0.6l-1-0.6V576l-1-0.6v-1.2l-1-0.6v-1.2l-1-0.6v-1.2l1-0.6l1,0.6
		l1-0.6L284.2,570.6"/>
	
		<path id="E14000884_1_" vector-effect="none" display="inline" fill="#FFB900" stroke="#FFFFFF" stroke-width="0.5" stroke-linecap="square" stroke-linejoin="bevel" d="
		M299.8,583.2l-1-0.6l-1,0.6l-1-0.6l-1,0.6l-1-0.6l0-1.2l1-0.6l0-1.2l1-0.6l0-1.2l1-0.6l1,0.6l1-0.6l1,0.6l0,1.2l1,0.6l0,1.2l-1,0.6
		l0,1.2L299.8,583.2"/>
	
		<path id="E14000896" vector-effect="none" display="inline" fill="#FFB900" stroke="#FFFFFF" stroke-width="0.5" stroke-linecap="square" stroke-linejoin="bevel" d="
		M328,545.3v1.2l1,0.6v1.2l-1,0.6v1.2l-1,0.6v1.2l-1,0.6v1.2l-1,0.6l-1-0.6v-1.2l1-0.6v-1.2l-1-0.6v-1.2l-1-0.6v-1.2l1-0.6v-1.2
		l1-0.6l1,0.6l1-0.6L328,545.3"/>
	
		<path id="E14000898" vector-effect="none" display="inline" fill="#7D0069" stroke="#FFFFFF" stroke-width="0.5" stroke-linecap="square" stroke-linejoin="bevel" d="
		M375,539.9v1.2l1,0.6v1.2l-1,0.6v1.2l-1,0.6v1.2l-1,0.6l-1-0.6v-1.2l-1-0.6v-1.2l-1-0.6v-1.2l1-0.6v-1.2l1-0.6l1,0.6l1-0.6v-1.2
		l1-0.6l1,0.6v1.2L375,539.9"/>
	
		<path id="E14000901" vector-effect="none" display="inline" fill="#FFB900" stroke="#FFFFFF" stroke-width="0.5" stroke-linecap="square" stroke-linejoin="bevel" d="
		M293.6,554.3v1.2l-1,0.6v1.2l1,0.6v1.2l-1,0.6v1.2l-1,0.6l-1-0.6l-1,0.6l-1-0.6v-1.2l1-0.6V558l-1-0.6v-1.2l-1-0.6v-1.2l1-0.6
		l1,0.6l1-0.6v-1.2l1-0.6l1,0.6v1.2L293.6,554.3"/>
	
		<path id="E14000912" vector-effect="none" display="inline" fill="#FFB900" stroke="#FFFFFF" stroke-width="0.5" stroke-linecap="square" stroke-linejoin="bevel" d="
		M287.3,554.3v1.2l1,0.6v1.2l1,0.6v1.2l-1,0.6v1.2l-1,0.6l-1-0.6v-1.2l-1-0.6l-1,0.6v1.2l-1,0.6l-1-0.6v-1.2l1-0.6V558l1-0.6v-1.2
		l-1-0.6v-1.2l1-0.6l1,0.6l1-0.6L287.3,554.3"/>
	
		<path id="E14000928" vector-effect="none" display="inline" fill="#FFB900" stroke="#FFFFFF" stroke-width="0.5" stroke-linecap="square" stroke-linejoin="bevel" d="
		M284.2,422.4v1.2l1,0.6l1-0.6l1,0.6l1-0.6l1,0.6l1-0.6l1,0.6v1.2l1,0.6l1-0.6l1,0.6v1.2l-1,0.6l-1-0.6l-1,0.6l-1-0.6V426l-1-0.6
		l-1,0.6l-1-0.6l-1,0.6v1.2l-1,0.6l-1-0.6V426l-1-0.6v-1.2l-1-0.6l-1,0.6l-1-0.6v-1.2l1-0.6l1,0.6l1-0.6L284.2,422.4"/>
	
		<path id="E14000931" vector-effect="none" display="inline" fill="#FFB900" stroke="#FFFFFF" stroke-width="0.5" stroke-linecap="square" stroke-linejoin="bevel" d="
		M296.7,512.8v1.2l-1,0.6l-1-0.6l-1,0.6v1.2l-1,0.6v1.2l-1,0.6l-1-0.6v-1.2l-1-0.6v-1.2l-1-0.6v-1.2l1-0.6l1,0.6l1-0.6l1,0.6l1-0.6
		l1,0.6l1-0.6V511l1-0.6l1,0.6v1.2L296.7,512.8"/>
	
		<path id="E14000932" vector-effect="none" display="inline" fill="#FFB900" stroke="#FFFFFF" stroke-width="0.5" stroke-linecap="square" stroke-linejoin="bevel" d="
		M279,558v1.2l-1,0.6l-1-0.6l-1,0.6v1.2l1,0.6v1.2l-1,0.6l-1-0.6l-1,0.6l-1-0.6l-1,0.6l-1-0.6l-1,0.6l-1-0.6l-1,0.6l-1-0.6v-1.2
		l1-0.6l1,0.6l1-0.6l1,0.6l1-0.6l1,0.6l1-0.6v-1.2l1-0.6V558l1-0.6l1,0.6l1-0.6v-1.2l1-0.6l1,0.6v1.2L279,558"/>
	
		<path id="E14000934" vector-effect="none" display="inline" fill="#FFB900" stroke="#FFFFFF" stroke-width="0.5" stroke-linecap="square" stroke-linejoin="bevel" d="
		M351,494.7v1.2l-1,0.6v1.2l1,0.6v1.2l1,0.6v1.2l-1,0.6l-1-0.6l-1,0.6l-1-0.6v-1.2l-1-0.6l-1,0.6l-1-0.6v-1.2l1-0.6v-1.2l1-0.6v-1.2
		l1-0.6l1,0.6l1-0.6L351,494.7"/>
	
		<path id="E14000937" vector-effect="none" display="inline" fill="#FFB900" stroke="#FFFFFF" stroke-width="0.5" stroke-linecap="square" stroke-linejoin="bevel" d="
		M356.2,492.9v1.2l1,0.6v1.2l1,0.6v1.2l1,0.6v1.2l-1,0.6v1.2l-1,0.6l-1-0.6v-1.2l-1-0.6v-1.2l1-0.6v-1.2l-1-0.6l-1,0.6l-1-0.6v-1.2
		l-1-0.6l-1,0.6l-1-0.6v-1.2l1-0.6l1,0.6l1-0.6l1,0.6l1-0.6L356.2,492.9"/>
	
		<path id="E14000938" vector-effect="none" display="inline" fill="#FFB900" stroke="#FFFFFF" stroke-width="0.5" stroke-linecap="square" stroke-linejoin="bevel" d="
		M243.5,568.8v1.2l-1,0.6l-1-0.6l-1,0.6l-1-0.6l-1,0.6v1.2l1,0.6v1.2l1,0.6v1.2l-1,0.6l-1-0.6l-1,0.6l-1-0.6l-1,0.6l-1-0.6v-1.2
		l1-0.6v-1.2l1-0.6v-1.2l1-0.6v-1.2l1-0.6l1,0.6l1-0.6l1,0.6l1-0.6L243.5,568.8"/>
	
		<path id="E14000953" vector-effect="none" display="inline" fill="#FFB900" stroke="#FFFFFF" stroke-width="0.5" stroke-linecap="square" stroke-linejoin="bevel" d="
		M314.5,565.2v1.2l1,0.6l1-0.6l1,0.6v1.2l1,0.6l1-0.6l1,0.6v1.2l-1,0.6l-1-0.6l-1,0.6l-1-0.6l-1,0.6l-1-0.6v-1.2l-1-0.6l-1,0.6
		l-1-0.6V567l-1-0.6v-1.2l1-0.6l1,0.6l1-0.6L314.5,565.2"/>
	
		<path id="E14000958" vector-effect="none" display="inline" fill="#FFB900" stroke="#FFFFFF" stroke-width="0.5" stroke-linecap="square" stroke-linejoin="bevel" d="
		M261.2,452.5l-1,0.6l-1-0.6l-1,0.6l-1-0.6v-1.2l1-0.6v-1.2l1-0.6v-1.2l1-0.6v-1.2l1-0.6v-1.2l1-0.6l1,0.6v1.2l1,0.6v1.2l-1,0.6v1.2
		l-1,0.6v1.2l-1,0.6V452.5"/>
	
		<path id="E14000960" vector-effect="none" display="inline" fill="#FFB900" stroke="#FFFFFF" stroke-width="0.5" stroke-linecap="square" stroke-linejoin="bevel" d="
		M332.2,512.8v1.2l-1,0.6l-1-0.6l-1,0.6v1.2l-1,0.6v1.2l-1,0.6l-1-0.6l-1,0.6l-1-0.6l-1,0.6v1.2l-1,0.6l-1-0.6v-1.2l1-0.6v-1.2
		l1-0.6l1,0.6l1-0.6v-1.2l1-0.6l1,0.6l1-0.6v-1.2l1-0.6l1,0.6l1-0.6L332.2,512.8"/>
	
		<path id="E14000961" vector-effect="none" display="inline" fill="#FFB900" stroke="#FFFFFF" stroke-width="0.5" stroke-linecap="square" stroke-linejoin="bevel" d="
		M233,572.4v1.2l1,0.6v1.2l1,0.6v1.2l-1,0.6v1.2l-1,0.6l-1-0.6l-1,0.6l-1-0.6v-1.2l1-0.6V576l-1-0.6l-1,0.6l-1-0.6v-1.2l1-0.6v-1.2
		l1-0.6l1,0.6l1-0.6L233,572.4"/>
	
		<path id="E14000964" vector-effect="none" display="inline" fill="#FFB900" stroke="#FFFFFF" stroke-width="0.5" stroke-linecap="square" stroke-linejoin="bevel" d="
		M222.6,583.3v1.2l1,0.6v1.2l1,0.6l1-0.6l1,0.6v1.2l-1,0.6v1.2l-1,0.6l-1-0.6v-1.2l-1-0.6v-1.2l-1-0.6l-1,0.6l-1-0.6v-1.2l-1-0.6
		l-1,0.6v1.2l-1,0.6l-1-0.6v-1.2l1-0.6v-1.2l1-0.6l1,0.6l1-0.6l1,0.6l1-0.6L222.6,583.3"/>
	
		<path id="E14000977" vector-effect="none" display="inline" fill="#FFB900" stroke="#FFFFFF" stroke-width="0.5" stroke-linecap="square" stroke-linejoin="bevel" d="
		M296.7,520v1.2l-1,0.6v1.2l-1,0.6v1.2l-1,0.6l-1-0.6l-1,0.6l-1-0.6l-1,0.6l-1-0.6v-1.2l1-0.6v-1.2l1-0.6V520l1-0.6l1,0.6l1-0.6
		l1,0.6l1-0.6L296.7,520"/>
	
		<path id="E14000984" vector-effect="none" display="inline" fill="#FFB900" stroke="#FFFFFF" stroke-width="0.5" stroke-linecap="square" stroke-linejoin="bevel" d="
		M334.3,559.8v1.2l1,0.6v1.2l-1,0.6v1.2l1,0.6v1.2l-1,0.6l-1-0.6l-1,0.6l-1-0.6v-1.2l-1-0.6v-1.2l-1-0.6v-1.2l1-0.6v-1.2l1-0.6
		l1,0.6l1-0.6L334.3,559.8"/>
	
		<path id="E14000988" vector-effect="none" display="inline" fill="#FFB900" stroke="#FFFFFF" stroke-width="0.5" stroke-linecap="square" stroke-linejoin="bevel" d="
		M266.4,561.6v1.2l-1,0.6v1.2l-1,0.6v1.2l-1,0.6l-1-0.6v-1.2l-1-0.6l-1,0.6l-1-0.6v-1.2l-1-0.6v-1.2l1-0.6l1,0.6l1-0.6l1,0.6l1-0.6
		l1,0.6l1-0.6L266.4,561.6"/>
	
		<path id="E14000990" vector-effect="none" display="inline" fill="#FFB900" stroke="#FFFFFF" stroke-width="0.5" stroke-linecap="square" stroke-linejoin="bevel" d="
		M283.1,525.4v1.2l-1,0.6l-1-0.6l-1,0.6v1.2l1,0.6v1.2l1,0.6l1-0.6l1,0.6v1.2l-1,0.6l-1-0.6l-1,0.6l-1-0.6v-1.2l-1-0.6V529l-1-0.6
		l-1,0.6l-1-0.6v-1.2l1-0.6v-1.2l1-0.6l1,0.6l1-0.6l1,0.6l1-0.6L283.1,525.4"/>
	
		<path id="E14000991" vector-effect="none" display="inline" fill="#FFB900" stroke="#FFFFFF" stroke-width="0.5" stroke-linecap="square" stroke-linejoin="bevel" d="
		M288.4,530.8v1.2l-1,0.6v1.2l-1,0.6v1.2l-1,0.6l-1-0.6l-1,0.6l-1-0.6v-1.2l1-0.6v-1.2l1-0.6v-1.2l1-0.6l1,0.6l1-0.6V529l1-0.6v-1.2
		l1-0.6v-1.2l1-0.6l1,0.6v1.2l-1,0.6v1.2l-1,0.6v1.2L288.4,530.8"/>
	
		<path id="E14000994" vector-effect="none" display="inline" fill="#FFB900" stroke="#FFFFFF" stroke-width="0.5" stroke-linecap="square" stroke-linejoin="bevel" d="
		M274.8,533.9l1,0.6l1-0.6l1,0.6v1.2l1,0.6l1-0.6l1,0.6v1.2l1,0.6v1.2l-1,0.6v1.2l-1,0.6l-1-0.6v-1.2l-1-0.6v-1.2l-1-0.6v-1.2
		l-1-0.6l-1,0.6l-1-0.6v-1.2l-1-0.6v-1.2l1-0.6l1,0.6V533.9"/>
	
		<path id="E14000996" vector-effect="none" display="inline" fill="#FFB900" stroke="#FFFFFF" stroke-width="0.5" stroke-linecap="square" stroke-linejoin="bevel" d="
		M258.1,561.6v1.2l1,0.6v1.2l1,0.6l1-0.6l1,0.6v1.2l1,0.6l1-0.6l1,0.6v1.2l-1,0.6l-1-0.6l-1,0.6l-1-0.6V567l-1-0.6l-1,0.6l-1-0.6
		v-1.2l-1-0.6l-1,0.6l-1-0.6v-1.2l-1-0.6l-1,0.6l-1-0.6v-1.2l1-0.6l1,0.6l1-0.6l1,0.6l1-0.6L258.1,561.6"/>
	
		<path id="E14000999" vector-effect="none" display="inline" fill="#FFB900" stroke="#FFFFFF" stroke-width="0.5" stroke-linecap="square" stroke-linejoin="bevel" d="
		M257.1,574.2v1.2l1,0.6v1.2l1,0.6v1.2l-1,0.6v1.2l-1,0.6l-1-0.6v-1.2l-1-0.6l-1,0.6l-1-0.6v-1.2l1-0.6V576l-1-0.6v-1.2l1-0.6l1,0.6
		l1-0.6L257.1,574.2"/>
	
		<path id="E14001000" vector-effect="none" display="inline" fill="#FFB900" stroke="#FFFFFF" stroke-width="0.5" stroke-linecap="square" stroke-linejoin="bevel" d="
		M244.5,563.4v1.2l1,0.6v1.2l1,0.6v1.2l1,0.6v1.2l-1,0.6l-1-0.6l-1,0.6l-1-0.6v-1.2l-1-0.6V567l-1-0.6v-1.2l-1-0.6v-1.2l1-0.6l1,0.6
		l1-0.6v-1.2l1-0.6l1,0.6v1.2L244.5,563.4"/>
	
		<path id="E14001001" vector-effect="none" display="inline" fill="#FFB900" stroke="#FFFFFF" stroke-width="0.5" stroke-linecap="square" stroke-linejoin="bevel" d="
		M250.8,575.4l1,0.6l1-0.6l1,0.6v1.2l-1,0.6v1.2l1,0.6l1-0.6l1,0.6v1.2l-1,0.6l-1-0.6l-1,0.6l-1-0.6l-1,0.6l-1-0.6v-1.2l1-0.6v-1.2
		l-1-0.6V576l-1-0.6v-1.2l-1-0.6v-1.2l-1-0.6v-1.2l1-0.6l1,0.6v1.2l1,0.6v1.2l1,0.6V575.4"/>
	
		<path id="E14001005" vector-effect="none" display="inline" fill="#FFB900" stroke="#FFFFFF" stroke-width="0.5" stroke-linecap="square" stroke-linejoin="bevel" d="
		M323.9,548.9v1.2l1,0.6v1.2l-1,0.6v1.2l-1,0.6v1.2l1,0.6v1.2l-1,0.6l-1-0.6v-1.2l-1-0.6v-1.2l-1-0.6v-1.2l-1-0.6v-1.2l-1-0.6v-1.2
		l1-0.6l1,0.6l1-0.6l1,0.6l1-0.6L323.9,548.9"/>
	
		<path id="E14001026" vector-effect="none" display="inline" fill="#FFB900" stroke="#FFFFFF" stroke-width="0.5" stroke-linecap="square" stroke-linejoin="bevel" d="
		M269.6,557.4l1,0.6l1-0.6l1,0.6l1-0.6l1,0.6v1.2l-1,0.6v1.2l-1,0.6l-1-0.6l-1,0.6l-1-0.6l-1,0.6l-1-0.6v-1.2l-1-0.6l-1,0.6l-1-0.6
		V558l1-0.6l1,0.6l1-0.6v-1.2l1-0.6l1,0.6V557.4"/>
	
		<path id="E14001031" vector-effect="none" display="inline" fill="#FFB900" stroke="#FFFFFF" stroke-width="0.5" stroke-linecap="square" stroke-linejoin="bevel" d="
		M275.8,567v1.2l-1,0.6v1.2l-1,0.6l-1-0.6l-1,0.6l-1-0.6v-1.2l-1-0.6l-1,0.6l-1-0.6l-1,0.6l-1-0.6V567l1-0.6l1,0.6l1-0.6l1,0.6
		l1-0.6l1,0.6l1-0.6v-1.2l1-0.6v-1.2l1-0.6l1,0.6v1.2l-1,0.6v1.2L275.8,567"/>
	
		<path id="E14001035" vector-effect="none" display="inline" fill="#FFB900" stroke="#FFFFFF" stroke-width="0.5" stroke-linecap="square" stroke-linejoin="bevel" d="
		M269.6,521.2l1,0.6l1-0.6l1,0.6v1.2l1,0.6l1-0.6l1,0.6l1-0.6l1,0.6v1.2l-1,0.6v1.2l-1,0.6l-1-0.6v-1.2l-1-0.6l-1,0.6l-1-0.6v-1.2
		l-1-0.6l-1,0.6l-1-0.6v-1.2l-1-0.6V520l-1-0.6v-1.2l1-0.6l1,0.6v1.2l1,0.6V521.2"/>
	
		<path id="E14001037" vector-effect="none" display="inline" fill="#FFB900" stroke="#FFFFFF" stroke-width="0.5" stroke-linecap="square" stroke-linejoin="bevel" d="
		M274.8,417v1.2l1,0.6l1-0.6l1,0.6l1-0.6l1,0.6v1.2l-1,0.6l-1-0.6l-1,0.6l-1-0.6l-1,0.6l-1-0.6l-1,0.6v1.2l-1,0.6v1.2l-1,0.6l-1-0.6
		v-1.2l1-0.6v-1.2l-1-0.6v-1.2l1-0.6V417l1-0.6l1,0.6l1-0.6L274.8,417"/>
	
		<path id="E14001038" vector-effect="none" display="inline" fill="#FFB900" stroke="#FFFFFF" stroke-width="0.5" stroke-linecap="square" stroke-linejoin="bevel" d="
		M266.4,551.9l1,0.6l1-0.6l1,0.6v1.2l1,0.6v1.2l-1,0.6l-1-0.6l-1,0.6v1.2l-1,0.6l-1-0.6v-1.2l-1-0.6v-1.2l-1-0.6v-1.2l1-0.6v-1.2
		l1-0.6l1,0.6V551.9"/>
	
		<path id="E14001041" vector-effect="none" display="inline" fill="#FFB900" stroke="#FFFFFF" stroke-width="0.5" stroke-linecap="square" stroke-linejoin="bevel" d="
		M297.8,559.2l1,0.6l1-0.6l1,0.6v1.2l1,0.6v1.2l-1,0.6l-1-0.6l-1,0.6l-1-0.6v-1.2l-1-0.6v-1.2l-1-0.6l-1,0.6l-1-0.6V558l-1-0.6v-1.2
		l1-0.6v-1.2l1-0.6l1,0.6v1.2l1,0.6v1.2l1,0.6V559.2"/>
	
		<path id="E14001047" vector-effect="none" display="inline" fill="#FFB900" stroke="#FFFFFF" stroke-width="0.5" stroke-linecap="square" stroke-linejoin="bevel" d="
		M319.7,559.8v1.2l1,0.6v1.2l-1,0.6v1.2l-1,0.6l-1-0.6l-1,0.6l-1-0.6v-1.2l-1-0.6l-1,0.6l-1-0.6v-1.2l-1-0.6v-1.2l1-0.6l1,0.6l1-0.6
		l1,0.6l1-0.6l1,0.6l1-0.6L319.7,559.8"/>
	
		<path id="E14001060" vector-effect="none" display="inline" fill="#FFB900" stroke="#FFFFFF" stroke-width="0.5" stroke-linecap="square" stroke-linejoin="bevel" d="
		M273.8,563.4v1.2l-1,0.6v1.2l-1,0.6l-1-0.6l-1,0.6l-1-0.6l-1,0.6l-1-0.6l-1,0.6l-1-0.6v-1.2l1-0.6v-1.2l1-0.6l1,0.6l1-0.6l1,0.6
		l1-0.6l1,0.6l1-0.6L273.8,563.4"/>
	
		<path id="E14001062" vector-effect="none" display="inline" fill="#FFB900" stroke="#FFFFFF" stroke-width="0.5" stroke-linecap="square" stroke-linejoin="bevel" d="
		M318.6,439.9l1,0.6l1-0.6l1,0.6l1-0.6l1,0.6v1.2l1,0.6v1.2l-1,0.6l-1-0.6l-1,0.6l-1-0.6v-1.2l-1-0.6l-1,0.6l-1-0.6v-1.2l-1-0.6
		v-1.2l-1-0.6v-1.2l-1-0.6V435l1-0.6l1,0.6v1.2l1,0.6v1.2l1,0.6V439.9"/>
	
		<path id="S14000005_3_" vector-effect="none" display="inline" fill="#FCDD03" stroke="#FFFFFF" stroke-width="0.5" stroke-linecap="square" stroke-linejoin="bevel" d="
		M234.1,373l-1,0.6l-1-0.6v-1.2l1-0.6l1,0.6V373"/>
	
		<path id="S14000005_2_" vector-effect="none" display="inline" fill="#FCDD03" stroke="#FFFFFF" stroke-width="0.5" stroke-linecap="square" stroke-linejoin="bevel" d="
		M237.2,371.2l-1,0.6l-1-0.6v-1.2l1-0.6v-1.2l1-0.6l1,0.6v1.2l-1,0.6V371.2"/>
	
		<path id="S14000005_1_" vector-effect="none" display="inline" fill="#FCDD03" stroke="#FFFFFF" stroke-width="0.5" stroke-linecap="square" stroke-linejoin="bevel" d="
		M238.3,365.7l-1,0.6l-1-0.6l-1,0.6l-1-0.6v-1.2l1-0.6v-1.2l1-0.6l1,0.6v1.2l1,0.6V365.7"/>
	
		<path id="S14000005" vector-effect="none" display="inline" fill="#FCDD03" stroke="#FFFFFF" stroke-width="0.5" stroke-linecap="square" stroke-linejoin="bevel" d="
		M241.4,367.5l-1,0.6l-1-0.6v-1.2l1-0.6v-1.2l1-0.6v-1.2l1-0.6v-1.2l1-0.6l1,0.6v1.2l-1,0.6v1.2l-1,0.6v1.2l-1,0.6V367.5"/>
	
		<path id="S14000008" vector-effect="none" display="inline" fill="#FCDD03" stroke="#FFFFFF" stroke-width="0.5" stroke-linecap="square" stroke-linejoin="bevel" d="
		M277.9,398.3l-1,0.6l-1-0.6l-1,0.6v1.2l-1,0.6v1.2l-1,0.6l-1-0.6l-1,0.6l-1-0.6v-1.2l1-0.6v-1.2l1-0.6l1,0.6l1-0.6v-1.2l1-0.6v-1.2
		l1-0.6v-1.2l1-0.6v-1.2l1-0.6l1,0.6v1.2l-1,0.6v1.2l-1,0.6v1.2l1,0.6V398.3"/>
	
		<path id="S14000009" vector-effect="none" display="inline" fill="#FCDD03" stroke="#FFFFFF" stroke-width="0.5" stroke-linecap="square" stroke-linejoin="bevel" d="
		M252.9,339.2v1.2l-1,0.6v1.2l-1,0.6v1.2l-1,0.6l-1-0.6v-1.2l-1-0.6V341l-1-0.6v-1.2l-1-0.6v-1.2l1-0.6l1,0.6v1.2l1,0.6l1-0.6v-1.2
		l1-0.6v-1.2l1-0.6l1,0.6v1.2l1,0.6v1.2L252.9,339.2"/>
	
		<path id="S14000013" vector-effect="none" display="inline" fill="#FCDD03" stroke="#FFFFFF" stroke-width="0.5" stroke-linecap="square" stroke-linejoin="bevel" d="
		M263.3,404.3v1.2l-1,0.6l-1-0.6l-1,0.6l-1-0.6l-1,0.6v1.2l-1,0.6l-1-0.6l-1,0.6l-1-0.6l-1,0.6l-1-0.6l-1,0.6v1.2l-1,0.6l-1-0.6
		v-1.2l1-0.6v-1.2l1-0.6l1,0.6l1-0.6l1,0.6l1-0.6v-1.2l1-0.6l1,0.6l1-0.6l1,0.6l1-0.6l1,0.6l1-0.6L263.3,404.3"/>
	
		<path id="S14000014" vector-effect="none" display="inline" fill="#FCDD03" stroke="#FFFFFF" stroke-width="0.5" stroke-linecap="square" stroke-linejoin="bevel" d="
		M269.6,401.9l1,0.6l1-0.6l1,0.6v1.2l-1,0.6l-1-0.6l-1,0.6l-1-0.6l-1,0.6l-1-0.6l-1,0.6l-1-0.6v-1.2l1-0.6v-1.2l1-0.6v-1.2l1-0.6
		v-1.2l1-0.6l1,0.6v1.2l1,0.6v1.2l-1,0.6V401.9"/>
	
		<path id="S14000018" vector-effect="none" display="inline" fill="#FCDD03" stroke="#FFFFFF" stroke-width="0.5" stroke-linecap="square" stroke-linejoin="bevel" d="
		M252.9,365.7l1,0.6v1.2l1,0.6v1.2l1,0.6v1.2l1,0.6v1.2l-1,0.6l-1-0.6v-1.2l-1-0.6v-1.2l-1-0.6v-1.2l-1-0.6v-1.2l-1-0.6l-1,0.6v1.2
		l-1,0.6l-1-0.6v-1.2l1-0.6v-1.2l1-0.6v-1.2l1-0.6l1,0.6v1.2l1,0.6V365.7"/>
	
		<path id="S14000026" vector-effect="none" display="inline" fill="#FCDD03" stroke="#FFFFFF" stroke-width="0.5" stroke-linecap="square" stroke-linejoin="bevel" d="
		M267.5,375.4v1.2l-1,0.6v1.2l1,0.6v1.2l-1,0.6v1.2l1,0.6v1.2l-1,0.6l-1-0.6v-1.2l-1-0.6v-1.2l-1-0.6V379l-1-0.6v-1.2l-1-0.6v-1.2
		l1-0.6l1,0.6l1-0.6l1,0.6l1-0.6L267.5,375.4"/>
	
		<path id="S14000037" vector-effect="none" display="inline" fill="#FCDD03" stroke="#FFFFFF" stroke-width="0.5" stroke-linecap="square" stroke-linejoin="bevel" d="
		M279,344.6v1.2l-1,0.6l-1-0.6l-1,0.6l-1-0.6l-1,0.6l-1-0.6l-1,0.6l-1-0.6l-1,0.6v1.2l-1,0.6v1.2l-1,0.6l-1-0.6l-1,0.6l-1-0.6v-1.2
		l1-0.6v-1.2l1-0.6l1,0.6l1-0.6v-1.2l1-0.6l1,0.6l1-0.6l1,0.6l1-0.6l1,0.6l1-0.6l1,0.6l1-0.6L279,344.6"/>
	
		<path id="S14000039" vector-effect="none" display="inline" fill="#FCDD03" stroke="#FFFFFF" stroke-width="0.5" stroke-linecap="square" stroke-linejoin="bevel" d="
		M255,346.4v1.2l1,0.6l1-0.6l1,0.6v1.2l-1,0.6l-1-0.6l-1,0.6v1.2l-1,0.6l-1-0.6l-1,0.6v1.2l-1,0.6l-1-0.6v-1.2l1-0.6v-1.2l-1-0.6
		v-1.2l1-0.6v-1.2l1-0.6l1,0.6l1-0.6L255,346.4"/>
	
		<path id="S14000049" vector-effect="none" display="inline" fill="#FCDD03" stroke="#FFFFFF" stroke-width="0.5" stroke-linecap="square" stroke-linejoin="bevel" d="
		M268.5,362.7v1.2l1,0.6l1-0.6l1,0.6v1.2l1,0.6l1-0.6l1,0.6v1.2l1,0.6l1-0.6l1,0.6v1.2l-1,0.6l-1-0.6l-1,0.6l-1-0.6v-1.2l-1-0.6
		l-1,0.6l-1-0.6v-1.2l-1-0.6l-1,0.6l-1-0.6v-1.2l-1-0.6l-1,0.6l-1-0.6v-1.2l1-0.6l1,0.6l1-0.6L268.5,362.7"/>
	
		<path id="S14000051_1_" vector-effect="none" display="inline" fill="#FCDD03" stroke="#FFFFFF" stroke-width="0.5" stroke-linecap="square" stroke-linejoin="bevel" d="
		M257.1,333.2l-1,0.6l-1-0.6V332l1-0.6l1,0.6V333.2"/>
	
		<path id="S14000051" vector-effect="none" display="inline" fill="#FCDD03" stroke="#FFFFFF" stroke-width="0.5" stroke-linecap="square" stroke-linejoin="bevel" d="
		M259.1,329.6l1,0.6v1.2l-1,0.6l-1-0.6v-1.2l-1-0.6l-1,0.6l-1-0.6v-1.2l1-0.6v-1.2l1-0.6l1,0.6v1.2l1,0.6V329.6"/>
	
		<path id="S14000051_2_" vector-effect="none" display="inline" fill="#FCDD03" stroke="#FFFFFF" stroke-width="0.5" stroke-linecap="square" stroke-linejoin="bevel" d="
		M274.8,308.5v1.2l-1,0.6l-1-0.6l-1,0.6l-1-0.6v-1.2l1-0.6l1,0.6l1-0.6v-1.2l-1-0.6v-1.2l1-0.6v-1.2l1-0.6l1,0.6v1.2l-1,0.6v1.2
		l1,0.6v1.2L274.8,308.5"/>
	
		<path id="S14000055" vector-effect="none" display="inline" fill="#FCDD03" stroke="#FFFFFF" stroke-width="0.5" stroke-linecap="square" stroke-linejoin="bevel" d="
		M242.4,346.4v1.2l-1,0.6v1.2l-1,0.6l-1-0.6v-1.2l-1-0.6v-1.2l1-0.6l1,0.6l1-0.6L242.4,346.4"/>
	
		<path id="S14000055_1_" vector-effect="none" display="inline" fill="#FCDD03" stroke="#FFFFFF" stroke-width="0.5" stroke-linecap="square" stroke-linejoin="bevel" d="
		M251.8,344.6v1.2l-1,0.6v1.2l-1,0.6v1.2l1,0.6v1.2l-1,0.6v1.2l-1,0.6l-1-0.6v-1.2l1-0.6v-1.2l-1-0.6v-1.2l-1-0.6v-1.2l1-0.6v-1.2
		l1-0.6l1,0.6l1-0.6L251.8,344.6"/>
	
		<path id="S14000058" vector-effect="none" display="inline" fill="#FCDD03" stroke="#FFFFFF" stroke-width="0.5" stroke-linecap="square" stroke-linejoin="bevel" d="
		M271.7,350.1v1.2l-1,0.6l-1-0.6l-1,0.6v1.2l-1,0.6l-1-0.6v-1.2l-1-0.6l-1,0.6l-1-0.6l-1,0.6l-1-0.6l-1,0.6l-1-0.6l-1,0.6l-1-0.6
		l-1,0.6l-1-0.6v-1.2l1-0.6l1,0.6l1-0.6l1,0.6l1-0.6l1,0.6l1-0.6l1,0.6l1-0.6l1,0.6l1-0.6l1,0.6l1-0.6l1,0.6l1-0.6L271.7,350.1"/>
	
		<path id="W07000067" vector-effect="none" display="inline" fill="#868686" stroke="#FFFFFF" stroke-width="0.5" stroke-linecap="square" stroke-linejoin="bevel" d="
		M253.9,511v1.2l-1,0.6v1.2l1,0.6l0,1.2l-1,0.6l0,1.2l-1,0.6l-1-0.6l-1,0.6l-1-0.6l-1,0.6l-1-0.6v-1.2l1-0.6v-1.2l1-0.6v-1.2l1-0.6
		V511l1-0.6l1,0.6l1-0.6L253.9,511"/>
	
		<path id="E14000884" vector-effect="none" display="inline" fill="#FFB900" stroke="#FFFFFF" stroke-width="0.5" stroke-linecap="square" stroke-linejoin="bevel" d="
		M313.4,577.8v1.2l1,0.6v1.2l1,0.6v1.2l-1,0.6l-1-0.6l-1,0.6l-1-0.6l-1,0.6l-1-0.6v-1.2l-1-0.6v-1.2l1-0.6v-1.2l1-0.6l1,0.6l1-0.6
		L313.4,577.8"/>
</g>
<g id="con">
	
		<path id="E14000553" vector-effect="none" fill="#FFB900" stroke="#FFFFFF" stroke-width="0.5" stroke-linecap="square" stroke-linejoin="bevel" d="
		M346.8,538.1v1.2l1,0.6l1-0.6l1,0.6v1.2l1,0.6v1.2l-1,0.6l-1-0.6l-1,0.6l-1-0.6l-1,0.6l-1-0.6v-1.2l-1-0.6v-1.2l-1-0.6v-1.2l1-0.6
		l1,0.6l1-0.6L346.8,538.1"/>
	
		<path id="E14000563" vector-effect="none" fill="#FFB900" stroke="#FFFFFF" stroke-width="0.5" stroke-linecap="square" stroke-linejoin="bevel" d="
		M303,501.9v1.2l-1,0.6l-1-0.6l-1,0.6v1.2l-1,0.6v1.2l-1,0.6l-1-0.6l-1,0.6l-1-0.6v-1.2l1-0.6v-1.2l-1-0.6v-1.2l1-0.6l1,0.6l1-0.6
		l1,0.6l1-0.6l1,0.6l1-0.6L303,501.9"/>
	
		<path id="E14000568" vector-effect="none" fill="#FFB900" stroke="#FFFFFF" stroke-width="0.5" stroke-linecap="square" stroke-linejoin="bevel" d="
		M301.9,507.4v1.2l-1,0.6l-1-0.6l-1,0.6v1.2l-1,0.6l-1-0.6l-1,0.6l-1-0.6v-1.2l-1-0.6v-1.2l1-0.6l1,0.6l1-0.6l1,0.6l1-0.6v-1.2
		l1-0.6v-1.2l1-0.6l1,0.6v1.2l1,0.6v1.2L301.9,507.4"/>
	
		<path id="E14000574" vector-effect="none" fill="#FFB900" stroke="#FFFFFF" stroke-width="0.5" stroke-linecap="square" stroke-linejoin="bevel" d="
		M282.1,407.9v1.2l1,0.6l1-0.6l1,0.6l1-0.6l1,0.6v1.2l1,0.6l1-0.6l1,0.6v1.2l-1,0.6l-1-0.6l-1,0.6l-1-0.6l-1,0.6l-1-0.6v-1.2l-1-0.6
		l-1,0.6l-1-0.6l-1,0.6l-1-0.6v-1.2l-1-0.6v-1.2l1-0.6l1,0.6l1-0.6L282.1,407.9"/>
	
		<path id="E14000587" vector-effect="none" fill="#FFB900" stroke="#FFFFFF" stroke-width="0.5" stroke-linecap="square" stroke-linejoin="bevel" d="
		M299.9,439.9l-1,0.6l-1-0.6v-1.2l-1-0.6v-1.2l-1-0.6V435l-1-0.6v-1.2l1-0.6v-1.2l1-0.6l1,0.6v1.2l1,0.6v1.2l1,0.6v1.2l1,0.6v1.2
		l-1,0.6V439.9"/>
	
		<path id="E14000591" vector-effect="none" fill="#FFB900" stroke="#FFFFFF" stroke-width="0.5" stroke-linecap="square" stroke-linejoin="bevel" d="
		M332.2,527.2v1.2l-1,0.6v1.2l1,0.6v1.2l-1,0.6v1.2l-1,0.6l-1-0.6l-1,0.6l-1-0.6l-1,0.6l-1-0.6v-1.2l1-0.6v-1.2l1-0.6v-1.2l1-0.6
		v-1.2l1-0.6l1,0.6l1-0.6L332.2,527.2"/>
	
		<path id="E14000602" vector-effect="none" fill="#FFB900" stroke="#FFFFFF" stroke-width="0.5" stroke-linecap="square" stroke-linejoin="bevel" d="
		M272.7,543.5v1.2l1,0.6v1.2l1,0.6v1.2l-1,0.6l-1-0.6l-1,0.6l-1-0.6v-1.2l-1-0.6l-1,0.6l-1-0.6v-1.2l1-0.6v-1.2l1-0.6l1,0.6l1-0.6
		v-1.2l1-0.6l1,0.6v1.2L272.7,543.5"/>
	
		<path id="E14000617" vector-effect="none" fill="#FFB900" stroke="#FFFFFF" stroke-width="0.5" stroke-linecap="square" stroke-linejoin="bevel" d="
		M353.1,495.9l1,0.6l1-0.6l1,0.6v1.2l-1,0.6v1.2l1,0.6v1.2l-1,0.6l-1-0.6l-1,0.6l-1-0.6v-1.2l-1-0.6v-1.2l-1-0.6v-1.2l1-0.6v-1.2
		l1-0.6l1,0.6V495.9"/>
	
		<path id="E14000632" vector-effect="none" fill="#FFB900" stroke="#FFFFFF" stroke-width="0.5" stroke-linecap="square" stroke-linejoin="bevel" d="
		M316.6,471.2v1.2l-1,0.6v1.2l-1,0.6l-1-0.6l-1,0.6v1.2l-1,0.6l-1-0.6l-1,0.6l-1-0.6l-1,0.6l-1-0.6l-1,0.6l-1-0.6l-1,0.6l-1-0.6
		v-1.2l1-0.6l1,0.6l1-0.6l1,0.6l1-0.6l1,0.6l1-0.6V473l1-0.6l1,0.6l1-0.6v-1.2l1-0.6l1,0.6l1-0.6L316.6,471.2"/>
	
		<path id="E14000641" vector-effect="none" fill="#FFB900" stroke="#FFFFFF" stroke-width="0.5" stroke-linecap="square" stroke-linejoin="bevel" d="
		M288.4,415.2v1.2l1,0.6l1-0.6l1,0.6l1-0.6l1,0.6l1-0.6l1,0.6l1-0.6l1,0.6l1-0.6l1,0.6v1.2l-1,0.6l-1-0.6l-1,0.6l-1-0.6l-1,0.6
		l-1-0.6l-1,0.6l-1-0.6l-1,0.6l-1-0.6l-1,0.6l-1-0.6l-1,0.6l-1-0.6V417l-1-0.6v-1.2l1-0.6l1,0.6l1-0.6L288.4,415.2"/>
	
		<path id="E14000716" vector-effect="none" fill="#7D0069" stroke="#FFFFFF" stroke-width="0.5" stroke-linecap="square" stroke-linejoin="bevel" d="
		M344.7,458.5v1.2l1,0.6v1.2l-1,0.6v1.2l-1,0.6v1.2l-1,0.6l-1-0.6V464l-1-0.6v-1.2l-1-0.6v-1.2l1-0.6v-1.2l1-0.6l1,0.6l1-0.6
		L344.7,458.5"/>
	
		<path id="E14000752" vector-effect="none" fill="#FFB900" stroke="#FFFFFF" stroke-width="0.5" stroke-linecap="square" stroke-linejoin="bevel" d="
		M342.6,520v1.2l1,0.6v1.2l1,0.6v1.2l-1,0.6l-1-0.6l-1,0.6l-1-0.6l-1,0.6l-1-0.6l-1,0.6l-1-0.6v-1.2l1-0.6v-1.2l1-0.6V520l1-0.6
		l1,0.6l1-0.6L342.6,520"/>
	
		<path id="E14000764" vector-effect="none" fill="#FFB900" stroke="#FFFFFF" stroke-width="0.5" stroke-linecap="square" stroke-linejoin="bevel" d="
		M346.8,530.9v1.2l1,0.6v1.2l-1,0.6v1.2l-1,0.6l-1-0.6l-1,0.6l-1-0.6v-1.2l-1-0.6v-1.2l-1-0.6v-1.2l1-0.6l1,0.6l1-0.6l1,0.6l1-0.6
		L346.8,530.9"/>
	
		<path id="E14000772" vector-effect="none" fill="#FFB900" stroke="#FFFFFF" stroke-width="0.5" stroke-linecap="square" stroke-linejoin="bevel" d="
		M335.3,445.9v1.2l1,0.6l1-0.6l1,0.6v1.2l-1,0.6v1.2l-1,0.6l-1-0.6l-1,0.6l-1-0.6l-1,0.6l-1-0.6v-1.2l1-0.6v-1.2l-1-0.6v-1.2l1-0.6
		l1,0.6l1-0.6L335.3,445.9"/>
	
		<path id="E14000780" vector-effect="none" fill="#FFB900" stroke="#FFFFFF" stroke-width="0.5" stroke-linecap="square" stroke-linejoin="bevel" d="
		M297.8,427.8v1.2l1,0.6l1-0.6l1,0.6v1.2l1,0.6l1-0.6l1,0.6v1.2l1,0.6v1.2l1,0.6v1.2l-1,0.6l-1-0.6V435l-1-0.6v-1.2l-1-0.6l-1,0.6
		l-1-0.6l-1,0.6l-1-0.6v-1.2l-1-0.6v-1.2l-1-0.6l-1,0.6l-1-0.6v-1.2l1-0.6l1,0.6l1-0.6L297.8,427.8"/>
	
		<path id="E14000795" vector-effect="none" fill="#FFB900" stroke="#FFFFFF" stroke-width="0.5" stroke-linecap="square" stroke-linejoin="bevel" d="
		M267.5,469.4v1.2l-1,0.6l-1-0.6l-1,0.6v1.2l-1,0.6v1.2l-1,0.6l-1-0.6V473l-1-0.6v-1.2l1-0.6v-1.2l-1-0.6v-1.2l1-0.6l1,0.6v1.2
		l1,0.6l1-0.6v-1.2l1-0.6l1,0.6v1.2L267.5,469.4"/>
	
		<path id="E14000808" vector-effect="none" fill="#FFB900" stroke="#FFFFFF" stroke-width="0.5" stroke-linecap="square" stroke-linejoin="bevel" d="
		M292.5,462.2v1.2l-1,0.6v1.2l-1,0.6v1.2l-1,0.6l-1-0.6v-1.2l-1-0.6l-1,0.6l-1-0.6l-1,0.6l-1-0.6V464l1-0.6l1,0.6l1-0.6v-1.2l1-0.6
		l1,0.6l1-0.6l1,0.6l1-0.6L292.5,462.2"/>
	
		<path id="E14000809" vector-effect="none" fill="#FFB900" stroke="#FFFFFF" stroke-width="0.5" stroke-linecap="square" stroke-linejoin="bevel" d="
		M288.4,465.8v1.2l-1,0.6v1.2l1,0.6v1.2l-1,0.6v1.2l-1,0.6l-1-0.6l0-1.2l-1-0.6v-1.2l-1-0.6l-1,0.6l-1-0.6v-1.2l1-0.6v-1.2l1-0.6
		l1,0.6l1-0.6l1,0.6l1-0.6L288.4,465.8"/>
	
		<path id="E14000832" vector-effect="none" fill="#FFB900" stroke="#FFFFFF" stroke-width="0.5" stroke-linecap="square" stroke-linejoin="bevel" d="
		M287.3,403.7l1,0.6l1-0.6l1,0.6l1-0.6l1,0.6v1.2l1,0.6l1-0.6l1,0.6v1.2l-1,0.6l-1-0.6l-1,0.6l-1-0.6l-1,0.6l-1-0.6l-1,0.6l-1-0.6
		v-1.2l-1-0.6v-1.2l-1-0.6v-1.2l1-0.6l1,0.6V403.7"/>
	
		<path id="E14000833" vector-effect="none" fill="#FFB900" stroke="#FFFFFF" stroke-width="0.5" stroke-linecap="square" stroke-linejoin="bevel" d="
		M286.3,400.7v1.2l-1,0.6v1.2l-1,0.6l-1-0.6l-1,0.6l-1-0.6l-1,0.6l-1-0.6l-1,0.6v1.2l1,0.6v1.2l-1,0.6l-1-0.6v-1.2l-1-0.6v-1.2
		l1-0.6v-1.2l1-0.6v-1.2l1-0.6l1,0.6l1-0.6l1,0.6l1-0.6l1,0.6l1-0.6L286.3,400.7"/>
	
		<path id="E14000873" vector-effect="none" fill="#FFB900" stroke="#FFFFFF" stroke-width="0.5" stroke-linecap="square" stroke-linejoin="bevel" d="
		M301.9,525.4v1.2l1,0.6v1.2l-1,0.6v1.2l-1,0.6l-1-0.6l-1,0.6l-1-0.6v-1.2l-1-0.6v-1.2l1-0.6v-1.2l-1-0.6v-1.2l1-0.6l1,0.6v1.2
		l1,0.6l1-0.6v-1.2l1-0.6l1,0.6v1.2L301.9,525.4"/>
	
		<path id="E14000897" vector-effect="none" fill="#FFB900" stroke="#FFFFFF" stroke-width="0.5" stroke-linecap="square" stroke-linejoin="bevel" d="
		M291.5,447.1l1,0.6l1-0.6l1,0.6v1.2l-1,0.6l-1-0.6l-1,0.6l-1-0.6v-1.2l-1-0.6l-1,0.6l-1-0.6v-1.2l-1-0.6v-1.2l-1-0.6v-1.2l1-0.6
		v-1.2l1-0.6l1,0.6v1.2l1,0.6v1.2l1,0.6v1.2l1,0.6V447.1"/>
	
		<path id="E14000904" vector-effect="none" fill="#7D0069" stroke="#FFFFFF" stroke-width="0.5" stroke-linecap="square" stroke-linejoin="bevel" d="
		M320.7,460.4v1.2l1,0.6v1.2l1,0.6v1.2l1,0.6v1.2l-1,0.6l-1-0.6l-1,0.6l-1-0.6v-1.2l-1-0.6V464l-1-0.6v-1.2l-1-0.6l-1,0.6l-1-0.6
		v-1.2l1-0.6l1,0.6l1-0.6l1,0.6l1-0.6L320.7,460.4"/>
	
		<path id="E14000919" vector-effect="none" fill="#FFB900" stroke="#FFFFFF" stroke-width="0.5" stroke-linecap="square" stroke-linejoin="bevel" d="
		M312.4,464v1.2l1,0.6l1-0.6l1,0.6l1-0.6l1,0.6v1.2l-1,0.6l-1-0.6l-1,0.6l-1-0.6l-1,0.6l-1-0.6l-1,0.6l-1-0.6l-1,0.6l-1-0.6l-1,0.6
		l-1-0.6v-1.2l1-0.6V464l1-0.6l1,0.6l1-0.6l1,0.6l1-0.6L312.4,464"/>
	
		<path id="E14000922" vector-effect="none" fill="#FFB900" stroke="#FFFFFF" stroke-width="0.5" stroke-linecap="square" stroke-linejoin="bevel" d="
		M308.2,467.6v1.2l-1,0.6v1.2l1,0.6v1.2l-1,0.6l-1-0.6l-1,0.6l-1-0.6l-1,0.6l-1-0.6v-1.2l-1-0.6v-1.2l1-0.6v-1.2l1-0.6l1,0.6l1-0.6
		l1,0.6l1-0.6L308.2,467.6"/>
	
		<path id="E14000978" vector-effect="none" fill="#FFB900" stroke="#FFFFFF" stroke-width="0.5" stroke-linecap="square" stroke-linejoin="bevel" d="
		M342.6,548.9v1.2l1,0.6v1.2l1,0.6v1.2l1,0.6v1.2l-1,0.6l-1-0.6l-1,0.6l-1-0.6v-1.2l-1-0.6v-1.2l-1-0.6l-1,0.6l-1-0.6v-1.2l1-0.6
		v-1.2l1-0.6l1,0.6l1-0.6L342.6,548.9"/>
	
		<path id="E14001013" vector-effect="none" fill="#FFB900" stroke="#FFFFFF" stroke-width="0.5" stroke-linecap="square" stroke-linejoin="bevel" d="
		M354.1,518.2v1.2l1,0.6v1.2l-1,0.6v1.2l-1,0.6v1.2l-1,0.6l-1-0.6v-1.2l-1-0.6v-1.2l-1-0.6V520l1-0.6v-1.2l1-0.6l1,0.6l1-0.6
		L354.1,518.2"/>
	
		<path id="S14000005_7_" vector-effect="none" fill="#FFB900" stroke="#FFFFFF" stroke-width="0.5" stroke-linecap="square" stroke-linejoin="bevel" d="
		M234.1,373l-1,0.6l-1-0.6v-1.2l1-0.6l1,0.6V373"/>
	
		<path id="S14000005_6_" vector-effect="none" fill="#FFB900" stroke="#FFFFFF" stroke-width="0.5" stroke-linecap="square" stroke-linejoin="bevel" d="
		M237.2,371.2l-1,0.6l-1-0.6V370l1-0.6v-1.2l1-0.6l1,0.6v1.2l-1,0.6V371.2"/>
	
		<path id="S14000005_5_" vector-effect="none" fill="#FFB900" stroke="#FFFFFF" stroke-width="0.5" stroke-linecap="square" stroke-linejoin="bevel" d="
		M238.3,365.7l-1,0.6l-1-0.6l-1,0.6l-1-0.6v-1.2l1-0.6v-1.2l1-0.6l1,0.6v1.2l1,0.6V365.7"/>
	
		<path id="S14000005_4_" vector-effect="none" fill="#FFB900" stroke="#FFFFFF" stroke-width="0.5" stroke-linecap="square" stroke-linejoin="bevel" d="
		M241.4,367.5l-1,0.6l-1-0.6v-1.2l1-0.6v-1.2l1-0.6v-1.2l1-0.6v-1.2l1-0.6l1,0.6v1.2l-1,0.6v1.2l-1,0.6v1.2l-1,0.6V367.5"/>
	
		<path id="S14000009_1_" vector-effect="none" fill="#FFB900" stroke="#FFFFFF" stroke-width="0.5" stroke-linecap="square" stroke-linejoin="bevel" d="
		M252.9,339.2v1.2l-1,0.6v1.2l-1,0.6v1.2l-1,0.6l-1-0.6v-1.2l-1-0.6V341l-1-0.6v-1.2l-1-0.6v-1.2l1-0.6l1,0.6v1.2l1,0.6l1-0.6v-1.2
		l1-0.6v-1.2l1-0.6l1,0.6v1.2l1,0.6v1.2L252.9,339.2"/>
	
		<path id="S14000018_1_" vector-effect="none" fill="#FFB900" stroke="#FFFFFF" stroke-width="0.5" stroke-linecap="square" stroke-linejoin="bevel" d="
		M252.9,365.7l1,0.6v1.2l1,0.6v1.2l1,0.6v1.2l1,0.6v1.2l-1,0.6l-1-0.6v-1.2l-1-0.6V370l-1-0.6v-1.2l-1-0.6v-1.2l-1-0.6l-1,0.6v1.2
		l-1,0.6l-1-0.6v-1.2l1-0.6v-1.2l1-0.6v-1.2l1-0.6l1,0.6v1.2l1,0.6V365.7"/>
	
		<path id="S14000026_1_" vector-effect="none" fill="#FFB900" stroke="#FFFFFF" stroke-width="0.5" stroke-linecap="square" stroke-linejoin="bevel" d="
		M267.5,375.4v1.2l-1,0.6v1.2l1,0.6v1.2l-1,0.6v1.2l1,0.6v1.2l-1,0.6l-1-0.6v-1.2l-1-0.6v-1.2l-1-0.6V379l-1-0.6v-1.2l-1-0.6v-1.2
		l1-0.6l1,0.6l1-0.6l1,0.6l1-0.6L267.5,375.4"/>
	
		<path id="S14000037_1_" vector-effect="none" fill="#FFB900" stroke="#FFFFFF" stroke-width="0.5" stroke-linecap="square" stroke-linejoin="bevel" d="
		M279,344.6v1.2l-1,0.6l-1-0.6l-1,0.6l-1-0.6l-1,0.6l-1-0.6l-1,0.6l-1-0.6l-1,0.6v1.2l-1,0.6v1.2l-1,0.6l-1-0.6l-1,0.6l-1-0.6v-1.2
		l1-0.6v-1.2l1-0.6l1,0.6l1-0.6v-1.2l1-0.6l1,0.6l1-0.6l1,0.6l1-0.6l1,0.6l1-0.6l1,0.6l1-0.6L279,344.6"/>
	
		<path id="S14000039_1_" vector-effect="none" fill="#FFB900" stroke="#FFFFFF" stroke-width="0.5" stroke-linecap="square" stroke-linejoin="bevel" d="
		M255,346.5v1.2l1,0.6l1-0.6l1,0.6v1.2l-1,0.6l-1-0.6l-1,0.6v1.2l-1,0.6l-1-0.6l-1,0.6v1.2l-1,0.6l-1-0.6v-1.2l1-0.6v-1.2l-1-0.6
		v-1.2l1-0.6v-1.2l1-0.6l1,0.6l1-0.6L255,346.5"/>
	
		<path id="S14000049_1_" vector-effect="none" fill="#FFB900" stroke="#FFFFFF" stroke-width="0.5" stroke-linecap="square" stroke-linejoin="bevel" d="
		M268.5,362.7v1.2l1,0.6l1-0.6l1,0.6v1.2l1,0.6l1-0.6l1,0.6v1.2l1,0.6l1-0.6l1,0.6v1.2l-1,0.6l-1-0.6l-1,0.6l-1-0.6v-1.2l-1-0.6
		l-1,0.6l-1-0.6v-1.2l-1-0.6l-1,0.6l-1-0.6v-1.2l-1-0.6l-1,0.6l-1-0.6v-1.2l1-0.6l1,0.6l1-0.6L268.5,362.7"/>
	
		<path id="S14000051_5_" vector-effect="none" fill="#FFB900" stroke="#FFFFFF" stroke-width="0.5" stroke-linecap="square" stroke-linejoin="bevel" d="
		M257.1,333.2l-1,0.6l-1-0.6V332l1-0.6l1,0.6V333.2"/>
	
		<path id="S14000051_4_" vector-effect="none" fill="#FFB900" stroke="#FFFFFF" stroke-width="0.5" stroke-linecap="square" stroke-linejoin="bevel" d="
		M259.1,329.6l1,0.6v1.2l-1,0.6l-1-0.6v-1.2l-1-0.6l-1,0.6l-1-0.6v-1.2l1-0.6v-1.2l1-0.6l1,0.6v1.2l1,0.6V329.6"/>
	
		<path id="S14000051_3_" vector-effect="none" fill="#FFB900" stroke="#FFFFFF" stroke-width="0.5" stroke-linecap="square" stroke-linejoin="bevel" d="
		M274.8,308.5v1.2l-1,0.6l-1-0.6l-1,0.6l-1-0.6v-1.2l1-0.6l1,0.6l1-0.6v-1.2l-1-0.6v-1.2l1-0.6v-1.2l1-0.6l1,0.6v1.2l-1,0.6v1.2
		l1,0.6v1.2L274.8,308.5"/>
	
		<path id="S14000055_3_" vector-effect="none" fill="#FFB900" stroke="#FFFFFF" stroke-width="0.5" stroke-linecap="square" stroke-linejoin="bevel" d="
		M242.4,346.5v1.2l-1,0.6v1.2l-1,0.6l-1-0.6v-1.2l-1-0.6v-1.2l1-0.6l1,0.6l1-0.6L242.4,346.5"/>
	
		<path id="S14000055_2_" vector-effect="none" fill="#FFB900" stroke="#FFFFFF" stroke-width="0.5" stroke-linecap="square" stroke-linejoin="bevel" d="
		M251.8,344.6v1.2l-1,0.6v1.2l-1,0.6v1.2l1,0.6v1.2l-1,0.6v1.2l-1,0.6l-1-0.6v-1.2l1-0.6v-1.2l-1-0.6v-1.2l-1-0.6v-1.2l1-0.6v-1.2
		l1-0.6l1,0.6l1-0.6L251.8,344.6"/>
	
		<path id="S14000058_1_" vector-effect="none" fill="#FFB900" stroke="#FFFFFF" stroke-width="0.5" stroke-linecap="square" stroke-linejoin="bevel" d="
		M271.7,350.1v1.2l-1,0.6l-1-0.6l-1,0.6v1.2l-1,0.6l-1-0.6v-1.2l-1-0.6l-1,0.6l-1-0.6l-1,0.6l-1-0.6l-1,0.6l-1-0.6l-1,0.6l-1-0.6
		l-1,0.6l-1-0.6v-1.2l1-0.6l1,0.6l1-0.6l1,0.6l1-0.6l1,0.6l1-0.6l1,0.6l1-0.6l1,0.6l1-0.6l1,0.6l1-0.6l1,0.6l1-0.6L271.7,350.1"/>
	
		<path id="W07000041" vector-effect="none" fill="#FFB900" stroke="#FFFFFF" stroke-width="0.5" stroke-linecap="square" stroke-linejoin="bevel" d="
		M241.4,479.6l-1,0.6l-1-0.6l-1,0.6l-1-0.6v-1.2l1-0.6v-1.2l-1-0.6v-1.2l-1-0.6v-1.2l1-0.6v-1.2l1-0.6l1,0.6v1.2l1,0.6v1.2l1,0.6
		v1.2l1,0.6v1.2l-1,0.6V479.6"/>
	
		<path id="W07000045" vector-effect="none" fill="#FFB900" stroke="#FFFFFF" stroke-width="0.5" stroke-linecap="square" stroke-linejoin="bevel" d="
		M243.5,521.8v1.2l-1,0.6v1.2l-1,0.6v1.2l-1,0.6v1.2l-1,0.6l-1-0.6v-1.2l-1-0.6v-1.2l1-0.6v-1.2l1-0.6v-1.2l1-0.6l1,0.6l1-0.6V520
		l1-0.6l1,0.6v1.2L243.5,521.8"/>
	
		<path id="W07000047" vector-effect="none" fill="#FFB900" stroke="#FFFFFF" stroke-width="0.5" stroke-linecap="square" stroke-linejoin="bevel" d="
		M243.5,537.5l-1,0.6l-1-0.6v-1.2l-1-0.6v-1.2l-1-0.6v-1.2l1-0.6v-1.2l1-0.6v-1.2l1-0.6l1,0.6v1.2l1,0.6v1.2l1,0.6v1.2l-1,0.6v1.2
		l-1,0.6V537.5"/>
	
		<path id="W07000050" vector-effect="none" fill="#FFB900" stroke="#FFFFFF" stroke-width="0.5" stroke-linecap="square" stroke-linejoin="bevel" d="
		M261.2,541.7v1.2l1,0.6v1.2l-1,0.6v1.2l-1,0.6v1.2l-1,0.6l-1-0.6v-1.2l-1-0.6v-1.2l-1-0.6v-1.2l1-0.6v-1.2l1-0.6l1,0.6l1-0.6
		L261.2,541.7"/>
	
		<path id="W07000052" vector-effect="none" fill="#FFB900" stroke="#FFFFFF" stroke-width="0.5" stroke-linecap="square" stroke-linejoin="bevel" d="
		M252.9,532.1l-1,0.6l-1-0.6v-1.2l-1-0.6v-1.2l-1-0.6v-1.2l-1-0.6v-1.2l1-0.6v-1.2l1-0.6l1,0.6v1.2l1,0.6v1.2l1,0.6v1.2l1,0.6v1.2
		l-1,0.6V532.1"/>
	
		<path id="W07000055" vector-effect="none" fill="#FFB900" stroke="#FFFFFF" stroke-width="0.5" stroke-linecap="square" stroke-linejoin="bevel" d="
		M269.6,539.3l-1,0.6l-1-0.6l-1,0.6v1.2l-1,0.6l-1-0.6v-1.2l1-0.6v-1.2l1-0.6v-1.2l-1-0.6v-1.2l1-0.6v-1.2l-1-0.6v-1.2l1-0.6l1,0.6
		v1.2l1,0.6v1.2l1,0.6v1.2l1,0.6v1.2l-1,0.6V539.3"/>
	
		<path id="W07000057" vector-effect="none" fill="#FFB900" stroke="#FFFFFF" stroke-width="0.5" stroke-linecap="square" stroke-linejoin="bevel" d="
		M245.6,482.1v1.2l-1,0.6v1.2l-1,0.6v1.2l-1,0.6v1.2l1,0.6v1.2l-1,0.6l-1-0.6v-1.2l-1-0.6v-1.2l-1-0.6v-1.2l1-0.6v-1.2l-1-0.6v-1.2
		l1-0.6l1,0.6l1-0.6l1,0.6l1-0.6L245.6,482.1"/>
	
		<path id="W07000067_1_" vector-effect="none" fill="#FFB900" stroke="#FFFFFF" stroke-width="0.5" stroke-linecap="square" stroke-linejoin="bevel" d="
		M253.9,511v1.2l-1,0.6v1.2l1,0.6v1.2l-1,0.6v1.2l-1,0.6l-1-0.6l-1,0.6l-1-0.6l-1,0.6l-1-0.6v-1.2l1-0.6v-1.2l1-0.6v-1.2l1-0.6V511
		l1-0.6l1,0.6l1-0.6L253.9,511"/>
	
		<path id="W07000069" vector-effect="none" fill="#FFB900" stroke="#FFFFFF" stroke-width="0.5" stroke-linecap="square" stroke-linejoin="bevel" d="
		M249.7,518.2v1.2l-1,0.6v1.2l1,0.6v1.2l-1,0.6v1.2l-1,0.6v1.2l1,0.6v1.2l-1,0.6l-1-0.6v-1.2l-1-0.6v-1.2l1-0.6v-1.2l-1-0.6v-1.2
		l-1-0.6V520l1-0.6v-1.2l1-0.6l1,0.6l1-0.6L249.7,518.2"/>
	
		<path id="W07000070" vector-effect="none" fill="#FFB900" stroke="#FFFFFF" stroke-width="0.5" stroke-linecap="square" stroke-linejoin="bevel" d="
		M256,530.3l-1,0.6l-1-0.6v-1.2l-1-0.6v-1.2l-1-0.6v-1.2l-1-0.6v-1.2l-1-0.6v-1.2l-1-0.6V520l1-0.6v-1.2l1-0.6l1,0.6v1.2l1,0.6v1.2
		l-1,0.6v1.2l1,0.6v1.2l1,0.6v1.2l1,0.6v1.2l1,0.6V530.3"/>
	
		<path id="W07000071" vector-effect="none" fill="#FFB900" stroke="#FFFFFF" stroke-width="0.5" stroke-linecap="square" stroke-linejoin="bevel" d="
		M258.1,526.6l-1,0.6l-1-0.6l-1,0.6l-1-0.6v-1.2l-1-0.6v-1.2l-1-0.6v-1.2l1-0.6V520l-1-0.6v-1.2l1-0.6v-1.2l1-0.6l1,0.6v1.2l-1,0.6
		v1.2l1,0.6v1.2l1,0.6v1.2l1,0.6v1.2l1,0.6V526.6"/>
	
		<path id="W07000075" vector-effect="none" fill="#FFB900" stroke="#FFFFFF" stroke-width="0.5" stroke-linecap="square" stroke-linejoin="bevel" d="
		M253.9,541.1l-1,0.6l-1-0.6v-1.2l1-0.6v-1.2l-1-0.6v-1.2l1-0.6v-1.2l-1-0.6v-1.2l1-0.6v-1.2l1-0.6l1,0.6v1.2l1,0.6v1.2l1,0.6v1.2
		l-1,0.6v1.2l-1,0.6v1.2l-1,0.6V541.1"/>
	
		<path id="W07000076" vector-effect="none" fill="#FFB900" stroke="#FFFFFF" stroke-width="0.5" stroke-linecap="square" stroke-linejoin="bevel" d="
		M259.1,532.1l1,0.6l1-0.6l1,0.6v1.2l-1,0.6v1.2l-1,0.6l-1-0.6l-1,0.6l-1-0.6v-1.2l-1-0.6v-1.2l-1-0.6v-1.2l1-0.6v-1.2l-1-0.6v-1.2
		l1-0.6l1,0.6v1.2l1,0.6v1.2l1,0.6V532.1"/>
	
		<path id="W07000077" vector-effect="none" fill="#FFB900" stroke="#FFFFFF" stroke-width="0.5" stroke-linecap="square" stroke-linejoin="bevel" d="
		M263.3,532.1l-1,0.6l-1-0.6l-1,0.6l-1-0.6v-1.2l-1-0.6v-1.2l-1-0.6v-1.2l1-0.6v-1.2l-1-0.6v-1.2l1-0.6l1,0.6v1.2l1,0.6v1.2l1,0.6
		v1.2l1,0.6v1.2l1,0.6V532.1"/>
</g>
<g id="areas">
	<path vector-effect="none" fill="none" stroke="#FFFFFF" stroke-linecap="square" stroke-linejoin="bevel" d="M298.8,485v-1.2
		l-1-0.6V482l-1-0.6v-1.2l-1-0.6v-1.2l-1-0.6v-1.2l1-0.6v-1.2l1-0.6V473l1-0.6v-1.2l1-0.6v-1.2l1-0.6l1,0.6v1.2l1,0.6v1.2l1,0.6
		l1-0.6l1,0.6l1-0.6l1,0.6l1-0.6v-1.2l1-0.6l1,0.6l1-0.6l1,0.6l1-0.6l1,0.6l1-0.6l1,0.6l1-0.6l1,0.6l1-0.6v-1.2l1-0.6l1,0.6l1-0.6
		l1,0.6l1-0.6l1,0.6v1.2l1,0.6l1-0.6v-1.2l-1-0.6v-1.2l1-0.6v-1.2l1-0.6V464l1-0.6v-1.2l1-0.6l1,0.6l1-0.6l1,0.6v1.2l1,0.6v1.2
		l1,0.6v1.2l1,0.6l1-0.6v-1.2l1-0.6l1,0.6v1.2l1,0.6v1.2l1,0.6l1-0.6v-1.2l1-0.6v-1.2l1-0.6l1,0.6v1.2l-1,0.6v1.2l1,0.6v1.2l1,0.6
		v1.2l1,0.6v1.2l1,0.6v1.2l-1,0.6v1.2l-1,0.6v1.2l-1,0.6v1.2l1,0.6l1-0.6l1,0.6v1.2l1,0.6v1.2l-1,0.6l-1-0.6l-1,0.6l-1-0.6l-1,0.6
		l-1-0.6l-1,0.6l-1-0.6l-1,0.6v1.2l-1,0.6l-1-0.6l-1,0.6v1.2l1,0.6v1.2l1,0.6v1.2l-1,0.6v1.2l-1,0.6v1.2l-1,0.6l-1-0.6l-1,0.6v1.2
		l-1,0.6v1.2l-1,0.6l-1-0.6l-1,0.6v1.2l-1,0.6l-1-0.6l-1,0.6v1.2l-1,0.6l-1-0.6l-1,0.6l-1-0.6l-1,0.6v1.2l-1,0.6v1.2l-1,0.6v1.2
		l-1,0.6v1.2l-1,0.6l-1-0.6l-1,0.6v1.2l-1,0.6l-1-0.6V511l-1-0.6l-1,0.6v1.2l-1,0.6v1.2l-1,0.6v1.2l-1,0.6l-1-0.6l-1,0.6v1.2l-1,0.6
		v1.2l-1,0.6l-1-0.6l-1,0.6l-1-0.6v-1.2l1-0.6v-1.2l1-0.6l1,0.6l1-0.6v-1.2l1-0.6l1,0.6l1-0.6v-1.2l1-0.6V511l1-0.6v-1.2l1-0.6v-1.2
		l1-0.6v-1.2l1-0.6v-1.2l1-0.6v-1.2l-1-0.6v-1.2l1-0.6v-1.2l-1-0.6v-1.2l1-0.6v-1.2l-1-0.6l-1,0.6v1.2l-1,0.6l-1-0.6l-1,0.6l-1-0.6
		l-1,0.6l-1-0.6l-1,0.6l-1-0.6v-1.2l-1-0.6v-1.2l1-0.6v-1.2l-1-0.6l-1,0.6l-1-0.6l-1,0.6l-1-0.6v-1.2l1-0.6v-1.2l-1-0.6l-1,0.6
		l-1-0.6v-1.2L298.8,485"/>
	<path vector-effect="none" fill="none" stroke="#FFFFFF" stroke-linecap="square" stroke-linejoin="bevel" d="M305.1,495.9l1,0.6
		l1-0.6l1,0.6l1-0.6l1,0.6l1-0.6l1,0.6l1-0.6v-1.2l1-0.6l1,0.6v1.2l-1,0.6v1.2l1,0.6v1.2l-1,0.6v1.2l1,0.6v1.2l-1,0.6v1.2l-1,0.6
		v1.2l-1,0.6v1.2l-1,0.6v1.2l-1,0.6v1.2l-1,0.6v1.2l-1,0.6l-1-0.6l-1,0.6v1.2l-1,0.6l-1-0.6l-1,0.6v1.2l-1,0.6v1.2l1,0.6v1.2l-1,0.6
		l-1-0.6V520l-1-0.6l-1,0.6v1.2l-1,0.6l-1-0.6l-1,0.6v1.2l-1,0.6v1.2l-1,0.6l-1-0.6l-1,0.6l-1-0.6l-1,0.6v1.2l-1,0.6l-1-0.6l-1,0.6
		l-1-0.6v-1.2l-1-0.6l-1,0.6l-1-0.6l-1,0.6l-1-0.6l-1,0.6l-1-0.6l-1,0.6v1.2l-1,0.6l-1-0.6v-1.2l-1-0.6l-1,0.6l-1-0.6v-1.2l-1-0.6
		l-1,0.6l-1-0.6l-1,0.6v1.2l-1,0.6l-1-0.6v-1.2l-1-0.6v-1.2l-1-0.6l-1,0.6l-1-0.6V520l-1-0.6v-1.2l-1-0.6l-1,0.6l-1-0.6v-1.2l-1-0.6
		v-1.2l1-0.6v-1.2l1-0.6l1,0.6l1-0.6V511l-1-0.6v-1.2l1-0.6v-1.2l-1-0.6l-1,0.6v1.2l-1,0.6l-1-0.6v-1.2l-1-0.6v-1.2l-1-0.6v-1.2
		l1-0.6v-1.2l1-0.6v-1.2l-1-0.6v-1.2l1-0.6l1,0.6l1-0.6v-1.2l1-0.6l1,0.6l1-0.6v-1.2l1-0.6l1,0.6l1-0.6l1,0.6l1-0.6v-1.2l1-0.6
		l1,0.6l1-0.6v-1.2l1-0.6l1,0.6l1-0.6v-1.2l1-0.6v-1.2l1-0.6v-1.2l1-0.6l1,0.6l1-0.6v-1.2l1-0.6l1,0.6l1-0.6V482l1-0.6l1,0.6l1-0.6
		v-1.2l1-0.6l1,0.6l1-0.6l1,0.6l1-0.6l1,0.6l1-0.6v-1.2l1-0.6l1,0.6l1-0.6l1,0.6v1.2l1,0.6v1.2l1,0.6v1.2l1,0.6v1.2l-1,0.6v1.2
		l1,0.6l1-0.6l1,0.6v1.2l-1,0.6v1.2l1,0.6l1-0.6l1,0.6l1-0.6l1,0.6v1.2l-1,0.6v1.2l1,0.6V495.9"/>
	<path vector-effect="none" fill="none" stroke="#FFFFFF" stroke-linecap="square" stroke-linejoin="bevel" d="M265.4,550.1v-1.2
		l1-0.6v-1.2l-1-0.6v-1.2l1-0.6v-1.2l1-0.6v-1.2l1-0.6v-1.2l1-0.6v-1.2l1-0.6v-1.2l-1-0.6v-1.2l-1-0.6v-1.2l1-0.6v-1.2l-1-0.6V529
		l-1-0.6v-1.2l-1-0.6v-1.2l1-0.6v-1.2l1-0.6l1,0.6l1-0.6l1,0.6v1.2l1,0.6l1-0.6l1,0.6v1.2l1,0.6l1-0.6v-1.2l1-0.6l1,0.6l1-0.6l1,0.6
		l1-0.6l1,0.6l1-0.6l1,0.6v1.2l1,0.6l1-0.6l1,0.6l1-0.6v-1.2l1-0.6l1,0.6v1.2l-1,0.6v1.2l-1,0.6v1.2l-1,0.6v1.2l1,0.6l1-0.6l1,0.6
		v1.2l-1,0.6v1.2l-1,0.6v1.2l1,0.6v1.2l-1,0.6v1.2l1,0.6v1.2l-1,0.6v1.2l1,0.6v1.2l-1,0.6v1.2l1,0.6v1.2l-1,0.6v1.2l-1,0.6l-1-0.6
		l-1,0.6v1.2l1,0.6v1.2l1,0.6v1.2l1,0.6v1.2l-1,0.6v1.2l-1,0.6l-1-0.6v-1.2l-1-0.6l-1,0.6v1.2l-1,0.6v1.2l1,0.6v1.2l1,0.6l1-0.6
		l1,0.6v1.2l1,0.6v1.2l1,0.6v1.2l1,0.6l1-0.6l1,0.6v1.2l1,0.6v1.2l1,0.6v1.2l1,0.6v1.2l-1,0.6v1.2l-1,0.6l-1-0.6l-1,0.6l-1-0.6v-1.2
		l-1-0.6l-1,0.6l-1-0.6l-1,0.6l-1-0.6l-1,0.6v1.2l-1,0.6l-1-0.6v-1.2l-1-0.6l-1,0.6l-1-0.6V576l-1-0.6v-1.2l-1-0.6v-1.2l-1-0.6v-1.2
		l-1-0.6l-1,0.6l-1-0.6l-1,0.6l-1-0.6v-1.2l-1-0.6l-1,0.6l-1-0.6l-1,0.6l-1-0.6l-1,0.6l-1-0.6l-1,0.6v1.2l-1,0.6l-1-0.6l-1,0.6
		l-1-0.6l-1,0.6l-1-0.6v-1.2l-1-0.6l-1,0.6v1.2l1,0.6v1.2l1,0.6v1.2l1,0.6v1.2l1,0.6v1.2l1,0.6v1.2l-1,0.6v1.2l-1,0.6l-1-0.6l-1,0.6
		l-1-0.6l-1,0.6l-1-0.6l-1,0.6l-1-0.6l-1,0.6l-1-0.6l-1,0.6l-1-0.6l-1,0.6l-1-0.6v-1.2l-1-0.6l-1,0.6l-1-0.6v-1.2l-1-0.6V576l-1-0.6
		l-1,0.6l-1-0.6l-1,0.6v1.2l-1,0.6v1.2l-1,0.6l-1-0.6l-1,0.6v1.2l-1,0.6v1.2l-1,0.6l-1-0.6l-1,0.6v1.2l1,0.6v1.2l-1,0.6v1.2l-1,0.6
		v1.2l-1,0.6l-1-0.6v-1.2l-1-0.6v-1.2l-1-0.6l-1,0.6l-1-0.6v-1.2l-1-0.6l-1,0.6v1.2l-1,0.6l-1-0.6v-1.2l1-0.6v-1.2l1-0.6l1,0.6
		l1-0.6v-1.2l1-0.6l1,0.6l1-0.6v-1.2l1-0.6l1,0.6l1-0.6v-1.2l1-0.6V576l1-0.6v-1.2l1-0.6v-1.2l1-0.6v-1.2l1-0.6l1,0.6l1-0.6l1,0.6
		l1-0.6v-1.2l1-0.6V567l1-0.6l1,0.6l1-0.6v-1.2l1-0.6v-1.2l1-0.6l1,0.6l1-0.6v-1.2l1-0.6l1,0.6l1-0.6v-1.2l-1-0.6V558l-1-0.6v-1.2
		l1-0.6l1,0.6l1-0.6l1,0.6l1-0.6l1,0.6v1.2l1,0.6l1-0.6l1,0.6l1-0.6l1,0.6v1.2l1,0.6l1-0.6l1,0.6l1-0.6l1,0.6l1-0.6l1,0.6l1-0.6V558
		l1-0.6v-1.2l-1-0.6v-1.2l-1-0.6v-1.2l1-0.6v-1.2L265.4,550.1"/>
	<path vector-effect="none" fill="none" stroke="#FFFFFF" stroke-linecap="square" stroke-linejoin="bevel" d="M367.7,530.8l-1-0.6
		V529l-1-0.6v-1.2l1-0.6v-1.2l-1-0.6v-1.2l1-0.6v-1.2l1-0.6V520l-1-0.6l-1,0.6l-1-0.6v-1.2l-1-0.6v-1.2l-1-0.6l-1,0.6l-1-0.6l-1,0.6
		l-1-0.6l-1,0.6l-1-0.6v-1.2l-1-0.6l-1,0.6l-1-0.6v-1.2l-1-0.6V511l-1-0.6l-1,0.6l-1-0.6l-1,0.6l-1-0.6l-1,0.6l-1-0.6l-1,0.6l-1-0.6
		l-1,0.6v1.2l-1,0.6l-1-0.6l-1,0.6v1.2l-1,0.6l-1-0.6l-1,0.6v1.2l-1,0.6l-1-0.6l-1,0.6v1.2l-1,0.6l-1-0.6l-1,0.6v1.2l-1,0.6l-1-0.6
		l-1,0.6l-1-0.6l-1,0.6v1.2l-1,0.6v1.2l-1,0.6v1.2l-1,0.6l-1-0.6l-1,0.6v1.2l-1,0.6l-1-0.6l-1,0.6l-1-0.6v-1.2l1-0.6v-1.2l-1-0.6
		l-1,0.6l-1-0.6l-1,0.6l-1-0.6v-1.2l1-0.6V520l1-0.6v-1.2l1-0.6v-1.2l1-0.6l1,0.6l1-0.6v-1.2l1-0.6v-1.2l1-0.6l1,0.6l1-0.6V511
		l1-0.6l1,0.6l1-0.6v-1.2l1-0.6v-1.2l1-0.6v-1.2l1-0.6v-1.2l1-0.6v-1.2l1-0.6l1,0.6l1-0.6v-1.2l1-0.6l1,0.6l1-0.6v-1.2l1-0.6v-1.2
		l1-0.6l1,0.6l1-0.6v-1.2l1-0.6v-1.2l1-0.6v-1.2l-1-0.6v-1.2l-1-0.6v-1.2l1-0.6l1,0.6l1-0.6v-1.2l1-0.6l1,0.6l1-0.6l1,0.6l1-0.6
		l1,0.6l1-0.6l1,0.6l1-0.6l1,0.6l1-0.6l1,0.6l1-0.6v-1.2l1-0.6l1,0.6l1-0.6V482l1-0.6l1,0.6l1-0.6l1,0.6l1-0.6l1,0.6v1.2l1,0.6
		l1-0.6l1,0.6l1-0.6l1,0.6l1-0.6l1,0.6v1.2l1,0.6l1-0.6l1,0.6v1.2l1,0.6l1-0.6l1,0.6v1.2l1,0.6v1.2l-1,0.6v1.2l1,0.6v1.2l1,0.6v1.2
		l1,0.6v1.2l1,0.6v1.2l-1,0.6l-1-0.6l-1,0.6v1.2l1,0.6v1.2l-1,0.6v1.2l1,0.6v1.2l1,0.6v1.2l-1,0.6v1.2l-1,0.6v1.2l-1,0.6v1.2l1,0.6
		v1.2l1,0.6v1.2l-1,0.6v1.2l1,0.6v1.2l-1,0.6l-1-0.6l-1,0.6v1.2l1,0.6v1.2l1,0.6v1.2l1,0.6l1-0.6l1,0.6v1.2l1,0.6v1.2l1,0.6v1.2
		l-1,0.6v1.2l-1,0.6v1.2l-1,0.6l-1-0.6l-1,0.6l-1-0.6l-1,0.6v1.2l-1,0.6l-1-0.6l-1,0.6v1.2l-1,0.6l-1-0.6l-1,0.6v1.2l-1,0.6v1.2
		l-1,0.6l-1-0.6l-1,0.6l-1-0.6v-1.2l-1-0.6v-1.2l1-0.6v-1.2l1-0.6l1,0.6l1-0.6v-1.2l-1-0.6v-1.2l1-0.6v-1.2l-1-0.6V530.8"/>
	<path vector-effect="none" fill="none" stroke="#FFFFFF" stroke-linecap="square" stroke-linejoin="bevel" d="M282.1,393.5v1.2
		l1,0.6v1.2l1,0.6l1-0.6l1,0.6l1-0.6l1,0.6l1-0.6l1,0.6l1-0.6l1,0.6v1.2l1,0.6l1-0.6l1,0.6v1.2l1,0.6l1-0.6l1,0.6v1.2l1,0.6l1-0.6
		l1,0.6v1.2l1,0.6l1-0.6l1,0.6v1.2l1,0.6l1-0.6l1,0.6v1.2l-1,0.6v1.2l1,0.6v1.2l1,0.6v1.2l-1,0.6v1.2l1,0.6v1.2l1,0.6v1.2l1,0.6v1.2
		l1,0.6l1-0.6l1,0.6v1.2l1,0.6l1-0.6l1,0.6v1.2l1,0.6v1.2l1,0.6v1.2l1,0.6v1.2l-1,0.6v1.2l-1,0.6l-1-0.6l-1,0.6l-1-0.6l-1,0.6
		l-1-0.6l-1,0.6l-1-0.6l-1,0.6l-1-0.6v-1.2l-1-0.6l-1,0.6l-1-0.6l-1,0.6l-1-0.6l-1,0.6l-1-0.6v-1.2l-1-0.6V426l-1-0.6l-1,0.6l-1-0.6
		l-1,0.6l-1-0.6v-1.2l-1-0.6l-1,0.6l-1-0.6v-1.2l-1-0.6l-1,0.6l-1-0.6l-1,0.6l-1-0.6v-1.2l-1-0.6l-1,0.6v1.2l-1,0.6l-1-0.6l-1,0.6
		l-1-0.6v-1.2l-1-0.6v-1.2l-1-0.6V417l-1-0.6v-1.2l-1-0.6v-1.2l-1-0.6v-1.2l1-0.6v-1.2l-1-0.6v-1.2l-1-0.6l-1,0.6l-1-0.6v-1.2
		l-1-0.6v-1.2l1-0.6v-1.2l1-0.6v-1.2l1-0.6v-1.2l1-0.6l1,0.6l1-0.6v-1.2l-1-0.6v-1.2l1-0.6v-1.2l1-0.6l1,0.6l1-0.6L282.1,393.5"/>
	<path vector-effect="none" fill="none" stroke="#FFFFFF" stroke-linecap="square" stroke-linejoin="bevel" d="M282.1,346.5v1.2
		l-1,0.6v1.2l-1,0.6v1.2l-1,0.6l-1-0.6l-1,0.6l-1-0.6l-1,0.6l-1-0.6l-1,0.6l-1-0.6l-1,0.6l-1-0.6l-1,0.6v1.2l-1,0.6v1.2l1,0.6v1.2
		l1,0.6v1.2l1,0.6v1.2l-1,0.6l-1-0.6l-1,0.6v1.2l1,0.6v1.2l1,0.6l1-0.6l1,0.6v1.2l1,0.6l1-0.6l1,0.6v1.2l1,0.6l1-0.6l1,0.6v1.2
		l-1,0.6l-1-0.6l-1,0.6l-1-0.6l-1,0.6v1.2l-1,0.6v1.2l-1,0.6l-1-0.6v-1.2l-1-0.6l-1,0.6l-1-0.6l-1,0.6l-1-0.6l-1,0.6l-1-0.6l-1,0.6
		v1.2l1,0.6v1.2l1,0.6l1-0.6l1,0.6l1-0.6l1,0.6l1-0.6l1,0.6v1.2l1,0.6v1.2l1,0.6v1.2l1,0.6l1-0.6l1,0.6l1-0.6l1,0.6v1.2l1,0.6v1.2
		l1,0.6v1.2l1,0.6v1.2l-1,0.6v1.2l-1,0.6v1.2l1,0.6v1.2l-1,0.6v1.2l-1,0.6v1.2l1,0.6v1.2l-1,0.6l-1-0.6l-1,0.6v1.2l-1,0.6v1.2
		l-1,0.6v1.2l-1,0.6l-1-0.6l-1,0.6l-1-0.6l-1,0.6l-1-0.6l-1,0.6l-1-0.6l-1,0.6v1.2l-1,0.6l-1-0.6l-1,0.6l-1-0.6l-1,0.6v1.2l-1,0.6
		l-1-0.6l-1,0.6l-1-0.6l-1,0.6l-1-0.6l-1,0.6v1.2l-1,0.6l-1-0.6v-1.2l-1-0.6l-1,0.6l-1-0.6v-1.2l1-0.6l1,0.6l1-0.6v-1.2l-1-0.6v-1.2
		l1-0.6v-1.2l-1-0.6v-1.2l1-0.6v-1.2l-1-0.6v-1.2l-1-0.6v-1.2l-1-0.6v-1.2l-1-0.6l-1,0.6l-1-0.6v-1.2l-1-0.6V388l-1-0.6v-1.2l-1-0.6
		v-1.2l1-0.6v-1.2l1-0.6v-1.2l1-0.6V379l-1-0.6v-1.2l1-0.6v-1.2l-1-0.6v-1.2l1-0.6v-1.2l-1-0.6V370l1-0.6v-1.2l-1-0.6l-1,0.6l-1-0.6
		v-1.2l1-0.6v-1.2l1-0.6v-1.2l1-0.6v-1.2l1-0.6l1,0.6l1-0.6l1,0.6l1-0.6v-1.2l1-0.6v-1.2l1-0.6l1,0.6l1-0.6v-1.2l-1-0.6v-1.2l-1-0.6
		l-1,0.6l-1-0.6v-1.2l1-0.6v-1.2l-1-0.6v-1.2l-1-0.6v-1.2l1-0.6v-1.2l1-0.6v-1.2l-1-0.6V341l-1-0.6v-1.2l-1-0.6v-1.2l1-0.6l1,0.6
		v1.2l1,0.6l1-0.6v-1.2l1-0.6v-1.2l1-0.6l1,0.6v1.2l1,0.6v1.2l-1,0.6v1.2l-1,0.6v1.2l-1,0.6v1.2l1,0.6v1.2l1,0.6l1-0.6l1,0.6v1.2
		l1,0.6l1-0.6l1,0.6l1-0.6v-1.2l1-0.6l1,0.6l1-0.6v-1.2l1-0.6l1,0.6l1-0.6l1,0.6l1-0.6v-1.2l1-0.6l1,0.6l1-0.6l1,0.6l1-0.6l1,0.6
		l1-0.6V341l1-0.6l1,0.6l1-0.6l1,0.6l1-0.6l1,0.6v1.2l-1,0.6v1.2l1,0.6v1.2L282.1,346.5"/>
	<path vector-effect="none" fill="none" stroke="#FFFFFF" stroke-linecap="square" stroke-linejoin="bevel" d="M234.1,373l-1,0.6
		l-1-0.6v-1.2l1-0.6l1,0.6V373"/>
	<path vector-effect="none" fill="none" stroke="#FFFFFF" stroke-linecap="square" stroke-linejoin="bevel" d="M237.2,371.2l-1,0.6
		l-1-0.6V370l1-0.6v-1.2l1-0.6l1,0.6v1.2l-1,0.6V371.2"/>
	<path vector-effect="none" fill="none" stroke="#FFFFFF" stroke-linecap="square" stroke-linejoin="bevel" d="M238.3,365.7l-1,0.6
		l-1-0.6l-1,0.6l-1-0.6v-1.2l1-0.6v-1.2l1-0.6l1,0.6v1.2l1,0.6V365.7"/>
	<path vector-effect="none" fill="none" stroke="#FFFFFF" stroke-linecap="square" stroke-linejoin="bevel" d="M232,351.3l-1,0.6
		l-1-0.6v-1.2l1-0.6v-1.2l1-0.6l1,0.6v1.2l-1,0.6V351.3"/>
	<path vector-effect="none" fill="none" stroke="#FFFFFF" stroke-linecap="square" stroke-linejoin="bevel" d="M235.1,345.8l-1,0.6
		l-1-0.6v-1.2l-1-0.6v-1.2l1-0.6l1,0.6v1.2l1,0.6V345.8"/>
	<path vector-effect="none" fill="none" stroke="#FFFFFF" stroke-linecap="square" stroke-linejoin="bevel" d="M239.3,337.4v1.2
		l-1,0.6v1.2l-1,0.6v1.2l-1,0.6l-1-0.6V341l-1-0.6v-1.2l1-0.6v-1.2l1-0.6l1,0.6l1-0.6L239.3,337.4"/>
	<path vector-effect="none" fill="none" stroke="#FFFFFF" stroke-linecap="square" stroke-linejoin="bevel" d="M238.3,391l-1,0.6
		l-1-0.6v-1.2l-1-0.6V388l1-0.6l1,0.6v1.2l1,0.6V391"/>
	<path vector-effect="none" fill="none" stroke="#FFFFFF" stroke-linecap="square" stroke-linejoin="bevel" d="M257.1,333.2l-1,0.6
		l-1-0.6V332l1-0.6l1,0.6V333.2"/>
	<path vector-effect="none" fill="none" stroke="#FFFFFF" stroke-linecap="square" stroke-linejoin="bevel" d="M259.1,329.6l1,0.6
		v1.2l-1,0.6l-1-0.6v-1.2l-1-0.6l-1,0.6l-1-0.6v-1.2l1-0.6v-1.2l1-0.6l1,0.6v1.2l1,0.6V329.6"/>
	<path vector-effect="none" fill="none" stroke="#FFFFFF" stroke-linecap="square" stroke-linejoin="bevel" d="M274.8,308.5v1.2
		l-1,0.6l-1-0.6l-1,0.6l-1-0.6v-1.2l1-0.6l1,0.6l1-0.6v-1.2l-1-0.6v-1.2l1-0.6v-1.2l1-0.6l1,0.6v1.2l-1,0.6v1.2l1,0.6v1.2
		L274.8,308.5"/>
	<path vector-effect="none" fill="none" stroke="#FFFFFF" stroke-linecap="square" stroke-linejoin="bevel" d="M242.4,346.5v1.2
		l-1,0.6v1.2l-1,0.6l-1-0.6v-1.2l-1-0.6v-1.2l1-0.6l1,0.6l1-0.6L242.4,346.5"/>
	<path vector-effect="none" fill="none" stroke="#FFFFFF" stroke-linecap="square" stroke-linejoin="bevel" d="M311.3,546.5l1,0.6
		v1.2l1,0.6l1-0.6l1,0.6v1.2l1,0.6v1.2l1,0.6l1-0.6l1,0.6v1.2l1,0.6v1.2l1,0.6v1.2l1,0.6v1.2l1,0.6v1.2l1,0.6l1-0.6l1,0.6l1-0.6
		l1,0.6v1.2l1,0.6v1.2l1,0.6v1.2l1,0.6l1-0.6l1,0.6l1-0.6v-1.2l1-0.6l1,0.6v1.2l1,0.6l1-0.6l1,0.6v1.2l1,0.6l1-0.6l1,0.6l1-0.6
		l1,0.6l1-0.6V567l1-0.6l1,0.6l1-0.6v-1.2l1-0.6l1,0.6v1.2l1,0.6l1-0.6l1,0.6l1-0.6v-1.2l1-0.6v-1.2l1-0.6v-1.2l1-0.6v-1.2l1-0.6
		V558l1-0.6v-1.2l-1-0.6v-1.2l1-0.6l1,0.6v1.2l1,0.6l1-0.6v-1.2l-1-0.6v-1.2l1-0.6v-1.2l1-0.6v-1.2l1-0.6v-1.2l1-0.6v-1.2l-1-0.6
		v-1.2l1-0.6l1,0.6l1-0.6v-1.2l1-0.6v-1.2l1-0.6l1,0.6l1-0.6v-1.2l1-0.6l1,0.6v1.2l-1,0.6v1.2l1,0.6l1-0.6l1,0.6l1-0.6l1,0.6l1-0.6
		l1,0.6l1-0.6v-1.2l1-0.6l1,0.6l1-0.6l1,0.6v1.2l-1,0.6v1.2l1,0.6v1.2l-1,0.6v1.2l-1,0.6v1.2l-1,0.6v1.2l1,0.6v1.2l-1,0.6v1.2
		l-1,0.6v1.2l-1,0.6v1.2l-1,0.6v1.2l-1,0.6l-1-0.6l-1,0.6v1.2l-1,0.6v1.2l-1,0.6v1.2l-1,0.6v1.2l-1,0.6v1.2l-1,0.6l-1-0.6l-1,0.6
		l-1-0.6l-1,0.6v1.2l-1,0.6v1.2l-1,0.6l-1-0.6l-1,0.6v1.2l-1,0.6l-1-0.6l-1,0.6v1.2l-1,0.6l-1-0.6l-1,0.6v1.2l-1,0.6v1.2l-1,0.6
		l-1-0.6l-1,0.6v1.2l-1,0.6l-1-0.6l-1,0.6l-1-0.6v-1.2l-1-0.6l-1,0.6v1.2l-1,0.6v1.2l-1,0.6l-1-0.6l-1,0.6l-1-0.6l-1,0.6l-1-0.6
		v-1.2l-1-0.6l-1,0.6l-1-0.6l-1,0.6l-1-0.6l-1,0.6l-1-0.6l-1,0.6l-1-0.6l-1,0.6l-1-0.6l-1,0.6l-1-0.6l-1,0.6l-1-0.6l-1,0.6l-1-0.6
		l-1,0.6l-1-0.6l-1,0.6l-1-0.6l-1,0.6l-1-0.6l-1,0.6v1.2l-1,0.6l-1-0.6l-1,0.6l-1-0.6l-1,0.6l-1-0.6v-1.2l-1-0.6v-1.2l-1-0.6l-1,0.6
		l-1-0.6v-1.2l-1-0.6l-1,0.6l-1-0.6V576l-1-0.6l-1,0.6l-1-0.6v-1.2l-1-0.6v-1.2l-1-0.6l-1,0.6v1.2l-1,0.6l-1-0.6v-1.2l-1-0.6v-1.2
		l-1-0.6l-1,0.6l-1-0.6v-1.2l-1-0.6V567l-1-0.6v-1.2l-1-0.6l-1,0.6l-1-0.6v-1.2l-1-0.6v-1.2l1-0.6v-1.2l1-0.6l1,0.6v1.2l1,0.6l1-0.6
		v-1.2l1-0.6V558l-1-0.6v-1.2l-1-0.6v-1.2l-1-0.6v-1.2l1-0.6l1,0.6l1-0.6v-1.2l1-0.6v-1.2l-1-0.6v-1.2l1-0.6v-1.2l-1-0.6v-1.2l1-0.6
		v-1.2l-1-0.6v-1.2l1-0.6v-1.2l-1-0.6v-1.2l1-0.6v-1.2l1-0.6v-1.2l-1-0.6l-1,0.6l-1-0.6v-1.2l1-0.6V529l1-0.6v-1.2l1-0.6v-1.2l1-0.6
		l1,0.6l1-0.6v-1.2l1-0.6v-1.2l1-0.6l1,0.6l1-0.6V520l1-0.6l1,0.6v1.2l1,0.6l1-0.6V520l1-0.6l1,0.6l1-0.6v-1.2l1-0.6v-1.2l1-0.6
		l1,0.6l1-0.6v-1.2l1-0.6v-1.2l1-0.6V511l1-0.6l1,0.6v1.2l1,0.6l1-0.6V511l1-0.6l1,0.6l1-0.6v-1.2l1-0.6v-1.2l1-0.6v-1.2l1-0.6v-1.2
		l1-0.6l1,0.6l1-0.6l1,0.6v1.2l-1,0.6v1.2l-1,0.6v1.2l-1,0.6v1.2l-1,0.6l-1-0.6l-1,0.6v1.2l-1,0.6l-1-0.6l-1,0.6v1.2l-1,0.6v1.2
		l-1,0.6l-1-0.6l-1,0.6v1.2l-1,0.6v1.2l-1,0.6v1.2l-1,0.6v1.2l1,0.6l1-0.6l1,0.6l1-0.6l1,0.6v1.2l-1,0.6v1.2l-1,0.6v1.2l-1,0.6v1.2
		l-1,0.6v1.2l1,0.6v1.2l-1,0.6v1.2l-1,0.6l-1-0.6l-1,0.6v1.2l1,0.6l1-0.6l1,0.6v1.2l1,0.6v1.2l-1,0.6v1.2l-1,0.6v1.2l1,0.6V546.5"/>
	<path vector-effect="none" fill="none" stroke="#FFFFFF" stroke-linecap="square" stroke-linejoin="bevel" d="M299.8,583.2l-1-0.6
		l-1,0.6l-1-0.6l-1,0.6l-1-0.6l0-1.2l1-0.6l0-1.2l1-0.6l0-1.2l1-0.6l1,0.6l1-0.6l1,0.6l0,1.2l1,0.6l0,1.2l-1,0.6l0,1.2L299.8,583.2"
		/>
	<path vector-effect="none" fill="none" stroke="#FFFFFF" stroke-linecap="square" stroke-linejoin="bevel" d="M299.8,468.8l-1,0.6
		v1.2l-1,0.6v1.2l-1,0.6v1.2l-1,0.6v1.2l-1,0.6v1.2l-1,0.6l-1-0.6l-1,0.6v1.2l-1,0.6l-1-0.6l-1,0.6l-1-0.6l-1,0.6l-1-0.6l-1,0.6v1.2
		l-1,0.6l-1-0.6l-1,0.6v1.2l-1,0.6l-1-0.6l-1,0.6v1.2l-1,0.6l-1-0.6l-1,0.6v1.2l-1,0.6v1.2l-1,0.6v1.2l-1,0.6l-1-0.6l-1,0.6v1.2
		l-1,0.6l-1-0.6l-1,0.6v1.2l-1,0.6l-1-0.6l-1,0.6l-1-0.6v-1.2l-1-0.6v-1.2l-1-0.6l-1,0.6l-1-0.6v-1.2l1-0.6v-1.2l-1-0.6v-1.2l-1-0.6
		l-1,0.6l-1-0.6v-1.2l-1-0.6V482l-1-0.6v-1.2l-1-0.6v-1.2l-1-0.6v-1.2l-1-0.6v-1.2l1-0.6V473l-1-0.6v-1.2l1-0.6v-1.2l1-0.6l1,0.6
		l1-0.6v-1.2l-1-0.6v-1.2l1-0.6V464l1-0.6v-1.2l-1-0.6v-1.2l1-0.6v-1.2l1-0.6v-1.2l-1-0.6v-1.2l1-0.6v-1.2l1-0.6v-1.2l1-0.6v-1.2
		l1-0.6v-1.2l1-0.6v-1.2l1-0.6v-1.2l-1-0.6v-1.2l1-0.6v-1.2l-1-0.6v-1.2l1-0.6v-1.2l1-0.6l1,0.6l1-0.6V435l1-0.6v-1.2l-1-0.6v-1.2
		l1-0.6v-1.2l1-0.6l1,0.6l1-0.6v-1.2l1-0.6V426l1-0.6v-1.2l-1-0.6l-1,0.6v1.2l-1,0.6v1.2l-1,0.6l-1-0.6V426l-1-0.6v-1.2l1-0.6v-1.2
		l1-0.6v-1.2l1-0.6v-1.2l-1-0.6V417l-1-0.6v-1.2l-1-0.6v-1.2l1-0.6v-1.2l1-0.6v-1.2l-1-0.6v-1.2l1-0.6v-1.2l1-0.6v-1.2l1-0.6l1,0.6
		l1-0.6l1,0.6v1.2l1,0.6v1.2l1,0.6l1-0.6l1,0.6v1.2l1,0.6v1.2l-1,0.6v1.2l1,0.6v1.2l1,0.6v1.2l1,0.6v1.2l1,0.6v1.2l1,0.6v1.2l-1,0.6
		v1.2l1,0.6l1-0.6l1,0.6v1.2l1,0.6v1.2l1,0.6l1-0.6l1,0.6v1.2l1,0.6v1.2l-1,0.6v1.2l1,0.6v1.2l1,0.6v1.2l-1,0.6v1.2l-1,0.6v1.2
		l1,0.6v1.2l1,0.6v1.2l1,0.6v1.2l1,0.6v1.2l1,0.6l1-0.6l1,0.6v1.2l1,0.6v1.2l1,0.6v1.2l1,0.6v1.2l1,0.6v1.2l1,0.6v1.2l1,0.6v1.2
		l1,0.6v1.2l-1,0.6v1.2l1,0.6v1.2l-1,0.6v1.2l1,0.6v1.2l-1,0.6L299.8,468.8"/>
	<path vector-effect="none" fill="none" stroke="#FFFFFF" stroke-linecap="square" stroke-linejoin="bevel" d="M308.2,471.2v1.2
		l-1,0.6l-1-0.6l-1,0.6l-1-0.6l-1,0.6l-1-0.6v-1.2l-1-0.6v-1.2l1-0.6v-1.2l-1-0.6v-1.2l1-0.6V464l-1-0.6v-1.2l1-0.6v-1.2l-1-0.6
		v-1.2l-1-0.6v-1.2l-1-0.6v-1.2l-1-0.6v-1.2l-1-0.6v-1.2l-1-0.6v-1.2l-1-0.6v-1.2l-1-0.6l-1,0.6l-1-0.6v-1.2l-1-0.6v-1.2l-1-0.6
		v-1.2l-1-0.6v-1.2l-1-0.6v-1.2l1-0.6v-1.2l1-0.6V435l-1-0.6v-1.2l-1-0.6v-1.2l1-0.6v-1.2l-1-0.6v-1.2l-1-0.6l-1,0.6l-1-0.6V426
		l-1-0.6v-1.2l-1-0.6l-1,0.6l-1-0.6v-1.2l1-0.6l1,0.6l1-0.6l1,0.6l1-0.6v-1.2l1-0.6l1,0.6v1.2l1,0.6l1-0.6l1,0.6l1-0.6l1,0.6v1.2
		l1,0.6l1-0.6l1,0.6v1.2l1,0.6l1-0.6l1,0.6l1-0.6l1,0.6v1.2l1,0.6v1.2l1,0.6l1-0.6l1,0.6l1-0.6l1,0.6l1-0.6l1,0.6v1.2l1,0.6l1-0.6
		l1,0.6l1-0.6l1,0.6l1-0.6l1,0.6l1-0.6l1,0.6l1-0.6v-1.2l1-0.6v-1.2l-1-0.6V426l1-0.6l1,0.6v1.2l1,0.6v1.2l1,0.6v1.2l1,0.6v1.2
		l-1,0.6v1.2l1,0.6v1.2l1,0.6v1.2l1,0.6l1-0.6l1,0.6v1.2l1,0.6v1.2l1,0.6l1-0.6l1,0.6v1.2l1,0.6l1-0.6l1,0.6v1.2l1,0.6l1-0.6l1,0.6
		l1-0.6l1,0.6v1.2l1,0.6v1.2l1,0.6v1.2l1,0.6v1.2l-1,0.6v1.2l-1,0.6l-1-0.6l-1,0.6l-1-0.6l-1,0.6v1.2l1,0.6l1-0.6l1,0.6v1.2l1,0.6
		l1-0.6l1,0.6v1.2l1,0.6v1.2l-1,0.6v1.2l1,0.6v1.2l-1,0.6v1.2l-1,0.6v1.2l-1,0.6l-1-0.6v-1.2l-1-0.6v-1.2l-1-0.6l-1,0.6v1.2l-1,0.6
		l-1-0.6v-1.2l-1-0.6V464l-1-0.6v-1.2l-1-0.6l-1,0.6l-1-0.6l-1,0.6v1.2l-1,0.6v1.2l-1,0.6v1.2l-1,0.6v1.2l1,0.6v1.2l-1,0.6l-1-0.6
		v-1.2l-1-0.6l-1,0.6l-1-0.6l-1,0.6l-1-0.6l-1,0.6v1.2l-1,0.6l-1-0.6l-1,0.6l-1-0.6l-1,0.6l-1-0.6l-1,0.6l-1-0.6l-1,0.6l-1-0.6
		L308.2,471.2"/>
	<path vector-effect="none" fill="none" stroke="#FFFFFF" stroke-linecap="square" stroke-linejoin="bevel" d="M241.4,479.5l-1,0.6
		l-1-0.6l-1,0.6l-1-0.6v-1.2l1-0.6v-1.2l-1-0.6v-1.2l-1-0.6v-1.2l1-0.6v-1.2l1-0.6l1,0.6v1.2l1,0.6v1.2l1,0.6v1.2l1,0.6v1.2l-1,0.6
		V479.5"/>
	<path vector-effect="none" fill="none" stroke="#FFFFFF" stroke-linecap="square" stroke-linejoin="bevel" d="M250.8,480.2l1-0.6
		l1,0.6v1.2l1,0.6v1.2l1,0.6v1.2l1,0.6l1-0.6l1,0.6v1.2l1,0.6v1.2l-1,0.6v1.2l1,0.6l1-0.6l1,0.6v1.2l1,0.6v1.2l-1,0.6v1.2l-1,0.6
		l-1-0.6l-1,0.6v1.2l-1,0.6l-1-0.6l-1,0.6v1.2l1,0.6v1.2l-1,0.6v1.2l-1,0.6v1.2l1,0.6v1.2l1,0.6v1.2l1,0.6l1-0.6v-1.2l1-0.6l1,0.6
		v1.2l-1,0.6v1.2l1,0.6v1.2l-1,0.6l-1-0.6l-1,0.6v1.2l-1,0.6v1.2l1,0.6v1.2l1,0.6l1-0.6l1,0.6v1.2l1,0.6v1.2l1,0.6l1-0.6l1,0.6v1.2
		l1,0.6v1.2l1,0.6v1.2l1,0.6v1.2l1,0.6v1.2l1,0.6v1.2l-1,0.6v1.2l1,0.6v1.2l1,0.6v1.2l-1,0.6v1.2l-1,0.6l-1-0.6l-1,0.6v1.2l-1,0.6
		v1.2l-1,0.6v1.2l-1,0.6v1.2l-1,0.6v1.2l-1,0.6v1.2l-1,0.6v1.2l-1,0.6l-1-0.6l-1,0.6l-1-0.6l-1,0.6l-1-0.6v-1.2l-1-0.6v-1.2l-1-0.6
		v-1.2l-1-0.6l-1,0.6l-1-0.6l-1,0.6l-1-0.6v-1.2l-1-0.6v-1.2l1-0.6v-1.2l-1-0.6v-1.2l1-0.6v-1.2l-1-0.6v-1.2l1-0.6v-1.2l-1-0.6
		l-1,0.6v1.2l-1,0.6v1.2l-1,0.6l-1-0.6l-1,0.6l-1-0.6v-1.2l-1-0.6l-1,0.6l-1-0.6v-1.2l1-0.6v-1.2l-1-0.6v-1.2l1-0.6V529l1-0.6v-1.2
		l-1-0.6l-1,0.6l-1-0.6l-1,0.6v1.2l-1,0.6l-1-0.6l-1,0.6l-1-0.6l-1,0.6l-1-0.6v-1.2l1-0.6v-1.2l1-0.6v-1.2l1-0.6v-1.2l1-0.6l1,0.6
		l1-0.6V520l1-0.6l1,0.6l1-0.6l1,0.6l1-0.6l1,0.6l1-0.6v-1.2l1-0.6v-1.2l1-0.6v-1.2l1-0.6v-1.2l1-0.6V511l1-0.6l1,0.6l1-0.6v-1.2
		l1-0.6l1,0.6l1-0.6v-1.2l1-0.6v-1.2l-1-0.6v-1.2l-1-0.6l-1,0.6l-1-0.6v-1.2l-1-0.6v-1.2l-1-0.6v-1.2l-1-0.6v-1.2l-1-0.6v-1.2
		l-1-0.6v-1.2l-1-0.6v-1.2l-1-0.6v-1.2l-1-0.6v-1.2l-1-0.6v-1.2l1-0.6v-1.2l-1-0.6V482l1-0.6l1,0.6l1-0.6l1,0.6l1-0.6l1,0.6v1.2
		l1,0.6l1-0.6V482l1-0.6v-1.2l1-0.6L250.8,480.2"/>
	<path vector-effect="none" fill="none" stroke="#FFFFFF" stroke-linecap="square" stroke-linejoin="bevel" d="M365.6,520l1-0.6
		l1,0.6v1.2l-1,0.6v1.2l-1,0.6v1.2l1,0.6v1.2l-1,0.6v1.2l1,0.6v1.2l1,0.6v1.2l1,0.6v1.2l-1,0.6v1.2l1,0.6v1.2l-1,0.6l-1-0.6l-1,0.6
		v1.2l-1,0.6v1.2l1,0.6v1.2l1,0.6v1.2l1,0.6v1.2l-1,0.6v1.2l-1,0.6v1.2l-1,0.6v1.2l-1,0.6v1.2l1,0.6v1.2l-1,0.6l-1-0.6v-1.2l-1-0.6
		l-1,0.6v1.2l1,0.6v1.2l-1,0.6v1.2l-1,0.6v1.2l-1,0.6v1.2l-1,0.6v1.2l-1,0.6v1.2l-1,0.6l-1-0.6l-1,0.6l-1-0.6v-1.2l-1-0.6l-1,0.6
		v1.2l-1,0.6l-1-0.6l-1,0.6v1.2l-1,0.6l-1-0.6l-1,0.6l-1-0.6l-1,0.6l-1-0.6V567l-1-0.6l-1,0.6l-1-0.6v-1.2l-1-0.6l-1,0.6v1.2l-1,0.6
		l-1-0.6l-1,0.6l-1-0.6v-1.2l-1-0.6v-1.2l-1-0.6v-1.2l-1-0.6l-1,0.6l-1-0.6l-1,0.6l-1-0.6v-1.2l-1-0.6V558l-1-0.6v-1.2l-1-0.6v-1.2
		l-1-0.6v-1.2l-1-0.6l-1,0.6l-1-0.6v-1.2l-1-0.6v-1.2l-1-0.6l-1,0.6l-1-0.6v-1.2l-1-0.6v-1.2l-1-0.6v-1.2l1-0.6v-1.2l1-0.6v-1.2
		l-1-0.6v-1.2l-1-0.6l-1,0.6l-1-0.6v-1.2l1-0.6l1,0.6l1-0.6v-1.2l1-0.6v-1.2l-1-0.6v-1.2l1-0.6V529l1-0.6v-1.2l1-0.6l1,0.6l1-0.6
		l1,0.6l1-0.6v-1.2l1-0.6l1,0.6l1-0.6v-1.2l1-0.6v-1.2l1-0.6V520l1-0.6l1,0.6l1-0.6l1,0.6l1-0.6v-1.2l1-0.6l1,0.6l1-0.6v-1.2l1-0.6
		l1,0.6l1-0.6v-1.2l1-0.6l1,0.6l1-0.6v-1.2l1-0.6l1,0.6l1-0.6V511l1-0.6l1,0.6l1-0.6l1,0.6l1-0.6l1,0.6l1-0.6l1,0.6l1-0.6l1,0.6v1.2
		l1,0.6v1.2l1,0.6l1-0.6l1,0.6v1.2l1,0.6l1-0.6l1,0.6l1-0.6l1,0.6l1-0.6l1,0.6v1.2l1,0.6v1.2L365.6,520"/>
</g>
</svg>
